<?xml version="1.0" encoding="utf-8"?>
<!-- Generator: Adobe Illustrator 20.1.0, SVG Export Plug-In . SVG Version: 6.00 Build 0)  -->
<svg version="1.1" id="Layer_1" xmlns="http://www.w3.org/2000/svg" xmlns:xlink="http://www.w3.org/1999/xlink" x="0px" y="0px"
	 viewBox="0 0 271 100" style="enable-background:new 0 0 271 100;" xml:space="preserve">
<style type="text/css">
	.st0{fill:#E44F26;}
	.st1{fill:#010101;}
	.st2{fill:#F1662A;}
	.st3{fill:#FFFFFF;}
	.st4{fill:#EBEBEB;}
	.st5{fill:#1072BA;}
	.st6{fill:#2AAAE2;}
	.st7{fill:#B4B4B4;}
	.st8{fill:#E6E6E5;}
	.st9{fill:#E6A329;}
	.st10{fill:#F1BF22;}
</style>
<g id="code_x5F_html5">
	<g>
		<polygon class="st0" points="71,19.6 35.5,19.6 35.5,19.6 0,19.6 6.7,91.8 35.5,100 35.5,100 35.5,100 35.5,100 35.5,100 
			64.4,91.8 		"/>
		<path class="st1" d="M15.2,4.5h-4.1V0H6.6v13.5h4.5V9h4.1v4.5h4.5V0h-4.5V4.5z M46.9,0h-0.4l-2.8,4.6L40.9,0h-0.3h-4.2h-0.2v13.5
			h4.4V6.8l3.1,4.9l0,0l0,0l0,0l0,0l3.2-5v6.9h4.4V0H51H46.9z M21.8,4.5h3.9v8.9h4.5V4.5h3.9V0H21.8V4.5z M58.1,8.9V0h-4.5v13.5h1.1
			h3.4h6.3V8.9H58.1z"/>
		<polygon class="st2" points="35.5,25.5 35.5,93.9 35.5,93.9 58.9,87.3 64.6,25.5 		"/>
		<polygon class="st3" points="57.9,34.3 13.2,34.3 15.7,61.4 15.7,61.2 46.3,61.2 45.3,72.7 35.5,75.5 25.6,72.6 25,65.7 
			16.1,65.7 17.3,79.5 35.5,84.7 53.7,79.5 56.2,52.4 23.8,52.4 23,43.3 57,43.3 		"/>
		<g>
			<path class="st4" d="M35.5,34.3H13.2l2.5,27l0.1-0.2h19.8v-8.8H23.8L23,43.3h12.6V34.3z M25,65.7h-9l1.3,13.8l18.2,5.2v-9.2
				l-9.9-2.9L25,65.7z"/>
		</g>
	</g>
</g>
<g>
	<g>
		<polygon class="st1" points="125.2,4.6 125.2,0 114.2,0 114.2,13.5 125.2,13.5 125.2,8.9 118.8,8.9 118.8,4.6 		"/>
		<polygon class="st1" points="140.8,0 129.8,0 129.8,4.7 134.4,8.9 129.8,8.9 129.8,13.5 140.8,13.5 140.8,9 136.6,4.6 140.8,4.6 
					"/>
		<polygon class="st1" points="156.7,0 145.7,0 145.7,4.7 150.1,8.9 145.7,8.9 145.7,13.5 156.7,13.5 156.7,9 152.4,4.6 156.7,4.6 
					"/>
	</g>
	<polygon class="st5" points="106.5,92 100,19.6 170.9,19.6 164.4,92 135.4,100 	"/>
	<polygon class="st6" points="135.5,93.8 158.9,87.4 164.4,25.6 135.5,25.6 	"/>
	<polygon class="st7" points="114.8,52.2 115.5,61.1 135.5,52.2 135.5,43.3 	"/>
	<polygon class="st8" points="157.6,33.9 135.5,43.3 135.5,52.2 156.8,42.7 	"/>
	<polygon class="st8" points="135.5,75.4 135.4,75.4 125.5,72.8 124.9,65.7 116,65.7 117.2,79.6 135.4,84.7 135.5,84.6 	"/>
	<polygon class="st3" points="135.5,52.2 135.5,61.1 146.3,61.1 145.4,72.7 135.5,75.4 135.5,84.6 153.6,79.6 156,52.2 	"/>
	<polygon class="st8" points="135.5,52.2 114.8,52.2 115.5,61.1 135.5,61.1 	"/>
	<polygon class="st8" points="135.5,42.7 135.5,33.9 135.4,33.9 113.2,33.9 114,42.7 	"/>
	<polygon class="st3" points="135.5,33.9 135.5,42.6 135.5,42.7 156.8,42.7 157.6,33.9 	"/>
</g>
<g>
	<polygon class="st9" points="271,19.6 235.4,19.6 235.4,19.6 199.9,19.6 206.6,91.8 235.4,100 235.4,100 235.4,100 235.4,100 
		235.4,100 264.3,91.8 	"/>
	<polygon class="st10" points="235.4,25.5 235.4,93.9 235.4,93.9 258.8,87.3 264.5,25.5 	"/>
	<polygon class="st3" points="254,34.3 218.1,34.3 215.6,61.4 215.6,61.2 246.2,61.2 245.2,72.7 235.4,75.5 225.6,72.6 225,65.7 
		216,65.7 217.3,79.5 235.4,84.7 253.6,79.5 256.1,52.4 223.7,52.4 224.1,43.3 246.6,43.3 247,48.5 256,48.5 	"/>
	<g>
		<path class="st4" d="M235.4,34.3h-17.4l-2.5,27l0.1-0.2h19.8v-8.8H225l0.4-9.1h10.1V34.3z M225,65.7h-9l1.3,13.8l18.2,5.2v-9.2
			l-9.9-2.9L225,65.7z"/>
	</g>
	<g>
		<polygon points="228.5,8.9 222.2,8.9 222.2,13.5 228.5,13.5 231.9,13.5 233.1,13.5 233.1,0 228.5,0 		"/>
		<path d="M248.7,0.1h-11c0,0,0,2.4,0,4.7c1.5,1.5,2.2,2.2,4.4,4.3c-1.2,0-4.4,0-4.4,0v4.3h11V9.1l-4.4-4.3h4.4V0.1z"/>
	</g>
</g>
</svg>
