<?xml version="1.0" encoding="utf-8"?>
<!-- Generator: Adobe Illustrator 17.1.0, SVG Export Plug-In . SVG Version: 6.00 Build 0)  -->
<!DOCTYPE svg PUBLIC "-//W3C//DTD SVG 1.1//EN" "http://www.w3.org/Graphics/SVG/1.1/DTD/svg11.dtd">
<svg version="1.1" id="Layer_1" xmlns="http://www.w3.org/2000/svg" xmlns:xlink="http://www.w3.org/1999/xlink" x="0px" y="0px"
	 viewBox="258.4 320.1 1077.7 170.9" enable-background="new 258.4 320.1 1077.7 170.9" xml:space="preserve">
<g transform="matrix(1,0,0,1,-45,0)">
	<g transform="matrix(-1.1026e-16,-0.685646,1.1495,-1.84854e-16,38.0695,419.673)">
		<g transform="matrix(1.45848,0,0,0.869944,-4.2166,1.46649)">
			<g enable-background="new    ">
				<path fill="#19AEA6" d="M58,407.9V284.4H35.7v-19.5h44.6v143.1h21.2v19.8H35.7v-19.8H58z"/>
			</g>
		</g>
	</g>
	<g transform="matrix(1.94228e-16,0.685646,-1.14326,3.23858e-16,202.409,381.55)">
		<g transform="matrix(1.45848,0,0,0.874694,-4.2166,1.41292)">
			<g enable-background="new    ">
				<path fill="#19AEA6" d="M67.8-123.5v-123.5H45.5v-19.5H90v143.2h21.2v19.8H45.5v-19.8h22.3V-123.5z"/>
			</g>
		</g>
	</g>
	<g transform="matrix(0.881745,0,0,1.09551,40.3584,324.902)">
		<g>
			<rect x="343" y="56.8" fill="#FFFFFF" width="97.7" height="33.7"/>
		</g>
	</g>
</g>
<g>
	<path fill="#FFFFFF" d="M539.8,468.5c-10.5-0.1-19.7-1.8-27.6-5.1c-7.9-3.3-14.4-7.9-19.7-13.6c-5.3-5.7-9.2-12.3-11.8-19.9
		c-2.6-7.6-3.9-15.6-3.9-24.2c0-9.3,1.4-17.8,4.3-25.5c2.9-7.7,7-14.3,12.4-19.9c5.4-5.6,12-9.9,19.8-12.9
		c7.8-3.1,16.6-4.6,26.5-4.6c7.9,0,15,1.3,21.2,3.9c6.3,2.6,11.7,6.1,16.4,10.5v-12.6H594V383h-15.6c-2-4.3-4.3-8-7-11
		c-2.6-3.1-5.5-5.6-8.7-7.6s-6.5-3.4-10.1-4.3c-3.6-0.9-7.3-1.4-11.2-1.4c-6.4,0-12,1.2-17.1,3.5s-9.3,5.6-12.8,9.7
		c-3.5,4.1-6.3,9.1-8.1,14.8c-1.9,5.7-2.8,11.9-2.8,18.7c0,6.6,0.9,12.8,2.6,18.5c1.7,5.7,4.3,10.7,7.8,14.9
		c3.4,4.2,7.7,7.5,12.8,9.9c5.1,2.4,10.9,3.6,17.6,3.6c4.4,0,8.7-0.6,12.8-1.7c4.1-1.1,7.9-2.9,11.4-5.4c3.4-2.4,6.4-5.6,9-9.3
		c2.5-3.8,4.5-8.3,5.8-13.5l17.2,8.1c-2.3,7.3-5.4,13.4-9.3,18.2c-3.9,4.8-8.4,8.7-13.5,11.6c-5.1,2.9-10.6,5-16.5,6.2
		S546.2,468.4,539.8,468.5z"/>
	<path fill="#FFFFFF" d="M664.8,452.4v14.2h-54.3v-14.2h16.6v-57h-16.6v-14.1h33.6l0.1,19.3c1.7-3.9,3.7-7.2,5.9-9.8
		s4.6-4.9,7.2-6.5c2.6-1.7,5.5-2.9,8.6-3.6c3.1-0.7,6.4-1.1,9.9-1.1c1.1,0,2.4,0.1,3.8,0.2c1.4,0.1,2.4,0.2,3.1,0.3l-0.2,18.1
		c-1.2-0.1-2.2-0.1-3-0.2c-0.8,0-1.5-0.1-2.3-0.1c-0.7,0-1.3-0.1-1.7-0.1c-5.2,0-9.7,0.7-13.3,2s-6.6,3.3-8.9,5.9
		c-2.3,2.6-4,5.8-5.1,9.6c-1.1,3.8-1.6,8.2-1.6,13.1v23.9H664.8z"/>
	<path fill="#FFFFFF" d="M800.7,452.4v14.2h-34.2l-0.4-9.6c-4.4,3.8-8.9,6.7-13.5,8.6s-9.3,2.9-14.1,2.9c-4.6,0-8.6-0.7-12-2
		c-3.4-1.3-6.2-3.2-8.4-5.7c-2.2-2.5-3.8-5.5-4.9-9.1c-1-3.6-1.6-7.6-1.6-12.1v-44.2h-12.7v-14.1h32.5v55.9c0,5.1,0.9,9,2.7,11.6
		c1.8,2.6,4.9,4,9.5,4c4.1,0,8-1.1,11.9-3.4c3.8-2.2,7.4-5.2,10.6-8.9v-45.2h-14.2v-14.1h34v71.1H800.7z"/>
	<path fill="#FFFFFF" d="M812.5,395.4v-14.1h34.5c0,0.5,0,1.3,0,2.3c0,1,0,2.1,0.1,3.2c0,1.1,0.1,2.1,0.1,3.1c0,0.9,0.1,1.6,0.1,1.9
		c5-4,9.8-7,14.4-9.1c4.6-2,9.3-3.1,14.2-3.1c3.6,0,7,0.6,10.1,1.8s5.8,3,8,5.3c2.2,2.3,4,5.3,5.3,8.8c1.3,3.5,2,7.6,2,12.2
		c0,0.6,0,1.7,0,3.3c0,1.6,0,3.5-0.1,5.7c0,2.2-0.1,4.6-0.1,7.3s0,5.3,0,7.9v20.6h14.4v14.2h-43.4v-14.2h9.4v-39.6
		c0-5.8-0.8-10.1-2.5-13.2c-1.6-3-4.5-4.5-8.7-4.5c-4.3,0-8.4,1.1-12.3,3.4s-7.5,5.1-10.9,8.5v45.4h12.1v14.2h-46.5v-14.2h14.5v-57
		H812.5z"/>
	<path fill="#FFFFFF" d="M1006.4,412.8h-15.8c-0.7-2.5-1.6-4.9-2.8-7.1c-1.2-2.2-2.6-4-4.4-5.6s-3.9-2.8-6.3-3.7
		c-2.4-0.9-5.2-1.3-8.3-1.3c-3.9,0-7.5,0.7-10.6,2s-5.7,3.2-7.8,5.7c-2.1,2.5-3.7,5.5-4.8,9s-1.7,7.4-1.7,11.7c0,4.4,0.6,8.4,1.7,12
		c1.1,3.6,2.7,6.7,4.8,9.2c2.1,2.5,4.7,4.5,7.8,5.9c3.1,1.4,6.6,2.1,10.6,2.1c5.2,0,10.1-1.2,14.7-3.5s8.3-5.7,11.2-10.3l13.4,8.5
		c-4,6.9-9.3,12.1-15.8,15.6c-6.5,3.5-14.4,5.3-23.7,5.3c-7.6,0-14.3-1.3-20-3.8c-5.7-2.5-10.4-5.9-14.2-10s-6.5-8.9-8.4-14.2
		c-1.8-5.3-2.8-10.8-2.8-16.3c0-6.2,1.1-12,3.2-17.5c2.1-5.4,5.1-10.1,8.9-14.2c3.8-4,8.4-7.2,13.7-9.4c5.3-2.3,11.1-3.4,17.5-3.4
		c2.6,0,5.1,0.3,7.4,0.8s4.5,1.3,6.5,2.2c2,0.9,3.8,1.9,5.5,3.1s3.1,2.4,4.3,3.7l-0.1-8h16.4V412.8z"/>
	<path fill="#FFFFFF" d="M1021.7,452.4h15.2v-93.8h-15v-14.1h34.6v44.8c5.1-3.4,10-5.9,14.6-7.4c4.7-1.5,9.5-2.3,14.5-2.3
		c8.8,0,15.4,2.4,19.8,7.2c4.5,4.8,6.7,11.6,6.7,20.4v45.2h13.2v14.2h-42.2v-14.2h9.4V411c0-2.3-0.2-4.4-0.6-6.3
		c-0.4-1.9-1.1-3.6-2.1-5c-1-1.4-2.3-2.5-3.9-3.3s-3.7-1.2-6.2-1.2c-3.5,0-7.2,0.7-11.1,2c-3.9,1.3-8,3.3-12.1,6v49.2h12.5v14.2
		h-47.4V452.4z"/>
	<path fill="#FFFFFF" d="M1215.5,452.8c-3.8,5-9,8.8-15.5,11.5c-6.5,2.7-14.1,4.1-22.9,4.1c-7.4,0-14-1.1-19.9-3.4
		c-5.9-2.2-10.9-5.3-15-9.2s-7.3-8.6-9.5-14s-3.3-11.2-3.3-17.5c0-6.5,1.2-12.5,3.5-18c2.3-5.5,5.6-10.2,9.8-14.2
		c4.2-4,9.1-7.1,14.8-9.3s11.9-3.3,18.7-3.3c7.1,0,13.3,1.2,18.7,3.7s9.8,5.9,13.4,10.3c3.6,4.4,6.3,9.5,8.1,15.4
		c1.8,5.9,2.7,12.2,2.7,19.1h-68.9c0.3,3.6,1,7,2.3,10c1.2,3.1,3,5.7,5.3,8c2.3,2.2,5.2,4,8.5,5.3c3.4,1.3,7.3,1.9,11.7,1.9
		c4.8,0,9.5-0.9,14.2-2.8c4.7-1.9,8.9-4.6,12.4-8.1L1215.5,452.8z M1199.9,416.3c-0.5-3.2-1.3-6.2-2.6-8.8c-1.2-2.7-2.8-5-4.8-7
		c-2-2-4.3-3.5-7.1-4.6s-5.9-1.7-9.3-1.7c-7.6,0-13.4,2-17.6,6c-4.2,4-6.8,9.4-8,16.1H1199.9z"/>
	<path fill="#FFFFFF" d="M1284.8,344.6h35.6v107.8h14.7v14.2h-34.6v-9.8c-3.8,4.1-8.2,7.1-13.1,8.9c-4.9,1.9-10.1,2.8-15.6,2.8
		c-5.4,0-10.5-1-15.4-2.9s-9.2-4.8-12.9-8.6s-6.7-8.5-9-14.1c-2.2-5.6-3.4-12-3.4-19.3c0-6.1,1-11.8,2.9-17.2c1.9-5.4,4.7-10,8.2-14
		c3.5-4,7.8-7.1,12.8-9.4c5-2.3,10.6-3.4,16.8-3.4c5.8,0,11,0.9,15.6,2.8c4.6,1.9,9,4.7,13.2,8.5v-32.3h-15.9V344.6z M1251.6,424.5
		c0,4.1,0.6,7.9,1.7,11.3c1.1,3.5,2.8,6.5,4.9,9s4.8,4.5,7.9,5.9c3.1,1.4,6.7,2.1,10.7,2.1c3.1,0,5.9-0.5,8.6-1.5c2.6-1,5-2.1,7-3.3
		c2-1.2,3.7-2.5,5.1-3.8s2.4-2.2,3-2.8v-33.9c-0.6-0.6-1.6-1.6-3-3c-1.4-1.4-3.1-2.8-5.1-4.2c-2-1.4-4.4-2.6-7.1-3.7
		c-2.7-1-5.6-1.6-8.6-1.6c-4,0-7.6,0.7-10.7,2.2c-3.1,1.5-5.7,3.5-7.9,6.1c-2.1,2.6-3.8,5.7-4.9,9.3
		C1252.2,416.4,1251.6,420.3,1251.6,424.5z"/>
</g>
</svg>
