<?xml version="1.0" encoding="utf-8"?>
<!-- Generator: Adobe Illustrator 19.2.1, SVG Export Plug-In . SVG Version: 6.00 Build 0)  -->
<svg version="1.1" id="Layer_1" xmlns="http://www.w3.org/2000/svg" xmlns:xlink="http://www.w3.org/1999/xlink" x="0px" y="0px"
	 viewBox="0 0 1077.8 215.9" style="enable-background:new 0 0 1077.8 215.9;" xml:space="preserve">
<style type="text/css">
	.st0{fill:#222325;}
</style>
<g>
	<path class="st0" d="M0,127.6c0,38,21.6,46.9,57.1,46.9h64.7c39.3,0,46.9-16.5,46.9-39.3v-12.7h-39.3c0,15.2-5.1,17.8-22.8,17.8
		H63.4c-19,0-22.8-6.3-22.8-25.4V101c0-15.2,3.8-25.4,25.4-25.4h43c11.4,0,19,2.5,19,12.7v3.8h39.3c0-36.8-7.6-49.5-63.4-49.5H57.1
		C21.6,42.6,0,51.5,0,89.6V127.6L0,127.6z"/>
	<path class="st0" d="M218.1,101v12.7c0,19,3.8,25.4,22.8,25.4h50.7c19,0,22.8-6.3,22.8-25.4V101c0-15.2-3.8-25.4-25.4-25.4h-46.9
		C221.9,74.3,218.1,84.5,218.1,101L218.1,101z M177.5,127.6V88.3c0-38,21.6-46.9,57.1-46.9H298c36.8,0,57.1,8.9,57.1,46.9v39.3
		c0,38-21.6,46.9-57.1,46.9h-63.4C199.1,173.2,177.5,165.6,177.5,127.6L177.5,127.6z"/>
	<path class="st0" d="M362.6,127.6c0,38,22.9,46.9,58.4,46.9h48.2c44.4,0,63.4-1.3,63.4-39.3V98.4h-88.8V125h49.5v3.8
		c0,12.7-10.1,15.2-20.3,15.2h-43.1c-20.3,0-25.4-5.1-25.4-27.9V101c0-22.8,5.1-26.6,25.4-26.6H473c12.7,0,19,1.3,19,13.9h39.3v-3.8
		c0-25.4-5.1-41.8-50.7-41.8h-60.9c-36.8,0-57.1,8.9-57.1,46.9V127.6L362.6,127.6z"/>
	<polygon class="st0" points="544,173.2 583.3,173.2 583.3,78.1 583.3,78.1 658.1,173.2 720.2,173.2 720.2,41.4 680.9,41.4 
		680.9,136.5 680.9,136.5 606.1,41.4 544,41.4 	"/>
	<polygon class="st0" points="735.4,173.2 880,173.2 880,141.5 774.7,141.5 774.7,121.3 872.4,121.3 872.4,93.4 774.7,93.4 
		774.7,73.1 877.5,73.1 877.5,41.4 735.4,41.4 	"/>
	<polygon class="st0" points="885.1,173.2 939.6,173.2 981.4,125.1 1024.5,173.2 1077.8,173.2 1014.4,107.3 1074,41.4 1023.3,41.4 
		981.4,87 940.9,41.4 890.1,41.4 949.7,107.3 	"/>
</g>
</svg>
