<?xml version="1.0" encoding="utf-8"?>
<!-- Generator: Adobe Illustrator 18.1.1, SVG Export Plug-In . SVG Version: 6.00 Build 0)  -->
<svg version="1.1" id="Layer_1" xmlns="http://www.w3.org/2000/svg" xmlns:xlink="http://www.w3.org/1999/xlink" x="0px" y="0px"
	 viewBox="0 0 983.9 984.3" enable-background="new 0 0 983.9 984.3" xml:space="preserve">
<g id="Content">
	<g id="BG" display="none">
		<rect y="1.2" display="inline" fill="#4FBA6F" width="983.9" height="983.1"/>
		
			<radialGradient id="SVGID_1_" cx="491.9438" cy="491.5243" r="446.5531" gradientTransform="matrix(1 0 0 1 0 1.359367e-02)" gradientUnits="userSpaceOnUse">
			<stop  offset="0" style="stop-color:#FFFFFF"/>
			<stop  offset="0.7602" style="stop-color:#FFFFFF;stop-opacity:0.3257"/>
			<stop  offset="1" style="stop-color:#FFFFFF;stop-opacity:0.1"/>
		</radialGradient>
		<rect y="0" display="inline" fill="url(#SVGID_1_)" width="983.9" height="983.1"/>
	</g>
	<path id="Ring_Glow" fill="#FFFFFF" d="M733.9,492c0,132.8-107.7,240.5-240.5,240.5c-132.8,0-240.5-107.7-240.5-240.5
		c0-124.3,94.3-226.6,215.2-239.2l0,0c0.7-0.1,1.5-0.2,2.2-0.2c7.6-0.7,15.3-1.1,23-1.1c7.8,0,15.6,0.4,23.2,1.1c0,0,0,0,0,0
		c0.7,0,1.3,0.1,2,0.2h0C639.6,265.5,733.9,367.7,733.9,492z"/>
	<g id="Logo_2_">
		<g id="Logo">
			<g>
				<path fill="#6D431B" stroke="#3C2415" stroke-miterlimit="10" d="M455.3,417.4c-9,0-13.1-6.6-13.1-11.6c0-3,1.3-5.3,4-5.3
					c0,0,2.3,0,2.3,3c0,5.8,1.9,12.1,8.2,12.1c6.3,0,11.7-9.2,11.7-20.1c0-24.1-20.6-34.8-45-34.8c-49.4,0-73.2,33-73.2,56.6
					c0,13.1,7.3,23.2,21.7,23.2c13.9,0,26.2-4.3,41.1-15.9c6.1-4.7,10.4-11.7,15.9-19.2c5.5-7.6,7.4-13.1,7.4-13.1
					c0.3-0.5,0.7-0.7,0.9-0.7c0.8,0,1.5,1.1,1.5,2.3c-1.4,2.3-5.7,10.9-6.7,13.6c-10.7,26.7-16.1,41.4-23.2,57.9
					c-14.3,33-39.2,46.4-59.5,46.4c-20.2,0-30.8-12.5-30.8-25.8c0-14.3,12.4-29.3,38.4-29.3c13.6,0,19.7,6.7,19.7,13.8
					c0,8-7.7,16.5-20.9,16.5c-2.7,0-4.6-2.2-4.6-4c0-1.5,1.1-2.7,3.8-2.7c1.6,0,3.2,0.4,5.1,0.4c6.7,0,11.6-5.3,11.6-10.7
					c0-5.3-4.7-10.5-16.9-10.5c-17.8,0-26.6,13.2-26.6,26c0,11.7,7.4,23.1,22,23.1c15,0,33.7-11.9,46.9-41.8
					c5.3-12,10.4-24.7,15-35.7c0.1-0.4,0.3-0.5,0.3-0.8c0-0.4-0.3-0.7-0.7-0.7c-0.4,0-0.8,0.3-1.2,0.5
					c-16.3,11.1-32.6,15.1-48.7,15.1c-16.9,0-25-10.1-25-23.5c0-25.9,30.5-63.9,87.9-63.9c27.8,0,51,11.3,51,36.3
					C476,406.6,467.9,417.4,455.3,417.4z"/>
				<path fill="#6D431B" stroke="#3C2415" stroke-miterlimit="10" d="M506.8,438c8.8-5.4,12.5-13.5,12.5-21.2
					c0-11.1-7.6-21.2-18.9-21.2c-6.3,0-8.2,6.3-8.2,12.1c0,3-2.3,3-2.3,3c-2.7,0-4-2.3-4-5.3c0-5,4-11.6,13.1-11.6
					c17.5,0,27.8,10.9,27.8,22.8c0,8.2-5,16.9-15.8,22.5c12.5,3.8,25.6,6.7,40.2,6.7c10.8,0,23.1-4.6,25.1-13.9c0,0,0.7-0.9,1.8-0.9
					c3,0,5.7,2.8,5.7,6.3c0,5.5-6.7,12.7-29.8,12.7c-15.5,0-31-4.5-46.1-9.4c-7,3-16.2,4.9-27.5,4.9c-3.2,0-6.6-0.1-10.3-0.4
					c-3.5,17.8-22.7,41.9-41.3,41.9c-9.6,0-13.4-5.4-13.4-13.1c0-17.9,21.3-47.7,41.4-47.7C473.3,426.3,489.4,432.5,506.8,438z
					 M435.5,480.1c13.4,0,26.3-21.4,26.3-35.9c-10-2.4-14.7-7.4-14.7-12c-10.4,3.6-20.2,23.6-20.2,36.6
					C426.9,475.2,429.5,480.1,435.5,480.1z M461.7,441.9c-0.5-5.5-3.4-9.6-9.3-10.3C452.4,434.9,456.6,439.8,461.7,441.9z
					 M470.6,439.6c0,1.2-0.1,2.4-0.3,3.6c3.8,0.5,7.4,0.7,10.8,0.7c9.6,0,17.1-1.6,22.8-4.5c-12.9-4.5-25.6-8.6-37.4-10.3
					C469.3,431.7,470.6,435.3,470.6,439.6z"/>
			</g>
			<g>
				<path fill="#6D431B" stroke="#3C2415" stroke-miterlimit="10" d="M499.2,495.3c0-1.1-0.8-1.6-2.2-1.6c-0.4,0-0.8,0-1.4,0.1
					c-0.8,0-1.2-0.7-1.2-1.3c0-0.5,0.3-1.1,1.1-1.2c1.2-0.3,5.5-1.8,9.2-3.2c3.5-1.3,8.2-3.9,10.8-5.8c0.5-0.4,0.9-0.5,1.2-0.5
					c0.7,0,0.8,0.7,0.8,1.2c0,0.4,0,0.8-0.1,0.9c-1.8,1.5-3.2,2.3-5.3,6.5c-2.6,5.3-12.1,22.1-41.3,94.1c-0.4,1.5-0.7,2.6-0.7,3.5
					c0,3,3.2,3,13.6,3c41.7,0,70.9-42.4,70.9-76.5c0-22.8-13.2-41.9-44.6-41.9c-45.2,0-71.6,41.7-71.6,62.9c0,7.1,3.1,12,9.4,12
					c13.4,0,18.6-8.6,18.6-15.4c0-1.9-0.4-3.6-1.2-5c-0.5-0.9-0.8-1.9-0.8-2.6c0-1.6,1.3-2.4,2.8-2.4c3,0,4.5,2.4,4.5,5.8
					c0,8.1-8.5,22-25.4,22c-10.7,0-15.6-6.6-15.6-15.9c0-23.2,30.6-63.7,80.9-63.7c38.2,0,55.2,21.6,55.2,46.8
					c0,34.7-32.4,76.1-86.3,76.1c-3.1,0-11.5-0.3-16.3-0.3c-4.3,0-13.1,0.1-14.3,0.3c-1.1,0-0.8-0.7-0.9-1.2c0-0.5,0.1-1.3,1.1-1.5
					c7.3-0.1,9-2.6,12-8.6c2.3-4.7,22.4-52.2,36.7-85C499.1,496.3,499.2,495.7,499.2,495.3z"/>
				<path fill="#6D431B" stroke="#3C2415" stroke-miterlimit="10" d="M571.8,538.4c0-1.2-1.1-1.3-2.6-1.3c-0.9,0-1.5-0.8-1.5-1.6
					c0-0.7,0.4-1.2,1.2-1.2c0.9,0,5.5,0.3,8,0.3c2.6,0,4-0.1,5.5-0.1c0.7,0,1.1,0.3,1.1,0.9c0,1.6-2.2,6.1-7.3,17.7
					c-0.4,0.5-4.3,9.3-4.3,10.9c0,0.1,0,0.3,0.1,0.3c0.1,0,0.3-0.1,0.4-0.3c6.2-8.9,20.2-29.5,33.6-29.5c4.2,0,5.9,2.4,5.9,4.6
					c0,1.9-1.3,3.6-3.2,3.6c-18.5,0-31.7,16.7-42.1,34.8c-2.8,5.1-8,16.1-8,16.1c-1,1.8-10.1,1.2-10.1,0.3c0-0.3,0.1-0.5,0.1-0.5
					c0.4-0.8,4.2-10.3,8.5-19.8C568.1,549.3,571.8,541.1,571.8,538.4z"/>
				<path fill="#6D431B" stroke="#3C2415" stroke-miterlimit="10" d="M612.8,610.9c-8.8,5.3-18.7,9.4-29.5,12.1
					c-7,1.8-12.9,2.4-17.7,2.4c-10.1,0-15.1-3.2-15.1-7c0-9.2,20.4-16.2,39.4-16.2c8.4,0,16.3,1.2,22.4,4.3
					c11.9-9.6,20.5-23.9,20.5-45c0-12-1.9-19-10.7-19c-2.2,0-4.3,0.8-7.3,3.4c-0.1,0.1-0.5,0.3-0.9,0.3c-0.7,0-1.5-0.1-1.5-0.7
					c0-0.1,0.1-0.4,0.4-0.7c3.5-4.3,12.5-11.3,19.3-11.3c8.4,0,11.2,6.2,11.2,14.6c0,16.3-12.9,44.5-16.6,49.4l0.3,0.3
					c16.9-15,30.8-34.5,30.8-57.1c0-4.3,1.2-8,5.5-8c2.7,0,4,2.2,4,5.9c0,14-18.3,49.2-51.4,70.3c3.9,3.1,6.3,7.1,6.3,12.5
					c0,4.2-2.4,5.8-4.5,5.8c-1.6,0-3.1-1.1-3.1-2.8c0-3.2,0.5-3.6,0.5-7.3C615.3,614.6,614.3,612.5,612.8,610.9z M565.2,617.5
					c0,2.6,1.8,4.7,7.1,4.7c2.4,0,5.7-0.5,9.7-1.5c9.4-2.3,19.3-6.2,27.6-12.4c-4-2.3-10-3.4-16.2-3.4
					C580.1,605,565.2,610.1,565.2,617.5z"/>
			</g>
		</g>
		<g id="Logo_3_">
			<g>
				<path fill="#4FBA6F" d="M453.7,416.5c-9,0-13.1-6.6-13.1-11.6c0-3,1.3-5.3,4-5.3c0,0,2.3,0,2.3,3c0,5.8,1.9,12.1,8.2,12.1
					c6.3,0,11.7-9.2,11.7-20.1c0-24.1-20.6-34.8-45-34.8c-49.4,0-73.2,33-73.2,56.6c0,13.1,7.3,23.2,21.7,23.2
					c13.9,0,26.2-4.3,41.1-15.9c6.1-4.7,10.4-11.7,15.9-19.2c5.5-7.6,7.4-13.1,7.4-13.1c0.3-0.5,0.7-0.7,0.9-0.7
					c0.8,0,1.5,1.1,1.5,2.3c-1.4,2.3-5.7,10.9-6.7,13.6c-10.7,26.7-16.1,41.4-23.2,57.9c-14.3,33-39.2,46.4-59.5,46.4
					c-20.2,0-30.8-12.5-30.8-25.8c0-14.3,12.4-29.3,38.4-29.3c13.6,0,19.7,6.7,19.7,13.8c0,8-7.7,16.5-20.9,16.5
					c-2.7,0-4.6-2.2-4.6-4c0-1.5,1.1-2.7,3.8-2.7c1.6,0,3.2,0.4,5.1,0.4c6.7,0,11.6-5.3,11.6-10.7c0-5.3-4.7-10.5-16.9-10.5
					c-17.8,0-26.6,13.2-26.6,26c0,11.7,7.4,23.1,22,23.1c15,0,33.7-11.9,46.9-41.8c5.3-12,10.4-24.7,15-35.7
					c0.1-0.4,0.3-0.5,0.3-0.8c0-0.4-0.3-0.7-0.7-0.7c-0.4,0-0.8,0.3-1.2,0.5c-16.3,11.1-32.6,15.1-48.7,15.1
					c-16.9,0-25-10.1-25-23.5c0-25.9,30.5-63.9,87.9-63.9c27.8,0,51,11.3,51,36.3C474.3,405.8,466.2,416.5,453.7,416.5z"/>
				<path fill="#4FBA6F" d="M505.1,437.2c8.8-5.4,12.5-13.5,12.5-21.2c0-11.1-7.6-21.2-18.9-21.2c-6.3,0-8.2,6.3-8.2,12.1
					c0,3-2.3,3-2.3,3c-2.7,0-4-2.3-4-5.3c0-5,4-11.6,13.1-11.6c17.5,0,27.8,10.9,27.8,22.8c0,8.2-5,16.9-15.8,22.5
					c12.5,3.8,25.6,6.7,40.2,6.7c10.8,0,23.1-4.6,25.1-13.9c0,0,0.7-0.9,1.8-0.9c3,0,5.7,2.8,5.7,6.3c0,5.5-6.7,12.7-29.8,12.7
					c-15.5,0-31-4.5-46.1-9.4c-7,3-16.2,4.9-27.5,4.9c-3.2,0-6.6-0.1-10.3-0.4c-3.5,17.8-22.7,41.9-41.3,41.9
					c-9.6,0-13.4-5.4-13.4-13.1c0-17.9,21.3-47.7,41.4-47.7C471.6,425.5,487.7,431.7,505.1,437.2z M433.9,479.3
					c13.4,0,26.3-21.4,26.3-35.9c-10-2.4-14.7-7.4-14.7-12c-10.4,3.6-20.2,23.6-20.2,36.6C425.2,474.4,427.8,479.3,433.9,479.3z
					 M460,441.1c-0.5-5.5-3.4-9.6-9.3-10.3C450.7,434.1,454.9,438.9,460,441.1z M468.9,438.8c0,1.2-0.1,2.4-0.3,3.6
					c3.8,0.5,7.4,0.7,10.8,0.7c9.6,0,17.1-1.6,22.8-4.5c-12.9-4.5-25.6-8.6-37.4-10.3C467.6,430.8,468.9,434.5,468.9,438.8z"/>
			</g>
			<g>
				<path fill="#4FBA6F" d="M497.6,494.5c0-1.1-0.8-1.6-2.2-1.6c-0.4,0-0.8,0-1.4,0.1c-0.8,0-1.2-0.7-1.2-1.3c0-0.5,0.3-1.1,1.1-1.2
					c1.2-0.3,5.5-1.8,9.2-3.2c3.5-1.3,8.2-3.9,10.8-5.8c0.5-0.4,0.9-0.5,1.2-0.5c0.7,0,0.8,0.7,0.8,1.2c0,0.4,0,0.8-0.1,0.9
					c-1.8,1.5-3.2,2.3-5.3,6.5c-2.6,5.3-12.1,22.1-41.3,94.1c-0.4,1.5-0.7,2.6-0.7,3.5c0,3,3.2,3,13.6,3c41.7,0,70.9-42.4,70.9-76.5
					c0-22.8-13.2-41.9-44.6-41.9c-45.2,0-71.6,41.7-71.6,62.9c0,7.1,3.1,12,9.4,12c13.4,0,18.6-8.6,18.6-15.4c0-1.9-0.4-3.6-1.2-5
					c-0.5-0.9-0.8-1.9-0.8-2.6c0-1.6,1.3-2.4,2.8-2.4c3,0,4.5,2.4,4.5,5.8c0,8.1-8.5,22-25.4,22c-10.7,0-15.6-6.6-15.6-15.9
					c0-23.2,30.6-63.7,80.9-63.7c38.2,0,55.2,21.6,55.2,46.8c0,34.7-32.4,76.1-86.3,76.1c-3.1,0-11.5-0.3-16.3-0.3
					c-4.3,0-13.1,0.1-14.3,0.3c-1.1,0-0.8-0.7-0.9-1.2c0-0.5,0.1-1.3,1.1-1.5c7.3-0.1,9-2.6,12-8.6c2.3-4.7,22.4-52.2,36.7-85
					C497.4,495.4,497.6,494.9,497.6,494.5z"/>
				<path fill="#4FBA6F" d="M570.1,537.5c0-1.2-1.1-1.3-2.6-1.3c-0.9,0-1.5-0.8-1.5-1.6c0-0.7,0.4-1.2,1.2-1.2c0.9,0,5.5,0.3,8,0.3
					c2.6,0,4-0.1,5.5-0.1c0.7,0,1.1,0.3,1.1,0.9c0,1.6-2.2,6.1-7.3,17.7c-0.4,0.5-4.3,9.3-4.3,10.9c0,0.1,0,0.3,0.1,0.3
					c0.1,0,0.3-0.1,0.4-0.3c6.2-8.9,20.2-29.5,33.6-29.5c4.2,0,5.9,2.4,5.9,4.6c0,1.9-1.3,3.6-3.2,3.6c-18.5,0-31.7,16.7-42.1,34.8
					c-2.8,5.1-8,16.1-8,16.1c-1,1.8-10.1,1.2-10.1,0.3c0-0.3,0.1-0.5,0.1-0.5c0.4-0.8,4.2-10.3,8.5-19.8
					C566.5,548.5,570.1,540.2,570.1,537.5z"/>
				<path fill="#4FBA6F" d="M611.2,610.1c-8.8,5.3-18.7,9.4-29.5,12.1c-7,1.8-12.9,2.4-17.7,2.4c-10.1,0-15.1-3.2-15.1-7
					c0-9.2,20.4-16.2,39.4-16.2c8.4,0,16.3,1.2,22.4,4.3c11.9-9.6,20.5-23.9,20.5-45c0-12-1.9-19-10.7-19c-2.2,0-4.3,0.8-7.3,3.4
					c-0.1,0.1-0.5,0.3-0.9,0.3c-0.7,0-1.5-0.1-1.5-0.7c0-0.1,0.1-0.4,0.4-0.7c3.5-4.3,12.5-11.3,19.3-11.3c8.4,0,11.2,6.2,11.2,14.6
					c0,16.3-12.9,44.5-16.6,49.4l0.3,0.3c16.9-15,30.8-34.5,30.8-57.1c0-4.3,1.2-8,5.5-8c2.7,0,4,2.2,4,5.9
					c0,14-18.3,49.2-51.4,70.3c3.9,3.1,6.3,7.1,6.3,12.5c0,4.2-2.4,5.8-4.5,5.8c-1.6,0-3.1-1.1-3.1-2.8c0-3.2,0.5-3.6,0.5-7.3
					C613.6,613.7,612.7,611.7,611.2,610.1z M563.6,616.7c0,2.6,1.8,4.7,7.1,4.7c2.4,0,5.7-0.5,9.7-1.5c9.4-2.3,19.3-6.2,27.6-12.4
					c-4-2.3-10-3.4-16.2-3.4C578.4,604.2,563.6,609.3,563.6,616.7z"/>
			</g>
		</g>
	</g>
	<g id="Ring">
		<circle fill="none" stroke="#3C2415" stroke-miterlimit="10" cx="493.4" cy="492" r="224.7"/>
		<radialGradient id="SVGID_2_" cx="493.4002" cy="492.0103" r="240.5044" gradientUnits="userSpaceOnUse">
			<stop  offset="0" style="stop-color:#FFFFFF;stop-opacity:0"/>
			<stop  offset="0.1216" style="stop-color:#F9FDFA;stop-opacity:6.081337e-02"/>
			<stop  offset="0.2771" style="stop-color:#EAF7ED;stop-opacity:0.1386"/>
			<stop  offset="0.451" style="stop-color:#CFECD8;stop-opacity:0.2255"/>
			<stop  offset="0.6383" style="stop-color:#ABDEBA;stop-opacity:0.3191"/>
			<stop  offset="0.8341" style="stop-color:#7CCC94;stop-opacity:0.417"/>
			<stop  offset="1" style="stop-color:#4FBA6F;stop-opacity:0.5"/>
		</radialGradient>
		<path fill="url(#SVGID_2_)" d="M733.9,492c0,132.8-107.7,240.5-240.5,240.5c-132.8,0-240.5-107.7-240.5-240.5
			c0-124.3,94.3-226.6,215.2-239.2l0,0c0.7-0.1,1.5-0.2,2.2-0.2c7.6-0.7,15.3-1.1,23-1.1c7.8,0,15.6,0.4,23.2,1.1c0,0,0,0,0,0
			c0.7,0,1.3,0.1,2,0.2h0C639.6,265.5,733.9,367.7,733.9,492z"/>
		<g>
			<path fill="none" stroke="#3C2415" stroke-width="14" stroke-miterlimit="10" d="M733.9,492c0,132.8-107.7,240.5-240.5,240.5
				c-132.8,0-240.5-107.7-240.5-240.5c0-124.3,94.3-226.6,215.2-239.2l0,0c0.7-0.1,1.5-0.2,2.2-0.2c7.6-0.7,15.3-1.1,23-1.1
				c7.8,0,15.6,0.4,23.2,1.1c0,0,0,0,0,0c0.7,0,1.3,0.1,2,0.2h0C639.6,265.5,733.9,367.7,733.9,492z"/>
			<path fill="#3C2415" stroke="#3C2415" stroke-miterlimit="10" d="M516.8,246.8c-7.6-0.7-15.3,0.8-23.1,0.8
				c-7.8,0-15.6-1.6-23.1-0.8c0.8-0.2,1.7-0.4,2.6-0.8h0c5.1-2.1,10.8-7.6,14.8-18.3c4.8-13.1-2.5-30.5-2.5-30.5h0
				c-0.3-0.9-0.5-1.9-0.5-3c0-4.8,3.9-8.7,8.7-8.7s8.7,3.9,8.7,8.7c0,1-0.2,2-0.5,3c0,0,0,0,0,0c0,0.1-0.1,0.3-0.3,0.6c0,0,0,0,0,0
				c-1.3,3.4-6.5,18.2-2.2,29.8c4,10.7,9.7,16.2,14.8,18.3C515,246.4,515.9,246.7,516.8,246.8z"/>
			<path fill="#3C2415" stroke="#3C2415" stroke-miterlimit="10" d="M470,737.2c7.6,0.7,15.3-0.8,23.1-0.8c7.8,0,15.6,1.6,23.1,0.8
				c-0.8,0.2-1.7,0.4-2.6,0.8h0c-5.1,2.1-10.8,7.6-14.8,18.3c-4.8,13.1,2.5,30.5,2.5,30.5h0c0.3,0.9,0.5,1.9,0.5,3
				c0,4.8-3.9,8.7-8.7,8.7c-4.8,0-8.7-3.9-8.7-8.7c0-1,0.2-2,0.5-3c0,0,0,0,0,0c0-0.1,0.1-0.3,0.3-0.6c0,0,0,0,0,0
				c1.3-3.4,6.5-18.2,2.2-29.8c-4-10.7-9.7-16.2-14.8-18.3C471.8,737.7,470.9,737.4,470,737.2z"/>
			<path fill="#3C2415" stroke="#3C2415" stroke-miterlimit="10" d="M738.6,515.4c0.7-7.6-0.8-15.3-0.8-23.1
				c0-7.8,1.6-15.6,0.8-23.1c0.2,0.8,0.4,1.7,0.8,2.6v0c2.1,5.1,7.6,10.8,18.3,14.8c13.1,4.8,30.5-2.5,30.5-2.5v0
				c0.9-0.3,1.9-0.5,3-0.5c4.8,0,8.7,3.9,8.7,8.7s-3.9,8.7-8.7,8.7c-1,0-2-0.2-3-0.5c0,0,0,0,0,0c-0.1,0-0.3-0.1-0.6-0.3
				c0,0,0,0,0,0c-3.4-1.3-18.2-6.5-29.8-2.2c-10.7,4-16.2,9.7-18.3,14.8C739,513.6,738.8,514.5,738.6,515.4z"/>
			<path fill="#3C2415" stroke="#3C2415" stroke-miterlimit="10" d="M248.2,468.7c-0.7,7.6,0.8,15.3,0.8,23.1
				c0,7.8-1.6,15.6-0.8,23.1c-0.2-0.8-0.4-1.7-0.8-2.6v0c-2.1-5.1-7.6-10.8-18.3-14.8c-13.1-4.8-30.5,2.5-30.5,2.5v0
				c-0.9,0.3-1.9,0.5-3,0.5c-4.8,0-8.7-3.9-8.7-8.7c0-4.8,3.9-8.7,8.7-8.7c1,0,2,0.2,3,0.5c0,0,0,0,0,0c0.1,0,0.3,0.1,0.6,0.3
				c0,0,0,0,0,0c3.4,1.3,18.2,6.5,29.8,2.2c10.7-4,16.2-9.7,18.3-14.8C247.8,470.4,248,469.5,248.2,468.7z"/>
			<path fill="#3C2415" stroke="#3C2415" stroke-miterlimit="10" d="M683.3,335.2c-4.9-5.9-11.4-10.2-16.9-15.8
				c-5.5-5.5-9.9-12.1-15.8-16.9c0.7,0.5,1.5,0.9,2.4,1.3l0,0c5.1,2.1,13,2.3,23.4-2.5c12.7-5.9,19.8-23.4,19.8-23.4l0,0
				c0.4-0.9,1-1.7,1.7-2.5c3.4-3.4,8.9-3.4,12.3,0c3.4,3.4,3.4,8.9,0,12.3c-0.7,0.7-1.6,1.3-2.5,1.7c0,0,0,0,0,0
				c-0.1,0-0.3,0.1-0.6,0.3c0,0,0,0,0,0c-3.3,1.5-17.5,8.3-22.7,19.5c-4.8,10.4-4.6,18.3-2.5,23.4
				C682.4,333.6,682.8,334.5,683.3,335.2z"/>
			<path fill="#3C2415" stroke="#3C2415" stroke-miterlimit="10" d="M303.5,648.9c4.9,5.9,11.4,10.2,16.9,15.8
				c5.5,5.5,9.9,12.1,15.8,16.9c-0.7-0.5-1.5-0.9-2.4-1.3l0,0c-5.1-2.1-13-2.3-23.4,2.5c-12.7,5.9-19.8,23.4-19.8,23.4l0,0
				c-0.4,0.9-1,1.7-1.7,2.5c-3.4,3.4-8.9,3.4-12.3,0c-3.4-3.4-3.4-8.9,0-12.3c0.7-0.7,1.6-1.3,2.5-1.7c0,0,0,0,0,0
				c0.1,0,0.3-0.1,0.6-0.3c0,0,0,0,0,0c3.3-1.5,17.5-8.3,22.7-19.5c4.8-10.4,4.6-18.3,2.5-23.4C304.4,650.4,304,649.6,303.5,648.9z"
				/>
			<path fill="#3C2415" stroke="#3C2415" stroke-miterlimit="10" d="M650.3,681.9c5.9-4.9,10.2-11.4,15.8-16.9
				c5.5-5.5,12.1-9.9,16.9-15.8c-0.5,0.7-0.9,1.5-1.3,2.4l0,0c-2.1,5.1-2.3,13,2.5,23.4c5.9,12.7,23.4,19.8,23.4,19.8l0,0
				c0.9,0.4,1.7,1,2.5,1.7c3.4,3.4,3.4,8.9,0,12.3c-3.4,3.4-8.9,3.4-12.3,0c-0.7-0.7-1.3-1.6-1.7-2.5c0,0,0,0,0,0
				c0-0.1-0.1-0.3-0.3-0.6c0,0,0,0,0,0c-1.5-3.3-8.3-17.5-19.5-22.7c-10.4-4.8-18.3-4.6-23.4-2.5C651.8,681,651,681.4,650.3,681.9z"
				/>
			<path fill="#3C2415" stroke="#3C2415" stroke-miterlimit="10" d="M336.5,302.1c-5.9,4.9-10.2,11.4-15.8,16.9
				c-5.5,5.5-12.1,9.9-16.9,15.8c0.5-0.7,0.9-1.5,1.3-2.4l0,0c2.1-5.1,2.3-13-2.5-23.4c-5.9-12.7-23.4-19.8-23.4-19.8l0,0
				c-0.9-0.4-1.7-1-2.5-1.7c-3.4-3.4-3.4-8.9,0-12.3c3.4-3.4,8.9-3.4,12.3,0c0.7,0.7,1.3,1.6,1.7,2.5c0,0,0,0,0,0
				c0,0.1,0.1,0.3,0.3,0.6c0,0,0,0,0,0c1.5,3.3,8.3,17.5,19.5,22.7c10.4,4.8,18.3,4.6,23.4,2.5C335,303.1,335.8,302.6,336.5,302.1z"
				/>
			<path fill="#3C2415" stroke="#3C2415" stroke-miterlimit="10" d="M592.1,255.6c-10.6-4.5-19.5,3.4-25.3,1.1
				c7.2,2.3,13.7,6.7,20.7,9.7c7.1,3,14.8,4.6,21.4,8.2C603.3,272,602.7,260.1,592.1,255.6z"/>
			<path fill="#3C2415" stroke="#3C2415" stroke-miterlimit="10" d="M544,241.1c-11.3-2.2-18.4,7.4-24.5,6.3
				c7.5,0.7,14.8,3.7,22.3,5.2c7.5,1.4,15.4,1.4,22.6,3.6C558.3,254.8,555.3,243.3,544,241.1z"/>
			<path fill="#3C2415" stroke="#3C2415" stroke-miterlimit="10" d="M635.5,279c-9.5-6.4-19.8-0.3-25.1-3.6
				c6.6,3.6,12.2,9.1,18.6,13.4c6.4,4.2,13.7,7.3,19.5,12C643.4,297.2,645.1,285.4,635.5,279z"/>
			<path fill="#3C2415" stroke="#3C2415" stroke-miterlimit="10" d="M395,255.6c10.6-4.5,19.5,3.4,25.3,1.1
				c-7.2,2.3-13.7,6.7-20.7,9.7c-7.1,3-14.8,4.6-21.4,8.2C383.8,272,384.4,260.1,395,255.6z"/>
			<path fill="#3C2415" stroke="#3C2415" stroke-miterlimit="10" d="M443.1,241.1c11.3-2.2,18.4,7.4,24.5,6.3
				c-7.5,0.7-14.8,3.7-22.3,5.2c-7.5,1.4-15.4,1.4-22.6,3.6C428.8,254.8,431.8,243.3,443.1,241.1z"/>
			<path fill="#3C2415" stroke="#3C2415" stroke-miterlimit="10" d="M351.6,279c9.5-6.4,19.8-0.3,25.1-3.6
				c-6.6,3.6-12.2,9.1-18.6,13.4c-6.4,4.2-13.7,7.3-19.5,12C343.7,297.2,342,285.4,351.6,279z"/>
			<path fill="#3C2415" stroke="#3C2415" stroke-miterlimit="10" d="M592.1,255.6c-10.6-4.5-19.5,3.4-25.3,1.1
				c7.2,2.3,13.7,6.7,20.7,9.7c7.1,3,14.8,4.6,21.4,8.2C603.3,272,602.7,260.1,592.1,255.6z"/>
			<path fill="#3C2415" stroke="#3C2415" stroke-miterlimit="10" d="M544,241.1c-11.3-2.2-18.4,7.4-24.5,6.3
				c7.5,0.7,14.8,3.7,22.3,5.2c7.5,1.4,15.4,1.4,22.6,3.6C558.3,254.8,555.3,243.3,544,241.1z"/>
			<path fill="#3C2415" stroke="#3C2415" stroke-miterlimit="10" d="M635.5,279c-9.5-6.4-19.8-0.3-25.1-3.6
				c6.6,3.6,12.2,9.1,18.6,13.4c6.4,4.2,13.7,7.3,19.5,12C643.4,297.2,645.1,285.4,635.5,279z"/>
			<path fill="#3C2415" stroke="#3C2415" stroke-miterlimit="10" d="M395,255.6c10.6-4.5,19.5,3.4,25.3,1.1
				c-7.2,2.3-13.7,6.7-20.7,9.7c-7.1,3-14.8,4.6-21.4,8.2C383.8,272,384.4,260.1,395,255.6z"/>
			<path fill="#3C2415" stroke="#3C2415" stroke-miterlimit="10" d="M443.1,241.1c11.3-2.2,18.4,7.4,24.5,6.3
				c-7.5,0.7-14.8,3.7-22.3,5.2c-7.5,1.4-15.4,1.4-22.6,3.6C428.8,254.8,431.8,243.3,443.1,241.1z"/>
			<path fill="#3C2415" stroke="#3C2415" stroke-miterlimit="10" d="M351.6,279c9.5-6.4,19.8-0.3,25.1-3.6
				c-6.6,3.6-12.2,9.1-18.6,13.4c-6.4,4.2-13.7,7.3-19.5,12C343.7,297.2,342,285.4,351.6,279z"/>
			<path fill="#3C2415" stroke="#3C2415" stroke-miterlimit="10" d="M738.6,515.4c0.7-7.6-0.8-15.3-0.8-23.1
				c0-7.8,1.6-15.6,0.8-23.1c0.2,0.8,0.4,1.7,0.8,2.6v0c2.1,5.1,7.6,10.8,18.3,14.8c13.1,4.8,30.5-2.5,30.5-2.5v0
				c0.9-0.3,1.9-0.5,3-0.5c4.8,0,8.7,3.9,8.7,8.7s-3.9,8.7-8.7,8.7c-1,0-2-0.2-3-0.5c0,0,0,0,0,0c-0.1,0-0.3-0.1-0.6-0.3
				c0,0,0,0,0,0c-3.4-1.3-18.2-6.5-29.8-2.2c-10.7,4-16.2,9.7-18.3,14.8C739,513.6,738.8,514.5,738.6,515.4z"/>
			<path fill="#3C2415" stroke="#3C2415" stroke-miterlimit="10" d="M248.2,468.7c-0.7,7.6,0.8,15.3,0.8,23.1
				c0,7.8-1.6,15.6-0.8,23.1c-0.2-0.8-0.4-1.7-0.8-2.6v0c-2.1-5.1-7.6-10.8-18.3-14.8c-13.1-4.8-30.5,2.5-30.5,2.5v0
				c-0.9,0.3-1.9,0.5-3,0.5c-4.8,0-8.7-3.9-8.7-8.7c0-4.8,3.9-8.7,8.7-8.7c1,0,2,0.2,3,0.5c0,0,0,0,0,0c0.1,0,0.3,0.1,0.6,0.3
				c0,0,0,0,0,0c3.4,1.3,18.2,6.5,29.8,2.2c10.7-4,16.2-9.7,18.3-14.8C247.8,470.4,248,469.5,248.2,468.7z"/>
			<path fill="#3C2415" stroke="#3C2415" stroke-miterlimit="10" d="M470,737.2c7.6,0.7,15.3-0.8,23.1-0.8c7.8,0,15.6,1.6,23.1,0.8
				c-0.8,0.2-1.7,0.4-2.6,0.8h0c-5.1,2.1-10.8,7.6-14.8,18.3c-4.8,13.1,2.5,30.5,2.5,30.5h0c0.3,0.9,0.5,1.9,0.5,3
				c0,4.8-3.9,8.7-8.7,8.7s-8.7-3.9-8.7-8.7c0-1,0.2-2,0.5-3c0,0,0,0,0,0c0-0.1,0.1-0.3,0.3-0.6c0,0,0,0,0,0
				c1.3-3.4,6.5-18.2,2.2-29.8c-4-10.7-9.7-16.2-14.8-18.3C471.8,737.7,470.9,737.4,470,737.2z"/>
			<path fill="#3C2415" stroke="#3C2415" stroke-miterlimit="10" d="M516.8,246.8c-7.6-0.7-15.3,0.8-23.1,0.8
				c-7.8,0-15.6-1.6-23.1-0.8c0.8-0.2,1.7-0.4,2.6-0.8h0c5.1-2.1,10.8-7.6,14.8-18.3c4.8-13.1-2.5-30.5-2.5-30.5h0
				c-0.3-0.9-0.5-1.9-0.5-3c0-4.8,3.9-8.7,8.7-8.7c4.8,0,8.7,3.9,8.7,8.7c0,1-0.2,2-0.5,3c0,0,0,0,0,0c0,0.1-0.1,0.3-0.3,0.6
				c0,0,0,0,0,0c-1.3,3.4-6.5,18.2-2.2,29.8c4,10.7,9.7,16.2,14.8,18.3C515,246.4,515.9,246.7,516.8,246.8z"/>
			<path fill="#3C2415" stroke="#3C2415" stroke-miterlimit="10" d="M650.3,681.9c5.9-4.9,10.2-11.4,15.8-16.9
				c5.5-5.5,12.1-9.9,16.9-15.8c-0.5,0.7-0.9,1.5-1.3,2.4l0,0c-2.1,5.1-2.3,13,2.5,23.4c5.9,12.7,23.4,19.8,23.4,19.8l0,0
				c0.9,0.4,1.7,1,2.5,1.7c3.4,3.4,3.4,8.9,0,12.3c-3.4,3.4-8.9,3.4-12.3,0c-0.7-0.7-1.3-1.6-1.7-2.5c0,0,0,0,0,0
				c0-0.1-0.1-0.3-0.3-0.6c0,0,0,0,0,0c-1.5-3.3-8.3-17.5-19.5-22.7c-10.4-4.8-18.3-4.6-23.4-2.5C651.8,681,651,681.4,650.3,681.9z"
				/>
			<path fill="#3C2415" stroke="#3C2415" stroke-miterlimit="10" d="M336.5,302.1c-5.9,4.9-10.2,11.4-15.8,16.9
				c-5.5,5.5-12.1,9.9-16.9,15.8c0.5-0.7,0.9-1.5,1.3-2.4l0,0c2.1-5.1,2.3-13-2.5-23.4c-5.9-12.7-23.4-19.8-23.4-19.8l0,0
				c-0.9-0.4-1.7-1-2.5-1.7c-3.4-3.4-3.4-8.9,0-12.3c3.4-3.4,8.9-3.4,12.3,0c0.7,0.7,1.3,1.6,1.7,2.5c0,0,0,0,0,0
				c0,0.1,0.1,0.3,0.3,0.6c0,0,0,0,0,0c1.5,3.3,8.3,17.5,19.5,22.7c10.4,4.8,18.3,4.6,23.4,2.5C335,303.1,335.8,302.6,336.5,302.1z"
				/>
			<path fill="#3C2415" stroke="#3C2415" stroke-miterlimit="10" d="M303.5,648.9c4.9,5.9,11.4,10.2,16.9,15.8
				c5.5,5.5,9.9,12.1,15.8,16.9c-0.7-0.5-1.5-0.9-2.4-1.3l0,0c-5.1-2.1-13-2.3-23.4,2.5c-12.7,5.9-19.8,23.4-19.8,23.4l0,0
				c-0.4,0.9-1,1.7-1.7,2.5c-3.4,3.4-8.9,3.4-12.3,0c-3.4-3.4-3.4-8.9,0-12.3c0.7-0.7,1.6-1.3,2.5-1.7c0,0,0,0,0,0
				c0.1,0,0.3-0.1,0.6-0.3c0,0,0,0,0,0c3.3-1.5,17.5-8.3,22.7-19.5c4.8-10.4,4.6-18.3,2.5-23.4C304.4,650.4,304,649.6,303.5,648.9z"
				/>
			<path fill="#3C2415" stroke="#3C2415" stroke-miterlimit="10" d="M683.3,335.2c-4.9-5.9-11.4-10.2-16.9-15.8
				c-5.5-5.5-9.9-12.1-15.8-16.9c0.7,0.5,1.5,0.9,2.4,1.3l0,0c5.1,2.1,13,2.3,23.4-2.5c12.7-5.9,19.8-23.4,19.8-23.4l0,0
				c0.4-0.9,1-1.7,1.7-2.5c3.4-3.4,8.9-3.4,12.3,0c3.4,3.4,3.4,8.9,0,12.3c-0.7,0.7-1.6,1.3-2.5,1.7c0,0,0,0,0,0
				c-0.1,0-0.3,0.1-0.6,0.3c0,0,0,0,0,0c-3.3,1.5-17.5,8.3-22.7,19.5c-4.8,10.4-4.6,18.3-2.5,23.4
				C682.4,333.6,682.8,334.5,683.3,335.2z"/>
			<path fill="#3C2415" stroke="#3C2415" stroke-miterlimit="10" d="M729.8,590.8c4.5-10.6-3.4-19.5-1.1-25.3
				c-2.3,7.2-6.7,13.7-9.7,20.7c-3,7.1-4.6,14.8-8.2,21.4C713.5,601.9,725.4,601.3,729.8,590.8z"/>
			<path fill="#3C2415" stroke="#3C2415" stroke-miterlimit="10" d="M744.3,542.7c2.2-11.3-7.4-18.4-6.3-24.5
				c-0.7,7.5-3.7,14.8-5.2,22.3c-1.4,7.5-1.4,15.4-3.6,22.6C730.6,557,742.2,553.9,744.3,542.7z"/>
			<path fill="#3C2415" stroke="#3C2415" stroke-miterlimit="10" d="M706.4,634.2c6.4-9.5,0.3-19.8,3.6-25.1
				c-3.6,6.6-9.1,12.2-13.4,18.6c-4.2,6.4-7.3,13.7-12,19.5C688.2,642.1,700,643.7,706.4,634.2z"/>
			<path fill="#3C2415" stroke="#3C2415" stroke-miterlimit="10" d="M729.8,393.6c4.5,10.6-3.4,19.5-1.1,25.3
				c-2.3-7.2-6.7-13.7-9.7-20.7c-3-7.1-4.6-14.8-8.2-21.4C713.5,382.5,725.4,383,729.8,393.6z"/>
			<path fill="#3C2415" stroke="#3C2415" stroke-miterlimit="10" d="M744.3,441.7c2.2,11.3-7.4,18.4-6.3,24.5
				c-0.7-7.5-3.7-14.8-5.2-22.3c-1.4-7.5-1.4-15.4-3.6-22.6C730.6,427.4,742.2,430.4,744.3,441.7z"/>
			<path fill="#3C2415" stroke="#3C2415" stroke-miterlimit="10" d="M706.4,350.2c6.4,9.5,0.3,19.8,3.6,25.1
				c-3.6-6.6-9.1-12.2-13.4-18.6c-4.2-6.4-7.3-13.7-12-19.5C688.2,342.3,700,340.7,706.4,350.2z"/>
			<path fill="#3C2415" stroke="#3C2415" stroke-miterlimit="10" d="M729.8,590.8c4.5-10.6-3.4-19.5-1.1-25.3
				c-2.3,7.2-6.7,13.7-9.7,20.7c-3,7.1-4.6,14.8-8.2,21.4C713.5,601.9,725.4,601.3,729.8,590.8z"/>
			<path fill="#3C2415" stroke="#3C2415" stroke-miterlimit="10" d="M744.3,542.7c2.2-11.3-7.4-18.4-6.3-24.5
				c-0.7,7.5-3.7,14.8-5.2,22.3c-1.4,7.5-1.4,15.4-3.6,22.6C730.6,557,742.2,553.9,744.3,542.7z"/>
			<path fill="#3C2415" stroke="#3C2415" stroke-miterlimit="10" d="M706.4,634.2c6.4-9.5,0.3-19.8,3.6-25.1
				c-3.6,6.6-9.1,12.2-13.4,18.6c-4.2,6.4-7.3,13.7-12,19.5C688.2,642.1,700,643.7,706.4,634.2z"/>
			<path fill="#3C2415" stroke="#3C2415" stroke-miterlimit="10" d="M729.8,393.6c4.5,10.6-3.4,19.5-1.1,25.3
				c-2.3-7.2-6.7-13.7-9.7-20.7c-3-7.1-4.6-14.8-8.2-21.4C713.5,382.5,725.4,383,729.8,393.6z"/>
			<path fill="#3C2415" stroke="#3C2415" stroke-miterlimit="10" d="M744.3,441.7c2.2,11.3-7.4,18.4-6.3,24.5
				c-0.7-7.5-3.7-14.8-5.2-22.3c-1.4-7.5-1.4-15.4-3.6-22.6C730.6,427.4,742.2,430.4,744.3,441.7z"/>
			<path fill="#3C2415" stroke="#3C2415" stroke-miterlimit="10" d="M706.4,350.2c6.4,9.5,0.3,19.8,3.6,25.1
				c-3.6-6.6-9.1-12.2-13.4-18.6c-4.2-6.4-7.3-13.7-12-19.5C688.2,342.3,700,340.7,706.4,350.2z"/>
			<path fill="#3C2415" stroke="#3C2415" stroke-miterlimit="10" d="M470,737.2c7.6,0.7,15.3-0.8,23.1-0.8c7.8,0,15.6,1.6,23.1,0.8
				c-0.8,0.2-1.7,0.4-2.6,0.8h0c-5.1,2.1-10.8,7.6-14.8,18.3c-4.8,13.1,2.5,30.5,2.5,30.5h0c0.3,0.9,0.5,1.9,0.5,3
				c0,4.8-3.9,8.7-8.7,8.7s-8.7-3.9-8.7-8.7c0-1,0.2-2,0.5-3c0,0,0,0,0,0c0-0.1,0.1-0.3,0.3-0.6c0,0,0,0,0,0
				c1.3-3.4,6.5-18.2,2.2-29.8c-4-10.7-9.7-16.2-14.8-18.3C471.8,737.7,470.9,737.4,470,737.2z"/>
			<path fill="#3C2415" stroke="#3C2415" stroke-miterlimit="10" d="M516.8,246.8c-7.6-0.7-15.3,0.8-23.1,0.8
				c-7.8,0-15.6-1.6-23.1-0.8c0.8-0.2,1.7-0.4,2.6-0.8h0c5.1-2.1,10.8-7.6,14.8-18.3c4.8-13.1-2.5-30.5-2.5-30.5h0
				c-0.3-0.9-0.5-1.9-0.5-3c0-4.8,3.9-8.7,8.7-8.7c4.8,0,8.7,3.9,8.7,8.7c0,1-0.2,2-0.5,3c0,0,0,0,0,0c0,0.1-0.1,0.3-0.3,0.6
				c0,0,0,0,0,0c-1.3,3.4-6.5,18.2-2.2,29.8c4,10.7,9.7,16.2,14.8,18.3C515,246.4,515.9,246.7,516.8,246.8z"/>
			<path fill="#3C2415" stroke="#3C2415" stroke-miterlimit="10" d="M248.2,468.7c-0.7,7.6,0.8,15.3,0.8,23.1
				c0,7.8-1.6,15.6-0.8,23.1c-0.2-0.8-0.4-1.7-0.8-2.6v0c-2.1-5.1-7.6-10.8-18.3-14.8c-13.1-4.8-30.5,2.5-30.5,2.5v0
				c-0.9,0.3-1.9,0.5-3,0.5c-4.8,0-8.7-3.9-8.7-8.7c0-4.8,3.9-8.7,8.7-8.7c1,0,2,0.2,3,0.5c0,0,0,0,0,0c0.1,0,0.3,0.1,0.6,0.3
				c0,0,0,0,0,0c3.4,1.3,18.2,6.5,29.8,2.2c10.7-4,16.2-9.7,18.3-14.8C247.8,470.4,248,469.5,248.2,468.7z"/>
			<path fill="#3C2415" stroke="#3C2415" stroke-miterlimit="10" d="M738.6,515.4c0.7-7.6-0.8-15.3-0.8-23.1
				c0-7.8,1.6-15.6,0.8-23.1c0.2,0.8,0.4,1.7,0.8,2.6v0c2.1,5.1,7.6,10.8,18.3,14.8c13.1,4.8,30.5-2.5,30.5-2.5v0
				c0.9-0.3,1.9-0.5,3-0.5c4.8,0,8.7,3.9,8.7,8.7c0,4.8-3.9,8.7-8.7,8.7c-1,0-2-0.2-3-0.5c0,0,0,0,0,0c-0.1,0-0.3-0.1-0.6-0.3
				c0,0,0,0,0,0c-3.4-1.3-18.2-6.5-29.8-2.2c-10.7,4-16.2,9.7-18.3,14.8C739,513.6,738.8,514.5,738.6,515.4z"/>
			<path fill="#3C2415" stroke="#3C2415" stroke-miterlimit="10" d="M303.5,648.9c4.9,5.9,11.4,10.2,16.9,15.8
				c5.5,5.5,9.9,12.1,15.8,16.9c-0.7-0.5-1.5-0.9-2.4-1.3l0,0c-5.1-2.1-13-2.3-23.4,2.5c-12.7,5.9-19.8,23.4-19.8,23.4l0,0
				c-0.4,0.9-1,1.7-1.7,2.5c-3.4,3.4-8.9,3.4-12.3,0c-3.4-3.4-3.4-8.9,0-12.3c0.7-0.7,1.6-1.3,2.5-1.7c0,0,0,0,0,0
				c0.1,0,0.3-0.1,0.6-0.3c0,0,0,0,0,0c3.3-1.5,17.5-8.3,22.7-19.5c4.8-10.4,4.6-18.3,2.5-23.4C304.4,650.4,304,649.6,303.5,648.9z"
				/>
			<path fill="#3C2415" stroke="#3C2415" stroke-miterlimit="10" d="M683.3,335.2c-4.9-5.9-11.4-10.2-16.9-15.8
				c-5.5-5.5-9.9-12.1-15.8-16.9c0.7,0.5,1.5,0.9,2.4,1.3l0,0c5.1,2.1,13,2.3,23.4-2.5c12.7-5.9,19.8-23.4,19.8-23.4l0,0
				c0.4-0.9,1-1.7,1.7-2.5c3.4-3.4,8.9-3.4,12.3,0c3.4,3.4,3.4,8.9,0,12.3c-0.7,0.7-1.6,1.3-2.5,1.7c0,0,0,0,0,0
				c-0.1,0-0.3,0.1-0.6,0.3c0,0,0,0,0,0c-3.3,1.5-17.5,8.3-22.7,19.5c-4.8,10.4-4.6,18.3-2.5,23.4
				C682.4,333.6,682.8,334.5,683.3,335.2z"/>
			<path fill="#3C2415" stroke="#3C2415" stroke-miterlimit="10" d="M336.5,302.1c-5.9,4.9-10.2,11.4-15.8,16.9
				c-5.5,5.5-12.1,9.9-16.9,15.8c0.5-0.7,0.9-1.5,1.3-2.4l0,0c2.1-5.1,2.3-13-2.5-23.4c-5.9-12.7-23.4-19.8-23.4-19.8l0,0
				c-0.9-0.4-1.7-1-2.5-1.7c-3.4-3.4-3.4-8.9,0-12.3c3.4-3.4,8.9-3.4,12.3,0c0.7,0.7,1.3,1.6,1.7,2.5c0,0,0,0,0,0
				c0,0.1,0.1,0.3,0.3,0.6c0,0,0,0,0,0c1.5,3.3,8.3,17.5,19.5,22.7c10.4,4.8,18.3,4.6,23.4,2.5C335,303.1,335.8,302.6,336.5,302.1z"
				/>
			<path fill="#3C2415" stroke="#3C2415" stroke-miterlimit="10" d="M650.3,681.9c5.9-4.9,10.2-11.4,15.8-16.9
				c5.5-5.5,12.1-9.9,16.9-15.8c-0.5,0.7-0.9,1.5-1.3,2.4l0,0c-2.1,5.1-2.3,13,2.5,23.4c5.9,12.7,23.4,19.8,23.4,19.8l0,0
				c0.9,0.4,1.7,1,2.5,1.7c3.4,3.4,3.4,8.9,0,12.3c-3.4,3.4-8.9,3.4-12.3,0c-0.7-0.7-1.3-1.6-1.7-2.5c0,0,0,0,0,0
				c0-0.1-0.1-0.3-0.3-0.6c0,0,0,0,0,0c-1.5-3.3-8.3-17.5-19.5-22.7c-10.4-4.8-18.3-4.6-23.4-2.5C651.8,681,651,681.5,650.3,681.9z"
				/>
			<path fill="#3C2415" stroke="#3C2415" stroke-miterlimit="10" d="M394.7,728.5c10.6,4.5,19.5-3.4,25.3-1.1
				c-7.2-2.3-13.7-6.7-20.7-9.7c-7.1-3-14.8-4.6-21.4-8.2C383.5,712.1,384.1,724,394.7,728.5z"/>
			<path fill="#3C2415" stroke="#3C2415" stroke-miterlimit="10" d="M442.8,743c11.3,2.2,18.4-7.4,24.5-6.3
				c-7.5-0.7-14.8-3.7-22.3-5.2c-7.5-1.4-15.4-1.4-22.6-3.6C428.5,729.3,431.5,740.8,442.8,743z"/>
			<path fill="#3C2415" stroke="#3C2415" stroke-miterlimit="10" d="M351.3,705c9.5,6.4,19.8,0.3,25.1,3.6
				c-6.6-3.6-12.2-9.1-18.6-13.4c-6.4-4.2-13.7-7.3-19.5-12C343.4,686.9,341.7,698.7,351.3,705z"/>
			<path fill="#3C2415" stroke="#3C2415" stroke-miterlimit="10" d="M591.8,728.5c-10.6,4.5-19.5-3.4-25.3-1.1
				c7.2-2.3,13.7-6.7,20.7-9.7c7.1-3,14.8-4.6,21.4-8.2C603,712.1,602.4,724,591.8,728.5z"/>
			<path fill="#3C2415" stroke="#3C2415" stroke-miterlimit="10" d="M543.7,743c-11.3,2.2-18.4-7.4-24.5-6.3
				c7.5-0.7,14.8-3.7,22.3-5.2c7.5-1.4,15.4-1.4,22.6-3.6C558,729.3,555,740.8,543.7,743z"/>
			<path fill="#3C2415" stroke="#3C2415" stroke-miterlimit="10" d="M635.2,705c-9.5,6.4-19.8,0.3-25.1,3.6
				c6.6-3.6,12.2-9.1,18.6-13.4c6.4-4.2,13.7-7.3,19.5-12C643.1,686.9,644.8,698.7,635.2,705z"/>
			<path fill="#3C2415" stroke="#3C2415" stroke-miterlimit="10" d="M394.7,728.5c10.6,4.5,19.5-3.4,25.3-1.1
				c-7.2-2.3-13.7-6.7-20.7-9.7c-7.1-3-14.8-4.6-21.4-8.2C383.5,712.1,384.1,724,394.7,728.5z"/>
			<path fill="#3C2415" stroke="#3C2415" stroke-miterlimit="10" d="M442.8,743c11.3,2.2,18.4-7.4,24.5-6.3
				c-7.5-0.7-14.8-3.7-22.3-5.2c-7.5-1.4-15.4-1.4-22.6-3.6C428.5,729.3,431.5,740.8,442.8,743z"/>
			<path fill="#3C2415" stroke="#3C2415" stroke-miterlimit="10" d="M351.3,705c9.5,6.4,19.8,0.3,25.1,3.6
				c-6.6-3.6-12.2-9.1-18.6-13.4c-6.4-4.2-13.7-7.3-19.5-12C343.4,686.9,341.7,698.7,351.3,705z"/>
			<path fill="#3C2415" stroke="#3C2415" stroke-miterlimit="10" d="M591.8,728.5c-10.6,4.5-19.5-3.4-25.3-1.1
				c7.2-2.3,13.7-6.7,20.7-9.7c7.1-3,14.8-4.6,21.4-8.2C603,712.1,602.4,724,591.8,728.5z"/>
			<path fill="#3C2415" stroke="#3C2415" stroke-miterlimit="10" d="M543.7,743c-11.3,2.2-18.4-7.4-24.5-6.3
				c7.5-0.7,14.8-3.7,22.3-5.2c7.5-1.4,15.4-1.4,22.6-3.6C558,729.3,555,740.8,543.7,743z"/>
			<path fill="#3C2415" stroke="#3C2415" stroke-miterlimit="10" d="M635.2,705c-9.5,6.4-19.8,0.3-25.1,3.6
				c6.6-3.6,12.2-9.1,18.6-13.4c6.4-4.2,13.7-7.3,19.5-12C643.1,686.9,644.8,698.7,635.2,705z"/>
			<path fill="#3C2415" stroke="#3C2415" stroke-miterlimit="10" d="M248.2,468.7c-0.7,7.6,0.8,15.3,0.8,23.1
				c0,7.8-1.6,15.6-0.8,23.1c-0.2-0.8-0.4-1.7-0.8-2.6v0c-2.1-5.1-7.6-10.8-18.3-14.8c-13.1-4.8-30.5,2.5-30.5,2.5v0
				c-0.9,0.3-1.9,0.5-3,0.5c-4.8,0-8.7-3.9-8.7-8.7c0-4.8,3.9-8.7,8.7-8.7c1,0,2,0.2,3,0.5c0,0,0,0,0,0c0.1,0,0.3,0.1,0.6,0.3
				c0,0,0,0,0,0c3.4,1.3,18.2,6.5,29.8,2.2c10.7-4,16.2-9.7,18.3-14.8C247.8,470.4,248,469.5,248.2,468.7z"/>
			<path fill="#3C2415" stroke="#3C2415" stroke-miterlimit="10" d="M738.6,515.4c0.7-7.6-0.8-15.3-0.8-23.1
				c0-7.8,1.6-15.6,0.8-23.1c0.2,0.8,0.4,1.7,0.8,2.6v0c2.1,5.1,7.6,10.8,18.3,14.8c13.1,4.8,30.5-2.5,30.5-2.5v0
				c0.9-0.3,1.9-0.5,3-0.5c4.8,0,8.7,3.9,8.7,8.7c0,4.8-3.9,8.7-8.7,8.7c-1,0-2-0.2-3-0.5c0,0,0,0,0,0c-0.1,0-0.3-0.1-0.6-0.3
				c0,0,0,0,0,0c-3.4-1.3-18.2-6.5-29.8-2.2c-10.7,4-16.2,9.7-18.3,14.8C739,513.6,738.8,514.5,738.6,515.4z"/>
			<path fill="#3C2415" stroke="#3C2415" stroke-miterlimit="10" d="M516.8,246.8c-7.6-0.7-15.3,0.8-23.1,0.8
				c-7.8,0-15.6-1.6-23.1-0.8c0.8-0.2,1.7-0.4,2.6-0.8h0c5.1-2.1,10.8-7.6,14.8-18.3c4.8-13.1-2.5-30.5-2.5-30.5h0
				c-0.3-0.9-0.5-1.9-0.5-3c0-4.8,3.9-8.7,8.7-8.7s8.7,3.9,8.7,8.7c0,1-0.2,2-0.5,3c0,0,0,0,0,0c0,0.1-0.1,0.3-0.3,0.6c0,0,0,0,0,0
				c-1.3,3.4-6.5,18.2-2.2,29.8c4,10.7,9.7,16.2,14.8,18.3C515,246.4,515.9,246.7,516.8,246.8z"/>
			<path fill="#3C2415" stroke="#3C2415" stroke-miterlimit="10" d="M470,737.2c7.6,0.7,15.3-0.8,23.1-0.8c7.8,0,15.6,1.6,23.1,0.8
				c-0.8,0.2-1.7,0.4-2.6,0.8h0c-5.1,2.1-10.8,7.6-14.8,18.3c-4.8,13.1,2.5,30.5,2.5,30.5h0c0.3,0.9,0.5,1.9,0.5,3
				c0,4.8-3.9,8.7-8.7,8.7c-4.8,0-8.7-3.9-8.7-8.7c0-1,0.2-2,0.5-3c0,0,0,0,0,0c0-0.1,0.1-0.3,0.3-0.6c0,0,0,0,0,0
				c1.3-3.4,6.5-18.2,2.2-29.8c-4-10.7-9.7-16.2-14.8-18.3C471.8,737.7,470.9,737.4,470,737.2z"/>
			<path fill="#3C2415" stroke="#3C2415" stroke-miterlimit="10" d="M336.5,302.1c-5.9,4.9-10.2,11.4-15.8,16.9
				c-5.5,5.5-12.1,9.9-16.9,15.8c0.5-0.7,0.9-1.5,1.3-2.4l0,0c2.1-5.1,2.3-13-2.5-23.4c-5.9-12.7-23.4-19.8-23.4-19.8l0,0
				c-0.9-0.4-1.7-1-2.5-1.7c-3.4-3.4-3.4-8.9,0-12.3c3.4-3.4,8.9-3.4,12.3,0c0.7,0.7,1.3,1.6,1.7,2.5c0,0,0,0,0,0
				c0,0.1,0.1,0.3,0.3,0.6c0,0,0,0,0,0c1.5,3.3,8.3,17.5,19.5,22.7c10.4,4.8,18.3,4.6,23.4,2.5C335,303.1,335.8,302.6,336.5,302.1z"
				/>
			<path fill="#3C2415" stroke="#3C2415" stroke-miterlimit="10" d="M650.3,681.9c5.9-4.9,10.2-11.4,15.8-16.9
				c5.5-5.5,12.1-9.9,16.9-15.8c-0.5,0.7-0.9,1.5-1.3,2.4l0,0c-2.1,5.1-2.3,13,2.5,23.4c5.9,12.7,23.4,19.8,23.4,19.8l0,0
				c0.9,0.4,1.7,1,2.5,1.7c3.4,3.4,3.4,8.9,0,12.3c-3.4,3.4-8.9,3.4-12.3,0c-0.7-0.7-1.3-1.6-1.7-2.5c0,0,0,0,0,0
				c0-0.1-0.1-0.3-0.3-0.6c0,0,0,0,0,0c-1.5-3.3-8.3-17.5-19.5-22.7c-10.4-4.8-18.3-4.6-23.4-2.5C651.8,681,651,681.5,650.3,681.9z"
				/>
			<path fill="#3C2415" stroke="#3C2415" stroke-miterlimit="10" d="M683.3,335.2c-4.9-5.9-11.4-10.2-16.9-15.8
				c-5.5-5.5-9.9-12.1-15.8-16.9c0.7,0.5,1.5,0.9,2.4,1.3l0,0c5.1,2.1,13,2.3,23.4-2.5c12.7-5.9,19.8-23.4,19.8-23.4l0,0
				c0.4-0.9,1-1.7,1.7-2.5c3.4-3.4,8.9-3.4,12.3,0c3.4,3.4,3.4,8.9,0,12.3c-0.7,0.7-1.6,1.3-2.5,1.7c0,0,0,0,0,0
				c-0.1,0-0.3,0.1-0.6,0.3c0,0,0,0,0,0c-3.3,1.5-17.5,8.3-22.7,19.5c-4.8,10.4-4.6,18.3-2.5,23.4
				C682.4,333.6,682.8,334.5,683.3,335.2z"/>
			<path fill="#3C2415" stroke="#3C2415" stroke-miterlimit="10" d="M303.5,648.9c4.9,5.9,11.4,10.2,16.9,15.8
				c5.5,5.5,9.9,12.1,15.8,16.9c-0.7-0.5-1.5-0.9-2.4-1.3l0,0c-5.1-2.1-13-2.3-23.4,2.5c-12.7,5.9-19.8,23.4-19.8,23.4l0,0
				c-0.4,0.9-1,1.7-1.7,2.5c-3.4,3.4-8.9,3.4-12.3,0c-3.4-3.4-3.4-8.9,0-12.3c0.7-0.7,1.6-1.3,2.5-1.7c0,0,0,0,0,0
				c0.1,0,0.3-0.1,0.6-0.3c0,0,0,0,0,0c3.3-1.5,17.5-8.3,22.7-19.5c4.8-10.4,4.6-18.3,2.5-23.4C304.4,650.4,304,649.6,303.5,648.9z"
				/>
			<path fill="#3C2415" stroke="#3C2415" stroke-miterlimit="10" d="M257,393.3c-4.5,10.6,3.4,19.5,1.1,25.3
				c2.3-7.2,6.7-13.7,9.7-20.7c3-7.1,4.6-14.8,8.2-21.4C273.3,382.2,261.4,382.7,257,393.3z"/>
			<path fill="#3C2415" stroke="#3C2415" stroke-miterlimit="10" d="M242.5,441.4c-2.2,11.3,7.4,18.4,6.3,24.5
				c0.7-7.5,3.7-14.8,5.2-22.3c1.4-7.5,1.4-15.4,3.6-22.6C256.2,427.1,244.6,430.1,242.5,441.4z"/>
			<path fill="#3C2415" stroke="#3C2415" stroke-miterlimit="10" d="M280.4,349.9c-6.4,9.5-0.3,19.8-3.6,25.1
				c3.6-6.6,9.1-12.2,13.4-18.6c4.2-6.4,7.3-13.7,12-19.5C298.6,342,286.8,340.3,280.4,349.9z"/>
			<path fill="#3C2415" stroke="#3C2415" stroke-miterlimit="10" d="M257,590.5c-4.5-10.6,3.4-19.5,1.1-25.3
				c2.3,7.2,6.7,13.7,9.7,20.7c3,7.1,4.6,14.8,8.2,21.4C273.3,601.6,261.4,601,257,590.5z"/>
			<path fill="#3C2415" stroke="#3C2415" stroke-miterlimit="10" d="M242.5,542.4c-2.2-11.3,7.4-18.4,6.3-24.5
				c0.7,7.5,3.7,14.8,5.2,22.3c1.4,7.5,1.4,15.4,3.6,22.6C256.2,556.7,244.6,553.6,242.5,542.4z"/>
			<path fill="#3C2415" stroke="#3C2415" stroke-miterlimit="10" d="M280.4,633.9c-6.4-9.5-0.3-19.8-3.6-25.1
				c3.6,6.6,9.1,12.2,13.4,18.6c4.2,6.4,7.3,13.7,12,19.5C298.6,641.8,286.8,643.4,280.4,633.9z"/>
			<path fill="#3C2415" stroke="#3C2415" stroke-miterlimit="10" d="M257,393.3c-4.5,10.6,3.4,19.5,1.1,25.3
				c2.3-7.2,6.7-13.7,9.7-20.7c3-7.1,4.6-14.8,8.2-21.4C273.3,382.2,261.4,382.7,257,393.3z"/>
			<path fill="#3C2415" stroke="#3C2415" stroke-miterlimit="10" d="M242.5,441.4c-2.2,11.3,7.4,18.4,6.3,24.5
				c0.7-7.5,3.7-14.8,5.2-22.3c1.4-7.5,1.4-15.4,3.6-22.6C256.2,427.1,244.6,430.1,242.5,441.4z"/>
			<path fill="#3C2415" stroke="#3C2415" stroke-miterlimit="10" d="M280.4,349.9c-6.4,9.5-0.3,19.8-3.6,25.1
				c3.6-6.6,9.1-12.2,13.4-18.6c4.2-6.4,7.3-13.7,12-19.5C298.6,342,286.8,340.3,280.4,349.9z"/>
			<path fill="#3C2415" stroke="#3C2415" stroke-miterlimit="10" d="M257,590.5c-4.5-10.6,3.4-19.5,1.1-25.3
				c2.3,7.2,6.7,13.7,9.7,20.7c3,7.1,4.6,14.8,8.2,21.4C273.3,601.6,261.4,601,257,590.5z"/>
			<path fill="#3C2415" stroke="#3C2415" stroke-miterlimit="10" d="M242.5,542.4c-2.2-11.3,7.4-18.4,6.3-24.5
				c0.7,7.5,3.7,14.8,5.2,22.3c1.4,7.5,1.4,15.4,3.6,22.6C256.2,556.7,244.6,553.6,242.5,542.4z"/>
			<path fill="#3C2415" stroke="#3C2415" stroke-miterlimit="10" d="M280.4,633.9c-6.4-9.5-0.3-19.8-3.6-25.1
				c3.6,6.6,9.1,12.2,13.4,18.6c4.2,6.4,7.3,13.7,12,19.5C298.6,641.8,286.8,643.4,280.4,633.9z"/>
		</g>
	</g>
</g>
</svg>
