<?xml version="1.0" encoding="utf-8"?>
<!-- Generator: Adobe Illustrator 18.1.1, SVG Export Plug-In . SVG Version: 6.00 Build 0)  -->
<svg version="1.1" id="Layer_1" xmlns="http://www.w3.org/2000/svg" xmlns:xlink="http://www.w3.org/1999/xlink" x="0px" y="0px"
	 viewBox="0 0 983.9 984.3" enable-background="new 0 0 983.9 984.3" xml:space="preserve">
<g id="bi3a">
	<g id="Logo_1_">
		<g>
			<path id="_132923024" fill="#8C8432" d="M484.9,473.3c-43.5-24-73.6-9.9-92.1,6.6c9.9-6.7,22.2-8.1,33.2-10.1
				c-2.9,3.4-4.7,7.7-3.4,13c11.2-8.4,24.9-11.3,39.5-11.2c-1.8,5.7-1.4,8-1.9,11.7C468.8,479.4,476.4,477.1,484.9,473.3
				L484.9,473.3z"/>
			<path id="_132921176" fill="#8C8432" d="M397.6,415.6c48-23,69.9,13.3,92.2,48.7c-11.9-4.4-23.7-8.8-35.6-13.3
				c3.2-1.9,6.1-3.8,8.3-5.5c-7.9-8.4-18.1-15.5-36.6-17.6c2.4-1.9,4.9-3.8,7.3-5.7C421.8,414.4,409.6,415.9,397.6,415.6
				L397.6,415.6z"/>
			<path id="_132921488" fill="#8C8432" d="M493.6,458.2c-7-18.7-17.1-36.4-32.5-51.9c3.3-0.9,6.6-1.8,9.9-2.8
				c-3-10.1-9.2-18.7-17.4-26.2c4.1-0.7,8.2-1.3,12.3-2c-6.1-10.2-13.5-17.2-22.2-21C479.7,345,489.4,395.4,493.6,458.2L493.6,458.2
				z"/>
			<path id="_132924152" fill="#8C8432" d="M506.6,473.3c43.5-24,73.6-9.9,92.1,6.6c-9.9-6.7-22.2-8.1-33.2-10.1
				c2.9,3.4,4.7,7.7,3.4,13c-11.2-8.4-24.9-11.3-39.5-11.2c1.8,5.7,1.4,8,1.9,11.7C522.8,479.4,515.1,477.1,506.6,473.3L506.6,473.3
				z"/>
			<path id="_132922088" fill="#8C8432" d="M593.9,415.6c-48-23-69.9,13.3-92.2,48.7c11.9-4.4,23.7-8.8,35.6-13.3
				c-3.2-1.9-6.1-3.8-8.3-5.5c7.9-8.4,18.1-15.5,36.6-17.6c-2.4-1.9-4.9-3.8-7.3-5.7C569.8,414.4,581.9,415.9,593.9,415.6
				L593.9,415.6z"/>
			<path id="_132920504" fill="#8C8432" d="M497.9,458.2c7-18.7,17.1-36.4,32.5-51.9c-3.3-0.9-6.6-1.8-9.9-2.8
				c3-10.1,9.2-18.7,17.4-26.2c-4.1-0.7-8.2-1.3-12.3-2c6.1-10.2,13.5-17.2,22.2-21C511.9,345,502.2,395.4,497.9,458.2L497.9,458.2z
				"/>
		</g>
		<g>
			<path id="_132923504" fill="#8C8432" d="M210.1,527v17.8c0,3.4,0.2,5.6,0.6,6.5c0.4,0.9,1.2,1.6,2.2,2.1c1.1,0.5,3,0.8,6,0.8v1.7
				h-32.5v-1.7c2.9,0,4.9-0.3,6-0.8c1-0.5,1.8-1.2,2.2-2.1c0.4-0.9,0.6-3,0.6-6.4v-41.1c0-3.4-0.2-5.6-0.6-6.5
				c-0.4-0.9-1.2-1.6-2.2-2.1c-1.1-0.5-3-0.8-5.9-0.8v-1.7h29.5c7.7,0,13.3,0.5,16.8,1.6c3.5,1.1,6.4,3,8.7,5.9
				c2.2,2.8,3.4,6.2,3.4,10c0,4.7-1.7,8.5-5.1,11.6c-2.2,1.9-5.2,3.4-9,4.3l15.2,21.5c2,2.8,3.4,4.5,4.2,5.2c1.3,1,2.8,1.5,4.5,1.6
				v1.7h-20L214.3,527H210.1L210.1,527z M210.1,495.9v27.8h2.7c4.3,0,7.6-0.4,9.7-1.2c2.2-0.8,3.8-2.2,5.1-4.3
				c1.2-2.1,1.9-4.8,1.9-8.1c0-4.8-1.1-8.4-3.4-10.7c-2.2-2.3-5.9-3.5-10.9-3.5H210.1z"/>
			<path id="_132923528" fill="#8C8432" d="M293,496.2V522h1.3c4,0,6.9-1.3,8.7-3.8c1.8-2.5,3-6.3,3.5-11.2h1.8v33.2h-1.8
				c-0.4-3.6-1.2-6.6-2.4-8.9c-1.2-2.3-2.6-3.9-4.2-4.7c-1.6-0.8-3.9-1.2-6.9-1.2v17.9c0,3.5,0.1,5.6,0.4,6.4
				c0.3,0.8,0.8,1.4,1.7,1.9c0.8,0.5,2.1,0.8,3.9,0.8h3.8c5.9,0,10.7-1.4,14.2-4.1c3.6-2.7,6.1-6.9,7.7-12.5h1.7l-2.8,20.2h-54.8
				v-1.7h2.1c1.8,0,3.3-0.3,4.4-1c0.8-0.4,1.4-1.2,1.9-2.3c0.3-0.7,0.5-2.7,0.5-5.9v-41.7c0-2.9-0.1-4.6-0.2-5.3
				c-0.3-1.1-0.9-1.9-1.7-2.5c-1.2-0.9-2.8-1.3-4.9-1.3h-2.1v-1.7h53.1v18.8h-1.8c-0.9-4.6-2.2-7.9-3.8-9.9c-1.6-2-3.9-3.5-6.9-4.4
				c-1.7-0.6-5-0.8-9.8-0.8H293L293,496.2z"/>
			<path id="_132921872" fill="#333333" d="M353.1,492.5h29.7l-4.7,12.1h-25l-2.4,6.3c10.7,0.4,19,3.1,24.8,8
				c4.8,4.1,7.2,9.2,7.2,15.2c0,3.9-1.1,7.7-3.3,11.4c-2.2,3.7-5.3,6.6-9.3,8.6c-4,2-8.4,3-13.2,3c-5.2,0-9.2-1-11.9-2.9
				c-1.9-1.4-2.9-2.9-2.9-4.7c0-1.3,0.5-2.5,1.5-3.5c1-1,2.2-1.6,3.5-1.6c1.2,0,2.5,0.3,3.7,0.7c1.2,0.5,3.4,1.8,6.4,3.9
				c1.9,1.3,3.5,2.2,4.9,2.7c1,0.4,2.1,0.6,3.3,0.6c2.6,0,4.7-0.9,6.5-2.8c1.8-1.9,2.7-4.1,2.7-6.7c0-5.5-2.7-9.9-8.2-13.4
				c-5.5-3.4-12.4-5.2-20.8-5.2c-0.8,0-2.1,0-3.8,0.1L353.1,492.5L353.1,492.5z"/>
			<path id="_132922400" fill="#333333" d="M486.6,491.1v22.3h-1.7c-2.1-6.1-5.2-10.7-9.4-13.9c-4.2-3.2-8.7-4.8-13.7-4.8
				c-4.7,0-8.7,1.3-11.8,4c-3.1,2.7-5.4,6.4-6.7,11.1c-1.3,4.8-2,9.7-2,14.7c0,6.1,0.7,11.4,2.2,16c1.4,4.6,3.7,7.9,6.9,10.1
				c3.2,2.1,7,3.2,11.4,3.2c1.5,0,3.1-0.2,4.7-0.5c1.6-0.3,3.3-0.8,4.9-1.4v-13.2c0-2.5-0.2-4.1-0.5-4.8c-0.3-0.7-1.1-1.4-2.1-2
				c-1.1-0.6-2.4-0.9-3.9-0.9h-1.6v-1.7H494v1.7c-2.3,0.2-4,0.5-4.9,1c-0.9,0.5-1.6,1.3-2.1,2.4c-0.3,0.6-0.4,2-0.4,4.4v13.2
				c-4.1,1.8-8.3,3.2-12.7,4.1c-4.4,0.9-8.9,1.4-13.6,1.4c-6,0-11-0.8-15-2.5c-4-1.6-7.5-3.8-10.5-6.4c-3-2.7-5.4-5.7-7.1-9
				c-2.2-4.3-3.3-9.1-3.3-14.5c0-9.5,3.4-17.6,10.1-24.2c6.7-6.6,15.1-9.9,25.3-9.9c3.1,0,6,0.2,8.5,0.7c1.4,0.3,3.6,1,6.7,2.1
				c3.1,1.2,4.9,1.8,5.4,1.8c0.9,0,1.7-0.3,2.4-1c0.7-0.6,1.4-1.8,2.1-3.6H486.6z M529.3,527v17.8c0,3.4,0.2,5.6,0.6,6.5
				c0.4,0.9,1.2,1.6,2.2,2.1c1.1,0.5,3,0.8,5.9,0.8v1.7h-32.5v-1.7c2.9,0,4.9-0.3,6-0.8c1-0.5,1.8-1.2,2.2-2.1
				c0.4-0.9,0.6-3,0.6-6.4v-41.1c0-3.4-0.2-5.6-0.6-6.5c-0.4-0.9-1.2-1.6-2.2-2.1c-1.1-0.5-3-0.8-5.9-0.8v-1.7h29.5
				c7.7,0,13.3,0.5,16.8,1.6c3.5,1.1,6.4,3,8.7,5.9c2.2,2.8,3.4,6.2,3.4,10c0,4.7-1.7,8.5-5.1,11.6c-2.2,1.9-5.2,3.4-9,4.3
				l15.2,21.5c2,2.8,3.4,4.5,4.2,5.2c1.3,1,2.8,1.5,4.5,1.6v1.7h-20L533.5,527H529.3L529.3,527z M529.3,495.9v27.8h2.7
				c4.3,0,7.6-0.4,9.7-1.2c2.2-0.8,3.9-2.2,5.1-4.3c1.2-2.1,1.9-4.8,1.9-8.1c0-4.8-1.1-8.4-3.4-10.7c-2.3-2.3-5.9-3.5-10.9-3.5
				H529.3L529.3,495.9z M618.9,491.6c10.1-0.4,18.3,2.6,24.6,8.8c6.3,6.3,9.5,14.1,9.5,23.5c0,8-2.3,15.1-7.1,21.2
				c-6.2,8.1-15,12.2-26.4,12.2c-11.4,0-20.2-3.9-26.5-11.6c-4.9-6.1-7.4-13.4-7.4-21.7c0-9.4,3.2-17.3,9.6-23.5
				C601.6,494.2,609.5,491.3,618.9,491.6L618.9,491.6z M619.4,494.6c-5.8,0-10.2,3-13.2,8.9c-2.5,4.9-3.7,11.8-3.7,20.9
				c0,10.8,1.9,18.8,5.7,24c2.7,3.6,6.4,5.4,11.1,5.4c3.2,0,5.9-0.8,8-2.3c2.7-2,4.9-5.2,6.4-9.6c1.5-4.4,2.3-10.1,2.3-17.1
				c0-8.4-0.8-14.7-2.3-18.8c-1.6-4.2-3.5-7.1-6-8.8C625.3,495.5,622.6,494.6,619.4,494.6L619.4,494.6z M667.5,492.5h32.7v1.7h-1.6
				c-2.5,0-4.1,0.3-5.1,0.8c-0.9,0.5-1.6,1.2-2,2.1c-0.4,0.9-0.6,3.2-0.6,6.8v31c0,5.7,0.4,9.4,1.3,11.3c0.9,1.8,2.3,3.3,4.2,4.6
				c2,1.2,4.4,1.8,7.4,1.8c3.4,0,6.4-0.8,8.8-2.3c2.4-1.6,4.2-3.7,5.4-6.4c1.2-2.7,1.8-7.4,1.8-14.2v-25.9c0-2.8-0.3-4.9-0.9-6.1
				c-0.6-1.2-1.3-2.1-2.2-2.5c-1.4-0.7-3.4-1.1-5.9-1.1v-1.7h21.9v1.7h-1.3c-1.8,0-3.3,0.4-4.4,1.1c-1.2,0.7-2,1.8-2.6,3.2
				c-0.4,1-0.6,2.8-0.6,5.4V528c0,7.5-0.5,12.8-1.5,16.1c-1,3.3-3.4,6.3-7.2,9.1c-3.8,2.8-9,4.2-15.6,4.2c-5.5,0-9.7-0.7-12.7-2.2
				c-4.1-2-7-4.6-8.6-7.7c-1.7-3.1-2.5-7.3-2.5-12.6v-31c0-3.6-0.2-5.9-0.6-6.8c-0.4-0.9-1.1-1.6-2.1-2.1c-1-0.5-2.8-0.8-5.5-0.7
				V492.5L667.5,492.5z M769.1,527.2v17.6c0,3.4,0.2,5.6,0.6,6.5c0.4,0.9,1.2,1.6,2.2,2.1c1.1,0.5,3,0.8,5.9,0.8v1.7h-32.2v-1.7
				c2.9,0,4.9-0.3,6-0.8c1-0.5,1.8-1.2,2.2-2.1c0.4-0.9,0.6-3,0.6-6.4v-41.1c0-3.4-0.2-5.6-0.6-6.5c-0.4-0.9-1.2-1.6-2.2-2.1
				c-1.1-0.5-3-0.8-5.9-0.8v-1.7h27.6c9.1,0,15.6,1.6,19.6,4.9c4,3.2,5.9,7.3,5.9,12.2c0,4.1-1.3,7.6-3.8,10.6
				c-2.5,2.9-6.1,4.9-10.6,6C781.4,526.8,776.3,527.2,769.1,527.2z M769.1,496.2v27.4c1,0.1,1.8,0.1,2.3,0.1c3.8,0,6.7-1.1,8.8-3.4
				c2.1-2.2,3.1-5.8,3.1-10.5c0-4.7-1-8.1-3.1-10.3c-2.1-2.2-5.1-3.3-9.2-3.3H769.1z"/>
		</g>
	</g>
	<g id="Tagline_2" display="none">
		
			<text transform="matrix(1 0 0 1 268.1401 585.877)" display="inline" fill="#333333" font-family="'TimesNewRomanPS-BoldMT'" font-size="19.3072" letter-spacing="1">A FULL SERVICE REAL ESTATE COMPANY</text>
		
			<text transform="matrix(1 0 0 1 316.375 611.1573)" display="inline" fill="#333333" font-family="'TimesNewRomanPS-BoldMT'" font-size="19.3072" letter-spacing="1">FOR THE MEDICAL COMMUNITY</text>
	</g>
	<g id="Tagline_2_1_">
		<g>
			<path fill="#333333" d="M276.2,582.2h-4.5l-0.5,1.2c-0.2,0.4-0.3,0.8-0.3,1c0,0.4,0.1,0.6,0.4,0.8c0.2,0.1,0.6,0.2,1.3,0.2v0.3
				h-4.3v-0.3c0.5-0.1,0.8-0.3,1.1-0.6c0.3-0.3,0.7-1,1.1-1.9l4.6-10.2h0.2l4.6,10.5c0.4,1,0.8,1.6,1.1,1.9c0.2,0.2,0.5,0.3,0.9,0.3
				v0.3h-6.2v-0.3h0.3c0.5,0,0.8-0.1,1-0.2c0.1-0.1,0.2-0.2,0.2-0.4c0-0.1,0-0.2-0.1-0.3c0-0.1-0.1-0.3-0.3-0.7L276.2,582.2z
				 M275.9,581.5l-1.9-4.4l-2,4.4H275.9z"/>
			<path fill="#333333" d="M294.2,573.8v5.3h0.4c0.6,0,1-0.1,1.4-0.3c0.4-0.2,0.7-0.5,0.9-0.9c0.2-0.4,0.4-0.9,0.5-1.6h0.3v6.4h-0.3
				c-0.1-1.2-0.4-2-1-2.4c-0.5-0.4-1.1-0.6-1.8-0.6h-0.4v3.9c0,0.7,0,1.1,0.1,1.2c0.1,0.2,0.2,0.3,0.4,0.4c0.2,0.1,0.5,0.2,0.9,0.2
				h0.4v0.3h-6.7v-0.3h0.4c0.4,0,0.7-0.1,0.9-0.2c0.2-0.1,0.3-0.2,0.4-0.5c0.1-0.2,0.1-0.5,0.1-1.2v-8.4c0-0.7,0-1.1-0.1-1.2
				c-0.1-0.2-0.2-0.3-0.4-0.4c-0.2-0.1-0.5-0.2-0.9-0.2h-0.4v-0.3h10.8v3.7h-0.4c-0.1-0.9-0.3-1.5-0.7-1.9c-0.4-0.4-0.9-0.7-1.6-0.9
				c-0.4-0.1-1.1-0.1-2.1-0.1H294.2z"/>
			<path fill="#333333" d="M302.7,573.1h6.6v0.3H309c-0.5,0-0.8,0.1-1,0.2c-0.2,0.1-0.3,0.2-0.4,0.4c-0.1,0.2-0.1,0.6-0.1,1.4v6.3
				c0,1.1,0.1,1.9,0.3,2.3c0.2,0.4,0.5,0.7,0.9,0.9c0.4,0.2,0.9,0.4,1.5,0.4c0.7,0,1.3-0.2,1.8-0.5c0.5-0.3,0.9-0.7,1.1-1.3
				c0.2-0.5,0.4-1.5,0.4-2.9v-5.2c0-0.6-0.1-1-0.2-1.2s-0.3-0.4-0.5-0.5c-0.3-0.1-0.7-0.2-1.2-0.2v-0.3h4.4v0.3h-0.3
				c-0.4,0-0.7,0.1-0.9,0.2c-0.2,0.1-0.4,0.4-0.5,0.7c-0.1,0.2-0.1,0.6-0.1,1.1v4.9c0,1.5-0.1,2.6-0.3,3.3c-0.2,0.7-0.7,1.3-1.4,1.8
				c-0.8,0.6-1.8,0.8-3.1,0.8c-1.1,0-2-0.1-2.6-0.4c-0.8-0.4-1.4-0.9-1.7-1.5c-0.3-0.6-0.5-1.5-0.5-2.5v-6.3c0-0.7,0-1.2-0.1-1.4
				c-0.1-0.2-0.2-0.3-0.4-0.4c-0.2-0.1-0.6-0.2-1.1-0.2V573.1z"/>
			<path fill="#333333" d="M329.9,581.4l-0.5,4.5h-11.4v-0.3h0.4c0.4,0,0.7-0.1,0.9-0.2c0.2-0.1,0.3-0.2,0.4-0.5
				c0.1-0.2,0.1-0.5,0.1-1.2v-8.4c0-0.7,0-1.1-0.1-1.2c-0.1-0.2-0.2-0.3-0.4-0.4c-0.2-0.1-0.5-0.2-0.9-0.2h-0.4v-0.3h6.8v0.3h-0.6
				c-0.4,0-0.7,0.1-0.9,0.2c-0.2,0.1-0.3,0.2-0.4,0.5c-0.1,0.2-0.1,0.5-0.1,1.2v8.1c0,0.7,0,1.1,0.1,1.2c0.1,0.2,0.2,0.3,0.4,0.4
				c0.2,0.1,0.5,0.1,1.1,0.1h1.1c0.7,0,1.2-0.1,1.7-0.4c0.5-0.2,0.8-0.6,1.2-1.1c0.3-0.5,0.6-1.3,0.9-2.3H329.9z"/>
			<path fill="#333333" d="M344.4,581.4l-0.5,4.5h-11.4v-0.3h0.4c0.4,0,0.7-0.1,0.9-0.2c0.2-0.1,0.3-0.2,0.4-0.5
				c0.1-0.2,0.1-0.5,0.1-1.2v-8.4c0-0.7,0-1.1-0.1-1.2c-0.1-0.2-0.2-0.3-0.4-0.4c-0.2-0.1-0.5-0.2-0.9-0.2h-0.4v-0.3h6.8v0.3h-0.6
				c-0.4,0-0.7,0.1-0.9,0.2c-0.2,0.1-0.3,0.2-0.4,0.5c-0.1,0.2-0.1,0.5-0.1,1.2v8.1c0,0.7,0,1.1,0.1,1.2s0.2,0.3,0.4,0.4
				c0.2,0.1,0.5,0.1,1.1,0.1h1.1c0.7,0,1.2-0.1,1.7-0.4s0.8-0.6,1.2-1.1c0.3-0.5,0.6-1.3,0.9-2.3H344.4z"/>
			<path fill="#333333" d="M361,572.8l0.1,4.3h-0.4c-0.2-1.1-0.6-1.9-1.3-2.6c-0.7-0.7-1.5-1-2.3-1c-0.6,0-1.1,0.2-1.5,0.5
				c-0.4,0.3-0.6,0.7-0.6,1.2c0,0.3,0.1,0.5,0.2,0.8c0.2,0.3,0.5,0.6,0.9,0.9c0.3,0.2,1,0.6,2,1.1c1.5,0.7,2.5,1.4,3,2.1
				c0.5,0.7,0.8,1.4,0.8,2.2c0,1.1-0.4,2-1.2,2.8c-0.8,0.8-1.9,1.2-3.2,1.2c-0.4,0-0.8,0-1.1-0.1c-0.4-0.1-0.8-0.2-1.3-0.5
				c-0.3-0.1-0.6-0.2-0.7-0.2c-0.2,0-0.3,0.1-0.5,0.2c-0.2,0.1-0.3,0.3-0.4,0.6h-0.3v-4.8h0.3c0.3,1.4,0.8,2.4,1.6,3.1
				c0.8,0.7,1.6,1.1,2.6,1.1c0.7,0,1.3-0.2,1.7-0.6c0.4-0.4,0.6-0.8,0.6-1.3c0-0.3-0.1-0.6-0.2-0.9c-0.2-0.3-0.4-0.6-0.7-0.8
				s-0.9-0.6-1.7-1c-1.2-0.6-2-1.1-2.5-1.5c-0.5-0.4-0.9-0.9-1.2-1.3c-0.3-0.5-0.4-1-0.4-1.6c0-1,0.4-1.9,1.1-2.6
				c0.7-0.7,1.7-1.1,2.8-1.1c0.4,0,0.8,0.1,1.2,0.2c0.3,0.1,0.7,0.2,1.1,0.4c0.4,0.2,0.7,0.3,0.9,0.3c0.2,0,0.3,0,0.4-0.2
				c0.1-0.1,0.2-0.3,0.3-0.7H361z"/>
			<path fill="#333333" d="M369.5,573.8v5.2h0.3c0.8,0,1.4-0.3,1.8-0.8c0.4-0.5,0.6-1.3,0.7-2.3h0.4v6.7h-0.4
				c-0.1-0.7-0.2-1.3-0.5-1.8c-0.2-0.5-0.5-0.8-0.8-0.9c-0.3-0.2-0.8-0.2-1.4-0.2v3.6c0,0.7,0,1.1,0.1,1.3c0.1,0.2,0.2,0.3,0.3,0.4
				c0.2,0.1,0.4,0.2,0.8,0.2h0.8c1.2,0,2.2-0.3,2.9-0.8c0.7-0.6,1.2-1.4,1.6-2.5h0.3l-0.6,4.1h-11v-0.3h0.4c0.4,0,0.7-0.1,0.9-0.2
				c0.2-0.1,0.3-0.2,0.4-0.5c0.1-0.2,0.1-0.5,0.1-1.2v-8.4c0-0.6,0-0.9,0-1.1c-0.1-0.2-0.2-0.4-0.3-0.5c-0.2-0.2-0.6-0.3-1-0.3h-0.4
				v-0.3h10.7v3.8h-0.4c-0.2-0.9-0.4-1.6-0.8-2c-0.3-0.4-0.8-0.7-1.4-0.9c-0.4-0.1-1-0.2-2-0.2H369.5z"/>
			<path fill="#333333" d="M383.7,580.1v3.6c0,0.7,0,1.1,0.1,1.3c0.1,0.2,0.2,0.3,0.4,0.4c0.2,0.1,0.6,0.2,1.2,0.2v0.3H379v-0.3
				c0.6,0,1-0.1,1.2-0.2c0.2-0.1,0.4-0.3,0.4-0.4c0.1-0.2,0.1-0.6,0.1-1.3v-8.3c0-0.7,0-1.1-0.1-1.3c-0.1-0.2-0.2-0.3-0.4-0.4
				c-0.2-0.1-0.6-0.2-1.2-0.2v-0.3h5.9c1.5,0,2.7,0.1,3.4,0.3c0.7,0.2,1.3,0.6,1.8,1.2c0.5,0.6,0.7,1.2,0.7,2c0,0.9-0.3,1.7-1,2.3
				c-0.4,0.4-1,0.7-1.8,0.9l3.1,4.3c0.4,0.6,0.7,0.9,0.9,1c0.3,0.2,0.6,0.3,0.9,0.3v0.3h-4l-4.1-5.8H383.7z M383.7,573.8v5.6h0.5
				c0.9,0,1.5-0.1,2-0.2c0.4-0.2,0.8-0.4,1-0.9c0.2-0.4,0.4-1,0.4-1.6c0-1-0.2-1.7-0.7-2.2c-0.5-0.5-1.2-0.7-2.2-0.7H383.7z"/>
			<path fill="#333333" d="M407.2,573.1v0.3c-0.5,0.1-0.9,0.3-1.2,0.7c-0.3,0.3-0.7,1.1-1.2,2.2l-4.4,9.8H400l-4.4-10.2
				c-0.5-1.2-0.9-1.9-1.1-2.2c-0.2-0.2-0.5-0.3-1-0.4v-0.3h6.1v0.3h-0.2c-0.6,0-0.9,0.1-1.1,0.2c-0.1,0.1-0.2,0.2-0.2,0.4
				c0,0.1,0,0.2,0.1,0.4c0,0.2,0.2,0.6,0.5,1.2l2.7,6.4l2.5-5.7c0.3-0.7,0.5-1.1,0.6-1.4c0.1-0.2,0.1-0.4,0.1-0.6
				c0-0.2,0-0.4-0.2-0.5c-0.1-0.1-0.2-0.3-0.4-0.3c-0.3-0.1-0.6-0.2-1.1-0.2v-0.3H407.2z"/>
			<path fill="#333333" d="M416,585.5v0.3h-6.7v-0.3h0.4c0.4,0,0.7-0.1,0.9-0.2c0.2-0.1,0.3-0.2,0.4-0.5c0.1-0.2,0.1-0.5,0.1-1.2
				v-8.4c0-0.7,0-1.1-0.1-1.2c-0.1-0.2-0.2-0.3-0.4-0.4c-0.2-0.1-0.5-0.2-0.9-0.2h-0.4v-0.3h6.7v0.3h-0.4c-0.4,0-0.7,0.1-0.9,0.2
				c-0.2,0.1-0.3,0.2-0.4,0.5c-0.1,0.2-0.1,0.5-0.1,1.2v8.4c0,0.7,0,1.1,0.1,1.2c0.1,0.2,0.2,0.3,0.4,0.4c0.2,0.1,0.5,0.2,0.9,0.2
				H416z"/>
			<path fill="#333333" d="M430.9,572.8v4.4h-0.4c-0.3-1.2-0.8-2-1.5-2.7c-0.8-0.6-1.6-0.9-2.6-0.9c-0.8,0-1.5,0.2-2.2,0.7
				c-0.7,0.5-1.2,1.1-1.5,1.8c-0.4,0.9-0.6,2-0.6,3.2c0,1.1,0.1,2.2,0.4,3.1c0.3,0.9,0.7,1.6,1.4,2.1c0.6,0.5,1.4,0.7,2.4,0.7
				c0.8,0,1.5-0.2,2.2-0.5c0.7-0.4,1.4-1,2.1-1.8v1.1c-0.7,0.7-1.5,1.3-2.2,1.6c-0.8,0.3-1.7,0.5-2.7,0.5c-1.4,0-2.6-0.3-3.6-0.8
				c-1.1-0.5-1.9-1.3-2.5-2.4c-0.6-1-0.9-2.1-0.9-3.3c0-1.2,0.3-2.4,1-3.5c0.6-1.1,1.5-1.9,2.6-2.5s2.2-0.9,3.5-0.9
				c0.9,0,1.8,0.2,2.8,0.6c0.6,0.2,0.9,0.3,1.1,0.3c0.2,0,0.4-0.1,0.5-0.2c0.1-0.1,0.2-0.4,0.3-0.7H430.9z"/>
			<path fill="#333333" d="M438.7,573.8v5.2h0.3c0.8,0,1.4-0.3,1.8-0.8c0.4-0.5,0.6-1.3,0.7-2.3h0.4v6.7h-0.4
				c-0.1-0.7-0.2-1.3-0.5-1.8c-0.2-0.5-0.5-0.8-0.8-0.9c-0.3-0.2-0.8-0.2-1.4-0.2v3.6c0,0.7,0,1.1,0.1,1.3c0.1,0.2,0.2,0.3,0.3,0.4
				c0.2,0.1,0.4,0.2,0.8,0.2h0.8c1.2,0,2.2-0.3,2.9-0.8c0.7-0.6,1.2-1.4,1.6-2.5h0.3l-0.6,4.1h-11v-0.3h0.4c0.4,0,0.7-0.1,0.9-0.2
				c0.2-0.1,0.3-0.2,0.4-0.5c0.1-0.2,0.1-0.5,0.1-1.2v-8.4c0-0.6,0-0.9,0-1.1c-0.1-0.2-0.2-0.4-0.3-0.5c-0.2-0.2-0.6-0.3-1-0.3h-0.4
				v-0.3h10.7v3.8h-0.4c-0.2-0.9-0.4-1.6-0.8-2c-0.3-0.4-0.8-0.7-1.4-0.9c-0.4-0.1-1-0.2-2-0.2H438.7z"/>
			<path fill="#333333" d="M459.4,580.1v3.6c0,0.7,0,1.1,0.1,1.3c0.1,0.2,0.2,0.3,0.4,0.4c0.2,0.1,0.6,0.2,1.2,0.2v0.3h-6.5v-0.3
				c0.6,0,1-0.1,1.2-0.2c0.2-0.1,0.4-0.3,0.4-0.4c0.1-0.2,0.1-0.6,0.1-1.3v-8.3c0-0.7,0-1.1-0.1-1.3c-0.1-0.2-0.2-0.3-0.4-0.4
				c-0.2-0.1-0.6-0.2-1.2-0.2v-0.3h5.9c1.5,0,2.7,0.1,3.4,0.3c0.7,0.2,1.3,0.6,1.8,1.2c0.5,0.6,0.7,1.2,0.7,2c0,0.9-0.3,1.7-1,2.3
				c-0.4,0.4-1,0.7-1.8,0.9l3.1,4.3c0.4,0.6,0.7,0.9,0.9,1c0.3,0.2,0.6,0.3,0.9,0.3v0.3h-4l-4.1-5.8H459.4z M459.4,573.8v5.6h0.5
				c0.9,0,1.5-0.1,2-0.2c0.4-0.2,0.8-0.4,1-0.9c0.2-0.4,0.4-1,0.4-1.6c0-1-0.2-1.7-0.7-2.2c-0.5-0.5-1.2-0.7-2.2-0.7H459.4z"/>
			<path fill="#333333" d="M475,573.8v5.2h0.3c0.8,0,1.4-0.3,1.8-0.8c0.4-0.5,0.6-1.3,0.7-2.3h0.4v6.7h-0.4
				c-0.1-0.7-0.2-1.3-0.5-1.8c-0.2-0.5-0.5-0.8-0.8-0.9c-0.3-0.2-0.8-0.2-1.4-0.2v3.6c0,0.7,0,1.1,0.1,1.3c0.1,0.2,0.2,0.3,0.3,0.4
				c0.2,0.1,0.4,0.2,0.8,0.2h0.8c1.2,0,2.2-0.3,2.9-0.8c0.7-0.6,1.2-1.4,1.6-2.5h0.3l-0.6,4.1h-11v-0.3h0.4c0.4,0,0.7-0.1,0.9-0.2
				c0.2-0.1,0.3-0.2,0.4-0.5c0.1-0.2,0.1-0.5,0.1-1.2v-8.4c0-0.6,0-0.9,0-1.1c-0.1-0.2-0.2-0.4-0.3-0.5c-0.2-0.2-0.6-0.3-1-0.3h-0.4
				v-0.3h10.7v3.8h-0.4c-0.2-0.9-0.4-1.6-0.8-2c-0.3-0.4-0.8-0.7-1.4-0.9c-0.4-0.1-1-0.2-2-0.2H475z"/>
			<path fill="#333333" d="M492.2,582.2h-4.5l-0.5,1.2c-0.2,0.4-0.3,0.8-0.3,1c0,0.4,0.1,0.6,0.4,0.8c0.2,0.1,0.6,0.2,1.3,0.2v0.3
				h-4.3v-0.3c0.5-0.1,0.8-0.3,1.1-0.6c0.3-0.3,0.7-1,1.1-1.9l4.6-10.2h0.2l4.6,10.5c0.4,1,0.8,1.6,1.1,1.9c0.2,0.2,0.5,0.3,0.9,0.3
				v0.3h-6.2v-0.3h0.3c0.5,0,0.8-0.1,1-0.2c0.1-0.1,0.2-0.2,0.2-0.4c0-0.1,0-0.2-0.1-0.3c0-0.1-0.1-0.3-0.3-0.7L492.2,582.2z
				 M491.9,581.5l-1.9-4.4l-2,4.4H491.9z"/>
			<path fill="#333333" d="M511.8,581.4l-0.5,4.5H500v-0.3h0.4c0.4,0,0.7-0.1,0.9-0.2c0.2-0.1,0.3-0.2,0.4-0.5
				c0.1-0.2,0.1-0.5,0.1-1.2v-8.4c0-0.7,0-1.1-0.1-1.2c-0.1-0.2-0.2-0.3-0.4-0.4c-0.2-0.1-0.5-0.2-0.9-0.2H500v-0.3h6.8v0.3h-0.6
				c-0.4,0-0.7,0.1-0.9,0.2c-0.2,0.1-0.3,0.2-0.4,0.5c-0.1,0.2-0.1,0.5-0.1,1.2v8.1c0,0.7,0,1.1,0.1,1.2s0.2,0.3,0.4,0.4
				c0.2,0.1,0.5,0.1,1.1,0.1h1.1c0.7,0,1.2-0.1,1.7-0.4s0.8-0.6,1.2-1.1c0.3-0.5,0.6-1.3,0.9-2.3H511.8z"/>
			<path fill="#333333" d="M524.6,573.8v5.2h0.3c0.8,0,1.4-0.3,1.8-0.8c0.4-0.5,0.6-1.3,0.7-2.3h0.4v6.7h-0.4
				c-0.1-0.7-0.2-1.3-0.5-1.8c-0.2-0.5-0.5-0.8-0.8-0.9c-0.3-0.2-0.8-0.2-1.4-0.2v3.6c0,0.7,0,1.1,0.1,1.3c0.1,0.2,0.2,0.3,0.3,0.4
				c0.2,0.1,0.4,0.2,0.8,0.2h0.8c1.2,0,2.2-0.3,2.9-0.8c0.7-0.6,1.2-1.4,1.6-2.5h0.3l-0.6,4.1h-11v-0.3h0.4c0.4,0,0.7-0.1,0.9-0.2
				c0.2-0.1,0.3-0.2,0.4-0.5c0.1-0.2,0.1-0.5,0.1-1.2v-8.4c0-0.6,0-0.9,0-1.1c-0.1-0.2-0.2-0.4-0.3-0.5c-0.2-0.2-0.6-0.3-1-0.3h-0.4
				v-0.3h10.7v3.8h-0.4c-0.2-0.9-0.4-1.6-0.8-2c-0.3-0.4-0.8-0.7-1.4-0.9c-0.4-0.1-1-0.2-2-0.2H524.6z"/>
			<path fill="#333333" d="M542.9,572.8l0.1,4.3h-0.4c-0.2-1.1-0.6-1.9-1.3-2.6c-0.7-0.7-1.5-1-2.3-1c-0.6,0-1.1,0.2-1.5,0.5
				c-0.4,0.3-0.6,0.7-0.6,1.2c0,0.3,0.1,0.5,0.2,0.8c0.2,0.3,0.5,0.6,0.9,0.9c0.3,0.2,1,0.6,2,1.1c1.5,0.7,2.5,1.4,3,2.1
				c0.5,0.7,0.8,1.4,0.8,2.2c0,1.1-0.4,2-1.2,2.8c-0.8,0.8-1.9,1.2-3.2,1.2c-0.4,0-0.8,0-1.1-0.1c-0.4-0.1-0.8-0.2-1.3-0.5
				c-0.3-0.1-0.6-0.2-0.7-0.2c-0.2,0-0.3,0.1-0.5,0.2c-0.2,0.1-0.3,0.3-0.4,0.6h-0.3v-4.8h0.3c0.3,1.4,0.8,2.4,1.6,3.1
				c0.8,0.7,1.6,1.1,2.6,1.1c0.7,0,1.3-0.2,1.7-0.6c0.4-0.4,0.6-0.8,0.6-1.3c0-0.3-0.1-0.6-0.2-0.9c-0.2-0.3-0.4-0.6-0.7-0.8
				s-0.9-0.6-1.7-1c-1.2-0.6-2-1.1-2.5-1.5c-0.5-0.4-0.9-0.9-1.2-1.3c-0.3-0.5-0.4-1-0.4-1.6c0-1,0.4-1.9,1.1-2.6
				c0.7-0.7,1.7-1.1,2.8-1.1c0.4,0,0.8,0.1,1.2,0.2c0.3,0.1,0.7,0.2,1.1,0.4c0.4,0.2,0.7,0.3,0.9,0.3c0.2,0,0.3,0,0.4-0.2
				c0.1-0.1,0.2-0.3,0.3-0.7H542.9z"/>
			<path fill="#333333" d="M558.3,573.1v3.5h-0.3c-0.2-0.8-0.4-1.4-0.7-1.7c-0.2-0.3-0.6-0.6-1-0.8c-0.2-0.1-0.7-0.2-1.3-0.2h-1v9.9
				c0,0.7,0,1.1,0.1,1.2c0.1,0.2,0.2,0.3,0.4,0.4c0.2,0.1,0.5,0.2,0.9,0.2h0.4v0.3h-6.7v-0.3h0.4c0.4,0,0.7-0.1,0.9-0.2
				c0.2-0.1,0.3-0.2,0.4-0.5c0.1-0.2,0.1-0.5,0.1-1.2v-9.9h-0.9c-0.9,0-1.5,0.2-1.9,0.5c-0.5,0.5-0.9,1.2-1,2.2h-0.4v-3.5H558.3z"/>
			<path fill="#333333" d="M567.1,582.2h-4.5l-0.5,1.2c-0.2,0.4-0.3,0.8-0.3,1c0,0.4,0.1,0.6,0.4,0.8c0.2,0.1,0.6,0.2,1.3,0.2v0.3
				h-4.3v-0.3c0.5-0.1,0.8-0.3,1.1-0.6c0.3-0.3,0.7-1,1.1-1.9l4.6-10.2h0.2l4.6,10.5c0.4,1,0.8,1.6,1.1,1.9c0.2,0.2,0.5,0.3,0.9,0.3
				v0.3h-6.2v-0.3h0.3c0.5,0,0.8-0.1,1-0.2c0.1-0.1,0.2-0.2,0.2-0.4c0-0.1,0-0.2-0.1-0.3c0-0.1-0.1-0.3-0.3-0.7L567.1,582.2z
				 M566.8,581.5l-1.9-4.4l-2,4.4H566.8z"/>
			<path fill="#333333" d="M585.3,573.1v3.5H585c-0.2-0.8-0.4-1.4-0.7-1.7c-0.2-0.3-0.6-0.6-1-0.8c-0.2-0.1-0.7-0.2-1.3-0.2h-1v9.9
				c0,0.7,0,1.1,0.1,1.2c0.1,0.2,0.2,0.3,0.4,0.4c0.2,0.1,0.5,0.2,0.9,0.2h0.4v0.3h-6.7v-0.3h0.4c0.4,0,0.7-0.1,0.9-0.2
				c0.2-0.1,0.3-0.2,0.4-0.5c0.1-0.2,0.1-0.5,0.1-1.2v-9.9h-0.9c-0.9,0-1.5,0.2-1.9,0.5c-0.5,0.5-0.9,1.2-1,2.2h-0.4v-3.5H585.3z"/>
			<path fill="#333333" d="M592.8,573.8v5.2h0.3c0.8,0,1.4-0.3,1.8-0.8c0.4-0.5,0.6-1.3,0.7-2.3h0.4v6.7h-0.4
				c-0.1-0.7-0.2-1.3-0.5-1.8c-0.2-0.5-0.5-0.8-0.8-0.9c-0.3-0.2-0.8-0.2-1.4-0.2v3.6c0,0.7,0,1.1,0.1,1.3c0.1,0.2,0.2,0.3,0.3,0.4
				c0.2,0.1,0.4,0.2,0.8,0.2h0.8c1.2,0,2.2-0.3,2.9-0.8c0.7-0.6,1.2-1.4,1.6-2.5h0.3l-0.6,4.1h-11v-0.3h0.4c0.4,0,0.7-0.1,0.9-0.2
				c0.2-0.1,0.3-0.2,0.4-0.5c0.1-0.2,0.1-0.5,0.1-1.2v-8.4c0-0.6,0-0.9,0-1.1c-0.1-0.2-0.2-0.4-0.3-0.5c-0.2-0.2-0.6-0.3-1-0.3h-0.4
				v-0.3h10.7v3.8h-0.4c-0.2-0.9-0.4-1.6-0.8-2c-0.3-0.4-0.8-0.7-1.4-0.9c-0.4-0.1-1-0.2-2-0.2H592.8z"/>
			<path fill="#333333" d="M621.2,572.8v4.4h-0.4c-0.3-1.2-0.8-2-1.5-2.7c-0.8-0.6-1.6-0.9-2.6-0.9c-0.8,0-1.5,0.2-2.2,0.7
				c-0.7,0.5-1.2,1.1-1.5,1.8c-0.4,0.9-0.6,2-0.6,3.2c0,1.1,0.1,2.2,0.4,3.1c0.3,0.9,0.7,1.6,1.4,2.1c0.6,0.5,1.4,0.7,2.4,0.7
				c0.8,0,1.5-0.2,2.2-0.5c0.7-0.4,1.4-1,2.1-1.8v1.1c-0.7,0.7-1.5,1.3-2.2,1.6c-0.8,0.3-1.7,0.5-2.7,0.5c-1.4,0-2.6-0.3-3.6-0.8
				c-1.1-0.5-1.9-1.3-2.5-2.4c-0.6-1-0.9-2.1-0.9-3.3c0-1.2,0.3-2.4,1-3.5c0.6-1.1,1.5-1.9,2.6-2.5s2.2-0.9,3.5-0.9
				c0.9,0,1.8,0.2,2.8,0.6c0.6,0.2,0.9,0.3,1.1,0.3c0.2,0,0.4-0.1,0.5-0.2c0.1-0.1,0.2-0.4,0.3-0.7H621.2z"/>
			<path fill="#333333" d="M631.3,572.9c2-0.1,3.7,0.5,5,1.8c1.3,1.3,1.9,2.8,1.9,4.7c0,1.6-0.5,3-1.4,4.3c-1.3,1.6-3,2.5-5.3,2.5
				c-2.3,0-4.1-0.8-5.3-2.3c-1-1.2-1.5-2.7-1.5-4.4c0-1.9,0.6-3.5,1.9-4.7C627.8,573.4,629.4,572.8,631.3,572.9z M631.4,573.5
				c-1.2,0-2.1,0.6-2.7,1.8c-0.5,1-0.7,2.4-0.7,4.2c0,2.2,0.4,3.8,1.2,4.8c0.5,0.7,1.3,1.1,2.2,1.1c0.6,0,1.2-0.2,1.6-0.5
				c0.6-0.4,1-1,1.3-1.9c0.3-0.9,0.5-2,0.5-3.5c0-1.7-0.2-3-0.5-3.8c-0.3-0.8-0.7-1.4-1.2-1.8C632.6,573.7,632,573.5,631.4,573.5z"
				/>
			<path fill="#333333" d="M649.6,581.5l3.5-8.4h5.2v0.3h-0.4c-0.4,0-0.7,0.1-0.9,0.2c-0.2,0.1-0.3,0.2-0.4,0.4
				c-0.1,0.2-0.1,0.5-0.1,1.2v8.4c0,0.7,0,1.1,0.1,1.2c0.1,0.2,0.2,0.3,0.4,0.4c0.2,0.1,0.5,0.2,0.9,0.2h0.4v0.3h-6.7v-0.3h0.4
				c0.4,0,0.7-0.1,0.9-0.2c0.2-0.1,0.3-0.2,0.4-0.5c0.1-0.2,0.1-0.5,0.1-1.2v-9.5l-4.9,11.7h-0.2l-5-11.6v9c0,0.6,0,1,0,1.2
				c0.1,0.3,0.3,0.6,0.5,0.8c0.3,0.2,0.7,0.3,1.3,0.3v0.3h-4.4v-0.3h0.1c0.3,0,0.5,0,0.8-0.1c0.2-0.1,0.4-0.2,0.6-0.4
				c0.1-0.2,0.2-0.4,0.3-0.7c0-0.1,0-0.4,0-1v-8.1c0-0.6,0-1.1-0.1-1.2c-0.1-0.2-0.2-0.3-0.4-0.4c-0.2-0.1-0.5-0.2-0.9-0.2h-0.4
				v-0.3h5.2L649.6,581.5z"/>
			<path fill="#333333" d="M665.4,580.1v3.5c0,0.7,0,1.1,0.1,1.3c0.1,0.2,0.2,0.3,0.5,0.4c0.2,0.1,0.6,0.2,1.2,0.2v0.3h-6.5v-0.3
				c0.6,0,1-0.1,1.2-0.2c0.2-0.1,0.4-0.3,0.4-0.4c0.1-0.2,0.1-0.6,0.1-1.3v-8.3c0-0.7,0-1.1-0.1-1.3c-0.1-0.2-0.2-0.3-0.4-0.4
				c-0.2-0.1-0.6-0.2-1.2-0.2v-0.3h5.6c1.8,0,3.2,0.3,3.9,1c0.8,0.7,1.2,1.5,1.2,2.5c0,0.8-0.3,1.5-0.8,2.1c-0.5,0.6-1.2,1-2.1,1.2
				C667.9,580,666.8,580.1,665.4,580.1z M665.4,573.8v5.5c0.2,0,0.4,0,0.5,0c0.8,0,1.4-0.2,1.8-0.7c0.4-0.5,0.6-1.2,0.6-2.1
				c0-0.9-0.2-1.6-0.6-2.1c-0.4-0.4-1-0.7-1.9-0.7H665.4z"/>
			<path fill="#333333" d="M680.1,582.2h-4.5l-0.5,1.2c-0.2,0.4-0.3,0.8-0.3,1c0,0.4,0.1,0.6,0.4,0.8c0.2,0.1,0.6,0.2,1.3,0.2v0.3
				h-4.3v-0.3c0.5-0.1,0.8-0.3,1.1-0.6c0.3-0.3,0.7-1,1.1-1.9l4.6-10.2h0.2l4.6,10.5c0.4,1,0.8,1.6,1.1,1.9c0.2,0.2,0.5,0.3,0.9,0.3
				v0.3h-6.2v-0.3h0.3c0.5,0,0.8-0.1,1-0.2c0.1-0.1,0.2-0.2,0.2-0.4c0-0.1,0-0.2-0.1-0.3c0-0.1-0.1-0.3-0.3-0.7L680.1,582.2z
				 M679.8,581.5l-1.9-4.4l-2,4.4H679.8z"/>
			<path fill="#333333" d="M692.4,573.1l6.3,7.9v-5.5c0-0.8-0.1-1.3-0.3-1.6c-0.3-0.4-0.8-0.5-1.5-0.5v-0.3h4.2v0.3
				c-0.5,0.1-0.9,0.2-1.1,0.3c-0.2,0.1-0.3,0.3-0.4,0.5c-0.1,0.2-0.2,0.7-0.2,1.3v10.6H699l-8.6-10.6v8.1c0,0.7,0.2,1.2,0.5,1.5
				c0.3,0.3,0.7,0.4,1.2,0.4h0.3v0.3h-4.5v-0.3c0.7,0,1.2-0.2,1.5-0.4c0.3-0.3,0.4-0.8,0.4-1.4v-9l-0.3-0.3
				c-0.3-0.3-0.5-0.6-0.7-0.7c-0.2-0.1-0.5-0.2-0.9-0.2v-0.3H692.4z"/>
			<path fill="#333333" d="M716.8,573.1v0.3c-0.4,0.1-0.7,0.2-1,0.4c-0.3,0.3-0.8,1-1.5,2.2l-2.8,4.6v3.1c0,0.7,0,1.1,0.1,1.2
				c0.1,0.2,0.2,0.3,0.4,0.4c0.2,0.1,0.5,0.2,0.8,0.2h0.7v0.3h-7.2v-0.3h0.7c0.4,0,0.7-0.1,0.9-0.2c0.2-0.1,0.3-0.2,0.4-0.5
				c0.1-0.2,0.1-0.5,0.1-1.2v-2.6l-3-5.5c-0.6-1.1-1-1.7-1.3-1.9c-0.2-0.2-0.6-0.3-1-0.3v-0.3h6.1v0.3h-0.3c-0.4,0-0.6,0.1-0.8,0.2
				c-0.1,0.1-0.2,0.2-0.2,0.3c0,0.2,0.3,0.8,0.8,1.7l2.3,4.2l2.3-3.9c0.6-0.9,0.9-1.6,0.9-1.9c0-0.2-0.1-0.3-0.2-0.4
				c-0.2-0.2-0.6-0.3-1.2-0.3v-0.3H716.8z"/>
		</g>
		<g>
			<path fill="#333333" d="M321.7,599.1v5.3h0.4c0.6,0,1-0.1,1.4-0.3c0.4-0.2,0.7-0.5,0.9-0.9c0.2-0.4,0.4-0.9,0.5-1.6h0.3v6.4h-0.3
				c-0.1-1.2-0.4-2-1-2.4c-0.5-0.4-1.1-0.6-1.8-0.6h-0.4v3.9c0,0.7,0,1.1,0.1,1.2c0.1,0.2,0.2,0.3,0.4,0.4c0.2,0.1,0.5,0.2,0.9,0.2
				h0.4v0.3h-6.7v-0.3h0.4c0.4,0,0.7-0.1,0.9-0.2c0.2-0.1,0.3-0.2,0.4-0.5c0.1-0.2,0.1-0.5,0.1-1.2v-8.4c0-0.7,0-1.1-0.1-1.2
				c-0.1-0.2-0.2-0.3-0.4-0.4c-0.2-0.1-0.5-0.2-0.9-0.2h-0.4v-0.3h10.8v3.7h-0.4c-0.1-0.9-0.3-1.5-0.7-1.9c-0.4-0.4-0.9-0.7-1.6-0.9
				c-0.4-0.1-1.1-0.1-2.1-0.1H321.7z"/>
			<path fill="#333333" d="M337.2,598.2c2-0.1,3.7,0.5,5,1.8c1.3,1.3,1.9,2.8,1.9,4.7c0,1.6-0.5,3-1.4,4.3c-1.3,1.6-3,2.5-5.3,2.5
				c-2.3,0-4.1-0.8-5.3-2.3c-1-1.2-1.5-2.7-1.5-4.4c0-1.9,0.6-3.5,1.9-4.7C333.7,598.7,335.3,598.1,337.2,598.2z M337.3,598.8
				c-1.2,0-2.1,0.6-2.7,1.8c-0.5,1-0.7,2.4-0.7,4.2c0,2.2,0.4,3.8,1.2,4.8c0.5,0.7,1.3,1.1,2.2,1.1c0.6,0,1.2-0.2,1.6-0.5
				c0.6-0.4,1-1,1.3-1.9c0.3-0.9,0.5-2,0.5-3.5c0-1.7-0.2-3-0.5-3.8c-0.3-0.8-0.7-1.4-1.2-1.8C338.5,599,337.9,598.8,337.3,598.8z"
				/>
			<path fill="#333333" d="M351.4,605.3v3.6c0,0.7,0,1.1,0.1,1.3c0.1,0.2,0.2,0.3,0.4,0.4c0.2,0.1,0.6,0.2,1.2,0.2v0.3h-6.5v-0.3
				c0.6,0,1-0.1,1.2-0.2c0.2-0.1,0.4-0.3,0.4-0.4c0.1-0.2,0.1-0.6,0.1-1.3v-8.3c0-0.7,0-1.1-0.1-1.3c-0.1-0.2-0.2-0.3-0.4-0.4
				c-0.2-0.1-0.6-0.2-1.2-0.2v-0.3h5.9c1.5,0,2.7,0.1,3.4,0.3c0.7,0.2,1.3,0.6,1.8,1.2c0.5,0.6,0.7,1.2,0.7,2c0,0.9-0.3,1.7-1,2.3
				c-0.4,0.4-1,0.7-1.8,0.9l3.1,4.3c0.4,0.6,0.7,0.9,0.9,1c0.3,0.2,0.6,0.3,0.9,0.3v0.3h-4l-4.1-5.8H351.4z M351.4,599.1v5.6h0.5
				c0.9,0,1.5-0.1,2-0.2c0.4-0.2,0.8-0.4,1-0.9c0.2-0.4,0.4-1,0.4-1.6c0-1-0.2-1.7-0.7-2.2c-0.5-0.5-1.2-0.7-2.2-0.7H351.4z"/>
			<path fill="#333333" d="M380,598.4v3.5h-0.3c-0.2-0.8-0.4-1.4-0.7-1.7c-0.2-0.3-0.6-0.6-1-0.8c-0.2-0.1-0.7-0.2-1.3-0.2h-1v9.9
				c0,0.7,0,1.1,0.1,1.2c0.1,0.2,0.2,0.3,0.4,0.4s0.5,0.2,0.9,0.2h0.4v0.3h-6.7v-0.3h0.4c0.4,0,0.7-0.1,0.9-0.2
				c0.2-0.1,0.3-0.2,0.4-0.5c0.1-0.2,0.1-0.5,0.1-1.2v-9.9h-0.9c-0.9,0-1.5,0.2-1.9,0.5c-0.5,0.5-0.9,1.2-1,2.2h-0.4v-3.5H380z"/>
			<path fill="#333333" d="M387.5,605v4c0,0.7,0,1.1,0.1,1.2c0.1,0.2,0.2,0.3,0.4,0.4c0.2,0.1,0.5,0.2,0.9,0.2h0.4v0.3h-6.7v-0.3
				h0.4c0.4,0,0.7-0.1,0.9-0.2c0.2-0.1,0.3-0.2,0.4-0.5c0.1-0.2,0.1-0.5,0.1-1.2v-8.4c0-0.7,0-1.1-0.1-1.2c-0.1-0.2-0.2-0.3-0.4-0.4
				c-0.2-0.1-0.5-0.2-0.9-0.2h-0.4v-0.3h6.7v0.3h-0.4c-0.4,0-0.7,0.1-0.9,0.2c-0.2,0.1-0.3,0.2-0.4,0.5c-0.1,0.2-0.1,0.5-0.1,1.2
				v3.6h4.5v-3.6c0-0.7,0-1.1-0.1-1.2c-0.1-0.2-0.2-0.3-0.4-0.4c-0.2-0.1-0.5-0.2-0.9-0.2h-0.4v-0.3h6.7v0.3h-0.4
				c-0.4,0-0.7,0.1-0.9,0.2c-0.2,0.1-0.3,0.2-0.4,0.5c-0.1,0.2-0.1,0.5-0.1,1.2v8.4c0,0.7,0,1.1,0.1,1.2c0.1,0.2,0.2,0.3,0.4,0.4
				c0.2,0.1,0.5,0.2,0.9,0.2h0.4v0.3h-6.7v-0.3h0.4c0.4,0,0.7-0.1,0.9-0.2c0.2-0.1,0.3-0.2,0.4-0.5c0.1-0.2,0.1-0.5,0.1-1.2v-4
				H387.5z"/>
			<path fill="#333333" d="M404,599.1v5.2h0.3c0.8,0,1.4-0.3,1.8-0.8c0.4-0.5,0.6-1.3,0.7-2.3h0.4v6.7h-0.4
				c-0.1-0.7-0.2-1.3-0.5-1.8c-0.2-0.5-0.5-0.8-0.8-0.9c-0.3-0.2-0.8-0.2-1.4-0.2v3.6c0,0.7,0,1.1,0.1,1.3c0.1,0.2,0.2,0.3,0.3,0.4
				s0.4,0.2,0.8,0.2h0.8c1.2,0,2.2-0.3,2.9-0.8c0.7-0.6,1.2-1.4,1.6-2.5h0.3l-0.6,4.1h-11v-0.3h0.4c0.4,0,0.7-0.1,0.9-0.2
				c0.2-0.1,0.3-0.2,0.4-0.5c0.1-0.2,0.1-0.5,0.1-1.2v-8.4c0-0.6,0-0.9,0-1.1c-0.1-0.2-0.2-0.4-0.3-0.5c-0.2-0.2-0.6-0.3-1-0.3h-0.4
				v-0.3h10.7v3.8h-0.4c-0.2-0.9-0.4-1.6-0.8-2c-0.3-0.4-0.8-0.7-1.4-0.9c-0.4-0.1-1-0.2-2-0.2H404z"/>
			<path fill="#333333" d="M428.8,606.8l3.5-8.4h5.2v0.3H437c-0.4,0-0.7,0.1-0.9,0.2c-0.2,0.1-0.3,0.2-0.4,0.4
				c-0.1,0.2-0.1,0.5-0.1,1.2v8.4c0,0.7,0,1.1,0.1,1.2c0.1,0.2,0.2,0.3,0.4,0.4c0.2,0.1,0.5,0.2,0.9,0.2h0.4v0.3h-6.7v-0.3h0.4
				c0.4,0,0.7-0.1,0.9-0.2c0.2-0.1,0.3-0.2,0.4-0.5c0.1-0.2,0.1-0.5,0.1-1.2v-9.5l-4.9,11.7h-0.2l-5-11.6v9c0,0.6,0,1,0,1.2
				c0.1,0.3,0.3,0.6,0.5,0.8c0.3,0.2,0.7,0.3,1.3,0.3v0.3H420v-0.3h0.1c0.3,0,0.5,0,0.8-0.1c0.2-0.1,0.4-0.2,0.6-0.4
				c0.1-0.2,0.2-0.4,0.3-0.7c0-0.1,0-0.4,0-1v-8.1c0-0.6,0-1.1-0.1-1.2c-0.1-0.2-0.2-0.3-0.4-0.4c-0.2-0.1-0.5-0.2-0.9-0.2H420v-0.3
				h5.2L428.8,606.8z"/>
			<path fill="#333333" d="M444.6,599.1v5.2h0.3c0.8,0,1.4-0.3,1.8-0.8c0.4-0.5,0.6-1.3,0.7-2.3h0.4v6.7h-0.4
				c-0.1-0.7-0.2-1.3-0.5-1.8c-0.2-0.5-0.5-0.8-0.8-0.9c-0.3-0.2-0.8-0.2-1.4-0.2v3.6c0,0.7,0,1.1,0.1,1.3c0.1,0.2,0.2,0.3,0.3,0.4
				s0.4,0.2,0.8,0.2h0.8c1.2,0,2.2-0.3,2.9-0.8c0.7-0.6,1.2-1.4,1.6-2.5h0.3l-0.6,4.1h-11v-0.3h0.4c0.4,0,0.7-0.1,0.9-0.2
				c0.2-0.1,0.3-0.2,0.4-0.5c0.1-0.2,0.1-0.5,0.1-1.2v-8.4c0-0.6,0-0.9,0-1.1c-0.1-0.2-0.2-0.4-0.3-0.5c-0.2-0.2-0.6-0.3-1-0.3h-0.4
				v-0.3h10.7v3.8h-0.4c-0.2-0.9-0.4-1.6-0.8-2c-0.3-0.4-0.8-0.7-1.4-0.9c-0.4-0.1-1-0.2-2-0.2H444.6z"/>
			<path fill="#333333" d="M454,611.2v-0.3h0.4c0.4,0,0.7-0.1,0.9-0.2c0.2-0.1,0.3-0.3,0.4-0.5c0.1-0.1,0.1-0.5,0.1-1.2v-8.4
				c0-0.7,0-1.1-0.1-1.2c-0.1-0.2-0.2-0.3-0.4-0.4c-0.2-0.1-0.5-0.2-0.9-0.2H454v-0.3h5.7c1.5,0,2.8,0.2,3.7,0.6
				c1.1,0.5,2,1.3,2.6,2.3c0.6,1,0.9,2.2,0.9,3.5c0,0.9-0.1,1.7-0.4,2.5c-0.3,0.8-0.7,1.4-1.1,1.9c-0.5,0.5-1,0.9-1.6,1.2
				c-0.6,0.3-1.3,0.5-2.2,0.7c-0.4,0.1-1,0.1-1.8,0.1H454z M458.9,599.1v10c0,0.5,0,0.9,0.1,1c0,0.1,0.1,0.2,0.3,0.3
				c0.2,0.1,0.4,0.1,0.7,0.1c1,0,1.8-0.4,2.4-1.1c0.8-1,1.1-2.5,1.1-4.5c0-1.6-0.3-3-0.8-3.9c-0.4-0.8-0.9-1.3-1.6-1.6
				C460.7,599.2,459.9,599.1,458.9,599.1z"/>
			<path fill="#333333" d="M476.3,610.8v0.3h-6.7v-0.3h0.4c0.4,0,0.7-0.1,0.9-0.2c0.2-0.1,0.3-0.2,0.4-0.5c0.1-0.2,0.1-0.5,0.1-1.2
				v-8.4c0-0.7,0-1.1-0.1-1.2c-0.1-0.2-0.2-0.3-0.4-0.4c-0.2-0.1-0.5-0.2-0.9-0.2h-0.4v-0.3h6.7v0.3h-0.4c-0.4,0-0.7,0.1-0.9,0.2
				c-0.2,0.1-0.3,0.2-0.4,0.5c-0.1,0.2-0.1,0.5-0.1,1.2v8.4c0,0.7,0,1.1,0.1,1.2c0.1,0.2,0.2,0.3,0.4,0.4c0.2,0.1,0.5,0.2,0.9,0.2
				H476.3z"/>
			<path fill="#333333" d="M491.2,598.1v4.4h-0.4c-0.3-1.2-0.8-2-1.5-2.7c-0.8-0.6-1.6-0.9-2.6-0.9c-0.8,0-1.5,0.2-2.2,0.7
				c-0.7,0.5-1.2,1.1-1.5,1.8c-0.4,0.9-0.6,2-0.6,3.2c0,1.1,0.1,2.2,0.4,3.1c0.3,0.9,0.7,1.6,1.4,2.1s1.4,0.7,2.4,0.7
				c0.8,0,1.5-0.2,2.2-0.5c0.7-0.4,1.4-1,2.1-1.8v1.1c-0.7,0.7-1.5,1.3-2.2,1.6c-0.8,0.3-1.7,0.5-2.7,0.5c-1.4,0-2.6-0.3-3.6-0.8
				c-1.1-0.5-1.9-1.3-2.5-2.4c-0.6-1-0.9-2.1-0.9-3.3c0-1.2,0.3-2.4,1-3.5c0.6-1.1,1.5-1.9,2.6-2.5s2.2-0.9,3.5-0.9
				c0.9,0,1.8,0.2,2.8,0.6c0.6,0.2,0.9,0.3,1.1,0.3c0.2,0,0.4-0.1,0.5-0.2c0.1-0.1,0.2-0.4,0.3-0.7H491.2z"/>
			<path fill="#333333" d="M501.8,607.5h-4.5l-0.5,1.2c-0.2,0.4-0.3,0.8-0.3,1c0,0.4,0.1,0.6,0.4,0.8c0.2,0.1,0.6,0.2,1.3,0.2v0.3
				h-4.3v-0.3c0.5-0.1,0.8-0.3,1.1-0.6c0.3-0.3,0.7-1,1.1-1.9l4.6-10.2h0.2l4.6,10.5c0.4,1,0.8,1.6,1.1,1.9c0.2,0.2,0.5,0.3,0.9,0.3
				v0.3h-6.2v-0.3h0.3c0.5,0,0.8-0.1,1-0.2c0.1-0.1,0.2-0.2,0.2-0.4c0-0.1,0-0.2-0.1-0.3c0-0.1-0.1-0.3-0.3-0.7L501.8,607.5z
				 M501.5,606.8l-1.9-4.4l-2,4.4H501.5z"/>
			<path fill="#333333" d="M521.5,606.7l-0.5,4.5h-11.4v-0.3h0.4c0.4,0,0.7-0.1,0.9-0.2c0.2-0.1,0.3-0.2,0.4-0.5
				c0.1-0.2,0.1-0.5,0.1-1.2v-8.4c0-0.7,0-1.1-0.1-1.2c-0.1-0.2-0.2-0.3-0.4-0.4c-0.2-0.1-0.5-0.2-0.9-0.2h-0.4v-0.3h6.8v0.3h-0.6
				c-0.4,0-0.7,0.1-0.9,0.2c-0.2,0.1-0.3,0.2-0.4,0.5c-0.1,0.2-0.1,0.5-0.1,1.2v8.1c0,0.7,0,1.1,0.1,1.2c0.1,0.2,0.2,0.3,0.4,0.4
				c0.2,0.1,0.5,0.1,1.1,0.1h1.1c0.7,0,1.2-0.1,1.7-0.4c0.5-0.2,0.8-0.6,1.2-1.1c0.3-0.5,0.6-1.3,0.9-2.3H521.5z"/>
			<path fill="#333333" d="M541.9,598.1v4.4h-0.4c-0.3-1.2-0.8-2-1.5-2.7c-0.8-0.6-1.6-0.9-2.6-0.9c-0.8,0-1.5,0.2-2.2,0.7
				c-0.7,0.5-1.2,1.1-1.5,1.8c-0.4,0.9-0.6,2-0.6,3.2c0,1.1,0.1,2.2,0.4,3.1c0.3,0.9,0.7,1.6,1.4,2.1c0.6,0.5,1.4,0.7,2.4,0.7
				c0.8,0,1.5-0.2,2.2-0.5c0.7-0.4,1.4-1,2.1-1.8v1.1c-0.7,0.7-1.5,1.3-2.2,1.6c-0.8,0.3-1.7,0.5-2.7,0.5c-1.4,0-2.6-0.3-3.6-0.8
				c-1.1-0.5-1.9-1.3-2.5-2.4c-0.6-1-0.9-2.1-0.9-3.3c0-1.2,0.3-2.4,1-3.5c0.6-1.1,1.5-1.9,2.6-2.5s2.2-0.9,3.5-0.9
				c0.9,0,1.8,0.2,2.8,0.6c0.6,0.2,0.9,0.3,1.1,0.3c0.2,0,0.4-0.1,0.5-0.2c0.1-0.1,0.2-0.4,0.3-0.7H541.9z"/>
			<path fill="#333333" d="M551.9,598.2c2-0.1,3.7,0.5,5,1.8c1.3,1.3,1.9,2.8,1.9,4.7c0,1.6-0.5,3-1.4,4.3c-1.3,1.6-3,2.5-5.3,2.5
				c-2.3,0-4.1-0.8-5.3-2.3c-1-1.2-1.5-2.7-1.5-4.4c0-1.9,0.6-3.5,1.9-4.7C548.5,598.7,550.1,598.1,551.9,598.2z M552.1,598.8
				c-1.2,0-2.1,0.6-2.7,1.8c-0.5,1-0.7,2.4-0.7,4.2c0,2.2,0.4,3.8,1.2,4.8c0.5,0.7,1.3,1.1,2.2,1.1c0.6,0,1.2-0.2,1.6-0.5
				c0.6-0.4,1-1,1.3-1.9c0.3-0.9,0.5-2,0.5-3.5c0-1.7-0.2-3-0.5-3.8c-0.3-0.8-0.7-1.4-1.2-1.8C553.3,599,552.7,598.8,552.1,598.8z"
				/>
			<path fill="#333333" d="M570.3,606.8l3.5-8.4h5.2v0.3h-0.4c-0.4,0-0.7,0.1-0.9,0.2c-0.2,0.1-0.3,0.2-0.4,0.4
				c-0.1,0.2-0.1,0.5-0.1,1.2v8.4c0,0.7,0,1.1,0.1,1.2c0.1,0.2,0.2,0.3,0.4,0.4s0.5,0.2,0.9,0.2h0.4v0.3h-6.7v-0.3h0.4
				c0.4,0,0.7-0.1,0.9-0.2c0.2-0.1,0.3-0.2,0.4-0.5c0.1-0.2,0.1-0.5,0.1-1.2v-9.5l-4.9,11.7h-0.2l-5-11.6v9c0,0.6,0,1,0,1.2
				c0.1,0.3,0.3,0.6,0.5,0.8c0.3,0.2,0.7,0.3,1.3,0.3v0.3h-4.4v-0.3h0.1c0.3,0,0.5,0,0.8-0.1c0.2-0.1,0.4-0.2,0.6-0.4
				s0.2-0.4,0.3-0.7c0-0.1,0-0.4,0-1v-8.1c0-0.6,0-1.1-0.1-1.2c-0.1-0.2-0.2-0.3-0.4-0.4c-0.2-0.1-0.5-0.2-0.9-0.2h-0.4v-0.3h5.2
				L570.3,606.8z"/>
			<path fill="#333333" d="M590,606.8l3.5-8.4h5.2v0.3h-0.4c-0.4,0-0.7,0.1-0.9,0.2c-0.2,0.1-0.3,0.2-0.4,0.4
				c-0.1,0.2-0.1,0.5-0.1,1.2v8.4c0,0.7,0,1.1,0.1,1.2c0.1,0.2,0.2,0.3,0.4,0.4s0.5,0.2,0.9,0.2h0.4v0.3H592v-0.3h0.4
				c0.4,0,0.7-0.1,0.9-0.2c0.2-0.1,0.3-0.2,0.4-0.5c0.1-0.2,0.1-0.5,0.1-1.2v-9.5l-4.9,11.7h-0.2l-5-11.6v9c0,0.6,0,1,0,1.2
				c0.1,0.3,0.3,0.6,0.5,0.8c0.3,0.2,0.7,0.3,1.3,0.3v0.3h-4.4v-0.3h0.1c0.3,0,0.5,0,0.8-0.1c0.2-0.1,0.4-0.2,0.6-0.4
				s0.2-0.4,0.3-0.7c0-0.1,0-0.4,0-1v-8.1c0-0.6,0-1.1-0.1-1.2c-0.1-0.2-0.2-0.3-0.4-0.4c-0.2-0.1-0.5-0.2-0.9-0.2h-0.4v-0.3h5.2
				L590,606.8z"/>
			<path fill="#333333" d="M601,598.4h6.6v0.3h-0.3c-0.5,0-0.8,0.1-1,0.2c-0.2,0.1-0.3,0.2-0.4,0.4c-0.1,0.2-0.1,0.6-0.1,1.4v6.3
				c0,1.1,0.1,1.9,0.3,2.3c0.2,0.4,0.5,0.7,0.9,0.9c0.4,0.2,0.9,0.4,1.5,0.4c0.7,0,1.3-0.2,1.8-0.5c0.5-0.3,0.9-0.7,1.1-1.3
				c0.2-0.5,0.4-1.5,0.4-2.9v-5.2c0-0.6-0.1-1-0.2-1.2c-0.1-0.2-0.3-0.4-0.5-0.5c-0.3-0.1-0.7-0.2-1.2-0.2v-0.3h4.4v0.3h-0.3
				c-0.4,0-0.7,0.1-0.9,0.2c-0.2,0.1-0.4,0.4-0.5,0.7c-0.1,0.2-0.1,0.6-0.1,1.1v4.9c0,1.5-0.1,2.6-0.3,3.3s-0.7,1.3-1.4,1.8
				c-0.8,0.6-1.8,0.8-3.1,0.8c-1.1,0-2-0.1-2.6-0.4c-0.8-0.4-1.4-0.9-1.7-1.5c-0.3-0.6-0.5-1.5-0.5-2.5v-6.3c0-0.7,0-1.2-0.1-1.4
				c-0.1-0.2-0.2-0.3-0.4-0.4s-0.6-0.2-1.1-0.2V598.4z"/>
			<path fill="#333333" d="M620.9,598.4l6.3,7.9v-5.5c0-0.8-0.1-1.3-0.3-1.6c-0.3-0.4-0.8-0.5-1.5-0.5v-0.3h4.2v0.3
				c-0.5,0.1-0.9,0.2-1.1,0.3c-0.2,0.1-0.3,0.3-0.4,0.5c-0.1,0.2-0.2,0.7-0.2,1.3v10.6h-0.3l-8.6-10.6v8.1c0,0.7,0.2,1.2,0.5,1.5
				c0.3,0.3,0.7,0.4,1.2,0.4h0.3v0.3h-4.5v-0.3c0.7,0,1.2-0.2,1.5-0.4c0.3-0.3,0.4-0.8,0.4-1.4v-9l-0.3-0.3
				c-0.3-0.3-0.5-0.6-0.7-0.7c-0.2-0.1-0.5-0.2-0.9-0.2v-0.3H620.9z"/>
			<path fill="#333333" d="M638.6,610.8v0.3H632v-0.3h0.4c0.4,0,0.7-0.1,0.9-0.2c0.2-0.1,0.3-0.2,0.4-0.5c0.1-0.2,0.1-0.5,0.1-1.2
				v-8.4c0-0.7,0-1.1-0.1-1.2c-0.1-0.2-0.2-0.3-0.4-0.4c-0.2-0.1-0.5-0.2-0.9-0.2H632v-0.3h6.7v0.3h-0.4c-0.4,0-0.7,0.1-0.9,0.2
				c-0.2,0.1-0.3,0.2-0.4,0.5c-0.1,0.2-0.1,0.5-0.1,1.2v8.4c0,0.7,0,1.1,0.1,1.2c0.1,0.2,0.2,0.3,0.4,0.4s0.5,0.2,0.9,0.2H638.6z"/>
			<path fill="#333333" d="M652.8,598.4v3.5h-0.3c-0.2-0.8-0.4-1.4-0.7-1.7c-0.2-0.3-0.6-0.6-1-0.8c-0.2-0.1-0.7-0.2-1.3-0.2h-1v9.9
				c0,0.7,0,1.1,0.1,1.2c0.1,0.2,0.2,0.3,0.4,0.4s0.5,0.2,0.9,0.2h0.4v0.3h-6.7v-0.3h0.4c0.4,0,0.7-0.1,0.9-0.2
				c0.2-0.1,0.3-0.2,0.4-0.5c0.1-0.2,0.1-0.5,0.1-1.2v-9.9h-0.9c-0.9,0-1.5,0.2-1.9,0.5c-0.5,0.5-0.9,1.2-1,2.2h-0.4v-3.5H652.8z"/>
			<path fill="#333333" d="M668.8,598.4v0.3c-0.4,0.1-0.7,0.2-1,0.4c-0.3,0.3-0.8,1-1.5,2.2l-2.8,4.6v3.1c0,0.7,0,1.1,0.1,1.2
				c0.1,0.2,0.2,0.3,0.4,0.4c0.2,0.1,0.5,0.2,0.8,0.2h0.7v0.3h-7.2v-0.3h0.7c0.4,0,0.7-0.1,0.9-0.2c0.2-0.1,0.3-0.2,0.4-0.5
				c0.1-0.2,0.1-0.5,0.1-1.2v-2.6l-3-5.5c-0.6-1.1-1-1.7-1.3-1.9c-0.2-0.2-0.6-0.3-1-0.3v-0.3h6.1v0.3h-0.3c-0.4,0-0.6,0.1-0.8,0.2
				c-0.1,0.1-0.2,0.2-0.2,0.3c0,0.2,0.3,0.8,0.8,1.7l2.3,4.2l2.3-3.9c0.6-0.9,0.9-1.6,0.9-1.9c0-0.2-0.1-0.3-0.2-0.4
				c-0.2-0.2-0.6-0.3-1.2-0.3v-0.3H668.8z"/>
		</g>
	</g>
</g>
<g id="Guides">
</g>
</svg>
