<?xml version="1.0" encoding="utf-8"?>
<!-- Generator: Adobe Illustrator 19.2.1, SVG Export Plug-In . SVG Version: 6.00 Build 0)  -->
<svg version="1.1" id="Layer_1" xmlns="http://www.w3.org/2000/svg" xmlns:xlink="http://www.w3.org/1999/xlink" x="0px" y="0px"
	 viewBox="0 0 150 150" style="enable-background:new 0 0 150 150;" xml:space="preserve">
<style type="text/css">
	.st0{fill:#2F2D2D;}
</style>
<g>
	<path class="st0" d="M32.2,77.1c0,3,1.7,3.7,4.5,3.7h5.1c3.1,0,3.7-1.3,3.7-3.1v-1h-3.1c0,1.2-0.4,1.4-1.8,1.4h-3.4
		c-1.5,0-1.8-0.5-1.8-2V75c0-1.2,0.3-2,2-2h3.4c0.9,0,1.5,0.2,1.5,1v0.3h3.1c0-2.9-0.6-3.9-5-3.9h-3.7c-2.8,0-4.5,0.7-4.5,3.7V77.1
		L32.2,77.1z"/>
	<path class="st0" d="M49.4,75v1c0,1.5,0.3,2,1.8,2h4c1.5,0,1.8-0.5,1.8-2v-1c0-1.2-0.3-2-2-2h-3.7C49.7,72.9,49.4,73.7,49.4,75
		L49.4,75z M46.2,77.1V74c0-3,1.7-3.7,4.5-3.7h5c2.9,0,4.5,0.7,4.5,3.7v3.1c0,3-1.7,3.7-4.5,3.7h-5C47.9,80.7,46.2,80.1,46.2,77.1
		L46.2,77.1z"/>
	<path class="st0" d="M60.8,77.1c0,3,1.8,3.7,4.6,3.7h3.8c3.5,0,5-0.1,5-3.1v-2.9h-7v2.1h3.9v0.3c0,1-0.8,1.2-1.6,1.2h-3.4
		c-1.6,0-2-0.4-2-2.2V75c0-1.8,0.4-2.1,2-2.1h3.4c1,0,1.5,0.1,1.5,1.1h3.1v-0.3c0-2-0.4-3.3-4-3.3h-4.8c-2.9,0-4.5,0.7-4.5,3.7V77.1
		L60.8,77.1z"/>
	<polygon class="st0" points="75.1,80.7 78.2,80.7 78.2,73.2 78.2,73.2 84.1,80.7 89,80.7 89,70.3 85.9,70.3 85.9,77.8 85.9,77.8 
		80,70.3 75.1,70.3 	"/>
	<polygon class="st0" points="90.2,80.7 101.6,80.7 101.6,78.2 93.3,78.2 93.3,76.6 101,76.6 101,74.4 93.3,74.4 93.3,72.8 
		101.4,72.8 101.4,70.3 90.2,70.3 	"/>
	<polygon class="st0" points="102,80.7 106.3,80.7 109.6,76.9 113,80.7 117.2,80.7 112.2,75.5 116.9,70.3 112.9,70.3 109.6,73.9 
		106.4,70.3 102.4,70.3 107.1,75.5 	"/>
</g>
</svg>
