<?xml version="1.0" encoding="UTF-8" standalone="no"?>
<svg width="2560px" height="1422px" viewBox="0 0 2560 1422" version="1.1" xmlns="http://www.w3.org/2000/svg" xmlns:xlink="http://www.w3.org/1999/xlink">
    <!-- Generator: Sketch 50.2 (55047) - http://www.bohemiancoding.com/sketch -->
    <title>conductor-thumb</title>
    <desc>Created with Sketch.</desc>
    <defs>
        <rect id="path-1" x="0" y="0" width="2560" height="1422"></rect>
        <filter x="-0.4%" y="-0.7%" width="100.8%" height="101.4%" filterUnits="objectBoundingBox" id="filter-2">
            <feGaussianBlur stdDeviation="10" in="SourceAlpha" result="shadowBlurInner1"></feGaussianBlur>
            <feOffset dx="0" dy="0" in="shadowBlurInner1" result="shadowOffsetInner1"></feOffset>
            <feComposite in="shadowOffsetInner1" in2="SourceAlpha" operator="arithmetic" k2="-1" k3="1" result="shadowInnerInner1"></feComposite>
            <feColorMatrix values="0 0 0 0 0   0 0 0 0 0   0 0 0 0 0  0 0 0 0.5 0" type="matrix" in="shadowInnerInner1"></feColorMatrix>
        </filter>
    </defs>
    <g id="conductor-thumb" stroke="none" stroke-width="1" fill="none" fill-rule="evenodd">
        <g id="Rectangle-2">
            <use fill="#FFFFFF" fill-rule="evenodd" xlink:href="#path-1"></use>
            <use fill="black" fill-opacity="1" filter="url(#filter-2)" xlink:href="#path-1"></use>
        </g>
        <g id="Group" transform="translate(680.000000, 628.000000)">
            <path d="M962.148102,165.210007 C952.574929,165.210007 945.085229,162.46148 939.885806,157.041546 C934.697186,151.630867 932.06738,143.928206 932.06738,134.147956 L932.06738,69.008496 L920.403016,69.008496 C920.282638,69.008496 920.168433,68.9976993 920.054228,68.9853603 L914.620221,68.9745636 L914.620221,50.2068476 L933.252644,50.2068476 L933.252644,11.5238827 L957.42865,11.5238827 L957.481122,50.2670005 L988.899898,50.2670005 L988.899898,69.008496 L957.481122,69.008496 L957.481122,132.485267 C957.481122,136.333513 958.419457,139.293346 960.271433,141.279935 C962.134212,143.280406 964.563388,144.252107 967.700944,144.252107 C969.452605,144.252107 970.969682,144.023834 972.212049,143.575001 C973.494543,143.113828 974.610358,142.609469 975.531717,142.078889 C976.460791,141.545225 977.283377,141.034696 977.979412,140.5581 C978.808171,139.990503 979.64619,139.702077 980.467233,139.702077 C982.092342,139.702077 983.401072,140.578151 984.356383,142.30562 L991.788981,154.495072 L991.302837,154.922312 C987.541782,158.229181 983.047653,160.800334 977.945459,162.563278 C972.850981,164.320052 967.53581,165.210007 962.148102,165.210007 Z M1133.79543,161.893883 L1156.11945,161.893883 L1156.11945,92.1689187 L1156.17193,92.033189 C1157.5177,88.6060141 1158.99156,85.508909 1160.55648,82.8282474 C1162.14455,80.1059415 1164.00579,77.7676889 1166.08926,75.8798122 C1168.18817,73.9718844 1170.58648,72.5019935 1173.21782,71.5102412 C1175.84917,70.5215737 1178.90802,70.0202993 1182.31566,70.0202993 C1184.65069,70.0202993 1186.90547,70.228521 1189.01827,70.6449644 C1192.6682,71.3606301 1194.58346,71.5102412 1195.67304,70.675812 C1196.15146,70.3102672 1196.52494,69.5791777 1196.77805,68.5041368 L1198.38309,51.1045145 C1196.84904,50.1667456 1195.1159,49.4449104 1193.22688,48.955975 C1191.14804,48.4207681 1188.89789,48.1477663 1186.53816,48.1477663 C1179.72135,48.1477663 1173.79502,50.1621185 1168.92587,54.1337546 C1164.00424,58.1470351 1159.74161,63.7535972 1156.25218,70.7992027 L1155.05457,73.2145744 L1153.34766,55.7733077 C1153.01276,53.7095993 1152.4155,52.2304541 1151.58211,51.4284149 C1150.77187,50.6510539 1149.19769,50.2562039 1146.90124,50.2562039 L1133.79543,50.2562039 L1133.79543,161.893883 Z M1157.66277,163.436266 L1132.25211,163.436266 L1132.25211,48.7138209 L1146.90124,48.7138209 C1149.6468,48.7138209 1151.52655,49.2382311 1152.65163,50.3163568 C1153.74893,51.3698044 1154.47583,53.0895614 1154.87709,55.5743403 L1156.0747,67.7915559 C1159.42678,61.6266511 1163.41315,56.6385846 1167.94895,52.9368655 C1173.10208,48.7369566 1179.35713,46.6053834 1186.53816,46.6053834 C1189.02753,46.6053834 1191.40732,46.893809 1193.61271,47.4629483 C1195.82737,48.0351724 1197.84756,48.9081611 1199.61466,50.0587788 L1200.00512,50.3117296 L1198.29667,68.7509181 C1197.93708,70.3071825 1197.39074,71.3035619 1196.61137,71.9004641 C1195.84743,72.4850272 1194.84891,72.7827072 1193.64203,72.7827072 C1192.47066,72.7827072 1190.86098,72.5775702 1188.72041,72.1564997 C1186.70484,71.763192 1184.55192,71.5626822 1182.31566,71.5626822 C1179.09631,71.5626822 1176.21803,72.0300243 1173.76261,72.9539117 C1171.31492,73.8777991 1169.08174,75.2443504 1167.12637,77.0211756 C1165.16018,78.8041703 1163.39926,81.0205746 1161.88836,83.6056085 C1160.38672,86.181388 1158.96532,89.1612719 1157.66277,92.4619715 L1157.66277,163.436266 Z M1155.56078,70.4567936 C1159.11348,63.281628 1163.40698,57.6395911 1168.43664,53.5353101 C1173.47247,49.4294866 1179.5022,47.3765748 1186.53816,47.3765748 C1188.97968,47.3765748 1191.27151,47.6557462 1193.4198,48.2094617 C1195.56346,48.7631771 1197.49106,49.5976063 1199.19488,50.7050373 L1197.5281,68.6815108 C1197.23178,69.9400953 1196.76879,70.8084569 1196.14066,71.2896804 C1195.51099,71.7709039 1194.67605,72.0115157 1193.64203,72.0115157 C1192.53239,72.0115157 1190.93969,71.8079211 1188.87011,71.400732 C1186.7959,70.9950853 1184.60902,70.7914907 1182.31566,70.7914907 C1178.98519,70.7914907 1176.04517,71.2711718 1173.49099,72.2320764 C1170.93526,73.1945234 1168.6419,74.6011767 1166.60781,76.4504939 C1164.5691,78.2982687 1162.77577,80.5547749 1161.22319,83.216928 C1159.66908,85.8806233 1158.22453,88.916033 1156.89111,92.3154451 L1156.89111,162.665075 L1133.02377,162.665075 L1133.02377,49.4850124 L1146.90124,49.4850124 C1149.41376,49.4850124 1151.15462,49.9492696 1152.11764,50.873157 C1153.08067,51.7985868 1153.74584,53.4072923 1154.11623,55.697731 L1155.56078,70.4567936 Z M1055.19138,67.0111101 C1045.13824,67.0111101 1037.57755,70.3966407 1032.72383,77.0689894 C1027.80992,83.8184573 1025.31901,93.5771144 1025.31901,106.076586 C1025.31901,118.572973 1027.80837,128.294613 1032.72074,134.968504 C1037.57446,141.569903 1045.13515,144.916874 1055.19138,144.916874 C1065.09946,144.916874 1072.56601,141.569903 1077.38423,134.970046 C1082.25802,128.297697 1084.72886,118.576058 1084.72886,106.076586 C1084.72886,93.575572 1082.25647,83.8153725 1077.38269,77.067447 C1072.56138,70.3950983 1065.09637,67.0111101 1055.19138,67.0111101 Z M1055.19138,146.459257 C1044.6166,146.459257 1036.63767,142.900979 1031.47683,135.881595 C1026.36692,128.937786 1023.7757,118.909212 1023.7757,106.076586 C1023.7757,93.2439597 1026.36692,83.1799108 1031.47529,76.1620682 C1036.63767,69.0655642 1044.6166,65.4702695 1055.19138,65.4702695 C1065.61955,65.4702695 1073.50743,69.0671066 1078.63432,76.1636106 C1083.70256,83.1814531 1086.27217,93.2439597 1086.27217,106.076586 C1086.27217,118.910755 1083.70101,128.937786 1078.63277,135.880052 C1073.50743,142.900979 1065.61955,146.459257 1055.19138,146.459257 Z M1055.19138,48.4809211 C1046.89762,48.4809211 1039.31841,49.8443876 1032.66518,52.5312187 C1026.02585,55.2149651 1020.27083,59.0724649 1015.55909,63.9988361 C1010.84427,68.9267497 1007.16501,74.9944843 1004.62318,82.037005 C1002.07362,89.0964918 1000.78187,97.147731 1000.78187,105.963992 C1000.78187,114.783338 1002.07362,122.834577 1004.62318,129.890979 C1007.16347,136.9335 1010.84427,143.021285 1015.56064,147.986216 C1020.27392,152.951147 1026.02893,156.828698 1032.66518,159.507817 C1039.31378,162.194648 1046.89299,163.558115 1055.19138,163.558115 C1063.4157,163.558115 1070.95633,162.194648 1077.60647,159.507817 C1084.24426,156.828698 1089.97921,152.952689 1094.65545,147.987758 C1099.33015,143.025912 1102.99243,136.936584 1105.53736,129.890979 C1108.08691,122.837662 1109.37866,114.787965 1109.37866,105.963992 C1109.37866,97.1446462 1108.08691,89.0934071 1105.53736,82.037005 C1102.99089,74.9913996 1099.33015,68.9221226 1094.657,63.9957514 C1089.9823,59.0724649 1084.2458,55.2149651 1077.60647,52.5312187 C1070.9517,49.8443876 1063.41107,48.4809211 1055.19138,48.4809211 Z M1055.19138,165.100498 C1046.69544,165.100498 1038.92023,163.700014 1032.08644,160.939148 C1025.24339,158.175198 1019.30626,154.174257 1014.44174,149.047376 C1009.57875,143.928206 1005.78683,137.656877 1003.16937,130.415389 C1000.56272,123.187783 999.238555,114.962254 999.238555,105.963992 C999.238555,96.9688145 1000.56272,88.7417438 1003.16937,81.5125948 C1005.78838,74.2695643 1009.5803,68.0182862 1014.44328,62.9330495 C1019.30626,57.8478128 1025.24339,53.8669224 1032.08644,51.0998873 C1038.92486,48.3390218 1046.69853,46.9385381 1055.19138,46.9385381 C1063.61016,46.9385381 1071.34525,48.3390218 1078.18521,51.0998873 C1085.02981,53.8684648 1090.94841,57.8493552 1095.7759,62.9361343 C1100.59721,68.0167438 1104.37061,74.2664796 1106.99116,81.5125948 C1109.59781,88.7371166 1110.92198,96.9641874 1110.92198,105.963992 C1110.92198,114.966881 1109.59781,123.19241 1106.99116,130.415389 C1104.37215,137.659962 1100.59875,143.929749 1095.77899,149.045833 C1090.94841,154.172714 1085.02826,158.173656 1078.18521,160.939148 C1071.34988,163.700014 1063.61325,165.100498 1055.19138,165.100498 Z M1055.19138,145.688065 C1065.40503,145.688065 1073.01202,142.26706 1078.00927,135.425049 C1083.00498,128.583038 1085.50052,118.799703 1085.50052,106.076586 C1085.50052,93.3534688 1083.00498,83.5315741 1078.00927,76.6155288 C1073.01202,69.701026 1065.40503,66.2399186 1055.19138,66.2399186 C1044.82803,66.2399186 1037.12999,69.701026 1032.09878,76.6155288 C1027.0645,83.5315741 1024.54735,93.3534688 1024.54735,106.076586 C1024.54735,118.799703 1027.0645,128.583038 1032.09878,135.425049 C1037.12999,142.26706 1044.82803,145.688065 1055.19138,145.688065 Z M1055.19138,47.7097296 C1063.55306,47.7097296 1071.12301,49.0793656 1077.89507,51.815553 C1084.66867,54.5532828 1090.44375,58.4385455 1095.21722,63.466714 C1099.99069,68.4964249 1103.66995,74.6011767 1106.26426,81.7747999 C1108.85548,88.9499655 1110.15032,97.015086 1110.15032,105.963992 C1110.15032,114.91444 1108.85548,122.981103 1106.26426,130.153184 C1103.66995,137.32835 1099.99069,143.450068 1095.21722,148.516796 C1090.44375,153.583524 1084.66867,157.488838 1077.89507,160.223483 C1071.12301,162.961212 1063.55306,164.329306 1055.19138,164.329306 C1046.75255,164.329306 1039.14864,162.961212 1032.37504,160.223483 C1025.60298,157.488838 1019.81092,153.583524 1015.00042,148.516796 C1010.18836,143.450068 1006.4875,137.32835 1003.89627,130.153184 C1001.30659,122.981103 1000.01021,114.91444 1000.01021,105.963992 C1000.01021,97.015086 1001.30659,88.9499655 1003.89627,81.7747999 C1006.4875,74.6011767 1010.18836,68.4964249 1015.00042,63.466714 C1019.81092,58.4385455 1025.60298,54.5532828 1032.37504,51.815553 C1039.14864,49.0793656 1046.75255,47.7097296 1055.19138,47.7097296 Z M867.221978,48.4809211 C858.567076,48.4809211 850.824272,49.9338458 844.212717,52.8011358 C837.613509,55.6653409 832.009738,59.6863333 827.557279,64.7530614 C823.094016,69.8275014 819.650884,75.9523042 817.326654,82.95935 C814.99625,89.9802773 813.814072,97.7214974 813.814072,105.963992 C813.814072,115.079475 815.125889,123.298834 817.709395,130.389169 C820.286729,137.468707 823.857956,143.544153 828.322762,148.441219 C832.782938,153.330573 838.073417,157.112496 844.044496,159.683649 C850.031009,162.254801 856.559225,163.558115 863.448576,163.558115 C867.447302,163.558115 871.478436,163.243468 875.432405,162.624973 C879.355508,162.006477 883.186012,160.974623 886.817429,159.560258 C890.447302,158.142808 893.942907,156.285779 897.205472,154.040069 C900.301359,151.911581 903.176552,149.28336 905.758515,146.224815 L899.366111,137.94993 C898.454012,136.648159 897.207015,136.031206 895.534063,136.031206 C894.148168,136.031206 892.873391,136.518599 891.637197,137.521148 C890.260561,138.634748 888.582979,139.877909 886.649208,141.21824 C884.673766,142.583249 882.190575,143.843375 879.269083,144.964688 C876.310551,146.104509 872.443007,146.68136 867.777571,146.68136 C863.019535,146.68136 858.668935,145.759015 854.844604,143.942088 C851.012557,142.123618 847.705236,139.433702 845.018327,135.951002 C842.342222,132.489894 840.261835,128.183561 838.835813,123.152308 C837.417508,118.161157 836.696781,112.37722 836.696781,105.963992 C836.696781,99.789833 837.358862,94.1416265 838.666049,89.1813229 C839.977865,84.1870868 842.002693,79.8776688 844.683428,76.3702899 C847.368793,72.850572 850.750193,70.1035879 854.735029,68.2079993 C858.709061,66.3154954 863.396104,65.3576755 868.666519,65.3576755 C872.726977,65.3576755 876.170109,65.818848 878.903317,66.728854 C881.601029,67.6296056 883.943779,68.6398665 885.869834,69.7318736 C887.75422,70.8022874 889.408652,71.8002092 890.791461,72.6947913 C893.237613,74.280361 895.668332,74.1137837 896.728588,73.2886088 C897.33511,72.8166396 897.997192,72.1194825 898.691683,71.2156461 L904.62418,63.104254 C899.940223,58.5357156 894.560233,54.9404209 888.626192,52.4139976 C882.497695,49.8027433 875.296594,48.4809211 867.221978,48.4809211 Z M863.448576,165.100498 C856.349335,165.100498 849.614315,163.753997 843.434887,161.098014 C837.258547,158.443573 831.790587,154.535174 827.182253,149.480785 C822.581636,144.432566 818.907007,138.185915 816.260224,130.916664 C813.613441,123.656667 812.270759,115.261477 812.270759,105.963992 C812.270759,97.5549201 813.479173,89.6517497 815.862049,82.4750417 C818.252642,75.2705709 821.797633,68.9653093 826.396707,63.7350886 C831.001954,58.4971561 836.78938,54.3419763 843.598479,51.3852282 C850.406034,48.4346496 858.354099,46.9385381 867.221978,46.9385381 C875.506485,46.9385381 882.911303,48.303547 889.231171,50.9950053 C895.547953,53.6833788 901.25204,57.5485905 906.186013,62.4780465 L906.652094,62.9453886 L899.921703,72.1487878 C899.143874,73.160591 898.38765,73.9533758 897.674639,74.5070913 C896.085026,75.7394553 892.958273,75.9384227 889.951899,73.990393 C888.595326,73.1112347 886.964044,72.1287368 885.105894,71.0722044 C883.269351,70.0310959 881.017657,69.060937 878.414087,68.1925754 C875.83984,67.3350105 872.560299,66.9000585 868.666519,66.9000585 C863.627601,66.9000585 859.164338,67.8085221 855.39711,69.5992287 C851.637599,71.3899353 848.444483,73.9826811 845.910362,77.304974 C843.353092,80.6519451 841.417777,84.7778195 840.15689,89.5715458 C838.885199,94.4069164 838.240094,99.9209355 838.240094,105.963992 C838.240094,112.235321 838.939215,117.875816 840.320481,122.729695 C841.692487,127.571235 843.684904,131.701737 846.240631,135.008606 C848.777839,138.296966 851.895332,140.835729 855.508229,142.550858 C859.121126,144.267531 863.249489,145.138977 867.777571,145.138977 C872.25318,145.138977 875.933982,144.596058 878.715033,143.525645 C881.52232,142.447519 883.895937,141.242918 885.771062,139.950401 C887.670881,138.631663 889.31914,137.411638 890.664909,136.322716 C892.16501,135.105776 893.804009,134.488823 895.534063,134.488823 C897.716309,134.488823 899.424757,135.344845 900.606935,137.035297 L907.733956,146.257205 L907.345041,146.732259 C904.570164,150.10545 901.45267,152.992791 898.080531,155.312535 C894.72228,157.624567 891.120187,159.538665 887.377652,160.997759 C883.644376,162.452226 879.704297,163.513385 875.671619,164.148847 C871.638941,164.779682 867.527554,165.100498 863.448576,165.100498 Z M899.309008,71.6783609 C898.569761,72.6408079 897.86601,73.3811517 897.200842,73.8963077 C896.535674,74.4145483 895.574189,74.6736687 894.313302,74.6736687 C893.053959,74.6736687 891.740599,74.2294624 890.37168,73.3425922 C889.002761,72.455722 887.374565,71.4747664 885.487093,70.4028102 C883.59962,69.3293117 881.323233,68.3498985 878.659474,67.4614859 C875.994172,66.5730733 872.663701,66.128867 868.666519,66.128867 C863.485616,66.128867 858.951361,67.0558392 855.066841,68.903614 C851.180778,70.7529312 847.922843,73.3965756 845.296124,76.8391744 C842.667861,80.277146 840.704766,84.4570039 839.411469,89.3772055 C838.116629,94.2958648 837.468438,99.8253078 837.468438,105.963992 C837.468438,112.327864 838.169102,117.985325 839.578147,122.941001 C840.984106,127.89822 842.999673,132.078078 845.629479,135.479033 C848.254655,138.883072 851.440054,141.472733 855.176416,143.246473 C858.914321,145.023298 863.116764,145.910169 867.777571,145.910169 C872.365842,145.910169 876.106833,145.354911 878.991286,144.245937 C881.878826,143.136964 884.281765,141.915397 886.209363,140.58432 C888.130789,139.251701 889.780591,138.030134 891.14951,136.922703 C892.518429,135.812187 893.979947,135.260014 895.534063,135.260014 C897.458575,135.260014 898.938613,135.997273 899.975719,137.477961 L906.747779,146.243323 C904.008398,149.573328 900.97733,152.38355 897.64223,154.675531 C894.313302,156.969054 890.796091,158.83688 887.096769,160.279008 C883.39436,161.722679 879.546879,162.757618 875.551241,163.38691 C871.552515,164.013118 867.519837,164.329306 863.448576,164.329306 C856.415697,164.329306 849.847355,163.015196 843.740464,160.39006 C837.636659,157.764924 832.306054,153.955238 827.751736,148.961002 C823.202048,143.968308 819.610758,137.865099 816.985581,130.652916 C814.355775,123.440733 813.042415,115.213663 813.042415,105.963992 C813.042415,97.6058187 814.224594,89.8568866 816.595123,82.7171959 C818.962566,75.5805899 822.422675,69.4218547 826.976993,64.244075 C831.528224,59.0662954 837.172121,55.0159977 843.905598,52.093182 C850.643705,49.1719086 858.414288,47.7097296 867.221978,47.7097296 C875.438579,47.7097296 882.675176,49.0408061 888.928682,51.7045015 C895.183731,54.3666545 900.753549,58.1393232 905.63968,63.0240501 L899.309008,71.6783609 Z M694.350807,50.2562039 L694.350807,121.498873 C694.350807,127.757863 695.161047,133.561851 696.759919,138.747342 C698.347989,143.906613 700.743211,148.387236 703.883854,152.067361 C707.016781,155.736691 710.939883,158.61632 715.540501,160.627587 C720.156551,162.645024 725.581298,163.667624 731.661953,163.667624 C735.430725,163.667624 739.011212,163.265062 742.304643,162.469192 C745.599617,161.674865 748.738717,160.538129 751.635516,159.091373 C754.536945,157.638449 757.313366,155.875505 759.88607,153.848814 C762.474207,151.806699 764.968201,149.517802 767.295518,147.045362 L768.361947,145.914796 L770.394491,157.987027 C771.159975,160.585943 772.916265,161.893883 775.738986,161.893883 L789.400397,161.893883 L789.400397,50.2562039 L767.076367,50.2562039 L767.076367,132.347995 L766.864933,132.570098 C762.826082,136.83016 758.443072,140.22186 753.840911,142.652656 C749.195538,145.105045 744.12421,146.348205 738.767368,146.348205 C731.382614,146.348205 725.785016,144.127174 722.131993,139.746806 C718.512923,135.406541 716.679466,129.267856 716.679466,121.498873 L716.679466,50.2562039 L694.350807,50.2562039 Z M731.661953,165.210007 C725.365234,165.210007 719.735227,164.14422 714.923176,162.04041 C710.104951,159.936599 705.99665,156.918156 702.709393,153.066826 C699.431395,149.226292 696.934314,144.562126 695.286055,139.200803 C693.640883,133.867242 692.807494,127.912102 692.807494,121.498873 L692.807494,48.7138209 L718.22278,48.7138209 L718.22278,121.498873 C718.22278,128.897684 719.935858,134.703214 723.315714,138.758139 C726.663161,142.771419 731.861041,144.805822 738.767368,144.805822 C743.871106,144.805822 748.698591,143.621272 753.120184,141.289189 C757.493934,138.980242 761.668597,135.764373 765.533054,131.731042 L765.533054,48.7138209 L790.94371,48.7138209 L790.94371,163.436266 L775.738986,163.436266 C772.238751,163.436266 769.869765,161.67178 768.894391,158.332521 L767.35262,149.212411 C765.283037,151.317763 763.097705,153.279674 760.841381,155.059584 C758.185338,157.151056 755.320949,158.97261 752.325377,160.470264 C749.325176,161.96946 746.073414,163.147841 742.665778,163.969931 C739.255056,164.793563 735.552647,165.210007 731.661953,165.210007 Z M790.172053,49.4850124 L790.172053,162.665075 L775.738986,162.665075 C772.558217,162.665075 770.521043,161.148912 769.633638,158.115045 L767.858827,147.5744 C765.488298,150.091569 762.98813,152.38355 760.362954,154.45497 C757.733148,156.526391 754.93975,158.300131 751.981218,159.780819 C749.0196,161.259964 745.855807,162.405954 742.485211,163.21879 C739.117701,164.033169 735.51252,164.438815 731.661953,164.438815 C725.443943,164.438815 719.965181,163.403876 715.231838,161.333998 C710.493866,159.26412 706.516747,156.339762 703.295852,152.567093 C700.0765,148.794425 697.650411,144.262904 696.023759,138.975615 C694.392477,133.686784 693.57915,127.862745 693.57915,121.498873 L693.57915,49.4850124 L717.451123,49.4850124 L717.451123,121.498873 C717.451123,129.119788 719.208957,135.036369 722.724625,139.251701 C726.240293,143.468576 731.587874,145.577014 738.767368,145.577014 C744.020808,145.577014 748.925458,144.375498 753.479776,141.970922 C758.03255,139.56789 762.305985,136.256394 766.304711,132.041061 L766.304711,49.4850124 L790.172053,49.4850124 Z M617.749987,66.5684462 C608.716973,66.5684462 601.565258,69.9200444 596.487757,76.5291554 C591.363956,83.2015041 588.76656,93.2532139 588.76656,106.409741 C588.76656,113.27643 589.357649,119.206892 590.521307,124.036093 C591.674162,128.831362 593.348658,132.790659 595.50621,135.80756 C597.637526,138.788986 600.258072,140.97917 603.295313,142.321043 C606.361877,143.675256 609.879088,144.361616 613.751262,144.361616 C619.651349,144.361616 624.804473,143.073726 629.068648,140.531879 C633.30813,138.003913 637.308398,134.383941 640.959878,129.7753 L640.959878,77.6026539 C637.769849,73.5477291 634.231031,70.675812 630.437567,69.0593947 C626.556133,67.4059601 622.287328,66.5684462 617.749987,66.5684462 Z M613.751262,145.903999 C609.664567,145.903999 605.935922,145.17291 602.671814,143.730781 C599.378383,142.276314 596.54486,139.913384 594.248409,136.705227 C591.978195,133.526376 590.218818,129.385077 589.021207,124.398553 C587.826682,119.450589 587.223246,113.398278 587.223246,106.409741 C587.223246,92.9061778 589.928675,82.5367371 595.26391,75.5898442 C600.64853,68.5812559 608.21231,65.0260632 617.749987,65.0260632 C622.495676,65.0260632 626.969741,65.9067639 631.042546,67.6404023 C635.144673,69.3863798 638.94431,72.4896544 642.341143,76.8638525 L642.503191,77.0736166 L642.503191,130.310507 L642.3396,130.518729 C638.526073,135.377235 634.326717,139.191548 629.858824,141.858329 C625.353892,144.542075 619.933775,145.903999 613.751262,145.903999 Z M612.197145,48.1477663 C604.877209,48.1477663 598.174599,49.6330811 592.279141,52.560524 C586.377511,55.4910517 581.290749,59.6030447 577.160843,64.7792819 C573.018589,69.9740278 569.796151,76.1821192 567.579953,83.2261823 C565.357581,90.2841267 564.229419,98.0839574 564.229419,106.409741 C564.229419,115.622394 565.246463,123.894194 567.254314,130.99841 C569.252904,138.087202 572.104948,144.104038 575.728648,148.883883 C579.340001,153.646762 583.732271,157.323803 588.778906,159.811666 C593.827085,162.297988 599.540431,163.558115 605.758441,163.558115 C613.581497,163.558115 620.534124,161.873832 626.418778,158.553082 C632.343559,155.210738 637.70966,150.750166 642.365836,145.297843 L643.435353,144.045428 L645.821315,157.985485 C646.589885,160.585943 648.344633,161.893883 651.168896,161.893883 L664.83185,161.893883 L664.83185,3.77495063 L642.503191,3.77495063 L642.503191,61.2503097 L641.180572,59.9007246 C637.564588,56.2159717 633.420792,53.3024102 628.86493,51.243329 C624.327589,49.1888748 618.719188,48.1477663 612.197145,48.1477663 Z M605.758441,165.100498 C599.301218,165.100498 593.359461,163.786387 588.096762,161.193641 C582.83252,158.599353 578.256595,154.772701 574.50017,149.815482 C570.759178,144.882942 567.82071,138.691816 565.768103,131.416396 C563.723212,124.177993 562.686106,115.764293 562.686106,106.409741 C562.686106,97.9266344 563.837418,89.971023 566.109175,82.7634674 C568.380932,75.5374031 571.692883,69.1627343 575.955515,63.8183773 C580.225863,58.4616813 585.487019,54.2108738 591.592367,51.1800913 C597.705431,48.1446816 604.636452,46.6053834 612.197145,46.6053834 C618.941425,46.6053834 624.762803,47.6927634 629.500775,49.8382181 C633.684698,51.7276372 637.530635,54.3111287 640.959878,57.5285396 L640.959878,2.23256766 L666.375164,2.23256766 L666.375164,163.436266 L651.168896,163.436266 C647.668661,163.436266 645.299675,161.67178 644.321215,158.332521 L642.466152,147.526586 C637.945787,152.560924 632.811183,156.719188 627.178089,159.896497 C621.058851,163.349893 613.851577,165.100498 605.758441,165.100498 Z M641.731535,77.3373641 C638.401064,73.047997 634.735695,70.0511469 630.740056,68.3498985 C626.741331,66.6471077 622.412337,65.7972547 617.749987,65.7972547 C608.4222,65.7972547 601.130044,69.2182601 595.875062,76.060271 C590.620079,82.9022818 587.994903,93.0203141 587.994903,106.409741 C587.994903,113.362803 588.585992,119.299435 589.771257,124.216552 C590.953435,129.136754 592.657253,133.148492 594.878081,136.256394 C597.098909,139.362753 599.799708,141.620802 602.983563,143.025912 C606.164333,144.431023 609.752536,145.132808 613.751262,145.132808 C619.821113,145.132808 625.057576,143.82024 629.463736,141.195104 C633.865266,138.568426 637.95659,134.852825 641.731535,130.043675 L641.731535,77.3373641 Z M665.603507,3.00375914 L665.603507,162.665075 L651.168896,162.665075 C647.985041,162.665075 645.94941,161.148912 645.060462,158.115045 L642.952296,145.799117 C638.214323,151.347069 632.829703,155.823064 626.798434,159.225561 C620.765621,162.6296 613.751262,164.329306 605.758441,164.329306 C599.392273,164.329306 593.617194,163.053755 588.437834,160.502654 C583.255388,157.948468 578.815275,154.231325 575.114409,149.349683 C571.413543,144.468041 568.546067,138.420357 566.51198,131.208174 C564.474806,123.995991 563.457762,115.728819 563.457762,106.409741 C563.457762,97.9759906 564.584381,90.1715328 566.845335,82.9963672 C569.100116,75.8212016 572.339531,69.588432 576.55895,64.2996008 C580.775283,59.0107696 585.899083,54.8663866 591.934982,51.8710788 C597.967795,48.8757711 604.722878,47.3765748 612.197145,47.3765748 C618.858086,47.3765748 624.523589,48.4315648 629.182853,50.5400023 C633.848289,52.6484398 638.030669,55.5882218 641.731535,59.3608905 L641.731535,3.00375914 L665.603507,3.00375914 Z M518.490238,161.893883 L540.703149,161.893883 L540.703149,90.6527563 C540.703149,84.3968509 539.894452,78.5928638 538.297123,73.4042875 C536.701337,68.2326774 534.306114,63.7520549 531.173188,60.0827258 C528.044892,56.4149391 524.140309,53.5353101 519.569014,51.5225003 C514.985373,49.503521 509.580689,48.4809211 503.506208,48.4809211 C499.6649,48.4809211 496.065893,48.8850254 492.809502,49.6793526 C489.542307,50.4798494 486.420184,51.6150433 483.532645,53.0602561 C480.623499,54.5131809 477.847078,56.2607008 475.279004,58.2503748 C472.686238,60.2585574 470.155204,62.5289452 467.753808,65.0044698 L466.681205,66.108816 L464.772126,54.1584328 C464.006643,51.5641446 462.214856,50.2562039 459.316513,50.2562039 L445.653559,50.2562039 L445.653559,161.893883 L467.982218,161.893883 L467.982218,79.9162284 L468.193652,79.6925829 C472.229417,75.4309787 476.610884,72.0223123 481.213045,69.556042 C485.853788,67.0650935 490.963699,65.8018818 496.397706,65.8018818 C503.787091,65.8018818 509.384689,68.0244557 513.033082,72.4048233 C516.653695,76.7466314 518.490238,82.8853156 518.490238,90.6527563 L518.490238,161.893883 Z M542.246462,163.436266 L516.946925,163.436266 L516.946925,90.6527563 C516.946925,83.2570299 515.23076,77.449958 511.84936,73.3919484 C508.506543,69.3802103 503.308664,67.3442648 496.397706,67.3442648 C491.221433,67.3442648 486.356908,68.5457811 481.943032,70.9148814 C477.564652,73.2593035 473.388445,76.495223 469.525532,80.5316392 L469.525532,163.436266 L444.110246,163.436266 L444.110246,48.7138209 L459.316513,48.7138209 C462.889284,48.7138209 465.296853,50.4798494 466.275314,53.8191085 L467.721398,62.8420489 C469.849628,60.7351538 472.068912,58.7855817 474.33141,57.0303499 C476.981279,54.9805229 479.844126,53.1790196 482.842784,51.6798233 C485.832182,50.1837119 489.062337,49.008416 492.442193,48.1816988 C495.820507,47.3565239 499.541435,46.9385381 503.506208,46.9385381 C509.796753,46.9385381 515.409784,48.0058671 520.189426,50.1096775 C524.976785,52.2196574 529.068109,55.2381009 532.349193,59.0832616 C535.617931,62.9114561 538.115012,67.578707 539.770987,72.9492845 C541.413073,78.287472 542.246462,84.2426126 542.246462,90.6527563 L542.246462,163.436266 Z M467.199758,64.4661782 C469.64128,61.9505515 472.176944,59.677079 474.805207,57.6395911 C477.430383,55.6067304 480.226867,53.8499562 483.188486,52.3692685 C486.147018,50.8901233 489.292291,49.7456751 492.625848,48.9312969 C495.954775,48.1184611 499.583105,47.7097296 503.506208,47.7097296 C509.724218,47.7097296 515.179831,48.7477533 519.87922,50.8176313 C524.58324,52.8875092 528.541839,55.8103249 531.761191,59.5829937 C534.982086,63.3556624 537.402001,67.8871836 539.033284,73.1775572 C540.661479,78.464846 541.474805,84.2919689 541.474805,90.6527563 L541.474805,162.665075 L517.718581,162.665075 L517.718581,90.6527563 C517.718581,83.0333844 515.956117,77.1137185 512.441993,72.8983859 C508.927868,68.6815108 503.578743,66.5730733 496.397706,66.5730733 C491.068644,66.5730733 486.128498,67.7930982 481.57881,70.2346905 C477.022949,72.6747403 472.749514,76.0062876 468.753875,80.2231626 L468.753875,162.665075 L444.881903,162.665075 L444.881903,49.4850124 L459.316513,49.4850124 C462.571361,49.4850124 464.645575,51.0027172 465.534523,54.0350421 L467.199758,64.4661782 Z M367.052605,67.0111101 C356.999461,67.0111101 349.438768,70.3966407 344.581961,77.0689894 C339.671137,83.8169149 337.181773,93.575572 337.181773,106.076586 C337.181773,118.576058 339.669594,128.297697 344.578874,134.968504 C349.435681,141.569903 356.994831,144.916874 367.052605,144.916874 C376.960677,144.916874 384.425684,141.569903 389.243909,134.970046 C394.120779,128.294613 396.591624,118.572973 396.591624,106.076586 C396.591624,93.5771144 394.119236,83.8184573 389.243909,77.067447 C384.421054,70.3950983 376.95759,67.0111101 367.052605,67.0111101 Z M367.052605,146.459257 C356.477821,146.459257 348.497347,142.900979 343.334963,135.881595 C338.228139,128.940871 335.638459,118.912297 335.638459,106.076586 C335.638459,93.2424173 338.228139,83.1783684 343.33342,76.1620682 C348.497347,69.0655642 356.477821,65.4702695 367.052605,65.4702695 C377.47923,65.4702695 385.367105,69.0671066 390.493993,76.1636106 C395.563778,83.1829955 398.134938,93.2470444 398.134938,106.076586 C398.134938,118.90767 395.563778,128.934702 390.492449,135.880052 C385.367105,142.900979 377.47923,146.459257 367.052605,146.459257 Z M367.052605,48.4809211 C358.757295,48.4809211 351.178082,49.8443876 344.527945,52.5312187 C337.88861,55.2149651 332.132051,59.0724649 327.417228,63.9988361 C322.708579,68.9221226 319.02932,74.9898572 316.485939,82.037005 C313.936385,89.0903223 312.643089,97.1415614 312.643089,105.963992 C312.643089,114.789507 313.936385,122.840746 316.485939,129.890979 C319.02932,136.936584 322.707036,143.025912 327.418772,147.986216 C332.136681,152.951147 337.891697,156.828698 344.527945,159.507817 C351.176539,162.194648 358.754208,163.558115 367.052605,163.558115 C375.276922,163.558115 382.819095,162.194648 389.469233,159.507817 C396.100851,156.83024 401.835803,152.954232 406.51513,147.987758 C411.192913,143.025912 414.855196,136.936584 417.398576,129.890979 C419.946587,122.834577 421.23834,114.783338 421.23834,105.963992 C421.23834,97.147731 419.946587,89.0964918 417.398576,82.037005 C414.853652,74.9913996 411.192913,68.9221226 406.518216,63.9957514 C401.83889,59.0709225 396.103937,55.2118803 389.469233,52.5312187 C382.814465,49.8443876 375.273835,48.4809211 367.052605,48.4809211 Z M367.052605,165.100498 C358.555121,165.100498 350.781451,163.700014 343.949202,160.939148 C337.10615,158.175198 331.169023,154.174257 326.299869,149.047376 C321.441519,143.932834 317.651141,137.663047 315.033681,130.415389 C312.422395,123.195495 311.099775,114.968424 311.099775,105.963992 C311.099775,96.9611026 312.422395,88.7340318 315.033681,81.5125948 C317.652684,74.2633948 321.443062,68.0121166 326.301413,62.9330495 C331.169023,57.8478128 337.10615,53.8669224 343.949202,51.0998873 C350.786081,48.3390218 358.558207,46.9385381 367.052605,46.9385381 C375.472923,46.9385381 383.20801,48.3390218 390.047975,51.0998873 C396.88794,53.86538 402.806548,57.8478128 407.635575,62.9361343 C412.459973,68.0167438 416.233375,74.2664796 418.850834,81.5125948 C421.459034,88.7417438 422.781654,96.9688145 422.781654,105.963992 C422.781654,114.962254 421.459034,123.187783 418.850834,130.415389 C416.234918,137.659962 412.461517,143.929749 407.638662,149.045833 C402.806548,154.174257 396.88794,158.17674 390.047975,160.939148 C383.21264,163.700014 375.47601,165.100498 367.052605,165.100498 Z M367.052605,145.688065 C377.267796,145.688065 384.871702,142.26706 389.868951,135.425049 C394.864657,128.583038 397.363281,118.799703 397.363281,106.076586 C397.363281,93.3534688 394.864657,83.5315741 389.868951,76.6155288 C384.871702,69.701026 377.267796,66.2399186 367.052605,66.2399186 C356.690798,66.2399186 348.989664,69.701026 343.958462,76.6155288 C338.924173,83.5315741 336.410116,93.3534688 336.410116,106.076586 C336.410116,118.799703 338.924173,128.583038 343.958462,135.425049 C348.989664,142.26706 356.690798,145.688065 367.052605,145.688065 Z M367.052605,47.7097296 C375.417364,47.7097296 382.985773,49.0793656 389.759376,51.815553 C396.531435,54.5532828 402.301884,58.4385455 407.076896,63.466714 C411.853451,68.4964249 415.534254,74.6011767 418.123934,81.7747999 C420.713614,88.9499655 422.009997,97.015086 422.009997,105.963992 C422.009997,114.91444 420.713614,122.981103 418.123934,130.153184 C415.534254,137.32835 411.853451,143.450068 407.076896,148.516796 C402.301884,153.583524 396.531435,157.488838 389.759376,160.223483 C382.985773,162.961212 375.417364,164.329306 367.052605,164.329306 C358.61531,164.329306 351.008318,162.961212 344.237802,160.223483 C337.465742,157.488838 331.672144,153.583524 326.860092,148.516796 C322.046497,143.450068 318.350262,137.32835 315.759038,130.153184 C313.166272,122.981103 311.871432,114.91444 311.871432,105.963992 C311.871432,97.015086 313.166272,88.9499655 315.759038,81.7747999 C318.350262,74.6011767 322.046497,68.4964249 326.860092,63.466714 C331.672144,58.4385455 337.465742,54.5532828 344.237802,51.815553 C351.008318,49.0793656 358.61531,47.7097296 367.052605,47.7097296 Z M261.463728,48.4809211 C252.807282,48.4809211 245.066022,49.9338458 238.454467,52.8011358 C231.855259,55.6653409 226.251488,59.6863333 221.799028,64.7530614 C217.335766,69.8275014 213.892633,75.9523042 211.569947,82.95935 C209.238,89.9802773 208.055822,97.7214974 208.055822,105.963992 C208.055822,115.079475 209.366095,123.297292 211.951145,130.389169 C214.528479,137.470249 218.101249,143.544153 222.566055,148.441219 C227.024688,153.330573 232.315166,157.112496 238.286246,159.683649 C244.272759,162.254801 250.800975,163.558115 257.690326,163.558115 C261.689051,163.558115 265.720186,163.243468 269.674155,162.624973 C273.595715,162.006477 277.424675,160.974623 281.059179,159.560258 C284.689052,158.142808 288.184657,156.285779 291.447221,154.040069 C294.543108,151.911581 297.418301,149.28336 300.000265,146.224815 L293.606317,137.94993 C292.694219,136.648159 291.448765,136.031206 289.775813,136.031206 C288.389917,136.031206 287.115141,136.518599 285.878946,137.521148 C284.502311,138.634748 282.824729,139.877909 280.890957,141.21824 C278.913973,142.583249 276.432325,143.843375 273.509289,144.964688 C270.5523,146.104509 266.6863,146.68136 262.01932,146.68136 C257.261285,146.68136 252.910684,145.759015 249.086354,143.942088 C245.254306,142.123618 241.946985,139.435245 239.260077,135.951002 C236.583971,132.488352 234.503585,128.182019 233.077563,123.152308 C231.659258,118.161157 230.938531,112.37722 230.938531,105.963992 C230.938531,99.789833 231.600612,94.1416265 232.907799,89.1813229 C234.219615,84.1840021 236.245986,79.8745841 238.925178,76.3702899 C241.610543,72.850572 244.991943,70.1035879 248.976778,68.2079993 C252.95081,66.3154954 257.637853,65.3576755 262.906726,65.3576755 C266.967183,65.3576755 270.411859,65.818848 273.145067,66.728854 C275.839692,67.6280633 278.183986,68.6383241 280.111584,69.7318736 C281.99597,70.8022874 283.651945,71.8002092 285.033211,72.6947913 C287.479363,74.280361 289.910081,74.1137837 290.970338,73.2886088 C291.57686,72.8166396 292.238941,72.1194825 292.933432,71.2156461 L298.865929,63.104254 C294.181973,58.5341733 288.800439,54.9388786 282.866399,52.4139976 C276.737901,49.8027433 269.5368,48.4809211 261.463728,48.4809211 Z M257.690326,165.100498 C250.591084,165.100498 243.856064,163.753997 237.67818,161.098014 C231.50184,158.443573 226.03388,154.535174 221.424003,149.480785 C216.823386,144.432566 213.148756,138.187457 210.50043,130.916664 C207.853648,123.655125 206.512508,115.259934 206.512508,105.963992 C206.512508,97.5549201 207.720923,89.6517497 210.103799,82.4750417 C212.494391,75.2705709 216.039382,68.9653093 220.638457,63.7350886 C225.243704,58.4971561 231.031129,54.3419763 237.840228,51.3852282 C244.646241,48.4346496 252.595848,46.9385381 261.463728,46.9385381 C269.746691,46.9385381 277.151509,48.303547 283.471377,50.9950053 C289.788159,53.6833788 295.492246,57.5470482 300.427762,62.4780465 L300.893843,62.9453886 L294.163453,72.1487878 C293.385623,73.160591 292.6294,73.9533758 291.916389,74.5070913 C290.325233,75.7394553 287.200023,75.9384227 284.193648,73.990393 C282.837076,73.1112347 281.207337,72.1287368 279.347644,71.0722044 C277.508014,70.0295535 275.25632,69.0593947 272.65738,68.1925754 C270.083133,67.3350105 266.802049,66.9000585 262.906726,66.9000585 C257.86935,66.9000585 253.406088,67.8085221 249.63886,69.5992287 C245.879348,71.3899353 242.687776,73.9826811 240.152112,77.304974 C237.596385,80.6488603 235.66107,84.7747348 234.398639,89.5715458 C233.126949,94.4069164 232.481844,99.9209355 232.481844,105.963992 C232.481844,112.235321 233.180965,117.875816 234.562231,122.729695 C235.93578,127.569693 237.926654,131.701737 240.480838,135.008606 C243.019588,138.296966 246.138625,140.835729 249.749978,142.550858 C253.364418,144.267531 257.491239,145.138977 262.01932,145.138977 C266.494929,145.138977 270.175732,144.596058 272.95524,143.525645 C275.76407,142.447519 278.137686,141.24446 280.012812,139.950401 C281.914174,138.631663 283.56089,137.411638 284.906659,136.322716 C286.40676,135.105776 288.045759,134.488823 289.775813,134.488823 C291.959602,134.488823 293.666506,135.344845 294.848684,137.036839 L301.977249,146.257205 L301.586791,146.732259 C298.811913,150.10545 295.69442,152.992791 292.32228,155.312535 C288.96403,157.624567 285.361936,159.538665 281.619401,160.997759 C277.883039,162.452226 273.946047,163.513385 269.913369,164.148847 C265.880691,164.779682 261.769304,165.100498 257.690326,165.100498 Z M293.552301,71.6783609 C292.811511,72.6408079 292.10776,73.3811517 291.442592,73.8963077 C290.777423,74.4145483 289.814396,74.6736687 288.555052,74.6736687 C287.295708,74.6736687 285.982348,74.2294624 284.613429,73.3425922 C283.24451,72.455722 281.616315,71.4747664 279.730386,70.4028102 C277.839827,69.3293117 275.564983,68.3498985 272.901224,67.4614859 C270.235921,66.5730733 266.905451,66.128867 262.906726,66.128867 C257.727366,66.128867 253.193111,67.0558392 249.308591,68.903614 C245.422527,70.7529312 242.164593,73.3965756 239.539416,76.8391744 C236.908067,80.277146 234.946516,84.4570039 233.653219,89.3772055 C232.358379,94.2958648 231.710187,99.8253078 231.710187,105.963992 C231.710187,112.327864 232.410852,117.985325 233.819897,122.941001 C235.225855,127.89822 237.241423,132.078078 239.869686,135.479033 C242.497948,138.883072 245.681804,141.472733 249.418166,143.246473 C253.156071,145.023298 257.358514,145.910169 262.01932,145.910169 C266.609135,145.910169 270.348583,145.354911 273.233036,144.245937 C276.120575,143.136964 278.523515,141.915397 280.451113,140.58432 C282.372538,139.251701 284.02234,138.030134 285.392803,136.922703 C286.760178,135.812187 288.221696,135.260014 289.775813,135.260014 C291.700325,135.260014 293.180362,135.997273 294.215926,137.477961 L300.989529,146.243323 C298.251691,149.573328 295.21908,152.38355 291.885522,154.675531 C288.555052,156.969054 285.037841,158.83688 281.340062,160.279008 C277.634566,161.722679 273.788629,162.757618 269.79299,163.38691 C265.794265,164.013118 261.761587,164.329306 257.690326,164.329306 C250.657447,164.329306 244.089105,163.015196 237.982213,160.39006 C231.878408,157.764924 226.549347,153.955238 221.993486,148.961002 C217.443798,143.968308 213.852507,137.865099 211.225788,130.652916 C208.597525,123.440733 207.284165,115.213663 207.284165,105.963992 C207.284165,97.6058187 208.466343,89.8568866 210.836873,82.7171959 C213.204316,75.5805899 216.664424,69.4218547 221.218742,64.244075 C225.769974,59.0662954 231.413871,55.0159977 238.147348,52.093182 C244.883911,49.1719086 252.657581,47.7097296 261.463728,47.7097296 C269.680328,47.7097296 276.915382,49.0408061 283.168888,51.7045015 C289.425481,54.3666545 294.995299,58.1393232 299.88143,63.0240501 L293.552301,71.6783609 Z" id="Fill-1" fill="#0B0B09"></path>
            <path d="M51.3490561,25.6822206 C51.3490561,39.8518277 39.8482459,51.3490561 25.6768356,51.3490561 C11.49158,51.3490561 0,39.8518277 0,25.6822206 C0,11.4926129 11.49158,0 25.6768356,0 C39.8482459,0 51.3490561,11.4926129 51.3490561,25.6822206" id="Fill-3" fill="#ACCD41"></path>
            <path d="M109.395815,25.6822206 C109.395815,39.8518277 97.8975768,51.3490561 83.7212872,51.3490561 C69.5465358,51.3490561 58.0467591,39.8518277 58.0467591,25.6822206 C58.0467591,11.4926129 69.5465358,0 83.7212872,0 C97.8975768,0 109.395815,11.4926129 109.395815,25.6822206" id="Fill-4" fill="#ACCD41"></path>
            <path d="M51.3490561,82.5996197 C51.3490561,96.7893283 39.8482459,108.279531 25.6768356,108.279531 C11.49158,108.279531 0,96.7893283 0,82.5996197 C0,68.417602 11.49158,56.9304753 25.6768356,56.9304753 C39.8482459,56.9304753 51.3490561,68.417602 51.3490561,82.5996197" id="Fill-5" fill="#ACCD41"></path>
            <path d="M109.395815,82.5996197 C109.395815,96.7893283 97.8975768,108.279531 83.7212872,108.279531 C69.5465358,108.279531 58.0467591,96.7893283 58.0467591,82.5996197 C58.0467591,68.417602 69.5465358,56.9304753 83.7212872,56.9304753 C97.8975768,56.9304753 109.395815,68.417602 109.395815,82.5996197" id="Fill-7" fill="#ACCD41"></path>
            <path d="M167.442574,83.7159036 C167.442574,97.9056122 155.948928,109.395815 141.767277,109.395815 C127.587164,109.395815 116.093518,97.9056122 116.093518,83.7159036 C116.093518,69.5338858 127.587164,58.0467591 141.767277,58.0467591 C155.948928,58.0467591 167.442574,69.5338858 167.442574,83.7159036" id="Fill-8" fill="#81BC41"></path>
            <path d="M109.395815,139.545479 C109.395815,153.719277 97.8975768,165.210007 83.7212872,165.210007 C69.5465358,165.210007 58.0467591,153.719277 58.0467591,139.545479 C58.0467591,125.354758 69.5465358,113.860951 83.7212872,113.860951 C97.8975768,113.860951 109.395815,125.354758 109.395815,139.545479" id="Fill-10" fill="#81BC41"></path>
            <path d="M167.442574,139.545479 C167.442574,153.719277 155.948928,165.210007 141.767277,165.210007 C127.587164,165.210007 116.093518,153.719277 116.093518,139.545479 C116.093518,125.354758 127.587164,113.860951 141.767277,113.860951 C155.948928,113.860951 167.442574,125.354758 167.442574,139.545479" id="Fill-11" fill="#81BC41"></path>
        </g>
    </g>
</svg>