<?xml version="1.0" encoding="utf-8"?>
<!-- Generator: Adobe Illustrator 20.1.0, SVG Export Plug-In . SVG Version: 6.00 Build 0)  -->
<svg version="1.1" id="Layer_1" xmlns="http://www.w3.org/2000/svg" xmlns:xlink="http://www.w3.org/1999/xlink" x="0px" y="0px"
	 viewBox="0 0 150 150" style="enable-background:new 0 0 150 150;" xml:space="preserve">
<style type="text/css">
	.st0{enable-background:new    ;}
	.st1{fill:#425565;}
	.st2{fill:#19AEA6;}
</style>
<g>
	<g id="Guides">
	</g>
	<g transform="matrix(1,0,0,1,-45,0)">
		<g transform="matrix(-1.1026e-16,-0.685646,1.1495,-1.84854e-16,38.0695,419.673)">
			<g transform="matrix(1.45848,0,0,0.869944,-4.2166,1.46649)">
				<g class="st0">
					<path class="st1" d="M351,47.2V36.9h-1.9v-1.6h3.7v12h1.8v1.7h-5.5v-1.7L351,47.2L351,47.2z"/>
				</g>
			</g>
		</g>
		<g transform="matrix(1.94228e-16,0.685646,-1.14326,3.23858e-16,202.409,381.55)">
			<g transform="matrix(1.45848,0,0,0.874694,-4.2166,1.41292)">
				<g class="st0">
					<path class="st1" d="M-300.2,124.1v-10.3h-1.9v-1.6h3.7v12h1.8v1.7h-5.5v-1.7L-300.2,124.1L-300.2,124.1z"/>
				</g>
			</g>
		</g>
		<g transform="matrix(0.881745,0,0,1.09551,40.3584,324.902)">
			<g>
				<rect x="42.9" y="-229.5" class="st2" width="8.2" height="2.8"/>
			</g>
		</g>
	</g>
	<g>
		<path class="st1" d="M53.5,80.3c-0.9,0-1.6-0.2-2.3-0.4c-0.7-0.3-1.2-0.7-1.6-1.1c-0.4-0.5-0.8-1-1-1.7s-0.3-1.3-0.3-2
			c0-0.8,0.1-1.5,0.4-2.1c0.2-0.6,0.6-1.2,1-1.7c0.5-0.5,1-0.8,1.7-1.1c0.7-0.3,1.4-0.4,2.2-0.4c0.7,0,1.3,0.1,1.8,0.3
			c0.5,0.2,1,0.5,1.4,0.9v-1.1H58v3.2h-1.3c-0.2-0.4-0.4-0.7-0.6-0.9c-0.2-0.3-0.5-0.5-0.7-0.6c-0.3-0.2-0.5-0.3-0.8-0.4
			c-0.3-0.1-0.6-0.1-0.9-0.1c-0.5,0-1,0.1-1.4,0.3s-0.8,0.5-1.1,0.8c-0.3,0.3-0.5,0.8-0.7,1.2c-0.2,0.5-0.2,1-0.2,1.6
			c0,0.6,0.1,1.1,0.2,1.5c0.1,0.5,0.4,0.9,0.7,1.2c0.3,0.4,0.6,0.6,1.1,0.8s0.9,0.3,1.5,0.3c0.4,0,0.7-0.1,1.1-0.1
			c0.3-0.1,0.7-0.2,1-0.5c0.3-0.2,0.5-0.5,0.8-0.8c0.2-0.3,0.4-0.7,0.5-1.1l1.4,0.7c-0.2,0.6-0.5,1.1-0.8,1.5
			c-0.3,0.4-0.7,0.7-1.1,1S55.5,80,55,80.1C54.5,80.2,54,80.3,53.5,80.3z"/>
		<path class="st1" d="M63.9,78.9v1.2h-4.5v-1.2h1.4v-4.8h-1.4V73h2.8l0,1.6c0.1-0.3,0.3-0.6,0.5-0.8c0.2-0.2,0.4-0.4,0.6-0.5
			c0.2-0.1,0.5-0.2,0.7-0.3s0.5-0.1,0.8-0.1c0.1,0,0.2,0,0.3,0c0.1,0,0.2,0,0.3,0l0,1.5c-0.1,0-0.2,0-0.3,0c-0.1,0-0.1,0-0.2,0
			c-0.1,0-0.1,0-0.1,0c-0.4,0-0.8,0.1-1.1,0.2c-0.3,0.1-0.6,0.3-0.7,0.5c-0.2,0.2-0.3,0.5-0.4,0.8s-0.1,0.7-0.1,1.1v2L63.9,78.9
			L63.9,78.9z"/>
		<path class="st1" d="M75.3,78.9v1.2h-2.9l0-0.8c-0.4,0.3-0.7,0.6-1.1,0.7s-0.8,0.2-1.2,0.2c-0.4,0-0.7-0.1-1-0.2
			c-0.3-0.1-0.5-0.3-0.7-0.5s-0.3-0.5-0.4-0.8c-0.1-0.3-0.1-0.6-0.1-1v-3.7h-1.1V73h2.7v4.7c0,0.4,0.1,0.8,0.2,1s0.4,0.3,0.8,0.3
			c0.3,0,0.7-0.1,1-0.3c0.3-0.2,0.6-0.4,0.9-0.7v-3.8h-1.2V73h2.8v5.9L75.3,78.9L75.3,78.9z"/>
		<path class="st1" d="M76.3,74.2V73h2.9c0,0,0,0.1,0,0.2s0,0.2,0,0.3c0,0.1,0,0.2,0,0.3c0,0.1,0,0.1,0,0.2c0.4-0.3,0.8-0.6,1.2-0.8
			c0.4-0.2,0.8-0.3,1.2-0.3c0.3,0,0.6,0.1,0.8,0.2s0.5,0.3,0.7,0.4c0.2,0.2,0.3,0.4,0.4,0.7c0.1,0.3,0.2,0.6,0.2,1
			c0,0.1,0,0.1,0,0.3c0,0.1,0,0.3,0,0.5c0,0.2,0,0.4,0,0.6s0,0.4,0,0.7v1.7h1.2v1.2h-3.6v-1.2h0.8v-3.3c0-0.5-0.1-0.8-0.2-1.1
			c-0.1-0.3-0.4-0.4-0.7-0.4c-0.4,0-0.7,0.1-1,0.3c-0.3,0.2-0.6,0.4-0.9,0.7v3.8h1v1.2h-3.9v-1.2h1.2v-4.8L76.3,74.2L76.3,74.2z"/>
		<path class="st1" d="M92.5,75.6h-1.3c-0.1-0.2-0.1-0.4-0.2-0.6c-0.1-0.2-0.2-0.3-0.4-0.5c-0.2-0.1-0.3-0.2-0.5-0.3
			c-0.2-0.1-0.4-0.1-0.7-0.1c-0.3,0-0.6,0.1-0.9,0.2s-0.5,0.3-0.7,0.5c-0.2,0.2-0.3,0.5-0.4,0.8c-0.1,0.3-0.1,0.6-0.1,1
			c0,0.4,0.1,0.7,0.1,1s0.2,0.6,0.4,0.8c0.2,0.2,0.4,0.4,0.7,0.5S89,79,89.4,79c0.4,0,0.8-0.1,1.2-0.3c0.4-0.2,0.7-0.5,0.9-0.9
			l1.1,0.7c-0.3,0.6-0.8,1-1.3,1.3c-0.5,0.3-1.2,0.4-2,0.4c-0.6,0-1.2-0.1-1.7-0.3s-0.9-0.5-1.2-0.8c-0.3-0.3-0.5-0.7-0.7-1.2
			c-0.2-0.4-0.2-0.9-0.2-1.4c0-0.5,0.1-1,0.3-1.5c0.2-0.5,0.4-0.8,0.7-1.2c0.3-0.3,0.7-0.6,1.1-0.8c0.4-0.2,0.9-0.3,1.5-0.3
			c0.2,0,0.4,0,0.6,0.1c0.2,0,0.4,0.1,0.5,0.2c0.2,0.1,0.3,0.2,0.5,0.3c0.1,0.1,0.3,0.2,0.4,0.3l0-0.7h1.4L92.5,75.6L92.5,75.6z"/>
		<path class="st1" d="M93.8,78.9h1.3v-7.8h-1.3v-1.2h2.9v3.7c0.4-0.3,0.8-0.5,1.2-0.6c0.4-0.1,0.8-0.2,1.2-0.2
			c0.7,0,1.3,0.2,1.7,0.6c0.4,0.4,0.6,1,0.6,1.7v3.8h1.1v1.2h-3.5v-1.2h0.8v-3.5c0-0.2,0-0.4-0.1-0.5c0-0.2-0.1-0.3-0.2-0.4
			c-0.1-0.1-0.2-0.2-0.3-0.3s-0.3-0.1-0.5-0.1c-0.3,0-0.6,0.1-0.9,0.2c-0.3,0.1-0.7,0.3-1,0.5v4.1h1v1.2h-4L93.8,78.9L93.8,78.9z"/>
		<path class="st1" d="M110,79c-0.3,0.4-0.8,0.7-1.3,1c-0.5,0.2-1.2,0.3-1.9,0.3c-0.6,0-1.2-0.1-1.7-0.3c-0.5-0.2-0.9-0.4-1.3-0.8
			c-0.3-0.3-0.6-0.7-0.8-1.2c-0.2-0.5-0.3-0.9-0.3-1.5c0-0.5,0.1-1,0.3-1.5s0.5-0.9,0.8-1.2c0.4-0.3,0.8-0.6,1.2-0.8
			c0.5-0.2,1-0.3,1.6-0.3c0.6,0,1.1,0.1,1.6,0.3c0.5,0.2,0.8,0.5,1.1,0.9s0.5,0.8,0.7,1.3c0.2,0.5,0.2,1,0.2,1.6h-5.8
			c0,0.3,0.1,0.6,0.2,0.8c0.1,0.3,0.3,0.5,0.4,0.7c0.2,0.2,0.4,0.3,0.7,0.4c0.3,0.1,0.6,0.2,1,0.2c0.4,0,0.8-0.1,1.2-0.2
			c0.4-0.2,0.7-0.4,1-0.7L110,79z M108.7,75.9c0-0.3-0.1-0.5-0.2-0.7c-0.1-0.2-0.2-0.4-0.4-0.6c-0.2-0.2-0.4-0.3-0.6-0.4
			s-0.5-0.1-0.8-0.1c-0.6,0-1.1,0.2-1.5,0.5c-0.4,0.3-0.6,0.8-0.7,1.3H108.7z"/>
		<path class="st1" d="M115.8,69.9h3v9h1.2v1.2h-2.9v-0.8c-0.3,0.3-0.7,0.6-1.1,0.7c-0.4,0.2-0.8,0.2-1.3,0.2
			c-0.5,0-0.9-0.1-1.3-0.2s-0.8-0.4-1.1-0.7c-0.3-0.3-0.6-0.7-0.8-1.2c-0.2-0.5-0.3-1-0.3-1.6c0-0.5,0.1-1,0.2-1.4
			c0.2-0.5,0.4-0.8,0.7-1.2c0.3-0.3,0.7-0.6,1.1-0.8s0.9-0.3,1.4-0.3c0.5,0,0.9,0.1,1.3,0.2s0.8,0.4,1.1,0.7v-2.7h-1.3L115.8,69.9
			L115.8,69.9z M113,76.6c0,0.3,0.1,0.7,0.1,0.9c0.1,0.3,0.2,0.5,0.4,0.8s0.4,0.4,0.7,0.5s0.6,0.2,0.9,0.2c0.3,0,0.5,0,0.7-0.1
			c0.2-0.1,0.4-0.2,0.6-0.3c0.2-0.1,0.3-0.2,0.4-0.3c0.1-0.1,0.2-0.2,0.3-0.2v-2.8c-0.1-0.1-0.1-0.1-0.3-0.3
			c-0.1-0.1-0.3-0.2-0.4-0.4c-0.2-0.1-0.4-0.2-0.6-0.3c-0.2-0.1-0.5-0.1-0.7-0.1c-0.3,0-0.6,0.1-0.9,0.2s-0.5,0.3-0.7,0.5
			c-0.2,0.2-0.3,0.5-0.4,0.8C113.1,75.9,113,76.2,113,76.6z"/>
	</g>
</g>
</svg>
