<?xml version="1.0" encoding="utf-8"?>
<!-- Generator: Adobe Illustrator 18.1.1, SVG Export Plug-In . SVG Version: 6.00 Build 0)  -->
<svg version="1.1" id="Layer_1" xmlns="http://www.w3.org/2000/svg" xmlns:xlink="http://www.w3.org/1999/xlink" x="0px" y="0px"
	 viewBox="0 91 612 612" enable-background="new 0 91 612 612" xml:space="preserve">
<g id="Guides">
</g>
<g id="md2a">
	<g id="LOGO">
		<path fill="#F1D2C3" d="M157.7,454.6c12.4,17.7,40.1,58.5,62.7,15.1c12.1-23.3,19-39.2,19-39.2V329l-29-40.1l-54.7,7.7l-16.2,46.3
			l-13.2,48.8l10.3,34"/>
		<path opacity="5.000000e-02" fill="#010101" enable-background="new    " d="M173,383.6c16.2,30.4,4.1,61.1-14.9,79.6
			c-7.6-6.2-12.6-18.7-12.6-18.7l-6.3-19l-3.6-30.4l0.8-17.2l10.4-2.2l16.9,2.9l8.5,4L173,383.6z"/>
		<path opacity="5.000000e-02" fill="#010101" enable-background="new    " d="M198.6,338.4c6.5,11.1,1.9,39.4,0.9,55
			c-1.9,31.6,5.2,60.2,23.6,71.2c7.8-5.9,10.1-25.1,10.1-25.1l7-18.7l4.8-30.3l-0.1-17.2l-5-9.8l-8.1-12.6l-9.3-7.3L198.6,338.4z"/>
		<path fill="#86584A" d="M172.8,384c-0.1,0.1,0-0.3-0.2-0.4c-0.1-0.1-0.6-0.4-1.2-0.5c-1.2-0.4-3.2-0.7-5.5-1.1s-5-0.8-8-1.4
			c-2.9-0.6-6-1.5-9.1-2c-6.3-1.1-12.7-1.6-17.5-1.6c-2.4,0.1-4.4,0.2-5.8,0.5c-0.7,0.1-1.2,0.2-1.6,0.3s-0.6,0.1-0.6,0.1l-0.2-0.4
			c0,0,0.2-0.1,0.6-0.2s0.9-0.4,1.6-0.6c1.4-0.5,3.4-1,5.8-1.4c2.4-0.4,5.3-0.7,8.4-0.7c3.1-0.1,6.4,0,9.6,0.2
			c3.3,0.2,6.6,0.4,9.6,0.9c1.5,0.3,3,0.7,4.4,1.1s2.6,0.9,3.8,1.4c2.3,1.1,4.2,2.2,5.3,3.4c0.6,0.6,1,1.1,1.1,1.7s-0.1,0.6-0.1,0.7
			H172.8z"/>
		<path fill="#CC5556" d="M154.4,548.5c7.7-52.2-28.2-37-14.7-67.9c6.9-15.9,3.8-25.9,0.6-29.3c-4.7-5-17.7-8.3-12.8-20.5
			c14.1-35.5-19.9-30.7-8.4-99.3c14.7-115.9,136.2-106.6,154.7-32.9c8.2,32.7,21.9,53.1,41.1,51.2c26.2-2.6,44.6-6.2,64,14.2
			c17.7,18.6,15.6,24.3,39.2,23.9c19.8-0.3,37.8,26.2,44.5,33.3c6.8,7.1,18.3,14.1,31.2,3.7c1.6-1.6,3.3-1.4,3.2,0.1
			c0,1.4-2.4,3.7-3.9,6.2c-2.5,4-5.3,16.2-16.5,17.1s-28.7-6.7-38.5,16.8c-10.8,26-30.5,28.4-51.9,15.2
			c-21.1-13-39.6,15.6-48.5,22.3c-11.5,8.7-22.8,20.7-41.1-8.7c-13.4-21.6-39.2-17-53.5-18.7c-17-2.1-39.1-20-40.5-73.4
			c-1-37.3,11.1-50.3-9.7-63.4c-20-12.6-10.6-31.7-18.2-31c-6.7,0.6,5,22.5-16.1,38.8c-15.9,12.3-26.2,79.7-3.7,95.5
			c17,11.9-0.9,32-3.7,37.1c-4.6,8.6,1.2,14.2,5,21.6c5.3,10.4,3,31.3,2.5,34.3C157.6,540.9,154.4,548.5,154.4,548.5z"/>
		<path fill="#010101" d="M175.7,415.1c-0.2-0.2-0.5-0.6-0.7-0.9s-0.4-0.8-0.7-1.2c-0.2-0.4-0.5-0.8-0.5-1.1
			c-0.1-0.4-0.2-0.6-0.2-0.9l0,0c2.1-1.1,3.2-2.6,2.9-4.9c-4.5,6-20.3,4.5-30.3,0.6c-12.3-4.9-18.6-12.7-22.8-19.5
			c1.5,5.4,5.8,11.2,11.7,15.7c0,0-0.1,0-0.1,0.1c-0.9,0.4-2.4,0.7-3.9,0.9c-1.5,0.2-3,0.1-4.1-0.1s-1.9-0.4-1.9-0.4
			s0.6,0.4,1.7,0.8s2.6,0.7,4.2,0.9c1.6,0.1,3.2,0.1,4.4-0.1c0.3-0.1,0.6-0.1,0.9-0.2c0.2-0.1,0.4-0.2,0.6-0.3
			c1.9,1.3,4,2.6,6.3,3.5c0.1,0,0.1,0.1,0.2,0.1l0,0c-0.9,0.7-2.5,1.4-4.1,2s-3.4,0.8-4.7,0.8c-0.7,0-1.2-0.1-1.6-0.2
			c-0.4-0.1-0.6-0.2-0.6-0.2s0.2,0.1,0.6,0.3c0.4,0.2,0.9,0.4,1.6,0.6c1.4,0.3,3.2,0.4,5,0.2c1.9-0.2,3.7-0.6,5.1-1.2
			c0.4-0.2,0.7-0.3,1-0.5c0.1-0.1,0.2-0.2,0.4-0.3c0.1-0.1,0.2-0.2,0.3-0.3c1.4,0.5,2.9,1,4.5,1.4c0,0.1-0.1,0.1-0.1,0.2
			c-0.1,0.2-0.2,0.5-0.3,0.8c-0.6,1.2-1.8,2.7-3.4,3.9c-1.6,1.2-3.5,2-5,2.3c-0.7,0.1-1.4,0.2-1.9,0.2s-0.7,0-0.7,0s0.2,0.1,0.7,0.2
			c0.4,0.1,1.1,0.2,1.9,0.2c1.6,0.1,3.9-0.4,5.8-1.3c2.1-0.9,3.9-2.4,5-3.8c0.3-0.4,0.5-0.7,0.7-1.1c0.1-0.2,0.2-0.6,0.4-0.7
			c1.5,0.3,3,0.6,4.5,0.7v0.1c-0.1,0.2-0.2,0.6-0.4,1c-0.6,1.5-2,3.5-3.7,5.3s-3.6,3.4-5.2,4.4c-0.8,0.5-1.5,0.8-2,1.1
			c-0.5,0.2-0.8,0.3-0.8,0.3s0.3-0.1,0.9-0.1c0.6-0.1,1.3-0.3,2.2-0.6c1.9-0.6,4.2-1.9,6.3-3.4s4.2-3.4,5.4-5.1
			c0.3-0.5,0.6-0.9,0.8-1.3s0.4-0.8,0.5-1.1c0.4,0,0.7,0,1.1,0c0,0.2,0,0.6-0.1,0.9c-0.2,1.4-0.9,3.5-2,5.5s-2.4,3.8-3.6,5
			c-0.6,0.6-1.2,1.1-1.6,1.3c-0.4,0.2-0.7,0.4-0.7,0.4s0.2-0.1,0.7-0.2c0.5-0.2,1.2-0.5,1.9-0.9c1.6-0.9,3.4-2.5,5-4.3
			s2.9-3.9,3.7-5.7c0.2-0.4,0.2-0.7,0.4-1.1c0,0.2,0,0.6,0,0.9c0,0.6-0.1,1.2-0.2,1.8c-0.1,0.6-0.2,1.2-0.4,1.8
			c-0.2,0.6-0.3,1.1-0.6,1.5c-0.2,0.4-0.4,0.8-0.6,0.9c-0.2,0.2-0.3,0.3-0.3,0.3s0.1-0.1,0.4-0.2c0.2-0.1,0.5-0.4,0.8-0.8
			s0.6-0.9,0.9-1.4c0.2-0.6,0.6-1.1,0.8-1.7s0.5-1.2,0.7-1.8c0.1-0.3,0.2-0.6,0.2-0.9c0.1,0.4,0.3,0.8,0.5,1.2
			c0.7,1.7,1.6,3.3,1.6,3.3s-0.1-1.8-0.1-3.7c0-0.5,0-0.9,0.1-1.2c0-0.4,0-0.7,0.1-1.1c0-0.1,0.1-0.2,0.1-0.4c0.2,0.3,0.4,0.7,0.7,1
			c0.3,0.5,0.7,0.7,1.1,1.1c0.4,0.3,0.7,0.7,1.1,0.9c0.4,0.2,0.8,0.4,1.1,0.6c0.6,0.4,1.1,0.6,1.1,0.6S176.2,415.7,175.7,415.1z"/>
		<path fill="#C6ABA1" d="M186.6,439c0,0,0.2,0.2,0.7,0.6c0.4,0.4,1,0.9,1.7,1.4c0.7,0.6,1.6,1.2,2.5,1.7c0.4,0.3,0.9,0.5,1.4,0.7
			c0.5,0.1,1,0.4,1.5,0.3c0.2,0,0.6,0.1,0.7,0.1c0.3-0.1,0.7-0.1,0.9-0.1c0.4-0.1,0.9-0.2,1.4-0.4c0.4-0.2,0.9-0.4,1.4-0.7
			c0.4-0.2,0.8-0.6,1.2-0.8c0.7-0.6,1.4-1.1,1.7-1.4c0.4-0.4,0.7-0.6,0.7-0.6s-0.1,0.3-0.3,0.8c-0.2,0.6-0.6,1.2-1.2,2.1
			c-0.3,0.4-0.6,0.9-1.1,1.2c-0.4,0.4-0.9,0.8-1.4,1.2c-0.6,0.3-1.2,0.7-2,0.9c-0.4,0.1-0.7,0.1-1,0.2c-0.5,0.1-0.8,0-1.2,0
			c-0.7,0-1.4-0.4-2.1-0.6c-0.6-0.3-1.2-0.7-1.7-1.1c-1-0.8-1.7-1.7-2.2-2.6c-0.6-0.8-0.9-1.6-1.1-2.1
			C186.7,439.3,186.6,439,186.6,439z"/>
		<path fill="#CC5556" d="M175.2,459.4c1.4,2.5,10.6,9.4,22.1,9.4c7.3,0,15.1-5.8,15.7-6.3c0.6-0.6,0.9-1.2,0-1.6s-3.4-0.5-4.7-1.1
			c-0.7-0.3-2.4-0.9-3-1.2c-0.6-0.4-0.6-0.2-1.7-0.8c-1-0.5-2.6-0.7-3.9-0.2c-0.9,0.3-2.1,0.7-3,0.9c-0.9,0.2-2.2,0-3-0.4
			c-0.8-0.3-2.9-1.4-4.9-0.7c-2.1,0.7-2,1.1-5,1.7c-1.2,0.2-3.5,0-4.3-0.2c-1.1-0.3-2.8-0.7-3.8-0.4
			C175.2,458.7,175,459,175.2,459.4"/>
		
			<linearGradient id="SVGID_1_" gradientUnits="userSpaceOnUse" x1="310.6359" y1="583.1596" x2="310.5125" y2="595.5697" gradientTransform="matrix(0.622 0 0 0.622 0 89.887)">
			<stop  offset="0" style="stop-color:#54160A;stop-opacity:0.4"/>
			<stop  offset="0.2028" style="stop-color:#56180C;stop-opacity:0.3189"/>
			<stop  offset="0.3656" style="stop-color:#5D1C12;stop-opacity:0.2538"/>
			<stop  offset="0.5145" style="stop-color:#69231A;stop-opacity:0.1942"/>
			<stop  offset="0.6551" style="stop-color:#7B2C26;stop-opacity:0.138"/>
			<stop  offset="0.79" style="stop-color:#943935;stop-opacity:8.400714e-02"/>
			<stop  offset="0.9186" style="stop-color:#B34948;stop-opacity:3.254241e-02"/>
			<stop  offset="1" style="stop-color:#CC5556;stop-opacity:0"/>
		</linearGradient>
		<path fill="url(#SVGID_1_)" d="M205.4,458.5c-0.6-0.4-0.6-0.2-1.7-0.8c-1-0.5-2.6-0.7-3.9-0.2c-0.9,0.3-2.1,0.7-3,0.9
			c-0.9,0.2-2.2,0-3-0.4c-0.8-0.3-2.9-1.4-4.9-0.7c-2.1,0.7-2,1.1-5,1.7c-1.2,0.2-3.5,0-4.3-0.2c-1-0.2-2.4-0.6-3.4-0.5
			c0.2,0.2,0.9,0.6,1.9,1c4.8,1.9,12.8,1.2,14.2,0.8c1.9-0.5,4.4-0.3,5.7,0.1s6.6,0.5,8.6,0.4c0.9-0.1,2.2-0.3,3.5-0.5
			c-0.6-0.1-1.1-0.2-1.6-0.4C207.7,459.4,206,458.8,205.4,458.5z"/>
		
			<linearGradient id="SVGID_2_" gradientUnits="userSpaceOnUse" x1="319.1925" y1="594.8451" x2="319.4069" y2="590.2094" gradientTransform="matrix(0.5979 6.655554e-03 -8.210590e-03 0.7373 8.7111 24.6265)">
			<stop  offset="0" style="stop-color:#54160A"/>
			<stop  offset="1" style="stop-color:#CC5556;stop-opacity:0"/>
		</linearGradient>
		<path opacity="0.65" fill="url(#SVGID_2_)" enable-background="new    " d="M177.5,459.5c0,0,0.1,0.1,0.4,0.2
			c0.2,0.1,0.6,0.4,1,0.6s1,0.4,1.6,0.7c0.6,0.2,1.4,0.4,2.2,0.7c0.8,0.2,1.7,0.4,2.6,0.6c0.9,0.2,1.9,0.4,2.9,0.5
			c1,0.2,2.1,0.2,3.2,0.4c1.1,0.1,2.2,0.2,3.3,0.2c1.1,0.1,2.2,0.1,3.3,0.1s2.2-0.1,3.2-0.1c1.1-0.1,2.1-0.1,3-0.2s1.9-0.2,2.7-0.3
			c0.8-0.1,1.6-0.2,2.2-0.4c0.7-0.1,1.2-0.2,1.7-0.4c0.9-0.2,1.5-0.3,1.5-0.3s-0.6,0.2-1.4,0.6c-0.5,0.1-1.1,0.4-1.7,0.6
			c-0.7,0.2-1.4,0.4-2.2,0.6s-1.7,0.3-2.7,0.5c-0.9,0.1-2,0.3-3,0.4c-1.1,0.1-2.1,0.2-3.2,0.2c-1.1,0.1-2.2,0-3.4-0.1
			c-1.1-0.1-2.2-0.2-3.4-0.2c-1.1-0.1-2.2-0.3-3.2-0.5s-2.1-0.4-3-0.7c-0.9-0.2-1.8-0.6-2.6-0.8c-0.8-0.3-1.5-0.6-2.1-0.9
			c-0.6-0.2-1.1-0.6-1.6-0.9c-0.4-0.2-0.7-0.5-0.9-0.7C177.6,459.6,177.5,459.5,177.5,459.5z"/>
	</g>
	<g id="TEXT_1_">
		<g>
			<path fill="#FFFFFF" d="M225.4,356c0.5,0,1,0.1,1.5,0.3c0.5,0.2,0.9,0.6,1.2,1c0.4,0.4,0.7,1,0.9,1.7s0.3,1.4,0.3,2.3
				c0,0.5,0,1-0.1,1.6s-0.1,1.1-0.3,1.8c-0.4,1.6-0.9,3-1.5,4.4s-1.4,2.7-2.2,3.9c-0.9,1.2-1.8,2.4-2.8,3.6
				c-1.1,1.2-2.1,2.4-3.2,3.5v0.6c0.9-1.1,1.8-1.9,2.6-2.4c0.7-0.4,1.5-0.7,2.2-0.7s1.3,0.2,1.9,0.5c0.6,0.3,1,0.9,1.3,1.6
				c0.1,0.2,0.2,0.6,0.2,0.9c0.1,0.3,0.1,0.7,0.1,1.1c0,0.2,0,0.4-0.1,0.6c0,0.2-0.1,0.4-0.1,0.7c0,0.1,0,0.1-0.1,0.2
				c0,0.1-0.1,0.2-0.1,0.2c-0.1,0.5-0.1,1-0.1,1.5c-0.1,0.5-0.1,1.1-0.1,1.6s0.1,1,0.1,1.4c0.1,0.4,0.2,0.9,0.3,1.3
				c0.1,0.1,0.2,0.2,0.3,0.2c0.2,0,0.4-0.1,0.7-0.2c0.2-0.1,0.4-0.2,0.6-0.3c0.2-0.1,0.3-0.2,0.5-0.3c0.1-0.1,0.2-0.1,0.3-0.1
				c0.2,0,0.5,0.1,0.7,0.2s0.3,0.4,0.5,0.8c0,0.2-0.1,0.4-0.4,0.7c-0.2,0.3-0.6,0.6-1,0.9c-0.4,0.2-0.8,0.5-1.3,0.7
				c-0.4,0.2-0.9,0.3-1.2,0.3c-0.4,0-0.9-0.1-1.2-0.4c-0.4-0.2-0.7-0.7-1-1.3c-0.1-0.3-0.2-0.7-0.2-1.3c0-0.1,0-0.2,0-0.4
				s0-0.3,0.1-0.4c0-0.6,0.1-1.4,0.2-2.3c0.1-0.9,0.2-1.8,0.2-2.7c0-0.9-0.1-1.6-0.3-2.2c-0.2-0.2-0.4-0.5-0.6-0.6
				c-0.2-0.1-0.4-0.1-0.7-0.1c-0.4,0-0.8,0.1-1.2,0.4c-0.5,0.3-0.9,0.7-1.4,1.2c-0.4,0.5-0.8,1-1.1,1.6s-0.5,1.2-0.5,1.7
				c-0.1,0.7-0.1,1.4-0.1,2.1s0,1.4-0.1,2.1c-0.1,0.6-0.2,1.2-0.5,1.7c-0.2,0.5-0.6,0.7-1.2,0.9c-0.3,0-0.6-0.1-0.7-0.2
				c-0.2-0.1-0.3-0.3-0.4-0.5c-0.1-0.2-0.1-0.4-0.1-0.6s-0.1-0.4-0.1-0.6c0-0.1,0-0.3,0-0.4s0-0.2,0.1-0.4c0.1-0.4,0.1-0.7,0.1-1.1
				c0.1-0.4,0.1-0.8,0.1-1.3s0-1.1,0.1-1.7c0-0.7,0-1.5,0-2.4c-0.2,0.2-0.4,0.4-0.7,0.6c-0.2,0.2-0.6,0.3-1,0.5
				c-0.4,0-0.8-0.3-1.1-1c0-0.3,0.1-0.6,0.2-0.7c0.1-0.2,0.4-0.4,0.6-0.6c0.2-0.2,0.6-0.4,0.9-0.6c0.3-0.2,0.7-0.6,1-1.1l-0.1-1.3
				c0-1.5,0.1-3,0.1-4.5c0.1-1.6,0.2-3,0.3-4.5c0.2-1.5,0.4-2.9,0.8-4.2c0.4-1.4,0.9-2.6,1.6-3.8c0.4-0.7,0.8-1.4,1.3-2
				s1-1.2,1.6-1.7s1.1-0.9,1.7-1.1C224.2,356.1,224.8,356,225.4,356z M219.2,376.7c0.8-0.9,1.6-1.9,2.4-2.9c0.8-1,1.5-2.1,2.2-3.2
				s1.2-2.2,1.7-3.4c0.5-1.2,0.8-2.4,1-3.5c0.1-0.5,0.1-0.9,0.2-1.3c0.1-0.4,0.1-0.7,0.1-1.1c0-1-0.1-1.7-0.4-2.1
				c-0.3-0.4-0.6-0.6-1-0.6c-0.9,0-1.7,0.3-2.3,0.9s-1.2,1.4-1.7,2.3c-0.4,0.9-0.8,2.1-1.1,3.4c-0.2,1.2-0.5,2.6-0.6,3.9
				c-0.1,1.4-0.2,2.7-0.3,4C219.2,374.3,219.2,375.6,219.2,376.7z"/>
			<path fill="#FFFFFF" d="M236.1,377.6c0.7,0,1.4,0.2,2,0.5s1.1,0.9,1.5,1.9c0.2,0.6,0.4,1.1,0.4,1.7c0.1,0.6,0.1,1.2,0.1,1.8
				c0,1.3-0.2,2.6-0.6,3.8c-0.4,1.2-0.9,2.3-1.6,3.2c-0.2,0.4-0.6,0.7-1.2,0.9c-0.6,0.2-1.2,0.4-2.1,0.5c-0.8,0-1.5-0.2-2.1-0.7
				s-0.9-1.1-1.2-1.9c-0.2-0.6-0.4-1.2-0.6-1.8c-0.1-0.6-0.2-1.3-0.2-2.1c0-0.9,0.1-1.9,0.3-2.9c0.2-0.9,0.6-1.8,1-2.6
				c0.4-0.7,1-1.4,1.7-1.8C234.5,377.8,235.2,377.6,236.1,377.6z M235.6,389.4c0.4,0,0.8-0.1,1.1-0.4c0.3-0.2,0.6-0.6,0.7-1.1
				c0.2-0.4,0.3-1,0.4-1.6c0.1-0.6,0.1-1.2,0.1-1.7c0-0.6-0.1-1.2-0.1-1.8c-0.1-0.6-0.2-1.1-0.4-1.4c-0.1-0.3-0.4-0.6-0.6-0.9
				c-0.2-0.3-0.6-0.5-0.9-0.5c-0.5,0-0.9,0.1-1.2,0.4c-0.3,0.2-0.6,0.6-0.8,1s-0.4,0.9-0.5,1.4c-0.1,0.6-0.1,1.1-0.1,1.6
				c0,0.7,0.1,1.3,0.2,2c0.1,0.7,0.3,1.2,0.6,1.8C234.3,389,234.7,389.4,235.6,389.4z"/>
			<path fill="#FFFFFF" d="M259.1,378.7c0.4,1,0.6,2.1,0.6,3.4c0,1.1-0.2,2.3-0.6,3.5s-0.9,2.2-1.6,3.2c-0.7,0.9-1.5,1.7-2.4,2.3
				c-0.9,0.6-2,0.9-3.2,0.9c-0.3,0-0.7-0.1-1.1-0.2c-0.4-0.1-0.8-0.3-1.2-0.5s-0.7-0.5-1-0.7c-0.3-0.3-0.6-0.6-0.7-1
				c-0.1-0.2-0.1-0.4-0.2-0.6c-0.1-0.2-0.1-0.4-0.1-0.6c-0.3,0.5-0.6,1-0.9,1.4c-0.3,0.5-0.7,0.9-1.1,1.2c-0.4,0.4-0.9,0.7-1.3,0.9
				c-0.5,0.2-1,0.3-1.6,0.3s-1.1-0.1-1.6-0.4c-0.5-0.2-0.9-0.7-1.1-1.3c-0.3-0.7-0.4-1.7-0.4-2.7c0-1.3,0.3-2.8,0.9-4.4
				c0.6-1.6,1.6-3.4,2.9-5.2c0.1-0.1,0.2-0.1,0.4-0.1s0.6,0.1,0.9,0.3c0.3,0.2,0.5,0.4,0.7,0.7v0.2c0,0.4-0.1,0.7-0.4,0.9
				c-0.3,0.2-0.6,0.5-1,0.7c-0.2,0.3-0.4,0.7-0.6,1.1c-0.2,0.4-0.3,0.9-0.5,1.4c-0.1,0.5-0.2,1.1-0.3,1.6c-0.1,0.6-0.1,1.1-0.1,1.7
				c0,0.4,0.1,0.9,0.1,1.4c0.1,0.4,0.2,0.9,0.4,1.2c0.1,0.1,0.1,0.2,0.1,0.2c0.1,0.1,0.1,0.1,0.2,0.1c0.4,0,0.8-0.2,1.2-0.6
				s0.9-0.9,1.2-1.6s0.7-1.3,1.1-2c0.3-0.7,0.5-1.4,0.6-1.9c0.1-0.4,0.1-1,0.2-1.6c0.1-0.6,0.2-1.2,0.4-1.7c0.1-0.6,0.4-1,0.6-1.4
				c0.2-0.4,0.6-0.6,1.1-0.6c0.3,0,0.6,0.1,1,0.3c0.3,0.2,0.6,0.6,0.7,1v0.2c0,0.4-0.1,0.9-0.2,1.3c-0.1,0.5-0.3,1-0.4,1.5
				c-0.1,0.5-0.3,1.1-0.4,1.7c-0.1,0.6-0.2,1.2-0.2,1.7c0,0.4,0.1,0.7,0.1,1.1s0.2,0.8,0.4,1.2c0.2,0.4,0.4,0.8,0.6,1.1
				c0.2,0.2,0.6,0.4,1,0.4c0.7,0,1.5-0.3,2.3-1c0.9-0.8,1.7-1.8,2.2-2.9s0.7-2.4,0.7-3.6c0-1.1-0.2-2.2-0.6-3.3
				c-0.2-0.5-0.4-0.9-0.7-1.1s-0.6-0.3-0.9-0.4s-0.6-0.2-0.9-0.3c-0.2-0.1-0.4-0.3-0.6-0.6c-0.1-0.1-0.1-0.2-0.1-0.2
				c0-0.4,0.4-0.7,1.4-0.7c0.5,0,0.9,0.1,1.4,0.3c0.4,0.2,0.9,0.4,1.2,0.7c0.4,0.3,0.7,0.6,1,1C258.8,378.1,259,378.4,259.1,378.7z"
				/>
			<path fill="#FFFFFF" d="M276.4,389.4c0,0.4-0.4,0.9-1.2,1.3c-0.8,0.4-1.9,0.7-3.3,0.8c-0.6,0-1.1-0.1-1.4-0.3
				c-0.4-0.2-0.6-0.6-0.9-1.2c-0.1-0.2-0.2-0.5-0.2-0.9c-0.1-0.4-0.1-0.7-0.1-1.2c0-1.1,0.1-2.4,0.2-3.7c0.2-1.4,0.3-2.7,0.4-3.9
				c-0.2-0.1-0.4-0.1-0.6-0.1c-0.1,0-0.2,0-0.4,0c-0.1,0-0.2,0-0.2,0s-0.2,0-0.4,0c-0.2,0-0.4,0-0.7,0c-0.2,0-0.7,0-1.1,0
				c-0.5,0-0.8-0.1-1-0.1c-0.2-0.1-0.3-0.3-0.3-0.6c0-0.1,0-0.2,0.1-0.4c0.1-0.1,0.1-0.3,0.2-0.5s0.4-0.3,0.9-0.4s1.3-0.1,2.2-0.1
				h1.4c0.1-0.4,0.2-0.9,0.2-1.5s0.1-1.4,0.1-2.3c0.1-0.4,0.1-0.8,0.1-1.2c0-0.4,0.1-0.7,0.1-1.1c0.1-0.3,0.2-0.6,0.4-0.8
				c0.2-0.2,0.6-0.3,1-0.3c0.2,0,0.5,0.1,0.7,0.2s0.5,0.3,0.7,0.6c0,0.1,0,0.1,0,0.2s0,0.4-0.1,0.8s-0.1,1.1-0.2,1.9s-0.2,2-0.4,3.4
				c0.2,0.1,0.5,0.1,0.7,0.1s0.4,0,0.6,0c0.1,0,0.2,0,0.4,0s0.3,0,0.5-0.1c0.2,0,0.5,0.1,0.7,0.2s0.3,0.4,0.5,0.7v0.2
				c0,0.1,0,0.2-0.1,0.3c-0.1,0.1-0.1,0.2-0.2,0.2c-0.3,0.1-0.7,0.2-1.2,0.3c-0.4,0.1-1.2,0.1-2.1,0.1c-0.1,0.7-0.1,1.6-0.2,2.6
				c-0.1,1.1-0.1,2.1-0.1,3c0,0.6,0,1.1,0.1,1.6c0,0.5,0.1,0.9,0.1,1.2l0.1,0.4c0.1,0.2,0.2,0.3,0.4,0.3c0.2,0,0.5-0.1,0.7-0.2
				s0.5-0.2,0.7-0.3c0.2-0.1,0.4-0.2,0.6-0.3c0.2-0.1,0.3-0.1,0.4-0.1c0.2,0,0.4,0.1,0.7,0.2c0.2,0.2,0.4,0.4,0.5,0.6v0.1h0V389.4z"
				/>
			<path fill="#FFFFFF" d="M282,377.6c0.7,0,1.4,0.2,2,0.5s1.1,0.9,1.5,1.9c0.2,0.6,0.4,1.1,0.4,1.7c0.1,0.6,0.1,1.2,0.1,1.8
				c0,1.3-0.2,2.6-0.6,3.8c-0.4,1.2-0.9,2.3-1.6,3.2c-0.2,0.4-0.6,0.7-1.2,0.9c-0.6,0.2-1.2,0.4-2.1,0.5c-0.8,0-1.5-0.2-2.1-0.7
				s-0.9-1.1-1.2-1.9c-0.2-0.6-0.4-1.2-0.6-1.8s-0.2-1.3-0.2-2.1c0-0.9,0.1-1.9,0.3-2.9c0.2-0.9,0.6-1.8,1-2.6
				c0.4-0.7,1-1.4,1.7-1.8C280.4,377.8,281.2,377.6,282,377.6z M281.5,389.4c0.4,0,0.8-0.1,1.1-0.4c0.3-0.2,0.6-0.6,0.7-1.1
				c0.2-0.4,0.3-1,0.4-1.6s0.1-1.2,0.1-1.7c0-0.6-0.1-1.2-0.1-1.8c-0.1-0.6-0.2-1.1-0.4-1.4c-0.1-0.3-0.4-0.6-0.6-0.9
				s-0.6-0.5-0.9-0.5c-0.5,0-0.9,0.1-1.2,0.4c-0.3,0.2-0.6,0.6-0.8,1c-0.2,0.4-0.4,0.9-0.5,1.4c-0.1,0.6-0.1,1.1-0.1,1.6
				c0,0.7,0.1,1.3,0.2,2s0.3,1.2,0.6,1.8C280.2,389,280.7,389.4,281.5,389.4z"/>
			<path fill="#FFFFFF" d="M310.4,378.7c0.1,0.1,0.1,0.3,0.1,0.4c0,0.4-0.4,0.7-1.3,0.8c-0.9,0.1-2.1,0.1-3.5,0.1
				c0.2,0.7,0.4,1.4,0.6,2.2c0.1,0.7,0.2,1.5,0.2,2.2c0,1-0.1,1.9-0.3,2.9c-0.2,0.9-0.6,1.7-0.9,2.4c-0.4,0.7-0.9,1.2-1.6,1.7
				c-0.6,0.4-1.3,0.6-2.1,0.6c-0.7,0-1.3-0.2-2-0.6s-1.3-1-1.9-1.9s-1.1-2-1.6-3.4c-0.4-1.4-0.7-3-0.8-5c-0.4,0.4-0.7,0.7-1,0.7
				c-0.2,0.1-0.3,0.1-0.4,0.1s-0.1,0-0.3-0.1c-0.1-0.1-0.3-0.1-0.4-0.2s-0.3-0.2-0.4-0.4c-0.1-0.1-0.2-0.3-0.2-0.6
				c0-0.2,0.1-0.4,0.2-0.6c0.2-0.1,0.4-0.2,0.6-0.4c0.2-0.1,0.5-0.3,0.8-0.5s0.6-0.4,0.8-0.8c0.1-1.5,0.2-3,0.4-4.5
				c0.2-1.6,0.4-3,0.7-4.5s0.7-2.9,1.2-4.4c0.5-1.4,1.2-2.8,2-4.1c0.3-0.6,0.7-1.1,1.1-1.8c0.4-0.6,0.9-1.2,1.5-1.7
				c0.6-0.6,1.2-1,1.9-1.3c0.7-0.4,1.5-0.6,2.4-0.6c0.6,0,1.2,0.1,1.8,0.4c0.6,0.2,1.1,0.6,1.6,1.1s0.9,1.1,1.2,1.7s0.4,1.5,0.4,2.4
				c0,0.6-0.1,1.2-0.2,1.8c-0.1,0.6-0.4,1.3-0.7,2.1c-0.6,1.4-1.3,2.7-2.2,3.9s-1.9,2.4-2.9,3.5c-1.1,1.1-2.2,2.2-3.4,3.3
				s-2.4,2.1-3.5,3c0,1,0.1,2.2,0.1,3.4c0.1,1.3,0.2,2.5,0.4,3.6c0.2,1.1,0.5,2.1,0.9,2.9c0.4,0.7,0.8,1.2,1.4,1.2
				c0.4,0,0.8-0.1,1.2-0.4c0.4-0.3,0.7-0.7,1-1.2c0.2-0.5,0.5-1.1,0.7-1.7c0.2-0.7,0.2-1.4,0.2-2.1c0-0.6-0.1-1.2-0.1-1.7
				c-0.1-0.6-0.2-1.2-0.5-1.7c-0.2-0.5-0.4-0.9-0.6-1c-0.2-0.2-0.4-0.2-0.5-0.3c-0.1-0.1-0.3-0.1-0.4-0.1c-0.1-0.1-0.3-0.2-0.4-0.5
				c0-0.1,0-0.2,0.1-0.4c0-0.2,0.1-0.3,0.1-0.6c0.1-0.2,0.2-0.4,0.3-0.5c0.1-0.1,0.2-0.2,0.4-0.2c0.6,0.1,1.1,0.2,1.6,0.4
				c0.5,0.1,1,0.1,1.6,0.2s1.1,0.1,1.7,0.1s1.3,0,2.1,0c0.2,0,0.5,0,0.6,0.1C310.2,378.2,310.3,378.4,310.4,378.7z M298.4,376.1
				c1-0.8,2.1-1.8,3.3-3c1.2-1.1,2.4-2.4,3.4-3.7c1.1-1.3,1.9-2.6,2.7-4c0.7-1.4,1.1-2.7,1.1-4c0-0.9-0.2-1.7-0.7-2.4
				c-0.5-0.7-1.3-1-2.5-1c-0.6,0.1-1.1,0.2-1.5,0.5c-0.5,0.3-0.9,0.6-1.2,1.1c-0.4,0.4-0.7,0.9-1,1.3c-0.3,0.5-0.6,0.9-0.8,1.4
				c-0.4,1.1-0.8,2.1-1.1,3.2s-0.6,2.1-0.8,3.2c-0.2,1.1-0.4,2.2-0.6,3.4C298.5,373.4,298.4,374.6,298.4,376.1z"/>
			<path fill="#FFFFFF" d="M320.5,388.9c0,0.1-0.1,0.2-0.1,0.2s-0.1,0.1-0.1,0.2c-0.6,0.5-1.1,0.9-1.6,1.3s-1.1,0.7-1.6,0.9
				c-0.6,0.2-1.1,0.4-1.7,0.6c-0.6,0.1-1.3,0.2-2,0.2c-1,0-1.8-0.2-2.6-0.5c-0.7-0.3-1.3-0.7-1.7-1.3c-0.5-0.6-0.8-1.2-1.1-1.9
				s-0.3-1.5-0.3-2.4s0.1-1.7,0.3-2.6c0.2-0.9,0.5-1.7,0.9-2.5s0.8-1.6,1.4-2.2c0.6-0.7,1.1-1.3,1.8-1.9c0.9-0.7,1.7-1.1,2.5-1.1
				c0.7,0,1.2,0.2,1.7,0.6s0.7,1.1,0.7,1.9c-0.1,0.5-0.2,1-0.5,1.6c-0.2,0.6-0.6,1.2-1.2,1.7c-0.5,0.6-1.1,1.1-1.9,1.5
				c-0.7,0.4-1.6,0.7-2.6,0.8c-0.1,0.2-0.2,0.4-0.2,0.7c-0.1,0.2-0.1,0.5-0.1,0.7c0,0.6,0.1,1.2,0.2,1.7c0.1,0.6,0.4,1.1,0.6,1.4
				c0.2,0.4,0.6,0.7,1.1,1s0.9,0.4,1.4,0.4c0.9,0,1.9-0.2,2.7-0.6c0.8-0.4,1.6-0.9,2.2-1.6c0.1-0.1,0.2-0.2,0.3-0.3
				c0.1-0.1,0.2-0.1,0.3-0.1c0.2,0,0.4,0.1,0.6,0.2s0.4,0.3,0.4,0.6L320.5,388.9L320.5,388.9z M311.3,382.2c0.3,0,0.6-0.1,1-0.3
				c0.3-0.2,0.6-0.5,0.9-0.9c0.2-0.4,0.5-0.7,0.7-1.2c0.2-0.4,0.3-0.8,0.3-1.2c0-0.1-0.1-0.2-0.2-0.2s-0.4,0.1-0.7,0.4
				c-0.3,0.2-0.6,0.6-1,0.9c-0.3,0.4-0.6,0.7-0.8,1.2c-0.2,0.4-0.4,0.7-0.4,1.1l0.1,0.2H311.3L311.3,382.2z"/>
			<path fill="#FFFFFF" d="M335.3,376.6c0.2,0,0.6,0.1,1,0.4c0.4,0.2,0.7,0.6,0.9,0.9c0.1,0.1,0.1,0.1,0.1,0.1c0,0.1,0,0.1,0,0.2
				s-0.1,0.5-0.1,1c-0.1,0.5-0.1,1.1-0.2,1.7c-0.1,0.7-0.1,1.4-0.2,2.1s-0.1,1.5-0.1,2.2c0,0.3,0,0.7,0.1,1.2c0,0.4,0.1,0.9,0.2,1.3
				s0.2,0.7,0.4,1.1c0.2,0.3,0.4,0.4,0.7,0.4c0.4,0,0.9-0.1,1.4-0.3c0.5-0.2,0.9-0.4,1.2-0.6c0.1,0,0.1-0.1,0.2-0.1
				c0.2,0,0.5,0.1,0.7,0.4s0.3,0.5,0.3,0.7c0,0.1-0.1,0.3-0.3,0.4c-0.2,0.2-0.4,0.4-0.7,0.6c-0.3,0.2-0.6,0.4-1,0.6
				s-0.8,0.3-1.2,0.4c-0.4,0.1-0.8,0.2-1.2,0.2c-0.4,0-0.7-0.1-1.1-0.2c-0.4-0.2-0.7-0.4-1-0.7s-0.6-0.7-0.7-1.1
				c-0.2-0.4-0.3-0.8-0.3-1.3c-0.2,0.2-0.4,0.6-0.8,1.1c-0.3,0.4-0.7,0.8-1.2,1.2c-0.4,0.4-0.9,0.7-1.4,1c-0.5,0.2-1.1,0.4-1.6,0.4
				c-0.4,0-0.8-0.1-1.1-0.3s-0.6-0.5-0.8-0.9c-0.2-0.4-0.4-0.7-0.5-1.2c-0.1-0.4-0.2-0.9-0.2-1.4c0-1.4,0.2-2.7,0.5-3.9
				s0.9-2.2,1.5-3.1c0.7-0.9,1.5-1.6,2.4-2.2s2.1-0.9,3.4-1c0.1-0.2,0.2-0.6,0.3-0.8C334.7,376.7,335,376.6,335.3,376.6z M330,389.3
				c0.9-0.5,1.6-1.2,2.2-2.2s1.1-2,1.3-3.2c0.1-0.4,0.2-0.9,0.2-1.3c0.1-0.5,0.1-0.9,0.1-1.4c0-0.1,0-0.3,0-0.4s0-0.3-0.1-0.4
				c-0.6,0-1.1,0.2-1.7,0.5s-1.1,0.8-1.4,1.4c-0.4,0.6-0.7,1.2-1,2.1c-0.2,0.8-0.4,1.7-0.4,2.6c0,0.4,0,0.7,0.1,1.1s0.1,0.8,0.2,1.2
				c0,0.1,0,0.1,0.1,0.2s0.1,0.1,0.1,0.1L330,389.3z"/>
		</g>
		<g>
			<path fill="#FFFFFF" d="M265.4,439.1c-0.1,1.6-0.2,3.1-0.4,4.7c-0.2,1.6-0.4,3.2-0.7,4.7c-0.3,1.6-0.7,3.1-1.2,4.5
				s-1.2,2.9-1.9,4.1c-1.3,2.1-2.9,3.4-4.7,4c-1.9,0.6-3.9,0.9-6,0.9h-0.8c-0.5,0-0.9-0.1-1.1-0.4c-0.2-0.2-0.4-0.6-0.5-0.9
				c-0.1-0.2-0.2-0.6-0.3-0.8c-0.1-0.3-0.1-0.6-0.1-0.7c0-0.7,0.2-1.3,0.8-1.7c0.6-0.4,1.5-0.7,2.9-0.7c2.5,0,4.4-0.7,5.8-2.1
				c1.4-1.4,2.4-3,2.9-5.1c0.4-1.6,0.8-3.6,1.1-6.2c0.3-2.5,0.5-5.2,0.7-8.2s0.3-6.1,0.4-9.4s0.1-6.5,0.2-9.7
				c-0.9,0.1-1.9,0.3-3.2,0.6c-1.2,0.3-2.5,0.7-3.8,1.2s-2.6,1.1-3.9,1.8c-1.3,0.7-2.5,1.5-3.5,2.4s-1.9,1.9-2.5,3s-0.9,2.4-0.9,3.7
				c0,0.4,0.1,0.8,0.1,1.2s0.2,1,0.3,1.6c0,0.6-0.2,0.9-0.7,1.2c-0.4,0.3-1,0.4-1.6,0.4s-1.1-0.1-1.6-0.4c-0.6-0.3-1.1-0.9-1.4-1.7
				c-0.6-1.2-0.8-2.4-0.8-3.5c0-2.1,0.7-4,2.2-5.8c1.4-1.7,3.4-3.3,5.6-4.7c2.3-1.3,4.9-2.4,7.7-3.3c2.8-0.9,5.6-1.4,8.3-1.7
				c0.1-0.8,0.2-1.7,0.4-2.6s0.6-1.8,1.1-2.7c0.4-0.8,1-1.5,1.6-2.1s1.4-0.9,2.2-0.9c0.6,0,1,0.2,1.4,0.5s0.8,0.7,1.1,1.2v0.1
				c0,0.9-0.4,1.2-1.2,1.2c-0.7,0.1-1.2,0.7-1.6,1.7c-0.3,1.1-0.4,2.1-0.4,3.3c1.2,0,2.7,0.1,4.4,0.4c1.7,0.2,3.4,0.7,5.1,1.3
				c1.7,0.6,3.2,1.5,4.7,2.6c1.4,1.1,2.6,2.6,3.3,4.2c0.4,0.8,0.6,1.6,0.7,2.4s0.2,1.6,0.2,2.2c0,1.7-0.4,3.2-1.1,4.7s-1.7,2.8-3,4
				c-1.2,1.2-2.7,2.2-4.4,3c-1.7,0.9-3.5,1.5-5.4,1.9c1.1,1.9,2.4,4,3.9,6.3s2.9,4.7,4.4,6.8c1.6,2.2,3,3.9,4.5,5.4
				c1.4,1.4,2.8,2.2,4,2.2c1.1,0,1.9-0.3,2.3-0.9s0.7-1.2,0.8-2c0.1-0.7,0.2-1.4,0.4-2.1c0.1-0.6,0.4-0.9,0.9-0.9s1,0.2,1.4,0.5
				c0.5,0.3,0.9,0.9,1.2,1.8c0.2,0.7,0.3,1.4,0.3,1.9c0,1.5-0.6,2.7-1.8,3.6c-1.2,0.9-2.8,1.4-4.8,1.4c-2.7,0-5-0.7-7.1-2.2
				s-4-3.4-5.8-5.8s-3.6-4.9-5.3-7.8C269.2,444.6,267.3,441.8,265.4,439.1z M265.8,434.7c0.7,0.2,1.2,0.4,1.7,0.4s0.9,0.1,1.4,0.1
				c3.6,0,6.3-0.8,8.1-2.4c1.9-1.6,2.8-3.7,2.8-6.1c0-0.7-0.1-1.5-0.2-2.3c-0.1-0.7-0.4-1.6-0.7-2.4c-1-2.3-2.6-3.9-4.7-4.7
				c-2.1-0.8-4.5-1.2-7.3-1.2c0,1.4-0.1,2.9-0.1,4.5c-0.1,1.6-0.1,3.2-0.2,4.9c-0.1,1.6-0.2,3.2-0.3,4.8
				C266.1,431.7,266,433.2,265.8,434.7z"/>
			<path fill="#FFFFFF" d="M315.5,457.6c-0.1,0.2-0.1,0.3-0.1,0.4c-0.1,0.1-0.1,0.2-0.2,0.4c-1,0.9-1.9,1.7-2.8,2.3
				c-0.9,0.7-1.8,1.2-2.8,1.7c-1,0.4-2,0.8-3,1.1c-1.1,0.2-2.2,0.4-3.5,0.4c-1.7,0-3.2-0.2-4.4-0.8c-1.2-0.6-2.2-1.3-3.1-2.2
				c-0.8-0.9-1.4-2.1-1.8-3.4s-0.6-2.7-0.6-4.1c0-1.5,0.2-3,0.6-4.5c0.4-1.6,0.9-3,1.5-4.4s1.4-2.7,2.4-3.9c0.9-1.2,2-2.3,3.1-3.2
				c1.5-1.3,3-1.9,4.4-1.9c1.1,0,2.1,0.4,2.9,1.1s1.2,1.9,1.2,3.2c-0.1,0.9-0.4,1.8-0.8,2.8c-0.4,1.1-1.1,2.1-2.1,3
				c-0.9,1-2,1.9-3.2,2.6c-1.3,0.7-2.8,1.2-4.5,1.4c-0.2,0.4-0.3,0.7-0.4,1.2c-0.1,0.4-0.1,0.9-0.1,1.4c0,1.1,0.1,2.1,0.4,3
				c0.2,1,0.6,1.8,1.1,2.6c0.5,0.7,1.1,1.3,1.8,1.7c0.7,0.4,1.6,0.7,2.6,0.7c1.7,0,3.2-0.4,4.7-1.1c1.4-0.7,2.7-1.6,3.9-2.7
				c0.2-0.2,0.4-0.4,0.6-0.5c0.1-0.1,0.3-0.2,0.6-0.2c0.4,0,0.7,0.1,1.1,0.4c0.4,0.2,0.6,0.6,0.8,1L315.5,457.6L315.5,457.6z
				 M299.5,445.8c0.6,0,1.1-0.2,1.7-0.6s1.1-0.9,1.6-1.6c0.5-0.6,0.9-1.3,1.2-2.1c0.3-0.7,0.5-1.4,0.5-2.1c0-0.2-0.1-0.4-0.3-0.4
				c-0.2,0-0.7,0.2-1.2,0.7c-0.6,0.4-1.1,1-1.7,1.6s-1.1,1.3-1.4,2.1c-0.4,0.7-0.6,1.3-0.6,1.9l0.1,0.4L299.5,445.8L299.5,445.8z"/>
			<path fill="#FFFFFF" d="M306.5,418.2c-0.4,0-0.8-0.2-1.1-0.6c-0.2-0.4-0.5-0.9-0.7-1.4c-0.2-0.7-0.4-1.5-0.5-2.2
				s-0.2-1.4-0.2-2.2c0-1.6,0.2-3.1,0.7-4.5s1.2-2.7,2.2-3.7c1-1.1,2.1-1.9,3.5-2.6s2.9-0.9,4.6-0.9c2.1,0.2,3.9,0.8,5.7,1.9
				s3.4,2.5,4.9,4.1c1.4,1.6,2.7,3.4,3.8,5.4c1.1,2,1.9,4,2.6,5.9c0.5,1.6,0.9,3.1,1.2,4.7c0.3,1.6,0.6,3.2,0.8,4.7
				c0.1,1.2,0.2,2.3,0.3,3.4c0.1,1.1,0.1,2.4,0.1,3.7c0,4-0.3,7.7-0.9,11.3c-0.6,3.5-1.5,6.6-2.7,9.2s-2.6,4.7-4.3,6.2
				c-1.7,1.5-3.6,2.2-5.7,2.2c-1.3-0.1-2.5-0.7-3.7-1.7c-1.2-1.1-2.1-2.6-2.7-4.7c-0.1-0.4-0.2-0.8-0.2-1.2
				c-0.1-0.4-0.1-0.9-0.1-1.4c0-0.8,0.1-1.7,0.2-2.6s0.3-1.7,0.6-2.6c0.2-0.9,0.5-1.7,0.8-2.4s0.6-1.4,0.9-2.1
				c0.4-0.7,0.9-1.4,1.6-2.2c0.6-0.7,1.2-1.5,1.8-2.2c0.6-0.7,1.2-1.2,1.8-1.6c0.6-0.4,1.1-0.6,1.6-0.6c0.4,0.1,0.7,0.2,1.1,0.5
				c0.3,0.2,0.5,0.6,0.6,0.9c0.1,0.1,0.1,0.2,0.1,0.3s0,0.2,0,0.3c0,0.4-0.1,0.9-0.4,1.3s-0.6,0.9-1.1,1.4c-0.4,0.6-0.9,1.2-1.4,1.9
				c-0.6,0.7-1,1.5-1.4,2.5c-0.1,0.2-0.2,0.6-0.4,1.1c-0.1,0.5-0.2,1.1-0.4,1.7c-0.1,0.7-0.2,1.4-0.2,2.1c-0.1,0.7-0.1,1.5-0.1,2.2
				c0,0.6,0,1.1,0.1,1.6s0.1,0.9,0.2,1.3c0.2,0.5,0.5,0.9,0.8,1.2c0.3,0.3,0.7,0.5,1.2,0.6c1.1,0,2.2-0.6,3.2-1.9s1.9-3,2.6-5.2
				s1.4-4.7,1.7-7.6c0.4-2.9,0.6-5.8,0.6-8.8c0-2.6-0.1-5-0.4-7.6s-0.9-4.9-1.6-7.2c-0.6-1.6-1.2-3.2-2-4.9
				c-0.8-1.7-1.8-3.2-2.9-4.6c-1.2-1.4-2.6-2.6-4-3.5c-1.6-0.9-3.2-1.5-5.2-1.6c-1.2,0-2.1,0.2-2.9,0.6s-1.4,1-1.9,1.7
				s-0.9,1.6-1.1,2.7c-0.2,1-0.4,2.1-0.4,3.3c0,0.5,0,1,0.1,1.5c0,0.5,0.1,1.1,0.2,1.6c0,0.5-0.1,0.9-0.4,1.1
				c-0.2,0.2-0.6,0.3-0.9,0.3h-0.2v-0.1H306.5z"/>
			<path fill="#FFFFFF" d="M354.6,399.9c0.9,0,1.7,0.2,2.6,0.6c0.8,0.4,1.6,1,2.2,1.7s1.2,1.7,1.6,2.9c0.4,1.2,0.6,2.5,0.6,4
				c0,0.9-0.1,1.7-0.1,2.7c-0.1,0.9-0.2,2-0.6,3.2c-0.6,2.7-1.5,5.2-2.6,7.6s-2.4,4.7-3.9,6.8c-1.5,2.2-3.1,4.3-4.9,6.3
				s-3.7,4.1-5.7,6.2v1c1.6-2,3.1-3.4,4.4-4.2c1.3-0.7,2.6-1.2,3.9-1.2c1.2,0,2.3,0.2,3.2,0.8c1,0.6,1.7,1.5,2.3,2.7
				c0.2,0.5,0.3,1,0.4,1.6s0.1,1.2,0.1,1.9c0,0.4,0,0.7-0.1,1.1c-0.1,0.3-0.1,0.7-0.1,1.2c0,0.1,0,0.2-0.1,0.4
				c-0.1,0.1-0.1,0.3-0.1,0.4c-0.1,0.9-0.2,1.7-0.2,2.6c-0.1,0.9-0.1,1.8-0.1,2.7c0,0.9,0.1,1.7,0.2,2.6c0.1,0.8,0.3,1.6,0.6,2.2
				c0.2,0.2,0.4,0.3,0.6,0.3c0.4,0,0.8-0.1,1.2-0.3c0.4-0.2,0.7-0.4,1.1-0.6c0.3-0.2,0.6-0.4,0.8-0.6c0.2-0.2,0.4-0.2,0.6-0.2
				c0.5,0,0.9,0.1,1.2,0.3c0.3,0.2,0.6,0.7,0.9,1.4c0,0.4-0.2,0.8-0.7,1.3c-0.5,0.6-1.1,1.1-1.8,1.6c-0.7,0.5-1.4,0.9-2.2,1.2
				c-0.8,0.3-1.6,0.5-2.2,0.5c-0.7,0-1.5-0.2-2.2-0.7s-1.3-1.2-1.7-2.2c-0.2-0.6-0.4-1.4-0.4-2.3c0-0.2,0-0.4,0-0.7s0.1-0.6,0.1-0.8
				c0.1-1.1,0.2-2.4,0.4-4c0.2-1.6,0.4-3.2,0.4-4.7c0-1.6-0.2-2.9-0.6-3.9c-0.3-0.5-0.6-0.8-0.9-1s-0.7-0.2-1.2-0.2
				c-0.7,0-1.4,0.2-2.2,0.8c-0.8,0.6-1.6,1.2-2.4,2.1c-0.7,0.8-1.4,1.7-2,2.8c-0.6,1-0.9,2.1-0.9,3c-0.1,1.2-0.1,2.4-0.1,3.7
				c0,1.2-0.1,2.4-0.2,3.5s-0.4,2.1-0.9,2.9c-0.4,0.8-1.1,1.4-2.1,1.6c-0.6,0-0.9-0.1-1.2-0.3c-0.3-0.2-0.6-0.5-0.7-0.9
				c-0.1-0.3-0.2-0.6-0.2-0.9c-0.1-0.3-0.1-0.6-0.1-1c0-0.2,0-0.5,0-0.7s0-0.4,0.1-0.6c0.1-0.7,0.2-1.3,0.2-2
				c0.1-0.7,0.1-1.4,0.1-2.3s0.1-1.9,0.1-3c0-1.2,0.1-2.6,0.1-4.2c-0.4,0.3-0.8,0.6-1.2,0.9s-1,0.6-1.7,0.9c-0.7,0-1.4-0.6-1.9-1.7
				c0-0.6,0.1-0.9,0.4-1.2c0.2-0.3,0.6-0.6,1.1-0.9c0.4-0.3,0.9-0.7,1.6-1.1c0.6-0.4,1.2-1.1,1.8-1.9l-0.1-2.2
				c0.1-2.6,0.1-5.2,0.2-7.8c0.1-2.7,0.3-5.3,0.6-7.8c0.3-2.6,0.8-5,1.4-7.4s1.6-4.6,2.7-6.7c0.7-1.2,1.4-2.4,2.3-3.4
				c0.9-1.1,1.7-2.1,2.7-2.9c0.9-0.8,1.9-1.5,2.9-2C352.6,400.1,353.6,399.9,354.6,399.9z M343.7,436.2c1.4-1.6,2.8-3.3,4.2-5
				s2.6-3.6,3.8-5.5c1.1-1.9,2.1-3.9,2.9-5.9c0.8-2.1,1.4-4.1,1.7-6.2c0.1-0.9,0.2-1.7,0.3-2.3c0.1-0.7,0.1-1.3,0.1-1.9
				c0-1.7-0.2-3-0.7-3.7s-1.1-1.1-1.7-1.1c-1.6,0-2.9,0.5-4,1.6c-1.1,1-2.1,2.4-2.9,4c-0.8,1.7-1.4,3.6-1.9,5.8
				c-0.5,2.2-0.9,4.5-1.1,6.8c-0.2,2.4-0.4,4.7-0.6,7C343.8,432,343.7,434.2,343.7,436.2z"/>
			<path fill="#FFFFFF" d="M387.1,457.6c-0.1,0.2-0.1,0.3-0.1,0.4c-0.1,0.1-0.1,0.2-0.2,0.4c-1,0.9-1.9,1.7-2.8,2.3
				c-0.9,0.7-1.8,1.2-2.8,1.7s-2,0.8-3,1.1c-1.1,0.2-2.2,0.4-3.5,0.4c-1.7,0-3.2-0.2-4.4-0.8c-1.2-0.6-2.2-1.3-3.1-2.2
				c-0.8-0.9-1.4-2.1-1.8-3.4s-0.6-2.7-0.6-4.1c0-1.5,0.2-3,0.6-4.5s0.9-3,1.5-4.4s1.4-2.7,2.4-3.9c0.9-1.2,2-2.3,3.1-3.2
				c1.5-1.3,3-1.9,4.4-1.9c1.1,0,2.1,0.4,2.9,1.1s1.2,1.9,1.2,3.2c-0.1,0.9-0.4,1.8-0.8,2.8c-0.4,1.1-1.1,2.1-2.1,3
				c-0.9,1-2,1.9-3.2,2.6c-1.3,0.7-2.8,1.2-4.5,1.4c-0.2,0.4-0.3,0.7-0.4,1.2c-0.1,0.4-0.1,0.9-0.1,1.4c0,1.1,0.1,2.1,0.4,3
				c0.2,1,0.6,1.8,1.1,2.6c0.5,0.7,1.1,1.3,1.8,1.7c0.7,0.4,1.6,0.7,2.6,0.7c1.7,0,3.2-0.4,4.7-1.1c1.4-0.7,2.7-1.6,3.9-2.7
				c0.2-0.2,0.4-0.4,0.6-0.5c0.1-0.1,0.3-0.2,0.6-0.2c0.4,0,0.7,0.1,1.1,0.4c0.4,0.2,0.6,0.6,0.8,1L387.1,457.6L387.1,457.6z
				 M371.1,445.8c0.6,0,1.1-0.2,1.7-0.6s1.1-0.9,1.6-1.6c0.5-0.6,0.9-1.3,1.2-2.1c0.3-0.7,0.5-1.4,0.5-2.1c0-0.2-0.1-0.4-0.3-0.4
				c-0.2,0-0.7,0.2-1.2,0.7c-0.6,0.4-1.1,1-1.7,1.6s-1.1,1.3-1.4,2.1c-0.4,0.7-0.6,1.3-0.6,1.9l0.1,0.4L371.1,445.8L371.1,445.8z"/>
			<path fill="#FFFFFF" d="M400.1,436c0.4,0,1,0.2,1.7,0.7c0.7,0.4,1.2,1,1.6,1.6c0.1,0.1,0.1,0.2,0.1,0.2c0,0.1,0,0.2,0.1,0.3
				c-0.1,0.2-0.1,0.8-0.2,1.7c-0.1,0.9-0.2,1.9-0.4,3c-0.1,1.2-0.2,2.4-0.4,3.7c-0.1,1.3-0.2,2.6-0.2,3.8c0,0.6,0,1.2,0.1,2.1
				c0.1,0.8,0.1,1.6,0.3,2.3c0.2,0.7,0.4,1.4,0.7,1.9c0.3,0.5,0.7,0.7,1.2,0.7c0.7,0,1.6-0.2,2.4-0.6c0.9-0.4,1.6-0.7,2.1-1
				c0.1-0.1,0.2-0.1,0.4-0.1c0.4,0,0.9,0.2,1.2,0.7c0.4,0.4,0.6,0.9,0.6,1.4c0,0.2-0.2,0.6-0.6,0.8c-0.3,0.3-0.7,0.6-1.2,1
				c-0.6,0.4-1.1,0.7-1.8,1c-0.7,0.3-1.4,0.6-2.1,0.7c-0.7,0.2-1.4,0.3-2.2,0.3c-0.6,0-1.2-0.2-1.9-0.4c-0.6-0.3-1.2-0.7-1.7-1.2
				c-0.5-0.6-0.9-1.1-1.2-1.9c-0.3-0.7-0.5-1.4-0.5-2.2c-0.3,0.5-0.7,1.1-1.4,1.8c-0.6,0.7-1.3,1.4-2.1,2.1
				c-0.8,0.7-1.7,1.2-2.6,1.7c-0.9,0.4-1.8,0.7-2.7,0.7c-0.7,0-1.4-0.2-2-0.6s-1.1-0.9-1.4-1.5c-0.4-0.6-0.7-1.3-0.9-2.1
				c-0.2-0.8-0.3-1.6-0.3-2.4c0-2.5,0.3-4.7,0.9-6.8c0.6-2.1,1.5-3.9,2.7-5.5s2.6-2.8,4.3-3.8c1.7-0.9,3.6-1.6,5.8-1.7
				c0.2-0.4,0.4-0.9,0.6-1.4C399.1,436.3,399.5,436,400.1,436z M391,458.3c1.6-0.9,2.9-2.2,3.9-3.8c1.1-1.7,1.8-3.5,2.3-5.6
				c0.2-0.7,0.3-1.5,0.4-2.3s0.2-1.7,0.2-2.6c0-0.2,0-0.6,0-0.8s0-0.6-0.1-0.8c-1,0-2,0.3-2.9,0.9s-1.8,1.4-2.6,2.4
				c-0.7,1-1.4,2.2-1.8,3.6s-0.7,2.9-0.7,4.5c0,0.7,0.1,1.3,0.1,2c0.1,0.7,0.2,1.4,0.4,2.1c0,0.1,0.1,0.2,0.1,0.3
				c0.1,0.1,0.1,0.1,0.2,0.1L391,458.3z"/>
			<path fill="#FFFFFF" d="M399.8,418.2c-0.4,0-0.8-0.2-1.1-0.6c-0.2-0.4-0.5-0.9-0.7-1.4c-0.2-0.7-0.4-1.5-0.5-2.2
				s-0.2-1.4-0.2-2.2c0-1.6,0.2-3.1,0.7-4.5s1.2-2.7,2.2-3.7s2.1-1.9,3.5-2.6c1.4-0.6,2.9-0.9,4.6-0.9c2.1,0.2,3.9,0.8,5.7,1.9
				c1.7,1.1,3.4,2.5,4.9,4.1c1.4,1.6,2.7,3.4,3.8,5.4c1.1,2,1.9,4,2.6,5.9c0.5,1.6,0.9,3.1,1.2,4.7c0.3,1.6,0.6,3.2,0.8,4.7
				c0.1,1.2,0.2,2.3,0.3,3.4c0.1,1.1,0.1,2.4,0.1,3.7c0,4-0.3,7.7-0.9,11.3c-0.6,3.5-1.5,6.6-2.7,9.2s-2.6,4.7-4.3,6.2
				s-3.6,2.2-5.7,2.2c-1.3-0.1-2.5-0.7-3.7-1.7c-1.2-1.1-2.1-2.6-2.7-4.7c-0.1-0.4-0.2-0.8-0.2-1.2c-0.1-0.4-0.1-0.9-0.1-1.4
				c0-0.8,0.1-1.7,0.2-2.6s0.3-1.7,0.6-2.6c0.2-0.9,0.5-1.7,0.8-2.4s0.6-1.4,0.9-2.1c0.4-0.7,0.9-1.4,1.6-2.2
				c0.6-0.7,1.2-1.5,1.8-2.2c0.6-0.7,1.2-1.2,1.8-1.6c0.6-0.4,1.1-0.6,1.6-0.6c0.4,0.1,0.7,0.2,1.1,0.5c0.3,0.2,0.5,0.6,0.6,0.9
				c0.1,0.1,0.1,0.2,0.1,0.3s0,0.2,0,0.3c0,0.4-0.1,0.9-0.4,1.3s-0.6,0.9-1.1,1.4c-0.4,0.6-0.9,1.2-1.4,1.9c-0.6,0.7-1,1.5-1.4,2.5
				c-0.1,0.2-0.2,0.6-0.4,1.1c-0.1,0.5-0.2,1.1-0.4,1.7c-0.1,0.6-0.2,1.4-0.2,2.1c-0.1,0.7-0.1,1.5-0.1,2.2c0,0.6,0,1.1,0.1,1.6
				s0.1,0.9,0.2,1.3c0.2,0.5,0.5,0.9,0.8,1.2c0.3,0.3,0.7,0.5,1.2,0.6c1.1,0,2.2-0.6,3.2-1.9s1.9-3,2.6-5.2s1.4-4.7,1.7-7.6
				c0.4-2.9,0.6-5.8,0.6-8.8c0-2.6-0.1-5-0.4-7.6s-0.9-4.9-1.6-7.2c-0.6-1.6-1.2-3.2-2-4.9c-0.8-1.7-1.8-3.2-2.9-4.6
				c-1.2-1.4-2.6-2.6-4-3.5c-1.6-0.9-3.2-1.5-5.2-1.6c-1.2,0-2.1,0.2-2.9,0.6s-1.4,1-1.9,1.7s-0.9,1.6-1.1,2.7
				c-0.2,1-0.4,2.1-0.4,3.3c0,0.5,0,1,0.1,1.5c0,0.5,0.1,1.1,0.2,1.6c0,0.5-0.1,0.9-0.4,1.1c-0.2,0.2-0.6,0.3-0.9,0.3h-0.2v-0.1
				H399.8z"/>
		</g>
		<g>
			<path fill="#010101" d="M340.9,327.5c0,0.1-0.1,0.2-0.2,0.4c-0.1,0.2-0.3,0.4-0.5,0.5c-0.2,0.2-0.4,0.3-0.7,0.4
				c-0.2,0.1-0.6,0.2-0.9,0.2s-0.6-0.1-0.7-0.2c-0.2-0.1-0.3-0.3-0.4-0.5c-0.1-0.1-0.1-0.2-0.1-0.4c-0.1-0.2-0.1-0.4-0.1-0.9
				c0-0.4,0.1-1.1,0.1-1.7c0.1-0.7,0.1-1.4,0.1-2.1c0-0.4-0.1-0.7-0.1-1c-0.2,0.1-0.4,0.2-0.6,0.2c-0.2,0.1-0.4,0.1-0.4,0.1
				c-0.1,0-0.2-0.1-0.4-0.1c-0.1-0.1-0.2-0.2-0.2-0.4c0-0.1,0-0.1,0-0.2s0.1-0.2,0.1-0.3c0.2-0.1,0.5-0.2,0.9-0.3
				c0.3-0.1,0.7-0.2,1-0.4c0.3-0.1,0.6-0.2,0.9-0.4c0.2-0.1,0.5-0.2,0.6-0.2s0.2,0.1,0.4,0.2c0.1,0.1,0.2,0.2,0.3,0.4
				c0,0.1-0.1,0.2-0.1,0.3c-0.1,0.1-0.2,0.2-0.4,0.3c-0.1,0.3-0.1,0.6-0.2,1s-0.1,0.7-0.1,1.1c-0.1,0.4-0.1,0.7-0.1,1.1s0,0.7,0,1
				c0,0.4,0,0.7,0.1,1c0,0.3,0.1,0.5,0.1,0.7c0.1,0.1,0.1,0.1,0.2,0.1s0.2,0,0.3-0.1c0.1-0.1,0.2-0.1,0.3-0.2
				c0.1-0.1,0.2-0.1,0.2-0.2c0.1-0.1,0.2-0.1,0.2-0.1c0.2,0,0.3,0.1,0.4,0.1C340.7,327.2,340.8,327.3,340.9,327.5z M337.2,315.2
				c0-0.3,0.1-0.6,0.2-0.9c0.1-0.2,0.4-0.4,0.6-0.4s0.5,0.1,0.6,0.2c0.1,0.2,0.2,0.4,0.3,0.6c0.1,0.2,0.1,0.4,0.1,0.5
				c0,0.2-0.1,0.5-0.2,0.7s-0.3,0.3-0.6,0.4c-0.2,0-0.5-0.1-0.7-0.3c-0.2-0.2-0.3-0.4-0.3-0.7V315.2L337.2,315.2z"/>
			<path fill="#010101" d="M347.8,327.7c0,0.2-0.2,0.6-0.7,0.8c-0.5,0.2-1.2,0.4-2.1,0.5c-0.4,0-0.7-0.1-0.9-0.2
				c-0.2-0.1-0.4-0.4-0.6-0.7c-0.1-0.1-0.1-0.3-0.1-0.6c0-0.2-0.1-0.4-0.1-0.7c0-0.7,0.1-1.5,0.2-2.4s0.2-1.7,0.2-2.4
				c-0.2-0.1-0.3-0.1-0.4-0.1s-0.2,0-0.2,0c-0.1,0-0.1,0-0.1,0c-0.1,0-0.1,0-0.2,0s-0.2,0-0.4,0c-0.2,0-0.4,0-0.7,0
				c-0.3,0-0.5-0.1-0.6-0.1c-0.1-0.1-0.2-0.2-0.2-0.4c0-0.1,0-0.1,0.1-0.2c0-0.1,0.1-0.2,0.1-0.3c0.1-0.1,0.2-0.2,0.6-0.2
				s0.8-0.1,1.4-0.1h0.9c0.1-0.2,0.1-0.6,0.1-0.9c0-0.4,0-0.9,0.1-1.4c0.1-0.2,0.1-0.5,0.1-0.7s0.1-0.5,0.1-0.7
				c0.1-0.2,0.1-0.4,0.2-0.5s0.3-0.2,0.6-0.2c0.2,0,0.3,0.1,0.5,0.1c0.2,0.1,0.3,0.2,0.4,0.4c0,0.1,0,0.1,0,0.1c0,0.1,0,0.2-0.1,0.5
				s-0.1,0.6-0.1,1.2c-0.1,0.5-0.1,1.2-0.2,2.1c0.2,0.1,0.3,0.1,0.4,0.1s0.2,0,0.4,0c0.1,0,0.2,0,0.2,0s0.2,0,0.3-0.1
				c0.2,0,0.3,0.1,0.4,0.1c0.1,0.1,0.2,0.2,0.3,0.4v0.1c0,0.1,0,0.1-0.1,0.2s-0.1,0.1-0.1,0.1c-0.2,0.1-0.4,0.2-0.7,0.2
				c-0.3,0.1-0.7,0.1-1.3,0.1c-0.1,0.4-0.1,1-0.1,1.6c-0.1,0.7-0.1,1.3-0.1,1.9c0,0.4,0,0.7,0,1s0.1,0.6,0.1,0.7l0.1,0.2
				c0.1,0.1,0.2,0.2,0.2,0.2c0.2,0,0.3-0.1,0.4-0.1c0.1-0.1,0.3-0.1,0.4-0.2s0.2-0.1,0.4-0.2c0.1-0.1,0.2-0.1,0.2-0.1
				c0.1,0,0.2,0.1,0.4,0.1c0.1,0.1,0.2,0.2,0.3,0.4L347.8,327.7L347.8,327.7L347.8,327.7z"/>
			<path fill="#010101" d="M351.2,312.9c0.2,0,0.4,0.1,0.6,0.2s0.3,0.3,0.4,0.5s0.2,0.4,0.3,0.7c0.1,0.2,0.1,0.6,0.2,0.9
				c0,0.4-0.1,0.7-0.2,1.1s-0.2,0.7-0.4,1.1c-0.2,0.4-0.4,0.7-0.7,1c-0.2,0.3-0.6,0.6-0.9,0.7c-0.1,0.1-0.1,0.1-0.2,0.1
				c-0.2,0-0.4-0.1-0.5-0.2c-0.2-0.1-0.2-0.2-0.2-0.3c0.2-0.2,0.4-0.5,0.6-0.7s0.4-0.5,0.5-0.7c0.2-0.2,0.3-0.5,0.4-0.7
				s0.1-0.5,0.1-0.7c0-0.1,0-0.2,0-0.3c0-0.1-0.1-0.2-0.1-0.3c-0.1-0.1-0.1-0.2-0.2-0.4c-0.1-0.1-0.2-0.2-0.2-0.3
				c-0.1-0.1-0.1-0.2-0.2-0.3c-0.1-0.1-0.1-0.2-0.1-0.3c0-0.2,0.1-0.4,0.2-0.6C350.7,313,350.9,312.9,351.2,312.9z"/>
			<path fill="#010101" d="M360,320.8c0,0.2-0.1,0.3-0.1,0.4c-0.1,0.1-0.2,0.2-0.4,0.2c-0.2,0-0.4-0.1-0.6-0.2s-0.4-0.2-0.7-0.2
				c-0.2,0-0.4,0.1-0.6,0.1c-0.2,0.1-0.3,0.2-0.4,0.3c-0.1,0.1-0.2,0.2-0.2,0.4c-0.1,0.1-0.1,0.3-0.1,0.4c0,0.2,0,0.3,0.1,0.4
				c0.1,0.2,0.2,0.4,0.3,0.6c0.1,0.2,0.2,0.3,0.4,0.5c0.1,0.2,0.2,0.3,0.4,0.5c0.1,0.2,0.2,0.4,0.4,0.7c0.2,0.4,0.3,0.9,0.3,1.4
				c0,0.4-0.1,0.7-0.2,1s-0.2,0.6-0.4,0.9c-0.2,0.2-0.4,0.5-0.6,0.7s-0.4,0.4-0.6,0.4c-0.4,0.2-0.9,0.2-1.4,0.2
				c-0.4,0-0.9-0.1-1.2-0.2c-0.4-0.2-0.7-0.6-0.9-1.1c-0.1-0.1-0.1-0.3-0.1-0.4c-0.1-0.1-0.1-0.3-0.1-0.4c0-0.2,0.1-0.4,0.1-0.6
				c0.1-0.1,0.2-0.2,0.6-0.2c0.1,0,0.3,0.1,0.5,0.1c0.2,0.1,0.3,0.2,0.4,0.5l0.1,0.4c0.2,0.4,0.4,0.6,0.7,0.6c0.5,0,0.9-0.2,1.2-0.5
				c0.3-0.3,0.4-0.7,0.4-1.1c0-0.2-0.1-0.5-0.1-0.7c-0.1-0.2-0.2-0.4-0.3-0.5c-0.1-0.1-0.2-0.3-0.4-0.4c-0.1-0.2-0.3-0.4-0.4-0.6
				s-0.3-0.5-0.4-0.9c-0.2-0.4-0.2-0.8-0.2-1.2c0-0.4,0.1-0.7,0.2-1.1c0.2-0.4,0.4-0.7,0.6-0.9c0.2-0.2,0.6-0.5,1-0.7
				s0.8-0.2,1.2-0.2c0.4,0,0.7,0.1,0.9,0.4C359.6,320,359.8,320.3,360,320.8L360,320.8z"/>
			<path fill="#010101" d="M373.5,319.6c0.1,0,0.4,0.1,0.6,0.2c0.2,0.2,0.4,0.4,0.6,0.6c0.1,0.1,0.1,0.1,0.1,0.1v0.1
				c0,0.1-0.1,0.3-0.1,0.6c-0.1,0.3-0.1,0.7-0.1,1.1c-0.1,0.4-0.1,0.9-0.1,1.3c-0.1,0.5-0.1,0.9-0.1,1.4c0,0.2,0,0.4,0,0.7
				s0.1,0.6,0.1,0.8c0.1,0.2,0.1,0.5,0.2,0.7s0.2,0.2,0.4,0.2c0.2,0,0.6-0.1,0.9-0.2s0.6-0.2,0.7-0.4c0.1,0,0.1,0,0.1,0
				c0.2,0,0.3,0.1,0.4,0.2s0.2,0.3,0.2,0.5c0,0.1-0.1,0.2-0.2,0.3c-0.1,0.1-0.2,0.2-0.4,0.4c-0.2,0.1-0.4,0.2-0.6,0.4
				c-0.2,0.1-0.5,0.2-0.7,0.2c-0.2,0.1-0.5,0.1-0.7,0.1s-0.4-0.1-0.7-0.2c-0.2-0.1-0.4-0.2-0.6-0.4c-0.2-0.2-0.3-0.4-0.4-0.7
				c-0.1-0.2-0.2-0.5-0.2-0.8c-0.1,0.2-0.2,0.4-0.5,0.6c-0.2,0.2-0.4,0.5-0.7,0.7c-0.3,0.2-0.6,0.4-0.9,0.6s-0.6,0.2-1,0.2
				c-0.2,0-0.5-0.1-0.7-0.2s-0.4-0.3-0.5-0.6c-0.1-0.2-0.2-0.5-0.3-0.7c-0.1-0.3-0.1-0.6-0.1-0.9c0-0.9,0.1-1.7,0.3-2.4
				c0.2-0.7,0.5-1.4,0.9-1.9c0.4-0.6,0.9-1,1.6-1.4c0.6-0.3,1.3-0.6,2.1-0.6c0.1-0.2,0.1-0.3,0.2-0.5
				C373.1,319.8,373.3,319.6,373.5,319.6z M370.2,327.6c0.6-0.3,1-0.7,1.4-1.4c0.4-0.6,0.7-1.2,0.8-2c0.1-0.2,0.1-0.6,0.1-0.8
				c0.1-0.3,0.1-0.6,0.1-0.9c0-0.1,0-0.2,0-0.3s0-0.2,0-0.3c-0.4,0-0.7,0.1-1.1,0.3c-0.3,0.2-0.6,0.5-0.9,0.9
				c-0.2,0.4-0.5,0.8-0.6,1.3c-0.2,0.5-0.2,1.1-0.2,1.6c0,0.2,0,0.5,0.1,0.7c0,0.2,0.1,0.5,0.1,0.7c0,0.1,0,0.1,0.1,0.1
				S370.2,327.6,370.2,327.6L370.2,327.6z"/>
			<path fill="#010101" d="M393.5,312.1c-0.1,0.8-0.4,1.7-0.8,2.6s-0.9,1.7-1.4,2.6c-0.6,0.9-1.2,1.7-1.9,2.4
				c-0.7,0.7-1.5,1.4-2.3,2.1c0,0.4,0.1,0.9,0.1,1.4c0.1,0.5,0.1,1,0.2,1.4c0.1,0.5,0.2,0.9,0.2,1.4c0.1,0.4,0.2,0.8,0.4,1.1
				c0.1,0.3,0.2,0.5,0.4,0.6c0.1,0.1,0.3,0.1,0.4,0.1c0.2,0,0.5-0.1,0.8-0.2c0.2-0.1,0.5-0.2,0.8-0.4c0.2-0.2,0.5-0.4,0.7-0.6
				s0.4-0.4,0.6-0.6c0.1-0.1,0.1-0.1,0.2-0.1s0.1-0.1,0.1-0.1c0.2,0,0.3,0.1,0.4,0.1c0.1,0.1,0.2,0.2,0.3,0.4
				c-0.1,0-0.1,0.1-0.1,0.2v0.1c-0.2,0.4-0.5,0.7-0.8,1s-0.7,0.6-1.1,0.7c-0.4,0.2-0.7,0.4-1.1,0.5s-0.7,0.2-1,0.2
				c-0.2,0-0.5,0-0.7-0.1s-0.5-0.1-0.7-0.2s-0.4-0.3-0.6-0.6c-0.2-0.2-0.4-0.5-0.5-0.9c-0.2-0.7-0.4-1.5-0.6-2.4
				c-0.1-0.9-0.1-1.7-0.2-2.4c0,0.1-0.1,0.1-0.1,0.1c-0.1,0.1-0.1,0.1-0.2,0.1c-0.2,0-0.3-0.1-0.4-0.1c-0.1-0.1-0.2-0.2-0.3-0.3
				c-0.1-0.1-0.1-0.1-0.1-0.2s0-0.1,0-0.1c0-0.1,0.1-0.2,0.1-0.2c0.1-0.1,0.1-0.1,0.2-0.2s0.2-0.1,0.4-0.2c0.1-0.1,0.3-0.2,0.4-0.3
				c0.1-2.1,0.4-3.9,0.7-5.4c0.3-1.6,0.8-3.1,1.4-4.5c0.3-0.6,0.6-1.2,0.8-1.7c0.2-0.5,0.6-0.9,0.9-1.2c0.3-0.3,0.6-0.6,1-0.7
				c0.4-0.2,0.7-0.2,1.2-0.2c0.4,0,0.8,0.1,1.2,0.4c0.4,0.2,0.6,0.6,0.8,1.1c0.2,0.5,0.3,1.1,0.3,1.9c0,0.2,0,0.4,0,0.6
				C393.6,311.6,393.5,311.9,393.5,312.1z M392,311.6c0.1-0.3,0.1-0.6,0.1-0.9c0-0.2,0-0.5-0.1-0.7s-0.1-0.4-0.2-0.6
				s-0.2-0.3-0.4-0.3c-0.5,0-0.9,0.2-1.4,0.5c-0.4,0.3-0.7,0.8-1.1,1.4s-0.6,1.2-0.8,2c-0.2,0.7-0.4,1.5-0.6,2.4
				c-0.1,0.9-0.2,1.6-0.4,2.4c-0.1,0.8-0.1,1.6-0.2,2.3c0.6-0.6,1.2-1.1,1.8-1.9c0.6-0.7,1.1-1.4,1.4-2.1c0.4-0.7,0.7-1.5,1.1-2.2
				C391.7,313,391.9,312.3,392,311.6z"/>
			<path fill="#010101" d="M398.3,327.5c0,0.1-0.1,0.2-0.2,0.4c-0.1,0.2-0.3,0.4-0.5,0.5c-0.2,0.2-0.4,0.3-0.7,0.4
				c-0.2,0.1-0.6,0.2-0.9,0.2s-0.6-0.1-0.7-0.2c-0.2-0.1-0.3-0.3-0.4-0.5c-0.1-0.1-0.1-0.2-0.1-0.4c-0.1-0.2-0.1-0.4-0.1-0.9
				c0-0.4,0.1-1.1,0.1-1.7c0.1-0.7,0.1-1.4,0.1-2.1c0-0.4-0.1-0.7-0.1-1c-0.2,0.1-0.4,0.2-0.6,0.2c-0.2,0.1-0.4,0.1-0.4,0.1
				c-0.1,0-0.2-0.1-0.4-0.1c-0.1-0.1-0.2-0.2-0.2-0.4c0-0.1,0-0.1,0-0.2s0.1-0.2,0.1-0.3c0.2-0.1,0.5-0.2,0.9-0.3
				c0.3-0.1,0.7-0.2,1-0.4c0.3-0.1,0.6-0.2,0.9-0.4c0.2-0.1,0.5-0.2,0.6-0.2s0.2,0.1,0.4,0.2c0.1,0.1,0.2,0.2,0.3,0.4
				c0,0.1-0.1,0.2-0.1,0.3c-0.1,0.1-0.2,0.2-0.4,0.3c-0.1,0.3-0.1,0.6-0.2,1s-0.1,0.7-0.1,1.1c-0.1,0.4-0.1,0.7-0.1,1.1s0,0.7,0,1
				c0,0.4,0,0.7,0.1,1c0,0.3,0.1,0.5,0.1,0.7c0.1,0.1,0.1,0.1,0.2,0.1s0.2,0,0.3-0.1c0.1-0.1,0.2-0.1,0.3-0.2s0.2-0.1,0.2-0.2
				c0.1-0.1,0.2-0.1,0.2-0.1c0.2,0,0.3,0.1,0.4,0.1C398.1,327.2,398.2,327.3,398.3,327.5z M394.5,315.2c0-0.3,0.1-0.6,0.2-0.9
				c0.2-0.2,0.4-0.4,0.6-0.4s0.5,0.1,0.6,0.2c0.1,0.2,0.2,0.4,0.3,0.6c0.1,0.2,0.1,0.4,0.1,0.5c0,0.2-0.1,0.5-0.2,0.7
				s-0.3,0.3-0.6,0.4c-0.2,0-0.5-0.1-0.7-0.3c-0.2-0.2-0.3-0.4-0.3-0.7V315.2L394.5,315.2z"/>
			<path fill="#010101" d="M402.4,322.2c-0.4,0.1-0.9,0.1-1.3,0.1c-0.4,0.1-0.9,0.1-1.2,0.3c-0.4,0.1-0.6,0.3-0.9,0.5
				c-0.2,0.2-0.3,0.5-0.4,0.8c-0.1,0.1-0.1,0.2-0.1,0.2c-0.1,0.1-0.1,0.1-0.2,0.1s-0.2-0.1-0.4-0.1c-0.1-0.1-0.2-0.2-0.4-0.4
				c-0.1-0.4-0.2-0.6-0.2-0.9c0-0.4,0.1-0.7,0.4-1c0.2-0.2,0.6-0.5,1.1-0.6c0.4-0.2,1-0.2,1.6-0.3c0.6-0.1,1.2-0.1,1.9-0.1
				c0-0.7,0-1.5,0.1-2.4s0.1-1.7,0.2-2.6s0.2-1.7,0.4-2.6c0.2-0.8,0.4-1.5,0.6-2.1c0.3-0.6,0.6-1.2,1-1.9c0.4-0.6,0.8-1.1,1.3-1.6
				c0.5-0.4,1-0.8,1.5-1.1s1.1-0.4,1.6-0.4c0.6,0,1.1,0.1,1.6,0.4s0.8,0.7,1,1.2c0,0.2-0.1,0.4-0.2,0.6c-0.2,0.2-0.4,0.3-0.6,0.3
				c-0.1,0-0.2-0.1-0.4-0.1c-0.1-0.1-0.3-0.2-0.5-0.2c-0.2-0.1-0.4-0.2-0.6-0.2c-0.2-0.1-0.5-0.1-0.7-0.1c-0.4,0-0.7,0.1-1.1,0.3
				c-0.4,0.2-0.7,0.4-0.9,0.8c-0.3,0.3-0.6,0.7-0.7,1.2c-0.2,0.4-0.4,0.9-0.6,1.4c-0.1,0.4-0.2,0.9-0.3,1.7
				c-0.1,0.7-0.1,1.6-0.2,2.4c-0.1,0.9-0.1,1.7-0.1,2.7c0,0.9-0.1,1.7-0.1,2.5c0.4,0,0.7,0,1,0s0.6,0,0.9,0s0.6,0,0.9,0
				c0.2,0,0.6,0,0.9-0.1c0.4,0,0.6,0.2,0.7,0.5c0,0.1,0,0.1,0,0.2c0,0.3-0.2,0.5-0.6,0.5c-0.4,0.1-0.9,0.1-1.6,0.1
				c-0.2,0-0.6,0-0.9,0s-0.7,0-1.4,0l0,0c-0.1,0.9-0.1,2-0.1,3c-0.1,1.1-0.1,2.2-0.3,3.3c-0.1,1.1-0.3,2.2-0.6,3.2
				c-0.2,1.1-0.6,2.1-0.9,3c-0.7,1.7-1.6,2.9-2.8,3.7c-1.1,0.8-2.4,1.2-3.7,1.2c-0.7,0-1.3-0.1-1.9-0.2c-0.6-0.2-1.2-0.4-1.8-0.8
				c-0.6-0.4-1.1-0.7-1.5-1.2s-0.8-1.1-1.1-1.7c-0.1-0.2-0.2-0.5-0.3-0.9c-0.1-0.3-0.2-0.6-0.2-0.9c0-0.4,0.1-0.6,0.4-0.6
				c0.1,0,0.2,0.1,0.4,0.1c0.2,0.1,0.3,0.2,0.4,0.5c0.1,0.2,0.1,0.4,0.1,0.6c0.1,0.2,0.1,0.4,0.2,0.5c0.2,0.5,0.5,0.9,0.9,1.3
				s0.7,0.7,1.2,0.9c0.4,0.2,0.9,0.4,1.4,0.5s1,0.1,1.5,0.1c0.6,0,1.1-0.1,1.6-0.2c0.6-0.1,1.1-0.4,1.6-0.7c0.5-0.3,0.9-0.7,1.4-1.2
				c0.4-0.5,0.7-1.1,1.1-1.7c0.2-0.6,0.4-1.2,0.6-1.9c0.2-0.7,0.2-1.4,0.4-2.2c0.1-0.7,0.1-1.6,0.2-2.3c0.1-0.8,0.1-1.6,0.1-2.3
				c0-0.6,0-1.2,0-1.7C402.5,323.2,402.5,322.7,402.4,322.2z"/>
			<path fill="#010101" d="M417.5,327.4c0,0.1-0.1,0.1-0.1,0.2s-0.1,0.1-0.1,0.1c-0.4,0.3-0.7,0.6-1,0.8c-0.3,0.2-0.6,0.4-1,0.6
				s-0.7,0.3-1.1,0.4s-0.8,0.1-1.2,0.1c-0.6,0-1.1-0.1-1.6-0.3c-0.4-0.2-0.8-0.4-1.1-0.8c-0.3-0.3-0.5-0.7-0.6-1.2
				c-0.1-0.4-0.2-0.9-0.2-1.5s0.1-1.1,0.2-1.6s0.3-1.1,0.6-1.6c0.2-0.5,0.5-1,0.9-1.4c0.3-0.4,0.7-0.8,1.1-1.2
				c0.6-0.4,1.1-0.7,1.6-0.7c0.4,0,0.7,0.1,1.1,0.4c0.3,0.2,0.4,0.7,0.4,1.2c-0.1,0.3-0.1,0.6-0.3,1c-0.2,0.4-0.4,0.7-0.7,1.1
				c-0.3,0.4-0.7,0.7-1.2,0.9c-0.4,0.2-1,0.4-1.6,0.5c-0.1,0.1-0.1,0.2-0.1,0.4c0,0.1-0.1,0.3-0.1,0.5c0,0.4,0.1,0.7,0.1,1.1
				c0.1,0.4,0.2,0.6,0.4,0.9c0.2,0.2,0.4,0.5,0.6,0.6c0.2,0.2,0.6,0.2,0.9,0.2c0.6,0,1.2-0.1,1.7-0.4c0.5-0.2,1-0.6,1.4-1
				c0.1-0.1,0.1-0.1,0.2-0.2s0.1-0.1,0.2-0.1s0.2,0.1,0.4,0.1c0.1,0.1,0.2,0.2,0.3,0.4v0.2h-0.1V327.4z M411.7,323.1
				c0.2,0,0.4-0.1,0.6-0.2s0.4-0.3,0.6-0.6c0.2-0.2,0.3-0.4,0.4-0.7c0.1-0.2,0.2-0.5,0.2-0.7c0-0.1-0.1-0.1-0.1-0.1
				c-0.1,0-0.2,0.1-0.4,0.2c-0.2,0.2-0.4,0.4-0.6,0.6s-0.4,0.5-0.5,0.7s-0.2,0.5-0.2,0.7V323.1L411.7,323.1z"/>
			<path fill="#010101" d="M423.9,320.8c0,0.2-0.1,0.3-0.1,0.4c-0.1,0.1-0.2,0.2-0.4,0.2s-0.4-0.1-0.6-0.2s-0.4-0.2-0.7-0.2
				c-0.2,0-0.4,0.1-0.6,0.1c-0.2,0.1-0.3,0.2-0.4,0.3c-0.1,0.1-0.2,0.2-0.2,0.4c-0.1,0.1-0.1,0.3-0.1,0.4c0,0.2,0,0.3,0.1,0.4
				c0.1,0.2,0.2,0.4,0.3,0.6c0.1,0.2,0.2,0.3,0.4,0.5c0.1,0.2,0.2,0.3,0.4,0.5c0.1,0.2,0.2,0.4,0.4,0.7c0.2,0.4,0.3,0.9,0.3,1.4
				c0,0.4-0.1,0.7-0.2,1s-0.2,0.6-0.4,0.9c-0.2,0.2-0.4,0.5-0.6,0.7s-0.4,0.4-0.6,0.4c-0.4,0.2-0.9,0.2-1.4,0.2
				c-0.4,0-0.9-0.1-1.2-0.2c-0.4-0.2-0.7-0.6-0.9-1.1c-0.1-0.1-0.1-0.3-0.1-0.4c-0.1-0.1-0.1-0.3-0.1-0.4c0-0.2,0.1-0.4,0.1-0.6
				c0.1-0.1,0.2-0.2,0.6-0.2c0.1,0,0.3,0.1,0.5,0.1c0.2,0.1,0.3,0.2,0.4,0.5l0.1,0.4c0.2,0.4,0.4,0.6,0.7,0.6c0.5,0,0.9-0.2,1.2-0.5
				c0.3-0.3,0.4-0.7,0.4-1.1c0-0.2-0.1-0.5-0.1-0.7c-0.1-0.2-0.2-0.4-0.3-0.5c-0.1-0.1-0.2-0.3-0.4-0.4c-0.1-0.2-0.3-0.4-0.4-0.6
				s-0.3-0.5-0.4-0.9c-0.2-0.4-0.2-0.8-0.2-1.2c0-0.4,0.1-0.7,0.2-1.1c0.2-0.4,0.4-0.7,0.6-0.9c0.2-0.2,0.6-0.5,1-0.7
				s0.8-0.2,1.2-0.2c0.4,0,0.7,0.1,0.9,0.4C423.5,320,423.7,320.3,423.9,320.8L423.9,320.8z"/>
			<path fill="#010101" d="M431,327.7c0,0.2-0.2,0.6-0.7,0.8c-0.5,0.2-1.2,0.4-2.1,0.5c-0.4,0-0.7-0.1-0.9-0.2
				c-0.2-0.1-0.4-0.4-0.6-0.7c-0.1-0.1-0.1-0.3-0.1-0.6c0-0.2-0.1-0.4-0.1-0.7c0-0.7,0.1-1.5,0.2-2.4s0.2-1.7,0.2-2.4
				c-0.2-0.1-0.3-0.1-0.4-0.1s-0.2,0-0.2,0c-0.1,0-0.1,0-0.1,0c-0.1,0-0.1,0-0.2,0s-0.2,0-0.4,0c-0.2,0-0.4,0-0.7,0
				c-0.3,0-0.5-0.1-0.6-0.1c-0.1-0.1-0.2-0.2-0.2-0.4c0-0.1,0-0.1,0.1-0.2c0-0.1,0.1-0.2,0.1-0.3c0.1-0.1,0.2-0.2,0.6-0.2
				s0.8-0.1,1.4-0.1h0.9c0.1-0.2,0.1-0.6,0.1-0.9c0-0.4,0-0.9,0.1-1.4c0.1-0.2,0.1-0.5,0.1-0.7s0.1-0.5,0.1-0.7
				c0.1-0.2,0.1-0.4,0.2-0.5s0.3-0.2,0.6-0.2c0.2,0,0.3,0.1,0.5,0.1c0.2,0.1,0.3,0.2,0.4,0.4c0,0.1,0,0.1,0,0.1c0,0.1,0,0.2-0.1,0.5
				s-0.1,0.6-0.1,1.2c-0.1,0.5-0.1,1.2-0.2,2.1c0.2,0.1,0.3,0.1,0.4,0.1s0.2,0,0.4,0c0.1,0,0.2,0,0.2,0c0.1,0,0.2,0,0.3-0.1
				c0.2,0,0.3,0.1,0.4,0.1c0.1,0.1,0.2,0.2,0.3,0.4v0.1c0,0.1,0,0.1-0.1,0.2s-0.1,0.1-0.1,0.1c-0.2,0.1-0.4,0.2-0.7,0.2
				c-0.3,0.1-0.7,0.1-1.3,0.1c-0.1,0.4-0.1,1-0.1,1.6c-0.1,0.7-0.1,1.3-0.1,1.9c0,0.4,0,0.7,0,1s0.1,0.6,0.1,0.7l0.1,0.2
				c0.1,0.1,0.2,0.2,0.2,0.2c0.2,0,0.3-0.1,0.4-0.1c0.1-0.1,0.3-0.1,0.4-0.2s0.2-0.1,0.4-0.2c0.1-0.1,0.2-0.1,0.2-0.1
				c0.1,0,0.2,0.1,0.4,0.1c0.1,0.1,0.2,0.2,0.3,0.4L431,327.7L431,327.7L431,327.7z"/>
			<path fill="#010101" d="M440.3,320.2c0.1,0,0.2,0,0.4,0.1s0.3,0.1,0.5,0.2s0.3,0.2,0.4,0.4c0.1,0.2,0.2,0.4,0.2,0.6
				s-0.1,0.4-0.4,0.4s-0.6,0.2-0.7,0.5s-0.3,0.8-0.4,1.3c-0.1,0.6-0.2,1.2-0.2,1.9c-0.1,0.7-0.1,1.4-0.2,2.1c0,0.1,0,0.1,0,0.1
				c0,0.1,0,0.1,0,0.1c0.2-0.1,0.4-0.1,0.7-0.2c0.2-0.1,0.5-0.2,0.7-0.3c0.2-0.1,0.4-0.2,0.6-0.2c0.2-0.1,0.3-0.1,0.4-0.1
				c0.2,0,0.3,0.1,0.5,0.2c0.2,0.2,0.2,0.3,0.2,0.5c0,0.1-0.1,0.3-0.3,0.4c-0.2,0.1-0.5,0.2-0.8,0.4c-0.3,0.1-0.7,0.2-1.1,0.4
				c-0.4,0.1-0.7,0.2-1,0.4c0,0.7-0.1,1.6-0.2,2.4c-0.1,0.9-0.3,1.7-0.6,2.6c-0.2,0.8-0.6,1.6-0.9,2.4c-0.4,0.7-0.9,1.4-1.4,2
				c-0.6,0.6-1.2,1-1.9,1.4c-0.7,0.3-1.6,0.5-2.6,0.5c-0.5,0-1-0.1-1.4-0.2c-0.4-0.2-0.8-0.4-1.1-0.7s-0.6-0.7-0.7-1.1
				c-0.2-0.4-0.2-0.9-0.2-1.4c0-0.7,0.1-1.3,0.4-1.9s0.7-1.2,1.2-1.7c0.5-0.6,1.1-1.1,1.7-1.5s1.3-0.9,2-1.3s1.4-0.7,2.1-1.1
				c0.7-0.3,1.4-0.6,1.9-0.9c0-0.1,0-0.1,0-0.1s0-0.1,0-0.2c-0.1,0.1-0.2,0.2-0.4,0.2c-0.2,0.1-0.4,0.1-0.6,0.2s-0.4,0.1-0.6,0.1
				s-0.3,0.1-0.4,0.1c-0.3,0-0.6-0.1-0.9-0.1c-0.3-0.1-0.6-0.2-0.9-0.4c-0.2-0.2-0.5-0.4-0.7-0.7c-0.2-0.3-0.4-0.7-0.5-1.1
				c-0.1-0.2-0.1-0.5-0.1-1c-0.1-0.5-0.1-1-0.1-1.6s-0.1-1.1-0.1-1.6s0-0.9,0-1.1c0-0.4,0.1-0.6,0.2-0.7s0.3-0.2,0.6-0.2
				c0.2,0,0.4,0.1,0.7,0.2c0.2,0.2,0.3,0.4,0.3,0.6s0,0.5-0.1,0.7c-0.1,0.3-0.1,0.6-0.1,0.9c-0.1,0.3-0.1,0.6-0.1,0.9
				c-0.1,0.3-0.1,0.6-0.1,0.9s0.1,0.6,0.1,0.9c0.1,0.5,0.3,0.9,0.6,1.3s0.7,0.6,1.1,0.6c0.2,0,0.4-0.1,0.6-0.1
				c0.2-0.1,0.4-0.2,0.7-0.4c0.2-0.2,0.4-0.4,0.6-0.6s0.4-0.4,0.4-0.7c0-0.4,0.1-0.9,0.1-1.5c0.1-0.6,0.2-1.1,0.3-1.7
				c0.1-0.6,0.2-1,0.4-1.4c0.1-0.4,0.2-0.6,0.4-0.6C439.6,320.3,440,320.2,440.3,320.2z M438,330.2c-0.7,0.4-1.6,0.8-2.5,1.2
				c-0.9,0.4-1.7,1-2.6,1.6c-0.8,0.6-1.4,1.2-2,1.9c-0.6,0.7-0.8,1.4-0.8,2.2c0,0.6,0.2,1.1,0.6,1.5s0.9,0.6,1.5,0.6
				s1.2-0.1,1.7-0.4s0.9-0.7,1.4-1.2c0.4-0.5,0.7-1.1,1-1.7s0.6-1.3,0.7-1.9c0.2-0.7,0.4-1.4,0.5-2
				C437.7,331.3,437.8,330.7,438,330.2z"/>
			<path fill="#010101" d="M452.1,312.1c-0.1,0.8-0.4,1.7-0.8,2.6s-0.9,1.7-1.4,2.6c-0.6,0.9-1.2,1.7-1.9,2.4
				c-0.7,0.7-1.5,1.4-2.3,2.1c0,0.4,0.1,0.9,0.1,1.4c0.1,0.5,0.1,1,0.2,1.4c0.1,0.5,0.2,0.9,0.2,1.4c0.1,0.4,0.2,0.8,0.4,1.1
				c0.1,0.3,0.2,0.5,0.4,0.6c0.1,0.1,0.3,0.1,0.4,0.1c0.2,0,0.5-0.1,0.8-0.2s0.5-0.2,0.8-0.4c0.2-0.2,0.5-0.4,0.7-0.6
				s0.4-0.4,0.6-0.6c0.1-0.1,0.1-0.1,0.2-0.1s0.1-0.1,0.1-0.1c0.2,0,0.3,0.1,0.4,0.1c0.1,0.1,0.2,0.2,0.3,0.4
				c-0.1,0-0.1,0.1-0.1,0.2v0.1c-0.2,0.4-0.5,0.7-0.8,1s-0.7,0.6-1.1,0.7c-0.4,0.2-0.7,0.4-1.1,0.5s-0.7,0.2-1,0.2
				c-0.2,0-0.5,0-0.7-0.1s-0.5-0.1-0.7-0.2s-0.4-0.3-0.6-0.6c-0.2-0.2-0.4-0.5-0.5-0.9c-0.2-0.7-0.4-1.5-0.6-2.4
				c-0.1-0.9-0.1-1.7-0.2-2.4c0,0.1-0.1,0.1-0.1,0.1c-0.1,0.1-0.1,0.1-0.2,0.1c-0.2,0-0.3-0.1-0.4-0.1c-0.1-0.1-0.2-0.2-0.3-0.3
				c-0.1-0.1-0.1-0.1-0.1-0.2s0-0.1,0-0.1c0-0.1,0.1-0.2,0.1-0.2c0.1-0.1,0.1-0.1,0.2-0.2s0.2-0.1,0.4-0.2c0.1-0.1,0.3-0.2,0.4-0.3
				c0.1-2.1,0.4-3.9,0.7-5.4c0.3-1.6,0.8-3.1,1.4-4.5c0.3-0.6,0.6-1.2,0.8-1.7c0.2-0.5,0.6-0.9,0.9-1.2c0.3-0.3,0.6-0.6,1-0.7
				c0.4-0.2,0.7-0.2,1.2-0.2c0.4,0,0.8,0.1,1.2,0.4s0.6,0.6,0.8,1.1c0.2,0.5,0.3,1.1,0.3,1.9c0,0.2,0,0.4,0,0.6
				C452.1,311.6,452.1,311.9,452.1,312.1z M450.5,311.6c0.1-0.3,0.1-0.6,0.1-0.9c0-0.2,0-0.5-0.1-0.7s-0.1-0.4-0.2-0.6
				s-0.2-0.3-0.4-0.3c-0.5,0-0.9,0.2-1.4,0.5c-0.4,0.3-0.7,0.8-1.1,1.4s-0.6,1.2-0.8,2c-0.2,0.7-0.4,1.5-0.6,2.4
				c-0.1,0.8-0.2,1.6-0.4,2.4c-0.1,0.8-0.1,1.6-0.2,2.3c0.6-0.6,1.2-1.1,1.8-1.9c0.6-0.7,1.1-1.4,1.4-2.1c0.4-0.7,0.7-1.5,1.1-2.2
				C450.2,313,450.4,312.3,450.5,311.6z"/>
			<path fill="#010101" d="M460.2,327.4c0,0.1-0.1,0.1-0.1,0.2s-0.1,0.1-0.1,0.1c-0.4,0.3-0.7,0.6-1,0.8c-0.3,0.2-0.6,0.4-1,0.6
				s-0.7,0.3-1.1,0.4s-0.8,0.1-1.2,0.1c-0.6,0-1.1-0.1-1.6-0.3c-0.4-0.2-0.8-0.4-1.1-0.8c-0.3-0.3-0.5-0.7-0.6-1.2
				c-0.1-0.4-0.2-0.9-0.2-1.5s0.1-1.1,0.2-1.6c0.1-0.6,0.3-1.1,0.6-1.6c0.2-0.5,0.5-1,0.9-1.4c0.3-0.4,0.7-0.8,1.1-1.2
				c0.6-0.4,1.1-0.7,1.6-0.7c0.4,0,0.7,0.1,1.1,0.4c0.3,0.2,0.4,0.7,0.4,1.2c-0.1,0.3-0.1,0.6-0.3,1c-0.2,0.4-0.4,0.7-0.7,1.1
				c-0.3,0.4-0.7,0.7-1.2,0.9c-0.4,0.2-1,0.4-1.6,0.5c-0.1,0.1-0.1,0.2-0.1,0.4c0,0.1-0.1,0.3-0.1,0.5c0,0.4,0.1,0.7,0.1,1.1
				c0.1,0.4,0.2,0.6,0.4,0.9c0.2,0.2,0.4,0.5,0.6,0.6c0.2,0.2,0.6,0.2,0.9,0.2c0.6,0,1.2-0.1,1.7-0.4c0.5-0.2,1-0.6,1.4-1
				c0.1-0.1,0.1-0.1,0.2-0.2s0.1-0.1,0.2-0.1s0.2,0.1,0.4,0.1c0.1,0.1,0.2,0.2,0.3,0.4v0.2h-0.1V327.4z M454.4,323.1
				c0.2,0,0.4-0.1,0.6-0.2s0.4-0.3,0.6-0.6c0.2-0.2,0.3-0.4,0.4-0.7c0.1-0.2,0.2-0.5,0.2-0.7c0-0.1-0.1-0.1-0.1-0.1
				c-0.1,0-0.2,0.1-0.4,0.2c-0.2,0.2-0.4,0.4-0.6,0.6s-0.4,0.5-0.5,0.7s-0.2,0.5-0.2,0.7V323.1L454.4,323.1z"/>
			<path fill="#010101" d="M461.2,327.6c0-0.2,0.1-0.4,0.1-0.6c0.1-0.1,0.2-0.2,0.4-0.4c0.1-0.1,0.2-0.1,0.4-0.2
				c0.2-0.1,0.2-0.1,0.4-0.1c0.1-0.1,0.2-0.1,0.2-0.1c0.2,0,0.4,0.1,0.6,0.4c0.2,0.2,0.3,0.6,0.3,0.9s-0.1,0.6-0.4,0.9
				c-0.2,0.2-0.5,0.4-0.9,0.4c-0.2,0-0.6-0.1-0.8-0.3C461.3,328.3,461.2,328,461.2,327.6z"/>
		</g>
		<g>
			<path fill="#FFFFFF" d="M429.9,411.8c0,0.9,0,1.7,0.1,2.1c0,0.3,0.1,0.5,0.4,0.6c0.1,0,0.4,0.1,0.4,0.1c0.1,0,0.1,0,0.1,0.1
				s-0.1,0.1-0.1,0.1c-0.6,0-1.1,0-1.2,0s-0.7,0-0.9,0c-0.1,0-0.1,0-0.1-0.1c0,0,0-0.1,0.1-0.1s0.2,0,0.3-0.1
				c0.2-0.1,0.2-0.2,0.3-0.6c0.1-0.4,0.1-1.2,0.1-2.1v-4.1H428c-0.6,0-0.8,0.1-1,0.3c-0.1,0.2-0.1,0.2-0.2,0.3
				c0,0.1-0.1,0.1-0.1,0.1s-0.1,0-0.1-0.1s0.2-0.9,0.2-1s0.1-0.2,0.1-0.2c0.1,0,0.2,0.1,0.4,0.1c0.3,0,0.6,0.1,0.7,0.1h3.6
				c0.3,0,0.6,0,0.7-0.1c0.1,0,0.2-0.1,0.2-0.1c0.1,0,0.1,0.1,0.1,0.1c0,0.3,0,0.9,0,1.1c0,0.1,0,0.1-0.1,0.1s-0.1,0-0.1-0.2v-0.1
				c0-0.3-0.2-0.5-1.2-0.6H430L429.9,411.8L429.9,411.8z"/>
			<path fill="#FFFFFF" d="M440.6,413.3c0.1,0.4,0.1,0.9,0.5,1.1c0.3,0.1,0.6,0.1,0.6,0.1s0.1,0,0.1,0.1s-0.1,0.1-0.2,0.1
				c-0.2,0-1.2,0-1.6-0.1c-0.2,0-0.2-0.1-0.2-0.1c0-0.1,0-0.1,0.1-0.1s0.1-0.2,0.1-0.4l-0.4-5l0,0l-2.4,5c-0.2,0.4-0.2,0.5-0.3,0.5
				c-0.1,0-0.1-0.1-0.3-0.4c-0.2-0.5-1.1-2.2-1.1-2.2c-0.1-0.2-1.2-2.5-1.3-2.7h-0.1l-0.4,4.5c0,0.1,0,0.3,0,0.5
				c0,0.1,0.1,0.2,0.2,0.3c0.2,0.1,0.3,0.1,0.4,0.1s0.1,0,0.1,0.1s-0.1,0.1-0.2,0.1c-0.4,0-0.8,0-0.9,0s-0.6,0-0.8,0
				c-0.1,0-0.2,0-0.2-0.1l0.1-0.1c0.1,0,0.1,0,0.3,0c0.3-0.1,0.4-0.4,0.4-0.8l0.7-6.3c0-0.1,0.1-0.2,0.1-0.2l0.1,0.1l3,6.1l2.9-6.1
				c0.1-0.1,0.1-0.1,0.1-0.1c0.1,0,0.1,0.1,0.1,0.2L440.6,413.3z"/>
		</g>
	</g>
</g>
</svg>
