<?xml version="1.0" encoding="utf-8"?>
<!-- Generator: Adobe Illustrator 18.1.1, SVG Export Plug-In . SVG Version: 6.00 Build 0)  -->
<svg version="1.1" id="Layer_1" xmlns="http://www.w3.org/2000/svg" xmlns:xlink="http://www.w3.org/1999/xlink" x="0px" y="0px"
	 viewBox="0 0 983.9 984.3" enable-background="new 0 0 983.9 984.3" xml:space="preserve">
<g id="Guides">
</g>
<g id="md3a">
	<g>
		<path fill="#010101" d="M197.1,589.4c6.7,12.7,18.2,19.9,33.1,19.9c17.3,0,27.5-8.6,27.5-21.8c0-14-8.5-20.3-23.8-27.4l-10.2-4.8
			c-18.2-8.6-29.2-16.8-29.2-34.5c0-18.1,13.9-30.2,32.5-30.2c15.8,0,26.7,6,34.6,18.6l-9.3,6c-5.8-9.5-13.6-14-25.1-14
			c-12.4,0-20.8,8-20.8,19.2c0,12.1,6.9,16.6,22.3,23.8l10.2,4.8c20.2,9.7,30.8,19,30.8,38c0,20.9-15.8,33.2-39.4,33.2
			c-20.6,0-35.3-10.1-43.5-25.5L197.1,589.4z"/>
		<path fill="#010101" d="M318.3,502.9h-39.2v-10.8h90.3v10.8h-39v115.9h-12.1V502.9z"/>
		<path fill="#010101" d="M389.2,575.8v-83.6h12.1v82.7c0,22.9,12.8,34.5,32.5,34.5c19.9,0,32.5-11.5,32.5-34.5v-82.7h12.1v83.6
			c0,29.4-19.1,44.5-44.6,44.5C408.4,620.3,389.2,605.2,389.2,575.8z"/>
		<path fill="#010101" d="M509.8,492.1h31.6c41.8,0,66.7,25.9,66.7,63.3s-24.7,63.3-66.7,63.3h-31.6V492.1z M540.3,607.8
			c37.3,0,55.2-21.6,55.2-52.3c0-30.7-17.8-52.3-55.2-52.3h-18.4v104.7H540.3z"/>
		<path fill="#010101" d="M633.3,492.1h12.3v126.7h-12.3V492.1z"/>
		<path fill="#010101" d="M670.3,555.5c0-37.4,29-64.8,64.8-64.8S800,518,800,555.5s-29,64.8-64.8,64.8S670.3,592.9,670.3,555.5z
			 M787.3,555.5c0-30.7-22.1-53.8-52.2-53.8s-52.2,23.1-52.2,53.8c0,30.7,22.1,53.8,52.2,53.8S787.3,586.2,787.3,555.5z"/>
	</g>
	<g>
		<path fill="#010101" d="M186.5,423l5.2-3.2c2.4,4.5,6.1,7.2,11.6,7.2c6.5,0,11.1-3.7,11.1-12.5v-49h6.5v49.2
			c0,12-7.4,18.1-17.3,18.1C194.7,432.8,189.5,428.6,186.5,423z"/>
		<path fill="#010101" d="M233,398.8c0-19.7,15.3-34.1,34.2-34.1c18.9,0,34.2,14.4,34.2,34.1c0,19.7-15.3,34.1-34.2,34.1
			C248.2,432.8,233,418.4,233,398.8z M294.6,398.8c0-16.2-11.6-28.3-27.5-28.3c-15.9,0-27.5,12.1-27.5,28.3
			c0,16.2,11.6,28.3,27.5,28.3C283,427,294.6,414.9,294.6,398.8z"/>
		<path fill="#010101" d="M313.9,365.5h16.6c22,0,35.1,13.6,35.1,33.3c0,19.7-13,33.3-35.1,33.3h-16.6V365.5z M330,426.3
			c19.7,0,29.1-11.4,29.1-27.5c0-16.2-9.4-27.5-29.1-27.5h-9.7v55H330z"/>
		<path fill="#010101" d="M379,365.5h6.5V432H379V365.5z"/>
		<path fill="#010101" d="M467.3,365.5h6.4V432h-6.4v-21.9H431V432h-6.4v-66.6h6.4v39h36.3V365.5z"/>
		<path fill="#010101" d="M491.5,432h-6.4l28-68.1h0.5l28.1,68.1h-6.6l-4.6-11.6h-34.4L491.5,432z M513.4,377.9l-15,36.9h29.8
			C528.3,414.8,513.4,377.9,513.4,377.9z"/>
		<path fill="#010101" d="M559.1,379.7V432h-6v-67.9h0.6l44.8,53.7v-52.4h6v67.9h-0.6L559.1,379.7z"/>
		<path fill="#010101" d="M621.3,416.6c3.5,6.7,9.6,10.5,17.4,10.5c9.1,0,14.5-4.5,14.5-11.5c0-7.3-4.5-10.7-12.5-14.4l-5.4-2.5
			c-9.6-4.5-15.4-8.8-15.4-18.1c0-9.5,7.3-15.9,17.1-15.9c8.3,0,14.1,3.1,18.2,9.8l-4.9,3.1c-3-5-7.1-7.3-13.2-7.3
			c-6.6,0-11,4.2-11,10.1c0,6.4,3.6,8.7,11.7,12.5l5.4,2.5c10.7,5.1,16.2,10,16.2,20c0,11-8.3,17.4-20.8,17.4
			c-10.9,0-18.6-5.3-22.9-13.4L621.3,416.6z"/>
		<path fill="#010101" d="M667.6,398.8c0-19.7,15.3-34.1,34.2-34.1c18.9,0,34.2,14.4,34.2,34.1c0,19.7-15.3,34.1-34.2,34.1
			C682.8,432.8,667.6,418.4,667.6,398.8z M729.2,398.8c0-16.2-11.6-28.3-27.5-28.3s-27.5,12.1-27.5,28.3c0,16.2,11.6,28.3,27.5,28.3
			S729.2,414.9,729.2,398.8z"/>
		<path fill="#010101" d="M754.5,379.7V432h-6v-67.9h0.6l44.8,53.7v-52.4h6v67.9h-0.6L754.5,379.7z"/>
	</g>
	<rect x="185" y="456.7" fill="#010101" width="614" height="3"/>
</g>
</svg>
