<?xml version="1.0" encoding="utf-8"?>
<!-- Generator: Adobe Illustrator 20.1.0, SVG Export Plug-In . SVG Version: 6.00 Build 0)  -->
<svg version="1.1" id="Layer_1" xmlns="http://www.w3.org/2000/svg" xmlns:xlink="http://www.w3.org/1999/xlink" x="0px" y="0px"
	 viewBox="0 0 150 150" enable-background="new 0 0 150 150" xml:space="preserve">
<g>
	<path fill="#2C3B82" d="M43.225,73.762c0,2.745-2.25,4.995-4.995,4.995c-0.225,0-3.015,0-3.015,0v4.995h-2.497V68.745h5.513
		C40.975,68.745,43.225,70.995,43.225,73.762z M40.727,73.762c0-1.395-1.125-2.52-2.497-2.52c-0.27,0-3.015,0-3.015,0v5.018h3.015
		C39.602,76.26,40.727,75.135,40.727,73.762z"/>
	<path fill="#2C3B82" d="M46.397,76.935v6.817h-2.497V72.008h0.855l0.945,1.71c0.833-1.17,2.138-1.957,3.6-1.957
		c0.225,0,0.72,0.067,0.72,0.067v4.86h-0.833l-1.238-2.318C47.049,74.798,46.397,75.788,46.397,76.935z"/>
	<path fill="#2C3B82" d="M56.611,81.66c1.328,0,2.363-0.788,3.015-1.35l1.305,1.575C59.964,83.078,58.231,84,56.386,84
		c-3.803,0-6.053-2.723-6.053-6.075c0-3.398,2.34-6.165,5.782-6.165c3.285,0,5.783,2.835,5.175,6.413h-8.235
		C52.943,79.77,54.159,81.66,56.611,81.66z M58.591,76.102c0-1.147-0.9-2.002-2.452-2.002c-1.013,0-2.205,0.495-2.745,2.002H58.591z
		"/>
	<path fill="#2C3B82" d="M71.753,83.752l-0.945-1.778C69.863,83.235,68.558,84,67.05,84c-2.813,0-5.063-2.723-5.063-6.12
		c0-3.397,2.25-6.12,5.063-6.12c1.147,0,2.205,0.45,3.037,1.215v-6.727h2.52v17.505H71.753z M67.343,74.1
		c-1.53,0-2.723,1.71-2.723,3.78c0,2.07,1.192,3.78,2.723,3.78s2.745-1.71,2.745-3.78C70.088,75.81,68.873,74.1,67.343,74.1z"/>
	<path fill="#98CB66" d="M76.588,67.507c0,0.81-0.675,1.463-1.485,1.463c-0.833,0-1.508-0.653-1.508-1.463
		c0-0.833,0.675-1.507,1.508-1.507C75.913,66,76.588,66.675,76.588,67.507z M73.843,72.008h2.498v11.745h-2.498V72.008z"/>
	<path fill="#2C3B82" d="M85.289,75.36c-0.585-0.855-1.597-1.26-2.498-1.26c-1.62,0-2.947,1.597-2.947,3.78
		c0,2.183,1.328,3.78,2.947,3.78c0.9,0,2.003-0.36,2.498-1.26l1.485,1.26C85.807,83.078,84.277,84,82.567,84
		c-2.97,0-5.355-2.723-5.355-6.12c0-3.397,2.385-6.12,5.355-6.12c1.71,0,3.24,0.922,4.23,2.34L85.289,75.36z"/>
	<path fill="#2C3B82" d="M96.561,83.752l-0.945-1.778C94.671,83.235,93.366,84,91.859,84c-2.813,0-5.018-2.723-5.063-6.12
		c0-3.397,2.25-6.12,5.063-6.12c1.507,0,2.813,0.765,3.758,2.025l0.945-1.778h0.855v11.745H96.561z M92.151,74.1
		c-1.53,0-2.723,1.71-2.723,3.78c0,2.07,1.192,3.78,2.723,3.78s2.745-1.71,2.745-3.78C94.896,75.81,93.681,74.1,92.151,74.1z"/>
	<path fill="#2C3B82" d="M98.091,74.505v-2.497h2.25v-4.253h2.497v4.253h3.758v2.497h-3.758v4.905c0,1.778,0.833,2.452,1.845,2.452
		c0.54,0,0.945-0.157,1.44-0.36l0.293,1.53c-0.652,0.562-1.462,0.945-2.363,0.945c-2.07,0-3.712-1.8-3.712-4.68v-4.793H98.091z"/>
	<path fill="#2C3B82" d="M116.428,83.752l-0.945-1.778c-0.945,1.26-2.25,2.025-3.758,2.025c-2.813,0-5.018-2.723-5.063-6.12
		c0-3.397,2.25-6.12,5.063-6.12c1.507,0,2.813,0.765,3.758,2.025l0.945-1.778h0.855v11.745H116.428z M112.018,74.1
		c-1.53,0-2.723,1.71-2.723,3.78c0,2.07,1.192,3.78,2.723,3.78s2.745-1.71,2.745-3.78C114.763,75.81,113.548,74.1,112.018,74.1z"/>
</g>
</svg>
