<?xml version="1.0" encoding="utf-8"?>
<!-- Generator: Adobe Illustrator 19.2.1, SVG Export Plug-In . SVG Version: 6.00 Build 0)  -->
<svg version="1.1" id="Layer_1" xmlns="http://www.w3.org/2000/svg" xmlns:xlink="http://www.w3.org/1999/xlink" x="0px" y="0px"
	 viewBox="0 0 150 150" style="enable-background:new 0 0 150 150;" xml:space="preserve">
<style type="text/css">
	.st0{fill:#2C3B82;}
	.st1{fill:#98CB66;}
</style>
<g>
	<path class="st0" d="M48.5,74c0,2.3-1.9,4.2-4.2,4.2c-0.2,0-2.5,0-2.5,0v4.2h-2.1V69.8h4.6C46.6,69.8,48.5,71.7,48.5,74z M46.4,74
		c0-1.2-0.9-2.1-2.1-2.1c-0.2,0-2.5,0-2.5,0v4.2h2.5C45.5,76.1,46.4,75.1,46.4,74z"/>
	<path class="st0" d="M51.2,76.6v5.7h-2.1v-9.8h0.7l0.8,1.4c0.7-1,1.8-1.6,3-1.6c0.2,0,0.6,0.1,0.6,0.1v4.1h-0.7l-1-1.9
		C51.7,74.8,51.2,75.7,51.2,76.6z"/>
	<path class="st0" d="M59.7,80.6c1.1,0,2-0.7,2.5-1.1l1.1,1.3c-0.8,1-2.2,1.8-3.8,1.8c-3.2,0-5-2.3-5-5.1c0-2.8,1.9-5.1,4.8-5.1
		c2.7,0,4.8,2.4,4.3,5.3h-6.9C56.6,79,57.6,80.6,59.7,80.6z M61.3,75.9c0-1-0.8-1.7-2-1.7c-0.8,0-1.8,0.4-2.3,1.7H61.3z"/>
	<path class="st0" d="M72.3,82.3l-0.8-1.5c-0.8,1.1-1.9,1.7-3.1,1.7c-2.3,0-4.2-2.3-4.2-5.1c0-2.8,1.9-5.1,4.2-5.1
		c1,0,1.8,0.4,2.5,1v-5.6H73v14.6L72.3,82.3L72.3,82.3z M68.6,74.2c-1.3,0-2.3,1.4-2.3,3.1c0,1.7,1,3.2,2.3,3.2
		c1.3,0,2.3-1.4,2.3-3.2C70.9,75.7,69.9,74.2,68.6,74.2z"/>
	<path class="st1" d="M76.3,68.8c0,0.7-0.6,1.2-1.2,1.2c-0.7,0-1.3-0.5-1.3-1.2c0-0.7,0.6-1.3,1.3-1.3
		C75.8,67.5,76.3,68.1,76.3,68.8z M74,72.5h2.1v9.8H74V72.5z"/>
	<path class="st0" d="M83.6,75.3c-0.5-0.7-1.3-1.1-2.1-1.1c-1.4,0-2.5,1.3-2.5,3.1c0,1.8,1.1,3.2,2.5,3.2c0.8,0,1.7-0.3,2.1-1.1
		l1.2,1.1c-0.8,1.2-2.1,2-3.5,2c-2.5,0-4.5-2.3-4.5-5.1c0-2.8,2-5.1,4.5-5.1c1.4,0,2.7,0.8,3.5,1.9L83.6,75.3z"/>
	<path class="st0" d="M93,82.3l-0.8-1.5c-0.8,1.1-1.9,1.7-3.1,1.7c-2.3,0-4.2-2.3-4.2-5.1c0-2.8,1.9-5.1,4.2-5.1
		c1.3,0,2.3,0.6,3.1,1.7l0.8-1.5h0.7v9.8H93z M89.3,74.2c-1.3,0-2.3,1.4-2.3,3.1c0,1.7,1,3.2,2.3,3.2c1.3,0,2.3-1.4,2.3-3.2
		C91.6,75.7,90.6,74.2,89.3,74.2z"/>
	<path class="st0" d="M94.2,74.6v-2.1h1.9V69h2.1v3.5h3.1v2.1h-3.1v4.1c0,1.5,0.7,2,1.5,2c0.4,0,0.8-0.1,1.2-0.3l0.2,1.3
		c-0.5,0.5-1.2,0.8-2,0.8c-1.7,0-3.1-1.5-3.1-3.9v-4L94.2,74.6L94.2,74.6z"/>
	<path class="st0" d="M109.5,82.3l-0.8-1.5c-0.8,1-1.9,1.7-3.1,1.7c-2.3,0-4.2-2.3-4.2-5.1c0-2.8,1.9-5.1,4.2-5.1
		c1.3,0,2.3,0.6,3.1,1.7l0.8-1.5h0.7v9.8L109.5,82.3L109.5,82.3z M105.8,74.2c-1.3,0-2.3,1.4-2.3,3.1c0,1.7,1,3.2,2.3,3.2
		c1.3,0,2.3-1.4,2.3-3.2C108.1,75.7,107.1,74.2,105.8,74.2z"/>
</g>
</svg>
