<?xml version="1.0" encoding="utf-8"?>
<!-- Generator: Adobe Illustrator 20.1.0, SVG Export Plug-In . SVG Version: 6.00 Build 0)  -->
<svg version="1.1" id="Layer_1" xmlns="http://www.w3.org/2000/svg" xmlns:xlink="http://www.w3.org/1999/xlink" x="0px" y="0px"
	 viewBox="0 0 150 150" style="enable-background:new 0 0 150 150;" xml:space="preserve">
<g id="Guides">
</g>
<g id="wd1a_1_">
	<g>
		<path d="M26.4,71.5h0.7v3.4l3.3-3.4h0.8L28.7,74l2.6,3.2h-0.8l-2.2-2.8l-1.2,1.2v1.5h-0.7L26.4,71.5L26.4,71.5z"/>
		<path d="M34.4,71.5h2.5c0.4,0,0.7,0,0.9,0.1c0.3,0.1,0.5,0.2,0.7,0.4c0.1,0.1,0.2,0.3,0.3,0.5S39,73,39,73.2v0
			c0,0.2,0,0.5-0.1,0.6c-0.1,0.2-0.2,0.4-0.3,0.5c-0.1,0.1-0.3,0.3-0.5,0.3c-0.2,0.1-0.4,0.1-0.6,0.2l1.8,2.3h-0.8L36.7,75h0h-1.6
			v2.2h-0.7V71.5z M36.9,74.4c0.2,0,0.4,0,0.6-0.1c0.2,0,0.3-0.1,0.5-0.2c0.1-0.1,0.2-0.2,0.3-0.4c0.1-0.1,0.1-0.3,0.1-0.5v0
			c0-0.4-0.1-0.6-0.4-0.8c-0.3-0.2-0.6-0.3-1.1-0.3h-1.8v2.3L36.9,74.4L36.9,74.4z"/>
		<path d="M42.5,71.5h0.7v5.7h-0.7V71.5z"/>
		<path d="M49,77.3c-0.5,0-0.9-0.1-1.3-0.2c-0.4-0.1-0.7-0.4-1.1-0.7l0.4-0.5c0.3,0.3,0.6,0.5,0.9,0.6c0.3,0.1,0.7,0.2,1.1,0.2
			c0.4,0,0.7-0.1,0.9-0.3c0.2-0.2,0.3-0.4,0.3-0.7v0c0-0.1,0-0.2-0.1-0.4c0-0.1-0.1-0.2-0.2-0.3c-0.1-0.1-0.3-0.2-0.5-0.2
			c-0.2-0.1-0.4-0.1-0.8-0.2c-0.3-0.1-0.6-0.1-0.9-0.2s-0.4-0.2-0.6-0.3c-0.2-0.1-0.3-0.3-0.4-0.5c-0.1-0.2-0.1-0.4-0.1-0.6l0,0
			c0-0.2,0-0.4,0.1-0.6s0.2-0.4,0.4-0.5c0.2-0.1,0.4-0.2,0.6-0.3s0.5-0.1,0.8-0.1c0.4,0,0.8,0.1,1.1,0.2c0.3,0.1,0.6,0.3,0.9,0.5
			l-0.4,0.5c-0.3-0.2-0.5-0.4-0.8-0.5C49.3,72.1,49,72,48.7,72c-0.4,0-0.7,0.1-0.9,0.3c-0.2,0.2-0.3,0.4-0.3,0.7v0
			c0,0.1,0,0.3,0.1,0.4c0,0.1,0.1,0.2,0.2,0.3c0.1,0.1,0.3,0.2,0.5,0.2c0.2,0.1,0.5,0.1,0.8,0.2c0.6,0.1,1.1,0.3,1.4,0.6
			c0.3,0.2,0.5,0.6,0.5,1v0c0,0.2,0,0.5-0.1,0.7s-0.2,0.4-0.4,0.5c-0.2,0.1-0.4,0.2-0.6,0.3C49.5,77.3,49.3,77.3,49,77.3z"/>
		<path d="M55.9,72.1H54v-0.6h4.5v0.6h-1.9v5.1h-0.7L55.9,72.1L55.9,72.1z"/>
		<path d="M61.9,71.5h0.7v5.7h-0.7V71.5z"/>
		<path d="M66.3,71.5h0.6l3.6,4.6v-4.6h0.6v5.7h-0.5L67,72.5v4.7h-0.6V71.5z"/>
		<path d="M79.5,71.5h0.7V74h3.3v-2.5h0.7v5.7h-0.7v-2.6h-3.3v2.6h-0.7V71.5z"/>
		<path d="M90,71.4h0.6l2.6,5.8h-0.7l-0.7-1.5h-3.1L88,77.2h-0.7L90,71.4z M91.6,75.1l-1.3-2.9L89,75.1H91.6z"/>
		<path d="M96.5,71.5h0.6l3.6,4.6v-4.6h0.6v5.7h-0.5l-3.7-4.7v4.7h-0.6L96.5,71.5L96.5,71.5z"/>
		<path d="M107,77.3c-0.5,0-0.9-0.1-1.3-0.2c-0.4-0.1-0.7-0.4-1.1-0.7l0.4-0.5c0.3,0.3,0.6,0.5,0.9,0.6c0.3,0.1,0.7,0.2,1.1,0.2
			c0.4,0,0.7-0.1,0.9-0.3s0.3-0.4,0.3-0.7v0c0-0.1,0-0.2-0.1-0.4c0-0.1-0.1-0.2-0.2-0.3c-0.1-0.1-0.3-0.2-0.5-0.2
			c-0.2-0.1-0.4-0.1-0.8-0.2c-0.3-0.1-0.6-0.1-0.9-0.2c-0.2-0.1-0.4-0.2-0.6-0.3c-0.2-0.1-0.3-0.3-0.4-0.5c-0.1-0.2-0.1-0.4-0.1-0.6
			l0,0c0-0.2,0-0.4,0.1-0.6c0.1-0.2,0.2-0.4,0.4-0.5c0.2-0.1,0.4-0.2,0.6-0.3c0.2-0.1,0.5-0.1,0.8-0.1c0.4,0,0.8,0.1,1.1,0.2
			c0.3,0.1,0.6,0.3,0.9,0.5l-0.4,0.5c-0.3-0.2-0.5-0.4-0.8-0.5c-0.3-0.1-0.6-0.1-0.8-0.1c-0.4,0-0.7,0.1-0.9,0.3
			c-0.2,0.2-0.3,0.4-0.3,0.7v0c0,0.1,0,0.3,0.1,0.4c0,0.1,0.1,0.2,0.2,0.3c0.1,0.1,0.3,0.2,0.5,0.2c0.2,0.1,0.5,0.1,0.8,0.2
			c0.6,0.1,1.1,0.3,1.4,0.6c0.3,0.2,0.5,0.6,0.5,1v0c0,0.2,0,0.5-0.1,0.7s-0.2,0.4-0.4,0.5c-0.2,0.1-0.4,0.2-0.6,0.3
			C107.6,77.3,107.3,77.3,107,77.3z"/>
		<path d="M115.1,77.3c-0.4,0-0.8-0.1-1.2-0.2c-0.4-0.2-0.7-0.4-0.9-0.6c-0.3-0.3-0.5-0.6-0.6-0.9c-0.1-0.4-0.2-0.7-0.2-1.1v0
			c0-0.4,0.1-0.8,0.2-1.1c0.1-0.4,0.3-0.7,0.6-0.9c0.3-0.3,0.6-0.5,0.9-0.7c0.4-0.2,0.8-0.2,1.2-0.2c0.4,0,0.8,0.1,1.2,0.2
			c0.4,0.2,0.7,0.4,0.9,0.6c0.3,0.3,0.5,0.6,0.6,0.9c0.1,0.4,0.2,0.7,0.2,1.1v0c0,0.4-0.1,0.8-0.2,1.1c-0.1,0.4-0.3,0.7-0.6,0.9
			c-0.3,0.3-0.6,0.5-0.9,0.7C115.9,77.2,115.5,77.3,115.1,77.3z M115.1,76.7c0.3,0,0.6-0.1,0.9-0.2c0.3-0.1,0.5-0.3,0.7-0.5
			s0.4-0.5,0.5-0.8c0.1-0.3,0.2-0.6,0.2-0.9v0c0-0.3,0-0.6-0.2-0.9c-0.1-0.3-0.3-0.5-0.5-0.8c-0.2-0.2-0.4-0.4-0.7-0.5
			c-0.3-0.1-0.6-0.2-0.9-0.2s-0.6,0.1-0.9,0.2c-0.3,0.1-0.5,0.3-0.7,0.5c-0.2,0.2-0.4,0.5-0.5,0.8c-0.1,0.3-0.2,0.6-0.2,0.9v0
			c0,0.3,0,0.6,0.2,0.9s0.3,0.5,0.5,0.8c0.2,0.2,0.4,0.4,0.7,0.5C114.5,76.7,114.8,76.7,115.1,76.7z"/>
		<path d="M121.5,71.5h0.6l3.6,4.6v-4.6h0.6v5.7h-0.5l-3.7-4.7v4.7h-0.6V71.5z"/>
	</g>
</g>
</svg>
