<?xml version="1.0" encoding="utf-8"?>
<!-- Generator: Adobe Illustrator 18.1.1, SVG Export Plug-In . SVG Version: 6.00 Build 0)  -->
<svg version="1.1" id="Layer_1" xmlns="http://www.w3.org/2000/svg" xmlns:xlink="http://www.w3.org/1999/xlink" x="0px" y="0px"
	 viewBox="0 0 983.9 984.3" enable-background="new 0 0 983.9 984.3" xml:space="preserve">
<g id="Guides">
</g>
<g id="wd1a_1_">
	<g>
		<path d="M186.8,474h4v21l20.2-21h5.1L201,489.3l15.7,19.8h-5l-13.5-17l-7.5,7.6v9.4h-4V474z"/>
		<path d="M236,474h15.1c2.2,0,4.1,0.3,5.8,0.9c1.7,0.6,3.1,1.5,4.2,2.6c0.9,0.9,1.5,1.9,2,3.1c0.5,1.2,0.7,2.5,0.7,3.9v0.1
			c0,1.5-0.2,2.8-0.7,3.9c-0.5,1.2-1.1,2.2-2,3c-0.9,0.9-1.9,1.6-3,2.1c-1.2,0.6-2.4,0.9-3.8,1.2l10.8,14.4h-4.9L250,495.5h-0.1H240
			v13.7h-4V474z M250.8,491.9c1.3,0,2.5-0.2,3.6-0.5c1.1-0.3,2.1-0.8,2.9-1.4c0.8-0.6,1.4-1.4,1.9-2.3c0.5-0.9,0.7-1.9,0.7-3v-0.1
			c0-2.2-0.8-3.9-2.4-5.1c-1.6-1.2-3.8-1.8-6.6-1.8H240v14.3H250.8z"/>
		<path d="M285.7,474h4v35.2h-4V474z"/>
		<path d="M325.2,509.6c-2.8,0-5.4-0.5-7.7-1.4c-2.3-0.9-4.5-2.3-6.7-4.2l2.5-2.9c1.8,1.7,3.7,2.9,5.6,3.7c1.9,0.8,4,1.2,6.5,1.2
			c2.4,0,4.3-0.6,5.7-1.7c1.4-1.1,2.1-2.6,2.1-4.3V500c0-0.8-0.1-1.5-0.4-2.2c-0.3-0.7-0.7-1.2-1.4-1.8c-0.7-0.5-1.6-1-2.8-1.5
			c-1.2-0.4-2.7-0.9-4.6-1.3c-2-0.4-3.8-0.9-5.3-1.5c-1.5-0.6-2.7-1.3-3.7-2.1c-1-0.8-1.7-1.7-2.2-2.8c-0.5-1.1-0.7-2.3-0.7-3.8V483
			c0-1.4,0.3-2.6,0.9-3.8c0.6-1.2,1.4-2.2,2.4-3c1-0.9,2.3-1.5,3.7-2c1.4-0.5,2.9-0.7,4.6-0.7c2.6,0,4.8,0.4,6.8,1.1
			c1.9,0.7,3.8,1.8,5.6,3.2l-2.3,3.1c-1.6-1.3-3.3-2.3-4.9-2.9c-1.7-0.6-3.4-0.9-5.2-0.9c-2.3,0-4.1,0.5-5.5,1.6c-1.3,1.1-2,2.4-2,4
			v0.1c0,0.8,0.1,1.6,0.4,2.2c0.3,0.7,0.8,1.3,1.5,1.8c0.7,0.6,1.7,1.1,2.9,1.5c1.2,0.5,2.8,0.9,4.8,1.3c3.9,0.9,6.8,2.1,8.7,3.6
			c1.9,1.5,2.8,3.7,2.8,6.3v0.1c0,1.5-0.3,2.9-0.9,4.1c-0.6,1.2-1.4,2.3-2.5,3.1c-1,0.9-2.3,1.5-3.8,2
			C328.5,509.4,326.9,509.6,325.2,509.6z"/>
		<path d="M367.6,477.6h-11.8V474h27.6v3.7h-11.8v31.5h-4V477.6z"/>
		<path d="M404.3,474h4v35.2h-4V474z"/>
		<path d="M431.6,474h3.7l22.2,28.2V474h3.9v35.2h-3.2l-22.7-28.8v28.8h-3.9V474z"/>
		<path d="M512.5,474h4v15.6h20.3V474h4v35.2h-4v-15.8h-20.3v15.8h-4V474z"/>
		<path d="M576.7,473.7h3.7l16,35.4h-4.3l-4.1-9.3h-19.1l-4.2,9.3h-4.1L576.7,473.7z M586.5,496.3l-8-17.9l-8,17.9H586.5z"/>
		<path d="M616.5,474h3.7l22.2,28.2V474h3.9v35.2H643l-22.7-28.8v28.8h-3.9V474z"/>
		<path d="M681.3,509.6c-2.8,0-5.4-0.5-7.7-1.4c-2.3-0.9-4.5-2.3-6.7-4.2l2.5-2.9c1.8,1.7,3.7,2.9,5.6,3.7c1.9,0.8,4,1.2,6.5,1.2
			c2.4,0,4.3-0.6,5.7-1.7c1.4-1.1,2.1-2.6,2.1-4.3V500c0-0.8-0.1-1.5-0.4-2.2c-0.3-0.7-0.7-1.2-1.4-1.8c-0.7-0.5-1.6-1-2.8-1.5
			c-1.2-0.4-2.7-0.9-4.6-1.3c-2-0.4-3.8-0.9-5.3-1.5c-1.5-0.6-2.7-1.3-3.7-2.1c-1-0.8-1.7-1.7-2.2-2.8c-0.5-1.1-0.7-2.3-0.7-3.8V483
			c0-1.4,0.3-2.6,0.9-3.8c0.6-1.2,1.4-2.2,2.4-3c1-0.9,2.3-1.5,3.7-2c1.4-0.5,2.9-0.7,4.6-0.7c2.6,0,4.8,0.4,6.8,1.1
			c1.9,0.7,3.8,1.8,5.6,3.2l-2.3,3.1c-1.6-1.3-3.3-2.3-4.9-2.9c-1.7-0.6-3.4-0.9-5.2-0.9c-2.3,0-4.1,0.5-5.5,1.6c-1.3,1.1-2,2.4-2,4
			v0.1c0,0.8,0.1,1.6,0.4,2.2c0.3,0.7,0.8,1.3,1.5,1.8c0.7,0.6,1.7,1.1,2.9,1.5c1.2,0.5,2.8,0.9,4.8,1.3c3.9,0.9,6.8,2.1,8.7,3.6
			c1.9,1.5,2.8,3.7,2.8,6.3v0.1c0,1.5-0.3,2.9-0.9,4.1c-0.6,1.2-1.4,2.3-2.5,3.1c-1,0.9-2.3,1.5-3.8,2
			C684.7,509.4,683.1,509.6,681.3,509.6z"/>
		<path d="M730.8,509.7c-2.7,0-5.1-0.5-7.3-1.5c-2.2-1-4.1-2.3-5.7-3.9c-1.6-1.7-2.8-3.6-3.6-5.8c-0.9-2.2-1.3-4.5-1.3-6.9v-0.1
			c0-2.4,0.4-4.7,1.3-6.9c0.9-2.2,2.1-4.1,3.7-5.8c1.6-1.7,3.5-3,5.7-4c2.2-1,4.7-1.5,7.3-1.5c2.7,0,5.1,0.5,7.3,1.5
			c2.2,1,4.1,2.3,5.7,3.9c1.6,1.7,2.8,3.6,3.6,5.8c0.9,2.2,1.3,4.5,1.3,6.9c0,0,0,0.1,0,0.1c0,2.4-0.4,4.7-1.3,6.9
			c-0.9,2.2-2.1,4.1-3.7,5.8c-1.6,1.7-3.5,3-5.7,4C735.9,509.2,733.4,509.7,730.8,509.7z M730.9,506.1c2,0,3.9-0.4,5.6-1.1
			c1.7-0.8,3.1-1.8,4.3-3.1c1.2-1.3,2.2-2.8,2.8-4.6c0.7-1.7,1-3.6,1-5.6v-0.1c0-2-0.3-3.9-1-5.7c-0.7-1.8-1.6-3.3-2.9-4.6
			c-1.2-1.3-2.7-2.3-4.4-3.1c-1.7-0.8-3.5-1.2-5.6-1.2s-3.9,0.4-5.6,1.1c-1.7,0.8-3.1,1.8-4.3,3.1c-1.2,1.3-2.2,2.8-2.8,4.6
			c-0.7,1.7-1,3.6-1,5.6v0.1c0,2,0.3,3.9,1,5.7c0.7,1.8,1.6,3.3,2.9,4.6c1.2,1.3,2.7,2.3,4.4,3.1C727,505.7,728.8,506.1,730.9,506.1
			z"/>
		<path d="M770.2,474h3.7l22.2,28.2V474h3.9v35.2h-3.2l-22.7-28.8v28.8h-3.9V474z"/>
	</g>
</g>
</svg>
