<?xml version="1.0" encoding="utf-8"?>
<!-- Generator: Adobe Illustrator 18.1.1, SVG Export Plug-In . SVG Version: 6.00 Build 0)  -->
<svg version="1.1" id="Layer_1" xmlns="http://www.w3.org/2000/svg" xmlns:xlink="http://www.w3.org/1999/xlink" x="0px" y="0px"
	 viewBox="0 0 983.9 984.3" enable-background="new 0 0 983.9 984.3" xml:space="preserve">
<g id="Guides">
</g>
<g id="wd2a">
	<g id="TEXT">
		<g id="EAL" display="none">
			<path display="inline" fill="#B77BB5" d="M217,697.9c-1.5,2.5-3.2,4.3-5,5.4c-1.8,1.1-4.2,1.7-7.1,1.7c-2.1,0-3.8-0.6-5.1-1.9
				c-1.2-1.3-1.9-3.1-1.9-5.4c0-0.6,0.1-1.3,0.2-2c-0.9,1.2-1.6,2.1-2.1,2.9l-1.3-0.9c3.3-4.7,5.9-7.8,7.7-9.3
				c1.8-1.5,3.7-2.2,5.6-2.2c1.1,0,1.9,0.3,2.6,0.9c0.7,0.6,1,1.4,1,2.4c0,3.3-2.9,6.6-8.8,9.9c0.8,1.9,2.5,2.8,5,2.8
				c1.2,0,2.6-0.4,4-1.3c1.5-0.9,2.8-2.1,4-3.8L217,697.9z M202.1,697.8c4.3-2.1,6.4-4.4,6.4-6.9c0-0.8-0.2-1.4-0.6-1.9
				c-0.4-0.5-1-0.7-1.7-0.7c-1.3,0-2.4,0.6-3.3,1.8c-0.9,1.2-1.4,2.7-1.4,4.4c0,0.9,0.1,1.7,0.3,2.4
				C202,697.4,202.1,697.7,202.1,697.8z"/>
			<path display="inline" fill="#B77BB5" d="M225.4,679.1c0.6-0.4,1.4-0.5,2.5-0.5c2,0,3.8,0.9,5.3,2.6c1.5,1.7,2.2,3.9,2.2,6.6
				c0,6.1-3.3,11.9-10,17.5l-0.4-0.3c0.1-0.8,0.1-1.5,0.1-2.1c0-2.4-1.5-5.6-4.6-9.8c-0.6,0.6-1.3,1.6-2.2,3l-1.8,2.7l-1.2-1
				c0.5-0.6,1.1-1.5,1.8-2.7c0.7-1.3,1.3-2.2,1.7-2.8c1.3-1.8,2.1-3.7,2.4-5.7h0.5c0.3,1.3,1.1,3.1,2.6,5.2c1.5,2.2,2.4,3.8,2.8,5
				c0.3,1.1,0.5,2.2,0.5,3.3v1.1c4.1-4.2,6.1-8.6,6.1-13.3c0-1.7-0.4-3.1-1.3-4.1c-0.8-1-2-1.5-3.3-1.5c-1,0-2,0.3-3,0.8
				C225.7,681.7,225.4,680.5,225.4,679.1z M238.4,697.9c-2.8,4.5-6.3,7-10.4,7.4l-0.3-0.7c1.9-0.4,3.5-1.2,4.7-2.2
				c1.3-1,2.8-2.8,4.7-5.4L238.4,697.9z"/>
			<path display="inline" fill="#B77BB5" d="M259,697.9c-1.5,2.5-3.2,4.3-5,5.4c-1.8,1.1-4.2,1.7-7.1,1.7c-2.1,0-3.8-0.6-5.1-1.9
				c-1.2-1.3-1.9-3.1-1.9-5.4c0-0.6,0.1-1.3,0.2-2c-0.9,1.2-1.6,2.1-2.1,2.9l-1.3-0.9c3.3-4.7,5.9-7.8,7.7-9.3
				c1.8-1.5,3.7-2.2,5.6-2.2c1.1,0,1.9,0.3,2.6,0.9c0.7,0.6,1,1.4,1,2.4c0,3.3-2.9,6.6-8.8,9.9c0.8,1.9,2.5,2.8,5,2.8
				c1.2,0,2.6-0.4,4-1.3c1.5-0.9,2.8-2.1,4-3.8L259,697.9z M244,697.8c4.3-2.1,6.4-4.4,6.4-6.9c0-0.8-0.2-1.4-0.6-1.9
				c-0.4-0.5-1-0.7-1.7-0.7c-1.3,0-2.4,0.6-3.3,1.8c-0.9,1.2-1.4,2.7-1.4,4.4c0,0.9,0.1,1.7,0.3,2.4
				C243.9,697.4,244,697.7,244,697.8z"/>
			<path display="inline" fill="#B77BB5" d="M277.8,697.9c-2.9,4.6-5.8,6.9-8.8,6.9c-3,0-4.5-1.7-4.5-5.1c0-2.8,1.3-5.8,4-9.1
				c-0.5,0.1-1.3,0.2-2.5,0.2c-0.8,0-1.6-0.2-2.4-0.5c-1.3,2.9-3,5.6-5.2,8.4l-1.2-1c2.4-3.5,4.5-7.5,6.3-11.9
				c2.5,1.2,4.4,1.7,5.8,1.7c1.3,0,2.5-0.5,3.5-1.6l0.7,0.5c-1.6,2-2.9,3.9-3.8,5.9c-1,2-1.4,4.2-1.4,6.6c0,0.7,0.2,1.4,0.7,2.1
				c0.5,0.7,1,1,1.6,1c1,0,1.9-0.4,2.8-1.2c0.9-0.8,2-2.1,3.2-3.8L277.8,697.9z"/>
			<path display="inline" fill="#B77BB5" d="M305.6,697.2c-2.8,4.5-5.4,6.9-7.8,7.3v12.3c0,3-0.9,5.6-2.8,7.6
				c-1.9,2.1-4.2,3.1-7,3.1c-1.6,0-3.2-0.4-4.7-1.2c-1.6-0.8-2.8-2-3.6-3.4l3.2-3.6l0.5,0.5c-0.1,0.6-0.2,1.1-0.2,1.5
				c0,1.2,0.5,2.3,1.6,3.2c1,1,2.3,1.4,3.8,1.4c1.6,0,2.9-0.6,3.8-1.9c0.9-1.2,1.4-3,1.4-5.2v-21.6c-2.1,3-3.8,5-5,6.1
				c-1.2,1.1-2.4,1.6-3.6,1.6c-2.5,0-3.7-1.3-3.7-4.1v-9.1c-1,2.2-2.2,4.4-3.8,6.6l-1.1-1c2.5-3.9,4.1-7.1,4.9-9.8l4.1-2v15.2
				c0,0.9,0.4,1.3,1.1,1.3h0.4c1,0,3.2-2.7,6.8-8v-6.5l4.1-2v16.7c1.7-0.2,3.9-2.2,6.6-6L305.6,697.2z"/>
			<path display="inline" fill="#B77BB5" d="M308.8,673.1c0-1.6,0.5-2.8,1.4-3.7c0.9-0.9,2.1-1.3,3.6-1.3c3.2,0,6,1.6,8.4,4.8
				c2.5,3.2,3.7,7.3,3.7,12.3c0,5.5-1.3,10.1-4,13.9c-2.6,3.7-5.7,5.6-9.1,5.6c-1.9,0-3.4-0.6-4.6-1.8c-1.2-1.2-1.8-2.6-1.8-4.2
				v-1.3c0-0.7,0-1.2,0.1-1.4l-1.8,2.5l-1.3-0.9c5.1-7.8,9.8-11.8,14.3-11.8c2.4,0,4.2,1,5.5,3c0.2-1.1,0.2-2.2,0.2-3.2
				c0-3.4-1.1-6.6-3.2-9.4c-2.1-2.8-4.6-4.2-7.4-4.2C311.4,672,310,672.4,308.8,673.1z M314.8,701.9c2,0,3.7-1,5.3-3
				c1.6-2,2.4-4.1,2.4-6.5c0-1.5-0.4-2.8-1.3-3.6c-0.9-0.9-2.1-1.3-3.6-1.3c-2,0-3.7,0.9-5.2,2.7c-1.5,1.8-2.3,3.8-2.3,6
				c0,1.7,0.4,3,1.3,4.1C312.3,701.4,313.4,701.9,314.8,701.9z M329,697.9c-2.8,4.5-6.6,7-11.3,7.5l-0.3-0.9c4.2-1,7.7-3.5,10.4-7.6
				L329,697.9z"/>
			<path display="inline" fill="#B77BB5" d="M356.1,697.9c-2.9,4.6-5.8,6.9-8.6,6.9c-1.1,0-1.8-0.3-2.3-0.8
				c-0.5-0.6-0.7-1.7-0.7-3.5c-1.5,1.9-2.8,3.1-3.9,3.7c-1.1,0.6-2.3,0.9-3.6,0.9c-2,0-3.6-0.7-4.7-2c-1.2-1.4-1.8-3.2-1.8-5.5v-1.7
				c-0.3,0.4-0.9,1.3-2,2.8l-1.3-0.9c2.3-3.5,4.6-6.2,7.2-8.2c2.5-2,4.7-3,6.6-3c1.3,0,2.7,0.4,4,1.2l3.4-1.7V699
				c0,1.4,0.1,2.2,0.2,2.5c0.1,0.3,0.5,0.4,1,0.4c0.5,0,1.2-0.4,2.2-1.3c1-0.9,2-2.1,3.2-3.7L356.1,697.9z M344.4,697.4v-7.8
				c-1-1.1-2.3-1.6-3.7-1.6c-1.5,0-2.9,0.7-4.2,2.2c-1.2,1.4-1.9,3.2-1.9,5.4c0,1.9,0.4,3.3,1.3,4.3c0.9,1,2.1,1.5,3.6,1.5
				c1.2,0,2.3-0.6,3.3-1.8C343.9,698.5,344.4,697.7,344.4,697.4z"/>
			<path display="inline" fill="#B77BB5" d="M383.8,697.2c-2.8,4.5-5.4,6.9-7.8,7.3v12.3c0,3-0.9,5.6-2.8,7.6
				c-1.9,2.1-4.2,3.1-7,3.1c-1.6,0-3.2-0.4-4.7-1.2c-1.6-0.8-2.8-2-3.6-3.4l3.2-3.6l0.5,0.5c-0.1,0.6-0.2,1.1-0.2,1.5
				c0,1.2,0.5,2.3,1.6,3.2c1,1,2.3,1.4,3.8,1.4c1.6,0,2.9-0.6,3.8-1.9c0.9-1.2,1.4-3,1.4-5.2v-21.6c-2.1,3-3.8,5-5,6.1
				c-1.2,1.1-2.4,1.6-3.6,1.6c-2.5,0-3.7-1.3-3.7-4.1v-9.1c-1,2.2-2.2,4.4-3.8,6.6l-1.1-1c2.5-3.9,4.1-7.1,4.9-9.8l4.1-2v15.2
				c0,0.9,0.4,1.3,1.1,1.3h0.4c1,0,3.2-2.7,6.8-8v-6.5l4.1-2v16.7c1.7-0.2,3.9-2.2,6.6-6L383.8,697.2z"/>
			<path display="inline" fill="#B77BB5" d="M430.3,697.9c-2.9,4.6-5.8,6.9-8.6,6.9c-1.1,0-1.8-0.3-2.3-0.8
				c-0.5-0.6-0.7-1.7-0.7-3.5c-1.5,1.9-2.8,3.1-3.9,3.7c-1.1,0.6-2.3,0.9-3.6,0.9c-2,0-3.6-0.7-4.7-2c-1.2-1.4-1.8-3.2-1.8-5.5v-1.7
				c-0.3,0.4-0.9,1.3-2,2.8l-1.3-0.9c2.3-3.5,4.6-6.2,7.2-8.2c2.5-2,4.7-3,6.6-3c1.3,0,2.7,0.4,4,1.2l3.4-1.7V699
				c0,1.4,0.1,2.2,0.2,2.5c0.1,0.3,0.5,0.4,1,0.4c0.5,0,1.2-0.4,2.2-1.3c1-0.9,2-2.1,3.2-3.7L430.3,697.9z M418.6,697.4v-7.8
				c-1-1.1-2.3-1.6-3.7-1.6c-1.5,0-2.9,0.7-4.2,2.2c-1.2,1.4-1.9,3.2-1.9,5.4c0,1.9,0.4,3.3,1.3,4.3c0.9,1,2.1,1.5,3.6,1.5
				c1.2,0,2.3-0.6,3.3-1.8C418.1,698.5,418.6,697.7,418.6,697.4z"/>
			<path display="inline" fill="#B77BB5" d="M428.8,697.3c0.5-0.8,1-1.6,1.5-2.4c0.5-0.9,1.2-2.3,2.1-4.2c0.9-1.9,1.4-3,1.4-3.3
				v-17.3c0-3,1-5.7,3-8c2-2.3,4.3-3.5,6.8-3.5c3,0,4.5,1.4,4.5,4.2c0,2.5-0.7,5.3-2.1,8.6c-1.4,3.3-4.2,8.2-8.4,14.9v16.1
				c1.2-0.1,2.3-0.4,3.3-1.1c1-0.6,2.4-2.3,4.3-5.1l1.2,1c-3,4.9-5.9,7.4-8.8,7.4v13.3c0,3-0.8,5.3-2.4,7.1
				c-1.6,1.8-3.7,2.7-6.1,2.7c-2.5,0-4.5-1.1-6-3.3l3.2-3.1l0.6,0.5c-0.2,0.5-0.2,0.9-0.2,1.1c0,1,0.3,1.8,0.9,2.5
				c0.6,0.7,1.4,1,2.4,1c2.5,0,3.8-2.6,3.8-7.7v-14.2c-1.3-0.2-2.6-0.8-3.9-1.7c0.3-1.1,0.8-2.2,1.7-3.3c0.7,1.2,1.5,1.9,2.2,2.2
				v-10.2c-1,2.5-2.3,4.8-3.9,6.9L428.8,697.3z M437.6,682.5c4.9-7.8,7.3-14,7.3-18.7c0-2.3-0.8-3.5-2.5-3.5c-1.3,0-2.4,0.7-3.3,2
				c-1,1.3-1.4,3.1-1.4,5.2V682.5z"/>
			<path display="inline" fill="#B77BB5" d="M444.4,697.3c0.5-0.8,1-1.6,1.5-2.4c0.5-0.9,1.2-2.3,2.1-4.2c0.9-1.9,1.4-3,1.4-3.3
				v-17.3c0-3,1-5.7,3-8s4.3-3.5,6.8-3.5c3,0,4.5,1.4,4.5,4.2c0,2.5-0.7,5.3-2.1,8.6c-1.4,3.3-4.2,8.2-8.4,14.9v16.1
				c1.2-0.1,2.3-0.4,3.3-1.1c1-0.6,2.4-2.3,4.3-5.1l1.2,1c-3,4.9-5.9,7.4-8.8,7.4v13.3c0,3-0.8,5.3-2.4,7.1
				c-1.6,1.8-3.7,2.7-6.1,2.7c-2.5,0-4.5-1.1-6-3.3l3.2-3.1l0.6,0.5c-0.2,0.5-0.2,0.9-0.2,1.1c0,1,0.3,1.8,0.9,2.5
				c0.6,0.7,1.4,1,2.4,1c2.5,0,3.8-2.6,3.8-7.7v-14.2c-1.3-0.2-2.6-0.8-3.9-1.7c0.3-1.1,0.8-2.2,1.7-3.3c0.7,1.2,1.5,1.9,2.2,2.2
				v-10.2c-1,2.5-2.3,4.8-3.9,6.9L444.4,697.3z M453.3,682.5c4.9-7.8,7.3-14,7.3-18.7c0-2.3-0.8-3.5-2.5-3.5c-1.3,0-2.4,0.7-3.3,2
				c-1,1.3-1.4,3.1-1.4,5.2V682.5z"/>
			<path display="inline" fill="#B77BB5" d="M459.8,697.6c3.3-4.8,6.1-7.9,8.2-9.2c2.1-1.4,4.4-2.1,6.7-2.1c2.2,0,4,0.6,5.3,1.8
				c1.3,1.2,1.9,2.8,1.9,4.9c0,3-1.2,5.8-3.6,8.3c-2.4,2.5-5.2,3.7-8.4,3.7c-2.1,0-3.7-0.6-5-1.9c-1.2-1.2-1.9-2.8-1.9-4.8
				c0-1,0.1-2,0.2-2.8c-0.4,0.4-1.1,1.4-2.1,3L459.8,697.6z M472.3,702.5c2,0,3.5-0.7,4.7-2.1c1.2-1.4,1.7-3.3,1.7-5.6
				c0-2-0.5-3.6-1.6-4.8c-1.1-1.1-2.5-1.7-4.3-1.7c-1.9,0-3.4,0.7-4.5,2c-1.1,1.4-1.7,3.3-1.7,5.7
				C466.7,700.3,468.6,702.5,472.3,702.5z M486.3,697.9c-2.1,2.9-4,4.9-5.8,5.8s-3.7,1.5-5.5,1.7l-0.3-0.9c4.2-1,7.7-3.5,10.3-7.6
				L486.3,697.9z"/>
			<path display="inline" fill="#B77BB5" d="M505.2,697.9c-2.9,4.6-5.8,6.9-8.8,6.9c-3,0-4.5-1.7-4.5-5.1c0-2.8,1.3-5.8,4-9.1
				c-0.5,0.1-1.3,0.2-2.5,0.2c-0.8,0-1.6-0.2-2.4-0.5c-1.3,2.9-3,5.6-5.2,8.4l-1.2-1c2.4-3.5,4.5-7.5,6.3-11.9
				c2.5,1.2,4.4,1.7,5.8,1.7c1.3,0,2.5-0.5,3.5-1.6l0.7,0.5c-1.6,2-2.9,3.9-3.8,5.9c-1,2-1.4,4.2-1.4,6.6c0,0.7,0.2,1.4,0.7,2.1
				c0.5,0.7,1,1,1.6,1c1,0,1.9-0.4,2.8-1.2c0.9-0.8,2-2.1,3.2-3.8L505.2,697.9z"/>
			<path display="inline" fill="#B77BB5" d="M508.9,673.1c0-1.6,0.5-2.8,1.4-3.7c0.9-0.9,2.1-1.3,3.6-1.3c3.2,0,6,1.6,8.4,4.8
				c2.5,3.2,3.7,7.3,3.7,12.3c0,5.5-1.3,10.1-4,13.9c-2.6,3.7-5.7,5.6-9.1,5.6c-1.9,0-3.4-0.6-4.6-1.8c-1.2-1.2-1.8-2.6-1.8-4.2
				v-1.3c0-0.7,0-1.2,0.1-1.4l-1.8,2.5l-1.3-0.9c5.1-7.8,9.8-11.8,14.3-11.8c2.4,0,4.2,1,5.5,3c0.2-1.1,0.2-2.2,0.2-3.2
				c0-3.4-1.1-6.6-3.2-9.4c-2.1-2.8-4.6-4.2-7.4-4.2C511.5,672,510.2,672.4,508.9,673.1z M515,701.9c2,0,3.7-1,5.3-3
				c1.6-2,2.4-4.1,2.4-6.5c0-1.5-0.4-2.8-1.3-3.6c-0.9-0.9-2.1-1.3-3.6-1.3c-2,0-3.7,0.9-5.2,2.7c-1.5,1.8-2.3,3.8-2.3,6
				c0,1.7,0.4,3,1.3,4.1C512.5,701.4,513.6,701.9,515,701.9z M529.1,697.9c-2.8,4.5-6.6,7-11.3,7.5l-0.3-0.9c4.2-1,7.6-3.5,10.4-7.6
				L529.1,697.9z"/>
			<path display="inline" fill="#B77BB5" d="M556.3,697.9c-2.9,4.6-5.8,6.9-8.6,6.9c-1.1,0-1.8-0.3-2.3-0.8
				c-0.5-0.6-0.7-1.7-0.7-3.5c-1.5,1.9-2.8,3.1-3.9,3.7c-1.1,0.6-2.3,0.9-3.6,0.9c-2,0-3.6-0.7-4.7-2c-1.2-1.4-1.8-3.2-1.8-5.5v-1.7
				c-0.3,0.4-0.9,1.3-2,2.8l-1.3-0.9c2.3-3.5,4.6-6.2,7.2-8.2c2.5-2,4.7-3,6.6-3c1.3,0,2.7,0.4,4,1.2l3.4-1.7V699
				c0,1.4,0.1,2.2,0.2,2.5c0.1,0.3,0.5,0.4,1,0.4c0.5,0,1.2-0.4,2.2-1.3c1-0.9,2-2.1,3.2-3.7L556.3,697.9z M544.6,697.4v-7.8
				c-1-1.1-2.3-1.6-3.7-1.6c-1.5,0-2.9,0.7-4.2,2.2c-1.2,1.4-1.9,3.2-1.9,5.4c0,1.9,0.4,3.3,1.3,4.3c0.9,1,2.1,1.5,3.6,1.5
				c1.2,0,2.3-0.6,3.3-1.8C544.1,698.5,544.6,697.7,544.6,697.4z"/>
			<path display="inline" fill="#B77BB5" d="M563.9,690c2.1-2.7,4.6-4.1,7.6-4.1c1.7,0,3,0.6,4.1,1.8c1.1,1.2,1.6,2.7,1.6,4.6
				c0,3-1.1,5.9-3.4,8.5c-2.3,2.6-4.8,3.9-7.5,3.9c-2,0-3.6-0.7-4.8-1.9c-1.1-1.3-1.7-3.1-1.7-5.5v-5.8c-0.9,2.2-2.2,4.5-3.9,6.9
				l-1.1-1c1.4-2.3,2.6-4.5,3.6-6.6c0.9-2.1,1.4-3.2,1.4-3.4v-14.3c0-4.4,1-8,2.9-10.8c1.9-2.8,4.2-4.1,6.7-4.1
				c1.3,0,2.3,0.5,3.1,1.4c0.8,0.9,1.2,2.1,1.2,3.5c0,2-0.7,4.7-2.2,8c-1.5,3.3-4,8-7.6,14.2V690z M563.9,681.9
				c2.9-5.1,4.8-8.9,5.7-11.3c0.9-2.4,1.4-4.5,1.4-6.4c0-1.3-0.3-2.3-0.8-3c-0.5-0.8-1.2-1.2-2.1-1.2c-1.3,0-2.3,0.7-3,2.2
				c-0.8,1.5-1.1,3.4-1.1,5.9V681.9z M563.9,698c0,3.4,1.2,5.1,3.5,5.1c1.6,0,3-0.8,4.3-2.5c1.3-1.6,2-3.6,2-5.8
				c0-1.9-0.4-3.3-1.3-4.4c-0.8-1.1-2-1.6-3.3-1.6c-1.6,0-2.9,0.6-3.8,1.8c-0.9,1.2-1.4,1.9-1.4,2.1V698z M582.6,697.9
				c-2.8,4.5-6.6,7-11.3,7.5l-0.3-0.9c4.1-0.9,7.6-3.4,10.4-7.6L582.6,697.9z"/>
			<path display="inline" fill="#B77BB5" d="M580.9,697.6c0.5-0.7,0.9-1.3,1.3-1.9c0.4-0.6,0.8-1.3,1.2-2.1c0.4-0.8,0.9-1.8,1.4-3.1
				c0.5-1.3,0.8-2.1,0.8-2.5v-14.9c0-3.7,1.2-7,3.5-10c2.3-3,4.7-4.5,7.3-4.5c1.3,0,2.4,0.5,3.1,1.4c0.8,0.9,1.1,2.2,1.1,3.7
				c0,2.1-0.8,4.8-2.5,8.3c-1.7,3.5-4.6,8.4-8.6,14.6v11.1c0,1.6,0.1,2.7,0.2,3.3c0.1,0.6,0.5,0.9,1,0.9c1.2,0,3-1.7,5.6-5.1l1.2,1
				c-3.1,4.6-6.1,6.9-9.1,6.9c-0.9,0-1.6-0.3-2-0.9c-0.5-0.6-0.7-2-0.7-4.1v-7c-0.8,2-2,4-3.5,5.9L580.9,697.6z M589.4,683.8
				c3.4-5.7,5.7-9.8,6.8-12.3c1.1-2.6,1.6-4.8,1.6-6.7c0-2.9-0.9-4.3-2.7-4.3c-1.6,0-3,0.9-4.1,2.7c-1.1,1.8-1.7,4.3-1.7,7.4V683.8z
				"/>
			<path display="inline" fill="#B77BB5" d="M618,697.9c-1.5,2.5-3.2,4.3-5,5.4c-1.8,1.1-4.2,1.7-7.1,1.7c-2.1,0-3.8-0.6-5.1-1.9
				c-1.2-1.3-1.9-3.1-1.9-5.4c0-0.6,0.1-1.3,0.2-2c-0.9,1.2-1.6,2.1-2.1,2.9l-1.3-0.9c3.3-4.7,5.9-7.8,7.7-9.3
				c1.8-1.5,3.7-2.2,5.6-2.2c1.1,0,1.9,0.3,2.6,0.9c0.7,0.6,1,1.4,1,2.4c0,3.3-2.9,6.6-8.8,9.9c0.8,1.9,2.5,2.8,5,2.8
				c1.2,0,2.6-0.4,4-1.3c1.5-0.9,2.8-2.1,4-3.8L618,697.9z M603.1,697.8c4.3-2.1,6.4-4.4,6.4-6.9c0-0.8-0.2-1.4-0.6-1.9
				c-0.4-0.5-1-0.7-1.7-0.7c-1.3,0-2.4,0.6-3.3,1.8c-0.9,1.2-1.3,2.7-1.3,4.4c0,0.9,0.1,1.7,0.3,2.4
				C603,697.4,603.1,697.7,603.1,697.8z"/>
			<path display="inline" fill="#B77BB5" d="M636,697.6c0.5-0.7,0.9-1.3,1.3-1.9c0.4-0.6,0.8-1.3,1.2-2.1c0.4-0.8,0.9-1.8,1.4-3.1
				c0.5-1.3,0.8-2.1,0.8-2.5v-14.9c0-3.7,1.2-7,3.5-10c2.3-3,4.7-4.5,7.3-4.5c1.3,0,2.4,0.5,3.1,1.4c0.8,0.9,1.1,2.2,1.1,3.7
				c0,2.1-0.8,4.8-2.5,8.3c-1.7,3.5-4.6,8.4-8.6,14.6v11.1c0,1.6,0.1,2.7,0.2,3.3c0.1,0.6,0.5,0.9,1,0.9c1.2,0,3-1.7,5.6-5.1l1.2,1
				c-3.1,4.6-6.1,6.9-9.1,6.9c-0.9,0-1.6-0.3-2-0.9c-0.5-0.6-0.7-2-0.7-4.1v-7c-0.8,2-2,4-3.5,5.9L636,697.6z M644.6,683.8
				c3.4-5.7,5.7-9.8,6.8-12.3c1.1-2.6,1.6-4.8,1.6-6.7c0-2.9-0.9-4.3-2.7-4.3c-1.6,0-3,0.9-4.1,2.7s-1.7,4.3-1.7,7.4V683.8z"/>
			<path display="inline" fill="#B77BB5" d="M679.7,697.9c-3.1,4.6-6.1,6.9-8.9,6.9c-1,0-1.7-0.3-2.2-0.9c-0.5-0.6-0.8-2-0.8-4.1
				v-3.2c-2.8,4.1-4.7,6.6-5.9,7.4c-1.1,0.8-2.2,1.3-3.2,1.3c-1.1,0-1.9-0.4-2.5-1.1c-0.6-0.7-0.9-2.4-0.9-5v-6.3
				c-1.1,2.5-2.2,4.4-3.4,5.9l-1.3-0.9c2.3-3.3,3.8-6.6,4.7-10l3.9-2v14c0,1,0.1,1.7,0.2,2c0.1,0.3,0.4,0.5,0.9,0.5
				c0.6,0,1.3-0.4,2.2-1.3c0.9-0.9,2-2.3,3.3-4.2c1.3-1.9,1.9-3,1.9-3.2v-5.9l3.9-2v12.1c0,1.6,0.1,2.7,0.2,3.3
				c0.1,0.6,0.4,0.9,1,0.9c1.3,0,3.1-1.7,5.6-5.1L679.7,697.9z"/>
			<path display="inline" fill="#B77BB5" d="M705.3,697.9c-1.4,2.2-2.8,3.8-4.3,5.1c-1.5,1.2-2.7,1.8-3.7,1.8
				c-0.9,0-1.6-0.4-2.2-1.2c-0.6-0.8-1.8-2.7-3.7-5.8c-0.3,0.4-1,1.5-2,3.1c-1,1.6-1.9,2.6-2.7,3.2c-0.8,0.6-1.7,0.8-2.5,0.8
				c-1.6,0-2.7-0.7-3.2-2c0.6-1.5,1.4-2.5,2.2-3.2c0.9,1.6,1.6,2.4,2.3,2.4c1,0,2-0.9,3-2.6l2-3.4l-2.6-4.7c-0.5-1.1-1-1.6-1.4-1.6
				c-0.4,0-1.5,1.2-3.1,3.5c-1.6,2.4-3,4.2-4,5.4l-1.2-1c3.2-4.6,5.4-7.7,6.6-9.2c1.3-1.5,2.3-2.2,3-2.2c1.1,0,2,0.7,2.8,2l2.2,3.8
				c1.7-2.9,3-4.6,3.8-5.1c0.8-0.6,1.7-0.9,2.6-0.9c1.1,0,2,0.5,2.7,1.3c-0.3,0.8-1.1,2-2.4,3.5c-0.7-1.1-1.3-1.7-1.8-1.7
				c-0.5,0-0.9,0.3-1.4,0.8c-0.5,0.5-1.3,1.8-2.4,3.8c2.4,4.2,3.9,6.5,4.3,6.9c0.4,0.3,0.9,0.5,1.5,0.5c0.9,0,2.4-1.4,4.5-4.3
				L705.3,697.9z"/>
			<path display="inline" fill="#B77BB5" d="M732.5,697.9c-3.1,4.6-6.1,6.9-8.9,6.9c-1,0-1.7-0.3-2.2-0.9c-0.5-0.6-0.8-2-0.8-4.1
				v-3.2c-2.8,4.1-4.7,6.6-5.9,7.4c-1.1,0.8-2.2,1.3-3.2,1.3c-1.1,0-1.9-0.4-2.5-1.1c-0.6-0.7-0.9-2.4-0.9-5v-6.3
				c-1.1,2.5-2.2,4.4-3.4,5.9l-1.3-0.9c2.3-3.3,3.8-6.6,4.7-10l3.9-2v14c0,1,0.1,1.7,0.2,2c0.1,0.3,0.4,0.5,0.9,0.5
				c0.6,0,1.3-0.4,2.2-1.3c0.9-0.9,2-2.3,3.3-4.2c1.3-1.9,1.9-3,1.9-3.2v-5.9l3.9-2v12.1c0,1.6,0.1,2.7,0.2,3.3
				c0.1,0.6,0.4,0.9,1,0.9c1.3,0,3.1-1.7,5.6-5.1L732.5,697.9z"/>
			<path display="inline" fill="#B77BB5" d="M751.4,697.9c-2.9,4.6-5.8,6.9-8.8,6.9c-3,0-4.5-1.7-4.5-5.1c0-2.8,1.3-5.8,4-9.1
				c-0.5,0.1-1.3,0.2-2.5,0.2c-0.8,0-1.6-0.2-2.4-0.5c-1.3,2.9-3,5.6-5.2,8.4l-1.2-1c2.4-3.5,4.5-7.5,6.3-11.9
				c2.5,1.2,4.4,1.7,5.8,1.7c1.3,0,2.5-0.5,3.5-1.6l0.7,0.5c-1.6,2-2.9,3.9-3.8,5.9c-1,2-1.4,4.2-1.4,6.6c0,0.7,0.2,1.4,0.7,2.1
				c0.5,0.7,1,1,1.6,1c1,0,1.9-0.4,2.8-1.2c0.9-0.8,2-2.1,3.2-3.8L751.4,697.9z"/>
			<path display="inline" fill="#B77BB5" d="M779.2,697.2c-2.8,4.5-5.4,6.9-7.8,7.3v12.3c0,3-0.9,5.6-2.8,7.6
				c-1.9,2.1-4.2,3.1-7,3.1c-1.6,0-3.2-0.4-4.7-1.2s-2.8-2-3.6-3.4l3.2-3.6l0.5,0.5c-0.1,0.6-0.2,1.1-0.2,1.5c0,1.2,0.5,2.3,1.6,3.2
				c1,1,2.3,1.4,3.8,1.4c1.6,0,2.9-0.6,3.8-1.9c0.9-1.2,1.4-3,1.4-5.2v-21.6c-2.1,3-3.8,5-5,6.1c-1.2,1.1-2.4,1.6-3.6,1.6
				c-2.5,0-3.7-1.3-3.7-4.1v-9.1c-1,2.2-2.2,4.4-3.8,6.6l-1.1-1c2.5-3.9,4.1-7.1,4.9-9.8l4.1-2v15.2c0,0.9,0.4,1.3,1.1,1.3h0.4
				c1,0,3.2-2.7,6.8-8v-6.5l4.1-2v16.7c1.7-0.2,3.9-2.2,6.6-6L779.2,697.2z"/>
			<path display="inline" fill="#B77BB5" d="M788.3,702.2l-3.5,3.7l-3.5-3.5l3.5-3.9L788.3,702.2z"/>
		</g>
		<g id="IP_2_">
			<g>
				<path d="M528.3,689.8c0-3.2,2.2-5.6,5.3-5.6c3.1,0,5.1,2.3,5.2,5.6c0,3.2-2.1,5.6-5.3,5.6C530.5,695.4,528.2,693,528.3,689.8z"
					/>
			</g>
			<g>
				<path d="M359.7,689.8c0-3.2,2.2-5.6,5.3-5.6c3.1,0,5.1,2.3,5.2,5.6c0,3.2-2.1,5.6-5.3,5.6C361.9,695.4,359.6,693,359.7,689.8z"
					/>
			</g>
		</g>
		<g id="CPN">
			<g id="CLEAN">
				<path d="M217,677.2l-3,5l-0.6-0.3c0.1-0.4,0.2-0.7,0.2-1c0-0.6-0.9-1.3-2.6-2.1c-2.4-1.2-5-1.8-7.9-1.8c-3.8,0-6.9,1.1-9.3,3.2
					c-2.4,2.2-3.6,4.9-3.6,8.4c0,3.4,1.3,6.2,3.8,8.5c2.4,2.2,5.4,3.3,9,3.3c3.5,0,6.5-1,9.2-3c1.2-0.9,1.8-1.6,1.8-1.9
					c0-0.2-0.1-0.5-0.3-0.9l0.5-0.4l3.6,4.4l-0.5,0.4c-0.4-0.3-0.7-0.5-0.9-0.5c-0.2,0-0.4,0.1-0.8,0.4c-1.3,0.9-2.3,1.7-3.1,2.1
					c-0.8,0.5-1.7,0.9-2.7,1.2c-2,0.7-4.3,1-6.7,1c-4.7,0-8.5-1.3-11.5-3.9c-3.1-2.7-4.6-6.2-4.6-10.5c0-3.4,1-6.3,2.9-8.7
					c3-3.8,7.6-5.8,13.6-5.8c4,0,7.9,1.1,11.6,3.2c0.2,0.1,0.4,0.2,0.5,0.2c0.2,0,0.5-0.3,1-0.8L217,677.2z"/>
				<path d="M227.5,700h17.8c0.6,0,1-0.1,1.2-0.3c0.2-0.2,0.4-0.5,0.5-1h0.7v5.3h-0.7c-0.1-0.5-0.3-0.9-0.5-1
					c-0.2-0.2-0.6-0.3-1.2-0.3H223V702c0.5-0.1,0.9-0.3,1.1-0.6c0.2-0.2,0.3-0.6,0.3-1.2v-23.1c0-0.6-0.1-1-0.3-1.2
					c-0.2-0.2-0.5-0.4-1-0.5v-0.7h5.8v0.7c-0.5,0.1-0.9,0.3-1,0.5c-0.2,0.2-0.3,0.6-0.3,1.2V700z"/>
				<path d="M255.9,689.6V700h17.9c0.6,0,1-0.1,1.2-0.3c0.2-0.2,0.4-0.5,0.5-1h0.7v5.3h-0.7c-0.1-0.5-0.3-0.9-0.6-1
					c-0.2-0.2-0.6-0.3-1.2-0.3h-22.4V702c0.5-0.1,0.9-0.3,1.1-0.6c0.2-0.2,0.3-0.6,0.3-1.2v-23.1c0-0.6-0.1-1-0.3-1.2
					c-0.2-0.2-0.5-0.4-1-0.5v-0.7h22.1c0.6,0,1-0.1,1.2-0.3c0.2-0.2,0.4-0.5,0.6-1h0.7v5.3h-0.7c-0.1-0.5-0.3-0.9-0.5-1
					c-0.2-0.2-0.6-0.3-1.2-0.3h-17.6v9.6h11.6c0.6,0,1-0.1,1.2-0.3c0.2-0.2,0.4-0.5,0.5-1h0.7v5.3h-0.7c-0.1-0.5-0.3-0.9-0.5-1
					c-0.2-0.2-0.6-0.3-1.2-0.3H255.9z"/>
				<path d="M301.4,694.8h-14.9l-2.5,5.3c-0.2,0.5-0.3,0.9-0.3,1.1c0,0.4,0.4,0.7,1.2,0.8v0.7h-6.2V702c0.6-0.1,1-0.3,1.3-0.6
					c0.3-0.3,0.7-1,1.2-2l10.2-22.1c0.2-0.5,0.4-0.9,0.4-1.1c0-0.4-0.3-0.6-1-0.8v-0.7h6.8v0.7c-0.7,0.2-1,0.5-1,0.9
					c0,0.2,0.1,0.5,0.4,1l9.8,21.3c0.7,1.6,1.2,2.5,1.4,2.8c0.2,0.3,0.7,0.5,1.5,0.7v0.7h-6.6V702c0.8-0.1,1.2-0.4,1.2-0.9
					c0-0.2-0.2-0.6-0.5-1.3L301.4,694.8z M300.2,692.2l-6.3-13.8l-6.3,13.8H300.2z"/>
				<path d="M316.7,678.3v22c0,0.6,0.1,1,0.3,1.2c0.2,0.2,0.5,0.4,1,0.6v0.7h-5.5V702c0.5-0.1,0.9-0.3,1.1-0.6
					c0.2-0.2,0.3-0.6,0.3-1.2v-23.1c0-0.6-0.1-1-0.3-1.2c-0.2-0.2-0.5-0.4-1-0.5v-0.7h8v0.7c-0.6,0.2-1,0.5-1,0.9
					c0,0.3,0.3,0.8,1,1.5l16.8,19.7v-20.4c0-0.6-0.1-1-0.3-1.2c-0.2-0.2-0.5-0.4-1-0.5v-0.7h5.5v0.7c-0.5,0.1-0.9,0.3-1,0.5
					c-0.2,0.2-0.3,0.6-0.3,1.2v23.1c0,0.6,0.1,1,0.3,1.2c0.2,0.2,0.5,0.4,1,0.6v0.7h-6.4V702c0.6-0.2,0.9-0.4,0.9-0.8
					c0-0.3-0.3-0.8-0.9-1.5L316.7,678.3z"/>
			</g>
			<g id="PURE">
				<path d="M393.1,690.1v10.4c0,0.4,0.1,0.7,0.3,1c0.2,0.2,0.5,0.4,1,0.5v0.7h-5.8V702c0.5-0.1,0.8-0.3,1-0.5
					c0.2-0.2,0.3-0.5,0.3-1v-23.6c0-0.4-0.1-0.7-0.3-0.9c-0.2-0.2-0.5-0.4-1-0.5v-0.7h14.7c2.1,0,3.7,0.1,4.8,0.3
					c1.1,0.2,2.2,0.6,3.1,1.2c0.9,0.6,1.7,1.4,2.3,2.4c0.6,1.1,1,2.4,1,3.8c0,1.9-0.6,3.5-1.8,4.9c-0.9,1.1-2,1.8-3.4,2.2
					c-1.4,0.4-3.4,0.6-5.9,0.6H393.1z M393.1,687.4h10.5c1.6,0,2.7-0.1,3.5-0.2c0.8-0.1,1.4-0.4,2-0.7c1.4-0.8,2.1-2.2,2.1-4.1
					c0-1.9-0.7-3.3-2.1-4.1c-0.6-0.4-1.3-0.6-2-0.7c-0.8-0.1-1.9-0.2-3.5-0.2h-10.5V687.4z"/>
				<path d="M422.8,677.2v15.4c0,1.8,0.1,3.1,0.3,3.9c0.2,0.7,0.6,1.4,1.2,1.9c1.5,1.3,4.2,2,8.2,2c4.3,0,7.2-0.8,8.5-2.3
					c0.5-0.5,0.8-1.1,0.9-1.8c0.2-0.7,0.2-1.9,0.2-3.6v-15.4c0-0.6-0.1-1-0.3-1.2c-0.2-0.2-0.5-0.4-1-0.6v-0.7h5.5v0.7
					c-0.5,0.1-0.9,0.3-1,0.5c-0.2,0.2-0.3,0.6-0.3,1.2v16.1c0,2-0.2,3.5-0.6,4.5c-0.7,1.9-2,3.2-4,4.1c-2,0.9-4.7,1.3-8.1,1.3
					c-5.2,0-8.7-1-10.6-3c-0.8-0.8-1.3-1.7-1.6-2.7c-0.3-1-0.5-2.4-0.5-4.2v-16.1c0-0.6-0.1-1-0.3-1.2c-0.2-0.2-0.5-0.4-1-0.5v-0.7
					h5.8v0.7c-0.5,0.1-0.9,0.3-1,0.6C422.9,676.2,422.8,676.6,422.8,677.2z"/>
				<path d="M456.4,690.1v10.1c0,0.6,0.1,1,0.3,1.2c0.2,0.2,0.5,0.4,1,0.6v0.7h-5.8V702c0.5-0.1,0.9-0.3,1-0.6
					c0.2-0.2,0.3-0.6,0.3-1.2v-23.1c0-0.6-0.1-1-0.3-1.2c-0.2-0.2-0.5-0.4-1-0.5v-0.7h15.3c2.1,0,3.8,0.1,5,0.3
					c1.2,0.2,2.3,0.6,3.2,1.2c0.9,0.6,1.7,1.4,2.2,2.4c0.7,1.1,1,2.4,1,3.8c0,2.1-0.7,3.9-2.1,5.2c-1.4,1.3-3.3,2.1-5.8,2.3l7.1,11
					c0.4,0.7,1,1,1.8,1v0.7h-6.5V702c0.7-0.1,1-0.3,1-0.6c0-0.1-0.2-0.6-0.7-1.3l-6.3-10H456.4z M456.4,687.4h11.3
					c1.5,0,2.7-0.1,3.5-0.2c0.8-0.1,1.5-0.4,2.1-0.7c1.4-0.8,2.1-2.2,2.1-4.1c0-1.9-0.7-3.3-2.2-4.1c-0.6-0.4-1.4-0.6-2.1-0.7
					c-0.8-0.1-2-0.2-3.6-0.2h-11V687.4z"/>
				<path d="M488.6,689.6V700h17.9c0.6,0,1-0.1,1.2-0.3c0.2-0.2,0.4-0.5,0.5-1h0.7v5.3h-0.7c-0.1-0.5-0.3-0.9-0.6-1
					c-0.2-0.2-0.6-0.3-1.2-0.3h-22.4V702c0.5-0.1,0.9-0.3,1-0.6c0.2-0.2,0.3-0.6,0.3-1.2v-23.1c0-0.6-0.1-1-0.3-1.2
					c-0.2-0.2-0.5-0.4-1-0.5v-0.7h22.1c0.6,0,1-0.1,1.2-0.3c0.2-0.2,0.4-0.5,0.6-1h0.7v5.3H508c-0.1-0.5-0.3-0.9-0.5-1
					c-0.2-0.2-0.6-0.3-1.2-0.3h-17.6v9.6h11.6c0.6,0,1-0.1,1.2-0.3c0.2-0.2,0.4-0.5,0.5-1h0.7v5.3h-0.7c-0.1-0.5-0.3-0.9-0.5-1
					c-0.2-0.2-0.6-0.3-1.2-0.3H488.6z"/>
			</g>
			<g id="NATURAL">
				<path d="M560.3,678.3v22c0,0.6,0.1,1,0.3,1.2c0.2,0.2,0.5,0.4,1,0.6v0.7H556V702c0.5-0.1,0.9-0.3,1.1-0.6
					c0.2-0.2,0.3-0.6,0.3-1.2v-23.1c0-0.6-0.1-1-0.3-1.2c-0.2-0.2-0.5-0.4-1-0.5v-0.7h8v0.7c-0.6,0.2-1,0.5-1,0.9
					c0,0.3,0.3,0.8,1,1.5l16.8,19.7v-20.4c0-0.6-0.1-1-0.3-1.2c-0.2-0.2-0.5-0.4-1-0.5v-0.7h5.5v0.7c-0.5,0.1-0.9,0.3-1,0.5
					c-0.2,0.2-0.3,0.6-0.3,1.2v23.1c0,0.6,0.1,1,0.3,1.2c0.2,0.2,0.5,0.4,1,0.6v0.7h-6.4V702c0.6-0.2,0.9-0.4,0.9-0.8
					c0-0.3-0.3-0.8-0.9-1.5L560.3,678.3z"/>
				<path d="M611.8,694.8h-14.9l-2.5,5.3c-0.2,0.5-0.3,0.9-0.3,1.1c0,0.4,0.4,0.7,1.2,0.8v0.7H589V702c0.6-0.1,1-0.3,1.3-0.6
					c0.3-0.3,0.7-1,1.2-2l10.2-22.1c0.2-0.5,0.4-0.9,0.4-1.1c0-0.4-0.3-0.6-1-0.8v-0.7h6.8v0.7c-0.7,0.2-1,0.5-1,0.9
					c0,0.2,0.1,0.5,0.4,1l9.8,21.3c0.7,1.6,1.2,2.5,1.4,2.8c0.2,0.3,0.7,0.5,1.5,0.7v0.7h-6.6V702c0.8-0.1,1.2-0.4,1.2-0.9
					c0-0.2-0.1-0.6-0.4-1.3L611.8,694.8z M610.6,692.2l-6.3-13.8l-6.3,13.8H610.6z"/>
				<path d="M632.2,677.4v22.8c0,0.6,0.1,1,0.3,1.2c0.2,0.2,0.5,0.4,1,0.6v0.7h-5.8V702c0.5-0.1,0.9-0.3,1-0.6
					c0.2-0.2,0.3-0.6,0.3-1.2v-22.8h-9.4c-0.6,0-1,0.1-1.2,0.3c-0.2,0.2-0.4,0.5-0.5,1h-0.7v-5.3h0.7c0.1,0.5,0.3,0.9,0.5,1
					c0.2,0.2,0.7,0.3,1.2,0.3h22.1c0.6,0,1-0.1,1.2-0.3c0.2-0.2,0.4-0.5,0.5-1h0.7v5.3h-0.7c-0.1-0.5-0.3-0.9-0.5-1
					c-0.2-0.2-0.6-0.3-1.2-0.3H632.2z"/>
				<path d="M651.5,677.2v15.4c0,1.8,0.1,3.1,0.3,3.9c0.2,0.7,0.6,1.4,1.2,1.9c1.5,1.3,4.2,2,8.2,2c4.3,0,7.2-0.8,8.5-2.3
					c0.5-0.5,0.7-1.1,0.9-1.8c0.2-0.7,0.2-1.9,0.2-3.6v-15.4c0-0.6-0.1-1-0.3-1.2c-0.2-0.2-0.5-0.4-1-0.6v-0.7h5.5v0.7
					c-0.5,0.1-0.9,0.3-1,0.5c-0.2,0.2-0.3,0.6-0.3,1.2v16.1c0,2-0.2,3.5-0.6,4.5c-0.7,1.9-2,3.2-4,4.1c-2,0.9-4.7,1.3-8.1,1.3
					c-5.2,0-8.7-1-10.6-3c-0.8-0.8-1.3-1.7-1.6-2.7c-0.3-1-0.5-2.4-0.5-4.2v-16.1c0-0.6-0.1-1-0.3-1.2c-0.2-0.2-0.5-0.4-1-0.5v-0.7
					h5.8v0.7c-0.5,0.1-0.9,0.3-1,0.6C651.6,676.2,651.5,676.6,651.5,677.2z"/>
				<path d="M685.1,690.1v10.1c0,0.6,0.1,1,0.3,1.2c0.2,0.2,0.5,0.4,1,0.6v0.7h-5.8V702c0.5-0.1,0.9-0.3,1-0.6
					c0.2-0.2,0.3-0.6,0.3-1.2v-23.1c0-0.6-0.1-1-0.3-1.2c-0.2-0.2-0.5-0.4-1-0.5v-0.7h15.3c2.1,0,3.8,0.1,5,0.3
					c1.2,0.2,2.3,0.6,3.2,1.2c0.9,0.6,1.7,1.4,2.2,2.4c0.7,1.1,1,2.4,1,3.8c0,2.1-0.7,3.9-2.1,5.2c-1.4,1.3-3.3,2.1-5.8,2.3l7.1,11
					c0.4,0.7,1,1,1.8,1v0.7h-6.5V702c0.7-0.1,1-0.3,1-0.6c0-0.1-0.2-0.6-0.7-1.3l-6.3-10H685.1z M685.1,687.4h11.3
					c1.5,0,2.7-0.1,3.5-0.2c0.8-0.1,1.5-0.4,2.1-0.7c1.4-0.8,2.1-2.2,2.1-4.1c0-1.9-0.7-3.3-2.2-4.1c-0.6-0.4-1.4-0.6-2.1-0.7
					c-0.8-0.1-2-0.2-3.6-0.2h-11V687.4z"/>
				<path d="M732.6,694.8h-14.9l-2.5,5.3c-0.2,0.5-0.3,0.9-0.3,1.1c0,0.4,0.4,0.7,1.2,0.8v0.7h-6.2V702c0.6-0.1,1-0.3,1.3-0.6
					c0.3-0.3,0.7-1,1.2-2l10.2-22.1c0.2-0.5,0.4-0.9,0.4-1.1c0-0.4-0.3-0.6-1-0.8v-0.7h6.8v0.7c-0.7,0.2-1,0.5-1,0.9
					c0,0.2,0.1,0.5,0.4,1l9.8,21.3c0.7,1.6,1.2,2.5,1.4,2.8c0.2,0.3,0.7,0.5,1.5,0.7v0.7h-6.6V702c0.8-0.1,1.2-0.4,1.2-0.9
					c0-0.2-0.2-0.6-0.5-1.3L732.6,694.8z M731.4,692.2l-6.3-13.8l-6.3,13.8H731.4z"/>
				<path d="M748.2,700H766c0.6,0,1-0.1,1.2-0.3c0.2-0.2,0.4-0.5,0.5-1h0.7v5.3h-0.7c-0.1-0.5-0.3-0.9-0.5-1
					c-0.2-0.2-0.6-0.3-1.2-0.3h-22.4V702c0.5-0.1,0.9-0.3,1-0.6c0.2-0.2,0.3-0.6,0.3-1.2v-23.1c0-0.6-0.1-1-0.3-1.2
					c-0.2-0.2-0.5-0.4-1-0.5v-0.7h5.8v0.7c-0.5,0.1-0.9,0.3-1,0.5c-0.2,0.2-0.3,0.6-0.3,1.2V700z"/>
			</g>
		</g>
		<g id="DS">
			<g>
				<g>
					<path fill="#9A93AF" d="M239.7,619.2c0,0.8-0.3,1.2-0.9,1.3c-2,0.2-4.4,0.7-7.1,1.5c-2.7,0.7-4.8,1.5-6.3,2.2
						c-0.8,0.4-1.4,0.6-1.7,0.6c-0.6,0-0.9-0.3-0.9-0.9l0.5-5.8c-3.8,4.1-8.6,6.2-14.4,6.2c-6.1,0-11.4-2.4-15.7-7.1
						c-4.3-4.7-6.5-10.4-6.5-17c0-7.5,2.4-13.6,7.2-18.2c4.8-4.6,10.8-7,18-7c4.1,0,7.9,1.3,11.4,3.8v-17.7c0-2.9-0.4-4.8-1.1-5.6
						c-0.7-0.9-2.4-1.5-4.9-1.8c-0.6-0.1-0.9-0.5-0.9-1.4c0-0.9,0.3-1.4,0.9-1.4c3.4-0.8,6.3-1.7,8.7-2.8c2.5-1.1,4.1-2.1,5-2.9
						c0.4-0.4,0.7-0.5,1.1-0.5c1,0,1.5,0.3,1.5,0.9c-0.6,7.8-0.8,13.9-0.8,18.6v47c0,2.5,0.4,4.1,1.1,4.9c0.7,0.8,2.3,1.4,4.9,1.8
						C239.4,617.8,239.7,618.2,239.7,619.2z M223.4,613.4V586c0-1.8-1.1-3.6-3.2-5.2c-2.2-1.6-4.5-2.4-7-2.4
						c-10.4,0-15.6,7.3-15.6,21.9c0,5.8,1.2,10.6,3.7,14.4c2.5,3.8,5.8,5.7,9.8,5.7c2.3,0,4.4-0.5,6.3-1.6
						C219.3,617.7,221.3,615.9,223.4,613.4z"/>
					<path fill="#9A93AF" d="M298.9,592.3c0,1-0.6,1.5-1.9,1.5h-29.2c-0.2,1.9-0.3,3.9-0.3,6c0,5.7,1.4,10.2,4.1,13.2
						c2.7,3.1,6.6,4.6,11.6,4.6c2.5,0,5.1-0.7,7.6-2c2.6-1.4,4.6-3.1,6.2-5.2l0.3-0.1c0.3,0,0.6,0.2,0.9,0.6
						c0.3,0.4,0.5,0.9,0.5,1.4c0,0.7-1.1,2.3-3.4,4.7c-2.3,2.4-4.7,4.2-7.4,5.4c-2.7,1.2-5.5,1.9-8.4,1.9c-6.4,0-11.8-2.3-16.1-7
						c-4.4-4.7-6.6-10.5-6.6-17.3c0-7,2.1-12.9,6.4-17.7c4.3-4.8,9.7-7.3,16.3-7.3c5.5,0,10.1,1.8,13.9,5.4
						C297,584,298.9,587.9,298.9,592.3z M289.1,587.6c0-2.7-0.9-4.9-2.7-6.6c-1.8-1.8-4.2-2.6-7.1-2.6c-2.7,0-5.1,1.1-7.1,3.4
						c-2,2.3-3.4,5.3-4.1,9l14.8-0.4c2.2,0,3.8-0.2,4.8-0.6C288.7,589.4,289.1,588.6,289.1,587.6z"/>
					<path fill="#9A93AF" d="M361.4,592.3c0,1-0.6,1.5-1.9,1.5h-29.2c-0.2,1.9-0.3,3.9-0.3,6c0,5.7,1.4,10.2,4.1,13.2
						s6.6,4.6,11.6,4.6c2.5,0,5.1-0.7,7.6-2c2.6-1.4,4.6-3.1,6.2-5.2l0.3-0.1c0.3,0,0.6,0.2,0.9,0.6c0.3,0.4,0.5,0.9,0.5,1.4
						c0,0.7-1.1,2.3-3.4,4.7c-2.3,2.4-4.7,4.2-7.4,5.4c-2.7,1.2-5.5,1.9-8.4,1.9c-6.4,0-11.8-2.3-16.1-7c-4.4-4.7-6.6-10.5-6.6-17.3
						c0-7,2.1-12.9,6.4-17.7c4.3-4.8,9.7-7.3,16.3-7.3c5.5,0,10.1,1.8,13.9,5.4C359.5,584,361.4,587.9,361.4,592.3z M351.7,587.6
						c0-2.7-0.9-4.9-2.7-6.6c-1.8-1.8-4.2-2.6-7.1-2.6c-2.7,0-5.1,1.1-7.1,3.4c-2,2.3-3.4,5.3-4.1,9l14.8-0.4c2.2,0,3.8-0.2,4.8-0.6
						C351.2,589.4,351.7,588.6,351.7,587.6z"/>
					<path fill="#9A93AF" d="M432.1,599.9c0,7-2.4,12.8-7.1,17.4c-4.7,4.6-10.8,6.9-18.1,6.9c-4.2,0-7.8-0.8-10.9-2.5v16.4
						c0,3.4,0.4,5.7,1.3,6.8c0.9,1.1,2.9,1.8,5.9,2.2c0.6,0,0.8,0.5,0.8,1.5c0,1-0.3,1.5-0.8,1.5c-1.5,0-3.3-0.1-5.6-0.3
						c-2.5-0.2-4.6-0.3-6.3-0.3c-1.8,0-3.9,0.1-6.5,0.3c-2.3,0.2-4.1,0.3-5.6,0.3c-0.6,0-0.9-0.5-0.9-1.5c0-1,0.3-1.5,0.9-1.5
						c3-0.4,5-1.1,5.9-2.2c0.9-1.1,1.4-3.4,1.4-6.8v-47.2c0-2.8-0.4-4.7-1.1-5.6c-0.7-0.9-2.4-1.5-4.9-1.8c-0.6,0-0.9-0.5-0.9-1.4
						c0-0.9,0.3-1.3,0.9-1.3c3.5-0.8,6.4-1.8,8.7-2.9c2.3-1.1,3.9-2,4.6-2.8c0.4-0.4,0.8-0.6,1.1-0.6c1,0,1.5,0.3,1.5,0.9l-0.5,6.8
						c2-2,4.2-3.7,6.8-5.1c2.6-1.4,4.7-2.1,6.6-2.1c7,0,12.5,2.3,16.6,6.9C430.1,586.4,432.1,592.4,432.1,599.9z M421.4,599.8
						c0-5.9-1.3-10.6-3.9-13.9c-2.6-3.3-6.2-5-10.8-5c-2,0-3.7,0.4-5.3,1.2c-1.6,0.8-3.4,2.3-5.4,4.5v26.1c0,2.3,1,4.2,3,5.7
						c2,1.5,4.5,2.3,7.4,2.3c4.8,0,8.5-1.8,11.1-5.5C420.1,611.7,421.4,606.5,421.4,599.8z"/>
					<path fill="#9A93AF" d="M525.7,608.9c0,4.3-1.7,8-5.1,10.9c-3.4,3-7.5,4.4-12.3,4.4c-1.7,0-4.3-0.4-7.9-1.1
						c-2.7-0.5-4.5-0.8-5.4-0.8c-0.3-2.5-0.9-6.3-2-11.3c0-0.5,0.5-0.8,1.5-0.8c0.8,0,1.4,0.3,1.5,0.9c0.8,2.6,2.4,4.9,4.9,6.9
						c2.4,2,4.9,2.9,7.5,2.9c2.7,0,4.8-0.7,6.2-2.2c1.5-1.5,2.2-3.5,2.2-6.1c0-1.7-0.6-3.1-1.8-4.4c-1.2-1.3-3.9-2.9-8-4.7
						c-5.4-2.5-8.9-4.8-10.6-6.9c-1.7-2.2-2.6-4.8-2.6-7.8c0-3.7,1.6-6.9,4.8-9.6c3.2-2.7,7-4,11.4-4c1.8,0,4.4,0.3,7.8,1
						c1.8,0.4,3.1,0.5,3.6,0.5c0.1,4.2,0.3,7.8,0.7,10.7c0,0.5-0.5,0.8-1.6,0.8c-0.9,0-1.4-0.3-1.5-0.9c-0.4-2.6-1.4-4.7-2.9-6.3
						c-1.6-1.6-3.4-2.4-5.6-2.4c-5.5,0-8.3,2.4-8.3,7.3c0,1.6,0.7,3.1,2,4.5c1.3,1.4,4.1,3.2,8.5,5.4c5.2,2.6,8.7,4.9,10.3,6.8
						C524.8,604.3,525.7,606.4,525.7,608.9z"/>
					<path fill="#9A93AF" d="M578.5,580.2c0,1.9-0.5,2.9-1.4,2.9l-15.9-0.5v25.6c0,6.7,2.4,10,7.1,10c2.9,0,5.6-0.7,8-2
						c0.3,0,0.5,0.2,0.8,0.6c0.2,0.4,0.3,0.8,0.3,1.2c0,0.9-1.3,2.1-4,3.6c-2.6,1.5-5.6,2.3-8.9,2.3c-4,0-7.2-1.2-9.6-3.7
						s-3.6-5.7-3.6-9.8v-0.5l0.2-25.9c0-1-0.4-1.5-1.3-1.5h-4c-0.8,0-1.2-0.5-1.2-1.4c0-0.7,0.3-1.2,1-1.6c4.9-2.9,9.2-7,12.8-12.4
						c0.4-0.6,0.9-0.9,1.5-0.9c1,0,1.5,0.3,1.5,0.9l-0.5,10.2h15.7C578,577.3,578.5,578.2,578.5,580.2z"/>
					<path fill="#9A93AF" d="M638,592.3c0,1-0.6,1.5-1.9,1.5h-29.2c-0.2,1.9-0.3,3.9-0.3,6c0,5.7,1.4,10.2,4.1,13.2
						s6.6,4.6,11.6,4.6c2.5,0,5.1-0.7,7.6-2c2.6-1.4,4.6-3.1,6.2-5.2l0.3-0.1c0.3,0,0.6,0.2,0.9,0.6c0.3,0.4,0.5,0.9,0.5,1.4
						c0,0.7-1.1,2.3-3.4,4.7c-2.3,2.4-4.7,4.2-7.4,5.4c-2.7,1.2-5.5,1.9-8.4,1.9c-6.4,0-11.8-2.3-16.1-7c-4.4-4.7-6.6-10.5-6.6-17.3
						c0-7,2.1-12.9,6.4-17.7c4.3-4.8,9.7-7.3,16.3-7.3c5.5,0,10.1,1.8,13.9,5.4C636.2,584,638,587.9,638,592.3z M628.3,587.6
						c0-2.7-0.9-4.9-2.7-6.6c-1.8-1.8-4.2-2.6-7.1-2.6c-2.7,0-5.1,1.1-7.1,3.4c-2,2.3-3.4,5.3-4.1,9l14.8-0.4c2.2,0,3.8-0.2,4.8-0.6
						C627.8,589.4,628.3,588.6,628.3,587.6z"/>
					<path fill="#9A93AF" d="M700.6,592.3c0,1-0.6,1.5-1.9,1.5h-29.2c-0.2,1.9-0.3,3.9-0.3,6c0,5.7,1.4,10.2,4.1,13.2
						s6.6,4.6,11.6,4.6c2.5,0,5.1-0.7,7.6-2c2.6-1.4,4.6-3.1,6.2-5.2l0.3-0.1c0.3,0,0.6,0.2,0.9,0.6c0.3,0.4,0.5,0.9,0.5,1.4
						c0,0.7-1.1,2.3-3.4,4.7c-2.3,2.4-4.7,4.2-7.4,5.4c-2.7,1.2-5.5,1.9-8.4,1.9c-6.4,0-11.8-2.3-16.1-7c-4.4-4.7-6.6-10.5-6.6-17.3
						c0-7,2.1-12.9,6.4-17.7c4.3-4.8,9.7-7.3,16.3-7.3c5.5,0,10.1,1.8,13.9,5.4C698.7,584,700.6,587.9,700.6,592.3z M690.8,587.6
						c0-2.7-0.9-4.9-2.7-6.6c-1.8-1.8-4.2-2.6-7.1-2.6c-2.7,0-5.1,1.1-7.1,3.4c-2,2.3-3.4,5.3-4.1,9l14.8-0.4c2.2,0,3.8-0.2,4.8-0.6
						C690.4,589.4,690.8,588.6,690.8,587.6z"/>
					<path fill="#9A93AF" d="M771.3,599.9c0,7-2.4,12.8-7.1,17.4c-4.7,4.6-10.8,6.9-18.1,6.9c-4.2,0-7.8-0.8-10.9-2.5v16.4
						c0,3.4,0.4,5.7,1.3,6.8c0.9,1.1,2.9,1.8,5.9,2.2c0.6,0,0.9,0.5,0.9,1.5c0,1-0.3,1.5-0.9,1.5c-1.5,0-3.3-0.1-5.6-0.3
						c-2.5-0.2-4.6-0.3-6.3-0.3c-1.8,0-3.9,0.1-6.5,0.3c-2.3,0.2-4.1,0.3-5.6,0.3c-0.6,0-0.9-0.5-0.9-1.5c0-1,0.3-1.5,0.9-1.5
						c3-0.4,5-1.1,5.9-2.2c0.9-1.1,1.4-3.4,1.4-6.8v-47.2c0-2.8-0.4-4.7-1.1-5.6c-0.7-0.9-2.4-1.5-4.9-1.8c-0.6,0-0.9-0.5-0.9-1.4
						c0-0.9,0.3-1.3,0.9-1.3c3.5-0.8,6.4-1.8,8.7-2.9c2.3-1.1,3.9-2,4.6-2.8c0.4-0.4,0.8-0.6,1.1-0.6c1,0,1.5,0.3,1.5,0.9l-0.5,6.8
						c2-2,4.2-3.7,6.8-5.1c2.6-1.4,4.7-2.1,6.6-2.1c7,0,12.5,2.3,16.6,6.9C769.3,586.4,771.3,592.4,771.3,599.9z M760.6,599.8
						c0-5.9-1.3-10.6-3.9-13.9c-2.6-3.3-6.2-5-10.8-5c-2,0-3.7,0.4-5.3,1.2c-1.6,0.8-3.4,2.3-5.3,4.5v26.1c0,2.3,1,4.2,3,5.7
						c2,1.5,4.5,2.3,7.4,2.3c4.8,0,8.5-1.8,11.1-5.5C759.3,611.7,760.6,606.5,760.6,599.8z"/>
				</g>
			</g>
			<g>
				<path fill="#9A93AF" d="M788.8,575.1c-6.2,0-11.1-5-11.1-11.2c0-6.1,5-11.1,11.1-11.1c6.1,0,11.1,5,11.1,11.1
					C799.9,570.1,794.9,575.1,788.8,575.1z M788.8,553.8c-5.6,0-10.2,4.5-10.2,10.1c0,5.6,4.6,10.2,10.2,10.2
					c5.6,0,10.1-4.6,10.1-10.2C799,558.3,794.4,553.8,788.8,553.8z M795.9,570c-0.6,0-1.5-0.2-2-0.2c-0.5,0-1.2,0.2-1.8,0.2
					l-2.5-4.1c-0.8-1.2-1-1.5-2.2-1.5v3.1c0,1.2,0.1,1.7,1.9,1.9c0.1,0,0.2,0.2,0.2,0.3c0,0.2-0.1,0.3-0.2,0.3
					c-1.2,0-1.7-0.1-3.1-0.1c-1.4,0-1.9,0.1-3.1,0.1c-0.1,0-0.2-0.2-0.2-0.3c0-0.2,0.1-0.3,0.2-0.3c1.8-0.2,1.9-0.8,1.9-1.9v-6.9
					c0-1.2-0.1-1.7-1.9-1.9c-0.1,0-0.2-0.2-0.2-0.3c0-0.2,0.1-0.3,0.2-0.3c1.2,0,1.8,0.1,3.2,0.1c1.1,0,1.8-0.1,3-0.1
					c2.8,0,4.4,1.2,4.4,3.1c0,1.2-1.1,2.3-2.6,2.9l2.4,3.7c0.6,1,1,1.4,2.4,1.6c0.1,0,0.1,0.2,0.1,0.3
					C796.1,569.9,796,570,795.9,570z M788.9,558.8c-0.9,0-1.5,0.1-1.5,1.3v3.5c0.4,0,0.5,0.1,1,0.1c2.1,0,2.8-0.7,2.8-2.5
					C791.2,559.7,790.7,558.8,788.9,558.8z"/>
			</g>
		</g>
	</g>
	<g id="IMAGE">
		<g>
			<path fill="none" stroke="#000000" stroke-width="2" d="M452.3,394L452.3,394c0,0-1.8,15.1,8,27.6"/>
			<g>
				<path fill="none" stroke="#000000" stroke-width="2" d="M532.1,395.2c0,0,2.7,13.6-9.8,27.8l-1.6,1.4"/>
				<path d="M479.5,410.7c-1.4-0.7-1.2-3.7,0.3-6.7c1.5-3.1,3.8-5,5.1-4.4c1.3,0.7,1.2,3.7-0.3,6.7
					C483.2,409.4,480.9,411.3,479.5,410.7z"/>
				<path d="M502.9,410.1c-1.2,0.8-3.7-0.9-5.5-3.9c-1.8-2.9-2.2-5.9-0.9-6.7c1.3-0.8,3.7,0.9,5.5,3.8
					C503.8,406.3,504.2,409.3,502.9,410.1z"/>
				<path fill="none" stroke="#000000" stroke-width="2" d="M490.7,413"/>
				<path fill="none" stroke="#000000" stroke-width="2" d="M490.7,413"/>
				<path fill="none" stroke="#000000" stroke-width="2" d="M492,444.2c7.9,0.4,12.6,2.9,12.6,2.9c6.8,4.4,14.7,4.1,14.7,4.1
					c12.5-1.1,9-14.7,9-14.7c-5.3-18.2-24.6-24.1-38.4-24.2c0,0-36.6,1.6-38.2,24.5c0,0,0,11.2,11.5,12.5c0,0,5.2,1.4,16.9-3.8
					C480.1,445.4,484.3,444.1,492,444.2z"/>
				<path fill="none" stroke="#000000" stroke-width="2" d="M505.7,447.6c-16.9,19.9-30.5-0.3-30.5-0.3"/>
				<path fill="none" stroke="#000000" stroke-width="2" d="M432.7,487c-1.6-30.5,27.4-37.7,27.4-37.7s-37.1,27.3-11.4,73.9"/>
				<path fill="none" stroke="#000000" stroke-width="2" d="M461.6,521.7c0,0,26.1-1.4,29.8,20.7c0,0-0.7,9.5-8.4,8.7
					c0,0-14.5-2.9-17.1,0c0,0-5.1,4.3-10.9-0.7c0,0-5.4-2.6-10.2,0.3c0,0-17.4,0.7-12.4-14.2C432.5,536.6,438.7,521,461.6,521.7z"/>
				<path fill="none" stroke="#000000" stroke-width="2" d="M518.6,522.1c4.4-0.1,16.7-1.1,25.8,13.1c0,0,5.1,13.1-2.9,14.2
					c0,0-6.5-1.8-12.7,0.4c0,0-7.6,4.7-16.7,0c0,0-1.8-1.8-7.3,1.5c0,0-15.7,2.9-12-11.6C492.8,539.5,495.4,522.8,518.6,522.1z"/>
				<path fill="none" stroke="#000000" stroke-width="2" d="M432.6,486.4c0,0,2,9.4,1.5,11.8c0,0-6.7,10.1-2.9,12.8
					c0,0,6.3,3.3,12,1.1"/>
			</g>
			<path fill="none" stroke="#000000" stroke-width="2" d="M442.7,333.2c0,0,22.4-30.6,49.3-30.8c26.9-0.2,50.6,32.9,50.6,32.9"/>
			<path fill="none" stroke="#000000" stroke-width="2" d="M552.9,298.9"/>
			<line fill="none" stroke="#000000" stroke-width="2" x1="534.9" y1="364.3" x2="554.7" y2="291.7"/>
			<line fill="none" stroke="#000000" stroke-width="2" x1="433.1" y1="292.7" x2="449.9" y2="364.2"/>
			<path fill="none" stroke="#000000" stroke-width="2" d="M443.2,306.6"/>
			<path fill="none" stroke="#000000" stroke-width="2" d="M440.4,322.1"/>
			<path fill="none" stroke="#000000" stroke-width="2" d="M440.4,323.7"/>
			<path fill="none" stroke="#000000" stroke-width="2" d="M430,309.9"/>
			<path fill="none" stroke="#000000" stroke-width="2" d="M433.2,293.4"/>
			<line fill="none" stroke="#000000" stroke-width="2" x1="492.3" y1="358.4" x2="492.2" y2="259.2"/>
			<path fill="none" stroke="#000000" stroke-width="2" d="M445.4,343.6c1.1-3.9,21.5-32.5,46.8-13.2c0,0,37-17,47.5,17.2"/>
			<path fill="none" stroke="#000000" stroke-width="2" d="M447,351.8c2.8-6.6,27-34.2,45.2-6.6c0,0,26.1-25.2,44.9,11.2"/>
			<path fill="none" stroke="#000000" stroke-width="2" d="M443.8,359.2c0,0,11,13.2,14.9-1.6c0,0,5,8.3,7.7-2.2c0,0,6.6,9.9,11,0
				c0,0,7.2,9.4,11.1,0c0,0,8.8,8.8,13.8,0c0,0,6,9.9,11.5,2.2c0,0,1.7,8.3,11.1,2.2c0,0,0.1,10.7,11.1,3.5c0,0,0.9,8.3,7.6,8
				c0,0-3.3,9.4,6,11c0,0-5.5,1.1-3.3,7.7c0,0-4.4,2.2-2.2,6.6c0,0-3.8,1.1-5,2.8c0,0-2.2-7.2-8.3-2.8c0,0-5-8.8-12.7,0.6
				c0,0-5.5-12.1-12.1-4.4c0,0-3.3-9.4-11.6,0c0,0-5-8.8-9.9-1.1c0,0-2.8-10.5-9.9-1.1c0,0-11-6-14.9,6.1c0,0-7.2-7.7-14.3,3.9
				c0,0,0.5-8.8-6.1-9.9c0,0,3.3-11-4.9-9.9c0,0,12.1-4.4,0.5-11C435,369.7,447.1,371.4,443.8,359.2z"/>
			<polygon fill="none" stroke="#000000" stroke-width="2" points="492.1,257 481.5,275.6 492.1,294 502.5,275.6 			"/>
			<polygon fill="none" stroke="#000000" stroke-width="2" points="432.8,290.8 425.8,311.9 440.9,326.8 446.1,306.3 			"/>
			<polygon fill="none" stroke="#000000" stroke-width="2" points="545.2,326 541.2,304.9 555.1,290.3 561.1,311.8 			"/>
		</g>
		<line fill="none" stroke="#000000" stroke-width="2" x1="426.2" y1="312.3" x2="446" y2="306.7"/>
		<line fill="none" stroke="#000000" stroke-width="2" x1="481.5" y1="275.6" x2="502.5" y2="275.6"/>
		<line fill="none" stroke="#000000" stroke-width="2" x1="541.2" y1="304.9" x2="561.1" y2="311.8"/>
		<path fill="none" stroke="#000000" stroke-width="2" d="M537.5,513.8c5.7,2.2,12-1.1,12-1.1c3.8-2.7-2.9-12.8-2.9-12.8l1.4-11.3
			c1.6-30.5-27.4-37.7-27.4-37.7s37.1,27.3,11.4,73.9"/>
	</g>
</g>
</svg>
