<?xml version="1.0" encoding="utf-8"?>
<!-- Generator: Adobe Illustrator 18.1.1, SVG Export Plug-In . SVG Version: 6.00 Build 0)  -->
<svg version="1.1" id="Layer_1" xmlns="http://www.w3.org/2000/svg" xmlns:xlink="http://www.w3.org/1999/xlink" x="0px" y="0px"
	 viewBox="0 0 983.9 984.3" enable-background="new 0 0 983.9 984.3" xml:space="preserve">
<g id="Guides">
</g>
<g id="wd3a">
	<g id="Logotype">
		<g>
			<path fill="#B4A981" d="M405.5,477.3h4.9v4.4c0.6-0.6,1.2-1.3,1.8-1.9c0.7-0.6,1.4-1.1,2.3-1.6c0.8-0.5,1.8-0.8,2.9-1.1
				c1.1-0.3,2.3-0.4,3.7-0.4c2.7,0,4.9,0.5,6.6,1.5c1.7,1,3.1,2.3,3.9,3.8c0.6-0.7,1.3-1.4,2-2c0.7-0.6,1.6-1.2,2.5-1.7
				c0.9-0.5,2-0.9,3.1-1.1c1.2-0.3,2.5-0.4,3.9-0.4c3.8,0,6.8,0.9,9,2.8c2.2,1.9,3.2,4.5,3.2,7.8v16.3h-4.9v-15.4
				c0-2.5-0.8-4.5-2.3-5.9s-3.6-2.1-6.3-2.1c-1.2,0-2.4,0.2-3.5,0.5c-1.1,0.4-2.1,0.9-2.9,1.6c-0.8,0.7-1.5,1.6-2,2.6
				c-0.5,1-0.7,2.2-0.7,3.5v15.2H428v-15.5c0-2.5-0.8-4.4-2.3-5.8s-3.6-2.1-6.2-2.1c-1.3,0-2.5,0.2-3.6,0.6c-1.1,0.4-2.1,1-2.9,1.7
				c-0.8,0.7-1.5,1.6-1.9,2.6c-0.5,1-0.7,2.1-0.7,3.3v15h-4.9V477.3z"/>
			<path fill="#B4A981" d="M465.2,492.1c0.2,1.4,0.6,2.6,1.3,3.7c0.7,1.1,1.5,2,2.6,2.8c1.1,0.7,2.2,1.3,3.6,1.7
				c1.3,0.4,2.7,0.6,4.1,0.6c2.3,0,4.2-0.3,5.9-1c1.6-0.7,3.1-1.6,4.5-2.7l3,2.2c-1.7,1.5-3.5,2.7-5.7,3.6c-2.1,0.9-4.7,1.4-7.9,1.4
				c-2.2,0-4.4-0.3-6.4-1c-2-0.7-3.7-1.6-5.2-2.8c-1.5-1.2-2.7-2.7-3.5-4.4c-0.9-1.7-1.3-3.6-1.3-5.6c0-1.9,0.4-3.7,1.2-5.4
				c0.8-1.7,1.9-3.1,3.3-4.4c1.4-1.2,3.1-2.2,5-2.9c1.9-0.7,4-1.1,6.3-1.1c2.4,0,4.6,0.4,6.5,1.1c1.9,0.7,3.5,1.7,4.8,3
				c1.3,1.3,2.3,2.7,3,4.4c0.7,1.7,1,3.5,1,5.5c0,0.2,0,0.4,0,0.6s0,0.5-0.1,0.8H465.2z M486.4,488.9c-0.1-1.2-0.4-2.3-1-3.4
				c-0.5-1.1-1.2-2-2.1-2.8c-0.9-0.8-1.9-1.5-3.2-1.9s-2.7-0.7-4.3-0.7c-1.4,0-2.7,0.2-3.9,0.7c-1.2,0.4-2.3,1.1-3.2,1.9
				c-0.9,0.8-1.7,1.7-2.3,2.8c-0.6,1.1-1,2.3-1.2,3.5H486.4z"/>
			<path fill="#B4A981" d="M537.5,498.6c-2,1.8-4.2,3.1-6.6,4.1c-2.4,1-5,1.5-7.9,1.5c-2,0-3.8-0.2-5.6-0.7c-1.7-0.5-3.2-1.2-4.4-2
				c-1.2-0.9-2.2-1.9-2.9-3.2s-1-2.6-1-4.1v-0.1c0-2.4,0.9-4.4,2.8-6.1c1.9-1.7,4.5-3.1,7.9-4.2c-1.5-1.4-2.6-2.7-3.4-3.9
				c-0.7-1.2-1.1-2.5-1.1-3.9v-0.1c0-1.2,0.3-2.3,0.9-3.3c0.6-1,1.4-1.9,2.4-2.7c1-0.8,2.2-1.4,3.7-1.8c1.4-0.4,3.1-0.7,4.8-0.7
				c1.6,0,3,0.2,4.3,0.6c1.3,0.4,2.4,1,3.4,1.7c1,0.7,1.7,1.6,2.3,2.6c0.6,1,0.8,2,0.8,3.1v0.1c0,2.3-0.9,4.2-2.8,5.7
				c-1.9,1.5-4.4,2.7-7.7,3.6l10.2,8.3c1-1.2,1.9-2.4,2.8-3.7c0.9-1.3,1.7-2.7,2.5-4.2l4.1,1.5c-1,1.7-2,3.3-3,4.8
				c-1,1.5-2.2,2.9-3.4,4.2l7.8,6.4l-3.8,2.3L537.5,498.6z M523.3,500.8c2.1,0,4.1-0.4,5.9-1.3c1.8-0.8,3.6-2,5.2-3.4l-11.9-9.9
				c-3,0.9-5.1,2-6.5,3.3c-1.4,1.3-2,2.8-2,4.3v0.1c0,1,0.2,1.8,0.7,2.7c0.4,0.8,1.1,1.5,1.9,2.1c0.8,0.6,1.8,1.1,3,1.4
				C520.7,500.6,521.9,500.8,523.3,500.8z M524.6,482.5c2.8-0.8,5-1.7,6.4-2.8c1.4-1.1,2.2-2.4,2.2-4v-0.1c0-1.4-0.6-2.6-1.8-3.5
				c-1.2-0.9-2.7-1.4-4.5-1.4c-2,0-3.7,0.5-4.9,1.5c-1.2,1-1.8,2.2-1.8,3.7v0.1c0,0.5,0.1,1,0.2,1.5c0.1,0.5,0.4,1,0.7,1.5
				c0.3,0.5,0.8,1.1,1.4,1.6C523,481.1,523.7,481.8,524.6,482.5z"/>
			<path fill="#B4A981" d="M578.5,504.1c-1.3,0-2.5-0.1-3.7-0.4c-1.1-0.3-2.1-0.7-3-1.3c-0.8-0.6-1.5-1.4-1.9-2.3
				c-0.5-1-0.7-2.1-0.7-3.4v-15.9h-4.6v-3.5h4.6v-8h4.9v8h10.4v3.5h-10.4v15.4c0,1.6,0.5,2.8,1.5,3.4c1,0.6,2.4,1,4,1
				c0.8,0,1.6-0.1,2.4-0.2c0.7-0.1,1.5-0.4,2.4-0.7v3.4c-0.8,0.4-1.7,0.7-2.7,0.8C580.8,504,579.7,504.1,578.5,504.1z"/>
			<path fill="#B4A981" d="M589.5,466.4h4.9v15.5c1.1-1.4,2.5-2.6,4.3-3.7c1.8-1,4.1-1.5,6.9-1.5c2,0,3.8,0.3,5.3,0.8
				c1.5,0.5,2.9,1.2,3.9,2.2c1.1,0.9,1.9,2.1,2.5,3.3c0.6,1.3,0.9,2.7,0.9,4.3v16.4h-4.9v-15.4c0-2.4-0.8-4.4-2.4-5.8
				c-1.6-1.4-3.8-2.1-6.7-2.1c-1.4,0-2.7,0.2-3.9,0.6c-1.2,0.4-2.3,1-3.1,1.7c-0.9,0.7-1.6,1.6-2.1,2.6c-0.5,1-0.7,2.1-0.7,3.4v15.1
				h-4.9V466.4z"/>
			<path fill="#B4A981" d="M627.9,492.1c0.2,1.4,0.6,2.6,1.3,3.7c0.7,1.1,1.5,2,2.6,2.8s2.2,1.3,3.6,1.7c1.3,0.4,2.7,0.6,4.1,0.6
				c2.3,0,4.2-0.3,5.9-1c1.6-0.7,3.1-1.6,4.5-2.7l3.1,2.2c-1.7,1.5-3.5,2.7-5.7,3.6c-2.1,0.9-4.7,1.4-7.9,1.4c-2.2,0-4.4-0.3-6.4-1
				c-2-0.7-3.7-1.6-5.2-2.8c-1.5-1.2-2.7-2.7-3.5-4.4c-0.9-1.7-1.3-3.6-1.3-5.6c0-1.9,0.4-3.7,1.2-5.4c0.8-1.7,1.9-3.1,3.3-4.4
				c1.4-1.2,3.1-2.2,5-2.9c1.9-0.7,4-1.1,6.3-1.1c2.4,0,4.6,0.4,6.5,1.1c1.9,0.7,3.5,1.7,4.8,3c1.3,1.3,2.3,2.7,3,4.4
				c0.7,1.7,1,3.5,1,5.5c0,0.2,0,0.4,0,0.6s0,0.5-0.1,0.8H627.9z M649.1,488.9c-0.1-1.2-0.4-2.3-1-3.4c-0.5-1.1-1.2-2-2.1-2.8
				c-0.9-0.8-1.9-1.5-3.2-1.9c-1.3-0.5-2.7-0.7-4.3-0.7c-1.4,0-2.7,0.2-3.9,0.7c-1.2,0.4-2.3,1.1-3.2,1.9c-0.9,0.8-1.7,1.7-2.3,2.8
				c-0.6,1.1-1,2.3-1.2,3.5H649.1z"/>
			<path fill="#B4A981" d="M688.8,511.9c-2.8,0-5.4-0.3-7.9-0.9c-2.5-0.6-4.9-1.5-7.1-2.8l2.2-3.1c1.9,1.1,3.9,1.9,6,2.5
				c2.1,0.6,4.3,0.9,6.7,0.9c3.6,0,6.5-0.8,8.7-2.4c2.2-1.6,3.2-3.9,3.2-7v-3.1c-1.4,1.5-3.2,2.8-5.3,3.9c-2.1,1.1-4.6,1.6-7.6,1.6
				c-2,0-3.9-0.3-5.8-0.9c-1.8-0.6-3.5-1.4-4.9-2.5c-1.4-1.1-2.6-2.4-3.5-3.9c-0.9-1.5-1.3-3.2-1.3-5.1v-0.1c0-1.9,0.4-3.7,1.3-5.2
				c0.9-1.5,2-2.8,3.5-3.9c1.4-1.1,3.1-1.9,5-2.5s3.8-0.9,5.7-0.9c1.5,0,2.9,0.1,4.2,0.4c1.3,0.3,2.5,0.7,3.5,1.1c1,0.5,2,1,2.8,1.7
				c0.8,0.6,1.6,1.3,2.3,2v-4.7h4.9v21.8c0,2-0.4,3.8-1.1,5.4c-0.7,1.5-1.8,2.9-3.1,4c-1.5,1.2-3.3,2.1-5.4,2.7
				C693.8,511.6,691.5,511.9,688.8,511.9z M688.8,498.2c1.6,0,3.1-0.2,4.5-0.6s2.7-1,3.8-1.8c1.1-0.8,2-1.7,2.7-2.8
				c0.7-1.1,1-2.3,1-3.6v-0.1c0-1.4-0.3-2.6-1-3.7c-0.7-1.1-1.6-2-2.7-2.8c-1.1-0.8-2.4-1.4-3.8-1.8c-1.4-0.4-2.9-0.6-4.5-0.6
				c-1.6,0-3,0.2-4.4,0.6c-1.4,0.4-2.6,1-3.6,1.8c-1,0.8-1.9,1.7-2.4,2.8s-0.9,2.3-0.9,3.7v0.1c0,1.3,0.3,2.5,0.9,3.7
				c0.6,1.1,1.4,2.1,2.5,2.8c1,0.8,2.2,1.4,3.6,1.8C685.8,497.9,687.2,498.2,688.8,498.2z"/>
			<path fill="#B4A981" d="M712.9,467.2h5.6v4.3h-5.6V467.2z M713.2,477.3h4.9v26.4h-4.9V477.3z"/>
			<path fill="#B4A981" d="M725.8,477.3h4.9v6.9c0.6-1.1,1.3-2.1,2.2-3c0.9-0.9,1.9-1.7,3-2.4s2.4-1.2,3.8-1.5
				c1.4-0.3,2.8-0.5,4.4-0.5v4.2h-0.4c-1.8,0-3.5,0.3-5.1,0.8c-1.6,0.5-3,1.3-4.2,2.3c-1.2,1-2.1,2.3-2.8,3.8c-0.7,1.5-1,3.3-1,5.2
				v10.5h-4.9V477.3z"/>
			<path fill="#B4A981" d="M748.3,466.4h4.9v37.3h-4.9V466.4z"/>
			<path fill="#B4A981" d="M771.8,504.2c-2.4,0-4.8-0.3-7.2-1c-2.4-0.7-4.6-1.6-6.4-2.8l2.5-2.8c1.8,1.1,3.6,1.9,5.6,2.5
				c1.9,0.6,3.9,0.9,5.8,0.9c2,0,3.6-0.4,4.9-1.1c1.3-0.7,1.9-1.8,1.9-3.1v-0.1c0-0.6-0.2-1.2-0.7-1.7c-0.4-0.5-1-0.9-1.8-1.3
				c-0.8-0.4-1.6-0.7-2.6-0.9c-1-0.3-2-0.5-3.1-0.8c-1.3-0.3-2.6-0.6-3.8-1c-1.3-0.4-2.5-0.8-3.5-1.4c-1-0.5-1.9-1.2-2.5-2
				c-0.7-0.8-1-1.8-1-3.1v-0.1c0-1.1,0.3-2.2,0.8-3.1c0.6-0.9,1.3-1.7,2.3-2.4c1-0.7,2.2-1.2,3.6-1.5c1.4-0.4,2.9-0.5,4.5-0.5
				c2,0,4.1,0.3,6.2,0.8c2.1,0.5,4,1.2,5.7,2.1l-2.2,3c-1.5-0.8-3.1-1.4-4.8-1.9s-3.3-0.7-4.9-0.7c-1.9,0-3.5,0.4-4.6,1.1
				c-1.1,0.7-1.7,1.6-1.7,2.7v0.1c0,0.6,0.2,1.1,0.7,1.6c0.5,0.5,1.1,0.9,1.9,1.2c0.8,0.3,1.7,0.6,2.7,0.9c1,0.3,2.1,0.5,3.2,0.8
				c1.3,0.3,2.5,0.6,3.8,1s2.4,0.9,3.4,1.4c1,0.6,1.8,1.3,2.4,2.1c0.6,0.8,0.9,1.8,0.9,3v0.1c0,1.3-0.3,2.4-0.9,3.3
				c-0.6,1-1.4,1.8-2.5,2.5s-2.3,1.2-3.7,1.6C774.9,504,773.4,504.2,771.8,504.2z"/>
		</g>
		<g>
			<path fill="#B4A981" d="M788.6,478.3h-2.5v-0.6h5.8v0.6h-2.5v5.3h-0.8V478.3z"/>
			<path fill="#B4A981" d="M792.9,477.6h0.8l2.7,3.2l2.7-3.2h0.8v5.9h-0.8v-4.8l-2.7,3.2h0l-2.7-3.2v4.8h-0.8V477.6z"/>
		</g>
		<g>
			<path fill="#5E473A" d="M405.6,520.7h4.3c3.2,0,4.6,1.5,4.6,3c0,1.2-0.7,2.1-2.3,2.6v0c2.2,0.3,3.6,1.5,3.6,3.1
				c0,1.5-1.4,3.2-5.1,3.2h-5.1V520.7z M407.7,525.8h1.4c2.1,0,3.1-0.6,3.1-1.9c0-0.9-0.6-1.7-2.6-1.7h-2V525.8z M407.7,531.1h2.7
				c2.5,0,3.2-1,3.2-1.9c0-1.1-1-1.9-3.3-1.9h-2.6V531.1z"/>
			<path fill="#5E473A" d="M429.3,522.2H423v3.6h6.1v1.5H423v3.7h6.5v1.5h-8.6v-11.9h8.4V522.2z"/>
			<path fill="#5E473A" d="M448.6,532.6h-1.8l-9.9-9.2v9.2h-2v-11.9h1.7l10.1,9.3v-9.3h2V532.6z"/>
			<path fill="#5E473A" d="M463.4,522.2h-6.3v3.6h6.1v1.5h-6.1v3.7h6.5v1.5h-8.6v-11.9h8.4V522.2z"/>
			<path fill="#5E473A" d="M476.8,522.2H471v3.3h5.8v1.5H471v5.6h-2.1v-11.9h7.9V522.2z"/>
			<path fill="#5E473A" d="M484.3,532.6h-2.1v-11.9h2.1V532.6z"/>
			<path fill="#5E473A" d="M503.3,523.3c-1.8-0.9-3.4-1.2-5.1-1.2c-3.4,0-5.9,1.9-5.9,4.6c0,2.7,2.4,4.5,6,4.5
				c1.7,0,3.5-0.5,5.2-1.3v1.9c-1.5,0.6-3.1,1.1-5.4,1.1c-5.6,0-8-3.5-8-6c0-3.6,3.4-6.3,8.1-6.3c1.5,0,3.1,0.3,5.1,1V523.3z"/>
			<path fill="#5E473A" d="M511.3,532.6h-2.1v-11.9h2.1V532.6z"/>
			<path fill="#5E473A" d="M530.5,532.6h-2.2l-2-3.5h-6.3l-1.9,3.5H516l6.4-12h1.5L530.5,532.6z M520.9,527.6h4.6l-2.4-4.3
				L520.9,527.6z"/>
			<path fill="#5E473A" d="M537.3,531.1h6.7v1.5h-8.8v-11.9h2.1V531.1z"/>
			<path fill="#5E473A" d="M565.4,520.5c4.9,0,8,2.8,8,6.1c0,3.2-3,6.1-8,6.1c-4.9,0-7.9-2.9-7.9-6.1
				C557.4,523.3,560.6,520.5,565.4,520.5z M565.4,531.2c3.3,0,5.8-1.9,5.8-4.6c0-2.6-2.5-4.6-5.8-4.6c-3.3,0-5.8,1.9-5.8,4.6
				C559.6,529.3,562.1,531.2,565.4,531.2z"/>
			<path fill="#5E473A" d="M582.8,520.7c3,0,4.9,1.3,4.9,3.3c0,1.4-0.9,2.4-2.5,2.9c1.4,0.7,2.2,1.8,3.3,3.3c0.6,0.8,1,1.2,2,2.4
				H588l-2-2.5c-2-2.5-2.9-2.7-3.9-2.7h-0.9v5.2h-2.1v-11.9H582.8z M581.2,525.9h1.4c2.3,0,2.9-0.9,2.9-1.9c0-1.1-0.9-1.8-2.9-1.8
				h-1.4V525.9z"/>
			<path fill="#5E473A" d="M608.3,531.8c-2,0.7-3.6,1-5.7,1c-4.6,0-7.9-2.6-7.9-6.1c0-3.5,3.4-6.2,8-6.2c1.7,0,3,0.2,5.3,1v1.7
				c-1.7-0.8-3.5-1.2-5.3-1.2c-3.2,0-5.7,2-5.7,4.6c0,2.7,2.5,4.5,6,4.5c1.2,0,2.2-0.2,3.2-0.5v-2.5h-2.9v-1.5h5V531.8z"/>
			<path fill="#5E473A" d="M627.3,532.6h-2.2l-2-3.5h-6.3l-1.9,3.5h-2.2l6.4-12h1.5L627.3,532.6z M617.7,527.6h4.6l-2.4-4.3
				L617.7,527.6z"/>
			<path fill="#5E473A" d="M645.8,532.6H644l-9.9-9.2v9.2h-2v-11.9h1.7l10.1,9.3v-9.3h2V532.6z"/>
			<path fill="#5E473A" d="M654.3,532.6h-2.1v-11.9h2.1V532.6z"/>
			<path fill="#5E473A" d="M673.3,523.3c-1.8-0.9-3.4-1.2-5.1-1.2c-3.4,0-5.9,1.9-5.9,4.6c0,2.7,2.4,4.5,6,4.5
				c1.7,0,3.5-0.5,5.2-1.3v1.9c-1.5,0.6-3,1.1-5.4,1.1c-5.6,0-8-3.5-8-6c0-3.6,3.4-6.3,8.1-6.3c1.5,0,3.1,0.3,5.1,1V523.3z"/>
			<path fill="#5E473A" d="M688.2,520.7h4.3c3.2,0,4.6,1.5,4.6,3c0,1.2-0.7,2.1-2.3,2.6v0c2.2,0.3,3.6,1.5,3.6,3.1
				c0,1.5-1.4,3.2-5.1,3.2h-5.1V520.7z M690.3,525.8h1.4c2.1,0,3.1-0.6,3.1-1.9c0-0.9-0.6-1.7-2.6-1.7h-2V525.8z M690.3,531.1h2.7
				c2.5,0,3.2-1,3.2-1.9c0-1.1-1-1.9-3.3-1.9h-2.6V531.1z"/>
			<path fill="#5E473A" d="M712,522.2h-6.3v3.6h6.1v1.5h-6.1v3.7h6.5v1.5h-8.6v-11.9h8.4V522.2z"/>
			<path fill="#5E473A" d="M730.4,532.6h-2.2l-2-3.5h-6.3l-1.9,3.5h-2.2l6.4-12h1.5L730.4,532.6z M720.7,527.6h4.6l-2.4-4.3
				L720.7,527.6z"/>
			<path fill="#5E473A" d="M747.1,527.9c0,2.9-2.2,4.9-6.6,4.9c-3.1,0-6.2-1.4-6.2-4.7v-7.4h2.1v7.1c0,1.3,0.2,1.9,0.9,2.5
				c0.9,0.7,1.9,1,3.2,1c1.6,0,2.8-0.4,3.5-1c0.8-0.6,0.9-1.5,0.9-2.6v-7h2.1V527.9z"/>
			<path fill="#5E473A" d="M764.3,522.2h-5.1v10.4H757v-10.4h-5.1v-1.5h12.4V522.2z"/>
			<path fill="#5E473A" d="M778.3,520.7h2.6l-5.5,5.6v6.3h-2.1v-6.3l-5.5-5.6h2.6l4,4.1L778.3,520.7z"/>
		</g>
	</g>
	<g id="Logogram">
		<g>
			<g>
				<g>
					<path fill="#B4A981" d="M289.4,452.6c0,0.7-0.1,1.4-0.4,2.1c-0.5,1-1.2,1.6-1.7,2.5c-2.9,4.3-4.7,9.7-5.3,21.9
						c0.5-11.3-2.4-17.6-5.3-21.9c-0.6-0.9-1.4-1.8-1.7-2.5c-0.3-0.6-0.4-1.4-0.4-2.1c0-3.6,3.3-6.5,7.4-6.5
						C286.1,446,289.4,449,289.4,452.6z"/>
					<path opacity="0.1" fill="#FFFFFF" d="M287.6,452.9c0,0.6-0.1,1.1-0.3,1.6c-0.4,0.7-0.9,1.2-1.3,1.9c-2.2,3.3-3.6,7.3-4,16.6
						c0.4-8.6-1.9-13.3-4-16.6c-0.4-0.7-1.1-1.3-1.3-1.9c-0.2-0.5-0.3-1-0.3-1.6c0-2.7,2.5-5,5.6-5S287.6,450.1,287.6,452.9z"/>
				</g>
				<g>
					<path fill="#B4A981" d="M324.6,471.8c-0.5,0.5-1.1,0.9-1.8,1.2c-1,0.3-2,0.3-3,0.5c-5.1,1-10.2,3.5-19.2,11.7
						c8.4-7.6,10.7-14.1,11.7-19.2c0.2-1,0.2-2.3,0.5-3c0.3-0.6,0.7-1.2,1.2-1.8c2.6-2.6,7-2.3,9.9,0.6S327.2,469.2,324.6,471.8z"/>
					<path opacity="0.1" fill="#FFFFFF" d="M323.2,470.7c-0.4,0.4-0.8,0.7-1.3,0.9c-0.8,0.2-1.5,0.3-2.3,0.4
						c-3.9,0.8-7.7,2.7-14.6,8.9c6.4-5.8,8.1-10.7,8.9-14.6c0.2-0.8,0.2-1.7,0.4-2.3c0.2-0.5,0.5-0.9,0.9-1.3
						c1.9-1.9,5.3-1.7,7.5,0.5S325.1,468.8,323.2,470.7z"/>
				</g>
				<g>
					<path fill="#B4A981" d="M336.2,510.8c-0.7,0-1.4-0.1-2.1-0.4c-1-0.5-1.6-1.2-2.5-1.7c-4.3-2.9-9.7-4.7-21.9-5.3
						c11.3,0.5,17.6-2.4,21.9-5.3c0.9-0.6,1.8-1.4,2.5-1.7c0.6-0.3,1.4-0.4,2.1-0.4c3.6,0,6.5,3.3,6.5,7.4
						C342.7,507.5,339.8,510.8,336.2,510.8z"/>
					<path opacity="0.1" fill="#FFFFFF" d="M335.9,509c-0.6,0-1.1-0.1-1.6-0.3c-0.7-0.4-1.2-0.9-1.9-1.3c-3.3-2.2-7.3-3.6-16.6-4
						c8.6,0.4,13.3-1.9,16.6-4c0.7-0.4,1.3-1.1,1.9-1.3c0.5-0.2,1-0.3,1.6-0.3c2.7,0,5,2.5,5,5.6S338.7,509,335.9,509z"/>
				</g>
				<g>
					<path fill="#B4A981" d="M316.8,546.6c-0.5-0.5-0.9-1.1-1.2-1.8c-0.3-1-0.3-2-0.5-3c-1-5.1-3.5-10.2-11.7-19.2
						c7.6,8.4,14.1,10.7,19.2,11.7c1,0.2,2.3,0.2,3,0.5c0.6,0.3,1.2,0.7,1.8,1.2c2.6,2.6,2.3,7-0.6,9.9S319.3,549.1,316.8,546.6z"/>
					<path opacity="0.1" fill="#FFFFFF" d="M317.8,545.1c-0.4-0.4-0.7-0.8-0.9-1.3c-0.2-0.8-0.3-1.5-0.4-2.3
						c-0.8-3.9-2.7-7.7-8.9-14.6c5.8,6.4,10.7,8.1,14.6,8.9c0.8,0.2,1.7,0.2,2.3,0.4c0.5,0.2,0.9,0.5,1.3,0.9
						c1.9,1.9,1.7,5.3-0.5,7.5C323.1,546.9,319.8,547.1,317.8,545.1z"/>
				</g>
				<g>
					<path fill="#B4A981" d="M316.8,546.6c-0.5-0.5-0.9-1.1-1.2-1.8c-0.3-1-0.3-2-0.5-3c-1-5.1-3.5-10.2-11.7-19.2
						c7.6,8.4,14.1,10.7,19.2,11.7c1,0.2,2.3,0.2,3,0.5c0.6,0.3,1.2,0.7,1.8,1.2c2.6,2.6,2.3,7-0.6,9.9S319.3,549.1,316.8,546.6z"/>
					<path opacity="0.1" fill="#FFFFFF" d="M317.8,545.1c-0.4-0.4-0.7-0.8-0.9-1.3c-0.2-0.8-0.3-1.5-0.4-2.3
						c-0.8-3.9-2.7-7.7-8.9-14.6c5.8,6.4,10.7,8.1,14.6,8.9c0.8,0.2,1.7,0.2,2.3,0.4c0.5,0.2,0.9,0.5,1.3,0.9
						c1.9,1.9,1.7,5.3-0.5,7.5C323.1,546.9,319.8,547.1,317.8,545.1z"/>
				</g>
				<g>
					<path fill="#B4A981" d="M277.2,557.9c0-0.7,0.1-1.4,0.4-2.1c0.5-1,1.2-1.6,1.7-2.5c2.9-4.3,4.7-9.7,5.3-21.9
						c-0.5,11.3,2.4,17.6,5.3,21.9c0.6,0.9,1.4,1.8,1.7,2.5c0.3,0.6,0.4,1.4,0.4,2.1c0,3.6-3.3,6.5-7.4,6.5S277.2,561.5,277.2,557.9
						z"/>
					<path opacity="0.1" fill="#FFFFFF" d="M279,557.6c0-0.6,0.1-1.1,0.3-1.6c0.4-0.7,0.9-1.2,1.3-1.9c2.2-3.3,3.6-7.3,4-16.6
						c-0.4,8.6,1.9,13.3,4,16.6c0.4,0.7,1.1,1.3,1.3,1.9c0.2,0.5,0.3,1,0.3,1.6c0,2.7-2.5,5-5.6,5S279,560.4,279,557.6z"/>
				</g>
				<g>
					<path fill="#B4A981" d="M242,538.7c0.5-0.5,1.1-0.9,1.8-1.2c1-0.3,2-0.3,3-0.5c5.1-1,10.2-3.5,19.2-11.7
						c-8.4,7.6-10.7,14.1-11.7,19.2c-0.2,1-0.2,2.3-0.5,3c-0.3,0.6-0.7,1.2-1.2,1.8c-2.6,2.6-7,2.3-9.9-0.6S239.4,541.3,242,538.7z"
						/>
					<path opacity="0.1" fill="#FFFFFF" d="M243.4,539.8c0.4-0.4,0.8-0.7,1.3-0.9c0.8-0.2,1.5-0.3,2.3-0.4c3.9-0.8,7.7-2.7,14.6-8.9
						c-6.4,5.8-8.1,10.7-8.9,14.6c-0.2,0.8-0.2,1.7-0.4,2.3c-0.2,0.5-0.5,0.9-0.9,1.3c-1.9,1.9-5.3,1.7-7.5-0.5
						C241.7,545.1,241.5,541.7,243.4,539.8z"/>
				</g>
				<g>
					<path fill="#B4A981" d="M230.4,499.7c0.7,0,1.4,0.1,2.1,0.4c1,0.5,1.6,1.2,2.5,1.7c4.3,2.9,9.7,4.7,21.9,5.3
						c-11.3-0.5-17.6,2.4-21.9,5.3c-0.9,0.6-1.8,1.4-2.5,1.7c-0.6,0.3-1.4,0.4-2.1,0.4c-3.6,0-6.5-3.3-6.5-7.4
						C223.9,503,226.8,499.7,230.4,499.7z"/>
					<path opacity="0.1" fill="#FFFFFF" d="M230.7,501.5c0.6,0,1.1,0.1,1.6,0.3c0.7,0.4,1.2,0.9,1.9,1.3c3.3,2.2,7.3,3.6,16.6,4
						c-8.6-0.4-13.3,1.9-16.6,4c-0.7,0.4-1.3,1.1-1.9,1.3c-0.5,0.2-1,0.3-1.6,0.3c-2.7,0-5-2.5-5-5.6
						C225.7,504,227.9,501.5,230.7,501.5z"/>
				</g>
				<g>
					<path fill="#B4A981" d="M249.8,463.9c0.5,0.5,0.9,1.1,1.2,1.8c0.3,1,0.3,2,0.5,3c1,5.1,3.5,10.2,11.7,19.2
						c-7.6-8.4-14.1-10.7-19.2-11.7c-1-0.2-2.3-0.2-3-0.5c-0.6-0.3-1.2-0.7-1.8-1.2c-2.6-2.6-2.3-7,0.6-9.9S247.3,461.4,249.8,463.9
						z"/>
					<path opacity="0.1" fill="#FFFFFF" d="M248.8,465.4c0.4,0.4,0.7,0.8,0.9,1.3c0.2,0.8,0.3,1.5,0.4,2.3c0.8,3.9,2.7,7.7,8.9,14.6
						c-5.8-6.4-10.7-8.1-14.6-8.9c-0.8-0.2-1.7-0.2-2.3-0.4c-0.5-0.2-0.9-0.5-1.3-0.9c-1.9-1.9-1.7-5.3,0.5-7.5
						S246.8,463.4,248.8,465.4z"/>
				</g>
				<g>
					<path fill="#B4A981" d="M249.8,463.9c0.5,0.5,0.9,1.1,1.2,1.8c0.3,1,0.3,2,0.5,3c1,5.1,3.5,10.2,11.7,19.2
						c-7.6-8.4-14.1-10.7-19.2-11.7c-1-0.2-2.3-0.2-3-0.5c-0.6-0.3-1.2-0.7-1.8-1.2c-2.6-2.6-2.3-7,0.6-9.9S247.3,461.4,249.8,463.9
						z"/>
					<path opacity="0.1" fill="#FFFFFF" d="M248.8,465.4c0.4,0.4,0.7,0.8,0.9,1.3c0.2,0.8,0.3,1.5,0.4,2.3c0.8,3.9,2.7,7.7,8.9,14.6
						c-5.8-6.4-10.7-8.1-14.6-8.9c-0.8-0.2-1.7-0.2-2.3-0.4c-0.5-0.2-0.9-0.5-1.3-0.9c-1.9-1.9-1.7-5.3,0.5-7.5
						S246.8,463.4,248.8,465.4z"/>
				</g>
			</g>
			<g>
				<g>
					<path fill="#B4A981" d="M313.5,450.2c-0.3,0.8-0.8,1.5-1.4,2.1c-1,0.8-2,1.3-3,2c-5.1,3.5-9.5,8.5-15.6,21.6
						c5.6-12.2,5.2-20.3,4-26.3c-0.2-1.2-0.8-2.6-0.8-3.5c0-0.8,0.2-1.7,0.5-2.5c1.6-4,6.6-5.7,11-3.9
						C312.8,441.6,315.1,446.3,313.5,450.2z"/>
					<path opacity="0.1" fill="#FFFFFF" d="M311.4,449.8c-0.2,0.6-0.6,1.2-1,1.6c-0.7,0.6-1.5,1-2.3,1.5c-3.8,2.6-7.2,6.4-11.8,16.4
						c4.3-9.2,3.9-15.4,3-20c-0.2-0.9-0.6-2-0.6-2.7c0-0.6,0.1-1.3,0.4-1.9c1.2-3,5-4.3,8.4-2.9
						C310.9,443.2,312.6,446.7,311.4,449.8z"/>
				</g>
				<g>
					<path fill="#B4A981" d="M343.5,487c-0.8,0.3-1.6,0.5-2.5,0.5c-1.3-0.1-2.3-0.5-3.5-0.7c-6-1.1-12.7-0.7-26.3,4.3
						c12.6-4.6,18-10.7,21.4-15.8c0.7-1,1.3-2.4,1.9-3c0.6-0.6,1.3-1,2.1-1.4c3.9-1.7,8.7,0.6,10.5,5.1
						C349.2,480.4,347.5,485.4,343.5,487z"/>
					<path opacity="0.1" fill="#FFFFFF" d="M342.4,485.2c-0.6,0.3-1.2,0.4-1.9,0.4c-1-0.1-1.8-0.4-2.7-0.6c-4.6-0.9-9.7-0.5-20,3.2
						c9.6-3.5,13.7-8.1,16.3-12c0.5-0.8,1-1.8,1.5-2.3c0.4-0.4,1-0.8,1.6-1.1c3-1.3,6.6,0.5,8,3.9
						C346.7,480.2,345.4,483.9,342.4,485.2z"/>
				</g>
				<g>
					<path fill="#B4A981" d="M338.8,535c-0.8-0.3-1.5-0.8-2.1-1.4c-0.8-1-1.3-2-2-3c-3.5-5.1-8.5-9.5-21.6-15.6
						c12.2,5.6,20.3,5.2,26.3,4c1.2-0.2,2.6-0.8,3.5-0.8c0.8,0,1.7,0.2,2.5,0.5c4,1.6,5.7,6.6,3.9,11
						C347.4,534.2,342.7,536.6,338.8,535z"/>
					<path opacity="0.1" fill="#FFFFFF" d="M339.3,532.9c-0.6-0.2-1.2-0.6-1.6-1c-0.6-0.7-1-1.5-1.5-2.3c-2.6-3.8-6.4-7.2-16.4-11.8
						c9.2,4.3,15.4,3.9,20,3c0.9-0.2,2-0.6,2.7-0.6c0.6,0,1.3,0.1,1.9,0.4c3,1.2,4.3,5,2.9,8.4C345.8,532.3,342.3,534.1,339.3,532.9
						z"/>
				</g>
				<g>
					<path fill="#B4A981" d="M301.5,565.5c-0.3-0.8-0.5-1.6-0.5-2.5c0.1-1.3,0.5-2.3,0.7-3.5c1.1-6,0.7-12.7-4.3-26.3
						c4.6,12.6,10.7,18,15.8,21.4c1,0.7,2.4,1.3,3,1.9c0.6,0.6,1,1.3,1.4,2.1c1.7,3.9-0.6,8.7-5.1,10.5S303.2,569.4,301.5,565.5z"/>
					<path opacity="0.1" fill="#FFFFFF" d="M303.3,564.4c-0.3-0.6-0.4-1.2-0.4-1.9c0.1-1,0.4-1.8,0.6-2.7c0.9-4.6,0.5-9.7-3.2-20
						c3.5,9.6,8.1,13.7,12,16.3c0.8,0.5,1.8,1,2.3,1.5c0.4,0.4,0.8,1,1.1,1.6c1.3,3-0.5,6.6-3.9,8
						C308.4,568.6,304.6,567.4,303.3,564.4z"/>
				</g>
				<g>
					<path fill="#B4A981" d="M301.5,565.5c-0.3-0.8-0.5-1.6-0.5-2.5c0.1-1.3,0.5-2.3,0.7-3.5c1.1-6,0.7-12.7-4.3-26.3
						c4.6,12.6,10.7,18,15.8,21.4c1,0.7,2.4,1.3,3,1.9c0.6,0.6,1,1.3,1.4,2.1c1.7,3.9-0.6,8.7-5.1,10.5S303.2,569.4,301.5,565.5z"/>
					<path opacity="0.1" fill="#FFFFFF" d="M303.3,564.4c-0.3-0.6-0.4-1.2-0.4-1.9c0.1-1,0.4-1.8,0.6-2.7c0.9-4.6,0.5-9.7-3.2-20
						c3.5,9.6,8.1,13.7,12,16.3c0.8,0.5,1.8,1,2.3,1.5c0.4,0.4,0.8,1,1.1,1.6c1.3,3-0.5,6.6-3.9,8
						C308.4,568.6,304.6,567.4,303.3,564.4z"/>
				</g>
				<g>
					<path fill="#B4A981" d="M253.1,560.3c0.3-0.8,0.8-1.5,1.4-2.1c1-0.8,2-1.3,3-2c5.1-3.5,9.5-8.5,15.6-21.6
						c-5.6,12.2-5.2,20.3-4,26.3c0.2,1.2,0.8,2.6,0.8,3.5c0,0.8-0.2,1.7-0.5,2.5c-1.6,4-6.6,5.7-11,3.9S251.5,564.2,253.1,560.3z"/>
					<path opacity="0.1" fill="#FFFFFF" d="M255.2,560.7c0.2-0.6,0.6-1.2,1-1.6c0.7-0.6,1.5-1,2.3-1.5c3.8-2.6,7.2-6.4,11.8-16.4
						c-4.3,9.2-3.9,15.4-3,20c0.2,0.9,0.6,2,0.6,2.7c0,0.6-0.1,1.3-0.4,1.9c-1.2,3-5,4.3-8.4,2.9C255.7,567.3,254,563.8,255.2,560.7
						z"/>
				</g>
				<g>
					<path fill="#B4A981" d="M223.1,523.5c0.8-0.3,1.6-0.5,2.5-0.5c1.3,0.1,2.3,0.5,3.5,0.7c6,1.1,12.7,0.7,26.3-4.3
						c-12.6,4.6-18,10.7-21.4,15.8c-0.7,1-1.3,2.4-1.9,3c-0.6,0.6-1.3,1-2.1,1.4c-3.9,1.7-8.7-0.6-10.5-5.1
						C217.5,530.1,219.1,525.1,223.1,523.5z"/>
					<path opacity="0.1" fill="#FFFFFF" d="M224.2,525.3c0.6-0.3,1.2-0.4,1.9-0.4c1,0.1,1.8,0.4,2.7,0.6c4.6,0.9,9.7,0.5,20-3.2
						c-9.6,3.5-13.7,8.1-16.3,12c-0.5,0.8-1,1.8-1.5,2.3c-0.4,0.4-1,0.8-1.6,1.1c-3,1.3-6.6-0.5-8-3.9
						C219.9,530.3,221.2,526.6,224.2,525.3z"/>
				</g>
				<g>
					<path fill="#B4A981" d="M227.8,475.5c0.8,0.3,1.5,0.8,2.1,1.4c0.8,1,1.3,2,2,3c3.5,5.1,8.5,9.5,21.6,15.6
						c-12.2-5.6-20.3-5.2-26.3-4c-1.2,0.2-2.6,0.8-3.5,0.8c-0.8,0-1.7-0.2-2.5-0.5c-4-1.6-5.7-6.6-3.9-11
						C219.2,476.3,223.9,473.9,227.8,475.5z"/>
					<path opacity="0.1" fill="#FFFFFF" d="M227.3,477.6c0.6,0.2,1.2,0.6,1.6,1c0.6,0.7,1,1.5,1.5,2.3c2.6,3.8,6.4,7.2,16.4,11.8
						c-9.2-4.3-15.4-3.9-20-3c-0.9,0.2-2,0.6-2.7,0.6c-0.6,0-1.3-0.1-1.9-0.4c-3-1.2-4.3-5-2.9-8.4S224.3,476.4,227.3,477.6z"/>
				</g>
				<g>
					<path fill="#B4A981" d="M265.1,445c0.3,0.8,0.5,1.6,0.5,2.5c-0.1,1.3-0.5,2.3-0.7,3.5c-1.1,6-0.7,12.7,4.3,26.3
						c-4.6-12.6-10.7-18-15.8-21.4c-1-0.7-2.4-1.3-3-1.9c-0.6-0.6-1-1.3-1.4-2.1c-1.7-3.9,0.6-8.7,5.1-10.5
						C258.4,439.4,263.4,441.1,265.1,445z"/>
					<path opacity="0.1" fill="#FFFFFF" d="M263.3,446.1c0.3,0.6,0.4,1.2,0.4,1.9c-0.1,1-0.4,1.8-0.6,2.7c-0.9,4.6-0.5,9.7,3.2,20
						c-3.5-9.6-8.1-13.7-12-16.3c-0.8-0.5-1.8-1-2.3-1.5c-0.4-0.4-0.8-1-1.1-1.6c-1.3-3,0.5-6.6,3.9-8
						C258.2,441.9,262,443.1,263.3,446.1z"/>
				</g>
				<g>
					<path fill="#B4A981" d="M265.1,445c0.3,0.8,0.5,1.6,0.5,2.5c-0.1,1.3-0.5,2.3-0.7,3.5c-1.1,6-0.7,12.7,4.3,26.3
						c-4.6-12.6-10.7-18-15.8-21.4c-1-0.7-2.4-1.3-3-1.9c-0.6-0.6-1-1.3-1.4-2.1c-1.7-3.9,0.6-8.7,5.1-10.5
						C258.4,439.4,263.4,441.1,265.1,445z"/>
					<path opacity="0.1" fill="#FFFFFF" d="M263.3,446.1c0.3,0.6,0.4,1.2,0.4,1.9c-0.1,1-0.4,1.8-0.6,2.7c-0.9,4.6-0.5,9.7,3.2,20
						c-3.5-9.6-8.1-13.7-12-16.3c-0.8-0.5-1.8-1-2.3-1.5c-0.4-0.4-0.8-1-1.1-1.6c-1.3-3,0.5-6.6,3.9-8
						C258.2,441.9,262,443.1,263.3,446.1z"/>
				</g>
			</g>
		</g>
		<g>
			<g>
				<g>
					
						<ellipse transform="matrix(0.9517 0.3069 -0.3069 0.9517 141.0728 -60.061)" fill="#97BCC1" cx="261.5" cy="418.5" rx="6.3" ry="5.2"/>
					
						<ellipse transform="matrix(0.9517 0.3069 -0.3069 0.9517 141.0728 -60.061)" opacity="0.1" fill="#FFFFFF" cx="261.5" cy="418.5" rx="5.1" ry="4.2"/>
					<g>
						<path fill="#97BCC1" d="M281.9,441.2c0,0,0-0.9-0.1-2.4c0-0.8-0.1-1.7-0.2-2.7c0-0.5-0.1-1.1-0.1-1.7
							c-0.1-0.6-0.2-1.2-0.2-1.8c-0.1-1.3-0.4-2.6-0.7-4.1c-0.3-1.4-0.7-2.9-1.2-4.5c-0.5-1.5-1.1-3-1.8-4.6c-0.8-1.5-1.6-3-2.7-4.3
							c-0.5-0.7-1.1-1.3-1.7-1.9c-0.6-0.6-1.2-1.1-1.9-1.6c-1.3-0.9-2.8-1.6-4.3-2c-1.5-0.4-3-0.4-4.4-0.2c-1.4,0.2-2.6,0.8-3.6,1.6
							c-1,0.8-1.7,1.6-2.2,2.5c-0.5,0.9-0.8,1.7-1,2.4c-0.1,0.4-0.2,0.7-0.2,1c0,0.3-0.1,0.5-0.1,0.7c0,0.4-0.1,0.6-0.1,0.6h-0.1
							c0,0,0-0.2,0-0.6c0-0.2,0-0.5,0-0.7c0-0.3,0.1-0.6,0.1-1c0-0.4,0.2-0.8,0.3-1.2c0.1-0.4,0.3-0.9,0.6-1.4c0.5-1,1.2-2,2.3-2.8
							c1-0.9,2.4-1.6,3.9-1.9c1.5-0.4,3.2-0.3,4.8,0.1c1.6,0.4,3.2,1.2,4.6,2.3c0.7,0.5,1.3,1.1,2,1.7c0.6,0.7,1.2,1.3,1.7,2
							c1.1,1.4,1.9,2.9,2.7,4.5c0.7,1.6,1.3,3.1,1.8,4.7c0.5,1.6,0.8,3.1,1.1,4.5c0.2,1.5,0.5,2.8,0.6,4.1c0.1,0.6,0.1,1.3,0.2,1.8
							c0,0.6,0.1,1.1,0.1,1.7c0.1,1,0.1,2,0.1,2.7C282,440.4,282,441.2,281.9,441.2L281.9,441.2z"/>
					</g>
				</g>
				<g>
					
						<ellipse transform="matrix(-0.9517 0.3069 -0.3069 -0.9517 718.7463 724.0431)" fill="#97BCC1" cx="302.4" cy="418.5" rx="6.3" ry="5.2"/>
					
						<ellipse transform="matrix(-0.9517 0.3069 -0.3069 -0.9517 718.7463 724.0431)" opacity="0.1" fill="#FFFFFF" cx="302.4" cy="418.5" rx="5.1" ry="4.2"/>
					<g>
						<path fill="#97BCC1" d="M281.9,441.2c0,0,0-0.9,0-2.4c0-0.8,0-1.7,0.1-2.7c0-0.5,0.1-1.1,0.1-1.7c0.1-0.6,0.1-1.2,0.2-1.8
							c0.1-1.3,0.4-2.7,0.6-4.1c0.3-1.5,0.6-3,1.1-4.5c0.5-1.6,1.1-3.1,1.8-4.7c0.8-1.5,1.6-3.1,2.7-4.5c0.5-0.7,1.1-1.4,1.7-2
							c0.6-0.6,1.3-1.2,2-1.7c1.4-1,3-1.8,4.6-2.3c1.6-0.4,3.3-0.5,4.8-0.1c1.5,0.3,2.9,1,3.9,1.9c1,0.9,1.8,1.9,2.3,2.8
							c0.2,0.5,0.4,1,0.6,1.4c0.1,0.5,0.3,0.9,0.3,1.2c0,0.4,0.1,0.7,0.1,1c0,0.3,0,0.5,0,0.7c0,0.4,0,0.6,0,0.6h-0.1
							c0,0,0-0.2-0.1-0.6c0-0.2-0.1-0.4-0.1-0.7c-0.1-0.3-0.1-0.6-0.2-1c-0.2-0.7-0.5-1.5-1-2.4c-0.5-0.9-1.3-1.7-2.2-2.5
							c-1-0.8-2.2-1.3-3.6-1.6c-1.4-0.2-2.9-0.2-4.4,0.2c-1.5,0.4-3,1.1-4.3,2c-0.7,0.5-1.3,1-1.9,1.6c-0.6,0.6-1.2,1.2-1.7,1.9
							c-1.1,1.3-1.9,2.8-2.7,4.3c-0.7,1.5-1.3,3-1.8,4.6c-0.5,1.5-0.9,3-1.2,4.5c-0.3,1.4-0.6,2.8-0.7,4.1c-0.1,0.6-0.2,1.2-0.2,1.8
							c0,0.6-0.1,1.1-0.1,1.7c-0.1,1-0.2,1.9-0.2,2.7C282.1,440.4,282,441.2,281.9,441.2L281.9,441.2z"/>
					</g>
				</g>
			</g>
			<g>
				<g>
					
						<ellipse transform="matrix(0.456 0.89 -0.89 0.456 560.6691 -59.7356)" fill="#97BCC1" cx="329.2" cy="428.7" rx="6.3" ry="5.2"/>
					
						<ellipse transform="matrix(0.456 0.89 -0.89 0.456 560.6691 -59.7356)" opacity="0.1" fill="#FFFFFF" cx="329.2" cy="428.7" rx="5.1" ry="4.2"/>
					<g>
						<path fill="#97BCC1" d="M327.6,459.2c0,0,0.6-0.6,1.6-1.7c0.5-0.5,1.1-1.2,1.8-2c0.3-0.4,0.7-0.8,1.1-1.3
							c0.4-0.5,0.7-1,1.1-1.5c0.8-1,1.6-2.2,2.4-3.4c0.8-1.3,1.6-2.6,2.3-4c0.7-1.4,1.4-2.9,1.9-4.5c0.5-1.6,1-3.2,1.1-4.9
							c0.1-0.8,0.1-1.7,0.1-2.5c-0.1-0.8-0.1-1.7-0.2-2.5c-0.3-1.6-0.8-3.1-1.6-4.5c-0.8-1.3-1.8-2.4-3-3.2
							c-1.2-0.8-2.4-1.3-3.6-1.4c-1.2-0.2-2.4-0.1-3.3,0.2c-1,0.3-1.8,0.6-2.4,1c-0.3,0.2-0.6,0.4-0.8,0.5c-0.2,0.2-0.4,0.3-0.6,0.5
							c-0.3,0.2-0.5,0.4-0.5,0.4l-0.1-0.1c0,0,0.2-0.2,0.4-0.4c0.1-0.1,0.3-0.3,0.5-0.5c0.2-0.2,0.5-0.4,0.8-0.6
							c0.3-0.2,0.7-0.4,1.1-0.7c0.4-0.2,0.9-0.4,1.4-0.6c1-0.3,2.3-0.5,3.6-0.4c1.3,0.1,2.8,0.6,4.1,1.4c1.3,0.8,2.5,2,3.3,3.5
							c0.9,1.5,1.4,3.1,1.7,4.8c0.1,0.9,0.2,1.7,0.2,2.6c-0.1,0.9-0.1,1.8-0.2,2.6c-0.2,1.7-0.7,3.4-1.3,5c-0.6,1.6-1.3,3.1-2.1,4.6
							c-0.8,1.4-1.6,2.7-2.4,4c-0.9,1.2-1.7,2.3-2.5,3.3c-0.4,0.5-0.8,1-1.2,1.4c-0.4,0.4-0.8,0.9-1.1,1.2c-0.7,0.8-1.3,1.5-1.9,2
							C328.2,458.7,327.6,459.3,327.6,459.2L327.6,459.2z"/>
					</g>
				</g>
				<g>
					
						<ellipse transform="matrix(-0.89 -0.456 0.456 -0.89 468.2014 1028.3165)" fill="#97BCC1" cx="358.1" cy="457.7" rx="6.3" ry="5.2"/>
					
						<ellipse transform="matrix(-0.89 -0.456 0.456 -0.89 468.2014 1028.3165)" opacity="0.1" fill="#FFFFFF" cx="358.1" cy="457.7" rx="5.1" ry="4.2"/>
					<g>
						<path fill="#97BCC1" d="M327.6,459.2c0,0,0.6-0.6,1.7-1.7c0.5-0.5,1.2-1.2,2-1.9c0.4-0.4,0.8-0.7,1.2-1.1
							c0.5-0.4,0.9-0.8,1.4-1.2c1-0.8,2.1-1.6,3.3-2.5c1.2-0.8,2.6-1.7,4-2.4c1.4-0.8,3-1.5,4.6-2.1c1.6-0.6,3.3-1.1,5-1.3
							c0.9-0.2,1.7-0.2,2.6-0.2c0.9,0,1.8,0,2.6,0.2c1.7,0.2,3.4,0.8,4.8,1.7c1.4,0.9,2.7,2,3.5,3.3c0.8,1.3,1.3,2.7,1.4,4.1
							c0.1,1.3-0.1,2.6-0.4,3.6c-0.2,0.5-0.4,1-0.6,1.4c-0.2,0.4-0.4,0.8-0.7,1.1c-0.2,0.3-0.4,0.6-0.6,0.8
							c-0.2,0.2-0.4,0.4-0.5,0.5c-0.3,0.3-0.4,0.4-0.4,0.4l-0.1-0.1c0,0,0.1-0.2,0.4-0.5c0.1-0.2,0.3-0.3,0.5-0.6
							c0.2-0.2,0.3-0.5,0.5-0.8c0.4-0.6,0.7-1.5,1-2.4c0.2-1,0.3-2.1,0.2-3.3c-0.2-1.2-0.6-2.5-1.4-3.6c-0.8-1.1-1.9-2.2-3.2-3
							c-1.3-0.8-2.8-1.3-4.5-1.6c-0.8-0.2-1.6-0.2-2.5-0.2c-0.8,0-1.7,0-2.5,0.1c-1.7,0.2-3.3,0.6-4.9,1.1c-1.6,0.6-3.1,1.2-4.5,1.9
							c-1.4,0.7-2.7,1.5-4,2.3c-1.2,0.8-2.4,1.6-3.4,2.4c-0.5,0.4-1,0.8-1.5,1.1c-0.4,0.4-0.9,0.7-1.3,1.1c-0.8,0.7-1.5,1.3-2,1.8
							C328.3,458.7,327.6,459.3,327.6,459.2L327.6,459.2z"/>
					</g>
				</g>
			</g>
			<g>
				<g>
					
						<ellipse transform="matrix(-0.3069 0.9517 -0.9517 -0.3069 943.8124 280.3048)" fill="#97BCC1" cx="369.8" cy="483.8" rx="6.3" ry="5.2"/>
					
						<ellipse transform="matrix(-0.3069 0.9517 -0.9517 -0.3069 943.8124 280.3048)" opacity="0.1" fill="#FFFFFF" cx="369.8" cy="483.8" rx="5.1" ry="4.2"/>
					<g>
						<path fill="#97BCC1" d="M347.1,504.2c0,0,0.9,0,2.4-0.1c0.8,0,1.7-0.1,2.7-0.2c0.5,0,1.1-0.1,1.7-0.1c0.6-0.1,1.2-0.2,1.8-0.2
							c1.3-0.1,2.6-0.4,4.1-0.7c1.4-0.3,2.9-0.7,4.5-1.2c1.5-0.5,3-1.1,4.6-1.8c1.5-0.8,3-1.6,4.3-2.7c0.7-0.5,1.3-1.1,1.9-1.7
							c0.6-0.6,1.1-1.2,1.6-1.9c0.9-1.3,1.6-2.8,2-4.3c0.4-1.5,0.4-3,0.2-4.4c-0.2-1.4-0.8-2.6-1.6-3.6c-0.8-1-1.6-1.7-2.5-2.2
							c-0.9-0.5-1.7-0.8-2.4-1c-0.4-0.1-0.7-0.2-1-0.2c-0.3,0-0.5-0.1-0.7-0.1c-0.4,0-0.6-0.1-0.6-0.1v-0.1c0,0,0.2,0,0.6,0
							c0.2,0,0.5,0,0.7,0c0.3,0,0.6,0.1,1,0.1c0.4,0,0.8,0.2,1.2,0.3c0.4,0.1,0.9,0.3,1.4,0.6c1,0.5,2,1.2,2.8,2.3
							c0.9,1,1.6,2.4,1.9,3.9c0.4,1.5,0.3,3.2-0.1,4.8c-0.4,1.6-1.2,3.2-2.3,4.6c-0.5,0.7-1.1,1.3-1.7,2c-0.7,0.6-1.3,1.2-2,1.7
							c-1.4,1.1-2.9,1.9-4.5,2.7c-1.6,0.7-3.1,1.3-4.7,1.8c-1.6,0.5-3.1,0.8-4.5,1.1c-1.5,0.2-2.8,0.5-4.1,0.6
							c-0.6,0.1-1.3,0.1-1.8,0.2c-0.6,0-1.1,0.1-1.7,0.1c-1,0.1-2,0.1-2.7,0.1C348,504.3,347.1,504.3,347.1,504.2L347.1,504.2z"/>
					</g>
				</g>
				<g>
					
						<ellipse transform="matrix(-0.3069 -0.9517 0.9517 -0.3069 -16.0713 1037.79)" fill="#97BCC1" cx="369.8" cy="524.7" rx="6.3" ry="5.2"/>
					
						<ellipse transform="matrix(-0.3069 -0.9517 0.9517 -0.3069 -16.0713 1037.79)" opacity="0.1" fill="#FFFFFF" cx="369.8" cy="524.7" rx="5.1" ry="4.2"/>
					<g>
						<path fill="#97BCC1" d="M347.1,504.2c0,0,0.9,0,2.4,0c0.8,0,1.7,0,2.7,0.1c0.5,0,1.1,0.1,1.7,0.1c0.6,0.1,1.2,0.1,1.8,0.2
							c1.3,0.1,2.7,0.4,4.1,0.6c1.5,0.3,3,0.6,4.5,1.1c1.6,0.5,3.1,1.1,4.7,1.8c1.5,0.8,3.1,1.6,4.5,2.7c0.7,0.5,1.4,1.1,2,1.7
							c0.6,0.6,1.2,1.3,1.7,2c1,1.4,1.8,3,2.3,4.6c0.4,1.6,0.5,3.3,0.1,4.8c-0.3,1.5-1,2.9-1.9,3.9c-0.9,1-1.9,1.8-2.8,2.3
							c-0.5,0.2-1,0.4-1.4,0.6c-0.5,0.1-0.9,0.3-1.2,0.3c-0.4,0-0.7,0.1-1,0.1c-0.3,0-0.5,0-0.7,0c-0.4,0-0.6,0-0.6,0v-0.1
							c0,0,0.2,0,0.6-0.1c0.2,0,0.4-0.1,0.7-0.1c0.3-0.1,0.6-0.1,1-0.2c0.7-0.2,1.5-0.5,2.4-1c0.9-0.5,1.7-1.3,2.5-2.2
							c0.8-1,1.3-2.2,1.6-3.6c0.2-1.4,0.2-2.9-0.2-4.4c-0.4-1.5-1.1-3-2-4.3c-0.5-0.7-1-1.3-1.6-1.9c-0.6-0.6-1.2-1.2-1.9-1.7
							c-1.3-1.1-2.8-1.9-4.3-2.7c-1.5-0.7-3-1.3-4.6-1.8c-1.5-0.5-3-0.9-4.5-1.2c-1.4-0.3-2.8-0.6-4.1-0.7c-0.6-0.1-1.2-0.2-1.8-0.2
							c-0.6,0-1.1-0.1-1.7-0.1c-1-0.1-1.9-0.2-2.7-0.2C348,504.4,347.1,504.3,347.1,504.2L347.1,504.2z"/>
					</g>
				</g>
			</g>
			<g>
				<g>
					
						<ellipse transform="matrix(-0.89 0.456 -0.456 -0.89 931.18 878.3469)" fill="#97BCC1" cx="359.6" cy="551.5" rx="6.3" ry="5.2"/>
					
						<ellipse transform="matrix(-0.89 0.456 -0.456 -0.89 931.18 878.3469)" opacity="0.1" fill="#FFFFFF" cx="359.6" cy="551.5" rx="5.1" ry="4.2"/>
					<g>
						<path fill="#97BCC1" d="M329.1,549.9c0,0,0.6,0.6,1.7,1.6c0.5,0.5,1.2,1.1,2,1.8c0.4,0.3,0.8,0.7,1.3,1.1
							c0.5,0.4,1,0.7,1.5,1.1c1,0.8,2.2,1.6,3.4,2.4c1.3,0.8,2.6,1.6,4,2.3c1.4,0.7,2.9,1.4,4.5,1.9c1.6,0.5,3.2,1,4.9,1.1
							c0.8,0.1,1.7,0.1,2.5,0.1c0.8-0.1,1.7-0.1,2.5-0.2c1.6-0.3,3.1-0.8,4.5-1.6c1.3-0.8,2.4-1.8,3.2-3c0.8-1.2,1.3-2.4,1.4-3.6
							c0.2-1.2,0.1-2.4-0.2-3.3c-0.3-1-0.6-1.8-1-2.4c-0.2-0.3-0.4-0.6-0.5-0.8c-0.2-0.2-0.3-0.4-0.5-0.6c-0.2-0.3-0.4-0.5-0.4-0.5
							l0.1-0.1c0,0,0.2,0.2,0.4,0.4c0.1,0.1,0.3,0.3,0.5,0.5c0.2,0.2,0.4,0.5,0.6,0.8c0.2,0.3,0.4,0.7,0.7,1.1
							c0.2,0.4,0.4,0.9,0.6,1.4c0.3,1,0.5,2.3,0.4,3.6c-0.1,1.3-0.6,2.8-1.4,4.1c-0.8,1.3-2,2.5-3.5,3.3c-1.5,0.9-3.1,1.4-4.8,1.7
							c-0.9,0.1-1.7,0.2-2.6,0.2c-0.9-0.1-1.8-0.1-2.6-0.2c-1.7-0.2-3.4-0.7-5-1.3c-1.6-0.6-3.1-1.3-4.6-2.1c-1.4-0.8-2.7-1.6-4-2.4
							c-1.2-0.9-2.3-1.7-3.3-2.5c-0.5-0.4-1-0.8-1.4-1.2c-0.4-0.4-0.9-0.8-1.2-1.1c-0.8-0.7-1.5-1.3-2-1.9
							C329.7,550.6,329.1,549.9,329.1,549.9L329.1,549.9z"/>
					</g>
				</g>
				<g>
					
						<ellipse transform="matrix(0.456 -0.89 0.89 0.456 -336.6839 610.0995)" fill="#97BCC1" cx="330.7" cy="580.4" rx="6.3" ry="5.2"/>
					
						<ellipse transform="matrix(0.456 -0.89 0.89 0.456 -336.6839 610.0995)" opacity="0.1" fill="#FFFFFF" cx="330.7" cy="580.4" rx="5.1" ry="4.2"/>
					<g>
						<path fill="#97BCC1" d="M329.1,549.9c0,0,0.6,0.6,1.7,1.7c0.5,0.5,1.2,1.2,1.9,2c0.4,0.4,0.7,0.8,1.1,1.2
							c0.4,0.5,0.8,0.9,1.2,1.4c0.8,1,1.6,2.1,2.5,3.3c0.8,1.2,1.7,2.6,2.4,4c0.8,1.4,1.5,3,2.1,4.6c0.6,1.6,1.1,3.3,1.3,5
							c0.2,0.9,0.2,1.7,0.2,2.6c0,0.9,0,1.8-0.2,2.6c-0.2,1.7-0.8,3.4-1.7,4.8c-0.9,1.4-2,2.7-3.3,3.5c-1.3,0.8-2.7,1.3-4.1,1.4
							c-1.3,0.1-2.6-0.1-3.6-0.4c-0.5-0.2-1-0.4-1.4-0.6c-0.4-0.2-0.8-0.4-1.1-0.7c-0.3-0.2-0.6-0.4-0.8-0.6
							c-0.2-0.2-0.4-0.4-0.5-0.5c-0.3-0.3-0.4-0.4-0.4-0.4l0.1-0.1c0,0,0.2,0.1,0.5,0.4c0.2,0.1,0.3,0.3,0.6,0.5
							c0.2,0.2,0.5,0.3,0.8,0.5c0.6,0.4,1.5,0.7,2.4,1c1,0.2,2.1,0.3,3.3,0.2c1.2-0.2,2.5-0.6,3.6-1.4c1.1-0.8,2.2-1.9,3-3.2
							c0.8-1.3,1.3-2.8,1.6-4.5c0.2-0.8,0.2-1.6,0.2-2.5c0-0.8,0-1.7-0.1-2.5c-0.2-1.7-0.6-3.3-1.1-4.9c-0.6-1.6-1.2-3.1-1.9-4.5
							c-0.7-1.4-1.5-2.7-2.3-4c-0.8-1.2-1.6-2.4-2.4-3.4c-0.4-0.5-0.8-1-1.1-1.5c-0.4-0.4-0.7-0.9-1.1-1.3c-0.7-0.8-1.3-1.5-1.8-2
							C329.7,550.6,329.1,549.9,329.1,549.9L329.1,549.9z"/>
					</g>
				</g>
			</g>
			<g>
				<g>
					
						<ellipse transform="matrix(-0.9517 -0.3069 0.3069 -0.9517 412.6939 1249.1832)" fill="#97BCC1" cx="304.6" cy="592.1" rx="6.3" ry="5.2"/>
					
						<ellipse transform="matrix(-0.9517 -0.3069 0.3069 -0.9517 412.6939 1249.1832)" opacity="0.1" fill="#FFFFFF" cx="304.6" cy="592.1" rx="5.1" ry="4.2"/>
					<g>
						<path fill="#97BCC1" d="M284.1,569.4c0,0,0,0.9,0.1,2.4c0,0.8,0.1,1.7,0.2,2.7c0,0.5,0.1,1.1,0.1,1.7c0.1,0.6,0.2,1.2,0.2,1.8
							c0.1,1.3,0.4,2.6,0.7,4.1c0.3,1.4,0.7,2.9,1.2,4.5c0.5,1.5,1.1,3,1.8,4.6c0.8,1.5,1.6,3,2.7,4.3c0.5,0.7,1.1,1.3,1.7,1.9
							c0.6,0.6,1.2,1.1,1.9,1.6c1.3,0.9,2.8,1.6,4.3,2c1.5,0.4,3,0.4,4.4,0.2c1.4-0.2,2.6-0.8,3.6-1.6c1-0.8,1.7-1.6,2.2-2.5
							c0.5-0.9,0.8-1.7,1-2.4c0.1-0.4,0.2-0.7,0.2-1c0-0.3,0.1-0.5,0.1-0.7c0-0.4,0.1-0.6,0.1-0.6h0.1c0,0,0,0.2,0,0.6
							c0,0.2,0,0.5,0,0.7c0,0.3-0.1,0.6-0.1,1c0,0.4-0.2,0.8-0.3,1.2c-0.1,0.4-0.3,0.9-0.6,1.4c-0.5,1-1.2,2-2.3,2.8
							c-1,0.9-2.4,1.6-3.9,1.9c-1.5,0.4-3.2,0.3-4.8-0.1c-1.6-0.4-3.2-1.2-4.6-2.3c-0.7-0.5-1.3-1.1-2-1.7c-0.6-0.7-1.2-1.3-1.7-2
							c-1.1-1.4-1.9-2.9-2.7-4.5c-0.7-1.6-1.3-3.1-1.8-4.7c-0.5-1.6-0.8-3.1-1.1-4.5c-0.2-1.5-0.5-2.8-0.6-4.1
							c-0.1-0.6-0.1-1.3-0.2-1.8c0-0.6-0.1-1.1-0.1-1.7c-0.1-1-0.1-2-0.1-2.7C284.1,570.3,284,569.4,284.1,569.4L284.1,569.4z"/>
					</g>
				</g>
				<g>
					
						<ellipse transform="matrix(0.9517 -0.3069 0.3069 0.9517 -169.0117 109.4879)" fill="#97BCC1" cx="263.6" cy="592.1" rx="6.3" ry="5.2"/>
					
						<ellipse transform="matrix(0.9517 -0.3069 0.3069 0.9517 -169.0117 109.4879)" opacity="0.1" fill="#FFFFFF" cx="263.6" cy="592.1" rx="5.1" ry="4.2"/>
					<g>
						<path fill="#97BCC1" d="M284.1,569.4c0,0,0,0.9,0,2.4c0,0.8,0,1.7-0.1,2.7c0,0.5-0.1,1.1-0.1,1.7c-0.1,0.6-0.1,1.2-0.2,1.8
							c-0.1,1.3-0.4,2.7-0.6,4.1c-0.3,1.5-0.6,3-1.1,4.5c-0.5,1.6-1.1,3.1-1.8,4.7c-0.8,1.5-1.6,3.1-2.7,4.5c-0.5,0.7-1.1,1.4-1.7,2
							c-0.6,0.6-1.3,1.2-2,1.7c-1.4,1-3,1.8-4.6,2.3c-1.6,0.4-3.3,0.5-4.8,0.1c-1.5-0.3-2.9-1-3.9-1.9c-1-0.9-1.8-1.9-2.3-2.8
							c-0.2-0.5-0.4-1-0.6-1.4c-0.1-0.5-0.3-0.9-0.3-1.2c0-0.4-0.1-0.7-0.1-1c0-0.3,0-0.5,0-0.7c0-0.4,0-0.6,0-0.6h0.1
							c0,0,0,0.2,0.1,0.6c0,0.2,0.1,0.4,0.1,0.7c0.1,0.3,0.1,0.6,0.2,1c0.2,0.7,0.5,1.5,1,2.4c0.5,0.9,1.3,1.7,2.2,2.5
							c1,0.8,2.2,1.3,3.6,1.6c1.4,0.2,2.9,0.2,4.4-0.2c1.5-0.4,3-1.1,4.3-2c0.7-0.5,1.3-1,1.9-1.6c0.6-0.6,1.2-1.2,1.7-1.9
							c1.1-1.3,1.9-2.8,2.7-4.3c0.7-1.5,1.3-3,1.8-4.6c0.5-1.5,0.9-3,1.2-4.5c0.3-1.4,0.6-2.8,0.7-4.1c0.1-0.6,0.2-1.2,0.2-1.8
							c0-0.6,0.1-1.1,0.1-1.7c0.1-1,0.2-1.9,0.2-2.7C284,570.3,284,569.4,284.1,569.4L284.1,569.4z"/>
					</g>
				</g>
			</g>
			<g>
				<g>
					
						<ellipse transform="matrix(-0.456 -0.89 0.89 -0.456 -173.0413 1058.105)" fill="#97BCC1" cx="236.9" cy="581.9" rx="6.3" ry="5.2"/>
					
						<ellipse transform="matrix(-0.456 -0.89 0.89 -0.456 -173.0413 1058.105)" opacity="0.1" fill="#FFFFFF" cx="236.9" cy="581.9" rx="5.1" ry="4.2"/>
					<g>
						<path fill="#97BCC1" d="M238.5,551.4c0,0-0.6,0.6-1.6,1.7c-0.5,0.5-1.1,1.2-1.8,2c-0.3,0.4-0.7,0.8-1.1,1.3
							c-0.4,0.5-0.7,1-1.1,1.5c-0.8,1-1.6,2.2-2.4,3.4c-0.8,1.3-1.6,2.6-2.3,4c-0.7,1.4-1.4,2.9-1.9,4.5c-0.5,1.6-1,3.2-1.1,4.9
							c-0.1,0.8-0.1,1.7-0.1,2.5c0.1,0.8,0.1,1.7,0.2,2.5c0.3,1.6,0.8,3.1,1.6,4.5c0.8,1.3,1.8,2.4,3,3.2c1.2,0.8,2.4,1.3,3.6,1.4
							c1.2,0.2,2.4,0.1,3.3-0.2c1-0.3,1.8-0.6,2.4-1c0.3-0.2,0.6-0.4,0.8-0.5c0.2-0.2,0.4-0.3,0.6-0.5c0.3-0.2,0.5-0.4,0.5-0.4
							l0.1,0.1c0,0-0.2,0.2-0.4,0.4c-0.1,0.1-0.3,0.3-0.5,0.5c-0.2,0.2-0.5,0.4-0.8,0.6c-0.3,0.2-0.7,0.4-1.1,0.7
							c-0.4,0.2-0.9,0.4-1.4,0.6c-1,0.3-2.3,0.5-3.6,0.4c-1.3-0.1-2.8-0.6-4.1-1.4c-1.3-0.8-2.5-2-3.3-3.5c-0.9-1.5-1.4-3.1-1.7-4.8
							c-0.1-0.9-0.2-1.7-0.2-2.6c0.1-0.9,0.1-1.8,0.2-2.6c0.2-1.7,0.7-3.4,1.3-5c0.6-1.6,1.3-3.1,2.1-4.6c0.8-1.4,1.6-2.7,2.4-4
							c0.9-1.2,1.7-2.3,2.5-3.3c0.4-0.5,0.8-1,1.2-1.4c0.4-0.4,0.8-0.9,1.1-1.2c0.7-0.8,1.3-1.5,1.9-2
							C237.8,552,238.4,551.4,238.5,551.4L238.5,551.4z"/>
					</g>
				</g>
				<g>
					
						<ellipse transform="matrix(0.89 0.456 -0.456 0.89 275.0178 -33.9793)" fill="#97BCC1" cx="207.9" cy="553" rx="6.3" ry="5.2"/>
					
						<ellipse transform="matrix(0.89 0.456 -0.456 0.89 275.0178 -33.9793)" opacity="0.1" fill="#FFFFFF" cx="207.9" cy="553" rx="5.1" ry="4.2"/>
					<g>
						<path fill="#97BCC1" d="M238.5,551.4c0,0-0.6,0.6-1.7,1.7c-0.5,0.5-1.2,1.2-2,1.9c-0.4,0.4-0.8,0.7-1.2,1.1
							c-0.5,0.4-0.9,0.8-1.4,1.2c-1,0.8-2.1,1.6-3.3,2.5c-1.2,0.8-2.6,1.7-4,2.4c-1.4,0.8-3,1.5-4.6,2.1c-1.6,0.6-3.3,1.1-5,1.3
							c-0.9,0.2-1.7,0.2-2.6,0.2c-0.9,0-1.8,0-2.6-0.2c-1.7-0.2-3.4-0.8-4.8-1.7c-1.4-0.9-2.7-2-3.5-3.3c-0.8-1.3-1.3-2.7-1.4-4.1
							c-0.1-1.3,0.1-2.6,0.4-3.6c0.2-0.5,0.4-1,0.6-1.4c0.2-0.4,0.4-0.8,0.7-1.1c0.2-0.3,0.4-0.6,0.6-0.8c0.2-0.2,0.4-0.4,0.5-0.5
							c0.3-0.3,0.4-0.4,0.4-0.4l0.1,0.1c0,0-0.1,0.2-0.4,0.5c-0.1,0.2-0.3,0.3-0.5,0.6c-0.2,0.2-0.3,0.5-0.5,0.8
							c-0.4,0.6-0.7,1.5-1,2.4c-0.2,1-0.3,2.1-0.2,3.3c0.2,1.2,0.6,2.5,1.4,3.6c0.8,1.1,1.9,2.2,3.2,3c1.3,0.8,2.8,1.3,4.5,1.6
							c0.8,0.2,1.6,0.2,2.5,0.2c0.8,0,1.7,0,2.5-0.1c1.7-0.2,3.3-0.6,4.9-1.1c1.6-0.6,3.1-1.2,4.5-1.9c1.4-0.7,2.7-1.5,4-2.3
							c1.2-0.8,2.4-1.6,3.4-2.4c0.5-0.4,1-0.8,1.5-1.1c0.4-0.4,0.9-0.7,1.3-1.1c0.8-0.7,1.5-1.3,2-1.8
							C237.8,552,238.4,551.4,238.5,551.4L238.5,551.4z"/>
					</g>
				</g>
			</g>
			<g>
				<g>
					
						<ellipse transform="matrix(0.3069 -0.9517 0.9517 0.3069 -365.4318 551.9258)" fill="#97BCC1" cx="196.2" cy="526.9" rx="6.3" ry="5.2"/>
					
						<ellipse transform="matrix(0.3069 -0.9517 0.9517 0.3069 -365.4318 551.9258)" opacity="0.1" fill="#FFFFFF" cx="196.2" cy="526.9" rx="5.1" ry="4.2"/>
					<g>
						<path fill="#97BCC1" d="M218.9,506.4c0,0-0.9,0-2.4,0.1c-0.8,0-1.7,0.1-2.7,0.2c-0.5,0-1.1,0.1-1.7,0.1
							c-0.6,0.1-1.2,0.2-1.8,0.2c-1.3,0.1-2.6,0.4-4.1,0.7c-1.4,0.3-2.9,0.7-4.5,1.2c-1.5,0.5-3,1.1-4.6,1.8c-1.5,0.8-3,1.6-4.3,2.7
							c-0.7,0.5-1.3,1.1-1.9,1.7c-0.6,0.6-1.1,1.2-1.6,1.9c-0.9,1.3-1.6,2.8-2,4.3c-0.4,1.5-0.4,3-0.2,4.4c0.2,1.4,0.8,2.6,1.6,3.6
							c0.8,1,1.6,1.7,2.5,2.2c0.9,0.5,1.7,0.8,2.4,1c0.4,0.1,0.7,0.2,1,0.2c0.3,0,0.5,0.1,0.7,0.1c0.4,0,0.6,0.1,0.6,0.1v0.1
							c0,0-0.2,0-0.6,0c-0.2,0-0.5,0-0.7,0c-0.3,0-0.6-0.1-1-0.1c-0.4,0-0.8-0.2-1.2-0.3c-0.4-0.1-0.9-0.3-1.4-0.6
							c-1-0.5-2-1.2-2.8-2.3c-0.9-1-1.6-2.4-1.9-3.9c-0.4-1.5-0.3-3.2,0.1-4.8c0.4-1.6,1.2-3.2,2.3-4.6c0.5-0.7,1.1-1.3,1.7-2
							c0.7-0.6,1.3-1.2,2-1.7c1.4-1.1,2.9-1.9,4.5-2.7c1.6-0.7,3.1-1.3,4.7-1.8c1.6-0.5,3.1-0.8,4.5-1.1c1.5-0.2,2.8-0.5,4.1-0.6
							c0.6-0.1,1.3-0.1,1.8-0.2c0.6,0,1.1-0.1,1.7-0.1c1-0.1,2-0.1,2.7-0.1C218.1,506.4,218.9,506.3,218.9,506.4L218.9,506.4z"/>
					</g>
				</g>
				<g>
					
						<ellipse transform="matrix(0.3069 0.9517 -0.9517 0.3069 598.484 150.032)" fill="#97BCC1" cx="196.2" cy="485.9" rx="6.3" ry="5.2"/>
					
						<ellipse transform="matrix(0.3069 0.9517 -0.9517 0.3069 598.484 150.032)" opacity="0.1" fill="#FFFFFF" cx="196.2" cy="485.9" rx="5.1" ry="4.2"/>
					<g>
						<path fill="#97BCC1" d="M218.9,506.4c0,0-0.9,0-2.4,0c-0.8,0-1.7,0-2.7-0.1c-0.5,0-1.1-0.1-1.7-0.1c-0.6-0.1-1.2-0.1-1.8-0.2
							c-1.3-0.1-2.7-0.4-4.1-0.6c-1.5-0.3-3-0.6-4.5-1.1c-1.6-0.5-3.1-1.1-4.7-1.8c-1.5-0.8-3.1-1.6-4.5-2.7c-0.7-0.5-1.4-1.1-2-1.7
							c-0.6-0.6-1.2-1.3-1.7-2c-1-1.4-1.8-3-2.3-4.6c-0.4-1.6-0.5-3.3-0.1-4.8c0.3-1.5,1-2.9,1.9-3.9c0.9-1,1.9-1.8,2.8-2.3
							c0.5-0.2,1-0.4,1.4-0.6c0.5-0.1,0.9-0.3,1.2-0.3c0.4,0,0.7-0.1,1-0.1c0.3,0,0.5,0,0.7,0c0.4,0,0.6,0,0.6,0v0.1
							c0,0-0.2,0-0.6,0.1c-0.2,0-0.4,0.1-0.7,0.1c-0.3,0.1-0.6,0.1-1,0.2c-0.7,0.2-1.5,0.5-2.4,1c-0.9,0.5-1.7,1.3-2.5,2.2
							c-0.8,1-1.3,2.2-1.6,3.6c-0.2,1.4-0.2,2.9,0.2,4.4c0.4,1.5,1.1,3,2,4.3c0.5,0.7,1,1.3,1.6,1.9c0.6,0.6,1.2,1.2,1.9,1.7
							c1.3,1.1,2.8,1.9,4.3,2.7c1.5,0.7,3,1.3,4.6,1.8c1.5,0.5,3,0.9,4.5,1.2c1.4,0.3,2.8,0.6,4.1,0.7c0.6,0.1,1.2,0.2,1.8,0.2
							c0.6,0,1.1,0.1,1.7,0.1c1,0.1,1.9,0.2,2.7,0.2C218.1,506.3,218.9,506.3,218.9,506.4L218.9,506.4z"/>
					</g>
				</g>
			</g>
			<g>
				<g>
					
						<ellipse transform="matrix(0.89 -0.456 0.456 0.89 -186.6606 144.6366)" fill="#97BCC1" cx="206.4" cy="459.2" rx="6.3" ry="5.2"/>
					
						<ellipse transform="matrix(0.89 -0.456 0.456 0.89 -186.6606 144.6366)" opacity="0.1" fill="#FFFFFF" cx="206.4" cy="459.2" rx="5.1" ry="4.2"/>
					<g>
						<path fill="#97BCC1" d="M236.9,460.8c0,0-0.6-0.6-1.7-1.6c-0.5-0.5-1.2-1.1-2-1.8c-0.4-0.3-0.8-0.7-1.3-1.1
							c-0.5-0.4-1-0.7-1.5-1.1c-1-0.8-2.2-1.6-3.4-2.4c-1.3-0.8-2.6-1.6-4-2.3c-1.4-0.7-2.9-1.4-4.5-1.9c-1.6-0.5-3.2-1-4.9-1.1
							c-0.8-0.1-1.7-0.1-2.5-0.1c-0.8,0.1-1.7,0.1-2.5,0.2c-1.6,0.3-3.1,0.8-4.5,1.6c-1.3,0.8-2.4,1.8-3.2,3
							c-0.8,1.2-1.3,2.4-1.4,3.6c-0.2,1.2-0.1,2.4,0.2,3.3c0.3,1,0.6,1.8,1,2.4c0.2,0.3,0.4,0.6,0.5,0.8c0.2,0.2,0.3,0.4,0.5,0.6
							c0.2,0.3,0.4,0.5,0.4,0.5l-0.1,0.1c0,0-0.2-0.2-0.4-0.4c-0.1-0.1-0.3-0.3-0.5-0.5c-0.2-0.2-0.4-0.5-0.6-0.8
							c-0.2-0.3-0.4-0.7-0.7-1.1c-0.2-0.4-0.4-0.9-0.6-1.4c-0.3-1-0.5-2.3-0.4-3.6c0.1-1.3,0.6-2.8,1.4-4.1c0.8-1.3,2-2.5,3.5-3.3
							c1.5-0.9,3.1-1.4,4.8-1.7c0.9-0.1,1.7-0.2,2.6-0.2c0.9,0.1,1.8,0.1,2.6,0.2c1.7,0.2,3.4,0.7,5,1.3c1.6,0.6,3.1,1.3,4.6,2.1
							c1.4,0.8,2.7,1.6,4,2.4c1.2,0.9,2.3,1.7,3.3,2.5c0.5,0.4,1,0.8,1.4,1.2c0.4,0.4,0.9,0.8,1.2,1.1c0.8,0.7,1.5,1.3,2,1.9
							C236.4,460.1,237,460.7,236.9,460.8L236.9,460.8z"/>
					</g>
				</g>
				<g>
					
						<ellipse transform="matrix(-0.456 0.89 -0.89 -0.456 725.612 416.916)" fill="#97BCC1" cx="235.4" cy="430.2" rx="6.3" ry="5.2"/>
					
						<ellipse transform="matrix(-0.456 0.89 -0.89 -0.456 725.612 416.916)" opacity="0.1" fill="#FFFFFF" cx="235.4" cy="430.2" rx="5.1" ry="4.2"/>
					<g>
						<path fill="#97BCC1" d="M236.9,460.8c0,0-0.6-0.6-1.7-1.7c-0.5-0.5-1.2-1.2-1.9-2c-0.4-0.4-0.7-0.8-1.1-1.2
							c-0.4-0.5-0.8-0.9-1.2-1.4c-0.8-1-1.6-2.1-2.5-3.3c-0.8-1.2-1.7-2.6-2.4-4c-0.8-1.4-1.5-3-2.1-4.6c-0.6-1.6-1.1-3.3-1.3-5
							c-0.2-0.9-0.2-1.7-0.2-2.6c0-0.9,0-1.8,0.2-2.6c0.2-1.7,0.8-3.4,1.7-4.8c0.9-1.4,2-2.7,3.3-3.5c1.3-0.8,2.7-1.3,4.1-1.4
							c1.3-0.1,2.6,0.1,3.6,0.4c0.5,0.2,1,0.4,1.4,0.6c0.4,0.2,0.8,0.4,1.1,0.7c0.3,0.2,0.6,0.4,0.8,0.6c0.2,0.2,0.4,0.4,0.5,0.5
							c0.3,0.3,0.4,0.4,0.4,0.4l-0.1,0.1c0,0-0.2-0.1-0.5-0.4c-0.2-0.1-0.3-0.3-0.6-0.5c-0.2-0.2-0.5-0.3-0.8-0.5
							c-0.6-0.4-1.5-0.7-2.4-1c-1-0.2-2.1-0.3-3.3-0.2c-1.2,0.2-2.5,0.6-3.6,1.4c-1.1,0.8-2.2,1.9-3,3.2c-0.8,1.3-1.3,2.8-1.6,4.5
							c-0.2,0.8-0.2,1.6-0.2,2.5c0,0.8,0,1.7,0.1,2.5c0.2,1.7,0.6,3.3,1.1,4.9c0.6,1.6,1.2,3.1,1.9,4.5c0.7,1.4,1.5,2.7,2.3,4
							c0.8,1.2,1.6,2.4,2.4,3.4c0.4,0.5,0.8,1,1.1,1.5c0.4,0.4,0.7,0.9,1.1,1.3c0.7,0.8,1.3,1.5,1.8,2
							C236.4,460.1,237,460.7,236.9,460.8L236.9,460.8z"/>
					</g>
				</g>
			</g>
		</g>
		<g>
			<g>
				<path fill="#4F3627" d="M282.7,491.3c0,0,0,0.1,0.1,0.2c0.1,0.1,0.2,0.2,0.3,0.4c0.3,0.3,0.6,0.8,1.1,1.3c0.5,0.5,1,1,1.6,1.4
					c0.6,0.4,1.1,0.5,1.6,0.7c0.1,0,0.3,0.1,0.4,0.1l0.1,0l0,0l0,0l0,0c0,0-0.2,0-0.1,0l0.3,0l0.4,0c0.1,0,0.3,0,0.4,0
					c0.1,0,0.3,0,0.4-0.1c0.3,0,0.6-0.2,1-0.7c0.4-0.5,0.6-1.2,0.6-1.9c0-0.1,0-0.2,0-0.3l-0.1-0.3c0-0.1-0.1-0.3-0.1-0.5
					c-0.1-0.3-0.3-0.7-0.5-1c-0.4-0.7-0.9-1.3-1.4-1.9c-1.1-1.2-2.6-2-4-2.5c-1.4-0.5-2.7-0.7-3.8-0.6c-1.1,0.1-2.2,0.5-3.1,1.3
					c-0.9,0.8-1.6,1.8-2.1,2.9c-0.4,1.1-0.6,2.2-0.6,3.3c0,1,0.3,2.1,0.5,3.1c0.3,1,0.6,1.8,0.9,2.5c0.6,1.3,1,2.1,1,2.1
					c0.1,0.1,0,0.3-0.1,0.3c-0.1,0-0.2,0-0.3,0l0,0c0,0-0.2-0.1-0.5-0.4c-0.3-0.3-0.8-0.7-1.3-1.3c-0.5-0.6-1.1-1.3-1.7-2.3
					c-0.6-1-1.2-2.1-1.6-3.6c-0.3-1.4-0.4-3.1,0-4.9c0.4-1.7,1.3-3.5,2.8-4.9c1.4-1.4,3.5-2.5,5.8-2.6c2.3-0.1,4.4,0.8,5.8,2.2
					c1.5,1.3,2.6,2.9,3.6,4.3c1,1.5,1.9,2.9,2.5,4.7c0.3,0.8,0.6,1.7,0.7,2.8c0.1,1-0.2,2.3-1,3.3c-0.4,0.5-0.9,0.9-1.4,1.1
					c-0.5,0.3-1,0.5-1.6,0.6c-0.2,0.1-0.4,0.1-0.6,0.2l-0.2,0.1l-0.5,0.1c-0.5,0-1,0-1.5-0.1c-1-0.2-1.9-0.6-2.6-1.2
					c-0.7-0.6-1.2-1.2-1.5-1.9c-0.7-1.3-0.8-2.5-0.8-3.4c0-0.9,0.3-1.6,0.5-2.1c0.2-0.5,0.4-0.7,0.4-0.7c-0.1-0.1-0.1-0.2,0-0.3
					c0.1-0.1,0.2-0.1,0.3,0c0,0,0,0,0.1,0.1L282.7,491.3z"/>
			</g>
			<g>
				<path fill="#4F3627" d="M295.8,511.7c0,0-0.1,0-0.2,0c-0.1,0-0.3,0-0.5,0.1c-0.4,0.1-1,0.1-1.7,0.3c-0.7,0.1-1.4,0.4-2,0.7
					c-0.6,0.3-1,0.7-1.4,1c-0.1,0.1-0.2,0.2-0.3,0.3l0,0l0,0l0,0l0,0c0,0,0.1-0.2,0-0.1l-0.1,0.2l-0.2,0.3c-0.1,0.1-0.2,0.2-0.2,0.4
					c-0.1,0.1-0.1,0.2-0.1,0.4c-0.1,0.2-0.1,0.7,0.1,1.2c0.2,0.5,0.7,1.1,1.4,1.4c0.1,0,0.2,0.1,0.2,0.1l0.3,0.1
					c0.1,0,0.3,0.1,0.5,0.1c0.4,0.1,0.7,0.1,1.1,0.1c0.8,0,1.6-0.1,2.4-0.3c1.6-0.4,3-1.3,4.1-2.2c1.1-1,1.9-2,2.5-3
					c0.5-0.9,0.6-2.1,0.4-3.3c-0.2-1.2-0.7-2.3-1.5-3.2c-0.7-0.9-1.6-1.7-2.6-2.2c-0.9-0.5-2-0.8-2.9-1.1c-1-0.2-1.8-0.3-2.6-0.4
					c-1.5-0.2-2.3-0.2-2.3-0.2c-0.1,0-0.3-0.1-0.3-0.3c0-0.1,0.1-0.2,0.1-0.2l0,0c0,0,0.2-0.1,0.6-0.2c0.4-0.1,1-0.3,1.8-0.5
					c0.8-0.2,1.7-0.3,2.8-0.4c1.1-0.1,2.4,0,3.9,0.4c1.4,0.4,2.9,1.2,4.2,2.4c1.3,1.2,2.4,2.9,2.9,4.8c0.5,1.9,0.4,4.3-0.6,6.3
					c-1,2-2.9,3.4-4.8,4c-1.9,0.7-3.8,0.8-5.5,0.9c-1.8,0.1-3.5,0.2-5.3-0.2c-0.9-0.2-1.8-0.3-2.8-0.8c-0.9-0.5-1.9-1.3-2.3-2.5
					c-0.2-0.6-0.3-1.2-0.3-1.8c0-0.6,0.1-1.1,0.2-1.7c0.1-0.2,0.1-0.4,0.2-0.6l0.1-0.2l0.2-0.5c0.2-0.5,0.5-0.9,0.8-1.3
					c0.6-0.8,1.5-1.4,2.4-1.7c0.8-0.3,1.7-0.4,2.4-0.4c1.4,0,2.5,0.5,3.3,1c0.8,0.5,1.3,1,1.6,1.5c0.3,0.4,0.4,0.7,0.4,0.7
					c0.1,0,0.2,0,0.3,0.1s0,0.2-0.1,0.3c0,0,0,0-0.1,0L295.8,511.7z"/>
			</g>
			<g>
				<path fill="#4F3627" d="M271.5,512.8c0,0,0-0.1,0.1-0.2c0.1-0.1,0.1-0.3,0.2-0.5c0.2-0.4,0.4-1,0.6-1.6c0.2-0.6,0.4-1.4,0.4-2.1
					c0-0.7-0.1-1.2-0.2-1.7c0-0.1,0-0.3-0.1-0.4l0-0.1l0,0l0,0l0,0c0,0,0.1,0.2,0.1,0.1l-0.1-0.2l-0.2-0.3c0-0.1-0.1-0.3-0.2-0.4
					c-0.1-0.1-0.2-0.2-0.3-0.3c-0.2-0.2-0.5-0.4-1.1-0.5c-0.6-0.1-1.3,0.1-1.9,0.5c-0.1,0-0.2,0.1-0.2,0.1l-0.2,0.2
					c-0.1,0.1-0.2,0.2-0.4,0.4c-0.2,0.3-0.5,0.6-0.7,0.9c-0.4,0.7-0.7,1.4-0.9,2.2c-0.4,1.5-0.4,3.2-0.1,4.7
					c0.3,1.5,0.8,2.7,1.4,3.6c0.6,0.9,1.5,1.6,2.6,2c1.1,0.4,2.4,0.5,3.5,0.3c1.2-0.2,2.3-0.6,3.2-1.1c0.9-0.5,1.7-1.3,2.4-2
					c0.7-0.7,1.2-1.4,1.7-2c0.9-1.2,1.3-1.9,1.3-1.9c0.1-0.1,0.2-0.2,0.3-0.1c0.1,0.1,0.1,0.1,0.1,0.2l0,0c0,0,0,0.2-0.1,0.6
					c-0.1,0.4-0.2,1-0.5,1.8c-0.2,0.7-0.6,1.6-1.1,2.6c-0.5,1-1.2,2.1-2.3,3.1c-1.1,1-2.5,1.9-4.2,2.4c-1.7,0.5-3.7,0.6-5.6,0.1
					c-1.9-0.5-3.9-1.7-5.2-3.7c-1.3-1.9-1.4-4.2-1.1-6.1c0.4-2,1.2-3.7,2-5.2c0.8-1.6,1.5-3.1,2.8-4.5c0.6-0.7,1.2-1.4,2.1-2
					c0.9-0.6,2.1-1,3.3-0.7c0.6,0.1,1.2,0.3,1.7,0.6c0.5,0.3,0.9,0.6,1.3,1.1l0.4,0.5l0.2,0.2l0.3,0.4c0.3,0.4,0.5,0.9,0.7,1.4
					c0.4,1,0.4,2,0.3,2.9c-0.1,0.9-0.5,1.6-0.8,2.3c-0.8,1.2-1.7,2-2.5,2.4c-0.8,0.4-1.6,0.6-2.1,0.6c-0.5,0.1-0.8,0-0.8,0
					c0,0.1-0.1,0.2-0.2,0.2c-0.1,0-0.2-0.1-0.2-0.2c0,0,0,0,0-0.1L271.5,512.8z"/>
			</g>
		</g>
	</g>
</g>
</svg>
