<?xml version="1.0" encoding="utf-8"?>
<!-- Generator: Adobe Illustrator 18.1.1, SVG Export Plug-In . SVG Version: 6.00 Build 0)  -->
<svg version="1.1" id="Layer_1" xmlns="http://www.w3.org/2000/svg" xmlns:xlink="http://www.w3.org/1999/xlink" x="0px" y="0px"
	 viewBox="-12 129 640 542.6" enable-background="new -12 129 640 542.6" xml:space="preserve">
<g id="Logo">
	<g id="Logotext">
		
			<text transform="matrix(1 0 0 1 2.8804 652.3555)" fill="#FFFFFF" font-family="'PoiretOne-Regular'" font-size="44.3307" letter-spacing="-1">Graphic Designer | Web Developer</text>
		<g id="JS">
			
				<text transform="matrix(1 0 0 1 384.9232 376.2305)" fill="#FFFFFF" font-family="'PoiretOne-Regular'" font-size="76.1385" letter-spacing="-3">Slavuter</text>
			
				<text transform="matrix(1 0 0 1 1.344079e-05 376.1995)" fill="#FFFFFF" font-family="'PoiretOne-Regular'" font-size="76.1385" letter-spacing="-3">Jonathan     </text>
		</g>
	</g>
	<g id="Logogram">
		<g id="Logo_1_">
			<g id="Blank_1_">
				<path fill="#D3D3D3" stroke="#FFFFFF" stroke-miterlimit="10" d="M305.3,364.2l-11.9,11.9l-11.9,11.9l-11.9,11.9l-5.9,5.9
					c-2,2-3.9,4.1-5.7,6.2c-3.7,4.5-6.9,9.2-9.7,14.1c-3,5.3-5.4,10.9-7.2,16.6c-1.4,4.3-2.5,8.6-3.2,13c-0.4,2.2-0.7,4.5-0.9,6.7
					c-0.6,5.9-0.6,11.8,0,17.6c0.2,2.4,0.6,4.7,1,7.1c0.8,4.2,1.8,8.5,3.1,12.6c1.8,5.7,4.2,11.2,7.2,16.6c2.7,4.9,6,9.7,9.7,14.1
					c5.9-5.9,15.1-6.4,21.6-1.6c-1.4-1.2-2.8-2.5-4.1-3.8c-1.3-1.3-2.6-2.7-3.8-4.2c-0.7-0.8-1.3-1.5-1.9-2.3
					c-3.6-4.6-6.7-9.5-9.1-14.6c-2.7-5.7-4.7-11.8-5.9-17.9c-0.4-2.3-0.8-4.6-1-6.9c-0.6-5.3-0.5-10.7,0.1-16c0.2-2.2,0.6-4.5,1-6.6
					c1.2-6.1,3.2-12.1,6-17.8c2.5-5.1,5.5-10,9.2-14.6l0,0c1.7-2.1,3.5-4.5,5.5-6.4l5.9-5.9l11.9-11.9l11.9-11.9l11.9-11.9
					l11.9-11.9l-11.9-11.9L305.3,364.2z"/>
				<path fill="#D3D3D3" stroke="#FFFFFF" stroke-miterlimit="10" d="M378.4,176c1.5,1.3,2.9,2.5,4.3,3.9c2,2,3.8,4,5.5,6.2
					c3.7,4.6,6.7,9.5,9.2,14.6c2.7,5.7,4.7,11.7,5.9,17.8c0.4,2.3,0.8,4.6,1,6.8c0.6,5.3,0.6,10.6,0,15.9c-0.2,2.3-0.6,4.6-1,6.8
					c-1.2,6.1-3.2,12.1-5.9,17.8c-2.5,5.1-5.5,10-9.2,14.6l0,0c-1.7,2.1-3.6,4.2-5.5,6.2l-6,6l-11.9,11.9l0,0l-11.9,11.9l0,0
					L341,328.6l-11.8,11.7l11.9,11.9l11.7-11.7l11.9-11.9l11.9-11.9l11.9-11.9l5.9-5.9c2-2,4-3.9,5.8-6.1c3.7-4.4,6.9-9.1,9.7-14.1
					c0,0,0,0,0,0c3-5.3,5.4-10.9,7.2-16.6c1.4-4.3,2.5-8.6,3.2-13c0.4-2.2,0.7-4.5,0.9-6.7c0.6-6,0.6-12,0-18
					c-0.2-2.3-0.6-4.6-0.9-6.8c-0.8-4.4-1.8-8.6-3.2-12.8c-1.9-5.7-4.3-11.2-7.2-16.5c-2.8-4.9-6-9.6-9.7-14
					C394.1,180.3,384.9,180.7,378.4,176z"/>
			</g>
			<path id="S_1_" fill="#25BA6C" stroke="#FFFFFF" stroke-miterlimit="10" d="M394.6,168.1c-2.1-2.1-4.2-4-6.4-5.8
				c-4.4-3.7-9.1-6.8-13.9-9.6c-5.4-3-11-5.5-16.8-7.3c-4.1-1.3-8.2-2.3-12.3-3c-2.5-0.4-4.9-0.8-7.4-1c-5.8-0.5-11.6-0.5-17.4,0
				c-2.5,0.2-5,0.6-7.5,1c-4.1,0.8-8.2,1.7-12.2,3c-5.7,1.9-11.2,4.2-16.6,7.2c-4.9,2.8-9.7,6-14.1,9.7c-2.1,1.8-4.2,3.6-6.2,5.7
				c-2,2-3.9,4.1-5.7,6.3c-3.7,4.4-6.9,9.2-9.7,14.1l0,0c-3,5.3-5.4,10.9-7.2,16.6l0,0c-1.3,4-2.3,8.1-3,12.2c-0.4,2.5-0.8,5-1,7.5
				c-0.6,5.8-0.6,11.6,0,17.4c0.2,2.5,0.6,4.9,1,7.4c0.7,4.2,1.7,8.3,3,12.3c1.9,5.8,4.3,11.4,7.3,16.8c2.7,4.9,5.9,9.5,9.5,13.9
				c6.5-6.5,17.1-6.4,23.7,0.1l-5.9-5.9c-2.1-2-3.9-4.2-5.7-6.4c-3.6-4.5-6.6-9.4-9.1-14.4c-2.8-5.8-4.8-11.9-6-18.1
				c-0.4-2.1-0.7-4.2-0.9-6.2c-0.6-5.5-0.6-11.1,0-16.7c0.2-2.1,0.5-4.2,0.9-6.2l0,0c1.2-6.1,3.2-12.1,5.9-17.9l0,0
				c2.5-5.1,5.5-10,9.1-14.6c1.7-2.2,3.6-4.4,5.7-6.4c2-2,4.1-3.8,6.2-5.5c4.6-3.7,9.5-6.7,14.6-9.2c5.7-2.7,11.7-4.7,17.8-5.9
				c2.1-0.4,4.3-0.8,6.5-1c5.4-0.6,10.9-0.6,16.3,0c2.2,0.2,4.4,0.6,6.6,1c6.2,1.2,12.3,3.2,18.1,6c5.1,2.4,9.9,5.4,14.4,9.1
				c0.7,0.6,1.4,1.1,2.1,1.7c6.6,4.7,15.7,4.3,21.8-1.8C398.4,172.1,396.6,170.1,394.6,168.1C394.7,168.1,394.7,168.1,394.6,168.1
				L394.6,168.1z"/>
			<path id="J_1_" stroke="#FFFFFF" stroke-miterlimit="10" d="M317.4,328.3l-11.9-11.9l-11.9-11.9l-11.9-11.9
				c-6.6-6.6-17.2-6.6-23.7-0.1c1.8,2.2,3.8,4.4,5.8,6.4l5.8,5.8l11.9,11.9l11.9,11.9l11.9,11.9l11.9,11.9l11.9,11.9l11.9,11.9
				l11.9,11.9l11.9,11.9l11.9,11.9l5.9,5.9c1.9,1.9,3.8,4.3,5.5,6.4c3.7,4.6,6.7,9.5,9.2,14.6c2.8,5.7,4.7,11.7,6,17.8
				c0.4,2.2,0.8,4.4,1,6.7c0.6,5.3,0.6,10.7,0.1,16c-0.2,2.3-0.6,4.6-1,6.9c-1.2,6.1-3.2,12.1-5.9,17.9c-2.4,5.1-5.5,10-9.1,14.6
				c-1.8,2.2-3.7,4.4-5.7,6.4c-1.9,1.9-4,3.8-6.1,5.5c-4.6,3.7-9.5,6.7-14.6,9.2c-5.7,2.7-11.7,4.7-17.8,6c-2.5,0.5-4.9,0.9-7.4,1.1
				c-5.1,0.5-10.2,0.5-15.3,0c-2.5-0.2-4.9-0.6-7.4-1.1c-6.1-1.2-12.1-3.2-17.8-6c-5.1-2.5-10-5.5-14.6-9.2
				c-0.7-0.5-1.3-1.1-1.9-1.7c0,0,0,0-0.1,0c-6.6-4.8-15.7-4.4-21.6,1.6c1.8,2.1,3.7,4.2,5.7,6.3c2,2,4.1,3.9,6.2,5.7
				c4.5,3.7,9.2,6.9,14.1,9.7c5.3,3,10.8,5.4,16.6,7.2c4.1,1.3,8.3,2.4,12.6,3.1c2.4,0.4,4.7,0.8,7.1,1c5.9,0.6,11.8,0.6,17.7,0
				c2.5-0.2,5-0.6,7.5-1.1c4.1-0.7,8.2-1.7,12.2-3c5.7-1.9,11.2-4.2,16.6-7.2c4.9-2.7,9.7-6,14.1-9.7c2.1-1.8,4.2-3.6,6.2-5.7
				c2-2,3.9-4.1,5.7-6.2c3.7-4.5,6.9-9.2,9.7-14.1c3-5.3,5.4-10.9,7.2-16.6c1.3-4,2.3-8.1,3-12.2c0.4-2.5,0.8-5,1-7.5
				c0.6-5.9,0.6-11.8,0-17.6c-0.2-2.4-0.6-4.7-1-7.1c-0.8-4.2-1.8-8.5-3.1-12.6c-1.9-5.7-4.2-11.2-7.2-16.6c-2.8-4.9-6-9.7-9.7-14.1
				c-1.8-2.1-3.6-4.2-5.7-6.2l-5.9-5.9l-11.9-11.9l-11.9-11.9l-11.9-11.9l-11.7-12.1l-11.9-11.9L317.4,328.3z"/>
		</g>
		<g id="Logo_2_" opacity="0.5">
			
				<linearGradient id="Blank_3_" gradientUnits="userSpaceOnUse" x1="831.8939" y1="-193.4999" x2="831.8939" y2="706.7" gradientTransform="matrix(0.3957 0 0 -0.3957 0 453.7855)">
				<stop  offset="0" style="stop-color:#000000"/>
				<stop  offset="1" style="stop-color:#FFFFFF"/>
			</linearGradient>
			<path id="Blank_2_" fill="url(#Blank_3_)" stroke="#FFFFFF" stroke-miterlimit="10" d="M317.2,352.3l11.9,11.9l-11.9,11.9
				L305.3,388l-11.9,11.9l-11.9,11.9l-5.9,5.9c-1.9,1.9-3.8,4.3-5.5,6.4l0,0c-3.7,4.6-6.7,9.5-9.2,14.6c-2.8,5.7-4.7,11.7-6,17.8
				c-0.4,2.2-0.8,4.4-1,6.6c-0.6,5.3-0.6,10.7-0.1,16c0.2,2.3,0.6,4.6,1,6.9c1.2,6.1,3.2,12.1,5.9,17.9c2.4,5.1,5.5,10,9.1,14.6
				c0.6,0.8,1.3,1.5,1.9,2.3c1.2,1.4,2.5,2.8,3.8,4.2c1.3,1.3,2.7,2.6,4.1,3.8c-6.6-4.8-15.7-4.4-21.6,1.6
				c-3.7-4.4-6.9-9.2-9.7-14.1c-3-5.3-5.4-10.9-7.2-16.6c-1.3-4.1-2.4-8.3-3.1-12.6c-0.4-2.4-0.8-4.7-1-7.1
				c-0.6-5.9-0.6-11.8,0-17.6c0.2-2.3,0.6-4.5,0.9-6.7c0.8-4.4,1.8-8.7,3.2-13c1.9-5.7,4.2-11.2,7.2-16.6c2.7-4.9,6-9.7,9.7-14.1
				c1.8-2.1,3.6-4.2,5.7-6.2l5.9-5.9l11.9-11.9l11.9-11.9l11.9-11.9L317.2,352.3z M378.4,176c1.5,1.3,2.9,2.5,4.3,3.9
				c2,2,3.8,4,5.5,6.2c3.7,4.6,6.7,9.5,9.2,14.6c2.7,5.7,4.7,11.7,5.9,17.8c0.4,2.3,0.8,4.6,1,6.8c0.6,5.3,0.6,10.6,0,15.9
				c-0.2,2.3-0.6,4.6-1,6.8c-1.2,6.1-3.2,12.1-5.9,17.8c-2.5,5.1-5.5,10-9.2,14.6l0,0c-1.7,2.1-3.6,4.2-5.5,6.2l-6,6l-11.9,11.9l0,0
				l-11.9,11.9l0,0L341,328.6l-11.8,11.7l11.9,11.9l11.7-11.7l11.9-11.9l11.9-11.9l11.9-11.9l5.9-5.9c2-2,4-3.9,5.8-6.1
				c3.7-4.4,6.9-9.1,9.7-14.1c0,0,0,0,0,0c3-5.3,5.4-10.9,7.2-16.6c1.4-4.3,2.5-8.6,3.2-13c0.4-2.2,0.7-4.5,0.9-6.7
				c0.6-6,0.6-12,0-18c-0.2-2.3-0.6-4.6-0.9-6.8c-0.8-4.4-1.8-8.6-3.2-12.8c-1.9-5.7-4.3-11.2-7.2-16.5c-2.8-4.9-6-9.6-9.7-14
				C394.1,180.3,384.9,180.7,378.4,176z"/>
			
				<linearGradient id="S_3_" gradientUnits="userSpaceOnUse" x1="805.0185" y1="407.3" x2="805.0185" y2="790.4628" gradientTransform="matrix(0.3957 0 0 -0.3957 0 453.7855)">
				<stop  offset="0" style="stop-color:#000000"/>
				<stop  offset="1" style="stop-color:#FFFFFF"/>
			</linearGradient>
			<path id="S_2_" fill="url(#S_3_)" stroke="#FFFFFF" stroke-miterlimit="10" d="M394.6,168.1c-2.1-2.1-4.2-4-6.4-5.8
				c-4.4-3.7-9.1-6.8-13.9-9.6c-5.4-3-11-5.5-16.8-7.3c-4.1-1.3-8.2-2.3-12.3-3c-2.5-0.4-4.9-0.8-7.4-1c-5.8-0.5-11.6-0.5-17.4,0
				c-2.5,0.2-5,0.6-7.5,1c-4.1,0.8-8.2,1.7-12.2,3c-5.7,1.9-11.2,4.2-16.6,7.2c-4.9,2.8-9.7,6-14.1,9.7c-2.1,1.8-4.2,3.6-6.2,5.7
				c-2,2-3.9,4.1-5.7,6.3c-3.7,4.4-6.9,9.2-9.7,14.1l0,0c-3,5.3-5.4,10.9-7.2,16.6l0,0c-1.3,4-2.3,8.1-3,12.2c-0.4,2.5-0.8,5-1,7.5
				c-0.6,5.8-0.6,11.6,0,17.4c0.2,2.5,0.6,4.9,1,7.4c0.7,4.2,1.7,8.3,3,12.3c1.9,5.8,4.3,11.4,7.3,16.8c2.7,4.9,5.9,9.5,9.5,13.9
				c6.5-6.5,17.1-6.4,23.7,0.1l-5.9-5.9c-2.1-2-3.9-4.2-5.7-6.4c-3.6-4.5-6.6-9.4-9.1-14.4c-2.8-5.8-4.8-11.9-6-18.1
				c-0.4-2.1-0.7-4.2-0.9-6.2c-0.6-5.5-0.6-11.1,0-16.7c0.2-2.1,0.5-4.2,0.9-6.2l0,0c1.2-6.1,3.2-12.1,5.9-17.9l0,0
				c2.5-5.1,5.5-10,9.1-14.6c1.7-2.2,3.6-4.4,5.7-6.4c2-2,4.1-3.8,6.2-5.5c4.6-3.7,9.5-6.7,14.6-9.2c5.7-2.7,11.7-4.7,17.8-5.9
				c2.1-0.4,4.3-0.8,6.5-1c5.4-0.6,10.9-0.6,16.3,0c2.2,0.2,4.4,0.6,6.6,1c6.2,1.2,12.3,3.2,18.1,6c5.1,2.4,9.9,5.4,14.4,9.1
				c0.7,0.6,1.4,1.1,2.1,1.7c6.6,4.7,15.7,4.3,21.8-1.8C398.4,172.1,396.6,170.1,394.6,168.1C394.7,168.1,394.7,168.1,394.6,168.1
				L394.6,168.1z"/>
			
				<linearGradient id="J_3_" gradientUnits="userSpaceOnUse" x1="858.8248" y1="-278.0501" x2="858.8248" y2="419.8632" gradientTransform="matrix(0.3957 0 0 -0.3957 0 453.7855)">
				<stop  offset="0" style="stop-color:#000000"/>
				<stop  offset="1" style="stop-color:#FFFFFF"/>
			</linearGradient>
			<path id="J_2_" fill="url(#J_3_)" stroke="#FFFFFF" stroke-miterlimit="10" d="M317.4,328.3l-11.9-11.9l-11.9-11.9l-11.9-11.9
				c-6.6-6.6-17.2-6.6-23.7-0.1c1.8,2.2,3.8,4.4,5.8,6.4l5.8,5.8l11.9,11.9l11.9,11.9l11.9,11.9l11.9,11.9l11.9,11.9l11.9,11.9
				l11.9,11.9l11.9,11.9l11.9,11.9l5.9,5.9c1.9,1.9,3.8,4.3,5.5,6.4c3.7,4.6,6.7,9.5,9.2,14.6c2.8,5.7,4.7,11.7,6,17.8
				c0.4,2.2,0.8,4.4,1,6.7c0.6,5.3,0.6,10.7,0.1,16c-0.2,2.3-0.6,4.6-1,6.9c-1.2,6.1-3.2,12.1-5.9,17.9c-2.4,5.1-5.5,10-9.1,14.6
				c-1.8,2.2-3.7,4.4-5.7,6.4c-1.9,1.9-4,3.8-6.1,5.5c-4.6,3.7-9.5,6.7-14.6,9.2c-5.7,2.7-11.7,4.7-17.8,6c-2.5,0.5-4.9,0.9-7.4,1.1
				c-5.1,0.5-10.2,0.5-15.3,0c-2.5-0.2-4.9-0.6-7.4-1.1c-6.1-1.2-12.1-3.2-17.8-6c-5.1-2.5-10-5.5-14.6-9.2
				c-0.7-0.5-1.3-1.1-1.9-1.7c0,0,0,0-0.1,0c-6.6-4.8-15.7-4.4-21.6,1.6c1.8,2.1,3.7,4.2,5.7,6.3c2,2,4.1,3.9,6.2,5.7
				c4.5,3.7,9.2,6.9,14.1,9.7c5.3,3,10.8,5.4,16.6,7.2c4.1,1.3,8.3,2.4,12.6,3.1c2.4,0.4,4.7,0.8,7.1,1c5.9,0.6,11.8,0.6,17.7,0
				c2.5-0.2,5-0.6,7.5-1.1c4.1-0.7,8.2-1.7,12.2-3c5.7-1.9,11.2-4.2,16.6-7.2c4.9-2.7,9.7-6,14.1-9.7c2.1-1.8,4.2-3.6,6.2-5.7
				c2-2,3.9-4.1,5.7-6.2c3.7-4.5,6.9-9.2,9.7-14.1c3-5.3,5.4-10.9,7.2-16.6c1.3-4,2.3-8.1,3-12.2c0.4-2.5,0.8-5,1-7.5
				c0.6-5.9,0.6-11.8,0-17.6c-0.2-2.4-0.6-4.7-1-7.1c-0.8-4.2-1.8-8.5-3.1-12.6c-1.9-5.7-4.2-11.2-7.2-16.6c-2.8-4.9-6-9.7-9.7-14.1
				c-1.8-2.1-3.6-4.2-5.7-6.2l-5.9-5.9l-11.9-11.9l-11.9-11.9l-11.9-11.9l-11.7-12.1l-11.9-11.9L317.4,328.3z"/>
		</g>
	</g>
</g>
</svg>
