<?xml version="1.0" encoding="UTF-8" standalone="no"?>
<svg width="518px" height="128px" viewBox="0 0 518 128" version="1.1" xmlns="http://www.w3.org/2000/svg" xmlns:xlink="http://www.w3.org/1999/xlink">
    <!-- Generator: Sketch 50.2 (55047) - http://www.bohemiancoding.com/sketch -->
    <title>js-logo</title>
    <desc>Created with Sketch.</desc>
    <defs>
        <path d="M83.124,89.856 L86.508,89.856 L86.508,105.876 C86.508,110.304 87.84,114.408 93.06,114.408 C98.28,114.408 99.612,110.304 99.612,105.876 L99.612,89.856 L102.996,89.856 L102.996,107.028 C102.996,113.004 99.288,117.576 93.06,117.576 C86.832,117.576 83.124,113.004 83.124,107.028 L83.124,89.856 Z M113.616,102.78 L106.128,89.856 L109.98,89.856 L115.524,99.756 L121.428,89.856 L125.28,89.856 L117.468,102.78 L125.712,117 L121.932,117 L115.524,105.876 L108.864,117 L105.084,117 L113.616,102.78 Z M146.484,103.608 L146.16,103.824 C144.288,105.12 141.228,106.956 141.228,109.548 C141.228,112.14 143.676,114.552 146.268,114.552 C148.788,114.552 150.804,112.644 152.496,110.952 L146.484,103.608 Z M147.204,99.36 L147.636,99.072 C149.004,97.992 150.876,96.876 150.876,94.896 C150.876,92.988 149.508,91.944 147.708,91.944 C146.088,91.944 144.684,93.096 144.684,94.824 C144.684,96.192 145.512,97.2 146.304,98.208 L147.204,99.36 Z M157.464,117 L154.512,113.328 C152.46,115.74 149.58,117.576 146.376,117.576 C141.84,117.576 138.06,114.264 138.06,109.584 C138.06,106.128 140.22,104.256 142.812,102.384 L144.504,101.16 C142.956,99.54 141.516,97.524 141.516,95.22 C141.516,91.476 144.216,89.28 147.78,89.28 C151.092,89.28 154.044,91.368 154.044,94.932 C154.044,97.992 151.38,100.044 149.112,101.7 L154.764,108.54 L157.932,104.868 L160.092,107.1 L156.78,110.988 L161.64,117 L157.464,117 Z M177.444,105.624 L177.444,117 L174.06,117 L174.06,89.856 L177.948,89.856 C186.3,89.856 188.892,92.736 188.892,97.704 C188.892,103.428 184.536,105.624 179.388,105.624 L177.444,105.624 Z M177.444,92.88 L177.444,102.6 L178.524,102.6 C181.98,102.6 185.724,101.952 185.724,97.632 C185.724,93.384 181.692,92.88 178.344,92.88 L177.444,92.88 Z M194.976,100.152 L194.976,102.888 L195.084,102.888 C195.876,100.908 197.532,99.648 199.692,99.648 C200.628,99.648 201.564,99.972 202.356,100.476 L200.88,103.428 C200.304,102.924 199.656,102.744 198.9,102.744 C195.408,102.744 194.976,105.984 194.976,108.72 L194.976,117 L191.736,117 L191.736,100.152 L194.976,100.152 Z M211.644,99.648 C216.684,99.648 220.644,103.536 220.644,108.612 C220.644,113.688 216.684,117.576 211.644,117.576 C206.604,117.576 202.644,113.688 202.644,108.612 C202.644,103.536 206.604,99.648 211.644,99.648 Z M211.644,102.744 C208.44,102.744 205.884,105.408 205.884,108.612 C205.884,111.78 208.44,114.48 211.644,114.48 C214.848,114.48 217.404,111.78 217.404,108.612 C217.404,105.408 214.848,102.744 211.644,102.744 Z M230.868,114.696 C234.396,114.696 236.34,111.888 236.34,108.576 C236.34,105.3 234.36,102.528 230.868,102.528 C227.52,102.528 225.54,105.444 225.54,108.576 C225.54,111.744 227.448,114.696 230.868,114.696 Z M236.16,117 L236.16,114.372 L236.088,114.372 C234.792,116.28 232.74,117.576 230.364,117.576 C225.18,117.576 222.3,113.292 222.3,108.468 C222.3,103.86 225.36,99.648 230.22,99.648 C232.74,99.648 234.756,100.944 236.088,102.96 L236.16,102.96 L236.16,85.752 L239.4,85.752 L239.4,117 L236.16,117 Z M243.468,100.152 L246.708,100.152 L246.708,109.476 C246.708,112.176 247.392,114.552 250.596,114.552 C253.8,114.552 254.484,112.176 254.484,109.476 L254.484,100.152 L257.724,100.152 L257.724,109.836 C257.724,114.444 255.564,117.576 250.596,117.576 C245.628,117.576 243.468,114.444 243.468,109.836 L243.468,100.152 Z M274.428,100.764 L274.428,104.94 C273.132,103.464 271.548,102.672 269.604,102.672 C266.436,102.672 263.988,105.48 263.988,108.576 C263.988,112.032 266.4,114.552 269.82,114.552 C271.692,114.552 273.204,113.688 274.428,112.32 L274.428,116.46 C272.952,117.252 271.476,117.576 269.784,117.576 C264.816,117.576 260.748,113.76 260.748,108.72 C260.748,103.5 264.78,99.648 269.964,99.648 C271.476,99.648 273.132,100.008 274.428,100.764 Z M281.628,103.176 L281.628,117 L278.388,117 L278.388,103.176 L276.624,103.176 L276.624,100.152 L278.388,100.152 L278.388,93.708 L281.628,93.708 L281.628,100.152 L284.796,100.152 L284.796,103.176 L281.628,103.176 Z M297.036,117 L297.036,89.856 L302.652,89.856 C310.968,89.856 317.88,94.248 317.88,103.284 C317.88,112.536 311.112,117 302.544,117 L297.036,117 Z M300.42,92.952 L300.42,113.904 L301.608,113.904 C308.52,113.904 314.496,111.312 314.496,103.428 C314.496,95.508 308.52,92.952 301.608,92.952 L300.42,92.952 Z M335.7,109.116 L322.848,109.116 C322.884,111.996 324.828,114.696 327.924,114.696 C330.408,114.696 331.74,113.436 332.964,111.42 L335.7,112.968 C334.116,115.884 331.164,117.576 327.888,117.576 C322.74,117.576 319.608,113.688 319.608,108.72 C319.608,103.536 322.38,99.648 327.816,99.648 C333.18,99.648 335.7,103.608 335.7,108.612 L335.7,109.116 Z M323.028,106.668 L332.46,106.668 C332.064,104.148 330.408,102.456 327.816,102.456 C325.296,102.456 323.424,104.256 323.028,106.668 Z M347.868,102.6 L345.24,104.004 C344.844,103.176 344.016,102.528 343.08,102.528 C342.18,102.528 341.316,103.248 341.316,104.184 C341.316,105.66 343.26,106.308 345.24,107.208 C347.22,108.108 349.128,109.332 349.128,111.996 C349.128,115.2 346.464,117.576 343.332,117.576 C340.884,117.576 338.4,116.172 337.5,113.796 L340.272,112.536 C340.956,113.796 341.784,114.696 343.332,114.696 C344.7,114.696 345.888,113.76 345.888,112.32 C345.888,111.42 345.456,110.988 344.7,110.484 L341.532,108.792 C339.66,107.784 338.292,106.848 338.292,104.544 C338.292,101.808 340.524,99.648 343.26,99.648 C345.312,99.648 346.968,100.764 347.868,102.6 Z M356.256,100.152 L356.256,117 L353.016,117 L353.016,100.152 L356.256,100.152 Z M354.636,90.18 C355.86,90.18 356.868,91.188 356.868,92.448 C356.868,93.672 355.86,94.644 354.636,94.644 C353.412,94.644 352.404,93.672 352.404,92.448 C352.404,91.188 353.412,90.18 354.636,90.18 Z M368.676,114.696 C372.204,114.696 374.148,111.888 374.148,108.576 C374.148,105.3 372.168,102.528 368.676,102.528 C365.328,102.528 363.348,105.444 363.348,108.576 C363.348,111.744 365.256,114.696 368.676,114.696 Z M377.208,100.152 L377.208,116.676 C377.208,122.472 375.552,126.648 369,126.648 C364.32,126.648 360.936,123.768 360.864,119.016 L364.104,119.016 C364.104,122.04 366.192,123.768 369.144,123.768 C373.14,123.768 373.968,121.032 373.968,117.576 L373.968,114.372 L373.896,114.372 C372.6,116.28 370.548,117.576 368.172,117.576 C362.988,117.576 360.108,113.292 360.108,108.468 C360.108,103.86 363.168,99.648 368.028,99.648 C370.548,99.648 372.564,100.944 373.896,103.032 L373.968,103.032 L373.968,100.152 L377.208,100.152 Z M384.66,100.152 L384.66,102.42 L384.732,102.42 C385.74,100.62 387.756,99.648 389.808,99.648 C394.56,99.648 395.784,102.852 395.784,106.956 L395.784,117 L392.544,117 L392.544,107.352 C392.544,104.472 392.148,102.528 388.836,102.528 C384.66,102.528 384.66,106.2 384.66,109.26 L384.66,117 L381.42,117 L381.42,100.152 L384.66,100.152 Z M415.044,109.116 L402.192,109.116 C402.228,111.996 404.172,114.696 407.268,114.696 C409.752,114.696 411.084,113.436 412.308,111.42 L415.044,112.968 C413.46,115.884 410.508,117.576 407.232,117.576 C402.084,117.576 398.952,113.688 398.952,108.72 C398.952,103.536 401.724,99.648 407.16,99.648 C412.524,99.648 415.044,103.608 415.044,108.612 L415.044,109.116 Z M402.372,106.668 L411.804,106.668 C411.408,104.148 409.752,102.456 407.16,102.456 C404.64,102.456 402.768,104.256 402.372,106.668 Z M421.272,100.152 L421.272,102.888 L421.38,102.888 C422.172,100.908 423.828,99.648 425.988,99.648 C426.924,99.648 427.86,99.972 428.652,100.476 L427.176,103.428 C426.6,102.924 425.952,102.744 425.196,102.744 C421.704,102.744 421.272,105.984 421.272,108.72 L421.272,117 L418.032,117 L418.032,100.152 L421.272,100.152 Z" id="path-1"></path>
        <path d="M6.408,4.712 L9.864,4.712 L9.864,57.992 C9.864,64.76 8.208,70.376 0.288,70.376 C-3.672,70.376 -7.056,68 -8.712,64.472 L-6.12,62.528 C-4.896,65.12 -2.304,67.136 0.576,67.136 C5.976,67.136 6.408,62.096 6.408,57.992 L6.408,4.712 Z M35.28,25.016 C45.072,25.016 52.776,32.504 52.776,42.368 C52.776,52.232 45.072,59.72 35.28,59.72 C25.704,59.72 18,51.872 18,42.44 C18,32.864 25.632,25.016 35.28,25.016 Z M35.064,28.04 C27.144,28.04 21.24,34.736 21.24,42.44 C21.24,50 27.216,56.696 35.064,56.696 C43.2,56.696 49.536,50.504 49.536,42.44 C49.536,34.232 43.272,28.04 35.064,28.04 Z M63.864,25.736 L63.864,30.92 L64.008,30.92 C65.952,27.248 69.552,25.016 73.872,25.016 C82.44,25.016 84.816,30.344 84.816,38.912 L84.816,59 L81.576,59 L81.576,38.912 C81.576,32.936 80.856,28.04 73.584,28.04 C65.232,28.04 63.864,35.816 63.864,42.584 L63.864,59 L60.624,59 L60.624,25.736 L63.864,25.736 Z M108.792,28.04 C101.16,28.04 95.904,34.952 95.904,42.152 C95.904,49.784 100.944,56.696 109.008,56.696 C117.504,56.696 122.112,49.784 122.112,41.792 C122.112,34.088 116.856,28.04 108.792,28.04 Z M125.136,25.736 L125.136,59 L121.896,59 L121.896,53.024 L121.752,53.024 C119.304,57.272 113.976,59.72 109.08,59.72 C99,59.72 92.664,51.872 92.664,42.152 C92.664,32.432 98.928,25.016 108.936,25.016 C114.048,25.016 118.944,27.32 121.752,31.496 L121.896,31.496 L121.896,25.736 L125.136,25.736 Z M139.824,28.76 L139.824,59 L136.584,59 L136.584,28.76 L132.912,28.76 L132.912,25.736 L136.584,25.736 L136.584,13.856 L139.824,13.856 L139.824,25.736 L145.656,25.736 L145.656,28.76 L139.824,28.76 Z M151.272,-0.4 L154.512,-0.4 L154.512,30.92 L154.656,30.92 C156.6,27.248 160.2,25.016 164.52,25.016 C173.088,25.016 175.464,30.344 175.464,38.912 L175.464,59 L172.224,59 L172.224,38.912 C172.224,32.936 171.504,28.04 164.232,28.04 C155.88,28.04 154.512,35.816 154.512,42.584 L154.512,59 L151.272,59 L151.272,-0.4 Z M199.44,28.04 C191.808,28.04 186.552,34.952 186.552,42.152 C186.552,49.784 191.592,56.696 199.656,56.696 C208.152,56.696 212.76,49.784 212.76,41.792 C212.76,34.088 207.504,28.04 199.44,28.04 Z M215.784,25.736 L215.784,59 L212.544,59 L212.544,53.024 L212.4,53.024 C209.952,57.272 204.624,59.72 199.728,59.72 C189.648,59.72 183.312,51.872 183.312,42.152 C183.312,32.432 189.576,25.016 199.584,25.016 C204.696,25.016 209.592,27.32 212.4,31.496 L212.544,31.496 L212.544,25.736 L215.784,25.736 Z M230.112,25.736 L230.112,30.92 L230.256,30.92 C232.2,27.248 235.8,25.016 240.12,25.016 C248.688,25.016 251.064,30.344 251.064,38.912 L251.064,59 L247.824,59 L247.824,38.912 C247.824,32.936 247.104,28.04 239.832,28.04 C231.48,28.04 230.112,35.816 230.112,42.584 L230.112,59 L226.872,59 L226.872,25.736 L230.112,25.736 Z M312.336,11.624 L309.888,13.64 C307.44,9.752 303.984,7.232 298.872,7.232 C293.04,7.232 288.648,11.912 288.648,17.6 C288.648,23.288 294.048,25.664 298.44,27.752 L308.808,33.152 C312.912,35.744 315,39.056 315,43.952 C315,52.952 306.792,59.72 298.008,59.72 C290.448,59.72 284.544,55.04 282.024,48.056 L285.048,46.688 C287.352,52.448 291.6,56.48 298.152,56.48 C305.28,56.48 311.544,50.864 311.544,43.664 C311.544,37.544 305.28,34.952 300.6,32.648 L290.808,27.464 C287.208,25.232 285.192,22.064 285.192,17.744 C285.192,9.68 290.952,3.992 299.088,3.992 C304.56,3.992 309.744,6.944 312.336,11.624 Z M326.88,-0.4 L326.88,59 L323.64,59 L323.64,-0.4 L326.88,-0.4 Z M350.856,28.04 C343.224,28.04 337.968,34.952 337.968,42.152 C337.968,49.784 343.008,56.696 351.072,56.696 C359.568,56.696 364.176,49.784 364.176,41.792 C364.176,34.088 358.92,28.04 350.856,28.04 Z M367.2,25.736 L367.2,59 L363.96,59 L363.96,53.024 L363.816,53.024 C361.368,57.272 356.04,59.72 351.144,59.72 C341.064,59.72 334.728,51.872 334.728,42.152 C334.728,32.432 340.992,25.016 351,25.016 C356.112,25.016 361.008,27.32 363.816,31.496 L363.96,31.496 L363.96,25.736 L367.2,25.736 Z M376.416,25.736 L388.44,53.168 L400.248,25.736 L403.56,25.736 L388.368,60.8 L373.104,25.736 L376.416,25.736 Z M429.624,25.736 L432.864,25.736 L432.864,45.68 C432.864,49.064 432.936,52.448 430.848,55.256 C428.544,58.28 424.656,59.72 420.912,59.72 C417.168,59.72 413.28,58.28 410.976,55.256 C408.888,52.448 408.96,49.064 408.96,45.68 L408.96,25.736 L412.2,25.736 L412.2,44.528 C412.2,50.936 412.92,56.696 420.912,56.696 C428.904,56.696 429.624,50.936 429.624,44.528 L429.624,25.736 Z M447.048,28.76 L447.048,59 L443.808,59 L443.808,28.76 L440.136,28.76 L440.136,25.736 L443.808,25.736 L443.808,13.856 L447.048,13.856 L447.048,25.736 L452.88,25.736 L452.88,28.76 L447.048,28.76 Z M487.368,42.656 L458.496,42.656 C458.28,51.08 464.112,56.696 471.816,56.696 C477,56.696 481.176,53.6 483.552,49.136 L486.288,50.72 C483.264,56.48 477.936,59.72 471.384,59.72 C461.52,59.72 455.256,51.728 455.256,42.296 C455.256,33.008 461.664,25.016 471.384,25.016 C481.464,25.016 487.44,33.08 487.368,42.656 Z M458.496,39.632 L484.128,39.632 C483.336,33.512 478.296,28.04 471.456,28.04 C464.688,28.04 459.072,33.368 458.496,39.632 Z M498.456,25.736 L498.456,30.056 L498.6,30.056 C499.896,27.032 502.272,25.016 505.8,25.016 C507.096,25.016 508.176,25.304 509.328,25.808 L507.6,28.688 C506.808,28.256 506.16,28.04 505.296,28.04 C498.024,28.04 498.456,37.112 498.456,42.008 L498.456,59 L495.216,59 L495.216,25.736 L498.456,25.736 Z" id="path-2"></path>
    </defs>
    <g id="js-logo" stroke="none" stroke-width="1" fill="none" fill-rule="evenodd">
        <g id="js_logo" transform="translate(9.000000, 1.000000)">
            <g id="UX-&amp;-Product-Designer">
                <use fill="#000000" xlink:href="#path-1"></use>
                <use fill="#FFFFFF" xlink:href="#path-1"></use>
            </g>
            <g id="Jonathan-Slavuter">
                <use fill="#000000" xlink:href="#path-2"></use>
                <use fill="#FFFFFF" xlink:href="#path-2"></use>
            </g>
        </g>
    </g>
</svg>