<?xml version="1.0" encoding="utf-8"?>
<!-- Generator: Adobe Illustrator 19.2.1, SVG Export Plug-In . SVG Version: 6.00 Build 0)  -->
<svg version="1.1" id="Layer_1" xmlns="http://www.w3.org/2000/svg" xmlns:xlink="http://www.w3.org/1999/xlink" x="0px" y="0px"
	 viewBox="0 0 618 521.1" style="enable-background:new 0 0 618 521.1;" xml:space="preserve">
<style type="text/css">
	.st0{display:none;}
	.st1{display:inline;fill:#FFFFFF;}
	.st2{font-family:'PoiretOne-Regular';}
	.st3{font-size:44.3307px;}
	.st4{display:inline;}
	.st5{fill:#FFFFFF;}
	.st6{font-size:76.1385px;}
	.st7{letter-spacing:-2;}
	.st8{display:none;enable-background:new    ;}
	.st9{fill:none;}
	.st10{font-size:60px;}
	.st11{enable-background:new    ;}
	.st12{fill:#D3D3D3;stroke:#FFFFFF;stroke-miterlimit:10;}
	.st13{fill:#25BA6C;stroke:#FFFFFF;stroke-miterlimit:10;}
	.st14{stroke:#FFFFFF;stroke-miterlimit:10;}
	.st15{opacity:0.5;}
	.st16{fill:url(#Blank_3_);stroke:#FFFFFF;stroke-miterlimit:10;}
	.st17{fill:url(#S_3_);stroke:#FFFFFF;stroke-miterlimit:10;}
	.st18{fill:url(#J_3_);stroke:#FFFFFF;stroke-miterlimit:10;}
</style>
<g id="Logo">
	<g id="Logotext" class="st0">
		<text transform="matrix(1 0 0 1 2.8804 511.8305)" class="st1 st2 st3">Graphic Designer | Web Developer</text>
		<g id="JS" class="st4">
			<text transform="matrix(1 0 0 1 384.9232 235.7055)" class="st5 st2 st6 st7">Slavuter</text>
			<text transform="matrix(1 0 0 1 0 235.6745)" class="st5 st2 st6 st7">Jonathan     </text>
		</g>
	</g>
	<g id="Logotext_1_">
		<g class="st8">
			<path class="st4" d="M18.7,499.2v-1.3h12.5v12c-2.6,1.6-5.5,2.4-8.8,2.4h-0.5c-3,0-5.9-0.8-8.5-2.4c-2.6-1.6-4.7-3.7-6.2-6.4
				c-1.5-2.6-2.3-5.5-2.3-8.4c0-4.7,1.7-8.7,5.1-12.1c3.4-3.4,7.5-5.1,12.2-5.1c3.2,0,6.2,0.8,9,2.5v1.6c-2.8-1.9-5.8-2.8-9-2.8
				c-4.3,0-8.1,1.6-11.2,4.7c-3.1,3.1-4.7,6.9-4.7,11.2s1.6,8.1,4.7,11.2c3.1,3.1,6.8,4.7,11.2,4.7c2.4,0,4.9-0.6,7.5-1.9v-10
				L18.7,499.2L18.7,499.2z"/>
			<path class="st4" d="M42.5,492.7c-1.6,0-2.9,0.6-4.1,1.8c-1.2,1.2-1.8,2.6-1.8,4.1v13.3h-1.4V492h1.4v3c0.5-1,1.4-1.8,2.5-2.5
				s2.4-1,3.8-1c1.4,0,2.7,0.5,4,1.4v1.8C45.5,493.3,44,492.7,42.5,492.7z"/>
			<path class="st4" d="M69.3,491.9v19.9h-1.4v-5c-0.8,1.7-2.1,3-3.7,4c-1.7,1-3.4,1.5-5.3,1.5c-2.9,0-5.4-1-7.4-3.1
				c-2.1-2.1-3.1-4.5-3.1-7.4s1-5.3,3.1-7.4c2.1-2.1,4.6-3.1,7.4-3.1c1.9,0,3.7,0.5,5.4,1.5s2.9,2.3,3.6,4v-5L69.3,491.9L69.3,491.9
				z M49.7,501.9c0,2.5,0.9,4.6,2.7,6.5c1.8,1.8,4,2.7,6.5,2.7s4.6-0.9,6.4-2.7s2.7-4,2.7-6.5s-0.9-4.7-2.7-6.5s-3.9-2.7-6.4-2.7
				s-4.6,0.9-6.5,2.8C50.6,497.3,49.7,499.4,49.7,501.9z"/>
			<path class="st4" d="M73.5,520.7v-28.8h1.4v4.9c0.8-1.6,2-2.9,3.7-3.9s3.5-1.5,5.3-1.5c2.9,0,5.4,1,7.5,3.1s3.1,4.5,3.1,7.4
				s-1,5.3-3.1,7.4c-2.1,2.1-4.5,3.1-7.5,3.1c-1.8,0-3.5-0.5-5.2-1.4s-3-2.3-3.9-3.9v13.7L73.5,520.7L73.5,520.7z M74.8,501.9
				c0,2.5,0.9,4.6,2.7,6.5c1.8,1.8,4,2.7,6.5,2.7s4.6-0.9,6.4-2.7s2.7-4,2.7-6.5s-0.9-4.7-2.7-6.5s-3.9-2.7-6.4-2.7
				s-4.6,0.9-6.4,2.8C75.7,497.3,74.8,499.4,74.8,501.9z"/>
			<path class="st4" d="M98.9,511.9h-1.4v-33.2h1.4v17.1c1.5-2.9,4-4.3,7.7-4.3c2.5,0,4.6,0.9,6.3,2.6c1.7,1.7,2.5,3.8,2.5,6.3V512
				H114v-11.6c0-2.1-0.7-3.8-2.2-5.3c-1.4-1.5-3.2-2.2-5.2-2.2s-3.8,0.8-5.4,2.3c-1.5,1.5-2.3,3.3-2.3,5.3V511.9z"/>
			<path class="st4" d="M120.4,487.1c-0.9,0-1.3-0.4-1.3-1.2s0.4-1.2,1.3-1.2s1.3,0.4,1.3,1.2S121.3,487.1,120.4,487.1z M121.2,492
				v19.9h-1.4V492H121.2z"/>
			<path class="st4" d="M135.6,512.4h-0.4c-2.8,0-5.3-1-7.3-3.1s-3.1-4.6-3.1-7.4s1-5.3,3.1-7.3c2.1-2.1,4.6-3.1,7.6-3.1
				s5.6,1.1,7.7,3.4v2.3c-0.9-1.4-2.1-2.4-3.5-3.2s-2.9-1.2-4.4-1.2c-2.5,0-4.6,0.9-6.4,2.7c-1.8,1.8-2.7,4-2.7,6.5s0.9,4.7,2.7,6.5
				c1.8,1.8,4,2.7,6.4,2.7c1.5,0,3-0.4,4.4-1.2s2.6-1.9,3.5-3.3v2.3C141.2,511.3,138.6,512.4,135.6,512.4z"/>
			<path class="st4" d="M160.9,478.6h1.4c5,0,9,1.6,12,4.9c3,3.3,4.6,7.2,4.6,11.7c0,4.6-1.5,8.5-4.5,11.7c-3,3.3-7,4.9-12,4.9H161
				v-33.2H160.9z M162.6,479.9h-0.4v30.6h0.4c4.3,0,7.9-1.5,10.6-4.5c2.8-3,4.1-6.6,4.1-10.8s-1.4-7.8-4.1-10.8
				S167,479.9,162.6,479.9z"/>
			<path class="st4" d="M192.3,512.4h-0.4c-2.8,0-5.3-1.1-7.3-3.2c-2.1-2.1-3.1-4.6-3.1-7.4s1-5.2,3.1-7.3s4.6-3.1,7.7-3.1
				s5.7,1.2,7.8,3.6l-13.9,13.7c1.9,1.5,3.8,2.3,5.5,2.3c1.8,0,3.4-0.4,4.8-1.2c1.4-0.8,2.6-1.9,3.5-3.3v2.3
				C197.9,511.2,195.3,512.4,192.3,512.4z M191.9,492.7c-2.3,0-4.4,0.9-6.3,2.7c-1.8,1.8-2.7,3.9-2.7,6.3s0.8,4.4,2.3,6.2l12.9-12.8
				C196.3,493.5,194.2,492.7,191.9,492.7z"/>
			<path class="st4" d="M207.5,492.6c-0.8,0-1.4,0.3-2,0.8s-0.9,1.1-0.9,1.9c0,0.7,0.3,1.4,1,2s1.5,1.2,2.4,1.7s1.9,1.1,2.8,1.7
				c0.9,0.6,1.8,1.3,2.4,2.3c0.7,0.9,1,2,1,3.1c0,1.7-0.7,3.2-2,4.5c-1.3,1.2-2.9,1.8-4.8,1.8c-1.2,0-2.3-0.3-3.3-0.8
				c-1-0.5-1.8-1.2-2.2-2.1v-2.1c1.1,2.5,2.9,3.7,5.4,3.7c1.5,0,2.8-0.5,3.9-1.4c1-0.9,1.6-2,1.6-3.2s-0.3-2.2-1-2.9s-1.5-1.5-2.4-2
				c-0.9-0.6-1.9-1.1-2.8-1.7c-0.9-0.5-1.7-1.2-2.4-2s-1-1.7-1-2.7s0.4-1.9,1.3-2.7c0.8-0.7,1.9-1.1,3.3-1.1s2.5,0.5,3.4,1.6v1.8
				C210.2,493.3,209,492.6,207.5,492.6z"/>
			<path class="st4" d="M218.5,487.1c-0.9,0-1.3-0.4-1.3-1.2s0.4-1.2,1.3-1.2c0.9,0,1.3,0.4,1.3,1.2S219.4,487.1,218.5,487.1z
				 M219.3,492v19.9h-1.4V492H219.3z"/>
			<path class="st4" d="M242.5,491.9h1.4V510c0,3.4-0.9,6.1-2.8,8.1c-1.9,2-4.4,3-7.4,3c-1.7,0-3.3-0.4-4.9-1.2
				c-1.6-0.8-2.8-1.8-3.7-3v-2c0.8,1.4,2,2.6,3.6,3.5s3.3,1.4,5,1.4c2.6,0,4.7-0.9,6.4-2.6c1.7-1.8,2.5-4.2,2.5-7.2v-3
				c-0.8,1.6-2.1,2.9-3.8,3.9s-3.5,1.5-5.3,1.5c-2.9,0-5.4-1-7.4-3.1c-2.1-2.1-3.1-4.5-3.1-7.4s1-5.3,3.1-7.4
				c2.1-2.1,4.6-3.1,7.4-3.1c1.9,0,3.7,0.5,5.4,1.4c1.7,1,2.9,2.3,3.7,4L242.5,491.9L242.5,491.9z M224.3,501.9
				c0,2.5,0.9,4.7,2.7,6.5s4,2.7,6.5,2.7s4.6-0.9,6.4-2.7c1.8-1.8,2.7-4,2.7-6.5s-0.9-4.7-2.7-6.5s-3.9-2.7-6.4-2.7
				s-4.7,0.9-6.5,2.7S224.3,499.4,224.3,501.9z"/>
			<path class="st4" d="M249.5,511.9h-1.4V492h1.4v4c1.5-3,4.1-4.5,7.7-4.5c2.5,0,4.6,0.9,6.3,2.6s2.5,3.8,2.5,6.3V512h-1.4v-11.6
				c0-2-0.7-3.8-2.1-5.3s-3.2-2.3-5.2-2.3s-3.8,0.8-5.4,2.3c-1.6,1.5-2.3,3.3-2.3,5.3L249.5,511.9L249.5,511.9z"/>
			<path class="st4" d="M280.2,512.4h-0.4c-2.8,0-5.3-1.1-7.3-3.2c-2.1-2.1-3.1-4.6-3.1-7.4s1-5.2,3.1-7.3s4.6-3.1,7.7-3.1
				s5.7,1.2,7.8,3.6l-14,13.8c1.9,1.5,3.8,2.3,5.5,2.3c1.8,0,3.4-0.4,4.8-1.2s2.6-1.9,3.5-3.3v2.3
				C285.7,511.2,283.1,512.4,280.2,512.4z M279.7,492.7c-2.3,0-4.4,0.9-6.3,2.7c-1.8,1.8-2.7,3.9-2.7,6.3s0.8,4.4,2.3,6.2l12.9-12.8
				C284.1,493.5,282,492.7,279.7,492.7z"/>
			<path class="st4" d="M298.3,492.7c-1.6,0-2.9,0.6-4.1,1.8s-1.8,2.6-1.8,4.1v13.3H291V492h1.4v3c0.5-1,1.4-1.8,2.5-2.5
				s2.4-1,3.8-1s2.7,0.5,4,1.4v1.8C301.3,493.3,299.9,492.7,298.3,492.7z"/>
			<path class="st4" d="M320.3,511.9v-33.2h1.5v33.2H320.3z"/>
			<path class="st4" d="M353.8,512.4l-14.6-33.8h1.6l13.2,30.5l6.2-14.4l-6.9-16h1.6l6.2,14.6l6.3-14.6h1.2l-6.9,16l6.3,14.6
				l13.4-30.6h1.2l-14.8,33.8l-7-16.2L353.8,512.4z"/>
			<path class="st4" d="M389.6,512.4h-0.4c-2.8,0-5.3-1.1-7.3-3.2c-2.1-2.1-3.1-4.6-3.1-7.4s1-5.2,3.1-7.3s4.6-3.1,7.7-3.1
				c3,0,5.7,1.2,7.8,3.6l-13.9,13.7c1.9,1.5,3.8,2.3,5.5,2.3s3.4-0.4,4.8-1.2s2.6-1.9,3.5-3.3v2.3
				C395.1,511.2,392.6,512.4,389.6,512.4z M389.1,492.7c-2.3,0-4.4,0.9-6.3,2.7s-2.7,3.9-2.7,6.3s0.8,4.4,2.3,6.2l12.9-12.8
				C393.6,493.5,391.5,492.7,389.1,492.7z"/>
			<path class="st4" d="M400.4,511.9v-33.2h1.4v18.2c0.8-1.6,2-2.9,3.7-3.9s3.5-1.5,5.3-1.5c2.9,0,5.4,1,7.5,3.1s3.1,4.5,3.1,7.4
				s-1,5.3-3.1,7.4c-2.1,2.1-4.5,3.1-7.5,3.1c-1.8,0-3.5-0.5-5.2-1.4s-3-2.3-3.9-3.9v4.8L400.4,511.9L400.4,511.9z M401.8,501.9
				c0,2.5,0.9,4.6,2.7,6.5c1.8,1.8,4,2.7,6.5,2.7s4.6-0.9,6.4-2.7s2.7-4,2.7-6.5s-0.9-4.7-2.7-6.5c-1.8-1.8-3.9-2.7-6.4-2.7
				s-4.6,0.9-6.5,2.8C402.7,497.3,401.8,499.4,401.8,501.9z"/>
			<path class="st4" d="M439.5,478.6h1.4c5,0,9,1.6,12,4.9c3,3.3,4.6,7.2,4.6,11.7c0,4.6-1.5,8.5-4.5,11.7c-3,3.3-7,4.9-12,4.9h-1.4
				v-33.2H439.5z M441.3,479.9h-0.4v30.6h0.4c4.3,0,7.9-1.5,10.6-4.5c2.8-3,4.1-6.6,4.1-10.8s-1.4-7.8-4.1-10.8
				S445.6,479.9,441.3,479.9z"/>
			<path class="st4" d="M471,512.4h-0.4c-2.8,0-5.3-1.1-7.3-3.2c-2.1-2.1-3.1-4.6-3.1-7.4s1-5.2,3.1-7.3s4.6-3.1,7.7-3.1
				c3,0,5.7,1.2,7.8,3.6l-13.9,13.7c1.9,1.5,3.8,2.3,5.5,2.3s3.4-0.4,4.8-1.2s2.6-1.9,3.5-3.3v2.3C476.5,511.2,474,512.4,471,512.4z
				 M470.5,492.7c-2.3,0-4.4,0.9-6.3,2.7s-2.7,3.9-2.7,6.3s0.8,4.4,2.3,6.2l12.9-12.8C475,493.5,472.9,492.7,470.5,492.7z"/>
			<path class="st4" d="M498.6,491.9h1.3l-9.8,20.5l-9.8-20.5h1.6l8.4,17.5L498.6,491.9z"/>
			<path class="st4" d="M512.5,512.4h-0.4c-2.8,0-5.3-1.1-7.3-3.2c-2.1-2.1-3.1-4.6-3.1-7.4s1-5.2,3.1-7.3s4.6-3.1,7.7-3.1
				c3,0,5.7,1.2,7.8,3.6l-13.9,13.7c1.9,1.5,3.8,2.3,5.5,2.3c1.7,0,3.4-0.4,4.8-1.2s2.6-1.9,3.5-3.3v2.3
				C518,511.2,515.5,512.4,512.5,512.4z M512,492.7c-2.3,0-4.4,0.9-6.3,2.7s-2.7,3.9-2.7,6.3s0.8,4.4,2.3,6.2l12.9-12.8
				C516.5,493.5,514.4,492.7,512,492.7z"/>
			<path class="st4" d="M530.9,511v1.2c-2.1,0-3.9-0.7-5.4-2.1c-1.5-1.4-2.2-3.2-2.2-5.4v-26.2h1.4v26.2c0,1.8,0.6,3.3,1.8,4.5
				S529.2,511,530.9,511z"/>
			<path class="st4" d="M533.5,509.2c-2-2.1-3.1-4.6-3.1-7.4c0-2.8,1-5.2,3.1-7.3s4.6-3.1,7.5-3.1s5.4,1,7.4,3.1
				c2.1,2.1,3.1,4.5,3.1,7.3s-1,5.3-3,7.4c-2,2.1-4.4,3.1-7.3,3.1h-0.4C537.9,512.3,535.5,511.3,533.5,509.2z M550.1,501.9
				c0-2.5-0.9-4.7-2.7-6.5s-3.9-2.7-6.4-2.7s-4.6,0.9-6.5,2.8c-1.8,1.8-2.7,4-2.7,6.5s0.9,4.6,2.7,6.5c1.8,1.8,4,2.7,6.5,2.7
				s4.6-0.9,6.4-2.7C549.2,506.6,550.1,504.4,550.1,501.9z"/>
			<path class="st4" d="M554.6,520.7v-28.8h1.4v4.9c0.8-1.6,2-2.9,3.7-3.9s3.5-1.5,5.3-1.5c2.9,0,5.4,1,7.5,3.1s3.1,4.5,3.1,7.4
				s-1,5.3-3.1,7.4c-2.1,2.1-4.5,3.1-7.5,3.1c-1.8,0-3.5-0.5-5.2-1.4s-3-2.3-3.9-3.9v13.7L554.6,520.7L554.6,520.7z M555.9,501.9
				c0,2.5,0.9,4.6,2.7,6.5c1.8,1.8,4,2.7,6.5,2.7s4.6-0.9,6.4-2.7c1.8-1.8,2.7-4,2.7-6.5s-0.9-4.7-2.7-6.5s-3.9-2.7-6.4-2.7
				s-4.6,0.9-6.5,2.8C556.8,497.3,555.9,499.4,555.9,501.9z"/>
			<path class="st4" d="M588.6,512.4h-0.4c-2.8,0-5.3-1.1-7.3-3.2c-2.1-2.1-3.1-4.6-3.1-7.4s1-5.2,3.1-7.3s4.6-3.1,7.7-3.1
				c3,0,5.7,1.2,7.8,3.6l-13.9,13.7c1.9,1.5,3.8,2.3,5.5,2.3s3.4-0.4,4.8-1.2c1.4-0.8,2.6-1.9,3.5-3.3v2.3
				C594.1,511.2,591.6,512.4,588.6,512.4z M588.1,492.7c-2.3,0-4.4,0.9-6.3,2.7s-2.7,3.9-2.7,6.3s0.8,4.4,2.3,6.2l12.9-12.8
				C592.6,493.5,590.5,492.7,588.1,492.7z"/>
			<path class="st4" d="M606.8,492.7c-1.6,0-2.9,0.6-4.1,1.8c-1.2,1.2-1.8,2.6-1.8,4.1v13.3h-1.4V492h1.4v3c0.5-1,1.4-1.8,2.5-2.5
				s2.4-1,3.8-1c1.4,0,2.7,0.5,4,1.4v1.8C609.8,493.3,608.4,492.7,606.8,492.7z"/>
		</g>
		<rect x="1.5" y="458.1" class="st9" width="614.5" height="55"/>
		<text transform="matrix(1 0 0 1 164.4531 503.0745)" class="st2 st10">UX Designer</text>
		<g id="JS_1_">
			<g class="st11">
				<path d="M408.9,181.7c-2-1.2-4.3-1.8-6.7-1.8c-2.5,0-4.6,0.8-6.4,2.3s-2.6,3.7-2.6,6.4v0.4c0,3.2,1.8,6.1,5.3,8.8
					c1.5,1.1,3.2,2.2,5.1,3.3c1.9,1.1,3.8,2.3,5.7,3.5c1.9,1.2,3.6,2.6,5.2,4c1.5,1.4,2.8,3.1,3.8,5.1s1.5,4.3,1.5,6.7v0.8
					c0,4.8-1.6,8.7-4.9,11.5s-7.3,4.3-12.1,4.3c-6.3,0-11.3-2.6-14.8-7.8v-4.1c1.3,2.9,3.3,5.2,5.8,7c2.6,1.8,5.7,2.7,9.6,2.7
					c3.8,0,7.1-1.2,9.9-3.7c2.8-2.4,4.2-5.7,4.2-9.7v-0.5c0-2.5-0.7-4.9-2-7s-3-3.8-4.9-5.2c-2-1.3-4.1-2.8-6.5-4.2
					c-2.3-1.5-4.5-2.8-6.5-4.1c-2-1.3-3.6-2.9-4.9-4.8s-2-4-2-6.3v-0.5c0-3.6,1.1-6.3,3.4-8.1c2.3-1.9,5.1-2.8,8.5-2.8
					c4.7,0,8.4,1.7,11.1,5.2v3.9C412.5,184.6,410.9,182.9,408.9,181.7z"/>
				<path d="M436.9,234.3v2.1c-3.6,0-6.7-1.2-9.2-3.6s-3.8-5.5-3.8-9.3v-44.9h2.4v44.9c0,3.1,1,5.7,3.1,7.7
					C431.5,233.3,434,234.3,436.9,234.3z"/>
				<path d="M470.7,201.5v34.3h-2.4v-8.5c-1.4,2.9-3.6,5.2-6.4,6.9c-2.8,1.7-5.9,2.5-9.1,2.5c-5,0-9.2-1.8-12.8-5.3
					c-3.6-3.5-5.3-7.8-5.3-12.7c0-4.9,1.8-9.1,5.3-12.7c3.6-3.5,7.8-5.3,12.8-5.3c3.2,0,6.4,0.9,9.3,2.6c3,1.7,5,4,6.2,6.9v-8.7
					H470.7z M437,218.7c0,4.3,1.6,8,4.7,11.1s6.8,4.7,11.1,4.7c4.3,0,8-1.6,11-4.7s4.6-6.8,4.6-11.1c0-4.3-1.5-8-4.6-11.2
					c-3.1-3.1-6.7-4.7-11-4.7s-8,1.6-11.1,4.8C438.6,210.7,437,214.4,437,218.7z"/>
				<path d="M505.1,201.5h2.2l-16.8,35.3l-16.9-35.3h2.7l14.5,30.1L505.1,201.5z"/>
				<path d="M537.9,201.5h2.4v34.3h-2.4v-6.9c-2.6,5.2-7,7.8-13.2,7.8c-4.3,0-7.8-1.5-10.7-4.4c-2.9-2.9-4.3-6.5-4.3-10.7v-20.1h2.4
					v19.9c0,3.5,1.2,6.5,3.7,9.1s5.4,3.9,8.9,3.9s6.6-1.3,9.2-3.9c2.7-2.6,4-5.6,4-9.1L537.9,201.5L537.9,201.5z"/>
				<path d="M557.4,234.1v2.1c-3.6,0-6.7-1.2-9.2-3.6s-3.8-5.5-3.8-9.3v-35.6h2.4v13.8h10.5v2.1h-10.5v19.6c0,3.1,1,5.7,3.1,7.7
					C552,233,554.5,234.1,557.4,234.1z"/>
				<path d="M577.2,236.6h-0.7c-4.8,0-9-1.8-12.6-5.4s-5.4-7.9-5.4-12.7c0-4.8,1.8-9,5.3-12.5c3.6-3.5,7.9-5.3,13.2-5.3
					c5.2,0,9.7,2.1,13.5,6.2l-23.9,23.6c3.3,2.6,6.5,4,9.5,4s5.8-0.7,8.2-2.1s4.4-3.3,6-5.6v3.9
					C586.7,234.7,582.3,236.6,577.2,236.6z M576.4,202.8c-4,0-7.6,1.6-10.7,4.7c-3.1,3.1-4.7,6.7-4.7,10.8c0,4.1,1.3,7.6,4,10.7
					l22.2-22C584,204.2,580.4,202.8,576.4,202.8z"/>
				<path d="M606.9,202.8c-2.7,0-5.1,1-7.1,3c-2.1,2-3.1,4.4-3.1,7.1v22.8h-2.4v-34.2h2.4v5.1c0.9-1.7,2.3-3.1,4.3-4.3
					c1.9-1.1,4.1-1.7,6.5-1.7s4.7,0.8,6.9,2.4v3C612,203.9,609.6,202.8,606.9,202.8z"/>
			</g>
			<g class="st11">
				<path d="M13.2,180.8v-2.2h16.6v39.6c0,5.5-1.5,10-4.5,13.5s-7,5.2-11.8,5.2h-0.8c-4.1,0-7.8-1.4-11.2-4.3v-3.1
					c3.2,3.5,7,5.3,11.5,5.3s8-1.5,10.5-4.5s3.8-6.9,3.8-11.6V181H13.2V180.8z"/>
				<path d="M40,231.1c-3.5-3.6-5.3-7.9-5.3-12.7c0-4.8,1.8-9,5.3-12.5c3.6-3.5,7.8-5.3,12.8-5.3s9.3,1.8,12.8,5.3s5.3,7.7,5.3,12.6
					c0,4.8-1.7,9.1-5.2,12.7s-7.6,5.4-12.6,5.4h-0.7C47.7,236.5,43.5,234.7,40,231.1z M68.5,218.6c0-4.3-1.5-8-4.6-11.2
					c-3.1-3.1-6.7-4.7-11-4.7s-8,1.6-11.1,4.8c-3.1,3.2-4.7,6.9-4.7,11.2s1.6,8,4.7,11.1c3.1,3.1,6.8,4.7,11.1,4.7s8-1.6,11-4.7
					C67,226.6,68.5,222.9,68.5,218.6z"/>
				<path d="M77.1,235.7h-2.4v-34.3h2.4v6.9c2.6-5.2,7-7.8,13.2-7.8c4.3,0,7.8,1.5,10.7,4.4c2.9,2.9,4.3,6.5,4.3,10.7v19.9H103
					v-19.9c0-3.5-1.2-6.5-3.7-9.1s-5.4-3.9-8.9-3.9s-6.6,1.3-9.3,3.9c-2.7,2.6-4,5.6-4,9.1V235.7z"/>
				<path d="M145.3,201.4v34.3h-2.4v-8.5c-1.4,2.9-3.6,5.2-6.4,6.9c-2.8,1.7-5.9,2.5-9.1,2.5c-5,0-9.2-1.8-12.8-5.3
					c-3.6-3.5-5.3-7.8-5.3-12.7c0-4.9,1.8-9.1,5.3-12.7c3.6-3.5,7.8-5.3,12.8-5.3c3.2,0,6.4,0.9,9.3,2.6c3,1.7,5,4,6.2,6.9v-8.6
					L145.3,201.4L145.3,201.4z M111.6,218.6c0,4.3,1.6,8,4.7,11.1s6.8,4.7,11.1,4.7c4.3,0,8-1.6,11-4.7s4.6-6.8,4.6-11.1
					c0-4.3-1.5-8-4.6-11.2c-3.1-3.1-6.7-4.7-11-4.7s-8,1.6-11.1,4.8C113.2,210.7,111.6,214.4,111.6,218.6z"/>
				<path d="M163.2,234v2.1c-3.6,0-6.7-1.2-9.2-3.6s-3.8-5.5-3.8-9.3v-35.6h2.4v13.9h10.5v2.1h-10.5v19.6c0,3.1,1,5.7,3.1,7.7
					C157.7,233,160.2,234,163.2,234z"/>
				<path d="M168.2,235.7h-2.4v-57h2.4v29.4c2.5-5,6.9-7.5,13.2-7.5c4.3,0,7.9,1.5,10.8,4.4c2.9,2.9,4.4,6.5,4.4,10.7v19.9h-2.4
					v-19.9c0-3.6-1.2-6.6-3.7-9.2s-5.5-3.8-9-3.8s-6.6,1.3-9.2,3.9c-2.6,2.6-4,5.6-4,9.1v20H168.2z"/>
				<path d="M235.6,201.4v34.3h-2.4v-8.5c-1.4,2.9-3.6,5.2-6.4,6.9c-2.8,1.7-5.9,2.5-9.1,2.5c-5,0-9.2-1.8-12.8-5.3
					s-5.3-7.8-5.3-12.7c0-4.9,1.8-9.1,5.3-12.7c3.6-3.5,7.8-5.3,12.8-5.3c3.2,0,6.4,0.9,9.3,2.6c3,1.7,5,4,6.2,6.9v-8.6L235.6,201.4
					L235.6,201.4z M201.9,218.6c0,4.3,1.6,8,4.7,11.1c3.1,3.1,6.8,4.7,11.1,4.7s8-1.6,11-4.7s4.6-6.8,4.6-11.1c0-4.3-1.5-8-4.6-11.2
					c-3.1-3.1-6.7-4.7-11-4.7s-8,1.6-11.1,4.8C203.5,210.7,201.9,214.4,201.9,218.6z"/>
				<path d="M243.6,235.7h-2.4v-34.3h2.4v6.9c2.6-5.2,7-7.8,13.2-7.8c4.3,0,7.8,1.5,10.7,4.4c2.9,2.9,4.3,6.5,4.3,10.7v19.9h-2.4
					v-19.9c0-3.5-1.2-6.5-3.7-9.1s-5.4-3.9-8.9-3.9s-6.6,1.3-9.3,3.9s-4,5.6-4,9.1L243.6,235.7L243.6,235.7z"/>
			</g>
		</g>
	</g>
	<g id="Logogram">
		<g id="Logo_1_">
			<g id="Blank_1_">
				<path class="st12" d="M305.3,223.7l-11.9,11.9l-11.9,11.9l-11.9,11.9l-5.9,5.9c-2,2-3.9,4.1-5.7,6.2c-3.7,4.5-6.9,9.2-9.7,14.1
					c-3,5.3-5.4,10.9-7.2,16.6c-1.4,4.3-2.5,8.6-3.2,13c-0.4,2.2-0.7,4.5-0.9,6.7c-0.6,5.9-0.6,11.8,0,17.6c0.2,2.4,0.6,4.7,1,7.1
					c0.8,4.2,1.8,8.5,3.1,12.6c1.8,5.7,4.2,11.2,7.2,16.6c2.7,4.9,6,9.7,9.7,14.1c5.9-5.9,15.1-6.4,21.6-1.6
					c-1.4-1.2-2.8-2.5-4.1-3.8c-1.3-1.3-2.6-2.7-3.8-4.2c-0.7-0.8-1.3-1.5-1.9-2.3c-3.6-4.6-6.7-9.5-9.1-14.6
					c-2.7-5.7-4.7-11.8-5.9-17.9c-0.4-2.3-0.8-4.6-1-6.9c-0.6-5.3-0.5-10.7,0.1-16c0.2-2.2,0.6-4.5,1-6.6c1.2-6.1,3.2-12.1,6-17.8
					c2.5-5.1,5.5-10,9.2-14.6l0,0c1.7-2.1,3.5-4.5,5.5-6.4l5.9-5.9l11.9-11.9l11.9-11.9l11.9-11.9l11.9-11.9l-11.9-11.9L305.3,223.7
					z"/>
				<path class="st12" d="M378.4,35.5c1.5,1.3,2.9,2.5,4.3,3.9c2,2,3.8,4,5.5,6.2c3.7,4.6,6.7,9.5,9.2,14.6
					c2.7,5.7,4.7,11.7,5.9,17.8c0.4,2.3,0.8,4.6,1,6.8c0.6,5.3,0.6,10.6,0,15.9c-0.2,2.3-0.6,4.6-1,6.8c-1.2,6.1-3.2,12.1-5.9,17.8
					c-2.5,5.1-5.5,10-9.2,14.6l0,0c-1.7,2.1-3.6,4.2-5.5,6.2l-6,6L364.8,164l0,0l-11.9,11.9l0,0L341,188.1l-11.8,11.7l11.9,11.9
					l11.7-11.7l11.9-11.9l11.9-11.9l11.9-11.9l5.9-5.9c2-2,4-3.9,5.8-6.1c3.7-4.4,6.9-9.1,9.7-14.1l0,0c3-5.3,5.4-10.9,7.2-16.6
					c1.4-4.3,2.5-8.6,3.2-13c0.4-2.2,0.7-4.5,0.9-6.7c0.6-6,0.6-12,0-18c-0.2-2.3-0.6-4.6-0.9-6.8c-0.8-4.4-1.8-8.6-3.2-12.8
					c-1.9-5.7-4.3-11.2-7.2-16.5c-2.8-4.9-6-9.6-9.7-14C394.1,39.8,384.9,40.2,378.4,35.5z"/>
			</g>
			<path id="S_1_" class="st13" d="M394.6,27.6c-2.1-2.1-4.2-4-6.4-5.8c-4.4-3.7-9.1-6.8-13.9-9.6c-5.4-3-11-5.5-16.8-7.3
				c-4.1-1.3-8.2-2.3-12.3-3c-2.5-0.4-4.9-0.8-7.4-1c-5.8-0.5-11.6-0.5-17.4,0c-2.5,0.2-5,0.6-7.5,1c-4.1,0.8-8.2,1.7-12.2,3
				c-5.7,1.9-11.2,4.2-16.6,7.2c-4.9,2.8-9.7,6-14.1,9.7c-2.1,1.8-4.2,3.6-6.2,5.7c-2,2-3.9,4.1-5.7,6.3c-3.7,4.4-6.9,9.2-9.7,14.1
				l0,0c-3,5.3-5.4,10.9-7.2,16.6l0,0c-1.3,4-2.3,8.1-3,12.2c-0.4,2.5-0.8,5-1,7.5c-0.6,5.8-0.6,11.6,0,17.4c0.2,2.5,0.6,4.9,1,7.4
				c0.7,4.2,1.7,8.3,3,12.3c1.9,5.8,4.3,11.4,7.3,16.8c2.7,4.9,5.9,9.5,9.5,13.9c6.5-6.5,17.1-6.4,23.7,0.1l-5.9-5.9
				c-2.1-2-3.9-4.2-5.7-6.4c-3.6-4.5-6.6-9.4-9.1-14.4c-2.8-5.8-4.8-11.9-6-18.1c-0.4-2.1-0.7-4.2-0.9-6.2c-0.6-5.5-0.6-11.1,0-16.7
				c0.2-2.1,0.5-4.2,0.9-6.2l0,0c1.2-6.1,3.2-12.1,5.9-17.9l0,0c2.5-5.1,5.5-10,9.1-14.6c1.7-2.2,3.6-4.4,5.7-6.4
				c2-2,4.1-3.8,6.2-5.5c4.6-3.7,9.5-6.7,14.6-9.2c5.7-2.7,11.7-4.7,17.8-5.9c2.1-0.4,4.3-0.8,6.5-1c5.4-0.6,10.9-0.6,16.3,0
				c2.2,0.2,4.4,0.6,6.6,1c6.2,1.2,12.3,3.2,18.1,6c5.1,2.4,9.9,5.4,14.4,9.1c0.7,0.6,1.4,1.1,2.1,1.7c6.6,4.7,15.7,4.3,21.8-1.8
				C398.4,31.6,396.6,29.6,394.6,27.6C394.7,27.6,394.7,27.6,394.6,27.6L394.6,27.6z"/>
			<path id="J_1_" class="st14" d="M317.4,187.8l-11.9-11.9L293.6,164l-11.9-11.9c-6.6-6.6-17.2-6.6-23.7-0.1
				c1.8,2.2,3.8,4.4,5.8,6.4l5.8,5.8l11.9,11.9l11.9,11.9l11.9,11.9l11.9,11.9l11.9,11.9l11.9,11.9l11.9,11.9l11.9,11.9l11.9,11.9
				l5.9,5.9c1.9,1.9,3.8,4.3,5.5,6.4c3.7,4.6,6.7,9.5,9.2,14.6c2.8,5.7,4.7,11.7,6,17.8c0.4,2.2,0.8,4.4,1,6.7
				c0.6,5.3,0.6,10.7,0.1,16c-0.2,2.3-0.6,4.6-1,6.9c-1.2,6.1-3.2,12.1-5.9,17.9c-2.4,5.1-5.5,10-9.1,14.6c-1.8,2.2-3.7,4.4-5.7,6.4
				c-1.9,1.9-4,3.8-6.1,5.5c-4.6,3.7-9.5,6.7-14.6,9.2c-5.7,2.7-11.7,4.7-17.8,6c-2.5,0.5-4.9,0.9-7.4,1.1c-5.1,0.5-10.2,0.5-15.3,0
				c-2.5-0.2-4.9-0.6-7.4-1.1c-6.1-1.2-12.1-3.2-17.8-6c-5.1-2.5-10-5.5-14.6-9.2c-0.7-0.5-1.3-1.1-1.9-1.7c0,0,0,0-0.1,0
				c-6.6-4.8-15.7-4.4-21.6,1.6c1.8,2.1,3.7,4.2,5.7,6.3c2,2,4.1,3.9,6.2,5.7c4.5,3.7,9.2,6.9,14.1,9.7c5.3,3,10.8,5.4,16.6,7.2
				c4.1,1.3,8.3,2.4,12.6,3.1c2.4,0.4,4.7,0.8,7.1,1c5.9,0.6,11.8,0.6,17.7,0c2.5-0.2,5-0.6,7.5-1.1c4.1-0.7,8.2-1.7,12.2-3
				c5.7-1.9,11.2-4.2,16.6-7.2c4.9-2.7,9.7-6,14.1-9.7c2.1-1.8,4.2-3.6,6.2-5.7c2-2,3.9-4.1,5.7-6.2c3.7-4.5,6.9-9.2,9.7-14.1
				c3-5.3,5.4-10.9,7.2-16.6c1.3-4,2.3-8.1,3-12.2c0.4-2.5,0.8-5,1-7.5c0.6-5.9,0.6-11.8,0-17.6c-0.2-2.4-0.6-4.7-1-7.1
				c-0.8-4.2-1.8-8.5-3.1-12.6c-1.9-5.7-4.2-11.2-7.2-16.6c-2.8-4.9-6-9.7-9.7-14.1c-1.8-2.1-3.6-4.2-5.7-6.2l-5.9-5.9l-11.9-11.9
				l-11.9-11.9L353,223.8l-11.7-12.1l-11.9-11.9L317.4,187.8z"/>
		</g>
		<g id="Logo_2_" class="st15">
			
				<linearGradient id="Blank_3_" gradientUnits="userSpaceOnUse" x1="1318.8569" y1="1048.5698" x2="1318.8569" y2="148.6459" gradientTransform="matrix(0.3957 0 0 0.3957 -192.7717 -25.0442)">
				<stop  offset="0" style="stop-color:#000000"/>
				<stop  offset="1" style="stop-color:#FFFFFF"/>
			</linearGradient>
			<path id="Blank_2_" class="st16" d="M317.2,211.8l11.9,11.9l-11.9,11.9l-11.9,11.9l-11.9,11.9l-11.9,11.9l-5.9,5.9
				c-1.9,1.9-3.8,4.3-5.5,6.4l0,0c-3.7,4.6-6.7,9.5-9.2,14.6c-2.8,5.7-4.7,11.7-6,17.8c-0.4,2.2-0.8,4.4-1,6.6
				c-0.6,5.3-0.6,10.7-0.1,16c0.2,2.3,0.6,4.6,1,6.9c1.2,6.1,3.2,12.1,5.9,17.9c2.4,5.1,5.5,10,9.1,14.6c0.6,0.8,1.3,1.5,1.9,2.3
				c1.2,1.4,2.5,2.8,3.8,4.2c1.3,1.3,2.7,2.6,4.1,3.8c-6.6-4.8-15.7-4.4-21.6,1.6c-3.7-4.4-6.9-9.2-9.7-14.1
				c-3-5.3-5.4-10.9-7.2-16.6c-1.3-4.1-2.4-8.3-3.1-12.6c-0.4-2.4-0.8-4.7-1-7.1c-0.6-5.9-0.6-11.8,0-17.6c0.2-2.3,0.6-4.5,0.9-6.7
				c0.8-4.4,1.8-8.7,3.2-13c1.9-5.7,4.2-11.2,7.2-16.6c2.7-4.9,6-9.7,9.7-14.1c1.8-2.1,3.6-4.2,5.7-6.2l5.9-5.9l11.9-11.9l11.9-11.9
				l11.9-11.9L317.2,211.8z M378.4,35.5c1.5,1.3,2.9,2.5,4.3,3.9c2,2,3.8,4,5.5,6.2c3.7,4.6,6.7,9.5,9.2,14.6
				c2.7,5.7,4.7,11.7,5.9,17.8c0.4,2.3,0.8,4.6,1,6.8c0.6,5.3,0.6,10.6,0,15.9c-0.2,2.3-0.6,4.6-1,6.8c-1.2,6.1-3.2,12.1-5.9,17.8
				c-2.5,5.1-5.5,10-9.2,14.6l0,0c-1.7,2.1-3.6,4.2-5.5,6.2l-6,6L364.8,164l0,0l-11.9,11.9l0,0L341,188.1l-11.8,11.7l11.9,11.9
				l11.7-11.7l11.9-11.9l11.9-11.9l11.9-11.9l5.9-5.9c2-2,4-3.9,5.8-6.1c3.7-4.4,6.9-9.1,9.7-14.1l0,0c3-5.3,5.4-10.9,7.2-16.6
				c1.4-4.3,2.5-8.6,3.2-13c0.4-2.2,0.7-4.5,0.9-6.7c0.6-6,0.6-12,0-18c-0.2-2.3-0.6-4.6-0.9-6.8c-0.8-4.4-1.8-8.6-3.2-12.8
				c-1.9-5.7-4.3-11.2-7.2-16.5c-2.8-4.9-6-9.6-9.7-14C394.1,39.8,384.9,40.2,378.4,35.5z"/>
			
				<linearGradient id="S_3_" gradientUnits="userSpaceOnUse" x1="1291.8794" y1="447.6096" x2="1291.8794" y2="64.5544" gradientTransform="matrix(0.3957 0 0 0.3957 -192.7717 -25.0442)">
				<stop  offset="0" style="stop-color:#000000"/>
				<stop  offset="1" style="stop-color:#FFFFFF"/>
			</linearGradient>
			<path id="S_2_" class="st17" d="M394.6,27.6c-2.1-2.1-4.2-4-6.4-5.8c-4.4-3.7-9.1-6.8-13.9-9.6c-5.4-3-11-5.5-16.8-7.3
				c-4.1-1.3-8.2-2.3-12.3-3c-2.5-0.4-4.9-0.8-7.4-1c-5.8-0.5-11.6-0.5-17.4,0c-2.5,0.2-5,0.6-7.5,1c-4.1,0.8-8.2,1.7-12.2,3
				c-5.7,1.9-11.2,4.2-16.6,7.2c-4.9,2.8-9.7,6-14.1,9.7c-2.1,1.8-4.2,3.6-6.2,5.7c-2,2-3.9,4.1-5.7,6.3c-3.7,4.4-6.9,9.2-9.7,14.1
				l0,0c-3,5.3-5.4,10.9-7.2,16.6l0,0c-1.3,4-2.3,8.1-3,12.2c-0.4,2.5-0.8,5-1,7.5c-0.6,5.8-0.6,11.6,0,17.4c0.2,2.5,0.6,4.9,1,7.4
				c0.7,4.2,1.7,8.3,3,12.3c1.9,5.8,4.3,11.4,7.3,16.8c2.7,4.9,5.9,9.5,9.5,13.9c6.5-6.5,17.1-6.4,23.7,0.1l-5.9-5.9
				c-2.1-2-3.9-4.2-5.7-6.4c-3.6-4.5-6.6-9.4-9.1-14.4c-2.8-5.8-4.8-11.9-6-18.1c-0.4-2.1-0.7-4.2-0.9-6.2c-0.6-5.5-0.6-11.1,0-16.7
				c0.2-2.1,0.5-4.2,0.9-6.2l0,0c1.2-6.1,3.2-12.1,5.9-17.9l0,0c2.5-5.1,5.5-10,9.1-14.6c1.7-2.2,3.6-4.4,5.7-6.4
				c2-2,4.1-3.8,6.2-5.5c4.6-3.7,9.5-6.7,14.6-9.2c5.7-2.7,11.7-4.7,17.8-5.9c2.1-0.4,4.3-0.8,6.5-1c5.4-0.6,10.9-0.6,16.3,0
				c2.2,0.2,4.4,0.6,6.6,1c6.2,1.2,12.3,3.2,18.1,6c5.1,2.4,9.9,5.4,14.4,9.1c0.7,0.6,1.4,1.1,2.1,1.7c6.6,4.7,15.7,4.3,21.8-1.8
				C398.4,31.6,396.6,29.6,394.6,27.6C394.7,27.6,394.7,27.6,394.6,27.6L394.6,27.6z"/>
			
				<linearGradient id="J_3_" gradientUnits="userSpaceOnUse" x1="1346.0873" y1="1133.1035" x2="1346.0873" y2="435.0685" gradientTransform="matrix(0.3957 0 0 0.3957 -192.7717 -25.0442)">
				<stop  offset="0" style="stop-color:#000000"/>
				<stop  offset="1" style="stop-color:#FFFFFF"/>
			</linearGradient>
			<path id="J_2_" class="st18" d="M317.4,187.8l-11.9-11.9L293.6,164l-11.9-11.9c-6.6-6.6-17.2-6.6-23.7-0.1
				c1.8,2.2,3.8,4.4,5.8,6.4l5.8,5.8l11.9,11.9l11.9,11.9l11.9,11.9l11.9,11.9l11.9,11.9l11.9,11.9l11.9,11.9l11.9,11.9l11.9,11.9
				l5.9,5.9c1.9,1.9,3.8,4.3,5.5,6.4c3.7,4.6,6.7,9.5,9.2,14.6c2.8,5.7,4.7,11.7,6,17.8c0.4,2.2,0.8,4.4,1,6.7
				c0.6,5.3,0.6,10.7,0.1,16c-0.2,2.3-0.6,4.6-1,6.9c-1.2,6.1-3.2,12.1-5.9,17.9c-2.4,5.1-5.5,10-9.1,14.6c-1.8,2.2-3.7,4.4-5.7,6.4
				c-1.9,1.9-4,3.8-6.1,5.5c-4.6,3.7-9.5,6.7-14.6,9.2c-5.7,2.7-11.7,4.7-17.8,6c-2.5,0.5-4.9,0.9-7.4,1.1c-5.1,0.5-10.2,0.5-15.3,0
				c-2.5-0.2-4.9-0.6-7.4-1.1c-6.1-1.2-12.1-3.2-17.8-6c-5.1-2.5-10-5.5-14.6-9.2c-0.7-0.5-1.3-1.1-1.9-1.7c0,0,0,0-0.1,0
				c-6.6-4.8-15.7-4.4-21.6,1.6c1.8,2.1,3.7,4.2,5.7,6.3c2,2,4.1,3.9,6.2,5.7c4.5,3.7,9.2,6.9,14.1,9.7c5.3,3,10.8,5.4,16.6,7.2
				c4.1,1.3,8.3,2.4,12.6,3.1c2.4,0.4,4.7,0.8,7.1,1c5.9,0.6,11.8,0.6,17.7,0c2.5-0.2,5-0.6,7.5-1.1c4.1-0.7,8.2-1.7,12.2-3
				c5.7-1.9,11.2-4.2,16.6-7.2c4.9-2.7,9.7-6,14.1-9.7c2.1-1.8,4.2-3.6,6.2-5.7c2-2,3.9-4.1,5.7-6.2c3.7-4.5,6.9-9.2,9.7-14.1
				c3-5.3,5.4-10.9,7.2-16.6c1.3-4,2.3-8.1,3-12.2c0.4-2.5,0.8-5,1-7.5c0.6-5.9,0.6-11.8,0-17.6c-0.2-2.4-0.6-4.7-1-7.1
				c-0.8-4.2-1.8-8.5-3.1-12.6c-1.9-5.7-4.2-11.2-7.2-16.6c-2.8-4.9-6-9.7-9.7-14.1c-1.8-2.1-3.6-4.2-5.7-6.2l-5.9-5.9l-11.9-11.9
				l-11.9-11.9L353,223.8l-11.7-12.1l-11.9-11.9L317.4,187.8z"/>
		</g>
	</g>
</g>
</svg>
