<?xml version="1.0" encoding="utf-8"?>
<!-- Generator: Adobe Illustrator 18.1.1, SVG Export Plug-In . SVG Version: 6.00 Build 0)  -->
<svg version="1.1" id="Layer_1" xmlns="http://www.w3.org/2000/svg" xmlns:xlink="http://www.w3.org/1999/xlink" x="0px" y="0px"
	 viewBox="-12 129 640 542.6" enable-background="new -12 129 640 542.6" xml:space="preserve">
<g id="Logo">
	<g id="Logotext" display="none">
		
			<text transform="matrix(1 0 0 1 2.8804 652.3555)" display="inline" fill="#FFFFFF" font-family="'PoiretOne-Regular'" font-size="44.3307" letter-spacing="-1">Graphic Designer | Web Developer</text>
		<g id="JS" display="inline">
			
				<text transform="matrix(1 0 0 1 384.9232 376.2305)" fill="#FFFFFF" font-family="'PoiretOne-Regular'" font-size="76.1385" letter-spacing="-3">Slavuter</text>
			
				<text transform="matrix(1 0 0 1 1.344079e-05 376.1995)" fill="#FFFFFF" font-family="'PoiretOne-Regular'" font-size="76.1385" letter-spacing="-3">Jonathan     </text>
		</g>
	</g>
	<g id="Logotext_1_">
		<g enable-background="new    ">
			<path fill="#FFFFFF" d="M18.7,639.7v-1.3h12.5v12c-2.6,1.6-5.5,2.4-8.8,2.4h-0.5c-3,0-5.9-0.8-8.5-2.4c-2.6-1.6-4.7-3.7-6.2-6.4
				c-1.5-2.6-2.3-5.5-2.3-8.4c0-4.7,1.7-8.7,5.1-12.1c3.4-3.4,7.5-5.1,12.2-5.1c3.2,0,6.2,0.8,9,2.5v1.6c-2.8-1.9-5.8-2.8-9-2.8
				c-4.3,0-8.1,1.6-11.2,4.7c-3.1,3.1-4.7,6.9-4.7,11.2s1.6,8.1,4.7,11.2c3.1,3.1,6.8,4.7,11.2,4.7c2.4,0,4.9-0.6,7.5-1.9v-10H18.7z
				"/>
			<path fill="#FFFFFF" d="M42.5,633.2c-1.6,0-2.9,0.6-4.1,1.8c-1.2,1.2-1.8,2.6-1.8,4.1v13.3h-1.4v-19.9h1.4v3
				c0.5-1,1.4-1.8,2.5-2.5c1.1-0.7,2.4-1,3.8-1c1.4,0,2.7,0.5,4,1.4v1.8C45.5,633.8,44,633.2,42.5,633.2z"/>
			<path fill="#FFFFFF" d="M69.3,632.4v19.9h-1.4v-5c-0.8,1.7-2.1,3-3.7,4c-1.7,1-3.4,1.5-5.3,1.5c-2.9,0-5.4-1-7.4-3.1
				c-2.1-2.1-3.1-4.5-3.1-7.4c0-2.9,1-5.3,3.1-7.4c2.1-2.1,4.6-3.1,7.4-3.1c1.9,0,3.7,0.5,5.4,1.5c1.7,1,2.9,2.3,3.6,4v-5H69.3z
				 M49.7,642.4c0,2.5,0.9,4.6,2.7,6.5c1.8,1.8,4,2.7,6.5,2.7c2.5,0,4.6-0.9,6.4-2.7c1.8-1.8,2.7-4,2.7-6.5c0-2.5-0.9-4.7-2.7-6.5
				s-3.9-2.7-6.4-2.7s-4.6,0.9-6.5,2.8C50.6,637.8,49.7,639.9,49.7,642.4z"/>
			<path fill="#FFFFFF" d="M73.5,661.2v-28.8h1.4v4.9c0.8-1.6,2-2.9,3.7-3.9c1.7-1,3.5-1.5,5.3-1.5c2.9,0,5.4,1,7.5,3.1
				c2.1,2.1,3.1,4.5,3.1,7.4c0,2.9-1,5.3-3.1,7.4c-2.1,2.1-4.5,3.1-7.5,3.1c-1.8,0-3.5-0.5-5.2-1.4s-3-2.3-3.9-3.9v13.7H73.5z
				 M74.8,642.4c0,2.5,0.9,4.6,2.7,6.5c1.8,1.8,4,2.7,6.5,2.7c2.5,0,4.6-0.9,6.4-2.7c1.8-1.8,2.7-4,2.7-6.5c0-2.5-0.9-4.7-2.7-6.5
				s-3.9-2.7-6.4-2.7c-2.5,0-4.6,0.9-6.4,2.8C75.7,637.8,74.8,639.9,74.8,642.4z"/>
			<path fill="#FFFFFF" d="M98.9,652.4h-1.4v-33.2h1.4v17.1c1.5-2.9,4-4.3,7.7-4.3c2.5,0,4.6,0.9,6.3,2.6c1.7,1.7,2.5,3.8,2.5,6.3
				v11.6H114v-11.6c0-2.1-0.7-3.8-2.2-5.3c-1.4-1.5-3.2-2.2-5.2-2.2s-3.8,0.8-5.4,2.3c-1.5,1.5-2.3,3.3-2.3,5.3V652.4z"/>
			<path fill="#FFFFFF" d="M120.4,627.6c-0.9,0-1.3-0.4-1.3-1.2s0.4-1.2,1.3-1.2c0.9,0,1.3,0.4,1.3,1.2S121.3,627.6,120.4,627.6z
				 M121.2,632.5v19.9h-1.4v-19.9H121.2z"/>
			<path fill="#FFFFFF" d="M135.6,652.9h-0.4c-2.8,0-5.3-1-7.3-3.1c-2-2.1-3.1-4.6-3.1-7.4s1-5.3,3.1-7.3c2.1-2.1,4.6-3.1,7.6-3.1
				c3,0,5.6,1.1,7.7,3.4v2.3c-0.9-1.4-2.1-2.4-3.5-3.2c-1.4-0.8-2.9-1.2-4.4-1.2c-2.5,0-4.6,0.9-6.4,2.7c-1.8,1.8-2.7,4-2.7,6.5
				c0,2.5,0.9,4.7,2.7,6.5c1.8,1.8,4,2.7,6.4,2.7c1.5,0,3-0.4,4.4-1.2c1.4-0.8,2.6-1.9,3.5-3.3v2.3
				C141.2,651.8,138.6,652.9,135.6,652.9z"/>
			<path fill="#FFFFFF" d="M160.9,619.1h1.4c5,0,9,1.6,12,4.9c3,3.3,4.6,7.2,4.6,11.7c0,4.6-1.5,8.5-4.5,11.7c-3,3.3-7,4.9-12,4.9
				h-1.4V619.1z M162.6,620.4h-0.4V651h0.4c4.3,0,7.9-1.5,10.6-4.5c2.8-3,4.1-6.6,4.1-10.8s-1.4-7.8-4.1-10.8
				C170.5,621.9,167,620.4,162.6,620.4z"/>
			<path fill="#FFFFFF" d="M192.3,652.9h-0.4c-2.8,0-5.3-1.1-7.3-3.2c-2.1-2.1-3.1-4.6-3.1-7.4s1-5.2,3.1-7.3
				c2.1-2.1,4.6-3.1,7.7-3.1s5.7,1.2,7.8,3.6l-13.9,13.7c1.9,1.5,3.8,2.3,5.5,2.3c1.8,0,3.4-0.4,4.8-1.2c1.4-0.8,2.6-1.9,3.5-3.3
				v2.3C197.9,651.7,195.3,652.9,192.3,652.9z M191.9,633.2c-2.3,0-4.4,0.9-6.3,2.7c-1.8,1.8-2.7,3.9-2.7,6.3s0.8,4.4,2.3,6.2
				l12.9-12.8C196.3,634,194.2,633.2,191.9,633.2z"/>
			<path fill="#FFFFFF" d="M207.5,633.1c-0.8,0-1.4,0.3-2,0.8c-0.6,0.5-0.9,1.1-0.9,1.9c0,0.7,0.3,1.4,1,2c0.7,0.6,1.5,1.2,2.4,1.7
				c0.9,0.5,1.9,1.1,2.8,1.7c0.9,0.6,1.8,1.3,2.4,2.3c0.7,0.9,1,2,1,3.1c0,1.7-0.7,3.2-2,4.5c-1.3,1.2-2.9,1.8-4.8,1.8
				c-1.2,0-2.3-0.3-3.3-0.8s-1.8-1.2-2.2-2.1v-2.1c1.1,2.5,2.9,3.7,5.4,3.7c1.5,0,2.8-0.5,3.9-1.4c1-0.9,1.6-2,1.6-3.2
				c0-1.2-0.3-2.2-1-2.9s-1.5-1.5-2.4-2c-0.9-0.6-1.9-1.1-2.8-1.7c-0.9-0.5-1.7-1.2-2.4-2s-1-1.7-1-2.7s0.4-1.9,1.3-2.7
				c0.8-0.7,1.9-1.1,3.3-1.1s2.5,0.5,3.4,1.6v1.8C210.2,633.8,209,633.1,207.5,633.1z"/>
			<path fill="#FFFFFF" d="M218.5,627.6c-0.9,0-1.3-0.4-1.3-1.2s0.4-1.2,1.3-1.2c0.9,0,1.3,0.4,1.3,1.2S219.4,627.6,218.5,627.6z
				 M219.3,632.5v19.9h-1.4v-19.9H219.3z"/>
			<path fill="#FFFFFF" d="M242.5,632.4h1.4v18.1c0,3.4-0.9,6.1-2.8,8.1c-1.9,2-4.4,3-7.4,3c-1.7,0-3.3-0.4-4.9-1.2
				c-1.6-0.8-2.8-1.8-3.7-3v-2c0.8,1.4,2,2.6,3.6,3.5c1.6,0.9,3.3,1.4,5,1.4c2.6,0,4.7-0.9,6.4-2.6c1.7-1.8,2.5-4.2,2.5-7.2v-3
				c-0.8,1.6-2.1,2.9-3.8,3.9c-1.7,1-3.5,1.5-5.3,1.5c-2.9,0-5.4-1-7.4-3.1c-2.1-2.1-3.1-4.5-3.1-7.4s1-5.3,3.1-7.4
				c2.1-2.1,4.6-3.1,7.4-3.1c1.9,0,3.7,0.5,5.4,1.4c1.7,1,2.9,2.3,3.7,4V632.4z M224.3,642.4c0,2.5,0.9,4.7,2.7,6.5
				c1.8,1.8,4,2.7,6.5,2.7c2.5,0,4.6-0.9,6.4-2.7c1.8-1.8,2.7-4,2.7-6.5s-0.9-4.7-2.7-6.5c-1.8-1.8-3.9-2.7-6.4-2.7
				c-2.5,0-4.7,0.9-6.5,2.7C225.2,637.7,224.3,639.9,224.3,642.4z"/>
			<path fill="#FFFFFF" d="M249.5,652.4h-1.4v-19.9h1.4v4c1.5-3,4.1-4.5,7.7-4.5c2.5,0,4.6,0.9,6.3,2.6s2.5,3.8,2.5,6.3v11.6h-1.4
				v-11.6c0-2-0.7-3.8-2.1-5.3c-1.4-1.5-3.2-2.3-5.2-2.3s-3.8,0.8-5.4,2.3c-1.6,1.5-2.3,3.3-2.3,5.3V652.4z"/>
			<path fill="#FFFFFF" d="M280.2,652.9h-0.4c-2.8,0-5.3-1.1-7.3-3.2c-2.1-2.1-3.1-4.6-3.1-7.4s1-5.2,3.1-7.3
				c2.1-2.1,4.6-3.1,7.7-3.1s5.7,1.2,7.8,3.6L274,649.3c1.9,1.5,3.8,2.3,5.5,2.3c1.8,0,3.4-0.4,4.8-1.2c1.4-0.8,2.6-1.9,3.5-3.3v2.3
				C285.7,651.7,283.1,652.9,280.2,652.9z M279.7,633.2c-2.3,0-4.4,0.9-6.3,2.7c-1.8,1.8-2.7,3.9-2.7,6.3s0.8,4.4,2.3,6.2l12.9-12.8
				C284.1,634,282,633.2,279.7,633.2z"/>
			<path fill="#FFFFFF" d="M298.3,633.2c-1.6,0-2.9,0.6-4.1,1.8c-1.2,1.2-1.8,2.6-1.8,4.1v13.3H291v-19.9h1.4v3
				c0.5-1,1.4-1.8,2.5-2.5c1.1-0.7,2.4-1,3.8-1c1.4,0,2.7,0.5,4,1.4v1.8C301.3,633.8,299.9,633.2,298.3,633.2z"/>
			<path fill="#FFFFFF" d="M320.3,652.4v-33.2h1.5v33.2H320.3z"/>
			<path fill="#FFFFFF" d="M353.8,652.9l-14.6-33.8h1.6l13.2,30.5l6.2-14.4l-6.9-16h1.6l6.2,14.6l6.3-14.6h1.2l-6.9,16l6.3,14.6
				l13.4-30.6h1.2l-14.8,33.8l-7-16.2L353.8,652.9z"/>
			<path fill="#FFFFFF" d="M389.6,652.9h-0.4c-2.8,0-5.3-1.1-7.3-3.2c-2.1-2.1-3.1-4.6-3.1-7.4s1-5.2,3.1-7.3
				c2.1-2.1,4.6-3.1,7.7-3.1c3,0,5.7,1.2,7.8,3.6l-13.9,13.7c1.9,1.5,3.8,2.3,5.5,2.3s3.4-0.4,4.8-1.2c1.4-0.8,2.6-1.9,3.5-3.3v2.3
				C395.1,651.7,392.6,652.9,389.6,652.9z M389.1,633.2c-2.3,0-4.4,0.9-6.3,2.7s-2.7,3.9-2.7,6.3s0.8,4.4,2.3,6.2l12.9-12.8
				C393.6,634,391.5,633.2,389.1,633.2z"/>
			<path fill="#FFFFFF" d="M400.4,652.4v-33.2h1.4v18.2c0.8-1.6,2-2.9,3.7-3.9s3.5-1.5,5.3-1.5c2.9,0,5.4,1,7.5,3.1
				c2.1,2.1,3.1,4.5,3.1,7.4c0,2.9-1,5.3-3.1,7.4c-2.1,2.1-4.5,3.1-7.5,3.1c-1.8,0-3.5-0.5-5.2-1.4s-3-2.3-3.9-3.9v4.8H400.4z
				 M401.8,642.4c0,2.5,0.9,4.6,2.7,6.5c1.8,1.8,4,2.7,6.5,2.7c2.5,0,4.6-0.9,6.4-2.7c1.8-1.8,2.7-4,2.7-6.5c0-2.5-0.9-4.7-2.7-6.5
				c-1.8-1.8-3.9-2.7-6.4-2.7s-4.6,0.9-6.5,2.8C402.7,637.8,401.8,639.9,401.8,642.4z"/>
			<path fill="#FFFFFF" d="M439.5,619.1h1.4c5,0,9,1.6,12,4.9c3,3.3,4.6,7.2,4.6,11.7c0,4.6-1.5,8.5-4.5,11.7c-3,3.3-7,4.9-12,4.9
				h-1.4V619.1z M441.3,620.4h-0.4V651h0.4c4.3,0,7.9-1.5,10.6-4.5c2.8-3,4.1-6.6,4.1-10.8s-1.4-7.8-4.1-10.8
				S445.6,620.4,441.3,620.4z"/>
			<path fill="#FFFFFF" d="M471,652.9h-0.4c-2.8,0-5.3-1.1-7.3-3.2c-2.1-2.1-3.1-4.6-3.1-7.4s1-5.2,3.1-7.3c2.1-2.1,4.6-3.1,7.7-3.1
				c3,0,5.7,1.2,7.8,3.6l-13.9,13.7c1.9,1.5,3.8,2.3,5.5,2.3s3.4-0.4,4.8-1.2c1.4-0.8,2.6-1.9,3.5-3.3v2.3
				C476.5,651.7,474,652.9,471,652.9z M470.5,633.2c-2.3,0-4.4,0.9-6.3,2.7s-2.7,3.9-2.7,6.3s0.8,4.4,2.3,6.2l12.9-12.8
				C475,634,472.9,633.2,470.5,633.2z"/>
			<path fill="#FFFFFF" d="M498.6,632.4h1.3l-9.8,20.5l-9.8-20.5h1.6l8.4,17.5L498.6,632.4z"/>
			<path fill="#FFFFFF" d="M512.5,652.9h-0.4c-2.8,0-5.3-1.1-7.3-3.2c-2.1-2.1-3.1-4.6-3.1-7.4s1-5.2,3.1-7.3
				c2.1-2.1,4.6-3.1,7.7-3.1c3,0,5.7,1.2,7.8,3.6l-13.9,13.7c1.9,1.5,3.8,2.3,5.5,2.3s3.4-0.4,4.8-1.2c1.4-0.8,2.6-1.9,3.5-3.3v2.3
				C518,651.7,515.5,652.9,512.5,652.9z M512,633.2c-2.3,0-4.4,0.9-6.3,2.7s-2.7,3.9-2.7,6.3s0.8,4.4,2.3,6.2l12.9-12.8
				C516.5,634,514.4,633.2,512,633.2z"/>
			<path fill="#FFFFFF" d="M530.9,651.5v1.2c-2.1,0-3.9-0.7-5.4-2.1c-1.5-1.4-2.2-3.2-2.2-5.4v-26.2h1.4v26.2c0,1.8,0.6,3.3,1.8,4.5
				C527.7,650.9,529.2,651.5,530.9,651.5z"/>
			<path fill="#FFFFFF" d="M533.5,649.7c-2-2.1-3.1-4.6-3.1-7.4c0-2.8,1-5.2,3.1-7.3c2.1-2.1,4.6-3.1,7.5-3.1s5.4,1,7.4,3.1
				c2.1,2.1,3.1,4.5,3.1,7.3s-1,5.3-3,7.4c-2,2.1-4.4,3.1-7.3,3.1h-0.4C537.9,652.8,535.5,651.8,533.5,649.7z M550.1,642.4
				c0-2.5-0.9-4.7-2.7-6.5c-1.8-1.8-3.9-2.7-6.4-2.7s-4.6,0.9-6.5,2.8c-1.8,1.8-2.7,4-2.7,6.5s0.9,4.6,2.7,6.5
				c1.8,1.8,4,2.7,6.5,2.7c2.5,0,4.6-0.9,6.4-2.7C549.2,647.1,550.1,644.9,550.1,642.4z"/>
			<path fill="#FFFFFF" d="M554.6,661.2v-28.8h1.4v4.9c0.8-1.6,2-2.9,3.7-3.9s3.5-1.5,5.3-1.5c2.9,0,5.4,1,7.5,3.1
				c2.1,2.1,3.1,4.5,3.1,7.4c0,2.9-1,5.3-3.1,7.4c-2.1,2.1-4.5,3.1-7.5,3.1c-1.8,0-3.5-0.5-5.2-1.4s-3-2.3-3.9-3.9v13.7H554.6z
				 M555.9,642.4c0,2.5,0.9,4.6,2.7,6.5c1.8,1.8,4,2.7,6.5,2.7c2.5,0,4.6-0.9,6.4-2.7c1.8-1.8,2.7-4,2.7-6.5c0-2.5-0.9-4.7-2.7-6.5
				c-1.8-1.8-3.9-2.7-6.4-2.7s-4.6,0.9-6.5,2.8C556.8,637.8,555.9,639.9,555.9,642.4z"/>
			<path fill="#FFFFFF" d="M588.6,652.9h-0.4c-2.8,0-5.3-1.1-7.3-3.2c-2.1-2.1-3.1-4.6-3.1-7.4s1-5.2,3.1-7.3
				c2.1-2.1,4.6-3.1,7.7-3.1c3,0,5.7,1.2,7.8,3.6l-13.9,13.7c1.9,1.5,3.8,2.3,5.5,2.3s3.4-0.4,4.8-1.2c1.4-0.8,2.6-1.9,3.5-3.3v2.3
				C594.1,651.7,591.6,652.9,588.6,652.9z M588.1,633.2c-2.3,0-4.4,0.9-6.3,2.7s-2.7,3.9-2.7,6.3s0.8,4.4,2.3,6.2l12.9-12.8
				C592.6,634,590.5,633.2,588.1,633.2z"/>
			<path fill="#FFFFFF" d="M606.8,633.2c-1.6,0-2.9,0.6-4.1,1.8c-1.2,1.2-1.8,2.6-1.8,4.1v13.3h-1.4v-19.9h1.4v3
				c0.5-1,1.4-1.8,2.5-2.5s2.4-1,3.8-1c1.4,0,2.7,0.5,4,1.4v1.8C609.8,633.8,608.4,633.2,606.8,633.2z"/>
		</g>
		<g id="JS_1_">
			<g enable-background="new    ">
				<path fill="#FFFFFF" d="M408.9,322.2c-2-1.2-4.3-1.8-6.7-1.8c-2.5,0-4.6,0.8-6.4,2.3c-1.8,1.5-2.6,3.7-2.6,6.4v0.4
					c0,3.2,1.8,6.1,5.3,8.8c1.5,1.1,3.2,2.2,5.1,3.3c1.9,1.1,3.8,2.3,5.7,3.5c1.9,1.2,3.6,2.6,5.2,4c1.5,1.4,2.8,3.1,3.8,5.1
					c1,2,1.5,4.3,1.5,6.7v0.8c0,4.8-1.6,8.7-4.9,11.5c-3.3,2.8-7.3,4.3-12.1,4.3c-6.3,0-11.3-2.6-14.8-7.8v-4.1
					c1.3,2.9,3.3,5.2,5.8,7c2.6,1.8,5.7,2.7,9.6,2.7c3.8,0,7.1-1.2,9.9-3.7c2.8-2.4,4.2-5.7,4.2-9.7v-0.5c0-2.5-0.7-4.9-2-7
					c-1.3-2.1-3-3.8-4.9-5.2c-2-1.3-4.1-2.8-6.5-4.2c-2.3-1.5-4.5-2.8-6.5-4.1c-2-1.3-3.6-2.9-4.9-4.8c-1.3-1.9-2-4-2-6.3v-0.5
					c0-3.6,1.1-6.3,3.4-8.1c2.3-1.9,5.1-2.8,8.5-2.8c4.7,0,8.4,1.7,11.1,5.2v3.9C412.5,325.1,410.9,323.4,408.9,322.2z"/>
				<path fill="#FFFFFF" d="M436.9,374.8v2.1c-3.6,0-6.7-1.2-9.2-3.6c-2.5-2.4-3.8-5.5-3.8-9.3v-44.9h2.4V364c0,3.1,1,5.7,3.1,7.7
					C431.5,373.8,434,374.8,436.9,374.8z"/>
				<path fill="#FFFFFF" d="M470.7,342v34.3h-2.4v-8.5c-1.4,2.9-3.6,5.2-6.4,6.9c-2.8,1.7-5.9,2.5-9.1,2.5c-5,0-9.2-1.8-12.8-5.3
					c-3.6-3.5-5.3-7.8-5.3-12.7c0-4.9,1.8-9.1,5.3-12.7c3.6-3.5,7.8-5.3,12.8-5.3c3.2,0,6.4,0.9,9.3,2.6c3,1.7,5,4,6.2,6.9V342
					H470.7z M437,359.2c0,4.3,1.6,8,4.7,11.1c3.1,3.1,6.8,4.7,11.1,4.7c4.3,0,8-1.6,11-4.7c3-3.1,4.6-6.8,4.6-11.1
					c0-4.3-1.5-8-4.6-11.2c-3.1-3.1-6.7-4.7-11-4.7s-8,1.6-11.1,4.8C438.6,351.2,437,354.9,437,359.2z"/>
				<path fill="#FFFFFF" d="M505.1,342h2.2l-16.8,35.3L473.6,342h2.7l14.5,30.1L505.1,342z"/>
				<path fill="#FFFFFF" d="M537.9,342h2.4v34.3h-2.4v-6.9c-2.6,5.2-7,7.8-13.2,7.8c-4.3,0-7.8-1.5-10.7-4.4
					c-2.9-2.9-4.3-6.5-4.3-10.7V342h2.4v19.9c0,3.5,1.2,6.5,3.7,9.1c2.5,2.6,5.4,3.9,8.9,3.9c3.5,0,6.6-1.3,9.2-3.9
					c2.7-2.6,4-5.6,4-9.1V342z"/>
				<path fill="#FFFFFF" d="M557.4,374.6v2.1c-3.6,0-6.7-1.2-9.2-3.6c-2.5-2.4-3.8-5.5-3.8-9.3v-35.6h2.4V342h10.5v2.1h-10.5v19.6
					c0,3.1,1,5.7,3.1,7.7C552,373.5,554.5,374.6,557.4,374.6z"/>
				<path fill="#FFFFFF" d="M577.2,377.1h-0.7c-4.8,0-9-1.8-12.6-5.4c-3.6-3.6-5.4-7.9-5.4-12.7c0-4.8,1.8-9,5.3-12.5
					c3.6-3.5,7.9-5.3,13.2-5.3c5.2,0,9.7,2.1,13.5,6.2l-23.9,23.6c3.3,2.6,6.5,4,9.5,4c3,0,5.8-0.7,8.2-2.1c2.4-1.4,4.4-3.3,6-5.6
					v3.9C586.7,375.2,582.3,377.1,577.2,377.1z M576.4,343.3c-4,0-7.6,1.6-10.7,4.7c-3.1,3.1-4.7,6.7-4.7,10.8c0,4.1,1.3,7.6,4,10.7
					l22.2-22C584,344.7,580.4,343.3,576.4,343.3z"/>
				<path fill="#FFFFFF" d="M606.9,343.3c-2.7,0-5.1,1-7.1,3c-2.1,2-3.1,4.4-3.1,7.1v22.8h-2.4V342h2.4v5.1c0.9-1.7,2.3-3.1,4.3-4.3
					c1.9-1.1,4.1-1.7,6.5-1.7c2.4,0,4.7,0.8,6.9,2.4v3C612,344.4,609.6,343.3,606.9,343.3z"/>
			</g>
			<g enable-background="new    ">
				<path fill="#FFFFFF" d="M13.2,321.3v-2.2h16.6v39.6c0,5.5-1.5,10-4.5,13.5c-3,3.5-7,5.2-11.8,5.2h-0.8c-4.1,0-7.8-1.4-11.2-4.3
					v-3.1c3.2,3.5,7,5.3,11.5,5.3c4.5,0,8-1.5,10.5-4.5c2.5-3,3.8-6.9,3.8-11.6v-37.7H13.2z"/>
				<path fill="#FFFFFF" d="M40,371.6c-3.5-3.6-5.3-7.9-5.3-12.7c0-4.8,1.8-9,5.3-12.5c3.6-3.5,7.8-5.3,12.8-5.3
					c5,0,9.3,1.8,12.8,5.3c3.5,3.5,5.3,7.7,5.3,12.6c0,4.8-1.7,9.1-5.2,12.7c-3.5,3.6-7.6,5.4-12.6,5.4h-0.7
					C47.7,377,43.5,375.2,40,371.6z M68.5,359.1c0-4.3-1.5-8-4.6-11.2c-3.1-3.1-6.7-4.7-11-4.7s-8,1.6-11.1,4.8
					c-3.1,3.2-4.7,6.9-4.7,11.2s1.6,8,4.7,11.1c3.1,3.1,6.8,4.7,11.1,4.7c4.3,0,8-1.6,11-4.7C67,367.1,68.5,363.4,68.5,359.1z"/>
				<path fill="#FFFFFF" d="M77.1,376.2h-2.4v-34.3h2.4v6.9c2.6-5.2,7-7.8,13.2-7.8c4.3,0,7.8,1.5,10.7,4.4
					c2.9,2.9,4.3,6.5,4.3,10.7v19.9H103v-19.9c0-3.5-1.2-6.5-3.7-9.1c-2.5-2.6-5.4-3.9-8.9-3.9s-6.6,1.3-9.3,3.9
					c-2.7,2.6-4,5.6-4,9.1V376.2z"/>
				<path fill="#FFFFFF" d="M145.3,341.9v34.3h-2.4v-8.5c-1.4,2.9-3.6,5.2-6.4,6.9c-2.8,1.7-5.9,2.5-9.1,2.5c-5,0-9.2-1.8-12.8-5.3
					c-3.6-3.5-5.3-7.8-5.3-12.7c0-4.9,1.8-9.1,5.3-12.7c3.6-3.5,7.8-5.3,12.8-5.3c3.2,0,6.4,0.9,9.3,2.6c3,1.7,5,4,6.2,6.9v-8.6
					H145.3z M111.6,359.1c0,4.3,1.6,8,4.7,11.1c3.1,3.1,6.8,4.7,11.1,4.7c4.3,0,8-1.6,11-4.7c3-3.1,4.6-6.8,4.6-11.1
					c0-4.3-1.5-8-4.6-11.2c-3.1-3.1-6.7-4.7-11-4.7s-8,1.6-11.1,4.8C113.2,351.2,111.6,354.9,111.6,359.1z"/>
				<path fill="#FFFFFF" d="M163.2,374.5v2.1c-3.6,0-6.7-1.2-9.2-3.6c-2.5-2.4-3.8-5.5-3.8-9.3v-35.6h2.4V342h10.5v2.1h-10.5v19.6
					c0,3.1,1,5.7,3.1,7.7C157.7,373.5,160.2,374.5,163.2,374.5z"/>
				<path fill="#FFFFFF" d="M168.2,376.2h-2.4v-57h2.4v29.4c2.5-5,6.9-7.5,13.2-7.5c4.3,0,7.9,1.5,10.8,4.4
					c2.9,2.9,4.4,6.5,4.4,10.7v19.9h-2.4v-19.9c0-3.6-1.2-6.6-3.7-9.2c-2.5-2.6-5.5-3.8-9-3.8s-6.6,1.3-9.2,3.9
					c-2.6,2.6-4,5.6-4,9.1V376.2z"/>
				<path fill="#FFFFFF" d="M235.6,341.9v34.3h-2.4v-8.5c-1.4,2.9-3.6,5.2-6.4,6.9c-2.8,1.7-5.9,2.5-9.1,2.5c-5,0-9.2-1.8-12.8-5.3
					c-3.6-3.5-5.3-7.8-5.3-12.7c0-4.9,1.8-9.1,5.3-12.7c3.6-3.5,7.8-5.3,12.8-5.3c3.2,0,6.4,0.9,9.3,2.6c3,1.7,5,4,6.2,6.9v-8.6
					H235.6z M201.9,359.1c0,4.3,1.6,8,4.7,11.1c3.1,3.1,6.8,4.7,11.1,4.7c4.3,0,8-1.6,11-4.7c3-3.1,4.6-6.8,4.6-11.1
					c0-4.3-1.5-8-4.6-11.2c-3.1-3.1-6.7-4.7-11-4.7s-8,1.6-11.1,4.8C203.5,351.2,201.9,354.9,201.9,359.1z"/>
				<path fill="#FFFFFF" d="M243.6,376.2h-2.4v-34.3h2.4v6.9c2.6-5.2,7-7.8,13.2-7.8c4.3,0,7.8,1.5,10.7,4.4
					c2.9,2.9,4.3,6.5,4.3,10.7v19.9h-2.4v-19.9c0-3.5-1.2-6.5-3.7-9.1c-2.5-2.6-5.4-3.9-8.9-3.9s-6.6,1.3-9.3,3.9
					c-2.7,2.6-4,5.6-4,9.1V376.2z"/>
			</g>
		</g>
	</g>
	<g id="Logogram">
		<g id="Logo_1_">
			<g id="Blank_1_">
				<path fill="#D3D3D3" stroke="#FFFFFF" stroke-miterlimit="10" d="M305.3,364.2l-11.9,11.9l-11.9,11.9l-11.9,11.9l-5.9,5.9
					c-2,2-3.9,4.1-5.7,6.2c-3.7,4.5-6.9,9.2-9.7,14.1c-3,5.3-5.4,10.9-7.2,16.6c-1.4,4.3-2.5,8.6-3.2,13c-0.4,2.2-0.7,4.5-0.9,6.7
					c-0.6,5.9-0.6,11.8,0,17.6c0.2,2.4,0.6,4.7,1,7.1c0.8,4.2,1.8,8.5,3.1,12.6c1.8,5.7,4.2,11.2,7.2,16.6c2.7,4.9,6,9.7,9.7,14.1
					c5.9-5.9,15.1-6.4,21.6-1.6c-1.4-1.2-2.8-2.5-4.1-3.8c-1.3-1.3-2.6-2.7-3.8-4.2c-0.7-0.8-1.3-1.5-1.9-2.3
					c-3.6-4.6-6.7-9.5-9.1-14.6c-2.7-5.7-4.7-11.8-5.9-17.9c-0.4-2.3-0.8-4.6-1-6.9c-0.6-5.3-0.5-10.7,0.1-16c0.2-2.2,0.6-4.5,1-6.6
					c1.2-6.1,3.2-12.1,6-17.8c2.5-5.1,5.5-10,9.2-14.6l0,0c1.7-2.1,3.5-4.5,5.5-6.4l5.9-5.9l11.9-11.9l11.9-11.9l11.9-11.9
					l11.9-11.9l-11.9-11.9L305.3,364.2z"/>
				<path fill="#D3D3D3" stroke="#FFFFFF" stroke-miterlimit="10" d="M378.4,176c1.5,1.3,2.9,2.5,4.3,3.9c2,2,3.8,4,5.5,6.2
					c3.7,4.6,6.7,9.5,9.2,14.6c2.7,5.7,4.7,11.7,5.9,17.8c0.4,2.3,0.8,4.6,1,6.8c0.6,5.3,0.6,10.6,0,15.9c-0.2,2.3-0.6,4.6-1,6.8
					c-1.2,6.1-3.2,12.1-5.9,17.8c-2.5,5.1-5.5,10-9.2,14.6l0,0c-1.7,2.1-3.6,4.2-5.5,6.2l-6,6l-11.9,11.9l0,0l-11.9,11.9l0,0
					L341,328.6l-11.8,11.7l11.9,11.9l11.7-11.7l11.9-11.9l11.9-11.9l11.9-11.9l5.9-5.9c2-2,4-3.9,5.8-6.1c3.7-4.4,6.9-9.1,9.7-14.1
					c0,0,0,0,0,0c3-5.3,5.4-10.9,7.2-16.6c1.4-4.3,2.5-8.6,3.2-13c0.4-2.2,0.7-4.5,0.9-6.7c0.6-6,0.6-12,0-18
					c-0.2-2.3-0.6-4.6-0.9-6.8c-0.8-4.4-1.8-8.6-3.2-12.8c-1.9-5.7-4.3-11.2-7.2-16.5c-2.8-4.9-6-9.6-9.7-14
					C394.1,180.3,384.9,180.7,378.4,176z"/>
			</g>
			<path id="S_1_" fill="#25BA6C" stroke="#FFFFFF" stroke-miterlimit="10" d="M394.6,168.1c-2.1-2.1-4.2-4-6.4-5.8
				c-4.4-3.7-9.1-6.8-13.9-9.6c-5.4-3-11-5.5-16.8-7.3c-4.1-1.3-8.2-2.3-12.3-3c-2.5-0.4-4.9-0.8-7.4-1c-5.8-0.5-11.6-0.5-17.4,0
				c-2.5,0.2-5,0.6-7.5,1c-4.1,0.8-8.2,1.7-12.2,3c-5.7,1.9-11.2,4.2-16.6,7.2c-4.9,2.8-9.7,6-14.1,9.7c-2.1,1.8-4.2,3.6-6.2,5.7
				c-2,2-3.9,4.1-5.7,6.3c-3.7,4.4-6.9,9.2-9.7,14.1l0,0c-3,5.3-5.4,10.9-7.2,16.6l0,0c-1.3,4-2.3,8.1-3,12.2c-0.4,2.5-0.8,5-1,7.5
				c-0.6,5.8-0.6,11.6,0,17.4c0.2,2.5,0.6,4.9,1,7.4c0.7,4.2,1.7,8.3,3,12.3c1.9,5.8,4.3,11.4,7.3,16.8c2.7,4.9,5.9,9.5,9.5,13.9
				c6.5-6.5,17.1-6.4,23.7,0.1l-5.9-5.9c-2.1-2-3.9-4.2-5.7-6.4c-3.6-4.5-6.6-9.4-9.1-14.4c-2.8-5.8-4.8-11.9-6-18.1
				c-0.4-2.1-0.7-4.2-0.9-6.2c-0.6-5.5-0.6-11.1,0-16.7c0.2-2.1,0.5-4.2,0.9-6.2l0,0c1.2-6.1,3.2-12.1,5.9-17.9l0,0
				c2.5-5.1,5.5-10,9.1-14.6c1.7-2.2,3.6-4.4,5.7-6.4c2-2,4.1-3.8,6.2-5.5c4.6-3.7,9.5-6.7,14.6-9.2c5.7-2.7,11.7-4.7,17.8-5.9
				c2.1-0.4,4.3-0.8,6.5-1c5.4-0.6,10.9-0.6,16.3,0c2.2,0.2,4.4,0.6,6.6,1c6.2,1.2,12.3,3.2,18.1,6c5.1,2.4,9.9,5.4,14.4,9.1
				c0.7,0.6,1.4,1.1,2.1,1.7c6.6,4.7,15.7,4.3,21.8-1.8C398.4,172.1,396.6,170.1,394.6,168.1C394.7,168.1,394.7,168.1,394.6,168.1
				L394.6,168.1z"/>
			<path id="J_1_" stroke="#FFFFFF" stroke-miterlimit="10" d="M317.4,328.3l-11.9-11.9l-11.9-11.9l-11.9-11.9
				c-6.6-6.6-17.2-6.6-23.7-0.1c1.8,2.2,3.8,4.4,5.8,6.4l5.8,5.8l11.9,11.9l11.9,11.9l11.9,11.9l11.9,11.9l11.9,11.9l11.9,11.9
				l11.9,11.9l11.9,11.9l11.9,11.9l5.9,5.9c1.9,1.9,3.8,4.3,5.5,6.4c3.7,4.6,6.7,9.5,9.2,14.6c2.8,5.7,4.7,11.7,6,17.8
				c0.4,2.2,0.8,4.4,1,6.7c0.6,5.3,0.6,10.7,0.1,16c-0.2,2.3-0.6,4.6-1,6.9c-1.2,6.1-3.2,12.1-5.9,17.9c-2.4,5.1-5.5,10-9.1,14.6
				c-1.8,2.2-3.7,4.4-5.7,6.4c-1.9,1.9-4,3.8-6.1,5.5c-4.6,3.7-9.5,6.7-14.6,9.2c-5.7,2.7-11.7,4.7-17.8,6c-2.5,0.5-4.9,0.9-7.4,1.1
				c-5.1,0.5-10.2,0.5-15.3,0c-2.5-0.2-4.9-0.6-7.4-1.1c-6.1-1.2-12.1-3.2-17.8-6c-5.1-2.5-10-5.5-14.6-9.2
				c-0.7-0.5-1.3-1.1-1.9-1.7c0,0,0,0-0.1,0c-6.6-4.8-15.7-4.4-21.6,1.6c1.8,2.1,3.7,4.2,5.7,6.3c2,2,4.1,3.9,6.2,5.7
				c4.5,3.7,9.2,6.9,14.1,9.7c5.3,3,10.8,5.4,16.6,7.2c4.1,1.3,8.3,2.4,12.6,3.1c2.4,0.4,4.7,0.8,7.1,1c5.9,0.6,11.8,0.6,17.7,0
				c2.5-0.2,5-0.6,7.5-1.1c4.1-0.7,8.2-1.7,12.2-3c5.7-1.9,11.2-4.2,16.6-7.2c4.9-2.7,9.7-6,14.1-9.7c2.1-1.8,4.2-3.6,6.2-5.7
				c2-2,3.9-4.1,5.7-6.2c3.7-4.5,6.9-9.2,9.7-14.1c3-5.3,5.4-10.9,7.2-16.6c1.3-4,2.3-8.1,3-12.2c0.4-2.5,0.8-5,1-7.5
				c0.6-5.9,0.6-11.8,0-17.6c-0.2-2.4-0.6-4.7-1-7.1c-0.8-4.2-1.8-8.5-3.1-12.6c-1.9-5.7-4.2-11.2-7.2-16.6c-2.8-4.9-6-9.7-9.7-14.1
				c-1.8-2.1-3.6-4.2-5.7-6.2l-5.9-5.9l-11.9-11.9l-11.9-11.9l-11.9-11.9l-11.7-12.1l-11.9-11.9L317.4,328.3z"/>
		</g>
		<g id="Logo_2_" opacity="0.5">
			
				<linearGradient id="Blank_3_" gradientUnits="userSpaceOnUse" x1="831.8939" y1="-193.4999" x2="831.8939" y2="706.7" gradientTransform="matrix(0.3957 0 0 -0.3957 0 453.7855)">
				<stop  offset="0" style="stop-color:#000000"/>
				<stop  offset="1" style="stop-color:#FFFFFF"/>
			</linearGradient>
			<path id="Blank_2_" fill="url(#Blank_3_)" stroke="#FFFFFF" stroke-miterlimit="10" d="M317.2,352.3l11.9,11.9l-11.9,11.9
				L305.3,388l-11.9,11.9l-11.9,11.9l-5.9,5.9c-1.9,1.9-3.8,4.3-5.5,6.4l0,0c-3.7,4.6-6.7,9.5-9.2,14.6c-2.8,5.7-4.7,11.7-6,17.8
				c-0.4,2.2-0.8,4.4-1,6.6c-0.6,5.3-0.6,10.7-0.1,16c0.2,2.3,0.6,4.6,1,6.9c1.2,6.1,3.2,12.1,5.9,17.9c2.4,5.1,5.5,10,9.1,14.6
				c0.6,0.8,1.3,1.5,1.9,2.3c1.2,1.4,2.5,2.8,3.8,4.2c1.3,1.3,2.7,2.6,4.1,3.8c-6.6-4.8-15.7-4.4-21.6,1.6
				c-3.7-4.4-6.9-9.2-9.7-14.1c-3-5.3-5.4-10.9-7.2-16.6c-1.3-4.1-2.4-8.3-3.1-12.6c-0.4-2.4-0.8-4.7-1-7.1
				c-0.6-5.9-0.6-11.8,0-17.6c0.2-2.3,0.6-4.5,0.9-6.7c0.8-4.4,1.8-8.7,3.2-13c1.9-5.7,4.2-11.2,7.2-16.6c2.7-4.9,6-9.7,9.7-14.1
				c1.8-2.1,3.6-4.2,5.7-6.2l5.9-5.9l11.9-11.9l11.9-11.9l11.9-11.9L317.2,352.3z M378.4,176c1.5,1.3,2.9,2.5,4.3,3.9
				c2,2,3.8,4,5.5,6.2c3.7,4.6,6.7,9.5,9.2,14.6c2.7,5.7,4.7,11.7,5.9,17.8c0.4,2.3,0.8,4.6,1,6.8c0.6,5.3,0.6,10.6,0,15.9
				c-0.2,2.3-0.6,4.6-1,6.8c-1.2,6.1-3.2,12.1-5.9,17.8c-2.5,5.1-5.5,10-9.2,14.6l0,0c-1.7,2.1-3.6,4.2-5.5,6.2l-6,6l-11.9,11.9l0,0
				l-11.9,11.9l0,0L341,328.6l-11.8,11.7l11.9,11.9l11.7-11.7l11.9-11.9l11.9-11.9l11.9-11.9l5.9-5.9c2-2,4-3.9,5.8-6.1
				c3.7-4.4,6.9-9.1,9.7-14.1c0,0,0,0,0,0c3-5.3,5.4-10.9,7.2-16.6c1.4-4.3,2.5-8.6,3.2-13c0.4-2.2,0.7-4.5,0.9-6.7
				c0.6-6,0.6-12,0-18c-0.2-2.3-0.6-4.6-0.9-6.8c-0.8-4.4-1.8-8.6-3.2-12.8c-1.9-5.7-4.3-11.2-7.2-16.5c-2.8-4.9-6-9.6-9.7-14
				C394.1,180.3,384.9,180.7,378.4,176z"/>
			
				<linearGradient id="S_3_" gradientUnits="userSpaceOnUse" x1="805.0185" y1="407.3" x2="805.0185" y2="790.4628" gradientTransform="matrix(0.3957 0 0 -0.3957 0 453.7855)">
				<stop  offset="0" style="stop-color:#000000"/>
				<stop  offset="1" style="stop-color:#FFFFFF"/>
			</linearGradient>
			<path id="S_2_" fill="url(#S_3_)" stroke="#FFFFFF" stroke-miterlimit="10" d="M394.6,168.1c-2.1-2.1-4.2-4-6.4-5.8
				c-4.4-3.7-9.1-6.8-13.9-9.6c-5.4-3-11-5.5-16.8-7.3c-4.1-1.3-8.2-2.3-12.3-3c-2.5-0.4-4.9-0.8-7.4-1c-5.8-0.5-11.6-0.5-17.4,0
				c-2.5,0.2-5,0.6-7.5,1c-4.1,0.8-8.2,1.7-12.2,3c-5.7,1.9-11.2,4.2-16.6,7.2c-4.9,2.8-9.7,6-14.1,9.7c-2.1,1.8-4.2,3.6-6.2,5.7
				c-2,2-3.9,4.1-5.7,6.3c-3.7,4.4-6.9,9.2-9.7,14.1l0,0c-3,5.3-5.4,10.9-7.2,16.6l0,0c-1.3,4-2.3,8.1-3,12.2c-0.4,2.5-0.8,5-1,7.5
				c-0.6,5.8-0.6,11.6,0,17.4c0.2,2.5,0.6,4.9,1,7.4c0.7,4.2,1.7,8.3,3,12.3c1.9,5.8,4.3,11.4,7.3,16.8c2.7,4.9,5.9,9.5,9.5,13.9
				c6.5-6.5,17.1-6.4,23.7,0.1l-5.9-5.9c-2.1-2-3.9-4.2-5.7-6.4c-3.6-4.5-6.6-9.4-9.1-14.4c-2.8-5.8-4.8-11.9-6-18.1
				c-0.4-2.1-0.7-4.2-0.9-6.2c-0.6-5.5-0.6-11.1,0-16.7c0.2-2.1,0.5-4.2,0.9-6.2l0,0c1.2-6.1,3.2-12.1,5.9-17.9l0,0
				c2.5-5.1,5.5-10,9.1-14.6c1.7-2.2,3.6-4.4,5.7-6.4c2-2,4.1-3.8,6.2-5.5c4.6-3.7,9.5-6.7,14.6-9.2c5.7-2.7,11.7-4.7,17.8-5.9
				c2.1-0.4,4.3-0.8,6.5-1c5.4-0.6,10.9-0.6,16.3,0c2.2,0.2,4.4,0.6,6.6,1c6.2,1.2,12.3,3.2,18.1,6c5.1,2.4,9.9,5.4,14.4,9.1
				c0.7,0.6,1.4,1.1,2.1,1.7c6.6,4.7,15.7,4.3,21.8-1.8C398.4,172.1,396.6,170.1,394.6,168.1C394.7,168.1,394.7,168.1,394.6,168.1
				L394.6,168.1z"/>
			
				<linearGradient id="J_3_" gradientUnits="userSpaceOnUse" x1="858.8248" y1="-278.0501" x2="858.8248" y2="419.8632" gradientTransform="matrix(0.3957 0 0 -0.3957 0 453.7855)">
				<stop  offset="0" style="stop-color:#000000"/>
				<stop  offset="1" style="stop-color:#FFFFFF"/>
			</linearGradient>
			<path id="J_2_" fill="url(#J_3_)" stroke="#FFFFFF" stroke-miterlimit="10" d="M317.4,328.3l-11.9-11.9l-11.9-11.9l-11.9-11.9
				c-6.6-6.6-17.2-6.6-23.7-0.1c1.8,2.2,3.8,4.4,5.8,6.4l5.8,5.8l11.9,11.9l11.9,11.9l11.9,11.9l11.9,11.9l11.9,11.9l11.9,11.9
				l11.9,11.9l11.9,11.9l11.9,11.9l5.9,5.9c1.9,1.9,3.8,4.3,5.5,6.4c3.7,4.6,6.7,9.5,9.2,14.6c2.8,5.7,4.7,11.7,6,17.8
				c0.4,2.2,0.8,4.4,1,6.7c0.6,5.3,0.6,10.7,0.1,16c-0.2,2.3-0.6,4.6-1,6.9c-1.2,6.1-3.2,12.1-5.9,17.9c-2.4,5.1-5.5,10-9.1,14.6
				c-1.8,2.2-3.7,4.4-5.7,6.4c-1.9,1.9-4,3.8-6.1,5.5c-4.6,3.7-9.5,6.7-14.6,9.2c-5.7,2.7-11.7,4.7-17.8,6c-2.5,0.5-4.9,0.9-7.4,1.1
				c-5.1,0.5-10.2,0.5-15.3,0c-2.5-0.2-4.9-0.6-7.4-1.1c-6.1-1.2-12.1-3.2-17.8-6c-5.1-2.5-10-5.5-14.6-9.2
				c-0.7-0.5-1.3-1.1-1.9-1.7c0,0,0,0-0.1,0c-6.6-4.8-15.7-4.4-21.6,1.6c1.8,2.1,3.7,4.2,5.7,6.3c2,2,4.1,3.9,6.2,5.7
				c4.5,3.7,9.2,6.9,14.1,9.7c5.3,3,10.8,5.4,16.6,7.2c4.1,1.3,8.3,2.4,12.6,3.1c2.4,0.4,4.7,0.8,7.1,1c5.9,0.6,11.8,0.6,17.7,0
				c2.5-0.2,5-0.6,7.5-1.1c4.1-0.7,8.2-1.7,12.2-3c5.7-1.9,11.2-4.2,16.6-7.2c4.9-2.7,9.7-6,14.1-9.7c2.1-1.8,4.2-3.6,6.2-5.7
				c2-2,3.9-4.1,5.7-6.2c3.7-4.5,6.9-9.2,9.7-14.1c3-5.3,5.4-10.9,7.2-16.6c1.3-4,2.3-8.1,3-12.2c0.4-2.5,0.8-5,1-7.5
				c0.6-5.9,0.6-11.8,0-17.6c-0.2-2.4-0.6-4.7-1-7.1c-0.8-4.2-1.8-8.5-3.1-12.6c-1.9-5.7-4.2-11.2-7.2-16.6c-2.8-4.9-6-9.7-9.7-14.1
				c-1.8-2.1-3.6-4.2-5.7-6.2l-5.9-5.9l-11.9-11.9l-11.9-11.9l-11.9-11.9l-11.7-12.1l-11.9-11.9L317.4,328.3z"/>
		</g>
	</g>
</g>
</svg>
