<?xml version="1.0" encoding="UTF-8" standalone="no"?>
<svg width="1200px" height="458px" viewBox="0 0 1200 458" version="1.1" xmlns="http://www.w3.org/2000/svg" xmlns:xlink="http://www.w3.org/1999/xlink">
    <!-- Generator: Sketch 50.2 (55047) - http://www.bohemiancoding.com/sketch -->
    <title>logogram</title>
    <desc>Created with Sketch.</desc>
    <defs></defs>
    <g id="Conductor:-Result-Types" stroke="none" stroke-width="1" fill="none" fill-rule="evenodd">
        <g id="thumb---conductor-result-types" transform="translate(-680.000000, -488.000000)">
            <g id="logogram" transform="translate(680.000000, 488.000000)">
                <g id="text">
                    <path d="M962.144,165.209302 C952.570867,165.209302 945.081199,162.460788 939.881798,157.040877 C934.693201,151.630221 932.063406,143.927593 932.063406,134.147384 L932.063406,69.0082018 L920.399092,69.0082018 C920.278714,69.0082018 920.16451,68.9974052 920.050305,68.9850662 L914.616321,68.9742695 L914.616321,50.2066335 L933.248665,50.2066335 L933.248665,11.5238335 L957.424568,11.5238335 L957.47704,50.2667862 L988.895682,50.2667862 L988.895682,69.0082018 L957.47704,69.0082018 L957.47704,132.484702 C957.47704,136.332931 958.415371,139.292752 960.267339,141.279333 C962.13011,143.279795 964.559275,144.251492 967.696818,144.251492 C969.448472,144.251492 970.965542,144.02322 972.207904,143.574389 C973.490392,143.113218 974.606203,142.608861 975.527557,142.078284 C976.456628,141.544621 977.279211,141.034095 977.975242,140.5575 C978.803998,139.989906 979.642013,139.701482 980.463053,139.701482 C982.088155,139.701482 983.396879,140.577551 984.352186,142.305013 L991.784752,154.494414 L991.29861,154.921652 C987.537572,158.228507 983.043462,160.799648 977.941289,162.562584 C972.846833,164.319351 967.531684,165.209302 962.144,165.209302 Z M1133.79059,161.893193 L1156.11453,161.893193 L1156.11453,92.1685257 L1156.167,92.0327966 C1157.51276,88.6056363 1158.98662,85.5085445 1160.55153,82.8278943 C1162.1396,80.1056 1164.00082,77.7673573 1166.08429,75.8794886 C1168.18319,73.971569 1170.58148,72.5016843 1173.21282,71.5099363 C1175.84416,70.521273 1178.90299,70.0200007 1182.31062,70.0200007 C1184.64564,70.0200007 1186.90041,70.2282215 1189.0132,70.6446632 C1192.66312,71.3603258 1194.57836,71.5099363 1195.66794,70.6755107 C1196.14636,70.3099675 1196.51984,69.5788811 1196.77295,68.5038447 L1198.37798,51.1042966 C1196.84394,50.1665318 1195.1108,49.4446996 1193.2218,48.9557663 C1191.14296,48.4205617 1188.89282,48.1475611 1186.5331,48.1475611 C1179.71632,48.1475611 1173.79002,50.1619046 1168.92089,54.1335238 C1163.99928,58.1467872 1159.73667,63.7533254 1156.24725,70.7989008 L1155.04964,73.2142622 L1153.34275,55.7730699 C1153.00785,53.7093703 1152.41059,52.2302314 1151.5772,51.4281956 C1150.76697,50.6508379 1149.19279,50.2559896 1146.89635,50.2559896 L1133.79059,50.2559896 L1133.79059,161.893193 Z M1157.65783,163.435569 L1132.24728,163.435569 L1132.24728,48.7136132 L1146.89635,48.7136132 C1149.6419,48.7136132 1151.52164,49.2380212 1152.64671,50.3161423 C1153.74401,51.3695853 1154.4709,53.089335 1154.87216,55.5741034 L1156.06977,67.7912668 C1159.42183,61.6263884 1163.40819,56.6383431 1167.94397,52.9366398 C1173.09707,48.7367488 1179.3521,46.6051847 1186.5331,46.6051847 C1189.02246,46.6051847 1191.40224,46.893609 1193.60762,47.4627459 C1195.82227,48.0349676 1197.84246,48.9079526 1199.60954,50.0585654 L1200,50.3115151 L1198.29156,68.7506249 C1197.93197,70.3068827 1197.38564,71.3032579 1196.60627,71.9001575 C1195.84233,72.4847182 1194.84381,72.7823968 1193.63695,72.7823968 C1192.46558,72.7823968 1190.85591,72.5772608 1188.71534,72.156192 C1186.69978,71.762886 1184.54687,71.5623771 1182.31062,71.5623771 C1179.09128,71.5623771 1176.21301,72.0297172 1173.75761,72.9536006 C1171.30993,73.8774841 1169.07676,75.2440296 1167.12139,77.0208472 C1165.15522,78.8038343 1163.3943,81.0202292 1161.88341,83.605252 C1160.38177,86.1810206 1158.96038,89.1608918 1157.65783,92.4615773 L1157.65783,163.435569 Z M1155.55585,70.4564932 C1159.10854,63.2813582 1163.40202,57.6393454 1168.43166,53.5350818 C1173.46747,49.4292758 1179.49717,47.3763729 1186.5331,47.3763729 C1188.97462,47.3763729 1191.26643,47.655543 1193.41471,48.2092561 C1195.55836,48.7629692 1197.48595,49.5973949 1199.18976,50.7048211 L1197.52299,68.681218 C1197.22668,69.9397971 1196.76369,70.8081551 1196.13556,71.2893765 C1195.50589,71.7705979 1194.67096,72.0112086 1193.63695,72.0112086 C1192.52731,72.0112086 1190.93462,71.807615 1188.86504,71.4004276 C1186.79084,70.9947826 1184.60397,70.7911889 1182.31062,70.7911889 C1178.98016,70.7911889 1176.04016,71.270868 1173.48599,72.2317685 C1170.93027,73.1942113 1168.63692,74.6008586 1166.60284,76.4501679 C1164.56413,78.2979348 1162.77081,80.5544315 1161.21824,83.2165732 C1159.66413,85.8802572 1158.2196,88.9156539 1156.88618,92.3150515 L1156.88618,162.664381 L1133.01894,162.664381 L1133.01894,49.4848014 L1146.89635,49.4848014 C1149.40886,49.4848014 1151.14971,49.9490567 1152.11273,50.8729401 C1153.07575,51.798366 1153.74092,53.4070646 1154.11131,55.6974935 L1155.55585,70.4564932 Z M1055.18689,67.0108244 C1045.13378,67.0108244 1037.57312,70.3963406 1032.71942,77.0686608 C1027.80553,83.8180999 1025.31464,93.5767154 1025.31464,106.076134 C1025.31464,118.572467 1027.80399,128.294066 1032.71634,134.967928 C1037.57004,141.569299 1045.1307,144.916256 1055.18689,144.916256 C1065.09492,144.916256 1072.56143,141.569299 1077.37964,134.969471 C1082.2534,128.29715 1084.72424,118.575552 1084.72424,106.076134 C1084.72424,93.575173 1082.25186,83.8150152 1077.3781,77.0671185 C1072.5568,70.3947982 1065.09183,67.0108244 1055.18689,67.0108244 Z M1055.18689,146.458632 C1044.61215,146.458632 1036.63325,142.90037 1031.47243,135.881015 C1026.36254,128.937237 1023.77133,118.908705 1023.77133,106.076134 C1023.77133,93.2435621 1026.36254,83.1795561 1031.47089,76.1617435 C1036.63325,69.0652697 1044.61215,65.4699903 1055.18689,65.4699903 C1065.61501,65.4699903 1073.50285,69.0668121 1078.62972,76.1632859 C1083.69794,83.1810985 1086.26754,93.2435621 1086.26754,106.076134 C1086.26754,118.910248 1083.69639,128.937237 1078.62817,135.879473 C1073.50285,142.90037 1065.61501,146.458632 1055.18689,146.458632 Z M1055.18689,48.4807144 C1046.89315,48.4807144 1039.31397,49.8441751 1032.66078,52.5309948 C1026.02147,55.2147297 1020.26648,59.0722131 1015.55476,63.9985633 C1010.83996,68.9264558 1007.16072,74.9941646 1004.61889,82.0366552 C1002.06935,89.096112 1000.7776,97.1473168 1000.7776,105.96354 C1000.7776,114.782848 1002.06935,122.834053 1004.61889,129.890425 C1007.15918,136.932916 1010.83996,143.020676 1015.55631,147.985585 C1020.26957,152.950495 1026.02456,156.828029 1032.66078,159.507137 C1039.30934,162.193956 1046.88852,163.557417 1055.18689,163.557417 C1063.41117,163.557417 1070.95177,162.193956 1077.60187,159.507137 C1084.23964,156.828029 1089.97457,152.952037 1094.65079,147.987127 C1099.32546,143.025303 1102.98773,136.936001 1105.53264,129.890425 C1108.08219,122.837138 1109.37393,114.787476 1109.37393,105.96354 C1109.37393,97.144232 1108.08219,89.0930272 1105.53264,82.0366552 C1102.98619,74.9910798 1099.32546,68.9218287 1094.65233,63.9954785 C1089.97765,59.0722131 1084.24118,55.2147297 1077.60187,52.5309948 C1070.94714,49.8441751 1063.40654,48.4807144 1055.18689,48.4807144 Z M1055.18689,165.099794 C1046.69098,165.099794 1038.9158,163.699316 1032.08204,160.938462 C1025.23902,158.174524 1019.30191,154.173599 1014.43741,149.04674 C1009.57445,143.927593 1005.78255,137.65629 1003.1651,130.414833 C1000.55845,123.187257 999.234294,114.961764 999.234294,105.96354 C999.234294,96.9684011 1000.55845,88.7413654 1003.1651,81.5122472 C1005.78409,74.2692477 1009.57599,68.0179962 1014.43895,62.9327812 C1019.30191,57.8475662 1025.23902,53.8666927 1032.08204,51.0996695 C1038.92043,48.3388157 1046.69407,46.938338 1055.18689,46.938338 C1063.60562,46.938338 1071.34068,48.3388157 1078.18061,51.0996695 C1085.02518,53.8682351 1090.94376,57.8491086 1095.77123,62.9358659 C1100.59252,68.0164538 1104.3659,74.2661629 1106.98644,81.5122472 C1109.59308,88.7367383 1110.91724,96.963774 1110.91724,105.96354 C1110.91724,114.966391 1109.59308,123.191885 1106.98644,130.414833 C1104.36745,137.659375 1100.59406,143.929135 1095.77431,149.045198 C1090.94376,154.172057 1085.02364,158.172981 1078.18061,160.938462 C1071.34531,163.699316 1063.60871,165.099794 1055.18689,165.099794 Z M1055.18689,145.687444 C1065.40049,145.687444 1073.00745,142.266453 1078.00468,135.424472 C1083.00036,128.58249 1085.49589,118.799197 1085.49589,106.076134 C1085.49589,93.3530708 1083.00036,83.5312179 1078.00468,76.6152022 C1073.00745,69.7007288 1065.40049,66.2396362 1055.18689,66.2396362 C1044.82358,66.2396362 1037.12556,69.7007288 1032.09438,76.6152022 C1027.06012,83.5312179 1024.54298,93.3530708 1024.54298,106.076134 C1024.54298,118.799197 1027.06012,128.58249 1032.09438,135.424472 C1037.12556,142.266453 1044.82358,145.687444 1055.18689,145.687444 Z M1055.18689,47.7095262 C1063.54852,47.7095262 1071.11844,49.0791564 1077.89047,51.8153321 C1084.66405,54.5530502 1090.4391,58.4382964 1095.21255,63.4664434 C1099.986,68.4961328 1103.66524,74.6008586 1106.25954,81.7744512 C1108.85075,88.9495862 1110.14559,97.0146724 1110.14559,105.96354 C1110.14559,114.91395 1108.85075,122.980579 1106.25954,130.152629 C1103.66524,137.327764 1099.986,143.449456 1095.21255,148.516163 C1090.4391,153.582869 1084.66405,157.488166 1077.89047,160.222799 C1071.11844,162.960518 1063.54852,164.328605 1055.18689,164.328605 C1046.74808,164.328605 1039.14421,162.960518 1032.37064,160.222799 C1025.59861,157.488166 1019.80658,153.582869 1014.99609,148.516163 C1010.18406,143.449456 1006.48321,137.327764 1003.89199,130.152629 C1001.30233,122.980579 1000.00595,114.91395 1000.00595,105.96354 C1000.00595,97.0146724 1001.30233,88.9495862 1003.89199,81.7744512 C1006.48321,74.6008586 1010.18406,68.4961328 1014.99609,63.4664434 C1019.80658,58.4382964 1025.59861,54.5530502 1032.37064,51.8153321 C1039.14421,49.0791564 1046.74808,47.7095262 1055.18689,47.7095262 Z M867.21828,48.4807144 C858.563415,48.4807144 850.820645,49.9336329 844.209118,52.8009106 C837.609938,55.6651036 832.006191,59.6860789 827.55375,64.7527853 C823.090507,69.8272037 819.647389,75.9519803 817.323169,82.9589963 C814.992776,89.9798936 813.810602,97.7210808 813.810602,105.96354 C813.810602,115.078985 815.122413,123.298309 817.705909,130.388613 C820.283231,137.46812 823.854444,143.543541 828.31923,148.440586 C832.779387,153.329919 838.069843,157.111826 844.040898,159.682968 C850.027385,162.254109 856.555573,163.557417 863.444895,163.557417 C867.443603,163.557417 871.474721,163.242772 875.428673,162.624279 C879.351759,162.005787 883.182247,160.973937 886.813648,159.559578 C890.443506,158.142134 893.939096,156.285113 897.201646,154.039412 C900.29752,151.910933 903.172701,149.282724 905.754653,146.224191 L899.362276,137.949342 C898.450182,136.647576 897.20319,136.030626 895.530245,136.030626 C894.144356,136.030626 892.869584,136.518017 891.633395,137.520561 C890.256766,138.634157 888.579191,139.877312 886.645427,141.217637 C884.669995,142.582641 882.186814,143.842762 879.265334,144.96407 C876.306815,146.103886 872.439288,146.680735 867.773871,146.680735 C863.015856,146.680735 858.665274,145.758394 854.840959,143.941474 C851.008928,142.123012 847.701622,139.433108 845.014724,135.950422 C842.33863,132.489329 840.258252,128.183015 838.832237,123.151783 C837.413938,118.160653 836.693214,112.376741 836.693214,105.96354 C836.693214,99.7894075 837.355292,94.1412252 838.662473,89.1809427 C839.974284,84.1867279 841.999103,79.8773283 844.679827,76.3699643 C847.365181,72.8502614 850.746566,70.103289 854.731384,68.2077084 C858.7054,66.3152126 863.392423,65.3573969 868.662816,65.3573969 C872.723256,65.3573969 876.166374,65.8185674 878.89957,66.7285695 C881.597271,67.6293173 883.94001,68.6395738 885.866057,69.7315763 C887.750435,70.8019855 889.40486,71.7999031 890.787663,72.6944814 C893.233804,74.2800443 895.664513,74.1134677 896.724765,73.2882963 C897.331284,72.8163291 897.993363,72.119175 898.687851,71.2153424 L904.620323,63.103985 C899.936386,58.5354661 894.556418,54.9401867 888.622404,52.4137742 C882.493932,49.8025309 875.292862,48.4807144 867.21828,48.4807144 Z M863.444895,165.099794 C856.345683,165.099794 849.610692,163.753299 843.431291,161.097327 C837.254977,158.442897 831.787041,154.534515 827.178727,149.480148 C822.578129,144.43195 818.903515,138.185326 816.256744,130.916106 C813.609973,123.65614 812.267296,115.260985 812.267296,105.96354 C812.267296,97.5545041 813.475705,89.6513675 815.858571,82.4746901 C818.249153,75.27025 821.794129,68.9650153 826.393183,63.7348169 C830.998411,58.4969067 836.785812,54.3417447 843.594882,51.3850091 C850.402409,48.4344431 858.350439,46.938338 867.21828,46.938338 C875.502752,46.938338 882.907538,48.3033411 889.22738,50.9947879 C895.544135,53.6831499 901.248197,57.5483452 906.182149,62.4777801 L906.648228,62.9451202 L899.917867,72.1484801 C899.14004,73.1602791 898.38382,73.9530605 897.670812,74.5067736 C896.081206,75.7391324 892.954466,75.9380989 889.948104,73.9900776 C888.591537,73.110923 886.960262,72.1284292 885.102121,71.0719014 C883.265585,70.0307973 881.013901,69.0606426 878.410342,68.1922847 C875.836106,67.3347234 872.556579,66.8997733 868.662816,66.8997733 C863.623919,66.8997733 859.160675,67.808233 855.393463,69.598932 C851.633967,71.389631 848.440866,73.9823657 845.906756,77.3046444 C843.349496,80.6516012 841.414189,84.7774581 840.153308,89.5711639 C838.881623,94.4065139 838.23652,99.9205095 838.23652,105.96354 C838.23652,112.234843 838.935638,117.875313 840.316898,122.729172 C841.688898,127.570691 843.681307,131.701175 846.237023,135.00803 C848.77422,138.296377 851.8917,140.835128 855.504581,142.550251 C859.117463,144.266916 863.245808,145.138358 867.773871,145.138358 C872.249461,145.138358 875.930248,144.595442 878.711287,143.525033 C881.518562,142.446911 883.892168,141.242316 885.767286,139.949804 C887.667097,138.631072 889.315348,137.411053 890.661112,136.322135 C892.161206,135.1052 893.800198,134.488249 895.530245,134.488249 C897.712481,134.488249 899.420922,135.344268 900.603095,137.034713 L907.730086,146.256581 L907.341173,146.731633 C904.566307,150.10481 901.448827,152.992139 898.076701,155.311873 C894.718466,157.623895 891.116387,159.537984 887.373868,160.997072 C883.640609,162.451533 879.700546,163.512688 875.667886,164.148147 C871.635225,164.778979 867.523855,165.099794 863.444895,165.099794 Z M899.305174,71.6780553 C898.56593,72.6404982 897.862182,73.3808389 897.197017,73.8959926 C896.531851,74.4142311 895.570371,74.6733503 894.309489,74.6733503 C893.050151,74.6733503 891.736797,74.2291459 890.367884,73.3422795 C888.99897,72.455413 887.370782,71.4744617 885.483317,70.4025101 C883.595853,69.3290161 881.319475,68.3496071 878.655728,67.4611983 C875.990437,66.5727895 872.65998,66.1285851 868.662816,66.1285851 C863.481934,66.1285851 858.947699,67.0555533 855.063195,68.9033202 C851.177149,70.7526295 847.919228,73.3962626 845.29252,76.8388468 C842.664268,80.2768037 840.701182,84.4566438 839.40789,89.3768245 C838.113056,94.2954628 837.464867,99.8248822 837.464867,105.96354 C837.464867,112.327385 838.165528,117.984822 839.574568,122.940477 C840.98052,127.897675 842.996079,132.077515 845.625874,135.478455 C848.251039,138.88248 851.436424,141.47213 855.17277,143.245862 C858.910659,145.02268 863.113084,145.909546 867.773871,145.909546 C872.362122,145.909546 876.103098,145.354291 878.987539,144.245322 C881.875066,143.136354 884.277995,141.914792 886.205585,140.583721 C888.127002,139.251108 889.776797,138.029545 891.14571,136.922119 C892.514623,135.811608 893.976135,135.259437 895.530245,135.259437 C897.454749,135.259437 898.93478,135.996693 899.971882,137.477375 L906.743913,146.2427 C904.004543,149.57269 900.973489,152.3829 897.638402,154.674872 C894.309489,156.968385 890.792293,158.836203 887.092986,160.278325 C883.390593,161.721989 879.543129,162.756924 875.547508,163.386213 C871.548799,164.012418 867.516139,164.328605 863.444895,164.328605 C856.412046,164.328605 849.843732,163.014501 843.736866,160.389376 C837.633087,157.764251 832.302505,153.954582 827.748207,148.960367 C823.198538,143.967695 819.607263,137.864511 816.982098,130.652359 C814.352303,123.440207 813.038949,115.213171 813.038949,105.96354 C813.038949,97.6054025 814.221122,89.8565035 816.591641,82.7168432 C818.959074,75.5802676 822.419168,69.4215587 826.973467,64.2438011 C831.524679,59.0660436 837.168552,55.0157631 843.902,52.0929599 C850.640078,49.171699 858.410628,47.7095262 867.21828,47.7095262 C875.434846,47.7095262 882.671412,49.040597 888.924892,51.704281 C895.179914,54.3664227 900.749709,58.1390753 905.635819,63.0237814 L899.305174,71.6780553 Z M694.347847,50.2559896 L694.347847,121.498355 C694.347847,127.757319 695.158083,133.561281 696.756949,138.746751 C698.345011,143.906 700.740224,148.386603 703.880853,152.066713 C707.013766,155.736027 710.936852,158.615643 715.53745,160.626902 C720.153481,162.64433 725.578205,163.666926 731.658834,163.666926 C735.427589,163.666926 739.008061,163.264366 742.301478,162.468499 C745.596438,161.674176 748.735524,160.537444 751.632311,159.090695 C754.533728,157.637777 757.310137,155.87484 759.88283,153.848158 C762.470956,151.806051 764.96494,149.517165 767.292246,147.044736 L768.358671,145.914174 L770.391207,157.986354 C771.156687,160.585258 772.91297,161.893193 775.735678,161.893193 L789.397031,161.893193 L789.397031,50.2559896 L767.073097,50.2559896 L767.073097,132.347431 L766.861664,132.569533 C762.82283,136.829577 758.439838,140.221262 753.837697,142.652048 C749.192343,145.104426 744.121037,146.347581 738.764219,146.347581 C731.379495,146.347581 725.781921,144.126559 722.128914,139.74621 C718.509859,135.405963 716.676411,129.267305 716.676411,121.498355 L716.676411,50.2559896 L694.347847,50.2559896 Z M731.658834,165.209302 C725.362142,165.209302 719.732158,164.14352 714.920127,162.039719 C710.101923,159.935917 705.99364,156.917487 702.706397,153.066173 C699.428413,149.225656 696.931342,144.56151 695.283091,139.200209 C693.637925,133.866672 692.80454,127.911556 692.80454,121.498355 L692.80454,48.7136132 L718.219717,48.7136132 L718.219717,121.498355 C718.219717,128.897135 719.932788,134.70264 723.31263,138.757547 C726.660063,142.770811 731.85792,144.805205 738.764219,144.805205 C743.867935,144.805205 748.695398,143.62066 753.116973,141.288587 C757.490704,138.979649 761.66535,135.763795 765.52979,131.73048 L765.52979,48.7136132 L790.940338,48.7136132 L790.940338,163.435569 L775.735678,163.435569 C772.235458,163.435569 769.866482,161.671091 768.891112,158.331846 L767.349349,149.211774 C765.279774,151.317118 763.094452,153.279021 760.838137,155.058923 C758.182106,157.150386 755.317728,158.971932 752.32217,160.46958 C749.321981,161.96877 746.070233,163.147145 742.662612,163.969232 C739.251904,164.792861 735.54951,165.209302 731.658834,165.209302 Z M790.168684,49.4848014 L790.168684,162.664381 L775.735678,162.664381 C772.554923,162.664381 770.517758,161.148225 769.630356,158.114371 L767.855553,147.573771 C765.485034,150.090929 762.984877,152.3829 760.359712,154.454312 C757.729917,156.525723 754.936532,158.299456 751.978012,159.780137 C749.016406,161.259276 745.852627,162.405262 742.482045,163.218094 C739.114549,164.032469 735.509384,164.438114 731.658834,164.438114 C725.44085,164.438114 719.962111,163.40318 715.228789,161.33331 C710.490837,159.263441 706.513735,156.339096 703.292853,152.566443 C700.073515,148.79379 697.647437,144.262289 696.020791,138.975022 C694.389516,133.686214 693.576193,127.8622 693.576193,121.498355 L693.576193,49.4848014 L717.448064,49.4848014 L717.448064,121.498355 C717.448064,129.119237 719.205891,135.035793 722.721544,139.251108 C726.237197,143.467965 731.584755,145.576393 738.764219,145.576393 C744.017635,145.576393 748.922265,144.374882 753.476563,141.970317 C758.029318,139.567295 762.302735,136.255813 766.301443,132.040498 L766.301443,49.4848014 L790.168684,49.4848014 Z M617.747353,66.5681623 C608.714378,66.5681623 601.562694,69.9197462 596.485214,76.5288291 C591.361435,83.2011494 588.76405,93.2528164 588.76405,106.409287 C588.76405,113.275947 589.355136,119.206384 590.51879,124.035564 C591.67164,128.830813 593.346128,132.790093 595.503671,135.806981 C597.634978,138.788395 600.255513,140.978569 603.292741,142.320437 C606.359291,143.674643 609.876488,144.361001 613.748645,144.361001 C619.648707,144.361001 624.801809,143.073116 629.065966,140.53128 C633.30543,138.003325 637.305681,134.383368 640.957145,129.774747 L640.957145,77.6023231 C637.76713,73.5474155 634.228327,70.6755107 630.434879,69.0591002 C626.553462,67.4056727 622.284675,66.5681623 617.747353,66.5681623 Z M613.748645,145.903377 C609.661968,145.903377 605.933339,145.172291 602.669245,143.730169 C599.375828,142.275708 596.542316,139.912787 594.245876,136.704644 C591.975671,133.525806 590.216301,129.384526 589.018695,124.398023 C587.824176,119.450079 587.220743,113.397794 587.220743,106.409287 C587.220743,92.9057817 589.92616,82.5363852 595.261372,75.5895219 C600.645969,68.5809635 608.209716,65.0257859 617.747353,65.0257859 C622.493022,65.0257859 626.967068,65.9064829 631.039855,67.6401139 C635.141965,69.386084 638.941586,72.4893453 642.338405,76.8635248 L642.500452,77.073288 L642.500452,130.309952 L642.336861,130.518172 C638.52335,135.376658 634.324012,139.190955 629.856139,141.857724 C625.351226,144.541459 619.931132,145.903377 613.748645,145.903377 Z M612.194535,48.1475611 C604.87463,48.1475611 598.172048,49.6328695 592.276616,52.5602999 C586.375011,55.4908151 581.288271,59.6027905 577.158382,64.7790057 C573.016146,69.9737294 569.793721,76.1817944 567.577533,83.2258274 C565.355171,90.2837418 564.227014,98.0835392 564.227014,106.409287 C564.227014,115.621901 565.244053,123.893666 567.251895,130.997852 C569.250477,138.086613 572.102509,144.103424 575.726193,148.883248 C579.337531,153.646106 583.729783,157.323132 588.776396,159.810985 C593.824553,162.297296 599.537875,163.557417 605.755858,163.557417 C613.578881,163.557417 620.531478,161.873142 626.416108,158.552406 C632.340863,155.210076 637.706941,150.749524 642.363098,145.297223 L643.432609,144.044813 L645.818562,157.984811 C646.587129,160.585258 648.341868,161.893193 651.16612,161.893193 L664.829016,161.893193 L664.829016,3.77493453 L642.500452,3.77493453 L642.500452,61.2500485 L641.177838,59.9004692 C637.56187,56.215732 633.418091,53.302183 628.862249,51.2431105 C624.324927,49.1886651 618.71655,48.1475611 612.194535,48.1475611 Z M605.755858,165.099794 C599.298662,165.099794 593.356931,163.785689 588.094254,161.192954 C582.830035,158.598677 578.25413,154.772041 574.497721,149.814844 C570.756745,144.882324 567.818289,138.691225 565.76569,131.415836 C563.720809,124.177463 562.683707,115.7638 562.683707,106.409287 C562.683707,97.9262168 563.835014,89.9706394 566.106761,82.7631145 C568.378509,75.5370811 571.690446,69.1624394 575.953059,63.8181052 C580.223389,58.461432 585.484522,54.2106427 591.589845,51.179873 C597.702883,48.1444763 604.633874,46.6051847 612.194535,46.6051847 C618.938786,46.6051847 624.760139,47.69256 629.498091,49.8380056 C633.681996,51.7274167 637.527917,54.3108971 640.957145,57.5282943 L640.957145,2.23255814 L666.372323,2.23255814 L666.372323,163.435569 L651.16612,163.435569 C647.6659,163.435569 645.296924,161.671091 644.318467,158.331846 L642.463413,147.525957 C637.943067,152.560274 632.808485,156.71852 627.175415,159.895816 C621.056203,163.349196 613.84896,165.099794 605.755858,165.099794 Z M641.728798,77.3370343 C638.398342,73.0476856 634.732988,70.0508482 630.737367,68.3496071 C626.738659,66.6468235 622.409683,65.7969741 617.747353,65.7969741 C608.419606,65.7969741 601.127481,69.217965 595.872521,76.0599467 C590.617561,82.9019284 587.992396,93.0199175 587.992396,106.409287 C587.992396,113.36232 588.583483,119.298927 589.768742,124.216022 C590.950915,129.136203 592.654726,133.147924 594.875545,136.255813 C597.096363,139.362159 599.797151,141.620198 602.980993,143.025303 C606.161748,144.430408 609.749937,145.132189 613.748645,145.132189 C619.818471,145.132189 625.054911,143.819626 629.461052,141.194502 C633.862563,138.567835 637.95387,134.85225 641.728798,130.043121 L641.728798,77.3370343 Z M665.600669,3.00374634 L665.600669,162.664381 L651.16612,162.664381 C647.982278,162.664381 645.946656,161.148225 645.057711,158.114371 L642.949554,145.798495 C638.211602,151.346423 632.827004,155.8224 626.795761,159.224882 C620.762975,162.628907 613.748645,164.328605 605.755858,164.328605 C599.389718,164.328605 593.614663,163.05306 588.435325,160.50197 C583.252901,157.947794 578.812807,154.230667 575.111957,149.349046 C571.411107,144.467425 568.543643,138.419767 566.509564,131.207615 C564.472399,123.995463 563.45536,115.728325 563.45536,106.409287 C563.45536,97.9755729 564.581974,90.1711483 566.842919,82.9960133 C569.09769,75.8208783 572.337091,69.5881353 576.556492,64.2993267 C580.772807,59.010518 585.896585,54.8661526 591.932459,51.8708577 C597.965245,48.8755627 604.720299,47.3763729 612.194535,47.3763729 C618.855447,47.3763729 624.520927,48.4313583 629.18017,50.5397868 C633.845587,52.6482154 638.027949,55.5879848 641.728798,59.3606374 L641.728798,3.00374634 L665.600669,3.00374634 Z M518.488027,161.893193 L540.700843,161.893193 L540.700843,90.6523698 C540.700843,84.3964911 539.892151,78.5925287 538.294828,73.4039745 C536.699049,68.2323865 534.303836,63.751783 531.170923,60.0824696 C528.04264,56.4146985 524.138074,53.5350818 519.566799,51.5222806 C514.983178,49.5033099 509.578517,48.4807144 503.504061,48.4807144 C499.66277,48.4807144 496.063778,48.884817 492.807401,49.6791408 C489.54022,50.4796342 486.41811,51.6148232 483.530583,53.0600299 C480.62145,54.5129484 477.845041,56.2604609 475.276978,58.2501264 C472.684223,60.2583005 470.153199,62.5286786 467.751814,65.0041927 L466.679215,66.1085342 L464.770145,54.1582019 C464.004665,51.5639248 462.212885,50.2559896 459.314555,50.2559896 L445.651659,50.2559896 L445.651659,161.893193 L467.980223,161.893193 L467.980223,79.9158877 L468.191656,79.6922431 C472.227404,75.4306571 476.608852,72.0220053 481.210993,69.5557454 C485.851717,67.0648075 490.961606,65.8016013 496.395589,65.8016013 C503.784943,65.8016013 509.382517,68.0241657 513.030894,72.4045146 C516.651492,76.7463042 518.488027,82.8849622 518.488027,90.6523698 L518.488027,161.893193 Z M542.24415,163.435569 L516.944721,163.435569 L516.944721,90.6523698 C516.944721,83.2566749 515.228563,77.4496278 511.847178,73.3916355 C508.504375,69.3799145 503.306518,67.3439777 496.395589,67.3439777 C491.219338,67.3439777 486.354835,68.5454889 481.940977,70.914579 C477.562616,73.2589911 473.386427,76.4948968 469.52353,80.5312958 L469.52353,163.435569 L444.108352,163.435569 L444.108352,48.7136132 L459.314555,48.7136132 C462.88731,48.7136132 465.294869,50.4796342 466.273326,53.8188791 L467.719404,62.841781 C469.847624,60.7348948 472.0669,58.785331 474.329388,57.0301067 C476.979246,54.9802885 479.84208,53.1787929 482.840725,51.679603 C485.830111,50.1834979 489.060252,49.0082071 492.440094,48.1814933 C495.818393,47.356322 499.539306,46.938338 503.504061,46.938338 C509.79458,46.938338 515.407587,48.0056624 520.187208,50.1094638 C524.974546,52.2194347 529.065853,55.2378653 532.346923,59.0830097 C535.615647,62.9111879 538.112718,67.5784189 539.768686,72.9489735 C541.410765,78.2871382 542.24415,84.2422535 542.24415,90.6523698 L542.24415,163.435569 Z M467.197767,64.4659033 C469.639278,61.9502874 472.174931,59.6768246 474.803183,57.6393454 C477.428348,55.6064933 480.22482,53.8497266 483.186426,52.3690452 C486.144945,50.8899063 489.290205,49.745463 492.623747,48.9310883 C495.95266,48.1182559 499.580975,47.7095262 503.504061,47.7095262 C509.722044,47.7095262 515.177634,48.7475455 519.877004,50.8174146 C524.581003,52.8872837 528.539585,55.810087 531.758923,59.5827396 C534.979805,63.3553923 537.39971,67.8868942 539.030985,73.1772452 C540.659174,78.4645115 541.472497,84.2916095 541.472497,90.6523698 L541.472497,162.664381 L517.716374,162.664381 L517.716374,90.6523698 C517.716374,83.0330304 515.953918,77.1133898 512.439808,72.8980751 C508.925698,68.681218 503.576596,66.5727895 496.395589,66.5727895 C491.066551,66.5727895 486.126425,67.7928092 481.576757,70.234391 C477.020915,72.6744305 472.747498,76.0059635 468.751877,80.2228206 L468.751877,162.664381 L444.880006,162.664381 L444.880006,49.4848014 L459.314555,49.4848014 C462.569389,49.4848014 464.643594,51.0024998 465.532538,54.0348118 L467.197767,64.4659033 Z M367.05104,67.0108244 C356.997939,67.0108244 349.437278,70.3963406 344.580491,77.0686608 C339.669689,83.8165576 337.180335,93.575173 337.180335,106.076134 C337.180335,118.575552 339.668146,128.29715 344.577405,134.967928 C349.434192,141.569299 356.993309,144.916256 367.05104,144.916256 C376.95907,144.916256 384.424045,141.569299 389.242249,134.969471 C394.119099,128.294066 396.589933,118.572467 396.589933,106.076134 C396.589933,93.5767154 394.117556,83.8180999 389.242249,77.0671185 C384.419415,70.3947982 376.955983,67.0108244 367.05104,67.0108244 Z M367.05104,146.458632 C356.476301,146.458632 348.495861,142.90037 343.3335,135.881015 C338.226697,128.940321 335.637028,118.91179 335.637028,106.076134 C335.637028,93.2420197 338.226697,83.1780137 343.331956,76.1617435 C348.495861,69.0652697 356.476301,65.4699903 367.05104,65.4699903 C377.477621,65.4699903 385.365462,69.0668121 390.492328,76.1632859 C395.562091,83.1826409 398.13324,93.2466468 398.13324,106.076134 C398.13324,118.907163 395.562091,128.934152 390.490785,135.879473 C385.365462,142.90037 377.477621,146.458632 367.05104,146.458632 Z M367.05104,48.4807144 C358.755765,48.4807144 351.176585,49.8441751 344.526476,52.5309948 C337.88717,55.2147297 332.130635,59.0722131 327.415832,63.9985633 C322.707203,68.9218287 319.027959,74.9895375 316.48459,82.0366552 C313.935047,89.0899425 312.641756,97.1411472 312.641756,105.96354 C312.641756,114.789018 313.935047,122.840223 316.48459,129.890425 C319.027959,136.936001 322.70566,143.025303 327.417376,147.985585 C332.135265,152.950495 337.890256,156.828029 344.526476,159.507137 C351.175042,162.193956 358.752679,163.557417 367.05104,163.557417 C375.275322,163.557417 382.817463,162.193956 389.467572,159.507137 C396.099162,156.829571 401.83409,152.953579 406.513397,147.987127 C411.19116,143.025303 414.853427,136.936001 417.396797,129.890425 C419.944796,122.834053 421.236544,114.782848 421.236544,105.96354 C421.236544,97.1473168 419.944796,89.096112 417.396797,82.0366552 C414.851884,74.9910798 411.19116,68.9218287 406.516483,63.9954785 C401.837177,59.0706707 396.102248,55.2116449 389.467572,52.5309948 C382.812833,49.8441751 375.272235,48.4807144 367.05104,48.4807144 Z M367.05104,165.099794 C358.553592,165.099794 350.779955,163.699316 343.947736,160.938462 C337.104713,158.174524 331.167611,154.173599 326.298478,149.04674 C321.440148,143.93222 317.649786,137.66246 315.032338,130.414833 C312.421063,123.194969 311.098449,114.967934 311.098449,105.96354 C311.098449,96.9606892 312.421063,88.7336535 315.032338,81.5122472 C317.65133,74.2630782 321.441691,68.0118266 326.300021,62.9327812 C331.167611,57.8475662 337.104713,53.8666927 343.947736,51.0996695 C350.784585,48.3388157 358.556679,46.938338 367.05104,46.938338 C375.471322,46.938338 383.206376,48.3388157 390.046312,51.0996695 C396.886248,53.8651503 402.80483,57.8475662 407.633837,62.9358659 C412.458215,68.0164538 416.2316,74.2661629 418.849049,81.5122472 C421.457237,88.7413654 422.779851,96.9684011 422.779851,105.96354 C422.779851,114.961764 421.457237,123.187257 418.849049,130.414833 C416.233143,137.659375 412.459758,143.929135 407.636924,149.045198 C402.80483,154.173599 396.886248,158.176066 390.046312,160.938462 C383.211006,163.699316 375.474409,165.099794 367.05104,165.099794 Z M367.05104,145.687444 C377.266188,145.687444 384.870061,142.266453 389.867289,135.424472 C394.862973,128.58249 397.361587,118.799197 397.361587,106.076134 C397.361587,93.3530708 394.862973,83.5312179 389.867289,76.6152022 C384.870061,69.7007288 377.266188,66.2396362 367.05104,66.2396362 C356.689277,66.2396362 348.988176,69.7007288 343.956995,76.6152022 C338.922728,83.5312179 336.408682,93.3530708 336.408682,106.076134 C336.408682,118.799197 338.922728,128.58249 343.956995,135.424472 C348.988176,142.266453 356.689277,145.687444 367.05104,145.687444 Z M367.05104,47.7095262 C375.415763,47.7095262 382.98414,49.0791564 389.757714,51.8153321 C396.529744,54.5530502 402.300169,58.4382964 407.07516,63.4664434 C411.851695,68.4961328 415.532482,74.6008586 418.122151,81.7744512 C420.71182,88.9495862 422.008198,97.0146724 422.008198,105.96354 C422.008198,114.91395 420.71182,122.980579 418.122151,130.152629 C415.532482,137.327764 411.851695,143.449456 407.07516,148.516163 C402.300169,153.582869 396.529744,157.488166 389.757714,160.222799 C382.98414,162.960518 375.415763,164.328605 367.05104,164.328605 C358.613781,164.328605 351.006821,162.960518 344.236334,160.222799 C337.464303,157.488166 331.670729,153.582869 326.858699,148.516163 C322.045124,143.449456 318.348904,137.327764 315.757692,130.152629 C313.164937,122.980579 311.870102,114.91395 311.870102,105.96354 C311.870102,97.0146724 313.164937,88.9495862 315.757692,81.7744512 C318.348904,74.6008586 322.045124,68.4961328 326.858699,63.4664434 C331.670729,58.4382964 337.464303,54.5530502 344.236334,51.8153321 C351.006821,49.0791564 358.613781,47.7095262 367.05104,47.7095262 Z M261.462613,48.4807144 C252.806204,48.4807144 245.064977,49.9336329 238.45345,52.8009106 C231.85427,55.6651036 226.250523,59.6860789 221.798083,64.7527853 C217.334839,69.8272037 213.891721,75.9519803 211.569045,82.9589963 C209.237108,89.9798936 208.054935,97.7210808 208.054935,105.96354 C208.054935,115.078985 209.365202,123.296766 211.950241,130.388613 C214.527564,137.469663 218.100319,143.543541 222.565106,148.440586 C227.02372,153.329919 232.314176,157.111826 238.28523,159.682968 C244.271717,162.254109 250.799905,163.557417 257.689227,163.557417 C261.687936,163.557417 265.719053,163.242772 269.673005,162.624279 C273.594548,162.005787 277.423493,160.973937 281.05798,159.559578 C284.687838,158.142134 288.183428,156.285113 291.445979,154.039412 C294.541852,151.910933 297.417033,149.282724 299.998986,146.224191 L293.605065,137.949342 C292.692971,136.647576 291.447522,136.030626 289.774577,136.030626 C288.388688,136.030626 287.113916,136.518017 285.877728,137.520561 C284.501098,138.634157 282.823523,139.877312 280.88976,141.217637 C278.912784,142.582641 276.431146,143.842762 273.508123,144.96407 C270.551147,146.103886 266.685163,146.680735 262.018203,146.680735 C257.260188,146.680735 252.909606,145.758394 249.085292,143.941474 C245.253261,142.123012 241.945954,139.43465 239.259057,135.950422 C236.582962,132.487787 234.502585,128.181472 233.076569,123.151783 C231.65827,118.160653 230.937546,112.376741 230.937546,105.96354 C230.937546,99.7894075 231.599625,94.1412252 232.906806,89.1809427 C234.218616,84.1836432 236.244978,79.8742435 238.924159,76.3699643 C241.609513,72.8502614 244.990898,70.103289 248.975717,68.2077084 C252.949732,66.3152126 257.636755,65.3573969 262.905605,65.3573969 C266.966045,65.3573969 270.410706,65.8185674 273.143903,66.7285695 C275.838516,67.6277749 278.182799,68.6380315 280.11039,69.7315763 C281.994767,70.8019855 283.650736,71.7999031 285.031995,72.6944814 C287.478137,74.2800443 289.908845,74.1134677 290.969097,73.2882963 C291.575617,72.8163291 292.237695,72.119175 292.932183,71.2153424 L298.864655,63.103985 C294.180719,58.5339237 288.799208,54.9386443 282.865193,52.4137742 C276.736721,49.8025309 269.535651,48.4807144 261.462613,48.4807144 Z M257.689227,165.099794 C250.590016,165.099794 243.855025,163.753299 237.677167,161.097327 C231.500853,158.442897 226.032917,154.534515 221.423059,149.480148 C216.822461,144.43195 213.147847,138.186868 210.499533,130.916106 C207.852762,123.654597 206.511628,115.259443 206.511628,105.96354 C206.511628,97.5545041 207.720037,89.6513675 210.102903,82.4746901 C212.493485,75.27025 216.038461,68.9650153 220.637516,63.7348169 C225.242744,58.4969067 231.030144,54.3417447 237.839214,51.3850091 C244.645198,48.4344431 252.594771,46.938338 261.462613,46.938338 C269.745541,46.938338 277.150327,48.3033411 283.470169,50.9947879 C289.786924,53.6831499 295.490986,57.5468028 300.426482,62.4777801 L300.89256,62.9451202 L294.162199,72.1484801 C293.384372,73.1602791 292.628152,73.9530605 291.915144,74.5067736 C290.323995,75.7391324 287.198798,75.9380989 284.192436,73.9900776 C282.83587,73.110923 281.206138,72.1284292 279.346453,71.0719014 C277.506831,70.029255 275.255146,69.0591002 272.656218,68.1922847 C270.081982,67.3347234 266.800911,66.8997733 262.905605,66.8997733 C257.868251,66.8997733 253.405008,67.808233 249.637795,69.598932 C245.8783,71.389631 242.686741,73.9823657 240.151088,77.3046444 C237.595372,80.6485165 235.660065,84.7743733 234.39764,89.5711639 C233.125955,94.4065139 232.480853,99.9205095 232.480853,105.96354 C232.480853,112.234843 233.179971,117.875313 234.56123,122.729172 C235.934774,127.569149 237.925639,131.701175 240.479812,135.00803 C243.018552,138.296377 246.137575,140.835128 249.748914,142.550251 C253.363338,144.266916 257.490141,145.138358 262.018203,145.138358 C266.493793,145.138358 270.17458,144.595442 272.954076,143.525033 C275.762894,142.446911 278.1365,141.243858 280.011618,139.949804 C281.912972,138.631072 283.559681,137.411053 284.905444,136.322135 C286.405539,135.1052 288.04453,134.488249 289.774577,134.488249 C291.958357,134.488249 293.665254,135.344268 294.847427,137.036255 L301.975962,146.256581 L301.585505,146.731633 C298.810639,150.10481 295.693159,152.992139 292.321034,155.311873 C288.962798,157.623895 285.36072,159.537984 281.618201,160.997072 C277.881855,162.451533 273.944879,163.512688 269.912218,164.148147 C265.879557,164.778979 261.768188,165.099794 257.689227,165.099794 Z M293.551049,71.6780553 C292.810262,72.6404982 292.106514,73.3808389 291.441349,73.8959926 C290.776184,74.4142311 289.81316,74.6733503 288.553822,74.6733503 C287.294483,74.6733503 285.981129,74.2291459 284.612216,73.3422795 C283.243303,72.455413 281.615114,71.4744617 279.729193,70.4025101 C277.838642,69.3290161 275.563808,68.3496071 272.90006,67.4611983 C270.234769,66.5727895 266.904313,66.1285851 262.905605,66.1285851 C257.726267,66.1285851 253.192031,67.0555533 249.307528,68.9033202 C245.421481,70.7526295 242.16356,73.3962626 239.538395,76.8388468 C236.907057,80.2768037 234.945514,84.4566438 233.652223,89.3768245 C232.357388,94.2954628 231.709199,99.8248822 231.709199,105.96354 C231.709199,112.327385 232.409861,117.984822 233.8189,122.940477 C235.224852,127.897675 237.240411,132.077515 239.868663,135.478455 C242.496914,138.88248 245.680757,141.47213 249.417103,143.245862 C253.154992,145.02268 257.357416,145.909546 262.018203,145.909546 C266.607998,145.909546 270.34743,145.354291 273.231871,144.245322 C276.119398,143.136354 278.522327,141.914792 280.449917,140.583721 C282.371334,139.251108 284.021129,138.029545 285.391586,136.922119 C286.758956,135.811608 288.220467,135.259437 289.774577,135.259437 C291.699081,135.259437 293.179112,135.996693 294.214671,137.477375 L300.988245,146.2427 C298.250419,149.57269 295.217821,152.3829 291.884278,154.674872 C288.553822,156.968385 285.036625,158.836203 281.338862,160.278325 C277.633382,161.721989 273.787461,162.756924 269.79184,163.386213 C265.793132,164.012418 261.760471,164.328605 257.689227,164.328605 C250.656378,164.328605 244.088064,163.014501 237.981199,160.389376 C231.87742,157.764251 226.548381,153.954582 221.992539,148.960367 C217.442871,143.967695 213.851595,137.864511 211.224887,130.652359 C208.596636,123.440207 207.283281,115.213171 207.283281,105.96354 C207.283281,97.6054025 208.465454,89.8565035 210.835974,82.7168432 C213.203407,75.5802676 216.663501,69.4215587 221.217799,64.2438011 C225.769011,59.0660436 231.412884,55.0157631 238.146332,52.0929599 C244.882867,49.171699 252.656504,47.7095262 261.462613,47.7095262 C269.679179,47.7095262 276.914201,49.040597 283.167681,51.704281 C289.424247,54.3664227 294.994041,58.1390753 299.880151,63.0237814 L293.551049,71.6780553 Z" id="Fill-1" fill="#0B0B09"></path>
                    <path d="M51.3488372,25.6821111 C51.3488372,39.8516578 39.848076,51.3488372 25.6767261,51.3488372 C11.491531,51.3488372 0,39.8516578 0,25.6821111 C0,11.4925639 11.491531,0 25.6767261,0 C39.848076,0 51.3488372,11.4925639 51.3488372,25.6821111" id="Fill-3" fill="#ACCD41"></path>
                    <path d="M109.395349,25.6821111 C109.395349,39.8516578 97.8971594,51.3488372 83.7209302,51.3488372 C69.5462392,51.3488372 58.0465116,39.8516578 58.0465116,25.6821111 C58.0465116,11.4925639 69.5462392,0 83.7209302,0 C97.8971594,0 109.395349,11.4925639 109.395349,25.6821111" id="Fill-4" fill="#ACCD41"></path>
                    <path d="M51.3488372,82.5992676 C51.3488372,96.7889157 39.848076,108.27907 25.6767261,108.27907 C11.491531,108.27907 0,96.7889157 0,82.5992676 C0,68.4173103 11.491531,56.9302326 25.6767261,56.9302326 C39.848076,56.9302326 51.3488372,68.4173103 51.3488372,82.5992676" id="Fill-5" fill="#ACCD41"></path>
                    <path d="M109.395349,82.5992676 C109.395349,96.7889157 97.8971594,108.27907 83.7209302,108.27907 C69.5462392,108.27907 58.0465116,96.7889157 58.0465116,82.5992676 C58.0465116,68.4173103 69.5462392,56.9302326 83.7209302,56.9302326 C97.8971594,56.9302326 109.395349,68.4173103 109.395349,82.5992676" id="Fill-7" fill="#ACCD41"></path>
                    <path d="M167.44186,83.7155466 C167.44186,97.9051947 155.948263,109.395349 141.766673,109.395349 C127.58662,109.395349 116.093023,97.9051947 116.093023,83.7155466 C116.093023,69.5335894 127.58662,58.0465116 141.766673,58.0465116 C155.948263,58.0465116 167.44186,69.5335894 167.44186,83.7155466" id="Fill-8" fill="#81BC41"></path>
                    <path d="M109.395349,139.544884 C109.395349,153.718621 97.8971594,165.209302 83.7209302,165.209302 C69.5462392,165.209302 58.0465116,153.718621 58.0465116,139.544884 C58.0465116,125.354223 69.5462392,113.860465 83.7209302,113.860465 C97.8971594,113.860465 109.395349,125.354223 109.395349,139.544884" id="Fill-10" fill="#81BC41"></path>
                    <path d="M167.44186,139.544884 C167.44186,153.718621 155.948263,165.209302 141.766673,165.209302 C127.58662,165.209302 116.093023,153.718621 116.093023,139.544884 C116.093023,125.354223 127.58662,113.860465 141.766673,113.860465 C155.948263,113.860465 167.44186,125.354223 167.44186,139.544884" id="Fill-11" fill="#81BC41"></path>
                </g>
                <text id="Result-Types" font-family="FuturaStd-Medium, Futura Std" font-size="120" font-weight="400" fill="#AAAAAA">
                    <tspan x="302" y="425">Result Types</tspan>
                </text>
            </g>
        </g>
    </g>
</svg>