<?xml version="1.0" encoding="utf-8"?>
<!-- Generator: Adobe Illustrator 19.2.1, SVG Export Plug-In . SVG Version: 6.00 Build 0)  -->
<svg version="1.1" id="Conf_-_Blue" xmlns="http://www.w3.org/2000/svg" xmlns:xlink="http://www.w3.org/1999/xlink" x="0px"
	 y="0px" viewBox="0 0 983.9 172.3" style="enable-background:new 0 0 983.9 172.3;" xml:space="preserve">
<style type="text/css">
	.st0{fill:#205081;}
</style>
<g>
	<g>
		<path class="st0" d="M315.5,49.5c-26.1,0-39.9,12.6-39.9,36.3v22.4c0,23.7,13.8,36.3,39.9,36.3c26.1,0,39.9-12.6,39.9-36.3V85.8
			C355.4,62,341.6,49.5,315.5,49.5z M300.5,85c0-9.8,4.5-13.9,15-13.9s15,4.2,15,13.9v23.8c0,9.8-4.5,13.9-15,13.9s-15-4.2-15-13.9
			V85z"/>
		<path class="st0" d="M423,49.5c-9.9,0-23.3,3.4-34.6,8.7l-1.4-4.6c-0.4-1.3-1.6-2.3-3-2.3h-13.8c-1.7,0-3.2,1.4-3.2,3.2v85
			c0,1.7,1.4,3.1,3.2,3.1h18.6c1.7,0,3.2-1.4,3.2-3.1V80.6c6.7-3.4,16.1-6.9,21.8-6.9c4.2,0,5.7,1.6,5.7,5.7v60.1
			c0,1.7,1.4,3.1,3.2,3.1h18.6c1.7,0,3.2-1.4,3.2-3.1V77.1C444.4,58.8,437.2,49.5,423,49.5z"/>
		<path class="st0" d="M511.5,16c-5-1.3-10.8-2-16.2-2c-19.9,0-29.6,9.4-29.6,28.8v11h-10.3c-1.7,0-3.2,1.4-3.2,3.2v14.1
			c0,1.7,1.4,3.1,3.2,3.1h10.3v65.2c0,1.7,1.4,3.1,3.1,3.1h18.6c1.7,0,3.1-1.4,3.1-3.1V74.2h18.3c1.6,0,3-1.3,3.1-2.9V57.2
			c0-1-0.2-1.7-0.8-2.4c-0.6-0.6-1.4-1-2.3-1h-18.3V44c0-6.8,1.3-9.2,8.7-9.2c2.3,0,5.7,0.4,9,0.9c0.8,0.1,1.7-0.1,2.4-0.6
			s1.1-1.3,1.3-2.1l1.9-13.7C514,17.9,513,16.4,511.5,16z"/>
		<path class="st0" d="M545.1,16.5h-18.6c-1.7,0-3.2,1.4-3.2,3.2v119.9c0,1.7,1.4,3.1,3.2,3.1h18.6c1.7,0,3.2-1.4,3.2-3.1v-120
			C548.3,17.9,546.8,16.5,545.1,16.5z"/>
		<path class="st0" d="M636.2,51.3h-18.6c-1.7,0-3.2,1.4-3.2,3.2v58.9c-6.7,3.4-16.1,6.9-21.8,6.9c-4.2,0-5.7-1.6-5.7-5.7V54.5
			c0-1.7-1.4-3.2-3.2-3.2h-18.6c-1.7,0-3.2,1.4-3.2,3.2v62.4c0,18.3,7.2,27.6,21.4,27.6c9.9,0,23.3-3.4,34.6-8.7l1.4,4.6
			c0.4,1.3,1.6,2.3,3,2.3h13.8c1.7,0,3.2-1.4,3.2-3.1v-85C639.4,52.7,638,51.3,636.2,51.3z"/>
		<path class="st0" d="M688.3,49.5c-24.9,0-38.1,12.4-38.1,35.9v23.5c0,24.3,12.3,35.6,38.8,35.6c10.8,0,22.3-1.9,31.6-5.2
			c1.5-0.5,2.3-2.1,2-3.6l-2.8-13.3c-0.2-0.9-0.7-1.6-1.4-2.1s-1.7-0.6-2.5-0.3c-8.5,2.4-16.7,3.6-24.9,3.6
			c-13.6,0-15.9-4.4-15.9-13.6v-3.2h46.2c1.7,0,3.2-1.4,3.2-3.1V86.6C724.4,61.2,713,49.5,688.3,49.5z M675.1,86.2v-3
			c0-8.8,4.3-12.8,13.4-12.8c10.1,0,12.1,4.9,12.1,12.8v3H675.1z"/>
		<path class="st0" d="M791.7,49.5c-9.9,0-23.3,3.4-34.6,8.7l-1.4-4.6c-0.4-1.3-1.6-2.3-3-2.3h-13.8c-1.7,0-3.2,1.4-3.2,3.2v85
			c0,1.7,1.4,3.1,3.2,3.1h18.6c1.7,0,3.2-1.4,3.2-3.1V80.6c6.7-3.4,16.1-6.9,21.8-6.9c4.2,0,5.7,1.6,5.7,5.7v60.1
			c0,1.7,1.4,3.1,3.2,3.1H810c1.7,0,3.2-1.4,3.2-3.1V77.1C813,58.8,805.8,49.5,791.7,49.5z"/>
		<path class="st0" d="M884.7,123.4c-0.1-0.9-0.6-1.6-1.3-2.1c-0.7-0.5-1.6-0.7-2.5-0.5c-5.3,1.2-10.9,1.9-16.2,1.9
			c-11.8,0-15.2-3-15.2-13.4V84.7c0-10.4,3.4-13.4,15.2-13.4c3.2,0,10.2,0.5,16.2,1.9c0.9,0.2,1.8,0,2.5-0.5s1.2-1.3,1.3-2.1
			l2.2-14.7c0.2-1.6-0.7-3-2.2-3.5c-7.2-2.1-15.5-2.9-20.5-2.9c-28.1,0-39.6,10.3-39.6,35.4v24.2c0,25.1,11.5,35.4,39.6,35.4
			c6.8,0,14.7-1.1,20.6-2.9c1.5-0.5,2.4-1.9,2.2-3.5L884.7,123.4z"/>
		<path class="st0" d="M931.8,49.5c-24.9,0-38.1,12.4-38.1,35.9v23.5c0,24.3,12.3,35.6,38.8,35.6c10.8,0,22.3-1.9,31.6-5.2
			c1.5-0.5,2.3-2.1,2-3.6l-2.8-13.3c-0.2-0.9-0.7-1.6-1.4-2.1s-1.7-0.6-2.5-0.3c-8.5,2.4-16.7,3.6-24.9,3.6
			c-13.6,0-15.9-4.4-15.9-13.6v-3.2h46.2c1.7,0,3.2-1.4,3.2-3.1V86.6C967.9,61.2,956.5,49.5,931.8,49.5z M918.6,86.2v-3
			c0-8.8,4.3-12.8,13.4-12.8c10.1,0,12.1,4.9,12.1,12.8v3H918.6z"/>
	</g>
	<path class="st0" d="M236.1,40.6c7.5,0,17.8,1,27.6,2.7c0.8,0.1,1.7-0.1,2.4-0.6s1.1-1.3,1.3-2.1l2.1-16.4c0.2-1.6-0.8-3.1-2.4-3.5
		c-9.9-2.4-21.1-3.7-31.7-3.7c-29.5,0-44.5,12.3-44.5,36.5v54.6c0,24.2,15,36.5,44.5,36.5c10.6,0,21.8-1.3,31.7-3.7
		c1.6-0.4,2.6-1.9,2.4-3.5l-2.1-16.4c-0.1-0.9-0.6-1.6-1.3-2.1s-1.6-0.7-2.4-0.6c-9.8,1.7-20.1,2.7-27.6,2.7
		c-14.6,0-19.6-4.3-19.6-17V57.6C216.5,44.9,221.5,40.6,236.1,40.6z"/>
	<g>
		<path class="st0" d="M129.4,110.8c-2-4-4.4-8-7.2-12.1c-2-2.9-4.1-5.8-6.4-8.6c-0.9-1.1-0.5-2.5,0.2-3.2s1.4-1.4,2.1-2.1
			c9.6-9.8,19.5-19.9,27.1-30.8c8.1-11.6,12.6-22.6,13.7-34c0.1-1.1-0.4-2.3-1.3-3c-0.6-0.5-1.3-0.7-2.1-0.7c-0.4,0-0.8,0.1-1.2,0.2
			c-7.4,2.8-14.8,5-21.7,6.5c-1.4,0.3-2.5,1.4-3,2.6c-5,13.6-17.7,26.6-31,40.2c-0.5,0.5-1.3,1.2-2.5,1.2s-2-0.6-2.5-1.2
			c-13.3-13.6-26-26.5-31-40.2c-0.5-1.2-1.6-2.3-3-2.6c-6.8-1.6-14.3-3.9-21.7-6.7c-0.4-0.2-0.8-0.2-1.2-0.2c-0.7,0-1.5,0.2-2.1,0.7
			c-0.9,0.7-1.4,1.9-1.3,3c1.1,11.3,5.6,22.5,13.7,34.1c7.6,10.9,17.5,21,27.1,30.8c17.7,18,34.3,35,35.8,54.7
			c0.1,1.8,1.6,3.2,3.4,3.2H134c0.9,0,1.8-0.4,2.5-1.1c0.6-0.7,1-1.6,0.9-2.5c-0.2-3.7-0.7-7.4-1.6-11.2l0,0c0-0.1,0-0.2,0-0.3
			c0-0.8,0.6-1.4,1.4-1.4c0.1,0,0.1,0,0.2,0l0,0c16.9,2.5,27.6,6.4,27.7,10.8l0,0c0,4.1-9.6,10.3-25.3,14.9l0,0
			c-1.4,0.4-2.4,1.7-2.4,3.1c0,1.8,1.5,3.3,3.3,3.3c0.3,0,0.5,0,0.7-0.1c21-4.9,35-13,35-22.3C176.3,125,157.5,115.2,129.4,110.8z"
			/>
		<path class="st0" d="M73.8,100.1c-0.4-0.4-1.3-1-2.4-1c-1.5,0-2.5,1-2.8,1.5c-2.3,3.4-4.2,6.8-5.9,10.2
			c-28,4.4-46.8,14.2-46.8,25.1c0,9.2,13.8,17.4,34.9,22.3l0,0c0.2,0.1,0.5,0.1,0.8,0.1c1.8,0,3.3-1.5,3.3-3.3c0-1.5-1-2.7-2.4-3.1
			l0,0c-15.6-4.5-25.3-10.7-25.3-14.9l0,0c0-4.4,10.7-8.3,27.6-10.8c0.1,0,0.1,0,0.2,0c0.8,0,1.4,0.6,1.4,1.4c0,0.1,0,0.2,0,0.3l0,0
			c-0.9,3.7-1.4,7.4-1.6,11.1c0,0.9,0.3,1.9,0.9,2.5c0.6,0.7,1.5,1.1,2.5,1.1h20.6c1.8,0,3.3-1.4,3.4-3.2c0.5-6.1,2.3-12.1,5.8-18.5
			c1.2-2.2,0.3-4.3-0.4-5.2C84.2,111.3,80,106.6,73.8,100.1z"/>
		<path class="st0" d="M93.7,48.9c0.8,0.8,1.7,0.9,2.4,0.9l0,0c0.6,0,1.6-0.1,2.4-0.9c7.3-7.1,11.2-15.4,12.1-17.7
			c0.1-0.3,0.3-0.7,0.3-1.3c0-1.8-1.5-3.2-3.1-3.2c-1.3,0-5.1,0.4-11.6,0.4l0,0c-6.5,0-10.3-0.4-11.6-0.4c-1.6,0-3.1,1.3-3.1,3.2
			c0,0.5,0.1,0.9,0.3,1.3C82.4,33.5,86.4,41.8,93.7,48.9z"/>
	</g>
</g>
</svg>
