<?xml version="1.0" encoding="utf-8"?>
<!-- Generator: Adobe Illustrator 19.2.1, SVG Export Plug-In . SVG Version: 6.00 Build 0)  -->
<svg version="1.1" id="JIRA_-_Blue" xmlns="http://www.w3.org/2000/svg" xmlns:xlink="http://www.w3.org/1999/xlink" x="0px"
	 y="0px" viewBox="0 0 469.2 189.7" style="enable-background:new 0 0 469.2 189.7;" xml:space="preserve">
<style type="text/css">
	.st0{fill:#205081;}
</style>
<g>
	<g>
		<path class="st0" d="M234.4,49.7h-19.3c-1.7,0-3.1,1.4-3.1,3.2v117.6c0,1.7,1.4,3.1,3.1,3.1h19.3c1.7,0,3.1-1.4,3.1-3.1V52.9
			C237.5,51.1,236.1,49.7,234.4,49.7z"/>
		<path class="st0" d="M358.3,168.4l-26.9-38.8c11.6-4.8,17.5-14.9,17.5-30V83.8c0-23.6-12.3-34.1-39.9-34.1h-47.9
			c-1.7,0-3.1,1.4-3.1,3.2v117.6c0,1.7,1.4,3.1,3.1,3.1h19.3c1.7,0,3.1-1.4,3.1-3.1v-36.9h19.8l26.9,38.7c0.6,0.8,1.6,1.4,2.6,1.4
			h23.1l0,0c1.7,0,3.1-1.4,3.1-3.1C359,169.7,358.7,169,358.3,168.4z M283.5,72.6H308c12.7,0,15.2,5,15.2,13v12
			c0,10-3.8,13.4-15.2,13.4h-24.5V72.6z"/>
	</g>
	<path class="st0" d="M421.7,51.9c-0.4-1.3-1.6-2.2-3-2.2h-29.4c-1.4,0-2.6,0.9-3,2.2l-37.1,117.6c-0.3,1-0.1,2,0.5,2.8
		s1.5,1.3,2.5,1.3h20.3c1.4,0,2.6-0.9,3-2.3L401,84.8c0,0,0.7-2.2,3-2.2c2.4,0,2.9,2.2,2.9,2.2l11.9,41h-16.3c-1.4,0-2.6,0.9-3,2.3
		l-4.6,16.2c-0.3,0.9-0.1,2,0.5,2.8s1.5,1.2,2.5,1.2h27.5l7.1,22.9c0.4,1.3,1.6,2.2,3,2.2h20.2c1,0,1.9-0.5,2.5-1.3s0.8-1.9,0.5-2.8
		L421.7,51.9z"/>
	<path class="st0" d="M189.1,49.7h-19.6c-1.7,0-3,1.3-3,3v92c0,11.6-8.8,15.4-14.8,15.7c-0.8,0-1.7,0.5-2.3,1.3
		c-0.5,0.8-0.7,1.7-0.4,2.6l4.8,15.5c0.4,1.3,1.8,2.1,4,2.1c18.7,0,34.3-14.7,34.3-34.4V52.7c0-0.8-0.3-1.6-0.9-2.1
		C190.6,50,189.9,49.7,189.1,49.7z"/>
	<g>
		<g>
			<g>
				<g>
					<path class="st0" d="M37.6,17.6c-6,0-10.9,4.9-10.9,10.9s4.9,10.9,10.9,10.9s10.9-4.9,10.9-10.9C48.4,22.5,43.6,17.6,37.6,17.6
						L37.6,17.6L37.6,17.6z"/>
				</g>
			</g>
			<g>
				<g>
					<path class="st0" d="M109,17.6c-6,0-10.9,4.9-10.9,10.9S103,39.4,109,39.4s10.9-4.9,10.9-10.9S115,17.6,109,17.6L109,17.6
						L109,17.6z"/>
				</g>
			</g>
		</g>
		<g>
			<g>
				<path class="st0" d="M73.3,7.7c-6,0-10.9,4.9-10.9,10.9s4.9,10.9,10.9,10.9s10.9-4.9,10.9-10.9C84.2,12.5,79.3,7.7,73.3,7.7
					L73.3,7.7L73.3,7.7z"/>
			</g>
		</g>
	</g>
	<g>
		<path class="st0" d="M134.8,48c-0.6-0.5-1.3-0.7-2.1-0.7c-0.4,0-0.8,0.1-1.2,0.2c-7.4,2.8-14.8,5-21.7,6.5c-1.4,0.3-2.5,1.4-3,2.6
			c-5,13.6-17.7,26.6-31,40.2c-0.5,0.5-1.3,1.2-2.5,1.2s-2-0.6-2.5-1.2c-13.3-13.6-26-26.5-31-40.2c-0.5-1.2-1.6-2.3-3-2.6
			c-6.8-1.6-14.3-3.8-21.7-6.6c-0.4-0.2-0.8-0.2-1.2-0.2c-0.7,0-1.5,0.2-2.1,0.7c-0.9,0.7-1.4,1.9-1.3,3c1.1,11.3,5.6,22.4,13.7,34
			c7.6,10.9,17.5,21,27.1,30.8c17.6,18,34.3,35,35.8,54.7c0.1,1.8,1.6,3.2,3.4,3.2h20.7c0.9,0,1.8-0.4,2.5-1.1
			c0.6-0.7,1-1.6,0.9-2.5c-0.7-13.2-5.6-26.4-15.2-40.4c-2-2.9-4.1-5.8-6.4-8.6c-0.9-1.1-0.5-2.5,0.2-3.3c0.7-0.7,1.4-1.4,2.1-2.1
			c9.6-9.8,19.5-19.9,27.1-30.8c8.1-11.6,12.6-22.6,13.7-34C136.2,49.9,135.7,48.7,134.8,48z"/>
		<g>
			<path class="st0" d="M51,131.1c-0.5-0.5-1.2-1-2.4-1c-1.5,0-2.5,1.1-2.8,1.6C37.1,145,32.6,157.5,32,170.1c0,0.9,0.3,1.9,0.9,2.5
				c0.6,0.7,1.5,1.1,2.5,1.1h20.7c1.8,0,3.3-1.4,3.4-3.2c0.5-6.1,2.3-12.1,5.8-18.5c1.2-2.2,0.3-4.3-0.4-5.2
				C61.4,142.3,57.3,137.6,51,131.1z"/>
		</g>
		<path class="st0" d="M73.3,58.1c6.5,0,10.3-0.4,11.6-0.4c1.6,0,3.1,1.3,3.1,3.2c0,0.5-0.1,0.9-0.3,1.3
			c-0.9,2.3-4.8,10.6-12.1,17.7c-0.8,0.8-1.8,0.9-2.4,0.9l0,0c-0.6,0-1.6-0.1-2.4-0.9c-7.3-7.1-11.2-15.4-12.1-17.7
			c-0.1-0.3-0.3-0.7-0.3-1.3c0-1.8,1.5-3.2,3.1-3.2C63,57.7,66.8,58.1,73.3,58.1L73.3,58.1z"/>
	</g>
</g>
</svg>
