<?xml version="1.0" encoding="UTF-8" standalone="no"?>
<svg width="953px" height="145px" viewBox="0 0 953 145" version="1.1" xmlns="http://www.w3.org/2000/svg" xmlns:xlink="http://www.w3.org/1999/xlink">
    <!-- Generator: Sketch 50.2 (55047) - http://www.bohemiancoding.com/sketch -->
    <title>logo---confluence-logo-alt</title>
    <desc>Created with Sketch.</desc>
    <defs></defs>
    <g id="logo---confluence-logo-alt" stroke="none" stroke-width="1" fill="none" fill-rule="evenodd">
        <path d="M408,35.5 C398.1,35.5 384.7,38.9 373.4,44.2 L372,39.6 C371.6,38.3 370.4,37.3 369,37.3 L355.2,37.3 C353.5,37.3 352,38.7 352,40.5 L352,125.5 C352,127.2 353.4,128.6 355.2,128.6 L373.8,128.6 C375.5,128.6 377,127.2 377,125.5 L377,66.6 C383.7,63.2 393.1,59.7 398.8,59.7 C403,59.7 404.5,61.3 404.5,65.4 L404.5,125.5 C404.5,127.2 405.9,128.6 407.7,128.6 L426.3,128.6 C428,128.6 429.5,127.2 429.5,125.5 L429.5,63.1 C429.4,44.8 422.2,35.5 408,35.5 Z M300.5,35.5 C274.4,35.5 260.6,48.1 260.6,71.8 L260.6,94.2 C260.6,117.9 274.4,130.5 300.5,130.5 C326.6,130.5 340.4,117.9 340.4,94.2 L340.4,71.8 C340.4,48 326.6,35.5 300.5,35.5 Z M285.5,71 C285.5,61.2 290,57.1 300.5,57.1 C311,57.1 315.5,61.3 315.5,71 L315.5,94.8 C315.5,104.6 311,108.7 300.5,108.7 C290,108.7 285.5,104.5 285.5,94.8 L285.5,71 Z M496.5,2 C498,2.4 499,3.9 498.8,5.3 L496.9,19 C496.7,19.8 496.3,20.6 495.6,21.1 C494.9,21.6 494,21.8 493.2,21.7 C489.9,21.2 486.5,20.8 484.2,20.8 C476.8,20.8 475.5,23.2 475.5,30 L475.5,39.8 L493.8,39.8 C494.7,39.8 495.5,40.2 496.1,40.8 C496.7,41.5 496.9,42.2 496.9,43.2 L496.9,57.3 C496.8,58.9 495.4,60.2 493.8,60.2 L475.5,60.2 L475.5,125.4 C475.5,127.1 474.1,128.5 472.4,128.5 L453.8,128.5 C452.1,128.5 450.7,127.1 450.7,125.4 L450.7,60.2 L440.4,60.2 C438.6,60.2 437.2,58.8 437.2,57.1 L437.2,43 C437.2,41.2 438.7,39.8 440.4,39.8 L450.7,39.8 L450.7,28.8 C450.7,9.4 460.4,0 480.3,0 C485.7,0 491.5,0.7 496.5,2 Z M530.1,2.5 C531.8,2.5 533.3,3.9 533.3,5.6 L533.3,125.6 C533.3,127.3 531.8,128.7 530.1,128.7 L511.5,128.7 C509.7,128.7 508.3,127.3 508.3,125.6 L508.3,5.7 C508.3,3.9 509.8,2.5 511.5,2.5 L530.1,2.5 Z M621.2,37.3 C623,37.3 624.4,38.7 624.3,40.6 L624.3,125.6 C624.3,127.3 622.8,128.7 621.1,128.7 L607.3,128.7 C605.9,128.7 604.7,127.7 604.3,126.4 L602.9,121.8 C591.6,127.1 578.2,130.5 568.3,130.5 C554.1,130.5 546.9,121.2 546.9,102.9 L546.9,40.5 C546.9,38.7 548.4,37.3 550.1,37.3 L568.7,37.3 C570.5,37.3 571.9,38.8 571.9,40.5 L571.9,100.6 C571.9,104.7 573.4,106.3 577.6,106.3 C583.3,106.3 592.7,102.8 599.4,99.4 L599.4,40.5 C599.4,38.7 600.9,37.3 602.6,37.3 L621.2,37.3 Z M673.3,35.5 C648.4,35.5 635.2,47.9 635.2,71.4 L635.2,94.9 C635.2,119.2 647.5,130.5 674,130.5 C684.8,130.5 696.3,128.6 705.6,125.3 C707.1,124.8 707.9,123.2 707.6,121.7 L704.8,108.4 C704.6,107.5 704.1,106.8 703.4,106.3 C702.7,105.8 701.7,105.7 700.9,106 C692.4,108.4 684.2,109.6 676,109.6 C662.4,109.6 660.1,105.2 660.1,96 L660.1,92.8 L706.3,92.8 C708,92.8 709.5,91.4 709.5,89.7 L709.5,72.6 C709.4,47.2 698,35.5 673.3,35.5 Z M660.1,72.2 L660.1,69.2 C660.1,60.4 664.4,56.4 673.5,56.4 C683.6,56.4 685.6,61.3 685.6,69.2 L685.6,72.2 L660.1,72.2 Z M776.7,35.5 C790.8,35.5 798,44.8 798.2,63.1 L798.2,125.5 C798.2,127.2 796.7,128.6 795,128.6 L776.4,128.6 C774.6,128.6 773.2,127.2 773.2,125.5 L773.2,65.4 C773.2,61.3 771.7,59.7 767.5,59.7 C761.8,59.7 752.4,63.2 745.7,66.6 L745.7,125.5 C745.7,127.2 744.2,128.6 742.5,128.6 L723.9,128.6 C722.1,128.6 720.7,127.2 720.7,125.5 L720.7,40.5 C720.7,38.7 722.2,37.3 723.9,37.3 L737.7,37.3 C739.1,37.3 740.3,38.3 740.7,39.6 L742.1,44.2 C753.4,38.9 766.8,35.5 776.7,35.5 Z M869.7,109.4 L872,124.1 C872.2,125.7 871.3,127.1 869.8,127.6 C863.9,129.4 856,130.5 849.2,130.5 C821.1,130.5 809.6,120.2 809.6,95.1 L809.6,70.9 C809.6,45.8 821.1,35.5 849.2,35.5 C854.2,35.5 862.5,36.3 869.7,38.4 C871.2,38.9 872.1,40.3 871.9,41.9 L869.7,56.6 C869.6,57.4 869.1,58.2 868.4,58.7 C867.7,59.2 866.8,59.4 865.9,59.2 C859.9,57.8 852.9,57.3 849.7,57.3 C837.9,57.3 834.5,60.3 834.5,70.7 L834.5,95.3 C834.5,105.7 837.9,108.7 849.7,108.7 C855,108.7 860.6,108 865.9,106.8 C866.8,106.6 867.7,106.8 868.4,107.3 C869.1,107.8 869.6,108.5 869.7,109.4 Z M916.8,35.5 C891.9,35.5 878.7,47.9 878.7,71.4 L878.7,94.9 C878.7,119.2 891,130.5 917.5,130.5 C928.3,130.5 939.8,128.6 949.1,125.3 C950.6,124.8 951.4,123.2 951.1,121.7 L948.3,108.4 C948.1,107.5 947.6,106.8 946.9,106.3 C946.2,105.8 945.2,105.7 944.4,106 C935.9,108.4 927.7,109.6 919.5,109.6 C905.9,109.6 903.6,105.2 903.6,96 L903.6,92.8 L949.8,92.8 C951.5,92.8 953,91.4 953,89.7 L953,72.6 C952.9,47.2 941.5,35.5 916.8,35.5 Z M903.6,72.2 L903.6,69.2 C903.6,60.4 907.9,56.4 917,56.4 C927.1,56.4 929.1,61.3 929.1,69.2 L929.1,72.2 L903.6,72.2 Z M221.1,26.6 C206.5,26.6 201.5,30.9 201.5,43.6 L201.5,90 C201.5,102.7 206.5,107 221.1,107 C228.6,107 238.9,106 248.7,104.3 C249.5,104.2 250.4,104.4 251.1,104.9 C251.8,105.4 252.3,106.1 252.4,107 L254.5,123.4 C254.7,125 253.7,126.5 252.1,126.9 C242.2,129.3 231,130.6 220.4,130.6 C190.9,130.6 175.9,118.3 175.9,94.1 L175.9,39.5 C175.9,15.3 190.9,3 220.4,3 C231,3 242.2,4.3 252.1,6.7 C253.7,7.1 254.7,8.6 254.5,10.2 L252.4,26.6 C252.2,27.4 251.8,28.2 251.1,28.7 C250.4,29.2 249.5,29.4 248.7,29.3 C238.9,27.6 228.6,26.6 221.1,26.6 Z M114.4,96.8 C142.5,101.2 161.3,111 161.4,121.8 C161.4,131.1 147.4,139.2 126.4,144.1 C126.2,144.2 126,144.2 125.7,144.2 C123.9,144.2 122.4,142.7 122.4,140.9 C122.4,139.5 123.4,138.2 124.8,137.8 C140.5,133.2 150.1,127 150.1,122.9 C150,118.5 139.3,114.6 122.4,112.1 C122.3,112.1 122.3,112.1 122.2,112.1 C121.4,112.1 120.8,112.7 120.8,113.5 C120.8,113.6 120.8,113.7 120.8,113.8 C121.7,117.6 122.2,121.3 122.4,125 C122.5,125.9 122.1,126.8 121.5,127.5 C120.8,128.2 119.9,128.6 119,128.6 L98.3,128.6 C96.5,128.6 95,127.2 94.9,125.4 C93.4,105.7 76.8,88.7 59.1,70.7 C49.5,60.9 39.6,50.8 32,39.9 C23.9,28.3 19.4,17.1 18.3,5.8 C18.2,4.7 18.7,3.5 19.6,2.8 C20.2,2.3 21,2.1 21.7,2.1 C22.1,2.1 22.5,2.1 22.9,2.3 C30.3,5.1 37.8,7.4 44.6,9 C46,9.3 47.1,10.4 47.6,11.6 C52.6,25.3 65.3,38.2 78.6,51.8 C79.1,52.4 79.9,53 81.1,53 C82.3,53 83.1,52.3 83.6,51.8 C96.9,38.2 109.6,25.2 114.6,11.6 C115.1,10.4 116.2,9.3 117.6,9 C124.5,7.5 131.9,5.3 139.3,2.5 C139.7,2.4 140.1,2.3 140.5,2.3 C141.3,2.3 142,2.5 142.6,3 C143.5,3.7 144,4.9 143.9,6 C142.8,17.4 138.3,28.4 130.2,40 C122.6,50.9 112.7,61 103.1,70.8 C102.4,71.5 101.7,72.2 101,72.9 C100.3,73.6 99.9,75 100.8,76.1 C103.1,78.9 105.2,81.8 107.2,84.7 C110,88.8 112.4,92.8 114.4,96.8 Z M58.8,86.1 C65,92.6 69.2,97.3 72.6,101.7 C73.3,102.6 74.2,104.7 73,106.9 C69.5,113.3 67.7,119.3 67.2,125.4 C67.1,127.2 65.6,128.6 63.8,128.6 L43.2,128.6 C42.2,128.6 41.3,128.2 40.7,127.5 C40.1,126.9 39.8,125.9 39.8,125 C40,121.3 40.5,117.6 41.4,113.9 C41.4,113.8 41.4,113.7 41.4,113.6 C41.4,112.8 40.8,112.2 40,112.2 C39.9,112.2 39.9,112.2 39.8,112.2 C22.9,114.7 12.2,118.6 12.2,123 C12.2,127.2 21.9,133.4 37.5,137.9 C38.9,138.3 39.9,139.5 39.9,141 C39.9,142.8 38.4,144.3 36.6,144.3 C36.3,144.3 36,144.3 35.8,144.2 C14.7,139.3 0.9,131.1 0.9,121.9 C0.9,111 19.7,101.2 47.7,96.8 C49.4,93.4 51.3,90 53.6,86.6 C53.9,86.1 54.9,85.1 56.4,85.1 C57.5,85.1 58.4,85.7 58.8,86.1 Z M78.7,34.9 C71.4,27.8 67.4,19.5 66.8,17.2 C66.6,16.8 66.5,16.4 66.5,15.9 C66.5,14 68,12.7 69.6,12.7 C70.9,12.7 74.7,13.1 81.2,13.1 C87.7,13.1 91.5,12.7 92.8,12.7 C94.4,12.7 95.9,14.1 95.9,15.9 C95.9,16.5 95.7,16.9 95.6,17.2 C94.7,19.5 90.8,27.8 83.5,34.9 C82.7,35.7 81.7,35.8 81.1,35.8 C80.4,35.8 79.5,35.7 78.7,34.9 Z" id="Shape" fill="#205081" fill-rule="nonzero"></path>
    </g>
</svg>