<?xml version="1.0" encoding="UTF-8" standalone="no"?>
<svg width="449px" height="175px" viewBox="0 0 449 175" version="1.1" xmlns="http://www.w3.org/2000/svg" xmlns:xlink="http://www.w3.org/1999/xlink">
    <!-- Generator: Sketch 50.2 (55047) - http://www.bohemiancoding.com/sketch -->
    <title>logo---jira-alt</title>
    <desc>Created with Sketch.</desc>
    <defs></defs>
    <g id="logo---jira-alt" stroke="none" stroke-width="1" fill="none" fill-rule="evenodd">
        <path d="M224.4,42.7 L205.1,42.7 C203.4,42.7 202,44.1 202,45.9 L202,163.5 C202,165.2 203.4,166.6 205.1,166.6 L224.4,166.6 C226.1,166.6 227.5,165.2 227.5,163.5 L227.5,45.9 C227.5,44.1 226.1,42.7 224.4,42.7 Z M346.677052,166.6 C346.428355,166.665232 346.167903,166.7 345.9,166.7 L322.8,166.7 C321.8,166.7 320.8,166.1 320.2,165.3 L293.3,126.6 L273.5,126.6 L273.5,163.5 C273.5,165.2 272.1,166.6 270.4,166.6 L251.1,166.6 C249.4,166.6 248,165.2 248,163.5 L248,45.9 C248,44.1 249.4,42.7 251.1,42.7 L299,42.7 C326.6,42.7 338.9,53.2 338.9,76.8 L338.9,92.6 C338.9,107.7 333,117.8 321.4,122.6 L342.284359,152.723164 L376.3,44.9 C376.7,43.6 377.9,42.7 379.3,42.7 L408.7,42.7 C410.1,42.7 411.3,43.6 411.7,44.9 L448.7,162.3 C449,163.2 448.8,164.3 448.2,165.1 C447.6,165.9 446.7,166.4 445.7,166.4 L425.5,166.4 C424.1,166.4 422.9,165.5 422.5,164.2 L415.4,141.3 L387.9,141.3 C386.9,141.3 386,140.9 385.4,140.1 C384.8,139.3 384.6,138.2 384.9,137.3 L389.5,121.1 C389.9,119.7 391.1,118.8 392.5,118.8 L408.8,118.8 L396.9,77.8 C396.9,77.8 396.4,75.6 394,75.6 C391.7,75.6 391,77.8 391,77.8 L365.5,164.3 C365.1,165.7 363.9,166.6 362.5,166.6 L346.677052,166.6 Z M273.5,65.6 L273.5,104 L298,104 C309.4,104 313.2,100.6 313.2,90.6 L313.2,78.6 C313.2,70.6 310.7,65.6 298,65.6 L273.5,65.6 Z M179.1,42.7 C179.9,42.7 180.6,43 181.2,43.6 C181.8,44.1 182.1,44.9 182.1,45.7 L182.1,140.5 C182.1,160.2 166.5,174.9 147.8,174.9 C145.6,174.9 144.2,174.1 143.8,172.8 L139,157.3 C138.7,156.4 138.9,155.5 139.4,154.7 C140,153.9 140.9,153.4 141.7,153.4 C147.7,153.1 156.5,149.3 156.5,137.7 L156.5,45.7 C156.5,44 157.8,42.7 159.5,42.7 L179.1,42.7 Z M27.6,10.6 C33.6,10.6 38.4,15.5 38.5,21.5 C38.5,27.5 33.6,32.4 27.6,32.4 C21.6,32.4 16.7,27.5 16.7,21.5 C16.7,15.5 21.6,10.6 27.6,10.6 Z M99,10.6 C105,10.6 109.9,15.5 109.9,21.5 C109.9,27.5 105,32.4 99,32.4 C93,32.4 88.1,27.5 88.1,21.5 C88.1,15.5 93,10.6 99,10.6 Z M63.3,0.7 C69.3,0.7 74.2,5.5 74.2,11.6 C74.2,17.6 69.3,22.5 63.3,22.5 C57.3,22.5 52.4,17.6 52.4,11.6 C52.4,5.6 57.3,0.7 63.3,0.7 Z M124.8,41 C125.7,41.7 126.2,42.9 126.1,43.8 C125,55.2 120.5,66.2 112.4,77.8 C104.8,88.7 94.9,98.8 85.3,108.6 C84.6,109.3 83.9,110 83.2,110.7 C82.5,111.5 82.1,112.9 83,114 C85.3,116.8 87.4,119.7 89.4,122.6 C99,136.6 103.9,149.8 104.6,163 C104.7,163.9 104.3,164.8 103.7,165.5 C103,166.2 102.1,166.6 101.2,166.6 L80.5,166.6 C78.7,166.6 77.2,165.2 77.1,163.4 C75.6,143.7 58.9,126.7 41.3,108.7 C31.7,98.9 21.8,88.8 14.2,77.9 C6.1,66.3 1.6,55.2 0.5,43.9 C0.4,42.8 0.9,41.6 1.8,40.9 C2.4,40.4 3.2,40.2 3.9,40.2 C4.3,40.2 4.7,40.2 5.1,40.4 C12.5,43.2 20,45.4 26.8,47 C28.2,47.3 29.3,48.4 29.8,49.6 C34.8,63.3 47.5,76.2 60.8,89.8 C61.3,90.4 62.1,91 63.3,91 C64.5,91 65.3,90.3 65.8,89.8 C79.1,76.2 91.8,63.2 96.8,49.6 C97.3,48.4 98.4,47.3 99.8,47 C106.7,45.5 114.1,43.3 121.5,40.5 C121.9,40.4 122.3,40.3 122.7,40.3 C123.5,40.3 124.2,40.5 124.8,41 Z M41,124.1 C47.3,130.6 51.4,135.3 54.9,139.8 C55.6,140.7 56.5,142.8 55.3,145 C51.8,151.4 50,157.4 49.5,163.5 C49.4,165.3 47.9,166.7 46.1,166.7 L25.4,166.7 C24.4,166.7 23.5,166.3 22.9,165.6 C22.3,165 22,164 22,163.1 C22.6,150.5 27.1,138 35.8,124.7 C36.1,124.2 37.1,123.1 38.6,123.1 C39.8,123.1 40.5,123.6 41,124.1 Z M63.3,51.1 C69.8,51.1 73.6,50.7 74.9,50.7 C76.5,50.7 78,52 78,53.9 C78,54.4 77.9,54.8 77.7,55.2 C76.8,57.5 72.9,65.8 65.6,72.9 C64.8,73.7 63.8,73.8 63.2,73.8 C62.6,73.8 61.6,73.7 60.8,72.9 C53.5,65.8 49.6,57.5 48.7,55.2 C48.6,54.9 48.4,54.5 48.4,53.9 C48.4,52.1 49.9,50.7 51.5,50.7 C53,50.7 56.8,51.1 63.3,51.1 Z" id="Shape" fill="#205081" fill-rule="nonzero"></path>
    </g>
</svg>