<?xml version="1.0" encoding="UTF-8" standalone="no"?>
<svg width="400px" height="350px" viewBox="0 0 400 350" version="1.1" xmlns="http://www.w3.org/2000/svg" xmlns:xlink="http://www.w3.org/1999/xlink">
    <!-- Generator: Sketch 50.2 (55047) - http://www.bohemiancoding.com/sketch -->
    <title>logo---powerpoint</title>
    <desc>Created with Sketch.</desc>
    <defs></defs>
    <g id="logo---powerpoint" stroke="none" stroke-width="1" fill="none" fill-rule="evenodd">
        <path d="M225,0 C128.466997,0.28146914 50.2814691,78.4669975 50,175 L271.7125,221.7125 L225,0 Z" id="Shape" fill="#ED6C47" fill-rule="nonzero"></path>
        <path d="M225,0 C321.533003,0.28146914 399.718531,78.4669975 400,175 L312.5,234.475 L225,175 L225,0 Z" id="Shape" fill="#FF8F6B" fill-rule="nonzero"></path>
        <path d="M225,350 C321.533003,349.718531 399.718531,271.533003 400,175 L50,175 C50.2814691,271.533003 128.466997,349.718531 225,350 Z" id="Shape" fill="#D35230" fill-rule="nonzero"></path>
        <path d="M208.325,62.5 L91.325,62.5 C32.0273133,132.366965 37.1125096,236.258073 102.95,300 L208.325,300 C217.520929,299.979407 224.972511,292.533411 225,283.3375 L225,79.1625 C224.972511,69.9665891 217.520929,62.5205931 208.325,62.5 Z" id="Shape" fill="#000000" fill-rule="nonzero" opacity="0.1"></path>
        <path d="M195.825,75 L81.75,75 C28.2235494,150.947708 43.8880902,255.561513 117.3125,312.5 L195.8375,312.5 C205.028548,312.472543 212.472543,305.028548 212.5,295.8375 L212.5,91.6625 C212.472511,82.4665891 205.020929,75.0205931 195.825,75 Z" id="Shape" fill="#000000" fill-rule="nonzero" opacity="0.2"></path>
        <path d="M195.825,75 L81.75,75 C36.0982641,139.725606 40.037161,227.142377 91.325,287.5 L195.8375,287.5 C205.028548,287.472543 212.472543,280.028548 212.5,270.8375 L212.5,91.6625 C212.472511,82.4665891 205.020929,75.0205931 195.825,75 Z" id="Shape" fill="#000000" fill-rule="nonzero" opacity="0.2"></path>
        <path d="M183.325,75 L81.75,75 C36.0982641,139.725606 40.037161,227.142377 91.325,287.5 L183.3375,287.5 C192.528548,287.472543 199.972543,280.028548 200,270.8375 L200,91.6625 C199.972511,82.4665891 192.520929,75.0205931 183.325,75 Z" id="Shape" fill="#000000" fill-rule="nonzero" opacity="0.2"></path>
        <path d="M16.6625,75 L183.3375,75 C192.539945,75 200,82.4600554 200,91.6625 L200,258.3375 C200,267.539945 192.539945,275 183.3375,275 L16.6625,275 C7.46005536,275 1.12697444e-15,267.539945 0,258.3375 L0,91.6625 C-1.12697444e-15,82.4600554 7.46005536,75 16.6625,75 Z" id="Shape" fill="#C43E1C" fill-rule="nonzero"></path>
        <path d="M99.9625,112.5 C112.270957,111.671303 124.474158,115.23703 134.4,122.5625 C142.648762,129.922938 147.055283,140.66729 146.35,151.7 C146.486525,158.769864 144.420211,165.707087 140.4375,171.55 C136.383614,178.007769 130.549462,183.156062 123.6375,186.375 C115.735137,190.044094 107.09821,191.856994 98.3875,191.675 L74.5125,191.675 L74.5125,237.5 L50,237.5 L50,112.5 L99.9625,112.5 Z M74.5,171.0375 L95.5875,171.0375 C102.27356,171.529206 108.908153,169.554837 114.2375,165.4875 C118.553011,162.711298 120.977891,157.774935 120.5375,152.6625 C120.5375,138.8375 112.483333,131.925 96.375,131.925 L74.5,131.925 L74.5,171.0375 Z" id="Shape" fill="#F9F7F7" fill-rule="nonzero"></path>
        <polygon id="Shape" points="0 -25 400 -25 400 375 0 375"></polygon>
    </g>
</svg>