<?xml version="1.0" encoding="UTF-8" standalone="no"?>
<svg width="576px" height="134px" viewBox="0 0 576 134" version="1.1" xmlns="http://www.w3.org/2000/svg" xmlns:xlink="http://www.w3.org/1999/xlink">
    <!-- Generator: Sketch 50.2 (55047) - http://www.bohemiancoding.com/sketch -->
    <title>logo---zendesk</title>
    <desc>Created with Sketch.</desc>
    <defs></defs>
    <g id="logo---zendesk" stroke="none" stroke-width="1" fill="none" fill-rule="evenodd">
        <path d="M106.8,31.2 C107.6,30.8 108,31.2 108.8,31.6 C117.2,33.6 124.4,38.4 129.6,45.2 C128,53.6 123.6,62 116,68 C109.6,73.2 101.6,75.6 94,75.6 C92.4,75.6 90.8,75.2 89.2,75.2 C94.4,69.2 98.8,62 98.8,53.6 C98.8,52.4 98.8,50.8 98.4,49.6 C102.8,44.8 105.6,38.4 106.8,31.2 Z M114.4,76 C117.2,81.2 118.4,87.2 118.4,93.2 C118.4,96.4 118,99.6 117.2,102.4 C112,105.2 106,106.8 99.6,106.8 C96.4,106.8 93.6,106.4 90.8,105.6 C81.6,103.2 74,97.6 69.2,90 C72.8,88 79.2,84.4 85.2,78.8 C88.4,80 92.4,80.8 96.4,80.8 C102.4,80.8 108.8,79.2 114.4,76 Z M101.2,24.8 C101.2,31.6 99.2,38 96.4,43.2 C93.2,38 87.6,35.2 82,35.2 C82,35.2 81.6,35.2 81.6,35.2 C80,35.2 78.8,35.2 77.2,35.6 C77.2,34.8 77.2,34.4 77.2,33.6 C77.2,24.8 74.8,16 68.4,9.2 C75.2,3.2 82.8,0 91.2,0 C91.2,0 91.6,0 91.6,0 C97.6,6.4 101.2,15.2 101.2,24.8 Z M36.8,0.8 C45.6,0.8 54,4 60.8,9.6 C68.8,16.8 72.8,26.4 72.8,36.4 C72.8,36.8 72.8,37.2 72.8,37.6 C70.4,38.8 68,40.8 66.4,44 C63.6,38.4 58,35.6 52.8,35.2 C46.4,29.2 37.6,25.2 27.6,25.2 C27.2,25.2 26.8,25.2 26.4,25.2 C26.4,25.2 26.4,24.8 26.4,24.8 C26.4,15.6 29.6,7.2 35.6,0.8 C35.6,0.8 36.4,0.8 36.8,0.8 Z M46.8,36 C40,37.6 34,43.6 34,53.6 C34,54 34,54.4 34,54.8 C26,56 18.4,60.8 13.2,68 C6,62.4 1.6,54 -2.13440376e-14,45.6 C4.8,38.4 12.8,33.2 22.4,31.6 C24.8,31.2 26.8,31.2 28.8,31.2 C35.2,31.2 41.6,32.8 46.8,36 Z M15.6,76 C20,68 26.8,62 35.2,59.2 C36.8,65.2 40.4,70.4 44.4,74.8 C40,81.2 37.6,88.4 37.6,96 C37.6,99.2 38,102.4 38.8,105.6 C35.6,106.4 32.8,106.8 30,106.8 C24,106.8 18,105.2 12.8,102.4 C12,99.6 11.6,96 11.6,92.8 C11.6,87.2 12.8,81.2 15.6,76 Z M65.2,127.6 C57.2,124.4 50,118 46.4,108.8 C44,104 43.2,99.2 43.2,94.4 C43.2,88.8 44.8,83.2 47.2,78 C54,84.4 61.6,88.4 64.4,90 C67.6,98.4 74.4,105.6 83.6,109.2 C80,117.6 73.2,124 65.2,127.6 Z M180.4,84 L149.2,120.8 L176,120.8 C178.8,120.8 181.2,123.2 181.2,126 C181.2,128.8 178.8,131.2 176,131.2 L136.8,131.2 C134,131.2 131.6,128.4 131.6,125.6 C131.6,124.4 132,122.8 133.2,121.6 L164.4,84.8 L137.2,84.8 C134.4,84.8 132,82.4 132,79.6 C132,76.8 134.4,74.4 137.2,74.4 L175.6,74.4 C179.2,74.4 181.6,77.2 181.6,80.4 C181.6,82 181.2,83.2 180.4,84 Z M242.8,107.2 C242.8,107.2 242.8,107.2 202,107.2 C202.8,116 209.6,122.4 219.2,122.4 C226,122.4 231.6,119.6 236.4,115.2 C237.2,114.4 238.4,114 239.6,114 C241.2,114 242.8,114.8 243.6,116 C244.4,116.8 244.8,118 244.8,119.2 C244.8,120.8 244,122.4 242.8,123.6 C237.2,129.6 228,133.6 218.8,133.6 C202,133.6 188.8,120 188.8,103.6 C188.8,86.8 202,73.6 218.4,73.6 C234.8,73.6 247.2,86.4 247.2,103.6 C247.6,105.2 245.2,107.2 242.8,107.2 Z M218.4,83.6 C209.6,83.6 203.6,89.2 202.4,98 C222.4,98 234.8,98 234.8,98 C233.6,90 227.2,83.6 218.4,83.6 Z M376.8,132.8 C373.2,132.8 370.4,130 370.4,126.4 L370.4,123.2 C366.8,129.6 359.6,133.2 351.6,133.2 C334.8,133.2 323.2,120.4 323.2,103.2 C323.2,86 334.8,73.2 351.6,73.2 C360,73.2 367.2,77.2 370.4,83.2 L370.4,49.2 C370.4,45.6 373.2,42.8 376.8,42.8 C380.4,42.8 383.2,45.6 383.2,49.2 L383.2,126.4 C383.6,130 380.4,132.8 376.8,132.8 Z M353.2,84.4 C342.8,84.4 336,92.8 336,103.2 C336,113.6 342.8,122 353.2,122 C363.6,122 370.4,114 370.4,103.2 C370.4,92.4 364,84.4 353.2,84.4 Z M448.8,107.2 C448.8,107.2 448.8,107.2 408,107.2 C408.8,116 415.6,122.4 425.2,122.4 C432,122.4 437.6,119.6 442.4,115.2 C443.2,114.4 444.4,114 445.6,114 C447.2,114 448.8,114.8 450,116 C450.8,116.8 451.2,118 451.2,119.2 C451.2,120.8 450.4,122.4 449.2,123.6 C443.6,129.6 434.4,133.6 425.2,133.6 C408.4,133.6 395.2,120 395.2,103.6 C395.2,86.8 408.4,73.6 424.8,73.6 C441.2,73.6 453.6,86.4 453.6,103.6 C453.6,105.2 451.2,107.2 448.8,107.2 Z M424.8,83.6 C416,83.6 410,89.2 408.8,98 C428.8,98 441.2,98 441.2,98 C439.6,90 433.2,83.6 424.8,83.6 Z M485.6,133.2 C479.2,133.2 470.8,131.2 464.4,127.6 C462.4,126.4 461.2,124.4 461.2,122.8 C461.2,122 461.6,121.6 461.6,120.8 C462.4,118.8 464,117.6 465.6,117.6 C466.4,117.6 467.6,118 468.4,118.4 C473.2,121.2 478.8,123.2 484.4,123.2 C490.8,123.2 498,121.2 498,116.4 C498,112.4 494.4,111.2 481.2,106.4 C470,102.4 464.4,97.6 464.4,89.6 C464.4,80 474,73.6 486.8,73.6 C495.6,73.6 501.2,75.6 506.4,78 C508.8,79.2 510,80.8 510,82.8 C510,83.6 510,84 509.6,84.8 C508.8,86.8 506.8,88.4 504.8,88.4 C504,88.4 503.6,88.4 502.8,88 C498,85.6 493.2,84.4 487.6,84.4 C480.8,84.4 476.4,86 476.4,90 C476.4,94.4 480,95.2 489.6,98.4 C501.6,102.4 510,106.4 510,116.4 C510.4,125.2 501.6,133.2 485.6,133.2 Z M569.6,132.4 C568,132.4 566,131.6 564.8,130.4 L543.2,105.6 L536.8,110.8 L536.8,126 C536.8,129.6 534,132.4 530.4,132.4 C526.8,132.4 524,129.6 524,126 L524,49.2 C524,45.6 526.8,42.8 530.4,42.8 C534,42.8 536.8,45.6 536.8,49.2 L536.8,96 L564,74.8 C565.2,74 566.4,73.6 567.6,73.6 C569.6,73.6 571.2,74.4 572.4,76 C573.2,77.2 574,78.4 574,79.6 C574,81.6 573.2,83.2 571.6,84.4 L553.2,98.8 L574.4,123.2 C575.2,124.4 576,125.6 576,127.2 C575.2,130 572.4,132.4 569.6,132.4 Z M285.6,72.8 C300.8,72.8 312.8,84.4 312.8,100 L312.8,126.8 C312.8,130.4 310,133.2 306.4,133.2 C302.8,133.2 300,130.4 300,126.8 L300,100.4 C300,91.6 294.8,84.4 285.6,84.4 C276,84.4 271.2,91.6 271.2,100.4 L271.2,126.8 C271.2,130.4 268.4,133.2 264.8,133.2 C261.2,133.2 258.4,130.4 258.4,126.8 L258.4,100 C258.4,84.4 270.8,72.8 285.6,72.8 Z" id="Shape" fill="#78A300" fill-rule="nonzero"></path>
    </g>
</svg>