<?xml version="1.0" encoding="UTF-8" standalone="no"?>
<svg width="1305px" height="134px" viewBox="0 0 1305 134" version="1.1" xmlns="http://www.w3.org/2000/svg" xmlns:xlink="http://www.w3.org/1999/xlink">
    <!-- Generator: Sketch 50.2 (55047) - http://www.bohemiancoding.com/sketch -->
    <title>logo---zendesk-and-airtable</title>
    <desc>Created with Sketch.</desc>
    <defs></defs>
    <g id="logo---zendesk-and-airtable" stroke="none" stroke-width="1" fill="none" fill-rule="evenodd">
        <path d="M106.8,31.2934132 C107.6,30.8922156 108,31.2934132 108.8,31.6946108 C117.2,33.7005988 124.4,38.5149701 129.6,45.3353293 C128,53.760479 123.6,62.1856287 116,68.2035928 C109.6,73.4191617 101.6,75.8263473 94,75.8263473 C92.4,75.8263473 90.8,75.4251497 89.2,75.4251497 C94.4,69.4071856 98.8,62.1856287 98.8,53.760479 C98.8,52.5568862 98.8,50.9520958 98.4,49.748503 C102.8,44.9341317 105.6,38.5149701 106.8,31.2934132 Z M114.4,76.2275449 C117.2,81.4431138 118.4,87.4610778 118.4,93.4790419 C118.4,96.6886228 118,99.8982036 117.2,102.706587 C112,105.51497 106,107.11976 99.6,107.11976 C96.4,107.11976 93.6,106.718563 90.8,105.916168 C81.6,103.508982 74,97.8922156 69.2,90.2694611 C72.8,88.2634731 79.2,84.6526946 85.2,79.0359281 C88.4,80.239521 92.4,81.0419162 96.4,81.0419162 C102.4,81.0419162 108.8,79.4371257 114.4,76.2275449 Z M101.2,24.8742515 C101.2,31.6946108 99.2,38.1137725 96.4,43.3293413 C93.2,38.1137725 87.6,35.3053892 82,35.3053892 C82,35.3053892 81.6,35.3053892 81.6,35.3053892 C80,35.3053892 78.8,35.3053892 77.2,35.7065868 C77.2,34.9041916 77.2,34.502994 77.2,33.7005988 C77.2,24.8742515 74.8,16.0479042 68.4,9.22754491 C75.2,3.20958084 82.8,0 91.2,0 C91.2,0 91.6,0 91.6,0 C97.6,6.41916168 101.2,15.245509 101.2,24.8742515 Z M36.8,0.80239521 C45.6,0.80239521 54,4.01197605 60.8,9.62874251 C68.8,16.8502994 72.8,26.4790419 72.8,36.508982 C72.8,36.9101796 72.8,37.3113772 72.8,37.7125749 C70.4,38.9161677 68,40.9221557 66.4,44.1317365 C63.6,38.5149701 58,35.7065868 52.8,35.3053892 C46.4,29.2874251 37.6,25.2754491 27.6,25.2754491 C27.2,25.2754491 26.8,25.2754491 26.4,25.2754491 C26.4,25.2754491 26.4,24.8742515 26.4,24.8742515 C26.4,15.6467066 29.6,7.22155689 35.6,0.80239521 C35.6,0.80239521 36.4,0.80239521 36.8,0.80239521 Z M46.8,36.1077844 C40,37.7125749 34,43.7305389 34,53.760479 C34,54.1616766 34,54.5628743 34,54.9640719 C26,56.1676647 18.4,60.9820359 13.2,68.2035928 C6,62.5868263 1.6,54.1616766 0,45.7365269 C4.8,38.5149701 12.8,33.2994012 22.4,31.6946108 C24.8,31.2934132 26.8,31.2934132 28.8,31.2934132 C35.2,31.2934132 41.6,32.8982036 46.8,36.1077844 Z M15.6,76.2275449 C20,68.2035928 26.8,62.1856287 35.2,59.3772455 C36.8,65.3952096 40.4,70.6107784 44.4,75.0239521 C40,81.4431138 37.6,88.6646707 37.6,96.2874251 C37.6,99.497006 38,102.706587 38.8,105.916168 C35.6,106.718563 32.8,107.11976 30,107.11976 C24,107.11976 18,105.51497 12.8,102.706587 C12,99.8982036 11.6,96.2874251 11.6,93.0778443 C11.6,87.4610778 12.8,81.4431138 15.6,76.2275449 Z M65.2,127.982036 C57.2,124.772455 50,118.353293 46.4,109.125749 C44,104.311377 43.2,99.497006 43.2,94.6826347 C43.2,89.0658683 44.8,83.4491018 47.2,78.2335329 C54,84.6526946 61.6,88.6646707 64.4,90.2694611 C67.6,98.6946108 74.4,105.916168 83.6,109.526946 C80,117.952096 73.2,124.371257 65.2,127.982036 Z M180.4,84.251497 L149.2,121.161677 L176,121.161677 C178.8,121.161677 181.2,123.568862 181.2,126.377246 C181.2,129.185629 178.8,131.592814 176,131.592814 L136.8,131.592814 C134,131.592814 131.6,128.784431 131.6,125.976048 C131.6,124.772455 132,123.167665 133.2,121.964072 L164.4,85.0538922 L137.2,85.0538922 C134.4,85.0538922 132,82.6467066 132,79.8383234 C132,77.0299401 134.4,74.6227545 137.2,74.6227545 L175.6,74.6227545 C179.2,74.6227545 181.6,77.4311377 181.6,80.6407186 C181.6,82.245509 181.2,83.4491018 180.4,84.251497 Z M242.8,107.520958 C242.8,107.520958 242.8,107.520958 202,107.520958 C202.8,116.347305 209.6,122.766467 219.2,122.766467 C226,122.766467 231.6,119.958084 236.4,115.54491 C237.2,114.742515 238.4,114.341317 239.6,114.341317 C241.2,114.341317 242.8,115.143713 243.6,116.347305 C244.4,117.149701 244.8,118.353293 244.8,119.556886 C244.8,121.161677 244,122.766467 242.8,123.97006 C237.2,129.988024 228,134 218.8,134 C202,134 188.8,120.359281 188.8,103.91018 C188.8,87.0598802 202,73.8203593 218.4,73.8203593 C234.8,73.8203593 247.2,86.6586826 247.2,103.91018 C247.6,105.51497 245.2,107.520958 242.8,107.520958 Z M218.4,83.8502994 C209.6,83.8502994 203.6,89.4670659 202.4,98.2934132 C222.4,98.2934132 234.8,98.2934132 234.8,98.2934132 C233.6,90.2694611 227.2,83.8502994 218.4,83.8502994 Z M376.8,133.197605 C373.2,133.197605 370.4,130.389222 370.4,126.778443 L370.4,123.568862 C366.8,129.988024 359.6,133.598802 351.6,133.598802 C334.8,133.598802 323.2,120.760479 323.2,103.508982 C323.2,86.257485 334.8,73.4191617 351.6,73.4191617 C360,73.4191617 367.2,77.4311377 370.4,83.4491018 L370.4,49.3473054 C370.4,45.7365269 373.2,42.9281437 376.8,42.9281437 C380.4,42.9281437 383.2,45.7365269 383.2,49.3473054 L383.2,126.778443 C383.6,130.389222 380.4,133.197605 376.8,133.197605 Z M353.2,84.6526946 C342.8,84.6526946 336,93.0778443 336,103.508982 C336,113.94012 342.8,122.365269 353.2,122.365269 C363.6,122.365269 370.4,114.341317 370.4,103.508982 C370.4,92.6766467 364,84.6526946 353.2,84.6526946 Z M448.8,107.520958 C448.8,107.520958 448.8,107.520958 408,107.520958 C408.8,116.347305 415.6,122.766467 425.2,122.766467 C432,122.766467 437.6,119.958084 442.4,115.54491 C443.2,114.742515 444.4,114.341317 445.6,114.341317 C447.2,114.341317 448.8,115.143713 450,116.347305 C450.8,117.149701 451.2,118.353293 451.2,119.556886 C451.2,121.161677 450.4,122.766467 449.2,123.97006 C443.6,129.988024 434.4,134 425.2,134 C408.4,134 395.2,120.359281 395.2,103.91018 C395.2,87.0598802 408.4,73.8203593 424.8,73.8203593 C441.2,73.8203593 453.6,86.6586826 453.6,103.91018 C453.6,105.51497 451.2,107.520958 448.8,107.520958 Z M424.8,83.8502994 C416,83.8502994 410,89.4670659 408.8,98.2934132 C428.8,98.2934132 441.2,98.2934132 441.2,98.2934132 C439.6,90.2694611 433.2,83.8502994 424.8,83.8502994 Z M485.6,133.598802 C479.2,133.598802 470.8,131.592814 464.4,127.982036 C462.4,126.778443 461.2,124.772455 461.2,123.167665 C461.2,122.365269 461.6,121.964072 461.6,121.161677 C462.4,119.155689 464,117.952096 465.6,117.952096 C466.4,117.952096 467.6,118.353293 468.4,118.754491 C473.2,121.562874 478.8,123.568862 484.4,123.568862 C490.8,123.568862 498,121.562874 498,116.748503 C498,112.736527 494.4,111.532934 481.2,106.718563 C470,102.706587 464.4,97.8922156 464.4,89.8682635 C464.4,80.239521 474,73.8203593 486.8,73.8203593 C495.6,73.8203593 501.2,75.8263473 506.4,78.2335329 C508.8,79.4371257 510,81.0419162 510,83.0479042 C510,83.8502994 510,84.251497 509.6,85.0538922 C508.8,87.0598802 506.8,88.6646707 504.8,88.6646707 C504,88.6646707 503.6,88.6646707 502.8,88.2634731 C498,85.8562874 493.2,84.6526946 487.6,84.6526946 C480.8,84.6526946 476.4,86.257485 476.4,90.2694611 C476.4,94.6826347 480,95.4850299 489.6,98.6946108 C501.6,102.706587 510,106.718563 510,116.748503 C510.4,125.57485 501.6,133.598802 485.6,133.598802 Z M569.6,132.796407 C568,132.796407 566,131.994012 564.8,130.790419 L543.2,105.916168 L536.8,111.131737 L536.8,126.377246 C536.8,129.988024 534,132.796407 530.4,132.796407 C526.8,132.796407 524,129.988024 524,126.377246 L524,49.3473054 C524,45.7365269 526.8,42.9281437 530.4,42.9281437 C534,42.9281437 536.8,45.7365269 536.8,49.3473054 L536.8,96.2874251 L564,75.0239521 C565.2,74.2215569 566.4,73.8203593 567.6,73.8203593 C569.6,73.8203593 571.2,74.6227545 572.4,76.2275449 C573.2,77.4311377 574,78.6347305 574,79.8383234 C574,81.8443114 573.2,83.4491018 571.6,84.6526946 L553.2,99.0958084 L574.4,123.568862 C575.2,124.772455 576,125.976048 576,127.580838 C575.2,130.389222 572.4,132.796407 569.6,132.796407 Z M285.6,73.0179641 C300.8,73.0179641 312.8,84.6526946 312.8,100.299401 L312.8,127.179641 C312.8,130.790419 310,133.598802 306.4,133.598802 C302.8,133.598802 300,130.790419 300,127.179641 L300,100.700599 C300,91.8742515 294.8,84.6526946 285.6,84.6526946 C276,84.6526946 271.2,91.8742515 271.2,100.700599 L271.2,127.179641 C271.2,130.790419 268.4,133.598802 264.8,133.598802 C261.2,133.598802 258.4,130.790419 258.4,127.179641 L258.4,100.299401 C258.4,84.6526946 270.8,73.0179641 285.6,73.0179641 Z" id="Shape" fill="#78A300" fill-rule="nonzero"></path>
        <g id="Group" transform="translate(816.000000, 0.000000)" fill-rule="nonzero">
            <path d="M220.599733,71.7525333 L212.827733,50.7904667 C212.515067,49.9328667 211.295667,49.9328667 210.978533,50.7904667 L203.206533,71.7525333 C203.093547,72.0549252 203.136284,72.3935234 203.320865,72.6583568 C203.505446,72.9231901 203.808325,73.0804771 204.131133,73.0791333 L219.675133,73.0791333 C219.997941,73.0804771 220.300821,72.9231901 220.485402,72.6583568 C220.669983,72.3935234 220.71272,72.0549252 220.599733,71.7525333 Z M224.190933,83.5311333 L199.66,83.5311333 C199.247315,83.530113 198.877963,83.7870537 198.7354,84.1743333 L193.898,97.217 C193.755437,97.6042797 193.386085,97.8612204 192.9734,97.8602 L182.3204,97.8602 C181.992231,97.862078 181.684784,97.7000103 181.500887,97.428201 C181.316989,97.1563916 181.280917,96.810721 181.404733,96.5068 L205.9714,35.4028 C206.121491,35.0291241 206.484377,34.7848399 206.887067,34.7864 L217.088933,34.7864 C217.491623,34.7848399 217.854509,35.0291241 218.0046,35.4028 L242.571267,96.5068 C242.695083,96.810721 242.659011,97.1563916 242.475113,97.428201 C242.291216,97.7000103 241.983769,97.862078 241.6556,97.8602 L230.926667,97.8602 C230.513982,97.8612204 230.14463,97.6042797 230.002067,97.217 L225.164667,84.1743333 C225.022104,83.7870537 224.652751,83.530113 224.240067,83.5311333 L224.190933,83.5311333 Z M247.4846,56.2308667 L256.5966,56.2308667 C256.858768,56.2296723 257.110544,56.3332899 257.295927,56.5186729 C257.48131,56.7040558 257.584928,56.9558316 257.583733,57.218 L257.583733,96.882 C257.584928,97.1441684 257.48131,97.3959442 257.295927,97.5813271 C257.110544,97.7667101 256.858768,97.8703277 256.5966,97.8691333 L247.4846,97.8691333 C247.222432,97.8703277 246.970656,97.7667101 246.785273,97.5813271 C246.59989,97.3959442 246.496272,97.1441684 246.497467,96.882 L246.497467,57.1286667 C246.496272,56.8664983 246.59989,56.6147225 246.785273,56.4293395 C246.970656,56.2439566 247.222432,56.1403389 247.4846,56.1415333 L247.4846,56.2308667 Z M290.811267,65.7895333 C290.812461,66.0517017 290.708843,66.3034775 290.52346,66.4888605 C290.338078,66.6742434 290.086302,66.7778611 289.824133,66.7766667 L289.5472,66.7766667 C285.080533,66.7766667 281.730533,67.8576 279.6312,70.0194667 C277.531867,72.1813333 276.477733,75.7546667 276.477733,80.7394667 L276.477733,96.7837333 C276.478928,97.0459017 276.37531,97.2976775 276.189927,97.4830605 C276.004544,97.6684434 275.752768,97.7720611 275.4906,97.7708667 L266.467933,97.7708667 C266.205765,97.7720611 265.953989,97.6684434 265.768606,97.4830605 C265.583223,97.2976775 265.479606,97.0459017 265.4808,96.7837333 L265.4808,57.1733333 C265.479606,56.911165 265.583223,56.6593892 265.768606,56.4740062 C265.953989,56.2886232 266.205765,56.1850056 266.467933,56.1862 L275.401267,56.1862 C275.663435,56.1850056 275.915211,56.2886232 276.100594,56.4740062 C276.285977,56.6593892 276.389594,56.911165 276.3884,57.1733333 L276.3884,65.0168 L276.567067,65.0168 C277.648,61.774 279.358733,59.2816 281.703733,57.5396 C284.048733,55.7976 286.929733,54.9266 290.3512,54.9266 L290.797867,54.9266 L290.811267,65.7895333 Z M315.726333,65.4232667 C315.464165,65.4220723 315.212389,65.5256899 315.027006,65.7110729 C314.841623,65.8964558 314.738006,66.1482316 314.7392,66.4104 L314.7392,82.9058 C314.7392,84.5897333 315.069733,85.7868 315.7308,86.5104 C316.391867,87.234 317.530867,87.5913333 319.152267,87.5913333 L320.059,87.5913333 C320.321168,87.5901389 320.572944,87.6937566 320.758327,87.8791395 C320.94371,88.0645225 321.047328,88.3162983 321.046133,88.5784667 L321.046133,96.9266667 C321.047328,97.188835 320.94371,97.4406108 320.758327,97.6259938 C320.572944,97.8113768 320.321168,97.9149944 320.059,97.9138 L316.173,97.9138 C312.153,97.9138 309.053133,96.8775333 306.891267,94.805 C304.7294,92.7324667 303.648467,89.6549333 303.648467,85.5679333 L303.648467,66.4595333 C303.649661,66.197365 303.546043,65.9455892 303.36066,65.7602062 C303.175278,65.5748232 302.923502,65.4712056 302.661333,65.4724 L296.975267,65.4724 C296.713098,65.4735944 296.461322,65.3699768 296.27594,65.1845938 C296.090557,64.9992108 295.986939,64.747435 295.988133,64.4852667 L295.988133,57.1733333 C295.986939,56.911165 296.090557,56.6593892 296.27594,56.4740062 C296.461322,56.2886232 296.713098,56.1850056 296.975267,56.1862 L302.661333,56.1862 C302.923502,56.1873944 303.175278,56.0837768 303.36066,55.8983938 C303.546043,55.7130108 303.649661,55.461235 303.648467,55.1990667 L303.648467,40.4590667 C303.647272,40.1968983 303.75089,39.9451225 303.936273,39.7597395 C304.121656,39.5743566 304.373432,39.4707389 304.6356,39.4719333 L313.7476,39.4719333 C314.009768,39.4707389 314.261544,39.5743566 314.446927,39.7597395 C314.63231,39.9451225 314.735928,40.1968983 314.734733,40.4590667 L314.734733,55.1990667 C314.733539,55.461235 314.837157,55.7130108 315.02254,55.8983938 C315.207922,56.0837768 315.459698,56.1873944 315.721867,56.1862 L322.3102,56.1862 C322.572368,56.1850056 322.824144,56.2886232 323.009527,56.4740062 C323.19491,56.6593892 323.298528,56.911165 323.297333,57.1733333 L323.297333,64.4852667 C323.298528,64.747435 323.19491,64.9992108 323.009527,65.1845938 C322.824144,65.3699768 322.572368,65.4735944 322.3102,65.4724 L315.726333,65.4232667 Z M357.445,85.425 C359.517533,83.2631333 360.5538,80.4402 360.5538,76.9562 C360.5538,73.4722 359.517533,70.6492667 357.445,68.4874 C355.372467,66.3255333 352.652267,65.2446 349.288867,65.2446 C345.925467,65.2446 343.2142,66.3255333 341.132733,68.4874 C339.051267,70.6492667 338.023933,73.4722 338.023933,76.9562 C338.023933,80.4402 339.0602,83.2631333 341.132733,85.425 C343.205267,87.5868667 345.921,88.6678 349.288867,88.6678 C352.656733,88.6678 355.372467,87.5868667 357.445,85.425 Z M336.451667,96.5023333 C333.347551,94.7193976 330.827659,92.0738209 329.1978,88.8866667 C327.424533,85.5545333 326.540133,81.5747333 326.540133,76.9472667 C326.540133,72.3198 327.424533,68.3444667 329.1978,65.0078667 C330.971067,61.6712667 333.387533,59.1386667 336.451667,57.3922 C339.525994,55.6471437 343.006956,54.7456993 346.541867,54.7792 C349.784667,54.7792 352.562933,55.4045333 354.876667,56.6730667 C357.1904,57.9416 359.030667,59.7104 360.415333,62.0330667 L360.594,62.0330667 L360.594,57.1733333 C360.592806,56.911165 360.696423,56.6593892 360.881806,56.4740062 C361.067189,56.2886232 361.318965,56.1850056 361.581133,56.1862 L370.6038,56.1862 C370.865968,56.1850056 371.117744,56.2886232 371.303127,56.4740062 C371.48851,56.6593892 371.592128,56.911165 371.590933,57.1733333 L371.590933,96.8373333 C371.592128,97.0995017 371.48851,97.3512775 371.303127,97.5366605 C371.117744,97.7220434 370.865968,97.8256611 370.6038,97.8244667 L361.581133,97.8244667 C361.318965,97.8256611 361.067189,97.7220434 360.881806,97.5366605 C360.696423,97.3512775 360.592806,97.0995017 360.594,96.8373333 L360.594,91.924 L360.415333,91.924 C359.075333,94.1573333 357.185933,95.9797333 354.876667,97.284 C352.5674,98.5882667 349.784667,99.1778667 346.541867,99.1778667 C342.8792,99.1778667 339.5158,98.3068667 336.4472,96.5648667 L336.451667,96.5023333 Z M409.110933,85.4875333 C411.183467,83.3256667 412.219733,80.5027333 412.219733,77.0187333 C412.219733,73.5347333 411.183467,70.7118 409.110933,68.5499333 C407.0384,66.3880667 404.3182,65.3071333 400.9548,65.3071333 C397.5914,65.3071333 394.8712,66.3880667 392.798667,68.5499333 C390.726133,70.7118 389.689867,73.5347333 389.689867,77.0187333 C389.689867,80.5027333 390.726133,83.3256667 392.798667,85.4875333 C394.8712,87.6494 397.586933,88.7303333 400.9548,88.7303333 C404.322667,88.7303333 407.0384,87.6494 409.110933,85.4875333 Z M395.416133,97.2929333 C393.123451,96.0526923 391.208304,94.2162498 389.873,91.9776 L389.694333,91.9776 L389.694333,96.8909333 C389.695528,97.1531017 389.59191,97.4048775 389.406527,97.5902605 C389.221144,97.7756434 388.969368,97.8792611 388.7072,97.8780667 L379.5952,97.8780667 C379.333032,97.8792611 379.081256,97.7756434 378.895873,97.5902605 C378.71049,97.4048775 378.606872,97.1531017 378.608067,96.8909333 L378.608067,35.7333333 C378.606872,35.471165 378.71049,35.2193892 378.895873,35.0340062 C379.081256,34.8486232 379.333032,34.7450056 379.5952,34.7462 L388.7072,34.7462 C388.969368,34.7450056 389.221144,34.8486232 389.406527,35.0340062 C389.59191,35.2193892 389.695528,35.471165 389.694333,35.7333333 L389.694333,62.0866667 L389.873,62.0866667 C391.208304,59.8480169 393.123451,58.0115743 395.416133,56.7713333 C397.729867,55.5072667 400.508133,54.8774667 403.750933,54.8774667 C407.285844,54.843966 410.766806,55.7454104 413.841133,57.4904667 C416.905267,59.2771333 419.321733,61.7695333 421.095,65.1061333 C422.868267,68.4427333 423.752667,72.4225333 423.752667,77.0455333 C423.752667,81.6685333 422.859333,85.6528 421.095,88.9849333 C419.330667,92.3170667 416.905267,94.8586 413.841133,96.6006 C410.777,98.3426 407.409133,99.2136 403.746467,99.2136 C400.503667,99.2136 397.7254,98.5882667 395.411667,97.3197333 L395.416133,97.2929333 Z M439.095667,97.8557333 L429.983667,97.8557333 C429.721498,97.8569277 429.469722,97.7533101 429.28434,97.5679271 C429.098957,97.3825442 428.995339,97.1307684 428.996533,96.8686 L428.996533,35.7333333 C428.995339,35.471165 429.098957,35.2193892 429.28434,35.0340062 C429.469722,34.8486232 429.721498,34.7450056 429.983667,34.7462 L439.095667,34.7462 C439.357835,34.7450056 439.609611,34.8486232 439.794994,35.0340062 C439.980377,35.2193892 440.083994,35.471165 440.0828,35.7333333 L440.0828,96.9266667 C440.083994,97.188835 439.980377,97.4406108 439.794994,97.6259938 C439.609611,97.8113768 439.357835,97.9149944 439.095667,97.9138 L439.095667,97.8557333 Z M460.589267,65.9324667 C459.079533,67.1116667 458.056667,68.8134667 457.5296,71.0378667 C457.386667,71.6498 457.8646,72.2438667 458.4944,72.2438667 L475.834,72.2438667 C476.437,72.2438667 476.906,71.7078667 476.816667,71.1093333 C476.468267,69.01 475.566,67.3260667 474.109867,66.0709333 C472.399133,64.5969333 470.161333,63.8644 467.396467,63.8644 C464.6316,63.8644 462.367,64.5567333 460.593733,65.9369333 L460.589267,65.9324667 Z M482.806467,60.7556 C486.348533,64.6326667 488.166467,70.1132667 488.166467,77.1929333 L488.166467,78.3721333 C488.167661,78.6343017 488.064043,78.8860775 487.87866,79.0714605 C487.693278,79.2568434 487.441502,79.3604611 487.179333,79.3592667 L458.208533,79.3592667 C457.5966,79.3592667 457.1276,79.9176 457.2348,80.5206 C457.699333,83.2006 458.860667,85.2463333 460.727733,86.7962667 C462.858333,88.5695333 465.551733,89.4539333 468.790067,89.4539333 C472.9798,89.4539333 476.8524,87.8191333 480.4168,84.5495333 C480.62649,84.3605948 480.907299,84.2709458 481.187678,84.3034287 C481.468057,84.3359116 481.72093,84.4873897 481.881867,84.7192667 L486.3128,91.0798 C486.602703,91.4895387 486.537223,92.0518983 486.160933,92.3840667 C483.986615,94.2893513 481.568246,95.8965899 478.9696,97.1634 C476.0886,98.5748667 472.693933,99.2806 468.7856,99.2806 C464.318933,99.2806 460.298933,98.3649333 456.9802,96.5336 C453.673868,94.7612889 450.951288,92.0697357 449.1412,88.7839333 C447.2786,85.4518 446.349533,81.6372667 446.349533,77.2063333 C446.349533,72.7754 447.2518,68.943 449.051867,65.5840667 C450.851933,62.2251333 453.3756,59.6076667 456.622867,57.7450667 C459.870133,55.8824667 463.648933,54.9534 467.977133,54.9534 C474.342133,54.9534 479.300133,56.8919333 482.8422,60.7600667 L482.806467,60.7556 Z M258.838867,41.6427333 C258.831494,45.3572512 255.822118,48.3666275 252.1076,48.374 C248.393082,48.3666275 245.383706,45.3572512 245.376333,41.6427333 C245.383706,37.9282155 248.393082,34.9188392 252.1076,34.9114667 C255.822118,34.9188392 258.831494,37.9282155 258.838867,41.6427333 Z" id="Shape" fill="#333333"></path>
            <path d="M72.1813333,4.09146667 L14.6596,27.8988 C11.4614667,29.2209333 11.5329333,33.768 14.7132,35.0454667 L72.4761333,57.9505333 C77.5516663,59.9627136 83.203667,59.9627136 88.2792,57.9505333 L146.042133,35.0454667 C149.258133,33.768 149.293867,29.2254 146.095733,27.8988 L88.574,4.09146667 C83.3254971,1.92007235 77.4298362,1.92007235 72.1813333,4.09146667" id="Shape" fill="#FFCC00"></path>
            <path d="M85.5098667,70.4527333 L85.5098667,127.626067 C85.5098667,130.306067 88.2524,132.213333 90.7805333,131.208333 L155.100533,106.226267 C156.571967,105.647063 157.538112,104.225324 157.534867,102.644 L157.534867,45.4706667 C157.534867,42.7906667 154.792333,40.8834 152.2642,41.8884 L87.9442,66.8704667 C86.4727659,67.4496703 85.5066214,68.8714097 85.5098667,70.4527333" id="Shape" fill="#31C2F2"></path>
            <path d="M70.484,73.4052 L49.4906667,83.5668667 L9.1656,102.889667 C6.61066667,104.122467 3.34553333,102.264333 3.34553333,99.4190667 L3.34553333,45.7118667 C3.34553333,44.6845333 3.8726,43.7912 4.57833333,43.1301333 C4.86717195,42.8417528 5.19492444,42.5951867 5.55206667,42.3976 C6.62096948,41.7859595 7.90784163,41.6859605 9.0584,42.1251333 L70.2517333,66.3523333 C73.3605333,67.5851333 73.6017333,71.9356667 70.5733333,73.4096667" id="Shape" fill="#ED3049"></path>
            <path d="M70.484,73.4052 L51.3756,82.6333333 L4.4756,43.1301333 C4.76443862,42.8417528 5.09219111,42.5951867 5.44933333,42.3976 C6.51823615,41.7859595 7.8051083,41.6859605 8.95566667,42.1251333 L70.149,66.3523333 C73.2578,67.5851333 73.499,71.9356667 70.4706,73.4096667" id="Shape" fill="#C62842"></path>
        </g>
        <path d="M696,37 L696,37 C698.782997,37 701.039062,39.2560651 701.039062,42.0390625 L701.039062,61.9609375 L720.960938,61.9609375 C723.743935,61.9609375 726,64.2170026 726,67 L726,67 C726,69.7829974 723.743935,72.0390625 720.960938,72.0390625 L701.039062,72.0390625 L701.039062,91.9609375 C701.039062,94.7439349 698.782997,97 696,97 L696,97 C693.217003,97 690.960938,94.7439349 690.960938,91.9609375 L690.960938,72.0390625 L671.039062,72.0390625 C668.256065,72.0390625 666,69.7829974 666,67 L666,67 C666,64.2170026 668.256065,61.9609375 671.039062,61.9609375 L690.960938,61.9609375 L690.960938,42.0390625 C690.960938,39.2560651 693.217003,37 696,37 Z" id="+" fill="#AAAAAA"></path>
    </g>
</svg>