<?xml version="1.0" encoding="UTF-8"?>
<svg width="720px" height="140px" viewBox="0 0 720 140" version="1.1" xmlns="http://www.w3.org/2000/svg" xmlns:xlink="http://www.w3.org/1999/xlink">
    <!-- Generator: Sketch 61 (89581) - https://sketch.com -->
    <title>logo---google-docs</title>
    <desc>Created with Sketch.</desc>
    <defs>
        <linearGradient x1="100%" y1="50%" x2="0.0791556689%" y2="50%" id="linearGradient-1">
            <stop stop-color="#000000" stop-opacity="0" offset="0%"></stop>
            <stop stop-color="#000000" offset="99.9841639%"></stop>
        </linearGradient>
    </defs>
    <g id="logo---google-docs" stroke="none" stroke-width="1" fill="none" fill-rule="evenodd">
        <g id="google_docs">
            <path d="M271.388,82.364 C271.388,72.54 264.26,65.82 255.988,65.82 C247.716,65.82 240.588,72.54 240.588,82.364 C240.588,92.092 247.716,98.912 255.988,98.912 C264.26,98.912 271.388,92.08 271.388,82.364 Z M283.38,82.364 C283.38,98.088 271.08,109.672 255.988,109.672 C240.892,109.672 228.596,98.088 228.596,82.364 C228.596,66.536 240.892,55.06 255.988,55.06 C271.08,55.06 283.38,66.536 283.38,82.364 L283.38,82.364 Z" id="Fill-1" fill="#787879"></path>
            <path d="M330.48,82.364 C330.48,72.54 323.352,65.82 315.076,65.82 C306.804,65.82 299.676,72.54 299.676,82.364 C299.676,92.092 306.804,98.912 315.076,98.912 C323.352,98.912 330.48,92.08 330.48,82.364 Z M342.468,82.364 C342.468,98.088 330.172,109.672 315.076,109.672 C299.984,109.672 287.688,98.088 287.688,82.364 C287.688,66.548 299.984,55.06 315.076,55.06 C330.172,55.06 342.468,66.536 342.468,82.364 L342.468,82.364 Z" id="Fill-2" fill="#787879"></path>
            <path d="M388.56,82.464 C388.56,72.848 382.148,65.82 373.984,65.82 C365.712,65.82 358.78,72.848 358.78,82.464 C358.78,91.98 365.712,98.912 373.984,98.912 C382.144,98.912 388.56,91.98 388.56,82.464 Z M399.096,56.708 L399.096,105.732 C399.096,125.896 387.204,134.132 373.148,134.132 C359.912,134.132 351.948,125.28 348.944,118.04 L359.384,113.696 C361.244,118.14 365.796,123.384 373.136,123.384 C382.136,123.384 387.712,117.832 387.712,107.38 L387.712,103.452 L387.292,103.452 C384.608,106.764 379.436,109.66 372.912,109.66 C359.26,109.66 346.752,97.768 346.752,82.464 C346.752,67.052 359.26,55.06 372.912,55.06 C379.428,55.06 384.596,57.952 387.292,61.168 L387.712,61.168 L387.712,56.724 L399.096,56.724 L399.096,56.708 L399.096,56.708 Z" id="Fill-3" fill="#787879"></path>
            <polygon id="Fill-4" fill="#787879" points="406.176 107.996 417.872 107.996 417.872 27.976 406.176 27.976"></polygon>
            <path d="M434.8,81.528 L459.196,71.396 C457.856,67.988 453.816,65.612 449.064,65.612 C442.972,65.612 434.492,70.992 434.8,81.528 Z M463.444,91.352 L472.752,97.556 C469.748,102 462.508,109.66 450.004,109.66 C434.488,109.66 422.908,97.668 422.908,82.352 C422.908,66.116 434.588,55.048 448.66,55.048 C462.828,55.048 469.76,66.324 472.024,72.42 L473.268,75.52 L436.768,90.64 C439.564,96.116 443.908,98.912 450.004,98.912 C456.108,98.912 460.344,95.908 463.444,91.352 L463.444,91.352 Z" id="Fill-5" fill="#787879"></path>
            <path d="M184.328,75.264 L184.328,63.68 L223.364,63.676 C223.744,65.696 223.944,68.084 223.944,70.672 C223.944,79.364 221.568,90.108 213.908,97.764 C206.464,105.52 196.944,109.656 184.34,109.656 C160.972,109.656 141.328,90.624 141.328,67.26 C141.328,43.896 160.972,24.864 184.34,24.864 C197.264,24.864 206.476,29.932 213.392,36.544 L205.22,44.72 C200.256,40.068 193.536,36.448 184.328,36.448 C167.264,36.448 153.92,50.196 153.92,67.26 C153.92,84.324 167.264,98.072 184.328,98.072 C195.396,98.072 201.696,93.628 205.736,89.592 C209.008,86.316 211.164,81.64 212.012,75.248 L184.328,75.264" id="Fill-6" fill="#787879"></path>
            <path d="M501.72,107.996 L501.72,34.172 L524.3,34.172 C535.576,34.172 544.632,37.572 551.472,44.38 C558.312,51.184 561.732,60.088 561.732,71.084 C561.732,82.152 558.312,91.072 551.472,97.84 C544.632,104.612 535.576,107.996 524.3,107.996 L501.72,107.996 Z M511.208,43.244 L511.208,98.924 L524.3,98.924 C532.896,98.924 539.664,96.468 544.616,91.552 C549.564,86.636 552.04,79.816 552.04,71.084 C552.04,62.424 549.564,55.62 544.616,50.668 C539.664,45.72 532.896,43.244 524.3,43.244 L511.208,43.244 L511.208,43.244 Z" id="Fill-7" fill="#787879"></path>
            <path d="M566.884,82.736 C566.884,74.968 569.324,68.54 574.208,63.456 C579.156,58.368 585.376,55.824 592.868,55.824 C600.36,55.824 606.548,58.368 611.428,63.456 C616.376,68.54 618.852,74.968 618.852,82.736 C618.852,90.572 616.376,97 611.428,102.016 C606.548,107.104 600.36,109.648 592.868,109.648 C585.376,109.648 579.156,107.104 574.208,102.016 C569.324,96.932 566.884,90.504 566.884,82.736 Z M576.372,82.736 C576.372,88.168 577.952,92.568 581.116,95.932 C584.276,99.304 588.192,100.984 592.868,100.984 C597.544,100.984 601.46,99.304 604.624,95.932 C607.784,92.568 609.368,88.168 609.368,82.736 C609.368,77.376 607.784,73.008 604.624,69.64 C601.392,66.204 597.472,64.484 592.868,64.484 C588.264,64.484 584.344,66.204 581.116,69.64 C577.952,73.008 576.372,77.376 576.372,82.736 L576.372,82.736 Z" id="Fill-8" fill="#787879"></path>
            <path d="M650.608,109.648 C643.116,109.648 636.896,107.104 631.948,102.016 C627.064,96.792 624.624,90.364 624.624,82.736 C624.624,74.968 627.064,68.54 631.948,63.456 C636.896,58.368 643.116,55.824 650.608,55.824 C655.764,55.824 660.268,57.112 664.116,59.692 C667.968,62.268 670.852,65.824 672.78,70.36 L664.116,73.972 C661.436,67.648 656.728,64.484 649.992,64.484 C645.66,64.484 641.912,66.236 638.752,69.744 C635.66,73.248 634.112,77.58 634.112,82.736 C634.112,87.892 635.66,92.22 638.752,95.728 C641.912,99.232 645.66,100.984 649.992,100.984 C656.932,100.984 661.812,97.824 664.632,91.5 L673.088,95.108 C671.232,99.644 668.328,103.204 664.376,105.78 C660.42,108.356 655.832,109.648 650.608,109.648" id="Fill-9" fill="#787879"></path>
            <path d="M720,93.976 C720,98.376 718.076,102.084 714.224,105.112 C710.376,108.132 705.528,109.648 699.688,109.648 C694.6,109.648 690.132,108.324 686.284,105.676 C682.432,103.032 679.684,99.544 678.036,95.212 L686.488,91.604 C687.728,94.628 689.532,96.984 691.904,98.668 C694.272,100.352 696.868,101.192 699.688,101.192 C702.712,101.192 705.236,100.54 707.268,99.232 C709.292,97.928 710.308,96.38 710.308,94.592 C710.308,91.36 707.832,88.992 702.884,87.48 L694.224,85.312 C684.392,82.84 679.48,78.096 679.48,71.084 C679.48,66.48 681.352,62.784 685.096,60 C688.844,57.216 693.636,55.824 699.48,55.824 C703.948,55.824 707.988,56.892 711.596,59.02 C715.208,61.152 717.732,64.004 719.176,67.58 L710.72,71.084 C709.756,68.956 708.196,67.288 706.028,66.084 C703.864,64.88 701.44,64.276 698.76,64.276 C696.284,64.276 694.068,64.896 692.108,66.136 C690.152,67.372 689.172,68.884 689.172,70.672 C689.172,73.556 691.884,75.62 697.316,76.856 L704.948,78.816 C714.98,81.292 720,86.344 720,93.976" id="Fill-10" fill="#787879"></path>
            <path d="M91.056,139.12 L8.72,139.12 C3.904,139.12 0,135.216 0,130.4 L0,9.6 C0,4.784 3.904,0.88 8.72,0.88 L61.18,0.88 L99.776,38.864 L99.776,130.4 C99.776,135.216 95.872,139.12 91.056,139.12" id="Fill-11" fill="#5290F5"></path>
            <polygon id="Fill-12" fill="#F1F1F1" points="23.496 76.692 74.248 76.692 74.248 70.468 23.496 70.468"></polygon>
            <polygon id="Fill-13" fill="#F1F1F1" points="23.496 89.148 74.248 89.148 74.248 82.92 23.496 82.92"></polygon>
            <polygon id="Fill-14" fill="#F1F1F1" points="23.496 101.604 74.248 101.604 74.248 95.376 23.496 95.376"></polygon>
            <polygon id="Fill-15" fill="#F1F1F1" points="23.496 114.052 62.104 114.052 62.104 107.828 23.496 107.828"></polygon>
            <polygon id="Rectangle" fill="url(#linearGradient-1)" opacity="0.25" transform="translate(90.677660, 46.368776) rotate(45.000000) translate(-90.677660, -46.368776) " points="115.24835 58.0724692 66.1069696 58.1117801 91.8016516 34.6257713"></polygon>
            <path d="M70.04,38.86 L99.772,38.86 L61.18,0.896 L61.18,30 C61.18,34.896 65.148,38.86 70.04,38.86" id="Fill-17" fill="#A6C5FA"></path>
        </g>
    </g>
</svg>