<?xml version="1.0" encoding="UTF-8" standalone="no"?>
<svg width="398px" height="250px" viewBox="0 0 398 250" version="1.1" xmlns="http://www.w3.org/2000/svg" xmlns:xlink="http://www.w3.org/1999/xlink">
    <!-- Generator: Sketch 50.2 (55047) - http://www.bohemiancoding.com/sketch -->
    <title>logo---gong-io</title>
    <desc>Created with Sketch.</desc>
    <defs></defs>
    <g id="logo---gong-io" stroke="none" stroke-width="1" fill="none" fill-rule="evenodd">
        <g id="gong-io" fill-rule="nonzero">
            <polygon id="Shape" fill="#FA3354" points="245.25 77.25 253.5 43.8 206.8 46.8 197.55 9.65 163.75 29.6 146.2 0.05 122.2 24.65 92.75 4.65 80.95 35.6 27.9 26.8 44.6 63.75 5.6 78.3 29.9 113.65 0.45 154.6 53.45 159.6 5.9 250.05 80.75 193.55 99.75 225.5 119.35 197.55 152.6 230.1 175.35 199.75 219.5 211.35 220.45 169.6 261.4 163.65 245.6 124.7 272.95 101.25"></polygon>
            <path d="M140.15,111.75 L137.15,151.05 C133.25,153.05 128.65,154.6 123.35,155.65 C118.05,156.7 112.4,157.25 106.35,157.25 C98.45,157.25 91.6,155.7 85.8,152.6 C80,149.5 75.55,145.05 72.4,139.3 C69.25,133.55 67.7,126.8 67.7,119 C67.7,110.45 69.45,102.95 72.95,96.55 C76.45,90.1 81.45,85.15 87.9,81.65 C94.35,78.15 101.9,76.4 110.55,76.4 C122.65,76.4 132.35,79.25 139.55,85.05 L132,99.8 C128.8,97.35 125.7,95.55 122.6,94.45 C119.5,93.3 115.9,92.75 111.85,92.75 C104.4,92.75 98.65,95.1 94.6,99.75 C90.55,104.4 88.55,110.9 88.55,119.25 C88.55,126.5 90.25,132.05 93.7,135.85 C97.15,139.7 102.3,141.6 109.25,141.6 C112.35,141.6 115.65,141.15 119.2,140.25 L120.3,125.85 L106.45,125.85 L107.55,111.8 L140.15,111.8 L140.15,111.75 Z" id="Shape" fill="#FFFFFF"></path>
            <path d="M204,134.25 C207.5,129.45 209.25,122.85 209.25,114.4 C209.25,107.4 207.65,101.95 204.5,98.05 C201.3,94.15 196.9,92.25 191.2,92.25 C185.05,92.25 180.25,94.65 176.8,99.45 C173.3,104.25 171.6,110.85 171.6,119.3 C171.6,126.4 173.15,131.85 176.3,135.7 C179.45,139.55 183.9,141.45 189.75,141.45 C195.75,141.45 200.5,139.05 204,134.25 M169.3,152.8 C163.4,149.75 158.85,145.3 155.7,139.55 C152.5,133.8 150.95,127.05 150.95,119.3 C150.95,110.75 152.6,103.2 155.9,96.7 C159.2,90.2 163.85,85.2 169.9,81.65 C175.95,78.1 182.95,76.35 190.95,76.35 C198.85,76.35 205.75,77.9 211.65,80.95 C217.55,84 222.1,88.45 225.25,94.2 C228.45,99.95 230,106.7 230,114.45 C230,123.05 228.35,130.55 225.05,137.05 C221.75,143.55 217.1,148.6 211.05,152.1 C205,155.65 198,157.4 190,157.4 C182.1,157.4 175.2,155.9 169.3,152.8" id="Shape" fill="#FFFFFF"></path>
            <polygon id="Shape" fill="#FFFFFF" points="296.35 77.4 315.75 77.4 309.55 156.3 294.05 156.3 261.9 112.3 258.35 156.3 239.1 156.3 245.3 77.4 260.45 77.4 292.7 121.5"></polygon>
            <path d="M397.4,111.75 L394.4,151.05 C390.5,153.05 385.9,154.6 380.6,155.65 C375.3,156.7 369.65,157.25 363.6,157.25 C355.7,157.25 348.85,155.7 343.05,152.6 C337.25,149.5 332.8,145.05 329.65,139.3 C326.5,133.55 324.95,126.8 324.95,119 C324.95,110.45 326.7,102.95 330.2,96.55 C333.7,90.1 338.7,85.15 345.15,81.65 C351.6,78.15 359.15,76.4 367.8,76.4 C379.9,76.4 389.6,79.25 396.8,85.05 L389.25,99.8 C386.05,97.35 382.95,95.55 379.85,94.45 C376.75,93.3 373.15,92.75 369.1,92.75 C361.65,92.75 355.9,95.1 351.85,99.75 C347.8,104.4 345.8,110.9 345.8,119.25 C345.8,126.5 347.5,132.05 350.95,135.85 C354.4,139.7 359.55,141.6 366.5,141.6 C369.6,141.6 372.9,141.15 376.45,140.25 L377.55,125.85 L363.7,125.85 L364.8,111.8 L397.4,111.8 L397.4,111.75 Z" id="Shape" fill="#FFFFFF"></path>
        </g>
    </g>
</svg>