<?xml version="1.0" encoding="UTF-8" standalone="no"?>
<svg width="596px" height="582px" viewBox="0 0 596 582" version="1.1" xmlns="http://www.w3.org/2000/svg" xmlns:xlink="http://www.w3.org/1999/xlink">
    <!-- Generator: Sketch 50.2 (55047) - http://www.bohemiancoding.com/sketch -->
    <title>logo---photoshop</title>
    <desc>Created with Sketch.</desc>
    <defs>
        <radialGradient cx="32.9650704%" cy="22.43%" fx="32.9650704%" fy="22.43%" r="78.1307812%" gradientTransform="translate(0.329651,0.224300),scale(0.972727,1.000000),translate(-0.329651,-0.224300)" id="radialGradient-1">
            <stop stop-color="#34364E" stop-opacity="0.98" offset="0%"></stop>
            <stop stop-color="#0C0824" offset="100%"></stop>
        </radialGradient>
    </defs>
    <g id="logo---photoshop" stroke="none" stroke-width="1" fill="none" fill-rule="evenodd">
        <polygon id="Shape" fill="url(#radialGradient-1)" fill-rule="nonzero" points="24.803 25.549 570.477 25.549 570.477 556.341 24.803 556.341"></polygon>
        <path d="M24.803,25.549 L570.477,25.549 L570.477,556.341 L24.803,556.341 L24.803,25.549 Z M0,581.145 L595.28,581.145 L595.28,0.746 L0,0.746 L0,581.145 Z M401.318,238.858 C381.723,238.858 375.027,248.779 375.027,256.964 C375.027,265.893 379.491,272.094 405.783,285.736 C444.724,304.587 456.878,322.693 456.878,349.233 C456.878,388.918 426.618,410.249 385.692,410.249 C364.113,410.249 345.51,405.784 334.845,399.584 C333.109,398.84 332.861,397.6 332.861,395.615 L332.861,359.154 C332.861,356.674 334.101,355.929 335.838,357.17 C351.464,367.34 369.322,371.804 385.692,371.804 C405.287,371.804 413.472,363.619 413.472,352.457 C413.472,343.528 407.767,335.591 382.715,322.693 C347.494,305.827 332.861,288.713 332.861,260.189 C332.861,228.192 357.913,201.653 401.318,201.653 C422.649,201.653 437.531,204.878 445.716,208.598 C447.7,209.838 448.196,211.822 448.196,213.558 L448.196,247.538 C448.196,249.522 446.956,250.763 444.475,250.018 C433.562,243.075 417.44,238.858 401.318,238.858 Z M188.009,268.374 C193.714,268.87 198.179,268.87 208.1,268.87 C237.121,268.87 264.404,258.701 264.404,219.264 C264.404,187.764 244.809,171.889 211.821,171.889 C201.9,171.889 192.474,172.385 188.009,172.633 L188.009,268.374 Z M143.86,136.668 C143.86,134.932 147.333,133.691 149.316,133.691 C165.191,132.947 188.754,132.451 213.309,132.451 C282.014,132.451 308.801,170.152 308.801,218.271 C308.801,281.271 263.163,308.307 207.108,308.307 C197.683,308.307 194.459,307.811 187.761,307.811 L187.761,403.056 C187.761,405.04 187.017,406.032 184.785,406.032 L146.836,406.032 C144.852,406.032 143.859,405.288 143.859,403.056 L143.859,136.668 L143.86,136.668 Z" id="Shape" fill="#31C5F0" fill-rule="nonzero"></path>
    </g>
</svg>