<?xml version="1.0" encoding="UTF-8" standalone="no"?>
<svg width="405px" height="105px" viewBox="0 0 405 105" version="1.1" xmlns="http://www.w3.org/2000/svg" xmlns:xlink="http://www.w3.org/1999/xlink">
    <!-- Generator: Sketch 50.2 (55047) - http://www.bohemiancoding.com/sketch -->
    <title>logo---heap</title>
    <desc>Created with Sketch.</desc>
    <defs>
        <linearGradient x1="80.892%" y1="33.1510985%" x2="20.232%" y2="66.9910068%" id="linearGradient-1">
            <stop stop-color="#DD4362" offset="0%"></stop>
            <stop stop-color="#EE633F" offset="56.715%"></stop>
            <stop stop-color="#FB7C24" offset="100%"></stop>
        </linearGradient>
    </defs>
    <g id="logo---heap" stroke="none" stroke-width="1" fill="none" fill-rule="evenodd">
        <g id="https___heap.io_wp-content_themes_heap_static_img_logo-template_Heap-Logo---dark-landscape" fill-rule="nonzero">
            <path d="M178.241432,82.2118812 L178.241432,23.9940594 L165.480307,23.9940594 L165.480307,47.281188 L139.543734,47.281188 L139.543734,23.9940594 L126.61688,23.9940594 L126.61688,82.2118812 L139.543734,82.2118812 L139.543734,59.1742575 L165.480307,59.1742575 L165.480307,82.2118812 L178.241432,82.2118812 Z M249.836317,70.1524752 L218.347826,70.1524752 L218.347826,58.4257425 L246.936061,58.4257425 L246.936061,47.0316831 L218.347826,47.0316831 L218.347826,35.8039605 L248.676215,35.8039605 L248.676215,23.9108911 L205.669565,23.9108911 L205.669565,82.1287128 L249.836317,82.1287128 L249.836317,70.1524752 Z M319.856778,82.1287128 L333.860871,82.1287128 L307.841433,23.9108911 L293.754476,23.9108911 L267.735038,82.1287128 L281.656266,82.1287128 L285.882353,72.148515 L315.63069,72.148515 L319.856778,82.1287128 Z M310.741689,60.6712872 L290.771356,60.6712872 L300.797955,37.051485 L310.741689,60.6712872 Z M367.420971,36.2198019 L381.839385,36.2198019 C387.971355,36.2198019 391.120206,40.3782177 391.120206,45.0356436 C391.120206,49.6930692 388.054221,53.7683169 381.839385,53.7683169 L367.420971,53.7683169 L367.420971,36.2198019 Z M381.839385,65.6613861 C396.589257,65.4950496 404.047059,56.429703 404.047059,44.7861387 C404.047059,33.5584158 396.672123,23.9108911 381.839385,23.9108911 L354.494118,23.9108911 L354.494118,82.1287128 L367.420971,82.1287128 L367.420971,65.6613861 L381.839385,65.6613861 Z" id="Shape" fill="#111111"></path>
            <path d="M0,26.509901 L44.5396419,0 L89.0792838,26.509901 L89.0792838,78.4900989 L44.5396419,105 L0,78.4900989 L0,26.509901 Z M8.28644502,31.4542575 L8.28644502,73.5519801 L44.5396419,95.1237624 L80.7928389,73.5519801 L80.7928389,31.4542575 L44.5396419,53.0198019 L44.5396419,9.87623763 L8.28644502,31.4542575 Z" id="Shape" fill="url(#linearGradient-1)"></path>
        </g>
    </g>
</svg>