<?xml version="1.0" encoding="UTF-8" standalone="no"?>
<svg width="337px" height="81px" viewBox="0 0 337 81" version="1.1" xmlns="http://www.w3.org/2000/svg" xmlns:xlink="http://www.w3.org/1999/xlink">
    <!-- Generator: Sketch 50.2 (55047) - http://www.bohemiancoding.com/sketch -->
    <title>logo---axure</title>
    <desc>Created with Sketch.</desc>
    <defs></defs>
    <g id="logo---axure" stroke="none" stroke-width="1" fill="none" fill-rule="evenodd">
        <g id="axure-seeklogo.com" fill-rule="nonzero">
            <path d="M305.629572,0.44119107 C291.920699,0.44119107 284.174977,3.08800385 279.727768,9.29094847 C275.081844,15.7699513 274.148634,25.9974902 274.148634,40.4018737 C274.148634,68.6769281 278.522896,80.4972393 305.629572,80.4972393 C308.886163,80.4972393 320.015084,80.4353353 326.512335,79.6422953 C329.040301,79.2231887 330.172227,77.287435 330.172227,75.5549605 L330.172227,72.4321564 C330.172227,70.001171 328.335992,68.1683117 325.899418,68.1683117 L305.629572,68.1683117 C290.335165,68.1683117 287.576622,64.562824 287.185059,44.0667557 L287.185059,37.4321564 C287.315021,16.4575873 290.072726,12.7701186 305.629572,12.7701186 C319.974838,12.7701186 322.725835,16.0426634 323.202921,34.5084489 L300.4093,34.5084489 L300.4093,46.9737325 L330.38855,46.9737325 C336.293846,46.9737325 336.293846,42.8445707 336.293846,41.4877027 L336.293846,37.5082816 C335.86623,8.75472629 328.987478,0.44119107 305.629572,0.44119107" id="Fill-9" fill="#272727"></path>
            <path d="M266.153804,1.54040472 L265.82848,1.4542411 C263.036398,0.86698997 255.405545,0.44119107 251.623238,0.44119107 C238.236335,0.44119107 231.160545,6.04600954 231.160545,16.6499915 L231.160545,75.6896435 C231.160545,78.1206289 232.861786,79.8179687 235.29836,79.8179687 L240.059992,79.8179687 C242.496566,79.8179687 244.197808,78.1206289 244.197808,75.6896435 L244.197808,17.7341474 C244.197808,15.1174501 244.860194,12.7701186 252.848232,12.7701186 L264.676432,12.7592436 C265.83435,12.8981093 266.939444,12.5777144 267.789646,11.8574534 C268.718663,11.0736154 269.229287,9.9309016 269.229287,8.64179338 L269.229287,5.65534533 C269.229287,3.6944954 268.108262,2.19457906 266.153804,1.54040472" id="Fill-7" fill="#272727"></path>
            <path d="M208.981937,1.39208617 L204.220304,1.39208617 C201.78373,1.39208617 200.082489,3.08942597 200.082489,5.51957487 L200.082489,68.1688973 L180.277989,68.1688973 C168.027204,68.1688973 163.057633,67.3900785 163.057633,47.8660698 L163.057633,5.51957487 C163.057633,3.08942597 161.355553,1.39208617 158.919817,1.39208617 L154.293178,1.39208617 C151.856604,1.39208617 150.020369,3.16638766 150.020369,5.51957487 L150.020369,47.8660698 C150.020369,75.6141039 160.084442,80.4969883 181.229645,80.4969883 C188.837021,80.4969883 199.254926,80.4969883 209.190714,79.0982933 L209.419614,79.0522836 C211.873796,78.4390997 213.118914,77.0337124 213.118914,74.8762756 L213.118914,5.51957487 C213.118914,3.08942597 211.416834,1.39208617 208.981937,1.39208617" id="Fill-4" fill="#272727"></path>
            <path d="M135.332256,3.3311024 L135.332256,3.33026586 C134.721016,2.03111913 133.410498,1.25564648 131.825803,1.25564648 L125.705022,1.25564648 C123.92748,1.25564648 122.597677,1.97172478 121.897561,3.26083303 L112.826228,16.5158104 L120.768151,27.3774467 L134.633816,7.48703347 C136.155626,5.63827991 135.629072,3.96436323 135.332256,3.3311024" id="Fill-12" fill="#74BB11"></path>
            <path d="M87.5054791,3.11092505 L87.4970944,3.09837695 C86.1144687,1.25547917 84.2740421,1.25547917 83.6686717,1.25547917 L77.6820448,1.25547917 C76.1484957,1.25547917 74.8924779,1.95984591 74.2359613,3.1870502 C73.5609984,4.44353338 73.7035372,5.95432475 74.6375851,7.35301975 L96.8166124,38.0992135 L71.3130787,73.6714069 C70.4217924,75.0090345 70.2968614,76.4964027 70.9701473,77.7520494 C71.6300178,78.9792536 72.886874,79.6819473 74.4179078,79.6819473 L80.5386888,79.6819473 C82.1124841,79.6819473 83.4959483,78.8654842 84.1885189,77.578049 L112.734835,38.2405888 L87.5054791,3.11092505 Z" id="Fill-14" fill="#009CD9"></path>
            <path d="M138.376632,73.9820142 L120.582767,49.5617365 L112.755713,60.3522669 L126.828479,79.133428 L127.194048,79.2932071 C127.801096,79.5550442 128.381312,79.6813617 128.969075,79.6813617 L134.954025,79.6813617 C136.399535,79.6813617 137.627045,79.038899 138.322131,77.9170987 C139.033987,76.7676927 139.05411,75.333863 138.376632,73.9820142" id="Fill-16" fill="#EB2084"></path>
            <path d="M47.7738965,46.4293122 L47.7738965,67.1679771 C41.7134849,68.0973731 32.4769748,68.3039985 29.3293841,68.3039985 C15.4025112,68.3039985 13.8773467,64.4985777 13.8773467,56.4176006 C13.8773467,48.8561149 16.7071598,46.4293122 25.520246,46.4293122 L47.7738965,46.4293122 Z M28.6493905,0.441358378 C24.3463976,0.441358378 18.477994,0.552618208 11.1774954,1.43182182 L10.8471409,1.50376427 C8.71995987,2.10941928 7.64253473,3.5064412 7.64253473,5.65551264 L7.64253473,8.64196069 C7.64253473,11.1875521 9.22806854,12.7702859 11.7803504,12.7702859 L28.6493905,12.7702859 C42.233332,12.7702859 47.7738965,16.4493892 47.7738965,25.4714738 L47.7738965,34.2375772 L25.520246,34.2375772 C8.12716643,34.2375772 0.705090615,40.8705034 0.705090615,56.4176006 C0.705090615,73.7456917 8.38709,80.4974066 28.1052279,80.4974066 C36.0915894,80.4974066 50.7940408,79.8766938 56.2281205,78.219508 C60.8103216,76.947967 60.8103216,73.4478834 60.8103216,72.2976408 L60.8103216,24.6583569 C60.8103216,8.3625563 50.2901244,0.441358378 28.6493905,0.441358378 Z" id="Fill-1" fill="#272727"></path>
        </g>
    </g>
</svg>