<?xml version="1.0" encoding="UTF-8" standalone="no"?>
<svg width="323px" height="74px" viewBox="0 0 323 74" version="1.1" xmlns="http://www.w3.org/2000/svg" xmlns:xlink="http://www.w3.org/1999/xlink">
    <!-- Generator: Sketch 50.2 (55047) - http://www.bohemiancoding.com/sketch -->
    <title>logo---pendo</title>
    <desc>Created with Sketch.</desc>
    <defs></defs>
    <g id="logo---pendo" stroke="none" stroke-width="1" fill="none" fill-rule="evenodd">
        <g id="pendo-main-logo-pink-black" fill-rule="nonzero">
            <path d="M120.072941,36.733916 C120.072941,44.938689 113.398118,51.6135126 105.193748,51.6135126 C96.9893782,51.6135126 90.3141513,44.938689 90.3141513,36.733916 C90.3141513,28.5295462 96.9893782,21.8547226 105.193748,21.8547226 C113.398118,21.8547226 120.072941,28.5295462 120.072941,36.733916 M105.193748,14.8051765 C99.6293782,14.8051765 94.3820504,16.8707899 90.3141513,20.6418152 L90.3141513,15.1581176 L90.3141513,14.7547563 L89.9107899,14.7547563 L83.6683697,14.7547563 L83.2650084,14.7547563 L83.2650084,15.1581176 L83.2650084,73.3083026 L83.2650084,73.7116638 L83.6683697,73.7116638 L89.9107899,73.7116638 L90.3141513,73.7116638 L90.3141513,73.3083026 L90.3141513,52.8260168 C94.3820504,56.597042 99.6293782,58.6626554 105.193748,58.6626554 C117.285311,58.6626554 127.122084,48.825479 127.122084,36.733916 C127.122084,24.642353 117.285311,14.8051765 105.193748,14.8051765" id="Fill-1" fill="#FFFFFF"></path>
            <path d="M140.011294,33.1589244 C141.622319,26.5498488 147.623529,21.8043026 154.468975,21.8043026 C161.225277,21.8043026 166.885244,26.448605 168.393412,33.1589244 L140.011294,33.1589244 Z M154.468975,14.7547563 C142.377412,14.7547563 132.540639,24.5919328 132.540639,36.6834958 C132.540639,48.7750588 142.377412,58.6122352 154.468975,58.6122352 C161.240605,58.6122352 167.456403,56.0771092 171.522286,51.6566722 L173.635496,49.3595294 L173.908571,49.0626554 L173.611697,48.7895798 L169.017412,44.563563 L168.720538,44.2904874 L168.447462,44.5873614 L166.334252,46.8849076 C163.639395,49.8141176 159.20363,51.5630924 154.468975,51.5630924 C147.623933,51.5630924 141.622319,46.8171428 140.011294,40.2080672 L175.426824,40.2080672 L175.830185,40.2080672 L175.830185,39.8047058 L175.830185,36.6834958 C175.830185,24.3870252 166.447193,14.7547563 154.468975,14.7547563 Z" id="Fill-3" fill="#FFFFFF"></path>
            <path d="M202.49358,14.7549176 C197.461244,14.7549176 192.667697,16.6575731 188.894252,20.132531 L188.894252,15.158279 L188.894252,14.7549176 L188.490891,14.7549176 L182.248471,14.7549176 L181.845109,14.7549176 L181.845109,15.158279 L181.845109,36.3996908 L181.845109,39.5209008 L181.845109,58.5535058 L181.845109,58.9568672 L182.248471,58.9568672 L188.490891,58.9568672 L188.894252,58.9568672 L188.894252,58.5535058 L188.894252,39.5209008 L188.894252,36.3996908 C188.894252,28.3518252 194.994689,21.8040606 202.49358,21.8040606 C209.992874,21.8040606 216.093714,28.3518252 216.093714,36.3996908 L216.093714,58.5535058 L216.093714,58.9568672 L216.497076,58.9568672 L222.739496,58.9568672 L223.142857,58.9568672 L223.142857,58.5535058 L223.142857,36.3996908 C223.142857,24.464632 213.879664,14.7549176 202.49358,14.7549176" id="Fill-5" fill="#FFFFFF"></path>
            <path d="M265.919086,36.9780302 C265.919086,45.1824 259.244262,51.8572236 251.039892,51.8572236 C242.835119,51.8572236 236.160296,45.1824 236.160296,36.9780302 C236.160296,28.7732572 242.835119,22.0984336 251.039892,22.0984336 C259.244262,22.0984336 265.919086,28.7732572 265.919086,36.9780302 Z M266.322447,0.000282352942 L265.919086,0.000282352942 L265.919086,0.403643698 L265.919086,20.8859294 C261.851187,17.1145008 256.604262,15.0492908 251.039892,15.0492908 C238.948329,15.0492908 229.111153,24.8864672 229.111153,36.9780302 C229.111153,49.0695932 238.948329,58.9067698 251.039892,58.9067698 C256.604262,58.9067698 261.851187,56.8411564 265.919086,53.070131 L265.919086,58.5538286 L265.919086,58.95719 L266.322447,58.95719 L272.564867,58.95719 L272.968229,58.95719 L272.968229,58.5538286 L272.968229,0.403643698 L272.968229,0.000282352942 L272.564867,0.000282352942 L266.322447,0.000282352942 Z" id="Fill-7" fill="#FFFFFF"></path>
            <path d="M315.884786,36.9780302 C315.884786,45.1824 309.209964,51.8572236 301.00519,51.8572236 C292.80082,51.8572236 286.125996,45.1824 286.125996,36.9780302 C286.125996,28.7732572 292.80082,22.0984336 301.00519,22.0984336 C309.209964,22.0984336 315.884786,28.7732572 315.884786,36.9780302 M301.00519,15.0492908 C288.91403,15.0492908 279.076854,24.8864672 279.076854,36.9780302 C279.076854,49.0695932 288.91403,58.9067698 301.00519,58.9067698 C313.096752,58.9067698 322.93393,49.0695932 322.93393,36.9780302 C322.93393,24.8864672 313.096752,15.0492908 301.00519,15.0492908" id="Fill-9" fill="#FFFFFF"></path>
            <polygon id="Fill-12" fill="#EC2059" points="33.815005 7.51034622 0.7143664 40.6109848 33.815005 40.6109848 33.815005 73.7120268 66.9156437 40.6109848 66.9156437 7.51034622"></polygon>
        </g>
    </g>
</svg>