<?xml version="1.0" encoding="UTF-8" standalone="no"?>
<svg width="480px" height="204px" viewBox="0 0 480 204" version="1.1" xmlns="http://www.w3.org/2000/svg" xmlns:xlink="http://www.w3.org/1999/xlink">
    <!-- Generator: Sketch 50.2 (55047) - http://www.bohemiancoding.com/sketch -->
    <title>logo---marvel</title>
    <desc>Created with Sketch.</desc>
    <defs></defs>
    <g id="logo---marvel" stroke="none" stroke-width="1" fill="none" fill-rule="evenodd">
        <path d="M407.401485,131.937141 C232.805056,118.737411 88.2080141,160.136564 56.4086645,175.136257 C38.4090327,183.536085 37.2090572,193.735877 39.6090081,199.135766 C42.0089591,203.33568 50.4087872,205.735631 60.0085909,201.535717 C129.00718,164.936466 269.404308,135.537067 407.401485,143.936895 C411.001411,143.936895 413.401362,140.936957 413.401362,137.937018 C413.401362,134.337092 411.001411,131.937141 407.401485,131.937141 Z M450.600601,80.3381963 C443.400749,88.7380244 432.60097,94.7379017 429.001043,91.7379631 C425.401117,88.7380244 429.001043,79.1382208 429.001043,79.1382208 C446.400687,67.738454 480,40.1390185 480,18.5394603 C480,-1.26013466 462.000368,-7.26001193 442.800761,10.7396199 C427.20108,26.9392885 416.401301,47.3388713 410.401424,68.9384294 C400.201632,78.5382331 384.601951,90.5379876 370.802234,90.5379876 C363.602381,90.5379876 361.20243,85.1380981 362.402405,78.5382331 C374.40216,78.5382331 407.401485,68.9384294 407.401485,41.338994 C407.401485,32.3391781 399.601645,25.1393253 390.601829,25.1393253 C390.001841,25.1393253 390.001841,25.1393253 389.401853,25.1393253 C374.40216,25.1393253 355.202553,40.7390063 345.602749,61.7385767 C343.202798,61.138589 340.802847,60.5386013 338.402896,59.3386258 C340.802847,53.9387363 342.60281,48.5388467 344.402774,43.1389572 C346.202737,31.7391903 342.002823,24.5393376 332.403019,25.7393131 C326.403142,26.3393008 319.203289,31.1392026 318.003314,43.1389572 C317.403326,49.1388344 318.603301,55.1387117 321.003252,60.5386013 C316.803338,73.1383435 300.003682,89.3380122 294.603792,88.7380244 C289.203903,88.1380367 295.20378,65.9384908 301.203657,49.1388344 C304.203596,46.1388958 306.603547,41.9389817 308.40351,37.7390676 C310.203473,34.739129 309.003498,30.5392149 306.003559,28.7392517 C297.603731,25.7393131 288.003927,29.3392394 283.804013,37.7390676 C281.404062,41.9389817 279.604099,46.1388958 277.804136,50.3388099 C273.004234,55.7386994 265.804381,62.9385522 264.004418,62.3385644 C261.00448,60.5386013 271.204271,46.7388835 270.004295,38.9390431 C268.80432,32.3391781 263.40443,28.139264 256.804565,28.7392517 C247.80475,30.5392149 235.205007,47.938859 235.205007,47.938859 C236.404983,44.9389203 237.604958,41.338994 237.604958,37.7390676 C237.00497,31.1392026 224.405228,28.139264 218.405351,40.1390185 C214.205437,51.5387853 211.205498,64.1385276 208.805547,76.1382822 C206.405596,81.5381717 195.605817,98.3378281 187.205989,98.3378281 C180.606124,98.9378158 189.005952,69.5384172 189.60594,67.738454 C193.205866,62.3385644 198.005768,50.3388099 196.805793,45.5389081 C196.805793,41.338994 193.805854,37.7390676 189.60594,37.7390676 C189.005952,37.7390676 187.805977,37.7390676 187.205989,38.3390553 C183.606063,38.9390431 180.006136,41.9389817 177.606185,45.5389081 C174.606247,41.9389817 169.806345,40.1390185 165.006443,40.7390063 C137.407008,43.7389449 120.007364,91.1379753 121.807327,113.937509 C123.60729,125.937264 129.00718,133.137116 139.806959,131.937141 C151.806713,130.737165 161.406517,113.337521 161.406517,113.337521 C161.406517,113.337521 163.806468,127.737227 177.006198,125.937264 C186.606001,122.937325 195.00583,116.937448 201.605695,109.137607 C201.005707,109.737595 201.005707,110.93757 201.005707,111.537558 C199.205744,123.537313 219.005339,122.337337 220.805302,112.737534 C226.805179,67.1384663 242.40486,48.5388467 246.604774,48.5388467 C250.2047,48.5388467 236.404983,70.1384049 244.804811,77.9382453 C250.804688,85.1380981 261.604467,79.1382208 270.604283,71.9383681 C269.404308,77.9382453 268.204332,83.9381226 268.204332,89.9379999 C267.604345,102.537742 272.404246,112.737534 285.003989,112.137546 C301.803645,111.537558 319.203289,91.1379753 330.603056,71.9383681 C333.602995,73.7383313 337.202921,75.5382944 340.802847,76.1382822 C339.602872,80.938184 339.002884,85.1380981 339.602872,89.9379999 C340.802847,104.937693 351.002639,110.337583 363.002393,109.737595 C376.802111,109.137607 393.601767,98.3378281 405.001534,88.7380244 C405.001534,89.3380122 405.001534,89.9379999 404.401546,89.9379999 C403.201571,97.1378526 405.001534,110.337583 415.201325,110.93757 C427.20108,112.137546 448.20065,99.5378035 458.400442,86.9380613 C466.200282,81.5381717 457.200466,73.7383313 450.600601,80.3381963 Z M462.000368,19.1394481 C463.200344,19.1394481 464.400319,20.3394235 463.800331,21.539399 C463.800331,34.1391413 431.400994,61.138589 431.400994,61.138589 C431.400994,61.138589 453.000552,19.1394481 462.000368,19.1394481 Z M384.001964,45.5389081 C385.801927,45.5389081 387.60189,46.7388835 387.60189,48.5388467 C387.60189,49.1388344 387.60189,49.1388344 387.60189,49.7388222 C387.60189,56.9386749 377.402099,62.3385644 366.60232,62.3385644 C372.602197,53.9387363 379.202062,45.5389081 384.001964,45.5389081 Z M168.006382,65.3385031 C166.806406,73.1383435 153.606676,107.337644 146.406824,107.337644 C136.80702,107.937632 151.206725,58.7386381 166.206419,59.3386258 C168.60637,59.3386258 168.60637,61.138589 168.006382,65.3385031 Z M50.4087872,74.338319 C59.4086031,74.338319 43.2089345,119.937386 45.0088977,139.736981 C46.8088609,159.536576 69.6083945,154.136687 67.8084313,142.136932 C65.4084804,122.937325 78.6082104,61.138589 92.4079282,61.138589 C102.60772,61.138589 81.6081491,103.13773 85.8080632,130.137178 C88.2080141,147.536822 112.207523,142.136932 109.807572,131.337153 C102.60772,96.5378649 127.207216,62.9385522 123.60729,38.3390553 C121.807327,28.139264 116.407437,22.7393744 109.207585,22.7393744 C87.0080386,22.7393744 68.4084191,67.738454 68.4084191,67.738454 C68.4084191,67.738454 71.4083577,41.9389817 53.4087259,40.7390063 C26.4092781,39.5390308 -0.590169583,104.937693 0.00981814423,163.73649 C0.609805872,182.33611 24.609315,179.336171 22.8093518,164.336478 C21.6093763,137.937018 37.2090572,74.338319 50.4087872,74.338319 Z" id="Shape" fill="#1FB6FF" fill-rule="nonzero"></path>
    </g>
</svg>