<?xml version="1.0" encoding="UTF-8" standalone="no"?>
<svg width="436px" height="116px" viewBox="0 0 436 116" version="1.1" xmlns="http://www.w3.org/2000/svg" xmlns:xlink="http://www.w3.org/1999/xlink">
    <!-- Generator: Sketch 50.2 (55047) - http://www.bohemiancoding.com/sketch -->
    <title>logo---airtable</title>
    <desc>Created with Sketch.</desc>
    <defs></defs>
    <g id="logo---airtable" stroke="none" stroke-width="1" fill="none" fill-rule="evenodd">
        <g id="Group" transform="translate(-2.000000, -2.000000)" fill-rule="nonzero">
            <path d="M197.552,64.256 L190.592,45.484 C190.312,44.716 189.22,44.716 188.936,45.484 L181.976,64.256 C181.874818,64.5267986 181.91309,64.830021 182.078387,65.0671852 C182.243683,65.3043494 182.514918,65.4452034 182.804,65.444 L196.724,65.444 C197.013082,65.4452034 197.284317,65.3043494 197.449613,65.0671852 C197.61491,64.830021 197.653182,64.5267986 197.552,64.256 Z M200.768,74.804 L178.8,74.804 C178.430432,74.8030862 178.099668,75.0331824 177.972,75.38 L173.64,87.06 C173.512332,87.4068176 173.181568,87.6369138 172.812,87.636 L163.272,87.636 C162.978117,87.6376818 162.702792,87.4925465 162.538108,87.2491352 C162.373423,87.0057239 162.341119,86.6961681 162.452,86.424 L184.452,31.704 C184.58641,31.3693649 184.911383,31.1506029 185.272,31.152 L194.408,31.152 C194.768617,31.1506029 195.09359,31.3693649 195.228,31.704 L217.228,86.424 C217.338881,86.6961681 217.306577,87.0057239 217.141892,87.2491352 C216.977208,87.4925465 216.701883,87.6376818 216.408,87.636 L206.8,87.636 C206.430432,87.6369138 206.099668,87.4068176 205.972,87.06 L201.64,75.38 C201.512332,75.0331824 201.181568,74.8030862 200.812,74.804 L200.768,74.804 Z M221.628,50.356 L229.788,50.356 C230.022778,50.3549304 230.248249,50.4477223 230.414263,50.6137369 C230.580278,50.7797515 230.67307,51.0052224 230.672,51.24 L230.672,86.76 C230.67307,86.9947776 230.580278,87.2202485 230.414263,87.3862631 C230.248249,87.5522777 230.022778,87.6450696 229.788,87.644 L221.628,87.644 C221.393222,87.6450696 221.167751,87.5522777 221.001737,87.3862631 C220.835722,87.2202485 220.74293,86.9947776 220.744,86.76 L220.744,51.16 C220.74293,50.9252224 220.835722,50.6997515 221.001737,50.5337369 C221.167751,50.3677223 221.393222,50.2749304 221.628,50.276 L221.628,50.356 Z M260.428,58.916 C260.42907,59.1507776 260.336278,59.3762485 260.170263,59.5422631 C260.004249,59.7082777 259.778778,59.8010696 259.544,59.8 L259.296,59.8 C255.296,59.8 252.296,60.768 250.416,62.704 C248.536,64.64 247.592,67.84 247.592,72.304 L247.592,86.672 C247.59307,86.9067776 247.500278,87.1322485 247.334263,87.2982631 C247.168249,87.4642777 246.942778,87.5570696 246.708,87.556 L238.628,87.556 C238.393222,87.5570696 238.167751,87.4642777 238.001737,87.2982631 C237.835722,87.1322485 237.74293,86.9067776 237.744,86.672 L237.744,51.2 C237.74293,50.9652224 237.835722,50.7397515 238.001737,50.5737369 C238.167751,50.4077223 238.393222,50.3149304 238.628,50.316 L246.628,50.316 C246.862778,50.3149304 247.088249,50.4077223 247.254263,50.5737369 C247.420278,50.7397515 247.51307,50.9652224 247.512,51.2 L247.512,58.224 L247.672,58.224 C248.64,55.32 250.172,53.088 252.272,51.528 C254.372,49.968 256.952,49.188 260.016,49.188 L260.416,49.188 L260.428,58.916 Z M282.74,58.588 C282.505222,58.5869304 282.279751,58.6797223 282.113737,58.8457369 C281.947722,59.0117515 281.85493,59.2372224 281.856,59.472 L281.856,74.244 C281.856,75.752 282.152,76.824 282.744,77.472 C283.336,78.12 284.356,78.44 285.808,78.44 L286.62,78.44 C286.854778,78.4389304 287.080249,78.5317223 287.246263,78.6977369 C287.412278,78.8637515 287.50507,79.0892224 287.504,79.324 L287.504,86.8 C287.50507,87.0347776 287.412278,87.2602485 287.246263,87.4262631 C287.080249,87.5922777 286.854778,87.6850696 286.62,87.684 L283.14,87.684 C279.54,87.684 276.764,86.756 274.828,84.9 C272.892,83.044 271.924,80.288 271.924,76.628 L271.924,59.516 C271.92507,59.2812224 271.832278,59.0557515 271.666263,58.8897369 C271.500249,58.7237223 271.274778,58.6309304 271.04,58.632 L265.948,58.632 C265.713222,58.6330696 265.487751,58.5402777 265.321737,58.3742631 C265.155722,58.2082485 265.06293,57.9827776 265.064,57.748 L265.064,51.2 C265.06293,50.9652224 265.155722,50.7397515 265.321737,50.5737369 C265.487751,50.4077223 265.713222,50.3149304 265.948,50.316 L271.04,50.316 C271.274778,50.3170696 271.500249,50.2242777 271.666263,50.0582631 C271.832278,49.8922485 271.92507,49.6667776 271.924,49.432 L271.924,36.232 C271.92293,35.9972224 272.015722,35.7717515 272.181737,35.6057369 C272.347751,35.4397223 272.573222,35.3469304 272.808,35.348 L280.968,35.348 C281.202778,35.3469304 281.428249,35.4397223 281.594263,35.6057369 C281.760278,35.7717515 281.85307,35.9972224 281.852,36.232 L281.852,49.432 C281.85093,49.6667776 281.943722,49.8922485 282.109737,50.0582631 C282.275751,50.2242777 282.501222,50.3170696 282.736,50.316 L288.636,50.316 C288.870778,50.3149304 289.096249,50.4077223 289.262263,50.5737369 C289.428278,50.7397515 289.52107,50.9652224 289.52,51.2 L289.52,57.748 C289.52107,57.9827776 289.428278,58.2082485 289.262263,58.3742631 C289.096249,58.5402777 288.870778,58.6330696 288.636,58.632 L282.74,58.588 Z M320.1,76.5 C321.956,74.564 322.884,72.036 322.884,68.916 C322.884,65.796 321.956,63.268 320.1,61.332 C318.244,59.396 315.808,58.428 312.796,58.428 C309.784,58.428 307.356,59.396 305.492,61.332 C303.628,63.268 302.708,65.796 302.708,68.916 C302.708,72.036 303.636,74.564 305.492,76.5 C307.348,78.436 309.78,79.404 312.796,79.404 C315.812,79.404 318.244,78.436 320.1,76.5 Z M301.3,86.42 C298.520195,84.8233411 296.263575,82.454168 294.804,79.6 C293.216,76.616 292.424,73.052 292.424,68.908 C292.424,64.764 293.216,61.204 294.804,58.216 C296.392,55.228 298.556,52.96 301.3,51.396 C304.053129,49.833263 307.170409,49.0259994 310.336,49.056 C313.24,49.056 315.728,49.616 317.8,50.752 C319.872,51.888 321.52,53.472 322.76,55.552 L322.92,55.552 L322.92,51.2 C322.91893,50.9652224 323.011722,50.7397515 323.177737,50.5737369 C323.343751,50.4077223 323.569222,50.3149304 323.804,50.316 L331.884,50.316 C332.118778,50.3149304 332.344249,50.4077223 332.510263,50.5737369 C332.676278,50.7397515 332.76907,50.9652224 332.768,51.2 L332.768,86.72 C332.76907,86.9547776 332.676278,87.1802485 332.510263,87.3462631 C332.344249,87.5122777 332.118778,87.6050696 331.884,87.604 L323.804,87.604 C323.569222,87.6050696 323.343751,87.5122777 323.177737,87.3462631 C323.011722,87.1802485 322.91893,86.9547776 322.92,86.72 L322.92,82.32 L322.76,82.32 C321.56,84.32 319.868,85.952 317.8,87.12 C315.732,88.288 313.24,88.816 310.336,88.816 C307.056,88.816 304.044,88.036 301.296,86.476 L301.3,86.42 Z M366.368,76.556 C368.224,74.62 369.152,72.092 369.152,68.972 C369.152,65.852 368.224,63.324 366.368,61.388 C364.512,59.452 362.076,58.484 359.064,58.484 C356.052,58.484 353.616,59.452 351.76,61.388 C349.904,63.324 348.976,65.852 348.976,68.972 C348.976,72.092 349.904,74.62 351.76,76.556 C353.616,78.492 356.048,79.46 359.064,79.46 C362.08,79.46 364.512,78.492 366.368,76.556 Z M354.104,87.128 C352.050852,86.0173364 350.335795,84.372761 349.14,82.368 L348.98,82.368 L348.98,86.768 C348.98107,87.0027776 348.888278,87.2282485 348.722263,87.3942631 C348.556249,87.5602777 348.330778,87.6530696 348.096,87.652 L339.936,87.652 C339.701222,87.6530696 339.475751,87.5602777 339.309737,87.3942631 C339.143722,87.2282485 339.05093,87.0027776 339.052,86.768 L339.052,32 C339.05093,31.7652224 339.143722,31.5397515 339.309737,31.3737369 C339.475751,31.2077223 339.701222,31.1149304 339.936,31.116 L348.096,31.116 C348.330778,31.1149304 348.556249,31.2077223 348.722263,31.3737369 C348.888278,31.5397515 348.98107,31.7652224 348.98,32 L348.98,55.6 L349.14,55.6 C350.335795,53.595239 352.050852,51.9506636 354.104,50.84 C356.176,49.708 358.664,49.144 361.568,49.144 C364.733591,49.1139994 367.850871,49.921263 370.604,51.484 C373.348,53.084 375.512,55.316 377.1,58.304 C378.688,61.292 379.48,64.856 379.48,68.996 C379.48,73.136 378.68,76.704 377.1,79.688 C375.52,82.672 373.348,84.948 370.604,86.508 C367.86,88.068 364.844,88.848 361.564,88.848 C358.66,88.848 356.172,88.288 354.1,87.152 L354.104,87.128 Z M393.22,87.632 L385.06,87.632 C384.825222,87.6330696 384.599751,87.5402777 384.433737,87.3742631 C384.267722,87.2082485 384.17493,86.9827776 384.176,86.748 L384.176,32 C384.17493,31.7652224 384.267722,31.5397515 384.433737,31.3737369 C384.599751,31.2077223 384.825222,31.1149304 385.06,31.116 L393.22,31.116 C393.454778,31.1149304 393.680249,31.2077223 393.846263,31.3737369 C394.012278,31.5397515 394.10507,31.7652224 394.104,32 L394.104,86.8 C394.10507,87.0347776 394.012278,87.2602485 393.846263,87.4262631 C393.680249,87.5922777 393.454778,87.6850696 393.22,87.684 L393.22,87.632 Z M412.468,59.044 C411.116,60.1 410.2,61.624 409.728,63.616 C409.6,64.164 410.028,64.696 410.592,64.696 L426.12,64.696 C426.66,64.696 427.08,64.216 427,63.68 C426.688,61.8 425.88,60.292 424.576,59.168 C423.044,57.848 421.04,57.192 418.564,57.192 C416.088,57.192 414.06,57.812 412.472,59.048 L412.468,59.044 Z M432.364,54.408 C435.536,57.88 437.164,62.788 437.164,69.128 L437.164,70.184 C437.16507,70.4187776 437.072278,70.6442485 436.906263,70.8102631 C436.740249,70.9762777 436.514778,71.0690696 436.28,71.068 L410.336,71.068 C409.788,71.068 409.368,71.568 409.464,72.108 C409.88,74.508 410.92,76.34 412.592,77.728 C414.5,79.316 416.912,80.108 419.812,80.108 C423.564,80.108 427.032,78.644 430.224,75.716 C430.411782,75.5468013 430.663252,75.4665186 430.914338,75.4956078 C431.165424,75.524697 431.391878,75.660349 431.536,75.868 L435.504,81.564 C435.763615,81.9309302 435.704976,82.4345358 435.368,82.732 C433.420849,84.438225 431.255146,85.8775432 428.928,87.012 C426.348,88.276 423.308,88.908 419.808,88.908 C415.808,88.908 412.208,88.088 409.236,86.448 C406.275106,84.8608558 403.836975,82.4505096 402.216,79.508 C400.548,76.524 399.716,73.108 399.716,69.14 C399.716,65.172 400.524,61.74 402.136,58.732 C403.748,55.724 406.008,53.38 408.916,51.712 C411.824,50.044 415.208,49.212 419.084,49.212 C424.784,49.212 429.224,50.948 432.396,54.412 L432.364,54.408 Z M231.796,37.292 C231.789398,40.6184339 229.094434,43.3133977 225.768,43.32 C222.441566,43.3133977 219.746602,40.6184339 219.74,37.292 C219.746602,33.9655661 222.441566,31.2706023 225.768,31.264 C229.094434,31.2706023 231.789398,33.9655661 231.796,37.292 Z" id="Shape" fill="#333333"></path>
            <path d="M64.64,3.664 L13.128,24.984 C10.264,26.168 10.328,30.24 13.176,31.384 L64.904,51.896 C69.4492534,53.6979525 74.5107466,53.6979525 79.056,51.896 L130.784,31.384 C133.664,30.24 133.696,26.172 130.832,24.984 L79.32,3.664 C74.6198482,1.71946777 69.3401518,1.71946777 64.64,3.664" id="Shape" fill="#FFCC00"></path>
            <path d="M76.576,63.092 L76.576,114.292 C76.576,116.692 79.032,118.4 81.296,117.5 L138.896,95.128 C140.213702,94.6093102 141.078906,93.3361107 141.076,91.92 L141.076,40.72 C141.076,38.32 138.62,36.612 136.356,37.512 L78.756,59.884 C77.4382979,60.4026898 76.5730938,61.6758893 76.576,63.092" id="Shape" fill="#31C2F2"></path>
            <path d="M63.12,65.736 L44.32,74.836 L8.208,92.14 C5.92,93.244 2.996,91.58 2.996,89.032 L2.996,40.936 C2.996,40.016 3.468,39.216 4.1,38.624 C4.35866145,38.3657488 4.65217114,38.1449433 4.972,37.968 C5.9292264,37.4202622 7.08164922,37.3307109 8.112,37.724 L62.912,59.42 C65.696,60.524 65.912,64.42 63.2,65.74" id="Shape" fill="#ED3049"></path>
            <path d="M63.12,65.736 L46.008,74 L4.008,38.624 C4.26666145,38.3657488 4.56017114,38.1449433 4.88,37.968 C5.8372264,37.4202622 6.98964922,37.3307109 8.02,37.724 L62.82,59.42 C65.604,60.524 65.82,64.42 63.108,65.74" id="Shape" fill="#C62842"></path>
        </g>
    </g>
</svg>