<?xml version="1.0" encoding="UTF-8" standalone="no"?>
<svg width="787px" height="232px" viewBox="0 0 787 232" version="1.1" xmlns="http://www.w3.org/2000/svg" xmlns:xlink="http://www.w3.org/1999/xlink">
    <!-- Generator: Sketch 50.2 (55047) - http://www.bohemiancoding.com/sketch -->
    <title>logo---sketch-and-zeplin</title>
    <desc>Created with Sketch.</desc>
    <defs></defs>
    <g id="logo---sketch-and-zeplin" stroke="none" stroke-width="1" fill="none" fill-rule="evenodd">
        <g id="Sketch" fill-rule="nonzero">
            <polygon id="Shape" fill="#FDB300" points="128 0 55.855 7.63912942 0 82.7275254 128 232 256 82.7275254 200.146 7.63912942"></polygon>
            <polygon id="Shape" fill="#EB6C00" points="0 83 128 232 51.846 83"></polygon>
            <polygon id="Shape" fill="#EB6C00" points="204.153595 83 128 232 256 83"></polygon>
            <polygon id="Shape" fill="#FDAD00" points="52 83 128 232 204 83"></polygon>
            <polygon id="Shape" fill="#FDD231" points="56.0008929 7.66428995 52 83 128 0"></polygon>
            <polygon id="Shape" fill="#FDD231" points="204 83 200.000053 7.66328519 128 0"></polygon>
            <polygon id="Shape" fill="#FDAD00" points="204.019479 83 256 83 200 8"></polygon>
            <polygon id="Shape" fill="#FDAD00" points="0 83 51.9805926 83 56 8"></polygon>
            <polygon id="Shape" fill="#FEEEB7" points="128 0 52 83 204 83"></polygon>
        </g>
        <path d="M376,86 L376,86 C378.782997,86 381.039062,88.2560651 381.039062,91.0390625 L381.039062,110.960938 L400.960938,110.960938 C403.743935,110.960938 406,113.217003 406,116 L406,116 C406,118.782997 403.743935,121.039063 400.960938,121.039063 L381.039062,121.039063 L381.039062,140.960938 C381.039063,143.743935 378.782997,146 376,146 L376,146 C373.217003,146 370.960938,143.743935 370.960938,140.960938 L370.960938,121.039063 L351.039062,121.039063 C348.256065,121.039063 346,118.782997 346,116 L346,116 C346,113.217003 348.256065,110.960938 351.039062,110.960938 L370.960938,110.960938 L370.960938,91.0390625 C370.960938,88.2560651 373.217003,86 376,86 Z" id="+" fill="#AAAAAA"></path>
        <g id="zeplin" transform="translate(496.000000, 0.000000)" fill-rule="nonzero">
            <path d="M44.7127273,159.977558 L29.5393247,165.521455 L28.7318442,210.656 L81.2542338,191.469299 C63.2245195,185.431273 50.0758442,174.789403 44.7127273,159.977558" id="Shape" fill="#FDBD39"></path>
            <path d="M52.654961,112.239792 L0,131.474701 L29.5393247,165.533506 L44.7127273,159.98961 C39.3616623,145.225974 42.6638961,128.55813 52.654961,112.239792" id="Shape" fill="#F69833"></path>
            <path d="M141.248831,47.099013 C74.2038442,71.5885714 30.9735065,122.134442 44.7127273,159.977558 L287.499221,71.2872727 C273.76,33.4441558 208.293818,22.6094545 141.248831,47.099013" id="Shape" fill="#FECF33"></path>
            <path d="M190.951065,184.17787 C257.996052,159.688312 301.298701,109.371429 287.487169,71.2993247 L44.7006753,159.977558 C58.5122078,198.061714 123.906078,208.667429 190.951065,184.17787" id="Shape" fill="#EE6723"></path>
            <path d="M287.487169,71.2872727 L44.7127273,159.977558 C49.4611948,173.090078 67.5993766,179.549922 93.028987,179.549922 C117.831896,179.549922 149.576727,173.415481 182.671377,161.327377 C249.716364,136.837818 296.875636,97.1748571 287.487169,71.2872727" id="Shape" fill="#F69833"></path>
            <path d="M239.170909,51.726961 C214.380052,51.726961 182.623169,57.8614026 149.528519,69.9495065 C82.4835325,94.4390649 35.3242597,134.089974 44.7127273,159.977558 L287.499221,71.2872727 C282.738701,58.1747532 264.612571,51.726961 239.170909,51.726961" id="Shape" fill="#FDBD39"></path>
            <g id="Group" transform="translate(93.884675, 0.000000)" fill="#EE6723">
                <path d="M131.872416,213.054338 C124.72561,213.054338 114.192208,206.606545 100.549403,193.879688 C84.4118442,178.826805 65.9362078,156.77174 48.497039,131.788052 C31.0699221,106.804364 16.7522078,81.8327273 8.17122078,61.4528831 C-1.16903896,39.2531948 -2.50680519,25.6103896 4.20612987,20.886026 C5.76083117,19.8254545 7.60477922,19.2831169 9.48488312,19.3313247 C14.9444156,19.3313247 25.5983377,23.3928312 45.2791688,42.7723636 L45.713039,43.1941818 L45.6527792,43.7967792 C45.5202078,45.1948052 45.3996883,46.5928312 45.2912208,47.9788052 L45.0742857,50.7145974 L43.145974,48.7742338 C21.9345455,27.4061299 12.6063377,25.1042078 9.56924675,25.1042078 C8.70150649,25.1042078 8.01454545,25.2729351 7.52041558,25.6224416 C4.60384416,27.6712727 4.41101299,37.6984935 13.4740779,59.2112208 C21.8983896,79.2174545 36.0112208,103.815481 53.2093506,128.473766 C70.4195325,153.144104 88.617974,174.861714 104.478338,189.649455 C121.568,205.594182 129.269195,207.31761 131.788052,207.31761 C132.655792,207.31761 133.354805,207.136831 133.885091,206.763221 C136.958338,204.605922 136.958338,193.867636 126.858805,170.703792 L126.388779,169.643221 L127.401143,169.088831 C128.413506,168.534442 129.401766,167.992104 130.317714,167.461818 L131.534961,166.774857 L132.101403,168.052364 C139.26026,184.467117 145.961143,205.329039 137.175273,211.499636 C135.620571,212.560208 133.764571,213.102545 131.872416,213.054338 Z M131.872416,210.523429 L131.872416,211.788883 L131.872416,210.523429 Z" id="Shape"></path>
                <path d="M98.6934026,183.478857 L98.596987,184.73226 C96.8976623,205.702649 92.4384416,230.915325 80.7962597,231.93974 C80.5552208,231.963844 80.3141818,231.963844 80.0851948,231.963844 C72.1791169,231.963844 64.6948571,220.635013 57.8614026,198.302753 C51.3774545,177.163636 46.3517922,148.793351 43.7124156,118.41039 C41.060987,88.0274286 41.0971429,59.2112208 43.8208831,37.2646234 C46.7856623,13.3535584 52.425974,0.86774026 60.5971948,0.144623377 C60.8382338,0.120519481 61.0913247,0.108467532 61.3323636,0.108467532 C67.0690909,0.108467532 75.7103377,6.60446753 84.5564675,36.8548571 L78.7835844,37.9636364 C75.8308571,27.8641039 72.612987,19.6446753 69.4192208,13.9802597 C66.4664935,8.76176623 63.5860779,5.88135065 61.3323636,5.88135065 C61.2600519,5.88135065 61.1877403,5.88135065 61.1033766,5.8934026 C57.5601039,6.20675325 52.4018701,14.7877403 49.5335065,37.9756883 C46.857974,59.5245714 46.8218182,87.918961 49.4370909,117.904208 C52.0523636,147.901506 56.9936623,175.849974 63.3570909,196.603429 C66.2013506,205.895481 69.3228052,213.560519 72.3960519,218.754909 C75.2162078,223.551584 77.952,226.190961 80.0851948,226.190961 C80.1575065,226.190961 80.2298182,226.190961 80.3021299,226.178909 C83.6887273,225.889662 90.0762597,216.947117 92.7638442,185.503584 L98.6934026,183.478857 Z" id="Shape"></path>
            </g>
        </g>
    </g>
</svg>