<?xml version="1.0" encoding="UTF-8" standalone="no"?>
<svg width="271px" height="100px" viewBox="0 0 271 100" version="1.1" xmlns="http://www.w3.org/2000/svg" xmlns:xlink="http://www.w3.org/1999/xlink">
    <!-- Generator: Sketch 50.2 (55047) - http://www.bohemiancoding.com/sketch -->
    <title>logo---html-css-js</title>
    <desc>Created with Sketch.</desc>
    <defs></defs>
    <g id="logo---html-css-js" stroke="none" stroke-width="1" fill="none" fill-rule="evenodd">
        <g id="html-css-js" fill-rule="nonzero">
            <g id="code_x5F_html5">
                <g id="Group">
                    <polygon id="Shape" fill="#E44F26" points="71 19.6 35.5 19.6 35.5 19.6 0 19.6 6.7 91.8 35.5 100 35.5 100 35.5 100 35.5 100 35.5 100 64.4 91.8"></polygon>
                    <path d="M15.2,4.5 L11.1,4.5 L11.1,0 L6.6,0 L6.6,13.5 L11.1,13.5 L11.1,9 L15.2,9 L15.2,13.5 L19.7,13.5 L19.7,0 L15.2,0 L15.2,4.5 Z M46.9,0 L46.5,0 L43.7,4.6 L40.9,0 L40.6,0 L36.4,0 L36.2,0 L36.2,13.5 L40.6,13.5 L40.6,6.8 L43.7,11.7 L46.9,6.7 L46.9,13.6 L51.3,13.6 L51.3,0 L51,0 L46.9,0 Z M21.8,4.5 L25.7,4.5 L25.7,13.4 L30.2,13.4 L30.2,4.5 L34.1,4.5 L34.1,0 L21.8,0 L21.8,4.5 Z M58.1,8.9 L58.1,0 L53.6,0 L53.6,13.5 L54.7,13.5 L58.1,13.5 L64.4,13.5 L64.4,8.9 L58.1,8.9 Z" id="Shape" fill="#010101"></path>
                    <polygon id="Shape" fill="#F1662A" points="35.5 25.5 35.5 93.9 35.5 93.9 58.9 87.3 64.6 25.5"></polygon>
                    <polygon id="Shape" fill="#FFFFFF" points="57.9 34.3 13.2 34.3 15.7 61.4 15.7 61.2 46.3 61.2 45.3 72.7 35.5 75.5 25.6 72.6 25 65.7 16.1 65.7 17.3 79.5 35.5 84.7 53.7 79.5 56.2 52.4 23.8 52.4 23 43.3 57 43.3"></polygon>
                    <path d="M35.5,34.3 L13.2,34.3 L15.7,61.3 L15.8,61.1 L35.6,61.1 L35.6,52.3 L23.8,52.3 L23,43.3 L35.6,43.3 L35.6,34.3 L35.5,34.3 Z M25,65.7 L16,65.7 L17.3,79.5 L35.5,84.7 L35.5,75.5 L25.6,72.6 L25,65.7 Z" id="Shape" fill="#EBEBEB"></path>
                </g>
            </g>
            <g id="Group" transform="translate(100.000000, 0.000000)">
                <g transform="translate(14.000000, 0.000000)" fill="#010101" id="Shape">
                    <polygon points="11.2 4.6 11.2 0 0.2 0 0.2 13.5 11.2 13.5 11.2 8.9 4.8 8.9 4.8 4.6"></polygon>
                    <polygon points="26.8 0 15.8 0 15.8 4.7 20.4 8.9 15.8 8.9 15.8 13.5 26.8 13.5 26.8 9 22.6 4.6 26.8 4.6"></polygon>
                    <polygon points="42.7 0 31.7 0 31.7 4.7 36.1 8.9 31.7 8.9 31.7 13.5 42.7 13.5 42.7 9 38.4 4.6 42.7 4.6"></polygon>
                </g>
                <polygon id="Shape" fill="#1072BA" points="6.5 92 0 19.6 70.9 19.6 64.4 92 35.4 100"></polygon>
                <polygon id="Shape" fill="#2AAAE2" points="35.5 93.8 58.9 87.4 64.4 25.6 35.5 25.6"></polygon>
                <polygon id="Shape" fill="#B4B4B4" points="14.8 52.2 15.5 61.1 35.5 52.2 35.5 43.3"></polygon>
                <polygon id="Shape" fill="#E6E6E5" points="57.6 33.9 35.5 43.3 35.5 52.2 56.8 42.7"></polygon>
                <polygon id="Shape" fill="#E6E6E5" points="35.5 75.4 35.4 75.4 25.5 72.8 24.9 65.7 16 65.7 17.2 79.6 35.4 84.7 35.5 84.6"></polygon>
                <polygon id="Shape" fill="#FFFFFF" points="35.5 52.2 35.5 61.1 46.3 61.1 45.4 72.7 35.5 75.4 35.5 84.6 53.6 79.6 56 52.2"></polygon>
                <polygon id="Shape" fill="#E6E6E5" points="35.5 52.2 14.8 52.2 15.5 61.1 35.5 61.1"></polygon>
                <polygon id="Shape" fill="#E6E6E5" points="35.5 42.7 35.5 33.9 35.4 33.9 13.2 33.9 14 42.7"></polygon>
                <polygon id="Shape" fill="#FFFFFF" points="35.5 33.9 35.5 42.6 35.5 42.7 56.8 42.7 57.6 33.9"></polygon>
            </g>
            <g id="Group" transform="translate(199.000000, 0.000000)">
                <polygon id="Shape" fill="#E6A329" points="72 19.6 36.4 19.6 36.4 19.6 0.9 19.6 7.6 91.8 36.4 100 36.4 100 36.4 100 36.4 100 36.4 100 65.3 91.8"></polygon>
                <polygon id="Shape" fill="#F1BF22" points="36.4 25.5 36.4 93.9 36.4 93.9 59.8 87.3 65.5 25.5"></polygon>
                <polygon id="Shape" fill="#FFFFFF" points="55 34.3 19.1 34.3 16.6 61.4 16.6 61.2 47.2 61.2 46.2 72.7 36.4 75.5 26.6 72.6 26 65.7 17 65.7 18.3 79.5 36.4 84.7 54.6 79.5 57.1 52.4 24.7 52.4 25.1 43.3 47.6 43.3 48 48.5 57 48.5"></polygon>
                <path d="M36.4,34.3 L19,34.3 L16.5,61.3 L16.6,61.1 L36.4,61.1 L36.4,52.3 L26,52.3 L26.4,43.2 L36.5,43.2 L36.5,34.3 L36.4,34.3 Z M26,65.7 L17,65.7 L18.3,79.5 L36.5,84.7 L36.5,75.5 L26.6,72.6 L26,65.7 Z" id="Shape" fill="#EBEBEB"></path>
                <g transform="translate(23.000000, 0.000000)" fill="#000000" id="Shape">
                    <polygon points="6.5 8.9 0.2 8.9 0.2 13.5 6.5 13.5 9.9 13.5 11.1 13.5 11.1 0 6.5 0"></polygon>
                    <path d="M26.7,0.1 L15.7,0.1 C15.7,0.1 15.7,2.5 15.7,4.8 C17.2,6.3 17.9,7 20.1,9.1 C18.9,9.1 15.7,9.1 15.7,9.1 L15.7,13.4 L26.7,13.4 L26.7,9.1 L22.3,4.8 L26.7,4.8 L26.7,0.1 Z"></path>
                </g>
            </g>
        </g>
    </g>
</svg>