<?xml version="1.0" encoding="UTF-8" standalone="no"?>
<svg width="360px" height="115px" viewBox="0 0 360 115" version="1.1" xmlns="http://www.w3.org/2000/svg" xmlns:xlink="http://www.w3.org/1999/xlink">
    <!-- Generator: Sketch 50.2 (55047) - http://www.bohemiancoding.com/sketch -->
    <title>logo---balsamiq</title>
    <desc>Created with Sketch.</desc>
    <defs></defs>
    <g id="logo---balsamiq" stroke="none" stroke-width="1" fill="none" fill-rule="evenodd">
        <g id="balsamiq">
            <path d="M0,103 C0,109.6 5.4,115 12,115 L348,115 C354.6,115 360,109.6 360,103 L360,12 C360,5.4 354.6,0 348,0 L12,0 C5.4,0 0,5.4 0,12 L0,103 Z" id="Shape" fill="#CC0000"></path>
            <g id="Group" transform="translate(57.000000, 31.000000)" fill="#FFFFFF" fill-rule="nonzero">
                <path d="M0.4,45.4 C0.5,43.3 0.7,40.2 0.7,37.4 L0.7,0 L6.3,0 L6.3,19.5 L6.4,19.5 C8.4,16 12,13.8 17,13.8 C24.7,13.8 30.1,20.2 30.1,29.6 C30.1,40.7 23.1,46.2 16.2,46.2 C11.7,46.2 8.1,44.5 5.8,40.4 L5.6,40.4 L5.3,45.5 L0.4,45.5 L0.4,45.4 Z M6.2,33 C6.2,33.7 6.3,34.4 6.5,35 C7.6,38.9 10.9,41.6 14.9,41.6 C20.8,41.6 24.3,36.8 24.3,29.7 C24.3,23.5 21.1,18.2 15.1,18.2 C11.3,18.2 7.7,20.8 6.5,25.1 C6.4,25.7 6.2,26.5 6.2,27.4 L6.2,33 Z" id="Shape"></path>
                <path d="M55.7,45.4 L55.3,41.5 L55,41.5 C53.3,43.9 49.9,46.1 45.5,46.1 C39.2,46.1 36,41.7 36,37.2 C36,29.7 42.7,25.6 54.6,25.7 L54.6,25.1 C54.6,22.5 53.9,17.9 47.6,17.9 C44.7,17.9 41.7,18.8 39.5,20.2 L38.2,16.5 C40.8,14.8 44.5,13.7 48.4,13.7 C57.9,13.7 60.2,20.2 60.2,26.4 L60.2,38 C60.2,40.7 60.3,43.3 60.7,45.4 L55.7,45.4 Z M54.9,29.6 C48.8,29.5 41.8,30.6 41.8,36.6 C41.8,40.2 44.2,42 47.1,42 C51.1,42 53.7,39.4 54.6,36.8 C54.8,36.2 54.9,35.6 54.9,35 L54.9,29.6 Z" id="Shape"></path>
                <polygon id="Shape" points="70.3 0 75.9 0 75.9 45.4 70.3 45.4 70.3 0"></polygon>
                <path d="M85.3,39.7 C87,40.8 89.9,41.9 92.7,41.9 C96.8,41.9 98.7,39.9 98.7,37.3 C98.7,34.6 97.1,33.1 92.9,31.6 C87.3,29.6 84.7,26.5 84.7,22.8 C84.7,17.8 88.7,13.7 95.4,13.7 C98.5,13.7 101.3,14.6 103,15.6 L101.6,19.7 C100.4,18.9 98.1,17.9 95.3,17.9 C92,17.9 90.1,19.8 90.1,22.1 C90.1,24.7 92,25.8 96,27.3 C101.4,29.3 104.1,32 104.1,36.6 C104.1,42 99.9,45.9 92.5,45.9 C89.1,45.9 86,45.1 83.8,43.8 L85.3,39.7 Z" id="Shape"></path>
                <path d="M130.2,45.4 L129.8,41.5 L129.6,41.5 C127.9,43.9 124.5,46.1 120.1,46.1 C113.8,46.1 110.6,41.7 110.6,37.2 C110.6,29.7 117.3,25.6 129.2,25.7 L129.2,25.1 C129.2,22.5 128.5,17.9 122.2,17.9 C119.3,17.9 116.3,18.8 114.1,20.2 L112.8,16.5 C115.4,14.8 119.1,13.7 123,13.7 C132.5,13.7 134.8,20.2 134.8,26.4 L134.8,38 C134.8,40.7 134.9,43.3 135.3,45.4 L130.2,45.4 Z M129.3,29.6 C123.2,29.5 116.2,30.6 116.2,36.6 C116.2,40.2 118.6,42 121.5,42 C125.5,42 128.1,39.4 129,36.8 C129.2,36.2 129.3,35.6 129.3,35 L129.3,29.6 Z" id="Shape"></path>
                <path d="M144.7,22.8 C144.7,19.6 144.6,17 144.4,14.4 L149.3,14.4 L149.6,19.4 L149.8,19.4 C151.5,16.5 154.4,13.7 159.5,13.7 C163.7,13.7 166.9,16.3 168.3,19.9 L168.4,19.9 C169.4,18.2 170.6,16.8 171.9,15.9 C173.8,14.5 175.8,13.7 178.7,13.7 C182.8,13.7 188.9,16.4 188.9,27.1 L188.9,45.3 L183.4,45.3 L183.4,27.9 C183.4,21.9 181.2,18.4 176.7,18.4 C173.5,18.4 171,20.8 170,23.5 C169.7,24.3 169.6,25.3 169.6,26.3 L169.6,45.4 L164.1,45.4 L164.1,26.9 C164.1,22 161.9,18.4 157.6,18.4 C154.1,18.4 151.5,21.2 150.6,24 C150.3,24.8 150.2,25.8 150.2,26.8 L150.2,45.5 L144.7,45.5 L144.7,22.8 Z" id="Shape"></path>
                <path d="M205.3,5.8 C205.4,7.7 204,9.3 201.7,9.3 C199.7,9.3 198.3,7.8 198.3,5.8 C198.3,3.8 199.8,2.3 201.8,2.3 C204,2.2 205.3,3.8 205.3,5.8 Z M199,45.4 L199,14.4 L204.6,14.4 L204.6,45.4 L199,45.4 Z" id="Shape"></path>
                <path d="M236.3,40.6 L236.2,40.6 C234.5,43.7 231.1,46.1 226.1,46.1 C218.9,46.1 213,39.8 213,30.4 C213,18.8 220.5,13.7 227,13.7 C231.8,13.7 235,16.1 236.5,19.1 L236.6,19.1 L236.8,14.4 L242.1,14.4 C242,17 241.9,19.7 241.9,22.9 L241.9,58 L236.3,58 L236.3,40.6 Z M236.3,27 C236.3,26.2 236.2,25.3 236,24.6 C235.2,21.1 232.2,18.2 227.9,18.2 C222.1,18.2 218.6,23.1 218.6,30.1 C218.6,36.2 221.5,41.6 227.8,41.6 C231.4,41.6 234.6,39.4 235.9,35.5 C236.2,34.7 236.3,33.6 236.3,32.8 L236.3,27 Z" id="Shape"></path>
            </g>
            <path d="M315.5,49.3 C315.5,52 313.3,54.1 310.5,54.1 C307.7,54.1 305.5,51.9 305.5,49.3 C305.5,46.6 307.7,44.5 310.5,44.5 C313.3,44.5 315.5,46.7 315.5,49.3 Z M307,49.4 C307,51.4 308.5,53 310.5,53 C312.5,53 314,51.4 314,49.4 C314,47.4 312.5,45.8 310.5,45.8 C308.5,45.7 307,47.3 307,49.4 Z M309.9,51.6 L308.5,51.6 L308.5,47.1 C308.8,47 309.5,47 310.5,47 C311.5,47 312,47.1 312.3,47.3 C312.6,47.5 312.8,47.8 312.8,48.3 C312.8,48.8 312.4,49.1 311.8,49.3 L311.8,49.4 C312.3,49.6 312.6,49.9 312.7,50.5 C312.8,51.1 312.9,51.4 313,51.6 L311.5,51.6 C311.4,51.4 311.3,51 311.2,50.6 C311.1,50.2 310.9,49.9 310.4,49.9 L310,49.9 L310,51.6 L309.9,51.6 Z M309.9,49.1 L310.3,49.1 C310.8,49.1 311.1,48.9 311.1,48.6 C311.1,48.2 310.8,48 310.3,48 C310.1,48 310,48 309.9,48 L309.9,49.1 Z" id="Shape" fill="#FFFFFF" fill-rule="nonzero"></path>
        </g>
    </g>
</svg>