<?xml version="1.0" encoding="utf-8"?>
<!-- Generator: Adobe Illustrator 19.2.1, SVG Export Plug-In . SVG Version: 6.00 Build 0)  -->
<svg version="1.1" id="marvel-logo" xmlns="http://www.w3.org/2000/svg" xmlns:xlink="http://www.w3.org/1999/xlink" x="0px"
	 y="0px" viewBox="0 0 80 34" style="enable-background:new 0 0 80 34;" xml:space="preserve">
<style type="text/css">
	.st0{fill:#1FB6FF;}
</style>
<path class="st0" d="M67.9,22c-29.1-2.2-53.2,4.7-58.5,7.2c-3,1.4-3.2,3.1-2.8,4c0.4,0.7,1.8,1.1,3.4,0.4c11.5-6.1,34.9-11,57.9-9.6
	c0.6,0,1-0.5,1-1C68.9,22.4,68.5,22,67.9,22z M75.1,13.4c-1.2,1.4-3,2.4-3.6,1.9s0-2.1,0-2.1C74.4,11.3,80,6.7,80,3.1
	c0-3.3-3-4.3-6.2-1.3c-2.6,2.7-4.4,6.1-5.4,9.7c-1.7,1.6-4.3,3.6-6.6,3.6c-1.2,0-1.6-0.9-1.4-2c2,0,7.5-1.6,7.5-6.2
	c0-1.5-1.3-2.7-2.8-2.7c-0.1,0-0.1,0-0.2,0c-2.5,0-5.7,2.6-7.3,6.1c-0.4-0.1-0.8-0.2-1.2-0.4c0.4-0.9,0.7-1.8,1-2.7
	c0.3-1.9-0.4-3.1-2-2.9c-1,0.1-2.2,0.9-2.4,2.9c-0.1,1,0.1,2,0.5,2.9c-0.7,2.1-3.5,4.8-4.4,4.7s0.1-3.8,1.1-6.6
	c0.5-0.5,0.9-1.2,1.2-1.9c0.3-0.5,0.1-1.2-0.4-1.5c-1.4-0.5-3,0.1-3.7,1.5c-0.4,0.7-0.7,1.4-1,2.1c-0.8,0.9-2,2.1-2.3,2
	c-0.5-0.3,1.2-2.6,1-3.9c-0.2-1.1-1.1-1.8-2.2-1.7C41.3,5.1,39.2,8,39.2,8c0.2-0.5,0.4-1.1,0.4-1.7c-0.1-1.1-2.2-1.6-3.2,0.4
	c-0.7,1.9-1.2,4-1.6,6c-0.4,0.9-2.2,3.7-3.6,3.7c-1.1,0.1,0.3-4.8,0.4-5.1c0.6-0.9,1.4-2.9,1.2-3.7c0-0.7-0.5-1.3-1.2-1.3
	c-0.1,0-0.3,0-0.4,0.1C30.6,6.5,30,7,29.6,7.6c-0.5-0.6-1.3-0.9-2.1-0.8C22.9,7.3,20,15.2,20.3,19c0.3,2,1.2,3.2,3,3
	c2-0.2,3.6-3.1,3.6-3.1s0.4,2.4,2.6,2.1c1.6-0.5,3-1.5,4.1-2.8c-0.1,0.1-0.1,0.3-0.1,0.4c-0.3,2,3,1.8,3.3,0.2
	c1-7.6,3.6-10.7,4.3-10.7c0.6,0-1.7,3.6-0.3,4.9c1,1.2,2.8,0.2,4.3-1C44.9,13,44.7,14,44.7,15c-0.1,2.1,0.7,3.8,2.8,3.7
	c2.8-0.1,5.7-3.5,7.6-6.7c0.5,0.3,1.1,0.6,1.7,0.7c-0.2,0.8-0.3,1.5-0.2,2.3c0.2,2.5,1.9,3.4,3.9,3.3c2.3-0.1,5.1-1.9,7-3.5
	c0,0.1,0,0.2-0.1,0.2c-0.2,1.2,0.1,3.4,1.8,3.5c2,0.2,5.5-1.9,7.2-4C77.7,13.6,76.2,12.3,75.1,13.4L75.1,13.4z M77,3.2
	c0.2,0,0.4,0.2,0.3,0.4c0,2.1-5.4,6.6-5.4,6.6S75.5,3.2,77,3.2z M64,7.6c0.3,0,0.6,0.2,0.6,0.5c0,0.1,0,0.1,0,0.2
	c0,1.2-1.7,2.1-3.5,2.1C62.1,9,63.2,7.6,64,7.6z M28,10.9c-0.2,1.3-2.4,7-3.6,7c-1.6,0.1,0.8-8.1,3.3-8C28.1,9.9,28.1,10.2,28,10.9z
	 M8.4,12.4c1.5,0-1.2,7.6-0.9,10.9s4.1,2.4,3.8,0.4c-0.4-3.2,1.8-13.5,4.1-13.5c1.7,0-1.8,7-1.1,11.5c0.4,2.9,4.4,2,4,0.2
	c-1.2-5.8,2.9-11.4,2.3-15.5c-0.3-1.7-1.2-2.6-2.4-2.6c-3.7,0-6.8,7.5-6.8,7.5S11.9,7,8.9,6.8C4.4,6.6-0.1,17.5,0,27.3
	c0.1,3.1,4.1,2.6,3.8,0.1C3.6,23,6.2,12.4,8.4,12.4L8.4,12.4z"/>
</svg>
