<?xml version="1.0" encoding="utf-8"?>
<!-- Generator: Adobe Illustrator 19.2.1, SVG Export Plug-In . SVG Version: 6.00 Build 0)  -->
<svg version="1.1" id="Layer_1" xmlns="http://www.w3.org/2000/svg" xmlns:xlink="http://www.w3.org/1999/xlink" x="0px" y="0px"
	 viewBox="0 0 184.8 175.8" style="enable-background:new 0 0 184.8 175.8;" xml:space="preserve">
<style type="text/css">
	.st0{fill:#CB4A31;}
	.st1{fill-rule:evenodd;clip-rule:evenodd;fill:#FFFFFF;}
</style>
<g>
	<g>
		<path class="st0" d="M177.8,19.9h-72.2V1L1,19.1v137.5l104.5,18.1v-22.9h72.2c3.3,0,6-2.7,6-6v-120
			C183.8,22.6,181.1,19.9,177.8,19.9z M177.7,145.9h-72.2v-15.1h56.3v-7h-56.3V112h56.3v-7h-56.3V85.5c4.5,5.3,11.3,8.7,18.8,8.7
			c13.7,0,24.7-11.1,24.7-24.7h-24.7V44.7c-7.5,0-14.3,3.4-18.8,8.7V25.9h72.2L177.7,145.9z M177.8,145.9L177.8,145.9"/>
		<path class="st0" d="M128.2,41.2V66h24.7C152.9,52.3,141.8,41.2,128.2,41.2z"/>
	</g>
	<path class="st1" d="M44.9,117.5c-3.7,0-7,0-10.5,0c0-19.5,0-38.5,0-58.4c8.1,0,16.1-0.2,24.1,0.2c2.1,0.1,4.5,1.7,6.1,3.3
		c5.9,6.1,5.9,13.8,4.2,21.4c-1.6,6.8-6,11.6-12.9,13.2c-3.4,0.8-7.1,0.7-11,1C44.9,104.7,44.9,111.2,44.9,117.5z M45.2,86.8
		c4.2,0.3,8.2,1.1,10.8-3.2c1.9-3.3,1.8-9.2-0.5-11.7c-2.9-3.2-6.6-2.8-10.3-2.2C45.2,75.5,45.2,81.1,45.2,86.8z"/>
</g>
</svg>
