<?xml version="1.0" encoding="utf-8"?>
<!-- Generator: Adobe Illustrator 20.1.0, SVG Export Plug-In . SVG Version: 6.00 Build 0)  -->
<svg version="1.1" id="Predicata_Outlines" xmlns="http://www.w3.org/2000/svg" xmlns:xlink="http://www.w3.org/1999/xlink" x="0px"
	 y="0px" viewBox="0 0 385.04 83.53" enable-background="new 0 0 385.04 83.53" xml:space="preserve">
<path fill="#FFFFFF" d="M48.466,36.155c0,12.444-10.201,22.646-22.645,22.646c-1.02,0-13.669,0-13.669,0v22.645H0.83V13.408h24.991
	C38.266,13.408,48.466,23.608,48.466,36.155z M37.144,36.155c0-6.324-5.1-11.425-11.322-11.425c-1.224,0-13.669,0-13.669,0v22.747
	h13.669C32.044,47.477,37.144,42.377,37.144,36.155z"/>
<path fill="#FFFFFF" d="M62.846,50.537v30.907H51.524V28.199h3.876l4.284,7.752c3.774-5.304,9.691-8.874,16.321-8.874
	c1.021,0,3.265,0.306,3.265,0.306v22.033h-3.774l-5.61-10.507C65.804,40.847,62.846,45.335,62.846,50.537z"/>
<path fill="#FFFFFF" d="M109.153,71.958c6.019,0,10.711-3.57,13.669-6.12l5.916,7.141c-4.386,5.406-12.24,9.588-20.604,9.588
	c-17.239,0-27.439-12.343-27.439-27.541c0-15.403,10.608-27.949,26.215-27.949c14.893,0,26.216,12.853,23.461,29.071H93.036
	C92.526,63.39,98.035,71.958,109.153,71.958z M118.129,46.763c0-5.202-4.08-9.078-11.118-9.078c-4.591,0-9.997,2.244-12.445,9.078
	H118.129z"/>
<path fill="#FFFFFF" d="M177.799,81.445l-4.284-8.059c-4.284,5.713-10.201,9.181-17.035,9.181
	c-12.751,0-22.951-12.343-22.951-27.745s10.2-27.745,22.951-27.745c5.202,0,9.996,2.04,13.771,5.508V2.085h11.425v79.359H177.799z
	 M157.806,37.685c-6.937,0-12.343,7.752-12.343,17.137s5.406,17.137,12.343,17.137s12.444-7.752,12.444-17.137
	S164.743,37.685,157.806,37.685z"/>
<path fill="#99CC66" d="M199.721,7.797c0,3.672-3.061,6.631-6.732,6.631c-3.774,0-6.835-2.959-6.835-6.631
	c0-3.774,3.061-6.834,6.835-6.834C196.66,0.963,199.721,4.023,199.721,7.797z M187.276,28.199h11.323v53.246h-11.323V28.199z"/>
<path fill="#FFFFFF" d="M239.167,43.397c-2.652-3.876-7.242-5.712-11.323-5.712c-7.344,0-13.362,7.242-13.362,17.137
	s6.019,17.137,13.362,17.137c4.081,0,9.079-1.632,11.323-5.712l6.732,5.712c-4.387,6.427-11.323,10.608-19.075,10.608
	c-13.465,0-24.277-12.343-24.277-27.745s10.812-27.745,24.277-27.745c7.752,0,14.688,4.182,19.177,10.608L239.167,43.397z"/>
<path fill="#FFFFFF" d="M290.269,81.445l-4.284-8.059c-4.284,5.713-10.201,9.181-17.035,9.181
	c-12.751,0-22.747-12.343-22.951-27.745c0-15.402,10.2-27.745,22.951-27.745c6.834,0,12.751,3.468,17.035,9.181l4.284-8.059h3.876
	v53.246H290.269z M270.276,37.685c-6.937,0-12.343,7.752-12.343,17.137s5.406,17.137,12.343,17.137s12.444-7.752,12.444-17.137
	S277.213,37.685,270.276,37.685z"/>
<path fill="#FFFFFF" d="M297.202,39.521V28.199h10.201V8.919h11.322v19.279h17.035v11.322h-17.035v22.237
	c0,8.059,3.774,11.118,8.364,11.118c2.448,0,4.284-0.714,6.528-1.632l1.326,6.937c-2.958,2.55-6.63,4.284-10.711,4.284
	c-9.384,0-16.83-8.16-16.83-21.217V39.521H297.202z"/>
<path fill="#FFFFFF" d="M380.334,81.445l-4.284-8.059c-4.284,5.713-10.201,9.181-17.035,9.181
	c-12.751,0-22.747-12.343-22.951-27.745c0-15.402,10.2-27.745,22.951-27.745c6.834,0,12.751,3.468,17.035,9.181l4.284-8.059h3.876
	v53.246H380.334z M360.341,37.685c-6.937,0-12.343,7.752-12.343,17.137s5.406,17.137,12.343,17.137s12.444-7.752,12.444-17.137
	S367.277,37.685,360.341,37.685z"/>
</svg>
