<?xml version="1.0" encoding="utf-8"?>
<!-- Generator: Adobe Illustrator 19.2.1, SVG Export Plug-In . SVG Version: 6.00 Build 0)  -->
<svg version="1.1" id="Layer_1" xmlns="http://www.w3.org/2000/svg" xmlns:xlink="http://www.w3.org/1999/xlink" x="0px" y="0px"
	 viewBox="0 0 1077.8 168.8" style="enable-background:new 0 0 1077.8 168.8;" xml:space="preserve">
<style type="text/css">
	.st0{enable-background:new    ;}
	.st1{fill:#FFFFFF;}
	.st2{fill:#19AEA6;}
</style>
<g transform="matrix(1,0,0,1,-45,0)">
	<g transform="matrix(-1.1026e-16,-0.685646,1.1495,-1.84854e-16,38.0695,419.673)">
		<g transform="matrix(1.45848,0,0,0.869944,-4.2166,1.46649)">
			<g class="st0">
				<path class="st1" d="M379.1,149.6V26.1h-22.3V6.6h44.6v143.1h21.2v19.8h-65.8v-19.8h22.3L379.1,149.6L379.1,149.6z"/>
			</g>
		</g>
	</g>
	<g transform="matrix(1.94228e-16,0.685646,-1.14326,3.23858e-16,202.409,381.55)">
		<g transform="matrix(1.45848,0,0,0.874694,-4.2166,1.41292)">
			<g class="st0">
				<path class="st1" d="M-253.3,134.8V11.3h-22.3V-8.2h44.5V135h21.2v19.8h-65.7V135h22.3V134.8z"/>
			</g>
		</g>
	</g>
	<g transform="matrix(0.881745,0,0,1.09551,40.3584,324.902)">
		<g>
			<rect x="49.5" y="-236.1" class="st2" width="98.7" height="33.3"/>
		</g>
	</g>
</g>
<g>
	<path class="st1" d="M281.5,147.4c-10.5-0.1-19.7-1.8-27.6-5.1s-14.4-7.9-19.7-13.6c-5.3-5.7-9.2-12.3-11.8-19.9
		s-3.9-15.6-3.9-24.2c0-9.3,1.4-17.8,4.3-25.5s7-14.3,12.4-19.9s12-9.9,19.8-12.9c7.8-3.1,16.6-4.6,26.5-4.6c7.9,0,15,1.3,21.2,3.9
		c6.3,2.6,11.7,6.1,16.4,10.5V23.5h16.6v38.4h-15.6c-2-4.3-4.3-8-7-11c-2.6-3.1-5.5-5.6-8.7-7.6s-6.5-3.4-10.1-4.3
		s-7.3-1.4-11.2-1.4c-6.4,0-12,1.2-17.1,3.5s-9.3,5.6-12.8,9.7s-6.3,9.1-8.1,14.8c-1.9,5.7-2.8,11.9-2.8,18.7
		c0,6.6,0.9,12.8,2.6,18.5s4.3,10.7,7.8,14.9c3.4,4.2,7.7,7.5,12.8,9.9c5.1,2.4,10.9,3.6,17.6,3.6c4.4,0,8.7-0.6,12.8-1.7
		s7.9-2.9,11.4-5.4c3.4-2.4,6.4-5.6,9-9.3c2.5-3.8,4.5-8.3,5.8-13.5l17.2,8.1c-2.3,7.3-5.4,13.4-9.3,18.2
		c-3.9,4.8-8.4,8.7-13.5,11.6s-10.6,5-16.5,6.2S287.9,147.3,281.5,147.4z"/>
	<path class="st1" d="M406.5,131.3v14.2h-54.3v-14.2h16.6v-57h-16.6V60.2h33.6l0.1,19.3c1.7-3.9,3.7-7.2,5.9-9.8s4.6-4.9,7.2-6.5
		c2.6-1.7,5.5-2.9,8.6-3.6s6.4-1.1,9.9-1.1c1.1,0,2.4,0.1,3.8,0.2c1.4,0.1,2.4,0.2,3.1,0.3l-0.2,18.1c-1.2-0.1-2.2-0.1-3-0.2
		c-0.8,0-1.5-0.1-2.3-0.1c-0.7,0-1.3-0.1-1.7-0.1c-5.2,0-9.7,0.7-13.3,2s-6.6,3.3-8.9,5.9s-4,5.8-5.1,9.6c-1.1,3.8-1.6,8.2-1.6,13.1
		v23.9h18.2L406.5,131.3L406.5,131.3z"/>
	<path class="st1" d="M542.4,131.3v14.2h-34.2l-0.4-9.6c-4.4,3.8-8.9,6.7-13.5,8.6s-9.3,2.9-14.1,2.9c-4.6,0-8.6-0.7-12-2
		s-6.2-3.2-8.4-5.7s-3.8-5.5-4.9-9.1c-1-3.6-1.6-7.6-1.6-12.1V74.3h-12.7V60.2h32.5v55.9c0,5.1,0.9,9,2.7,11.6c1.8,2.6,4.9,4,9.5,4
		c4.1,0,8-1.1,11.9-3.4c3.8-2.2,7.4-5.2,10.6-8.9V74.2h-14.2V60.1h34v71.1h14.8L542.4,131.3L542.4,131.3z"/>
	<path class="st1" d="M554.2,74.3V60.2h34.5c0,0.5,0,1.3,0,2.3s0,2.1,0.1,3.2c0,1.1,0.1,2.1,0.1,3.1c0,0.9,0.1,1.6,0.1,1.9
		c5-4,9.8-7,14.4-9.1c4.6-2,9.3-3.1,14.2-3.1c3.6,0,7,0.6,10.1,1.8s5.8,3,8,5.3c2.2,2.3,4,5.3,5.3,8.8s2,7.6,2,12.2
		c0,0.6,0,1.7,0,3.3c0,1.6,0,3.5-0.1,5.7c0,2.2-0.1,4.6-0.1,7.3s0,5.3,0,7.9v20.6h14.4v14.2h-43.4v-14.2h9.4V91.8
		c0-5.8-0.8-10.1-2.5-13.2c-1.6-3-4.5-4.5-8.7-4.5c-4.3,0-8.4,1.1-12.3,3.4s-7.5,5.1-10.9,8.5v45.4h12.1v14.2h-46.5v-14.2h14.5v-57
		L554.2,74.3L554.2,74.3z"/>
	<path class="st1" d="M748.1,91.7h-15.8c-0.7-2.5-1.6-4.9-2.8-7.1s-2.6-4-4.4-5.6s-3.9-2.8-6.3-3.7c-2.4-0.9-5.2-1.3-8.3-1.3
		c-3.9,0-7.5,0.7-10.6,2s-5.7,3.2-7.8,5.7s-3.7,5.5-4.8,9s-1.7,7.4-1.7,11.7c0,4.4,0.6,8.4,1.7,12c1.1,3.6,2.7,6.7,4.8,9.2
		s4.7,4.5,7.8,5.9s6.6,2.1,10.6,2.1c5.2,0,10.1-1.2,14.7-3.5c4.6-2.3,8.3-5.7,11.2-10.3l13.4,8.5c-4,6.9-9.3,12.1-15.8,15.6
		s-14.4,5.3-23.7,5.3c-7.6,0-14.3-1.3-20-3.8s-10.4-5.9-14.2-10s-6.5-8.9-8.4-14.2c-1.8-5.3-2.8-10.8-2.8-16.3
		c0-6.2,1.1-12,3.2-17.5c2.1-5.4,5.1-10.1,8.9-14.2c3.8-4,8.4-7.2,13.7-9.4c5.3-2.3,11.1-3.4,17.5-3.4c2.6,0,5.1,0.3,7.4,0.8
		s4.5,1.3,6.5,2.2s3.8,1.9,5.5,3.1s3.1,2.4,4.3,3.7l-0.1-8h16.4v31.5C748.2,91.7,748.1,91.7,748.1,91.7z"/>
	<path class="st1" d="M763.4,131.3h15.2V37.5h-15V23.4h34.6v44.8c5.1-3.4,10-5.9,14.6-7.4c4.7-1.5,9.5-2.3,14.5-2.3
		c8.8,0,15.4,2.4,19.8,7.2c4.5,4.8,6.7,11.6,6.7,20.4v45.2H867v14.2h-42.2v-14.2h9.4V89.9c0-2.3-0.2-4.4-0.6-6.3s-1.1-3.6-2.1-5
		s-2.3-2.5-3.9-3.3s-3.7-1.2-6.2-1.2c-3.5,0-7.2,0.7-11.1,2s-8,3.3-12.1,6v49.2h12.5v14.2h-47.4L763.4,131.3L763.4,131.3z"/>
	<path class="st1" d="M957.2,131.7c-3.8,5-9,8.8-15.5,11.5s-14.1,4.1-22.9,4.1c-7.4,0-14-1.1-19.9-3.4c-5.9-2.2-10.9-5.3-15-9.2
		s-7.3-8.6-9.5-14s-3.3-11.2-3.3-17.5c0-6.5,1.2-12.5,3.5-18s5.6-10.2,9.8-14.2s9.1-7.1,14.8-9.3s11.9-3.3,18.7-3.3
		c7.1,0,13.3,1.2,18.7,3.7c5.4,2.5,9.8,5.9,13.4,10.3s6.3,9.5,8.1,15.4s2.7,12.2,2.7,19.1h-68.9c0.3,3.6,1,7,2.3,10
		c1.2,3.1,3,5.7,5.3,8c2.3,2.2,5.2,4,8.5,5.3c3.4,1.3,7.3,1.9,11.7,1.9c4.8,0,9.5-0.9,14.2-2.8c4.7-1.9,8.9-4.6,12.4-8.1
		L957.2,131.7z M941.6,95.2c-0.5-3.2-1.3-6.2-2.6-8.8c-1.2-2.7-2.8-5-4.8-7s-4.3-3.5-7.1-4.6s-5.9-1.7-9.3-1.7c-7.6,0-13.4,2-17.6,6
		s-6.8,9.4-8,16.1H941.6z"/>
	<path class="st1" d="M1026.5,23.5h35.6v107.8h14.7v14.2h-34.6v-9.8c-3.8,4.1-8.2,7.1-13.1,8.9c-4.9,1.9-10.1,2.8-15.6,2.8
		c-5.4,0-10.5-1-15.4-2.9s-9.2-4.8-12.9-8.6s-6.7-8.5-9-14.1c-2.2-5.6-3.4-12-3.4-19.3c0-6.1,1-11.8,2.9-17.2c1.9-5.4,4.7-10,8.2-14
		s7.8-7.1,12.8-9.4c5-2.3,10.6-3.4,16.8-3.4c5.8,0,11,0.9,15.6,2.8s9,4.7,13.2,8.5V37.5h-15.9v-14H1026.5z M993.3,103.4
		c0,4.1,0.6,7.9,1.7,11.3c1.1,3.5,2.8,6.5,4.9,9s4.8,4.5,7.9,5.9s6.7,2.1,10.7,2.1c3.1,0,5.9-0.5,8.6-1.5c2.6-1,5-2.1,7-3.3
		s3.7-2.5,5.1-3.8s2.4-2.2,3-2.8V86.4c-0.6-0.6-1.6-1.6-3-3s-3.1-2.8-5.1-4.2c-2-1.4-4.4-2.6-7.1-3.7c-2.7-1-5.6-1.6-8.6-1.6
		c-4,0-7.6,0.7-10.7,2.2s-5.7,3.5-7.9,6.1c-2.1,2.6-3.8,5.7-4.9,9.3C993.9,95.3,993.3,99.2,993.3,103.4z"/>
</g>
</svg>
